<?xml version="1.0" encoding="utf-8"?>
<!-- Generator: Adobe Illustrator 15.0.2, SVG Export Plug-In . SVG Version: 6.00 Build 0)  -->
<!DOCTYPE svg PUBLIC "-//W3C//DTD SVG 1.1//EN" "http://www.w3.org/Graphics/SVG/1.1/DTD/svg11.dtd">
<svg version="1.1" id="Layer_1" xmlns="http://www.w3.org/2000/svg" xmlns:xlink="http://www.w3.org/1999/xlink" x="0px" y="0px"
	 width="111px" height="134px" viewBox="0 0 111 134" enable-background="new 0 0 111 134" xml:space="preserve">
<g>
	<path fill="#00AEEF" d="M2.085,38.357c-3.072,2.099-1.363,6.34,2.705,6.34c0.367,0,1.665,0,1.665,0V99.27
		c0,6.578,5.562,11.945,12.399,11.945h6.882l7.682-8.287l-13.157,23.023c-2.272,4.607,1.623,6.426,4.848,4.045
		c6.146-4.566,22.871-17.938,22.871-17.938l1.062-0.844H92.23c6.839,0,12.4-5.367,12.4-11.945V44.675c0,0,1.188,0,1.579,0
		c4.067,0,5.777-4.241,2.704-6.339l-13.178-9.002V15.183c0-1.666-1.602-3.008-3.569-3.008H82.58c-1.969,0-3.57,1.342-3.57,3.008
		v2.726L58.626,4.017c0,0-1.428-1.06-3.159-1.06s-3.115,1.06-3.115,1.06L2.085,38.357z"/>
	
		<linearGradient id="SVGID_1_" gradientUnits="userSpaceOnUse" x1="-335.4229" y1="-1010.4565" x2="-335.4229" y2="-729.8599" gradientTransform="matrix(0.2851 0 0 -0.2851 151.1187 -176.6494)">
		<stop  offset="0.092" style="stop-color:#02205F"/>
		<stop  offset="0.9264" style="stop-color:#303D75"/>
	</linearGradient>
	<path fill="url(#SVGID_1_)" d="M2.085,38.357c-3.072,2.099-1.363,6.34,2.705,6.34c0.367,0,1.665,0,1.665,0V99.27
		c0,6.578,5.562,11.945,12.399,11.945h6.882l7.682-8.287l-13.157,23.023c-2.272,4.607,1.623,6.426,4.848,4.045
		c6.146-4.566,22.871-17.938,22.871-17.938l1.062-0.844H92.23c6.839,0,12.4-5.367,12.4-11.945V44.675c0,0,1.188,0,1.579,0
		c4.067,0,5.777-4.241,2.704-6.339l-13.178-9.002V15.183c0-1.666-1.602-3.008-3.569-3.008H82.58c-1.969,0-3.57,1.342-3.57,3.008
		v2.726L58.626,4.017c0,0-1.428-1.06-3.159-1.06s-3.115,1.06-3.115,1.06L2.085,38.357z"/>
	
		<radialGradient id="SVGID_2_" cx="134.0439" cy="-1541.9629" r="350.7025" gradientTransform="matrix(0.2891 0 0 -0.1623 -7.1126 -115.3507)" gradientUnits="userSpaceOnUse">
		<stop  offset="0" style="stop-color:#00AEEF"/>
		<stop  offset="0.1436" style="stop-color:#00AEEF"/>
		<stop  offset="0.9149" style="stop-color:#00AEEF;stop-opacity:0"/>
	</radialGradient>
	<path fill="url(#SVGID_2_)" d="M22.23,128.871c-0.195,0-0.325-0.043-0.347-0.086c-0.086-0.131-0.194-0.736,0.368-1.904
		c0,0,12.939-22.613,13.134-22.959c1.861-3.268-1.622-4.674-3.612-2.467c-0.347,0.389-7.033,7.574-7.033,7.574h-5.864
		c-5.604,0-10.191-4.393-10.191-9.803V42.534H4.79c-1.191,0-1.817-0.606-1.991-1.125c-0.151-0.498,0.043-0.952,0.584-1.32
		L53.714,5.726l0.021-0.021c0.238-0.173,0.996-0.605,1.71-0.605c0.757,0,1.559,0.433,1.817,0.627l0.044,0.043h0.021l23.89,16.315
		v-6.859c0-0.411,0.583-0.866,1.341-0.866h9.586c0.779,0,1.342,0.455,1.342,0.866V30.48l14.108,9.629
		c0.54,0.368,0.735,0.822,0.583,1.32c-0.172,0.519-0.8,1.125-1.99,1.125H102.4V99.27c0,5.41-4.564,9.803-10.19,9.803H48.218
		l-1.665,1.318c-0.174,0.152-16.749,13.418-22.809,17.896C23.01,128.807,22.426,128.871,22.23,128.871z"/>
	
		<radialGradient id="SVGID_3_" cx="217.8135" cy="-602.0576" r="351.6452" gradientTransform="matrix(0.2891 0 0 -0.2784 -7.1126 -177.5313)" gradientUnits="userSpaceOnUse">
		<stop  offset="0" style="stop-color:#00AEEF"/>
		<stop  offset="0.7234" style="stop-color:#00AEEF;stop-opacity:0"/>
	</radialGradient>
	<path fill="url(#SVGID_3_)" d="M22.23,128.871c-0.195,0-0.325-0.043-0.347-0.086c-0.086-0.131-0.194-0.736,0.368-1.904
		c0,0,12.939-22.613,13.134-22.959c1.861-3.268-1.622-4.674-3.612-2.467c-0.347,0.389-7.033,7.574-7.033,7.574h-5.864
		c-5.604,0-10.191-4.393-10.191-9.803V42.534H4.79c-1.191,0-1.817-0.606-1.991-1.125c-0.151-0.498,0.043-0.952,0.584-1.32
		L53.714,5.726l0.021-0.021c0.238-0.173,0.996-0.605,1.71-0.605c0.757,0,1.559,0.433,1.817,0.627l0.044,0.043h0.021l23.89,16.315
		v-6.859c0-0.411,0.583-0.866,1.341-0.866h9.586c0.779,0,1.342,0.455,1.342,0.866V30.48l14.108,9.629
		c0.54,0.368,0.735,0.822,0.583,1.32c-0.172,0.519-0.8,1.125-1.99,1.125H102.4V99.27c0,5.41-4.564,9.803-10.19,9.803H48.218
		l-1.665,1.318c-0.174,0.152-16.749,13.418-22.809,17.896C23.01,128.807,22.426,128.871,22.23,128.871z"/>
	<path fill="#00AEEF" d="M49.797,84.707c-0.518,0-0.93-0.389-0.93-0.887s0.412-0.908,0.93-0.908c0.52,0,0.932,0.41,0.932,0.908
		S50.316,84.707,49.797,84.707"/>
	<rect x="41.314" y="74.645" fill="#00AEEF" width="3.376" height="3.268"/>
	<rect x="45.275" y="74.645" fill="#00AEEF" width="3.376" height="3.268"/>
	<rect x="41.314" y="78.453" fill="#00AEEF" width="3.376" height="3.246"/>
	<rect x="45.275" y="78.453" fill="#00AEEF" width="3.376" height="3.246"/>
	<g>
		<path fill="#6A719E" d="M49.797,84.707c-0.518,0-0.93-0.389-0.93-0.887s0.412-0.908,0.93-0.908c0.52,0,0.932,0.41,0.932,0.908
			S50.316,84.707,49.797,84.707"/>
		<rect x="41.314" y="74.645" fill="#6A719E" width="3.376" height="3.268"/>
		<rect x="45.275" y="74.645" fill="#6A719E" width="3.376" height="3.268"/>
		<rect x="41.314" y="78.453" fill="#6A719E" width="3.376" height="3.246"/>
		<rect x="45.275" y="78.453" fill="#6A719E" width="3.376" height="3.246"/>
	</g>
	<g>
		<g>
			<g>
				<path fill="#FFFFFF" d="M33.764,42.945v-0.606c0-0.412-0.281-0.692-0.692-0.692H14.506c-0.411,0-0.692,0.281-0.692,0.692v0.606
					c0,0.411,0.281,0.714,0.692,0.714h8.136v24.214c0,0.409,0.303,0.691,0.692,0.691h0.909c0.41,0,0.692-0.282,0.692-0.691V43.637
					h8.136C33.461,43.637,33.764,43.334,33.764,42.945z"/>
				<path fill="#FFFFFF" d="M73.902,66.574H62.196c-0.974,0-1.037-0.325-1.037-0.779l0.021-23.456
					c-0.021-0.412-0.346-0.692-0.779-0.692h-0.779c-0.433,0-0.758,0.281-0.758,0.692v23.499c0,1.644,1.191,2.727,3.03,2.727h11.987
					c0.434,0,0.758-0.303,0.758-0.691v-0.585C74.66,66.855,74.336,66.574,73.902,66.574z"/>
			</g>
		</g>
		<path fill="#FFFFFF" d="M54.602,46.342c0-2.358-2.012-4.847-5.388-4.847h-8.568c-3.55,0-5.433,2.51-5.433,4.847
			c0,0-0.021,0.779-0.021,0.823V67.83c0,0.452,0.324,0.777,0.801,0.777h0.693c0.454,0,0.801-0.325,0.801-0.777v-0.824l0,0v-3.809
			l0,0V55.95H52.33v11.036v0.845c0,0.452,0.346,0.777,0.8,0.777h0.692c0.455,0,0.801-0.325,0.801-0.777V47.165
			C54.623,47.1,54.602,46.342,54.602,46.342z M37.486,53.937v-6.772c0-0.021,0-0.021,0-0.043v-0.844c0-1.363,1.275-2.77,3.396-2.77
			h8.027c2.1,0,3.398,1.45,3.398,2.77v6.016l0,0v1.666H37.486V53.937z"/>
		<path fill="#FFFFFF" d="M97.532,67.266l-9.607-15.211l7.941-9.348c0.649-0.757,0.261-1.06-0.238-1.06c-0.172,0-1.081,0-1.298,0
			c-0.498,0-0.692,0.216-0.952,0.541L80.396,57.399V42.339c0-0.412-0.325-0.692-0.759-0.692h-0.778
			c-0.454,0-0.758,0.281-0.758,0.692v25.534c0,0.409,0.304,0.691,0.758,0.691h0.778c0.434,0,0.759-0.303,0.759-0.691v-6.211
			c0-0.801,0.043-0.823,0.714-1.644c0.151-0.151,5.279-6.146,5.279-6.146l8.959,14.151c0.151,0.238,0.367,0.541,0.844,0.541h0.887
			C97.597,68.564,98.03,68.023,97.532,67.266z"/>
	</g>
	<g>
		<g>
			<path fill="#FFFFFF" d="M84.225,72.609h13.242c0.434,0,0.758-0.303,0.758-0.691v-0.605c0-0.412-0.324-0.691-0.758-0.691H83.771
				c-1.948,0-3.095,1.471-3.095,2.877V94.66c0,1.58,1.406,2.879,3.095,2.879h13.696c0.434,0,0.758-0.281,0.758-0.693V96.24
				c0-0.412-0.324-0.691-0.758-0.691H84.225c-0.476,0-1.255-0.197-1.255-0.889V84.621h11.469c0.432,0,0.757-0.303,0.757-0.693
				v-0.605c0-0.41-0.325-0.693-0.757-0.693H82.97v-9.131C82.97,73.195,83.446,72.609,84.225,72.609z M32.356,70.621H31.47
				c-0.411,0-0.692,0.279-0.692,0.691v11.34H16.279v-11.34c0-0.412-0.303-0.691-0.692-0.691h-0.888c-0.41,0-0.691,0.279-0.691,0.691
				v25.512c0,0.412,0.303,0.693,0.691,0.693h0.888c0.411,0,0.692-0.281,0.692-0.693V84.643h14.477v12.182
				c0,0.412,0.303,0.693,0.692,0.693h0.887c0.411,0,0.692-0.281,0.692-0.693V71.313C33.049,70.924,32.746,70.621,32.356,70.621z
				 M76.305,70.383c-1.623,0-2.056,1.34-2.294,2.141l-6.34,22.117l-6.34-22.139c-0.237-0.801-0.649-2.119-2.294-2.119
				c-1.514,0-2.185,1.297-2.185,2.51v23.629c0,0.586,0.346,1.018,0.844,1.018h0.605c0.497,0,0.844-0.432,0.844-1.018V73.367
				c0-0.02,0-0.063,0-0.107c0.043,0.088,0.065,0.217,0.13,0.367l6.318,22.332c0.304,1.148,1.126,1.818,2.077,1.818
				c0.931,0,1.775-0.67,2.078-1.797l6.317-22.33c0.044-0.174,0.087-0.303,0.13-0.391c0,0.045,0,0.064,0,0.088V96.5
				c0,0.584,0.347,1.018,0.845,1.018h0.605c0.498,0,0.845-0.434,0.845-1.018V72.893C78.47,71.658,77.82,70.383,76.305,70.383z
				 M49.258,70.621h-8.569c-3.527,0-5.433,2.529-5.433,4.91v17.094c0,2.383,1.905,4.914,5.433,4.914h8.569
				c3.396,0,5.408-2.488,5.408-4.914V75.531C54.666,73.107,52.633,70.621,49.258,70.621z M52.373,92.691
				c0,1.363-1.299,2.857-3.397,2.857l-8.157,0.02c-1.277-0.064-3.311-1.059-3.311-2.943c0-3.244,0.021-15.881,0.021-17.18
				c0-1.406,1.275-2.855,3.396-2.855h8.05c2.099,0,3.397,1.471,3.397,2.855V92.691z"/>
		</g>
	</g>
</g>
</svg>
