<?xml version="1.0" encoding="UTF-8"?>
<!DOCTYPE svg  PUBLIC '-//W3C//DTD SVG 1.1//EN'  'http://www.w3.org/Graphics/SVG/1.1/DTD/svg11.dtd'>
<svg enable-background="new 0 0 100 100" version="1.1" viewBox="0 0 100 100" xml:space="preserve" xmlns="http://www.w3.org/2000/svg">
			<path d="m72.16 3.491l-14.142 7e-3s-0.287-0.022-0.803-0.022c-2.902 0-17.578 0.806-21.57 16.543-0.063 0.174-1.406 4.113-1.427 13.274h-13.417c-1.19 0-2.156 0.966-2.156 2.156v12.363c0 1.189 0.966 2.155 2.156 2.155h14.673v44.4c0 1.189 0.966 2.156 2.156 2.156h16.802c1.19 0 2.156-0.967 2.156-2.156v-44.354h14.721c1.19 0 2.156-0.966 2.156-2.156v-12.408c0-1.19-0.966-2.156-2.156-2.156h-14.692v-5.306c0-3.534 2.242-7.309 8.538-7.309h7.005c1.19 0 2.156-0.966 2.156-2.156v-12.875c0-1.19-0.964-2.156-2.156-2.156zm-2.156 12.876h-4.849c-8.876 0-12.85 5.836-12.85 11.621v7.462c0 1.19 0.966 2.156 2.155 2.156h14.691v8.096h-14.719c-1.19 0-2.156 0.966-2.156 2.155v44.356h-12.49v-44.401c0-1.19-0.966-2.156-2.156-2.156h-14.673v-8.05h13.433c0.58 0 1.134-0.233 1.54-0.647 0.405-0.414 0.627-0.972 0.617-1.552-0.192-9.806 1.156-13.934 1.22-14.144 3.18-12.503 14.16-13.475 17.448-13.475 0.3 0 0.479 9e-3 0.653 0.015h12.136v8.564z" fill="#8c8c8c"/>
</svg>
