<?xml version="1.0" encoding="UTF-8"?>
<!DOCTYPE svg  PUBLIC '-//W3C//DTD SVG 1.1//EN'  'http://www.w3.org/Graphics/SVG/1.1/DTD/svg11.dtd'>
<svg enable-background="new 0 0 100 100" version="1.1" viewBox="0 0 100 100" xml:space="preserve" xmlns="http://www.w3.org/2000/svg">
			<path d="m79.506 18.539h-7.99c-2.61 0-4.735 2.125-4.735 4.735v7.988c0 2.61 2.125 4.735 4.735 4.735h7.99c2.609 0 4.734-2.125 4.734-4.735v-7.988c0-2.61-2.125-4.735-4.734-4.735zm0.589 12.723c0 0.325-0.264 0.588-0.589 0.588h-7.99c-0.326 0-0.589-0.263-0.589-0.588v-7.988c0-0.325 0.266-0.588 0.589-0.588h7.99c0.322 0 0.589 0.263 0.589 0.588v7.988zm-5.217-23.761h-49.756c-10.287 0-18.659 8.371-18.659 18.658v47.683c0 10.288 8.372 18.658 18.659 18.658h49.756c10.287 0 18.658-8.37 18.658-18.658v-47.683c0-10.287-8.371-18.658-18.658-18.658zm14.513 66.341c0 8.003-6.511 14.514-14.513 14.514h-49.756c-8.002 0-14.512-6.511-14.512-14.514v-31.097h20.9c-3.956 4.407-6.388 10.21-6.388 16.585 0 13.719 11.16 24.878 24.878 24.878 13.719 0 24.878-11.16 24.878-24.878 0-6.375-2.432-12.178-6.388-16.585h20.9v31.097zm-39.391-35.243c11.432 0 20.731 9.3 20.731 20.731 0 11.432-9.3 20.731-20.731 20.731s-20.731-9.3-20.731-20.731 9.299-20.731 20.731-20.731zm39.391 0h-25.668c-3.938-2.615-8.653-4.147-13.723-4.147-5.069 0-9.786 1.532-13.722 4.146h-25.669v-12.439c0-8.002 6.51-14.512 14.512-14.512h49.756c8.002 0 14.513 6.51 14.513 14.512v12.44zm-39.391 35.243c8.003 0 14.512-6.509 14.512-14.512 0-8.002-6.509-14.512-14.512-14.512s-14.512 6.51-14.512 14.512c0 8.003 6.509 14.512 14.512 14.512zm0-24.878c5.716 0 10.366 4.651 10.366 10.366 0 5.716-4.65 10.366-10.366 10.366-5.715 0-10.366-4.65-10.366-10.366 0-5.715 4.651-10.366 10.366-10.366z" fill="#8c8c8c"/>
</svg>
