<?xml version="1.0" encoding="utf-8"?>
<!-- Generator: Adobe Illustrator 15.0.2, SVG Export Plug-In . SVG Version: 6.00 Build 0)  -->
<!DOCTYPE svg PUBLIC "-//W3C//DTD SVG 1.1//EN" "http://www.w3.org/Graphics/SVG/1.1/DTD/svg11.dtd">
<svg version="1.1" id="Layer_1" xmlns="http://www.w3.org/2000/svg" xmlns:xlink="http://www.w3.org/1999/xlink" x="0px" y="0px"
	 width="100px" height="100px" viewBox="0 0 100 100" enable-background="new 0 0 100 100" xml:space="preserve">
<g>
	<g id="linkedin">
		<g>
			<path fill="#FFFFFF" d="M23.496,28.978H5.677c-1.219,0-2.208,0.989-2.208,2.208v62.292c0,1.219,0.989,2.208,2.208,2.208h17.821
				c1.22,0,2.209-0.989,2.209-2.208V31.186C25.704,29.965,24.718,28.978,23.496,28.978z M21.288,91.271H7.883V33.394h13.405V91.271z
				 M73.183,28.221c-8.653,0-14.313,3.734-17.602,6.981l-0.406-4.228c-0.11-1.135-1.063-1.996-2.196-1.996h-0.045L36.688,29.29
				c-0.597,0.011-1.161,0.263-1.567,0.697c-0.409,0.435-0.623,1.016-0.597,1.61c0.204,4.548,0.197,9.865,0.188,16.02L34.71,93.792
				c0,1.22,0.989,2.209,2.208,2.209H54.74c1.219,0,2.208-0.989,2.208-2.209V57.781c0-1.838,0.158-3.168,0.475-3.96
				c1.11-2.829,4.775-5.752,8.983-5.752c5.451,0,8.704,4.146,8.704,11.095v34.628c0,1.22,0.989,2.208,2.208,2.208h17.508
				c1.219,0,2.208-0.988,2.208-2.208V56.903C97.034,38.942,88.116,28.221,73.183,28.221z M92.618,91.584H79.525v-32.42
				c0-9.423-5.151-15.51-13.119-15.51c-6.323,0-11.466,4.407-13.088,8.542c-0.537,1.341-0.786,3.118-0.786,5.586v33.803H39.126
				l0.002-43.96c0.007-5.229,0.014-9.856-0.108-13.962l11.956-0.23l0.687,7.121c0.11,1.133,1.063,1.996,2.199,1.996h0.375
				c0.763,0,1.469-0.391,1.872-1.038c1.304-2.082,6.384-8.873,17.076-8.873c12.353,0,19.436,8.845,19.436,24.267v34.682
				L92.618,91.584L92.618,91.584z M15.334,3C8.167,3,2.966,7.939,2.966,14.746c0,6.802,5.098,11.739,12.12,11.739
				c7.241,0,12.495-4.937,12.495-11.792C27.42,7.809,22.384,3,15.334,3z M15.086,22.069c-4.537,0-7.705-3.011-7.705-7.323
				c0-4.385,3.196-7.33,7.953-7.33c4.652,0,7.728,2.896,7.831,7.33C23.165,19.126,19.918,22.069,15.086,22.069z"/>
		</g>
	</g>
</g>
</svg>
