<?xml version="1.0" encoding="UTF-8"?>
<!DOCTYPE svg  PUBLIC '-//W3C//DTD SVG 1.1//EN'  'http://www.w3.org/Graphics/SVG/1.1/DTD/svg11.dtd'>
<svg enable-background="new 0 0 111 134" version="1.1" viewBox="0 0 111 134" xml:space="preserve" xmlns="http://www.w3.org/2000/svg">
	<path d="m2.085 38.357c-3.072 2.099-1.363 6.34 2.705 6.34h1.665v54.573c0 6.578 5.562 11.945 12.399 11.945h6.882l7.682-8.287-13.157 23.023c-2.272 4.607 1.623 6.426 4.848 4.045 6.146-4.566 22.871-17.938 22.871-17.938l1.062-0.844h43.188c6.839 0 12.4-5.367 12.4-11.945v-54.594h1.579c4.067 0 5.777-4.241 2.704-6.339l-13.178-9.002v-14.151c0-1.666-1.602-3.008-3.569-3.008h-9.586c-1.969 0-3.57 1.342-3.57 3.008v2.726l-20.384-13.892s-1.428-1.06-3.159-1.06-3.115 1.06-3.115 1.06l-50.267 34.34z" fill="#00AEEF"/>
		<linearGradient id="c" x1="-335.42" x2="-335.42" y1="-1010.5" y2="-729.86" gradientTransform="matrix(.2851 0 0 -.2851 151.12 -176.65)" gradientUnits="userSpaceOnUse">
		<stop stop-color="#02205F" offset=".092"/>
		<stop stop-color="#303D75" offset=".9264"/>
	</linearGradient>
	<path d="m2.085 38.357c-3.072 2.099-1.363 6.34 2.705 6.34h1.665v54.573c0 6.578 5.562 11.945 12.399 11.945h6.882l7.682-8.287-13.157 23.023c-2.272 4.607 1.623 6.426 4.848 4.045 6.146-4.566 22.871-17.938 22.871-17.938l1.062-0.844h43.188c6.839 0 12.4-5.367 12.4-11.945v-54.594h1.579c4.067 0 5.777-4.241 2.704-6.339l-13.178-9.002v-14.151c0-1.666-1.602-3.008-3.569-3.008h-9.586c-1.969 0-3.57 1.342-3.57 3.008v2.726l-20.384-13.892s-1.428-1.06-3.159-1.06-3.115 1.06-3.115 1.06l-50.267 34.34z" fill="url(#c)"/>
		<radialGradient id="b" cx="134.04" cy="-1542" r="350.7" gradientTransform="matrix(.2891 0 0 -.1623 -7.1126 -115.35)" gradientUnits="userSpaceOnUse">
		<stop stop-color="#00AEEF" offset="0"/>
		<stop stop-color="#00AEEF" offset=".1436"/>
		<stop stop-color="#00AEEF" stop-opacity="0" offset=".9149"/>
	</radialGradient>
	<path d="m22.23 128.87c-0.195 0-0.325-0.043-0.347-0.086-0.086-0.131-0.194-0.736 0.368-1.904 0 0 12.939-22.613 13.134-22.959 1.861-3.268-1.622-4.674-3.612-2.467-0.347 0.389-7.033 7.574-7.033 7.574h-5.864c-5.604 0-10.191-4.393-10.191-9.803v-56.692h-3.895c-1.191 0-1.817-0.606-1.991-1.125-0.151-0.498 0.043-0.952 0.584-1.32l50.331-34.363 0.021-0.021c0.238-0.173 0.996-0.605 1.71-0.605 0.757 0 1.559 0.433 1.817 0.627l0.044 0.043h0.021l23.89 16.315v-6.859c0-0.411 0.583-0.866 1.341-0.866h9.586c0.779 0 1.342 0.455 1.342 0.866v15.254l14.108 9.629c0.54 0.368 0.735 0.822 0.583 1.32-0.172 0.519-0.8 1.125-1.99 1.125h-3.787v56.716c0 5.41-4.564 9.803-10.19 9.803h-43.992l-1.665 1.318c-0.174 0.152-16.749 13.418-22.809 17.896-0.734 0.52-1.318 0.584-1.514 0.584z" fill="url(#b)"/>
		<radialGradient id="a" cx="217.81" cy="-602.06" r="351.65" gradientTransform="matrix(.2891 0 0 -.2784 -7.1126 -177.53)" gradientUnits="userSpaceOnUse">
		<stop stop-color="#00AEEF" offset="0"/>
		<stop stop-color="#00AEEF" stop-opacity="0" offset=".7234"/>
	</radialGradient>
	<path d="m22.23 128.87c-0.195 0-0.325-0.043-0.347-0.086-0.086-0.131-0.194-0.736 0.368-1.904 0 0 12.939-22.613 13.134-22.959 1.861-3.268-1.622-4.674-3.612-2.467-0.347 0.389-7.033 7.574-7.033 7.574h-5.864c-5.604 0-10.191-4.393-10.191-9.803v-56.692h-3.895c-1.191 0-1.817-0.606-1.991-1.125-0.151-0.498 0.043-0.952 0.584-1.32l50.331-34.363 0.021-0.021c0.238-0.173 0.996-0.605 1.71-0.605 0.757 0 1.559 0.433 1.817 0.627l0.044 0.043h0.021l23.89 16.315v-6.859c0-0.411 0.583-0.866 1.341-0.866h9.586c0.779 0 1.342 0.455 1.342 0.866v15.254l14.108 9.629c0.54 0.368 0.735 0.822 0.583 1.32-0.172 0.519-0.8 1.125-1.99 1.125h-3.787v56.716c0 5.41-4.564 9.803-10.19 9.803h-43.992l-1.665 1.318c-0.174 0.152-16.749 13.418-22.809 17.896-0.734 0.52-1.318 0.584-1.514 0.584z" fill="url(#a)"/>
	<path d="m49.797 84.707c-0.518 0-0.93-0.389-0.93-0.887s0.412-0.908 0.93-0.908c0.52 0 0.932 0.41 0.932 0.908s-0.413 0.887-0.932 0.887" fill="#00AEEF"/>
	<rect x="41.314" y="74.645" width="3.376" height="3.268" fill="#00AEEF"/>
	<rect x="45.275" y="74.645" width="3.376" height="3.268" fill="#00AEEF"/>
	<rect x="41.314" y="78.453" width="3.376" height="3.246" fill="#00AEEF"/>
	<rect x="45.275" y="78.453" width="3.376" height="3.246" fill="#00AEEF"/>
	<g fill="#6A719E">
		<path d="m49.797 84.707c-0.518 0-0.93-0.389-0.93-0.887s0.412-0.908 0.93-0.908c0.52 0 0.932 0.41 0.932 0.908s-0.413 0.887-0.932 0.887"/>
		<rect x="41.314" y="74.645" width="3.376" height="3.268"/>
		<rect x="45.275" y="74.645" width="3.376" height="3.268"/>
		<rect x="41.314" y="78.453" width="3.376" height="3.246"/>
		<rect x="45.275" y="78.453" width="3.376" height="3.246"/>
	</g>
			<g fill="#fff">
				<path d="m33.764 42.945v-0.606c0-0.412-0.281-0.692-0.692-0.692h-18.566c-0.411 0-0.692 0.281-0.692 0.692v0.606c0 0.411 0.281 0.714 0.692 0.714h8.136v24.214c0 0.409 0.303 0.691 0.692 0.691h0.909c0.41 0 0.692-0.282 0.692-0.691v-24.236h8.136c0.39 0 0.693-0.303 0.693-0.692z"/>
				<path d="m73.902 66.574h-11.706c-0.974 0-1.037-0.325-1.037-0.779l0.021-23.456c-0.021-0.412-0.346-0.692-0.779-0.692h-0.779c-0.433 0-0.758 0.281-0.758 0.692v23.499c0 1.644 1.191 2.727 3.03 2.727h11.987c0.434 0 0.758-0.303 0.758-0.691v-0.585c0.021-0.434-0.303-0.715-0.737-0.715z"/>
			</g>
		<path d="m54.602 46.342c0-2.358-2.012-4.847-5.388-4.847h-8.568c-3.55 0-5.433 2.51-5.433 4.847 0 0-0.021 0.779-0.021 0.823v20.665c0 0.452 0.324 0.777 0.801 0.777h0.693c0.454 0 0.801-0.325 0.801-0.777v-11.88h14.843v11.881c0 0.452 0.346 0.777 0.8 0.777h0.692c0.455 0 0.801-0.325 0.801-0.777v-20.666c0-0.065-0.021-0.823-0.021-0.823zm-17.116 7.595v-6.772-0.043-0.844c0-1.363 1.275-2.77 3.396-2.77h8.027c2.1 0 3.398 1.45 3.398 2.77v7.682h-14.821v-0.023z" fill="#fff"/>
		<path d="m97.532 67.266l-9.607-15.211 7.941-9.348c0.649-0.757 0.261-1.06-0.238-1.06h-1.298c-0.498 0-0.692 0.216-0.952 0.541l-12.982 15.211v-15.06c0-0.412-0.325-0.692-0.759-0.692h-0.778c-0.454 0-0.758 0.281-0.758 0.692v25.534c0 0.409 0.304 0.691 0.758 0.691h0.778c0.434 0 0.759-0.303 0.759-0.691v-6.211c0-0.801 0.043-0.823 0.714-1.644 0.151-0.151 5.279-6.146 5.279-6.146l8.959 14.151c0.151 0.238 0.367 0.541 0.844 0.541h0.887c0.518 0 0.951-0.541 0.453-1.298z" fill="#fff"/>
			<path d="m84.225 72.609h13.242c0.434 0 0.758-0.303 0.758-0.691v-0.605c0-0.412-0.324-0.691-0.758-0.691h-13.696c-1.948 0-3.095 1.471-3.095 2.877v21.161c0 1.58 1.406 2.879 3.095 2.879h13.696c0.434 0 0.758-0.281 0.758-0.693v-0.606c0-0.412-0.324-0.691-0.758-0.691h-13.242c-0.476 0-1.255-0.197-1.255-0.889v-10.039h11.469c0.432 0 0.757-0.303 0.757-0.693v-0.605c0-0.41-0.325-0.693-0.757-0.693h-11.469v-9.131c0-0.304 0.476-0.89 1.255-0.89zm-51.869-1.988h-0.886c-0.411 0-0.692 0.279-0.692 0.691v11.34h-14.499v-11.34c0-0.412-0.303-0.691-0.692-0.691h-0.888c-0.41 0-0.691 0.279-0.691 0.691v25.512c0 0.412 0.303 0.693 0.691 0.693h0.888c0.411 0 0.692-0.281 0.692-0.693v-12.181h14.477v12.182c0 0.412 0.303 0.693 0.692 0.693h0.887c0.411 0 0.692-0.281 0.692-0.693v-25.512c0.022-0.389-0.281-0.692-0.671-0.692zm43.949-0.238c-1.623 0-2.056 1.34-2.294 2.141l-6.34 22.117-6.34-22.139c-0.237-0.801-0.649-2.119-2.294-2.119-1.514 0-2.185 1.297-2.185 2.51v23.629c0 0.586 0.346 1.018 0.844 1.018h0.605c0.497 0 0.844-0.432 0.844-1.018v-23.155-0.107c0.043 0.088 0.065 0.217 0.13 0.367l6.318 22.332c0.304 1.148 1.126 1.818 2.077 1.818 0.931 0 1.775-0.67 2.078-1.797l6.317-22.33c0.044-0.174 0.087-0.303 0.13-0.391v0.088 23.153c0 0.584 0.347 1.018 0.845 1.018h0.605c0.498 0 0.845-0.434 0.845-1.018v-23.607c-0.02-1.235-0.67-2.51-2.185-2.51zm-27.047 0.238h-8.569c-3.527 0-5.433 2.529-5.433 4.91v17.094c0 2.383 1.905 4.914 5.433 4.914h8.569c3.396 0 5.408-2.488 5.408-4.914v-17.094c0-2.424-2.033-4.91-5.408-4.91zm3.115 22.07c0 1.363-1.299 2.857-3.397 2.857l-8.157 0.02c-1.277-0.064-3.311-1.059-3.311-2.943 0-3.244 0.021-15.881 0.021-17.18 0-1.406 1.275-2.855 3.396-2.855h8.05c2.099 0 3.397 1.471 3.397 2.855v17.246z" fill="#fff"/>
</svg>
