<?xml version="1.0" encoding="utf-8"?>
<!-- Generator: Adobe Illustrator 15.0.2, SVG Export Plug-In . SVG Version: 6.00 Build 0)  -->
<!DOCTYPE svg PUBLIC "-//W3C//DTD SVG 1.1//EN" "http://www.w3.org/Graphics/SVG/1.1/DTD/svg11.dtd">
<svg version="1.1" id="Layer_1" xmlns="http://www.w3.org/2000/svg" xmlns:xlink="http://www.w3.org/1999/xlink" x="0px" y="0px"
	 width="100px" height="100px" viewBox="0 0 100 100" enable-background="new 0 0 100 100" xml:space="preserve">
<g>
	<g id="facebook">
		<g>
			<path fill="#FFFFFF" d="M72.16,3.491L58.018,3.498c0,0-0.287-0.022-0.803-0.022c-2.902,0-17.578,0.806-21.57,16.543
				c-0.063,0.174-1.406,4.113-1.427,13.274H20.801c-1.19,0-2.156,0.966-2.156,2.156v12.363c0,1.189,0.966,2.155,2.156,2.155h14.673
				v44.4c0,1.189,0.966,2.156,2.156,2.156h16.802c1.19,0,2.156-0.967,2.156-2.156V50.013h14.721c1.19,0,2.156-0.966,2.156-2.156
				V35.449c0-1.19-0.966-2.156-2.156-2.156H56.617v-5.306c0-3.534,2.242-7.309,8.538-7.309h7.005c1.19,0,2.156-0.966,2.156-2.156
				V5.647C74.316,4.457,73.352,3.491,72.16,3.491z M70.004,16.367h-4.849c-8.876,0-12.85,5.836-12.85,11.621v7.462
				c0,1.19,0.966,2.156,2.155,2.156h14.691v8.096H54.432c-1.19,0-2.156,0.966-2.156,2.155v44.356H39.786V47.812
				c0-1.19-0.966-2.156-2.156-2.156H22.957v-8.05H36.39c0.58,0,1.134-0.233,1.54-0.647c0.405-0.414,0.627-0.972,0.617-1.552
				c-0.192-9.806,1.156-13.934,1.22-14.144C42.947,8.76,53.927,7.788,57.215,7.788c0.3,0,0.479,0.009,0.653,0.015h12.136V16.367
				L70.004,16.367z"/>
		</g>
	</g>
</g>
</svg>
