<?xml version="1.0" encoding="utf-8"?>
<!-- Generator: Adobe Illustrator 15.0.2, SVG Export Plug-In . SVG Version: 6.00 Build 0)  -->
<!DOCTYPE svg PUBLIC "-//W3C//DTD SVG 1.1//EN" "http://www.w3.org/Graphics/SVG/1.1/DTD/svg11.dtd">
<svg version="1.1" id="Layer_1" xmlns="http://www.w3.org/2000/svg" xmlns:xlink="http://www.w3.org/1999/xlink" x="0px" y="0px"
	 width="100px" height="100px" viewBox="0 0 100 100" enable-background="new 0 0 100 100" xml:space="preserve">
<g>
	<g id="instagram">
		<g>
			<path fill="#FFFFFF" d="M79.506,18.539h-7.99c-2.61,0-4.735,2.125-4.735,4.735v7.988c0,2.61,2.125,4.735,4.735,4.735h7.99
				c2.609,0,4.734-2.125,4.734-4.735v-7.988C84.24,20.664,82.115,18.539,79.506,18.539z M80.095,31.262
				c0,0.325-0.264,0.588-0.589,0.588h-7.99c-0.326,0-0.589-0.263-0.589-0.588v-7.988c0-0.325,0.266-0.588,0.589-0.588h7.99
				c0.322,0,0.589,0.263,0.589,0.588V31.262z M74.878,7.501H25.122c-10.287,0-18.659,8.371-18.659,18.658v47.683
				c0,10.288,8.372,18.658,18.659,18.658h49.756c10.287,0,18.658-8.37,18.658-18.658V26.159
				C93.536,15.872,85.165,7.501,74.878,7.501z M89.391,73.842c0,8.003-6.511,14.514-14.513,14.514H25.122
				c-8.002,0-14.512-6.511-14.512-14.514V42.745h20.9c-3.956,4.407-6.388,10.21-6.388,16.585c0,13.719,11.16,24.878,24.878,24.878
				c13.719,0,24.878-11.16,24.878-24.878c0-6.375-2.432-12.178-6.388-16.585h20.9V73.842z M50,38.599
				c11.432,0,20.731,9.3,20.731,20.731c0,11.432-9.3,20.731-20.731,20.731s-20.731-9.3-20.731-20.731
				C29.269,47.899,38.568,38.599,50,38.599z M89.391,38.599H63.723C59.785,35.984,55.07,34.452,50,34.452
				c-5.069,0-9.786,1.532-13.722,4.146H10.609V26.159c0-8.002,6.51-14.512,14.512-14.512h49.756c8.002,0,14.513,6.51,14.513,14.512
				V38.599z M50,73.842c8.003,0,14.512-6.509,14.512-14.512c0-8.002-6.509-14.512-14.512-14.512s-14.512,6.51-14.512,14.512
				C35.488,67.333,41.997,73.842,50,73.842z M50,48.964c5.716,0,10.366,4.651,10.366,10.366c0,5.716-4.65,10.366-10.366,10.366
				c-5.715,0-10.366-4.65-10.366-10.366C39.634,53.615,44.285,48.964,50,48.964z"/>
		</g>
	</g>
</g>
</svg>
