<?xml version="1.0" encoding="utf-8"?>
<!-- Generator: Adobe Illustrator 15.0.2, SVG Export Plug-In . SVG Version: 6.00 Build 0)  -->
<!DOCTYPE svg PUBLIC "-//W3C//DTD SVG 1.1//EN" "http://www.w3.org/Graphics/SVG/1.1/DTD/svg11.dtd">
<svg version="1.1" id="Layer_1" xmlns="http://www.w3.org/2000/svg" xmlns:xlink="http://www.w3.org/1999/xlink" x="0px" y="0px"
	 width="100px" height="100px" viewBox="0 0 100 100" enable-background="new 0 0 100 100" xml:space="preserve">
<g>
	<g id="twitter">
		<g>
			<path fill="#FFFFFF" d="M95.583,20.849c-0.746-0.51-1.729-0.493-2.453,0.048c-0.499,0.373-1.243,0.704-2.111,0.993
				c2.86-3.547,2.901-5.918,2.86-6.502c-0.058-0.759-0.52-1.431-1.208-1.753c-0.692-0.325-1.501-0.253-2.12,0.193
				c-3.899,2.791-7.801,3.398-10.077,3.478c-3.705-3.442-8.495-5.328-13.588-5.328c-11.017,0-19.98,8.959-19.98,19.976
				c0,0.797,0.048,1.593,0.142,2.382c-18.384-0.458-33.296-17.786-33.445-17.963c-0.44-0.523-1.104-0.799-1.791-0.738
				c-0.681,0.061-1.291,0.447-1.636,1.037c-4.679,7.999-2.77,15.578,0.438,20.878c-0.596-0.32-1.317-0.342-1.937-0.032
				c-0.704,0.35-1.157,1.064-1.169,1.854c-0.137,8.403,3.701,13.439,7.572,16.373c-0.284,0.116-0.543,0.296-0.756,0.529
				c-0.504,0.552-0.679,1.33-0.458,2.044C16.556,67,22.879,70.253,27.316,71.472C22.228,75.06,15.935,75.9,11.152,75.9
				c-3.054,0-5.157-0.363-5.178-0.368c-0.953-0.168-1.91,0.345-2.299,1.237c-0.388,0.895-0.114,1.938,0.666,2.523
				c9.597,7.215,21.184,8.729,29.216,8.729c6.348,0,10.76-0.927,10.982-0.976c41.229-9.628,42.795-46.596,42.729-53.331
				c7.729-7.101,8.959-9.872,9.153-10.563C96.665,22.284,96.327,21.359,95.583,20.849z M83.722,31.25
				c-0.479,0.434-0.73,1.062-0.687,1.707c0.026,0.4,2.28,40.241-39.415,49.978c-0.04,0.009-4.193,0.875-10.066,0.875
				c-5.471,0-12.713-0.748-19.624-3.781c6.327-0.405,14.086-2.346,19.666-8.52c0.559-0.619,0.696-1.507,0.356-2.271
				c-0.339-0.761-1.1-1.251-1.933-1.251c-0.392,0-8.688-0.1-12.839-7.811c1.922,0.062,3.665-0.224,4.957-0.811
				c0.828-0.378,1.317-1.243,1.22-2.146c-0.097-0.904-0.767-1.644-1.657-1.836c-0.449-0.097-9.999-2.271-11.72-12.345
				c1.496,0.572,3.317,0.967,5.079,0.708c0.818-0.122,1.49-0.71,1.718-1.504c0.228-0.795-0.032-1.65-0.66-2.187
				c-0.421-0.357-9.528-8.271-5.572-18.628c5.304,5.385,19.74,18.06,37.146,17.08c0.628-0.036,1.21-0.352,1.58-0.86
				c0.372-0.508,0.498-1.157,0.342-1.768c-0.327-1.275-0.491-2.597-0.491-3.924c0-8.69,7.071-15.761,15.766-15.761
				c4.26,0,8.249,1.671,11.236,4.708c0.389,0.392,0.916,0.62,1.468,0.628l0.324,0.002c1.55,0,3.977-0.188,6.763-1.086
				c-0.893,0.942-2.051,2.004-3.555,3.166c-0.737,0.572-1.012,1.558-0.677,2.426c0.336,0.871,1.213,1.418,2.131,1.343
				c0.342-0.027,1.842-0.159,3.699-0.491C87.108,28.088,85.619,29.527,83.722,31.25z"/>
		</g>
	</g>
</g>
</svg>
