<?xml version="1.0" encoding="utf-8"?>
<!-- Generator: Adobe Illustrator 23.0.1, SVG Export Plug-In . SVG Version: 6.00 Build 0)  -->
<svg version="1.1" id="Layer_1" xmlns="http://www.w3.org/2000/svg" xmlns:xlink="http://www.w3.org/1999/xlink" x="0px" y="0px"
	 viewBox="0 0 172.3 172.3" style="enable-background:new 0 0 172.3 172.3;" xml:space="preserve">
<style type="text/css">
	.st0{fill-rule:evenodd;clip-rule:evenodd;fill:#FFFFFF;}
	.st1{fill:#DFE32C;}
	.st2{fill:#010101;}
	.st3{fill:#312E7C;}
</style>
<circle class="st0" cx="86.1" cy="86.1" r="86.1"/>
<ellipse transform="matrix(0.9999 -1.281773e-02 1.281773e-02 0.9999 -0.4076 1.8941)" class="st1" cx="147.6" cy="32.7" rx="19.9" ry="19.9"/>
<g>
	<path class="st2" d="M143,38.8h3.7V28c0-0.4,0-0.9,0-1.3l-2.7,2.2c-0.1,0.1-0.2,0.2-0.3,0.2c-0.1,0-0.2,0.1-0.3,0.1
		c-0.2,0-0.3,0-0.5-0.1s-0.2-0.2-0.3-0.2l-1-1.4l5.6-4.8h2.6v16.1h3.3v2.4H143V38.8z"/>
</g>
<path class="st3" d="M114.8,73.7l-2,0l-6.5-3.3L98,72.9l-4.6,10.3c0,0.1,0,0.2,0,0.3l5.3,6l6.4-0.4l2.9,2.4l-0.7,7.7l2.3,4.7
	l1.7,0.9c3.6-5.3,5.8-11.8,5.8-18.7C117.2,81.7,116.3,77.5,114.8,73.7z M101.1,61.1l0.6,2.3l-2.4,0.1c-0.2,0-0.3,0.1-0.3,0.3l-0.7,4
	c0,0.1,0,0.3,0.1,0.3l3,2c0.1,0,0.1,0,0.2,0c0.1,0,0.2,0,0.2-0.1l2.3-2.4l7.4-0.2c-2.8-4.2-6.6-7.7-11-10.2l-2.8,2.1
	c-0.1,0.1-0.1,0.2-0.1,0.3c0,0.1,0.1,0.2,0.2,0.3L101.1,61.1z M83.9,44.8c-22.8,0-41.3,18.5-41.3,41.3s18.5,41.3,41.3,41.3
	c22.8,0,41.3-18.5,41.3-41.3S106.6,44.8,83.9,44.8z M83.9,122.7c-20.1,0-36.5-16.4-36.5-36.5c0-4.6,0.9-9,2.4-13
	c2.3,3.2,6.4,8.6,6.8,9l9.8,1.8l2.5,2c-1.4,1.5-3.6,3.8-5.3,5.7c1.6,5.8,1.8,6,1.9,6c0.2,0.2,3.2,2.9,5,4.4l0.1,8.7l3.7,8.3
	c0,0.1,0.1,0.2,0.3,0.2l2.8,0.3h0c0.1,0,0.2,0,0.2-0.1c0.1-0.1,0.1-0.1,0.1-0.2l-0.2-7.8l10.2-10.2l-0.6-2.8l2.3-4
	c0.1-0.1,0-0.3-0.1-0.4l-3.1-1.9h-3.1l-3.4-3.9l-9.1-3.9c-0.1-0.1-0.3-0.2-0.4-0.1c0,0,0,0,0,0l-2.6-2.3l-2-0.2l1.8-1.7
	c0.1-0.1,0.1-0.3,0-0.4l-0.8-1.2c-0.1-0.1-0.2-0.2-0.4-0.1l-3.7,1.3L61.1,79l-1.9-2.7l1-3.8l6.7,0.4l1.5,3.3c0,0.1,0.1,0.1,0.2,0.2
	c0.1,0,0.2,0,0.3-0.1l1.5-1.3l-0.1-2.6l4-4.1l6.3-2.6l3.7,0.2c0.1,0,0.2,0,0.2-0.1c0.1-0.1,0.1-0.1,0.1-0.2c0.1-2.1,0.1-3.2,0.1-3.7
	l3.3-0.2c0.1,0,0.2-0.1,0.3-0.2c0.1-0.1,0.1-0.2,0-0.3l-1.7-3.4c-0.1-0.1-0.1-0.2-0.3-0.2L82.3,58l-2.9,3L75.5,59l0.8-1.5l7.2-2
	c0.1,0,0.2-0.2,0.2-0.3l-0.2-2.6c0-0.1-0.1-0.2-0.2-0.3l-2.1-0.6L78.8,50c1.7-0.2,3.4-0.4,5.1-0.4c20.1,0,36.5,16.4,36.5,36.5
	S104,122.7,83.9,122.7z"/>
</svg>
