<?xml version="1.0" encoding="utf-8"?>
<!-- Generator: Adobe Illustrator 23.0.1, SVG Export Plug-In . SVG Version: 6.00 Build 0)  -->
<svg version="1.1" id="Layer_1" xmlns="http://www.w3.org/2000/svg" xmlns:xlink="http://www.w3.org/1999/xlink" x="0px" y="0px"
	 viewBox="0 0 172.3 172.3" style="enable-background:new 0 0 172.3 172.3;" xml:space="preserve">
<style type="text/css">
	.st0{fill-rule:evenodd;clip-rule:evenodd;fill:#FFFFFF;}
	.st1{fill:#DFE32C;}
	.st2{fill:#010101;}
	.st3{fill:#312E7C;}
</style>
<circle class="st0" cx="86.1" cy="86.1" r="86.1"/>
<ellipse transform="matrix(0.9999 -1.281773e-02 1.281773e-02 0.9999 -0.4077 1.8689)" class="st1" cx="145.6" cy="32.7" rx="19.9" ry="19.9"/>
<g>
	<path class="st2" d="M145.2,22.5c0.9,0,1.6,0.1,2.3,0.4c0.7,0.3,1.3,0.6,1.8,1.1c0.5,0.5,0.9,1,1.2,1.7c0.3,0.6,0.4,1.4,0.4,2.2
		c0,0.7-0.1,1.3-0.3,1.9c-0.2,0.6-0.5,1.1-0.8,1.7c-0.3,0.5-0.7,1-1.2,1.5c-0.5,0.5-0.9,1-1.4,1.5l-4.2,4.3c0.4-0.1,0.8-0.2,1.2-0.3
		c0.4-0.1,0.8-0.1,1.1-0.1h4.7c0.3,0,0.6,0.1,0.8,0.3c0.2,0.2,0.3,0.4,0.3,0.8v1.9h-12.7v-1c0-0.2,0-0.4,0.1-0.7
		c0.1-0.2,0.2-0.4,0.4-0.6l5.6-5.6c0.5-0.5,0.9-0.9,1.3-1.4c0.4-0.4,0.7-0.9,0.9-1.3s0.4-0.9,0.6-1.3s0.2-0.9,0.2-1.4
		c0-0.4-0.1-0.8-0.2-1.2c-0.1-0.3-0.3-0.6-0.5-0.8c-0.2-0.2-0.5-0.4-0.8-0.5c-0.3-0.1-0.7-0.2-1.1-0.2c-0.8,0-1.4,0.2-1.9,0.6
		s-0.8,0.9-1,1.5c-0.1,0.3-0.2,0.6-0.4,0.7c-0.2,0.1-0.4,0.2-0.7,0.2c-0.1,0-0.3,0-0.4,0l-1.7-0.3c0.1-0.9,0.4-1.7,0.7-2.3
		s0.8-1.2,1.4-1.7c0.5-0.4,1.2-0.8,1.9-1C143.7,22.6,144.4,22.5,145.2,22.5z"/>
</g>
<g>
	<path class="st3" d="M75.8,111.1c0,1.1,0.9,2,2,2h16.6c1.1,0,2-0.9,2-2c0-1.1-0.9-2-2-2H77.8C76.7,109.1,75.8,110,75.8,111.1z"/>
	<g>
		<path class="st3" d="M109.8,50.4c-0.5-0.2-8.8-4.6-22.9-4.6c-0.2,0-0.5,0-0.7,0c-0.2,0-0.5,0-0.7,0c-14.1,0-22.5,4.4-22.9,4.6
			c-0.8,0.3-1.3,1-1.3-0.3v66.3c0,2.8,0.3,3.4,0.8,3.8c0.4,0.3,6,6.3,23.4,6.3c0.2,0,0.5,0,0.7,0c0.2,0,0.5,0,0.7,0
			c17.3,0,23-6.1,23.4-6.3c0.5-0.4,0.8-1,0.8-3.8V50.1C111,51.4,110.5,50.7,109.8,50.4z M107.1,117.4c-0.9,0.5-2.7,1.4-5.2,2.3
			c-3.7,1.3-6.7,2.8-15,2.8v0c-0.2,0-0.5,0-0.7,0c-0.3,0-0.5,0-0.7,0v0c-8.3,0-11.3-1.5-15-2.8c-2.5-0.9-4.3-1.8-5.2-2.3v-12.9h18.2
			h2h1.5h1.9h18.3V117.4z M107.1,100.6H86.9h-1.5H65.2V64.2h20.2h1.5h20.2V100.6z M107.1,60.3H86.9h-1.5H65.2v-6.6
			c3.3-1.1,9.5-3.9,20.2-3.9v0c0.2,0,0.5,0,0.7,0c0.2,0,0.5,0,0.7,0v0c10.7,0,16.9,2.8,20.2,3.9V60.3z"/>
	</g>
</g>
</svg>
