<?xml version="1.0" encoding="utf-8"?>
<!-- Generator: Adobe Illustrator 23.0.1, SVG Export Plug-In . SVG Version: 6.00 Build 0)  -->
<svg version="1.1" id="Layer_1" xmlns="http://www.w3.org/2000/svg" xmlns:xlink="http://www.w3.org/1999/xlink" x="0px" y="0px"
	 viewBox="0 0 173.5 172.3" style="enable-background:new 0 0 173.5 172.3;" xml:space="preserve">
<style type="text/css">
	.st0{fill-rule:evenodd;clip-rule:evenodd;fill:#FFFFFF;}
	.st1{fill:#DFE32C;}
	.st2{fill:#010101;}
	.st3{fill:none;stroke:#312E7C;stroke-width:5;stroke-linecap:round;stroke-miterlimit:10;}
	.st4{fill:none;stroke:#312E7C;stroke-width:3;stroke-linecap:round;stroke-miterlimit:10;}
</style>
<circle class="st0" cx="86.1" cy="86.1" r="86.1"/>
<ellipse transform="matrix(0.9999 -1.281773e-02 1.281773e-02 0.9999 -0.4071 1.9716)" class="st1" cx="153.6" cy="32.7" rx="19.9" ry="19.9"/>
<g>
	<path class="st2" d="M153.6,22.5c0.9,0,1.6,0.1,2.3,0.4c0.7,0.2,1.3,0.6,1.8,1s0.9,0.9,1.1,1.5s0.4,1.2,0.4,1.9
		c0,0.6-0.1,1.1-0.2,1.6c-0.1,0.4-0.3,0.8-0.6,1.2c-0.3,0.3-0.6,0.6-0.9,0.8c-0.4,0.2-0.8,0.4-1.2,0.6c1.1,0.3,1.9,0.9,2.5,1.6
		s0.8,1.6,0.8,2.7c0,0.9-0.2,1.7-0.5,2.4c-0.3,0.7-0.8,1.3-1.4,1.8c-0.6,0.5-1.2,0.8-2,1.1s-1.6,0.4-2.4,0.4c-0.9,0-1.7-0.1-2.4-0.3
		c-0.7-0.2-1.3-0.5-1.8-0.9s-0.9-0.9-1.3-1.5c-0.4-0.6-0.7-1.3-0.9-2.1l1.4-0.6c0.2-0.1,0.5-0.2,0.7-0.2c0.2,0,0.4,0,0.6,0.1
		c0.2,0.1,0.3,0.2,0.4,0.4c0.2,0.3,0.3,0.6,0.5,0.9c0.2,0.3,0.4,0.5,0.7,0.8c0.3,0.2,0.6,0.4,0.9,0.5c0.3,0.1,0.8,0.2,1.2,0.2
		c0.5,0,1-0.1,1.4-0.3c0.4-0.2,0.7-0.4,1-0.7c0.3-0.3,0.5-0.6,0.6-0.9s0.2-0.7,0.2-1c0-0.4,0-0.8-0.1-1.2c-0.1-0.4-0.3-0.7-0.6-0.9
		c-0.3-0.3-0.7-0.5-1.3-0.6c-0.6-0.1-1.3-0.2-2.2-0.2v-2.3c0.8,0,1.4-0.1,1.9-0.2c0.5-0.1,0.9-0.3,1.2-0.6c0.3-0.2,0.5-0.5,0.6-0.9
		s0.2-0.7,0.2-1.1c0-0.9-0.2-1.5-0.7-2c-0.5-0.4-1.1-0.7-2-0.7c-0.7,0-1.4,0.2-1.9,0.6c-0.5,0.4-0.8,0.9-1,1.5
		c-0.1,0.3-0.2,0.6-0.4,0.7c-0.2,0.1-0.4,0.2-0.7,0.2c-0.1,0-0.3,0-0.4,0l-1.7-0.3c0.1-0.9,0.4-1.7,0.7-2.3c0.4-0.7,0.8-1.2,1.4-1.7
		c0.5-0.4,1.2-0.8,1.9-1C152,22.6,152.7,22.5,153.6,22.5z"/>
</g>
<g>
	<polyline id="XMLID_6_" class="st3" points="44,47 54.5,58.8 75.8,37.1 	"/>
	<line id="XMLID_5_" class="st4" x1="80.5" y1="53.4" x2="119.7" y2="53.4"/>
	<line id="XMLID_4_" class="st4" x1="80.5" y1="82.8" x2="119.7" y2="82.8"/>
	<path id="XMLID_3_" class="st4" d="M66,82.8c0,5.5-4.4,9.9-9.9,9.9s-9.9-4.4-9.9-9.9s4.4-9.9,9.9-9.9S66,77.4,66,82.8z"/>
	<line id="XMLID_2_" class="st4" x1="80.5" y1="116.8" x2="119.7" y2="116.8"/>
	<path id="XMLID_1_" class="st4" d="M66,116.8c0,5.5-4.4,9.9-9.9,9.9s-9.9-4.4-9.9-9.9s4.4-9.9,9.9-9.9S66,111.3,66,116.8z"/>
</g>
</svg>
