<?xml version="1.0" encoding="utf-8"?>
<!-- Generator: Adobe Illustrator 19.2.1, SVG Export Plug-In . SVG Version: 6.00 Build 0)  -->
<svg version="1.1" id="Layer_1" xmlns="http://www.w3.org/2000/svg" xmlns:xlink="http://www.w3.org/1999/xlink" x="0px" y="0px"
	 viewBox="0 0 154 219.3" style="enable-background:new 0 0 154 219.3;" xml:space="preserve">
<style type="text/css">
	.st0{opacity:0.3;}
	.st1{fill:#E4FF1A;}
	.st2{fill:#FFFFFF;}
	.st3{fill:none;stroke:#000000;stroke-width:6;stroke-linecap:square;stroke-miterlimit:10;}
</style>
<polyline class="st0" points="153.4,173.9 136.6,188.1 122.4,200.7 106.4,214.9 101.4,219.1 71.8,219.1 42.4,219.1 18.8,218.9 
	7.6,218.9 4.2,218.9 2.2,218.1 0.6,216.5 0.2,214.9 0.4,154.7 0.4,94.5 0.4,59.3 1,57.9 1.8,56.1 5.4,52.5 50.8,7.9 53.8,5.1 
	55.8,3.3 "/>
<rect x="56.9" y="4.6" class="st1" width="96.4" height="167.4"/>
<rect x="65.5" y="17.6" class="st2" width="73.3" height="122"/>
<path class="st3" d="M68.5,17.6h67.7c1.5,0,2.7,1.2,2.7,2.7v118.1c0,1.5-1.2,2.7-2.7,2.7h-65c-1.5,0-2.7-1.2-2.7-2.7V34.8"/>
<path class="st3" d="M150.4,170.8H60.5c-2,0-3.6-1.6-3.6-3.6V8.1c0-2,1.6-3.6,3.6-3.6h86.3c2,0,3.6,1.6,3.6,3.6v145.6"/>
<path d="M109.3,156.1c0,3.1-2.5,5.7-5.7,5.7s-5.7-2.5-5.7-5.7c0-3.1,2.5-5.7,5.7-5.7S109.3,153,109.3,156.1"/>
</svg>
