<svg id="Layer_1" data-name="Layer 1" xmlns="http://www.w3.org/2000/svg" viewBox="0 0 216.8 172.83"><defs><style>.cls-1{opacity:0.3;}.cls-2{fill:#e4ff1a;}.cls-3,.cls-4{fill:none;stroke-linecap:square;stroke-linejoin:round;stroke-width:7px;}.cls-3{stroke:#000;}.cls-4{stroke:#fff;}</style></defs><title>Card with Shadow</title><polyline class="cls-1" points="216.8 119.83 161.3 170.63 159.51 171.63 157.31 172.23 24.16 172.83 17.77 172.83 13.78 172.83 10.38 172.63 7.39 171.83 5.19 170.63 2.99 168.23 1.8 166.43 0.8 164.23 0.2 161.43 0 158.83 0 59.83 0 55.43 0.2 53.63 0.8 51.83 2.79 49.63 13.18 39.43 31.34 21.43 48.31 4.43 51.51 1.63 54.2 0.43"/><rect class="cls-2" x="55.65" y="3.32" width="158.55" height="116.35"/><path class="cls-3" d="M190.37,116.17H56.8a4.4,4.4,0,0,1-4.4-4.4V7.9a4.4,4.4,0,0,1,4.4-4.4h152a4.41,4.41,0,0,1,4.41,4.4V116.17"/><line class="cls-3" x1="65.13" y1="35.4" x2="200.12" y2="35.4"/><line class="cls-3" x1="75.9" y1="89.37" x2="120.57" y2="89.37"/><line class="cls-3" x1="75.9" y1="76.52" x2="109.55" y2="76.52"/><line class="cls-4" x1="75.9" y1="82.8" x2="120.57" y2="82.8"/><line class="cls-3" x1="65.48" y1="48.64" x2="200.6" y2="48.64"/><line class="cls-4" x1="65.13" y1="41.83" x2="200.4" y2="41.83"/></svg>