<?xml version="1.0" encoding="utf-8"?>
<!-- Generator: Adobe Illustrator 15.0.2, SVG Export Plug-In . SVG Version: 6.00 Build 0)  -->
<!DOCTYPE svg PUBLIC "-//W3C//DTD SVG 1.1//EN" "http://www.w3.org/Graphics/SVG/1.1/DTD/svg11.dtd">
<svg version="1.1" id="Layer_1" xmlns="http://www.w3.org/2000/svg" xmlns:xlink="http://www.w3.org/1999/xlink" x="0px" y="0px"
	 width="200px" height="200px" viewBox="0 0 200 200" enable-background="new 0 0 200 200" xml:space="preserve">
<rect x="31.767" y="42.537" fill="#E4FF1A" width="141.062" height="117.38"/>
<rect x="41.434" y="21.25" fill="#FFFFFF" width="42.258" height="154.018"/>
<path fill="none" stroke="#000000" stroke-width="7" stroke-linecap="square" stroke-linejoin="round" stroke-miterlimit="10" d="
	M43.123,161.518h-8.036c-1.827,0-3.32-1.494-3.32-3.318V45.857c0-1.826,1.494-3.32,3.32-3.32h8.036"/>
<line fill="none" stroke="#000000" stroke-width="7" stroke-linecap="square" stroke-linejoin="round" stroke-miterlimit="10" x1="169.354" y1="161.518" x2="86.358" y2="161.518"/>
<path fill="none" stroke="#000000" stroke-width="7" stroke-linecap="square" stroke-linejoin="round" stroke-miterlimit="10" d="
	M86.358,42.537h79.918c1.694,0,3.078,1.494,3.078,3.318v101.489"/>
<path fill="none" stroke="#000000" stroke-width="7" stroke-linecap="square" stroke-linejoin="round" stroke-miterlimit="10" d="
	M86.358,161.518v10.434c0,1.824-1.494,3.316-3.318,3.316H46.445c-1.828,0-3.322-1.492-3.322-3.316v-10.434"/>
<path fill="none" stroke="#000000" stroke-width="7" stroke-linecap="square" stroke-linejoin="round" stroke-miterlimit="10" d="
	M53.474,24.733h29.564c1.827,0,3.32,1.494,3.32,3.318v133.466"/>
<line fill="none" stroke="#000000" stroke-width="7" stroke-linecap="square" stroke-linejoin="round" stroke-miterlimit="10" x1="43.123" y1="161.518" x2="43.123" y2="24.731"/>
<rect x="94.792" y="53.402" fill="#FFFFFF" width="57.958" height="31.348"/>
<path fill="none" stroke="#000000" stroke-width="7" stroke-linecap="square" stroke-linejoin="round" stroke-miterlimit="10" d="
	M98.28,55.463h53.492c1.828,0,3.322,1.496,3.322,3.32V84.07c0,1.824-1.494,3.318-3.322,3.318h-50.174
	c-1.824,0-3.318-1.494-3.318-3.318V69.34"/>
<path d="M107.92,102.889c0,2.471-2,4.469-4.469,4.469s-4.469-1.998-4.469-4.469c0-2.466,2-4.466,4.469-4.466
	S107.92,100.422,107.92,102.889"/>
<path d="M132.192,102.889c0,2.471-2,4.469-4.469,4.469c-2.47,0-4.47-1.998-4.47-4.469c0-2.466,2-4.466,4.47-4.466
	C130.192,98.422,132.192,100.422,132.192,102.889"/>
<path d="M156.465,102.889c0,2.471-2,4.469-4.469,4.469c-2.47,0-4.47-1.998-4.47-4.469c0-2.466,2-4.466,4.47-4.466
	C154.465,98.422,156.465,100.422,156.465,102.889"/>
<path d="M107.92,117.191c0,2.467-2,4.467-4.469,4.467s-4.469-2-4.469-4.467c0-2.469,2-4.469,4.469-4.469
	S107.92,114.723,107.92,117.191"/>
<path d="M132.192,117.191c0,2.467-2,4.467-4.469,4.467c-2.47,0-4.47-2-4.47-4.467c0-2.469,2-4.469,4.47-4.469
	C130.192,112.723,132.192,114.723,132.192,117.191"/>
<path d="M156.465,117.191c0,2.467-2,4.467-4.469,4.467c-2.47,0-4.47-2-4.47-4.467c0-2.469,2-4.469,4.47-4.469
	C154.465,112.723,156.465,114.723,156.465,117.191"/>
<path d="M107.92,131.494c0,2.467-2,4.467-4.469,4.467s-4.469-2-4.469-4.467c0-2.469,2-4.469,4.469-4.469
	S107.92,129.025,107.92,131.494"/>
<path d="M132.192,131.494c0,2.467-2,4.467-4.469,4.467c-2.47,0-4.47-2-4.47-4.467c0-2.469,2-4.469,4.47-4.469
	C130.192,127.025,132.192,129.025,132.192,131.494"/>
<path d="M156.465,131.494c0,2.467-2,4.467-4.469,4.467c-2.47,0-4.47-2-4.47-4.467c0-2.469,2-4.469,4.47-4.469
	C154.465,127.025,156.465,129.025,156.465,131.494"/>
<path d="M107.92,145.797c0,2.465-2,4.465-4.469,4.465s-4.469-2-4.469-4.465c0-2.471,2-4.469,4.469-4.469
	S107.92,143.326,107.92,145.797"/>
<path d="M132.192,145.797c0,2.465-2,4.465-4.469,4.465c-2.47,0-4.47-2-4.47-4.465c0-2.471,2-4.469,4.47-4.469
	C130.192,141.328,132.192,143.326,132.192,145.797"/>
<path d="M156.465,145.797c0,2.465-2,4.465-4.469,4.465c-2.47,0-4.47-2-4.47-4.465c0-2.471,2-4.469,4.47-4.469
	C154.465,141.328,156.465,143.326,156.465,145.797"/>
</svg>
