<?xml version="1.0" encoding="utf-8"?>
<!-- Generator: Adobe Illustrator 15.0.2, SVG Export Plug-In . SVG Version: 6.00 Build 0)  -->
<!DOCTYPE svg PUBLIC "-//W3C//DTD SVG 1.1//EN" "http://www.w3.org/Graphics/SVG/1.1/DTD/svg11.dtd">
<svg version="1.1" id="Layer_1" xmlns="http://www.w3.org/2000/svg" xmlns:xlink="http://www.w3.org/1999/xlink" x="0px" y="0px"
	 width="200px" height="200px" viewBox="0 0 200 200" enable-background="new 0 0 200 200" xml:space="preserve">
<rect x="36.88" y="29.495" fill="#E4FF1A" width="83.391" height="144.01"/>
<rect x="43.951" y="40.688" fill="#FFFFFF" width="63.383" height="104.983"/>
<path fill="none" stroke="#000000" stroke-width="6" stroke-linecap="square" stroke-miterlimit="10" d="M46.846,40.688h58.207
	c1.26,0,2.281,1.03,2.281,2.301v101.597c0,1.271-1.021,2.301-2.281,2.301H49.128c-1.261,0-2.284-1.029-2.284-2.301V55.553"/>
<path fill="none" stroke="#000000" stroke-width="6" stroke-linecap="square" stroke-miterlimit="10" d="M117.299,172.518H39.957
	c-1.698,0-3.075-1.377-3.075-3.074V32.571c0-1.7,1.376-3.077,3.075-3.077h74.268c1.697,0,3.074,1.376,3.074,3.077v125.25"/>
<path d="M81.959,159.872c0,2.688-2.18,4.868-4.87,4.868s-4.868-2.18-4.868-4.868s2.178-4.869,4.868-4.869
	S81.959,157.184,81.959,159.872"/>
<path fill="none" stroke="#000000" stroke-width="6" stroke-linecap="round" stroke-linejoin="round" stroke-miterlimit="10" d="
	M130.521,76.49c4.797-4.656,7.398-10.956,7.398-17.668c0-6.711-2.604-13.012-7.398-17.669"/>
<path fill="none" stroke="#000000" stroke-width="6" stroke-linecap="round" stroke-linejoin="round" stroke-miterlimit="10" d="
	M140.109,83.887c6.986-6.986,10.41-15.889,10.41-25.064c0-8.903-3.424-18.08-10.41-25.067"/>
<path fill="none" stroke="#000000" stroke-width="6" stroke-linecap="round" stroke-linejoin="round" stroke-miterlimit="10" d="
	M149.836,91.146c8.49-8.631,13.283-20.273,13.283-32.328c0-12.188-4.793-23.419-13.283-32.324"/>
</svg>
