<?xml version="1.0" encoding="utf-8"?>
<!-- Generator: Adobe Illustrator 15.0.2, SVG Export Plug-In . SVG Version: 6.00 Build 0)  -->
<!DOCTYPE svg PUBLIC "-//W3C//DTD SVG 1.1//EN" "http://www.w3.org/Graphics/SVG/1.1/DTD/svg11.dtd">
<svg version="1.1" id="Layer_1" xmlns="http://www.w3.org/2000/svg" xmlns:xlink="http://www.w3.org/1999/xlink" x="0px" y="0px"
	 width="200px" height="200px" viewBox="0 0 200 200" enable-background="new 0 0 200 200" xml:space="preserve">
<rect x="38.167" y="9.007" fill="#E4FF1A" width="127.161" height="183.243"/>
<rect x="52.333" y="34.25" fill="#FFFFFF" width="92.501" height="18.5"/>
<path fill="none" stroke="#000000" stroke-width="7" stroke-linecap="square" stroke-linejoin="round" stroke-miterlimit="10" d="
	M161.833,190.993h-48.19H92.305H42.081c-2.163,0-3.915-1.752-3.915-3.912V12.921c0-2.164,1.751-3.915,3.915-3.915h50.226h21.337
	h44.276c2.16,0,3.912,1.751,3.912,3.915V172.29"/>
<path d="M67.485,43.477c0,3.421-2.774,6.196-6.196,6.196c-3.422,0-6.198-2.774-6.198-6.196c0-3.424,2.776-6.198,6.198-6.198
	C64.711,37.278,67.485,40.053,67.485,43.477"/>
<rect x="52.333" y="67.308" fill="#FFFFFF" width="93.126" height="18.5"/>
<path d="M67.485,76.556c0,3.422-2.774,6.198-6.196,6.198c-3.422,0-6.198-2.776-6.198-6.198c0-3.421,2.776-6.196,6.198-6.196
	C64.711,70.36,67.485,73.135,67.485,76.556"/>
<rect x="52.333" y="100.288" fill="#FFFFFF" width="93.188" height="18.5"/>
<path d="M67.485,109.537c0,3.422-2.774,6.196-6.196,6.196c-3.422,0-6.198-2.774-6.198-6.196c0-3.421,2.776-6.195,6.198-6.195
	C64.711,103.342,67.485,106.116,67.485,109.537"/>
<rect x="52.333" y="135.25" fill="#FFFFFF" width="93.126" height="18.5"/>
<path d="M67.485,144.499c0,3.424-2.774,6.198-6.196,6.198c-3.422,0-6.198-2.774-6.198-6.198c0-3.422,2.776-6.196,6.198-6.196
	C64.711,138.303,67.485,141.077,67.485,144.499"/>
<line fill="none" stroke="#000000" stroke-width="7" stroke-linecap="square" stroke-linejoin="round" stroke-miterlimit="10" x1="77.432" y1="37.73" x2="142.004" y2="37.73"/>
<line fill="none" stroke="#000000" stroke-width="7" stroke-linecap="square" stroke-linejoin="round" stroke-miterlimit="10" x1="77.432" y1="49.22" x2="142.004" y2="49.22"/>
<line fill="none" stroke="#000000" stroke-width="7" stroke-linecap="square" stroke-linejoin="round" stroke-miterlimit="10" x1="77.432" y1="70.649" x2="142.004" y2="70.649"/>
<line fill="none" stroke="#000000" stroke-width="7" stroke-linecap="square" stroke-linejoin="round" stroke-miterlimit="10" x1="77.432" y1="82.463" x2="142.004" y2="82.463"/>
<line fill="none" stroke="#000000" stroke-width="7" stroke-linecap="square" stroke-linejoin="round" stroke-miterlimit="10" x1="77.432" y1="103.631" x2="142.004" y2="103.631"/>
<line fill="none" stroke="#000000" stroke-width="7" stroke-linecap="square" stroke-linejoin="round" stroke-miterlimit="10" x1="77.432" y1="115.444" x2="142.004" y2="115.444"/>
<line fill="none" stroke="#000000" stroke-width="7" stroke-linecap="square" stroke-linejoin="round" stroke-miterlimit="10" x1="77.432" y1="138.592" x2="142.004" y2="138.592"/>
<line fill="none" stroke="#000000" stroke-width="7" stroke-linecap="square" stroke-linejoin="round" stroke-miterlimit="10" x1="77.432" y1="150.408" x2="142.004" y2="150.408"/>
</svg>
