<?xml version="1.0" encoding="utf-8"?>
<!-- Generator: Adobe Illustrator 15.0.2, SVG Export Plug-In . SVG Version: 6.00 Build 0)  -->
<!DOCTYPE svg PUBLIC "-//W3C//DTD SVG 1.1//EN" "http://www.w3.org/Graphics/SVG/1.1/DTD/svg11.dtd">
<svg version="1.1" id="Layer_1" xmlns="http://www.w3.org/2000/svg" xmlns:xlink="http://www.w3.org/1999/xlink" x="0px" y="0px"
	 width="200px" height="200px" viewBox="0 0 200 200" enable-background="new 0 0 200 200" xml:space="preserve">
<rect x="21.449" y="44.488" fill="#E4FF1A" width="158.949" height="115.346"/>
<path fill="none" stroke="#000000" stroke-width="7" stroke-linecap="square" stroke-linejoin="round" stroke-miterlimit="10" d="
	M157.575,156.334H24.005c-2.432,0-4.404-1.971-4.404-4.402V48.07c0-2.433,1.972-4.404,4.404-4.404H175.99
	c2.435,0,4.408,1.971,4.408,4.404v108.264"/>
<line fill="none" stroke="#000000" stroke-width="7" stroke-linecap="square" stroke-linejoin="round" stroke-miterlimit="10" x1="32.33" y1="75.569" x2="167.32" y2="75.569"/>
<line fill="none" stroke="#000000" stroke-width="7" stroke-linecap="square" stroke-linejoin="round" stroke-miterlimit="10" x1="43.097" y1="129.535" x2="87.769" y2="129.535"/>
<line fill="none" stroke="#000000" stroke-width="7" stroke-linecap="square" stroke-linejoin="round" stroke-miterlimit="10" x1="43.097" y1="116.686" x2="76.755" y2="116.686"/>
<line fill="none" stroke="#000000" stroke-width="7" stroke-linecap="square" stroke-linejoin="round" stroke-miterlimit="10" x1="32.68" y1="88.417" x2="167.67" y2="88.417"/>
<line fill="none" stroke="#FFFFFF" stroke-width="7" stroke-linecap="square" stroke-linejoin="round" stroke-miterlimit="10" x1="32.33" y1="82" x2="167.32" y2="82"/>
<line fill="none" stroke="#FFFFFF" stroke-width="7" stroke-linecap="square" stroke-linejoin="round" stroke-miterlimit="10" x1="43.097" y1="122.969" x2="87.769" y2="122.969"/>
<g enable-background="new    ">
	<path d="M39.952,59.567V65.5h-2.825V50.317h4.63c1.036,0,1.923,0.106,2.662,0.32c0.738,0.213,1.344,0.513,1.816,0.897
		s0.819,0.845,1.04,1.381c0.22,0.535,0.331,1.125,0.331,1.769c0,0.512-0.075,0.994-0.226,1.449
		c-0.151,0.455-0.368,0.868-0.651,1.239c-0.284,0.371-0.634,0.696-1.05,0.977s-0.891,0.504-1.423,0.672
		c0.357,0.203,0.665,0.493,0.924,0.871l3.801,5.607h-2.541c-0.245,0-0.453-0.049-0.625-0.147c-0.172-0.098-0.317-0.237-0.436-0.42
		l-3.192-4.861c-0.119-0.182-0.25-0.312-0.394-0.389c-0.144-0.076-0.355-0.115-0.635-0.115H39.952z M39.952,57.541h1.764
		c0.532,0,0.996-0.066,1.392-0.199c0.395-0.133,0.721-0.317,0.977-0.552c0.255-0.234,0.446-0.513,0.572-0.835
		c0.126-0.321,0.189-0.675,0.189-1.061c0-0.77-0.254-1.361-0.761-1.774c-0.508-0.412-1.283-0.619-2.326-0.619h-1.806V57.541z"/>
	<path d="M55.093,54.559c0.679,0,1.304,0.109,1.875,0.326c0.57,0.217,1.062,0.533,1.475,0.95c0.413,0.416,0.735,0.928,0.966,1.533
		s0.347,1.296,0.347,2.073c0,0.196-0.009,0.359-0.026,0.488c-0.018,0.13-0.049,0.231-0.094,0.305
		c-0.046,0.073-0.107,0.126-0.184,0.157s-0.175,0.048-0.294,0.048H52.5c0.077,1.105,0.374,1.918,0.893,2.436
		c0.518,0.519,1.204,0.777,2.058,0.777c0.42,0,0.782-0.049,1.087-0.147c0.305-0.098,0.57-0.206,0.798-0.325s0.427-0.228,0.599-0.326
		c0.171-0.098,0.338-0.146,0.499-0.146c0.105,0,0.196,0.021,0.273,0.063c0.077,0.042,0.143,0.102,0.199,0.179l0.756,0.945
		c-0.287,0.336-0.609,0.618-0.966,0.845c-0.357,0.228-0.729,0.41-1.118,0.547c-0.389,0.136-0.784,0.232-1.187,0.288
		c-0.403,0.057-0.793,0.084-1.171,0.084c-0.749,0-1.445-0.124-2.089-0.372c-0.644-0.249-1.204-0.616-1.68-1.103
		s-0.85-1.089-1.124-1.807c-0.273-0.717-0.409-1.549-0.409-2.493c0-0.735,0.119-1.427,0.357-2.074
		c0.238-0.647,0.579-1.211,1.024-1.69c0.444-0.479,0.987-0.859,1.627-1.14C53.565,54.699,54.288,54.559,55.093,54.559z
		 M55.146,56.418c-0.756,0-1.348,0.213-1.774,0.64c-0.427,0.428-0.7,1.033-0.819,1.816h4.872c0-0.336-0.045-0.652-0.136-0.95
		c-0.091-0.297-0.231-0.558-0.42-0.782c-0.189-0.224-0.427-0.4-0.714-0.53C55.866,56.482,55.53,56.418,55.146,56.418z"/>
	<path d="M69.436,57.006c-0.077,0.098-0.152,0.175-0.226,0.23c-0.074,0.057-0.181,0.084-0.32,0.084c-0.133,0-0.263-0.04-0.389-0.12
		c-0.126-0.081-0.276-0.172-0.452-0.273c-0.175-0.102-0.383-0.192-0.625-0.273c-0.242-0.08-0.541-0.12-0.898-0.12
		c-0.455,0-0.854,0.082-1.197,0.246c-0.343,0.165-0.628,0.401-0.856,0.709c-0.228,0.309-0.397,0.681-0.509,1.118
		s-0.168,0.934-0.168,1.486c0,0.574,0.062,1.085,0.184,1.533c0.122,0.447,0.299,0.824,0.53,1.128
		c0.231,0.305,0.511,0.536,0.84,0.693s0.7,0.236,1.113,0.236s0.747-0.051,1.003-0.152c0.255-0.102,0.471-0.214,0.646-0.336
		c0.175-0.122,0.327-0.234,0.457-0.336c0.129-0.102,0.274-0.152,0.436-0.152c0.21,0,0.368,0.08,0.473,0.241l0.746,0.945
		c-0.287,0.336-0.599,0.618-0.935,0.845c-0.336,0.228-0.685,0.41-1.045,0.547c-0.36,0.136-0.733,0.232-1.118,0.288
		c-0.385,0.057-0.767,0.084-1.145,0.084c-0.665,0-1.292-0.124-1.879-0.372c-0.588-0.249-1.101-0.611-1.538-1.087
		c-0.438-0.477-0.784-1.059-1.04-1.748c-0.256-0.689-0.383-1.476-0.383-2.357c0-0.791,0.114-1.524,0.341-2.2
		c0.227-0.675,0.562-1.26,1.002-1.753c0.441-0.494,0.987-0.881,1.638-1.161c0.651-0.279,1.4-0.42,2.247-0.42
		c0.805,0,1.51,0.13,2.116,0.389c0.605,0.26,1.149,0.63,1.633,1.113L69.436,57.006z"/>
	<path d="M71.882,65.5V49.897h2.593v5.995c0.42-0.399,0.882-0.721,1.386-0.966c0.504-0.245,1.095-0.368,1.774-0.368
		c0.588,0,1.109,0.101,1.564,0.3s0.834,0.479,1.139,0.84s0.536,0.791,0.693,1.292c0.158,0.5,0.236,1.052,0.236,1.653V65.5h-2.593
		v-6.856c0-0.658-0.152-1.167-0.457-1.527c-0.304-0.361-0.761-0.541-1.37-0.541c-0.448,0-0.868,0.102-1.26,0.305
		s-0.763,0.479-1.113,0.829V65.5H71.882z"/>
	<path d="M92.263,65.5h-1.166c-0.245,0-0.438-0.037-0.578-0.11s-0.245-0.222-0.315-0.446l-0.231-0.767
		c-0.273,0.245-0.541,0.461-0.803,0.646c-0.263,0.187-0.534,0.342-0.814,0.468s-0.577,0.221-0.893,0.283
		c-0.315,0.063-0.665,0.095-1.05,0.095c-0.455,0-0.875-0.062-1.26-0.185c-0.385-0.122-0.716-0.307-0.993-0.553
		c-0.276-0.246-0.492-0.552-0.646-0.917c-0.154-0.365-0.231-0.79-0.231-1.274c0-0.407,0.106-0.81,0.32-1.206
		c0.213-0.396,0.568-0.755,1.065-1.074c0.497-0.32,1.159-0.585,1.985-0.796c0.826-0.211,1.851-0.316,3.076-0.316v-0.635
		c0-0.727-0.152-1.264-0.457-1.613c-0.305-0.349-0.748-0.523-1.328-0.523c-0.42,0-0.771,0.049-1.05,0.146
		c-0.28,0.099-0.523,0.209-0.729,0.331c-0.207,0.123-0.397,0.232-0.572,0.331c-0.175,0.098-0.368,0.146-0.578,0.146
		c-0.175,0-0.326-0.045-0.452-0.137c-0.126-0.091-0.228-0.202-0.304-0.336l-0.473-0.829c1.239-1.134,2.733-1.701,4.483-1.701
		c0.63,0,1.192,0.104,1.686,0.31c0.493,0.207,0.912,0.494,1.254,0.861c0.343,0.367,0.604,0.807,0.782,1.317
		c0.179,0.512,0.268,1.071,0.268,1.681V65.5z M87.223,63.883c0.266,0,0.511-0.024,0.735-0.072s0.436-0.12,0.635-0.217
		c0.2-0.097,0.392-0.216,0.578-0.356c0.185-0.142,0.373-0.309,0.562-0.502v-1.803c-0.756,0-1.388,0.048-1.895,0.143
		c-0.508,0.095-0.916,0.217-1.223,0.365c-0.308,0.147-0.527,0.32-0.656,0.518c-0.13,0.197-0.194,0.413-0.194,0.646
		c0,0.458,0.135,0.786,0.404,0.983C86.437,63.784,86.789,63.883,87.223,63.883z"/>
	<path d="M94.814,65.5V54.727h1.522c0.266,0,0.451,0.05,0.556,0.147s0.175,0.266,0.21,0.504l0.158,1.302
		c0.385-0.665,0.836-1.189,1.354-1.574c0.518-0.386,1.099-0.578,1.743-0.578c0.532,0,0.972,0.123,1.323,0.367l-0.336,1.943
		c-0.021,0.126-0.066,0.215-0.137,0.268c-0.069,0.053-0.165,0.078-0.283,0.078c-0.104,0-0.249-0.024-0.431-0.073
		c-0.182-0.049-0.423-0.073-0.725-0.073c-0.539,0-1.001,0.148-1.386,0.446c-0.385,0.298-0.71,0.733-0.977,1.307v6.71H94.814z"/>
	<path d="M107.119,54.538c0.463,0,0.896,0.047,1.303,0.142s0.777,0.232,1.113,0.415h3.098v0.966c0,0.161-0.043,0.287-0.127,0.378
		s-0.227,0.154-0.43,0.189l-0.967,0.178c0.07,0.183,0.125,0.375,0.163,0.578s0.058,0.416,0.058,0.641
		c0,0.531-0.106,1.013-0.32,1.443c-0.213,0.431-0.508,0.796-0.882,1.098c-0.374,0.301-0.819,0.533-1.333,0.698
		c-0.515,0.164-1.073,0.246-1.676,0.246c-0.405,0-0.801-0.038-1.186-0.115c-0.336,0.204-0.504,0.434-0.504,0.688
		c0,0.219,0.1,0.379,0.299,0.481c0.199,0.102,0.462,0.174,0.787,0.217c0.326,0.042,0.695,0.063,1.108,0.063s0.837,0.018,1.271,0.053
		s0.857,0.097,1.271,0.185c0.413,0.087,0.782,0.226,1.107,0.416c0.325,0.189,0.589,0.447,0.788,0.774
		c0.199,0.326,0.299,0.746,0.299,1.258c0,0.478-0.117,0.941-0.352,1.391c-0.234,0.45-0.574,0.85-1.019,1.201
		c-0.444,0.351-0.989,0.634-1.633,0.849c-0.644,0.214-1.38,0.32-2.205,0.32c-0.819,0-1.53-0.078-2.132-0.235
		c-0.602-0.158-1.101-0.368-1.496-0.631c-0.396-0.262-0.691-0.564-0.887-0.908c-0.196-0.343-0.295-0.699-0.295-1.07
		c0-0.504,0.154-0.928,0.463-1.271c0.308-0.343,0.734-0.616,1.281-0.819c-0.267-0.146-0.48-0.343-0.641-0.588
		c-0.162-0.245-0.242-0.563-0.242-0.956c0-0.16,0.028-0.327,0.084-0.498c0.057-0.172,0.143-0.342,0.258-0.51s0.26-0.327,0.436-0.478
		c0.175-0.15,0.381-0.285,0.619-0.404c-0.546-0.294-0.975-0.686-1.286-1.176s-0.468-1.064-0.468-1.722
		c0-0.532,0.107-1.014,0.32-1.444c0.214-0.431,0.512-0.798,0.893-1.103c0.382-0.305,0.834-0.537,1.355-0.698
		S106.504,54.538,107.119,54.538z M109.965,65.952c0-0.214-0.063-0.39-0.188-0.525s-0.298-0.241-0.515-0.315
		c-0.217-0.075-0.471-0.131-0.762-0.167c-0.29-0.035-0.598-0.054-0.924-0.054c-0.325,0-0.661,0-1.008,0
		c-0.346,0-0.681-0.038-1.002-0.115c-0.295,0.161-0.531,0.352-0.709,0.572c-0.179,0.221-0.268,0.475-0.268,0.762
		c0,0.188,0.047,0.365,0.141,0.53c0.096,0.164,0.246,0.306,0.452,0.425s0.474,0.212,0.804,0.278c0.328,0.066,0.73,0.1,1.207,0.1
		c0.482,0,0.899-0.037,1.25-0.112c0.35-0.075,0.639-0.179,0.865-0.311c0.229-0.133,0.395-0.29,0.499-0.472
		C109.913,66.365,109.965,66.167,109.965,65.952z M107.119,59.851c0.322,0,0.603-0.043,0.841-0.131
		c0.237-0.088,0.436-0.208,0.593-0.362c0.158-0.154,0.277-0.34,0.357-0.557s0.121-0.455,0.121-0.714c0-0.532-0.16-0.953-0.479-1.266
		c-0.318-0.311-0.796-0.467-1.434-0.467c-0.637,0-1.114,0.156-1.433,0.467c-0.318,0.313-0.478,0.733-0.478,1.266
		c0,0.252,0.04,0.486,0.121,0.703c0.08,0.218,0.199,0.404,0.356,0.563c0.157,0.157,0.356,0.279,0.599,0.367
		C106.526,59.808,106.805,59.851,107.119,59.851z"/>
	<path d="M118.711,54.559c0.68,0,1.305,0.109,1.875,0.326s1.063,0.533,1.475,0.95c0.414,0.416,0.735,0.928,0.967,1.533
		c0.23,0.605,0.346,1.296,0.346,2.073c0,0.196-0.008,0.359-0.025,0.488c-0.018,0.13-0.049,0.231-0.095,0.305
		s-0.106,0.126-0.185,0.157c-0.076,0.031-0.174,0.048-0.293,0.048h-6.657c0.077,1.105,0.374,1.918,0.893,2.436
		c0.518,0.519,1.204,0.777,2.058,0.777c0.42,0,0.782-0.049,1.087-0.147c0.305-0.098,0.57-0.206,0.798-0.325s0.428-0.228,0.599-0.326
		c0.171-0.098,0.338-0.146,0.499-0.146c0.105,0,0.195,0.021,0.273,0.063c0.076,0.042,0.143,0.102,0.199,0.179l0.756,0.945
		c-0.287,0.336-0.609,0.618-0.967,0.845c-0.356,0.228-0.729,0.41-1.117,0.547c-0.389,0.136-0.785,0.232-1.188,0.288
		c-0.402,0.057-0.793,0.084-1.17,0.084c-0.75,0-1.445-0.124-2.09-0.372c-0.645-0.249-1.204-0.616-1.68-1.103
		c-0.477-0.486-0.851-1.089-1.124-1.807c-0.272-0.717-0.409-1.549-0.409-2.493c0-0.735,0.119-1.427,0.357-2.074
		c0.237-0.647,0.578-1.211,1.023-1.69c0.444-0.479,0.986-0.859,1.627-1.14C117.184,54.699,117.906,54.559,118.711,54.559z
		 M118.764,56.418c-0.756,0-1.348,0.213-1.773,0.64c-0.428,0.428-0.701,1.033-0.82,1.816h4.873c0-0.336-0.046-0.652-0.137-0.95
		c-0.092-0.297-0.231-0.558-0.42-0.782c-0.189-0.224-0.428-0.4-0.715-0.53C119.484,56.482,119.148,56.418,118.764,56.418z"/>
	<path d="M133.926,65.5h-1.166c-0.244,0-0.438-0.037-0.577-0.11s-0.245-0.222-0.315-0.446l-0.23-0.767
		c-0.273,0.245-0.541,0.461-0.803,0.646c-0.264,0.187-0.535,0.342-0.814,0.468s-0.577,0.221-0.893,0.283
		c-0.314,0.063-0.665,0.095-1.05,0.095c-0.455,0-0.875-0.062-1.26-0.185c-0.386-0.122-0.716-0.307-0.993-0.553
		c-0.275-0.246-0.491-0.552-0.645-0.917c-0.154-0.365-0.231-0.79-0.231-1.274c0-0.407,0.106-0.81,0.32-1.206
		s0.568-0.755,1.065-1.074c0.497-0.32,1.158-0.585,1.984-0.796s1.852-0.316,3.076-0.316v-0.635c0-0.727-0.152-1.264-0.456-1.613
		c-0.305-0.349-0.747-0.523-1.328-0.523c-0.421,0-0.771,0.049-1.05,0.146c-0.28,0.099-0.523,0.209-0.73,0.331
		c-0.206,0.123-0.396,0.232-0.572,0.331c-0.175,0.098-0.367,0.146-0.577,0.146c-0.175,0-0.325-0.045-0.452-0.137
		c-0.125-0.091-0.227-0.202-0.304-0.336l-0.473-0.829c1.239-1.134,2.733-1.701,4.483-1.701c0.63,0,1.191,0.104,1.686,0.31
		c0.493,0.207,0.912,0.494,1.254,0.861c0.344,0.367,0.604,0.807,0.783,1.317c0.178,0.512,0.268,1.071,0.268,1.681V65.5z
		 M128.886,63.883c0.266,0,0.511-0.024,0.735-0.072c0.224-0.048,0.436-0.12,0.635-0.217s0.393-0.216,0.578-0.356
		c0.185-0.142,0.372-0.309,0.561-0.502v-1.803c-0.756,0-1.387,0.048-1.895,0.143s-0.916,0.217-1.223,0.365
		c-0.309,0.147-0.527,0.32-0.656,0.518c-0.131,0.197-0.195,0.413-0.195,0.646c0,0.458,0.135,0.786,0.404,0.983
		S128.451,63.883,128.886,63.883z"/>
	<path d="M136.508,65.5V49.897h2.594v6.152c0.428-0.455,0.91-0.817,1.449-1.087c0.539-0.269,1.169-0.404,1.891-0.404
		c0.588,0,1.125,0.121,1.611,0.362c0.486,0.242,0.906,0.594,1.26,1.056s0.627,1.032,0.818,1.712
		c0.193,0.679,0.289,1.459,0.289,2.341c0,0.806-0.108,1.551-0.325,2.236c-0.217,0.687-0.526,1.281-0.929,1.785
		s-0.89,0.898-1.46,1.182c-0.571,0.283-1.21,0.425-1.916,0.425c-0.329,0-0.63-0.033-0.903-0.1s-0.521-0.159-0.746-0.278
		c-0.224-0.119-0.432-0.264-0.624-0.436s-0.376-0.362-0.552-0.572l-0.115,0.725c-0.042,0.182-0.113,0.312-0.215,0.389
		s-0.24,0.115-0.415,0.115H136.508z M141.549,56.575c-0.539,0-1,0.113-1.381,0.341c-0.382,0.228-0.737,0.548-1.066,0.961v4.83
		c0.295,0.364,0.615,0.618,0.961,0.761c0.347,0.144,0.723,0.216,1.129,0.216c0.393,0,0.746-0.073,1.061-0.221
		c0.314-0.146,0.582-0.371,0.803-0.672s0.391-0.681,0.51-1.14c0.119-0.458,0.178-0.999,0.178-1.622c0-0.63-0.051-1.163-0.152-1.601
		c-0.101-0.438-0.246-0.793-0.436-1.066c-0.188-0.272-0.418-0.473-0.688-0.599S141.891,56.575,141.549,56.575z"/>
	<path d="M151.209,49.897V65.5h-2.594V49.897H151.209z"/>
	<path d="M158.59,54.559c0.68,0,1.304,0.109,1.875,0.326c0.57,0.217,1.062,0.533,1.475,0.95c0.413,0.416,0.734,0.928,0.966,1.533
		s0.347,1.296,0.347,2.073c0,0.196-0.009,0.359-0.026,0.488c-0.018,0.13-0.049,0.231-0.095,0.305
		c-0.045,0.073-0.106,0.126-0.184,0.157s-0.175,0.048-0.294,0.048h-6.657c0.077,1.105,0.375,1.918,0.893,2.436
		c0.518,0.519,1.204,0.777,2.059,0.777c0.42,0,0.781-0.049,1.086-0.147c0.305-0.098,0.57-0.206,0.799-0.325
		c0.227-0.119,0.427-0.228,0.598-0.326c0.172-0.098,0.338-0.146,0.499-0.146c0.105,0,0.196,0.021,0.273,0.063
		s0.144,0.102,0.199,0.179l0.756,0.945c-0.287,0.336-0.608,0.618-0.966,0.845c-0.357,0.228-0.729,0.41-1.118,0.547
		c-0.389,0.136-0.784,0.232-1.187,0.288c-0.402,0.057-0.793,0.084-1.171,0.084c-0.749,0-1.445-0.124-2.089-0.372
		c-0.645-0.249-1.205-0.616-1.681-1.103s-0.851-1.089-1.124-1.807c-0.272-0.717-0.408-1.549-0.408-2.493
		c0-0.735,0.118-1.427,0.356-2.074c0.237-0.647,0.579-1.211,1.024-1.69c0.443-0.479,0.986-0.859,1.627-1.14
		C157.063,54.699,157.785,54.559,158.59,54.559z M158.643,56.418c-0.756,0-1.348,0.213-1.774,0.64
		c-0.427,0.428-0.7,1.033-0.819,1.816h4.872c0-0.336-0.046-0.652-0.136-0.95c-0.092-0.297-0.232-0.558-0.421-0.782
		c-0.188-0.224-0.427-0.4-0.714-0.53C159.363,56.482,159.027,56.418,158.643,56.418z"/>
</g>
</svg>
