<svg id="Layer_1" data-name="Layer 1" xmlns="http://www.w3.org/2000/svg" viewBox="0 0 220.36 152.38"><defs><style>.cls-1{opacity:0.3;}.cls-2{fill:#e4ff1a;}.cls-3{fill:#fff;}.cls-4{fill:none;stroke:#000;stroke-linecap:square;stroke-miterlimit:10;stroke-width:7px;}</style></defs><title>Sim Shadow</title><polyline class="cls-1" points="42.5 4.38 37.83 9.71 31.83 16.05 25 23.55 17.17 32.05 10.5 39.55 4 46.71 0.67 50.21 0.17 51.88 0 55.55 0.17 69.71 0.17 85.71 0.17 114.21 0.17 131.38 0 136.55 0.17 140.05 0.67 143.21 1.83 146.05 3 148.21 4.33 149.88 6.33 151.21 8.17 151.71 10.17 152.38 17.83 152.38 39.83 152.38 64.67 152.38 99 152.38 135 152.38 162.5 152.21 180.83 152.21 204.83 128.71 219.95 113.01"/><polyline class="cls-2" points="48.73 3.7 48.73 113.01 219.95 113.01 219.95 36.52 187.02 3.45"/><rect class="cls-3" x="60.12" y="19.49" width="105.46" height="74.69"/><path class="cls-4" d="M199.6,109.58H50.32a4.68,4.68,0,0,1-4.68-4.68V8.18A4.68,4.68,0,0,1,50.32,3.5H187.21l29.9,32.63v73.45" transform="translate(-0.25)"/><polyline class="cls-4" points="63.59 19.49 165.57 19.49 165.57 94.18 63.59 94.18 63.59 34.12"/><line class="cls-4" x1="98.37" y1="29.84" x2="98.37" y2="83.52"/><line class="cls-4" x1="129.6" y1="29.84" x2="129.6" y2="83.52"/><line class="cls-4" x1="86.52" y1="44.26" x2="75.65" y2="44.26"/><line class="cls-4" x1="86.52" y1="70.58" x2="75.65" y2="70.58"/><line class="cls-4" x1="151.92" y1="44.55" x2="141.45" y2="44.55"/><line class="cls-4" x1="151.92" y1="70.88" x2="141.45" y2="70.88"/><path d="M4.25,46.71" transform="translate(-0.25)"/></svg>