<?xml version="1.0" encoding="utf-8"?>
<!-- Generator: Adobe Illustrator 15.0.2, SVG Export Plug-In . SVG Version: 6.00 Build 0)  -->
<!DOCTYPE svg PUBLIC "-//W3C//DTD SVG 1.1//EN" "http://www.w3.org/Graphics/SVG/1.1/DTD/svg11.dtd">
<svg version="1.1" id="Layer_1" xmlns="http://www.w3.org/2000/svg" xmlns:xlink="http://www.w3.org/1999/xlink" x="0px" y="0px"
	 width="200px" height="200px" viewBox="0 0 200 200" enable-background="new 0 0 200 200" xml:space="preserve">
<rect x="44.305" y="29.495" fill="#E4FF1A" width="82.476" height="144.01"/>
<rect x="50.266" y="37.188" fill="#FFFFFF" width="63.553" height="104.983"/>
<path fill="none" stroke="#000000" stroke-width="6" stroke-linecap="square" stroke-linejoin="round" stroke-miterlimit="10" d="
	M113.818,108.4v35.236c0,1.272-1.025,2.303-2.287,2.303H55.534c-1.263,0-2.287-1.029-2.287-2.303V54.485"/>
<path fill="none" stroke="#000000" stroke-width="6" stroke-linecap="square" stroke-linejoin="round" stroke-miterlimit="10" d="
	M53.247,39.602h58.285c1.264,0,2.286,1.032,2.286,2.304v15.597"/>
<line fill="none" stroke="#000000" stroke-width="6" stroke-linecap="square" stroke-linejoin="round" stroke-miterlimit="10" x1="123.797" y1="103.896" x2="123.797" y2="156.891"/>
<path fill="none" stroke="#000000" stroke-width="6" stroke-linecap="square" stroke-linejoin="round" stroke-miterlimit="10" d="
	M123.797,171.605H46.349c-1.7,0-3.079-1.379-3.079-3.078V31.475c0-1.702,1.379-3.081,3.079-3.081h74.368
	c1.701,0,3.08,1.378,3.08,3.081v26.028"/>
<path d="M88.409,158.943c0,2.693-2.183,4.877-4.876,4.877c-2.694,0-4.877-2.184-4.877-4.877c0-2.691,2.183-4.875,4.877-4.875
	C86.226,154.068,88.409,156.252,88.409,158.943"/>
<path fill="#FFFFFF" stroke="#000000" stroke-width="6" stroke-linecap="square" stroke-linejoin="round" stroke-miterlimit="10" d="
	M156.73,99.031c0,2.596-2.271,4.866-4.867,4.866h-31.797c-0.648,0-1.621,0.324-2.271,0.974L100.6,120.121v-12.654
	c0-1.947-1.296-3.246-3.244-3.246h-6.489c-2.594,0-4.866-2.27-4.866-4.866V62.368c0-2.594,2.272-4.867,4.866-4.867h60.672
	c2.594,0,4.867,2.272,4.867,4.867L156.73,99.031L156.73,99.031L156.73,99.031z"/>
<path d="M110.205,80.105c0,2.693-2.184,4.876-4.877,4.876c-2.691,0-4.875-2.183-4.875-4.876c0-2.694,2.184-4.877,4.875-4.877
	C108.021,75.228,110.205,77.411,110.205,80.105"/>
<path d="M126.904,80.105c0,2.693-2.182,4.876-4.875,4.876s-4.877-2.183-4.877-4.876c0-2.694,2.184-4.877,4.877-4.877
	S126.904,77.411,126.904,80.105"/>
<path d="M143.605,80.105c0,2.693-2.187,4.876-4.877,4.876c-2.693,0-4.877-2.183-4.877-4.876c0-2.694,2.184-4.877,4.877-4.877
	C141.42,75.228,143.605,77.411,143.605,80.105"/>
</svg>
