<?xml version="1.0" encoding="utf-8"?>
<!-- Generator: Adobe Illustrator 23.0.1, SVG Export Plug-In . SVG Version: 6.00 Build 0)  -->
<svg version="1.1" id="flag-icon-css-pk" xmlns="http://www.w3.org/2000/svg" xmlns:xlink="http://www.w3.org/1999/xlink" x="0px"
	 y="0px" viewBox="0 0 640 480" style="enable-background:new 0 0 640 480;" xml:space="preserve">
<style type="text/css">
	.st0{fill-rule:evenodd;clip-rule:evenodd;fill:#0C590B;}
	.st1{fill-rule:evenodd;clip-rule:evenodd;fill:#FFFFFF;}
</style>
<g transform="translate(49) scale(.9375)">
	<path class="st0" d="M-52.3,0h682.7v512H-52.3V0z"/>
	<path class="st1" d="M-52.3,0H97.5v512H-52.3V0z"/>
	<g>
		<path class="st1" d="M468.8,225.4l-31.2-6.6l-16.4,27.3l-3.4-31.6l-31-7.2l29-13l-2.7-31.7l21.4,23.6l29.3-12.4l-15.9,27.6
			L468.8,225.4L468.8,225.4z"/>
		<path class="st1" d="M480.5,306c-27.9,60.9-99.8,87.6-160.7,59.7c-0.2-0.1-0.4-0.2-0.6-0.3c-61.2-28.3-87.8-100.9-59.5-162.1
			c13.7-30.5,39.6-53.9,71.4-64.3c-4.1,3.4-8.1,7.1-11.8,10.9c-41.6,46-37.9,117,8.1,158.6C371.2,348,438.1,347,480.5,306L480.5,306
			z"/>
	</g>
</g>
</svg>
