<?xml version="1.0" encoding="utf-8"?>
<!-- Generator: Adobe Illustrator 15.0.2, SVG Export Plug-In . SVG Version: 6.00 Build 0)  -->
<!DOCTYPE svg PUBLIC "-//W3C//DTD SVG 1.1//EN" "http://www.w3.org/Graphics/SVG/1.1/DTD/svg11.dtd">
<svg version="1.1" id="Layer_1" xmlns="http://www.w3.org/2000/svg" xmlns:xlink="http://www.w3.org/1999/xlink" x="0px" y="0px"
	 width="200px" height="200px" viewBox="0 0 200 200" enable-background="new 0 0 200 200" xml:space="preserve">
<rect fill="#FFFFFF" width="200" height="200"/>
<g>
	<path fill="#36AAE1" d="M25.103,57.063c-4.443,3.146-1.957,9.495,3.917,9.495c0.547,0,2.414,0,2.414,0v81.778
		c0,9.873,8.06,17.906,17.946,17.906h9.938l11.129-12.42l-19.052,34.503c-3.273,6.907,2.362,9.637,7.015,6.072
		c8.908-6.844,33.077-26.896,33.077-26.896l1.538-1.26h62.493c9.895,0,17.939-8.033,17.939-17.906V66.558c0,0,1.733,0,2.272,0
		c5.884,0,8.366-6.348,3.916-9.493L160.59,43.588V22.382c0-2.477-2.314-4.499-5.168-4.499H141.54c-2.845,0-5.16,2.021-5.16,4.499
		v4.081L106.91,5.624c0,0-2.067-1.588-4.575-1.588c-2.507,0-4.493,1.588-4.493,1.588L25.103,57.063z"/>
	
		<linearGradient id="SVGID_1_" gradientUnits="userSpaceOnUse" x1="-653.0552" y1="-1530.2676" x2="-653.0552" y2="-1650.1561" gradientTransform="matrix(1 0 0 1 755.4316 1696.8232)">
		<stop  offset="0.092" style="stop-color:#242857"/>
		<stop  offset="0.9264" style="stop-color:#33376F"/>
	</linearGradient>
	<path fill="url(#SVGID_1_)" d="M25.103,57.063c-4.443,3.146-1.957,9.495,3.917,9.495c0.547,0,2.414,0,2.414,0v81.778
		c0,9.873,8.06,17.906,17.946,17.906h9.938l11.129-12.42l-19.052,34.503c-3.273,6.907,2.362,9.637,7.015,6.072
		c8.908-6.844,33.077-26.896,33.077-26.896l1.538-1.26h62.493c9.895,0,17.939-8.033,17.939-17.906V66.558c0,0,1.733,0,2.272,0
		c5.884,0,8.366-6.348,3.916-9.493L160.59,43.588V22.382c0-2.477-2.314-4.499-5.168-4.499H141.54c-2.845,0-5.16,2.021-5.16,4.499
		v4.081L106.91,5.624c0,0-2.067-1.588-4.575-1.588c-2.507,0-4.493,1.588-4.493,1.588L25.103,57.063z"/>
	
		<radialGradient id="SVGID_2_" cx="-656.3657" cy="-1331.687" r="48.282" gradientTransform="matrix(3.0383 0 0 1.7675 2062.116 2555.4937)" gradientUnits="userSpaceOnUse">
		<stop  offset="0" style="stop-color:#36AAE1"/>
		<stop  offset="0.1436" style="stop-color:#36AAE1"/>
		<stop  offset="0.9149" style="stop-color:#36AAE1;stop-opacity:0"/>
	</radialGradient>
	<path fill="url(#SVGID_2_)" d="M54.246,192.753c-0.283,0-0.463-0.07-0.506-0.132c-0.127-0.197-0.278-1.097,0.525-2.832
		c0,0,18.719-33.906,18.998-34.423c2.693-4.902-2.33-6.979-5.215-3.693c-0.497,0.568-10.17,11.358-10.17,11.358h-8.497
		c-8.117,0-14.722-6.595-14.722-14.695V63.343h-5.638c-1.737,0-2.641-0.909-2.89-1.69c-0.23-0.731,0.053-1.412,0.834-1.966
		L99.812,8.169l0.028-0.028c0.358-0.258,1.429-0.893,2.495-0.893c1.097,0,2.25,0.661,2.62,0.93l0.068,0.053l0.029,0.022
		l34.55,24.427V22.382c0-0.604,0.829-1.286,1.938-1.286h13.882c1.116,0,1.949,0.681,1.949,1.286v22.87l20.417,14.43
		c0.782,0.559,1.062,1.24,0.829,1.971c-0.241,0.781-1.149,1.69-2.89,1.69h-5.488v84.993c0,8.101-6.61,14.695-14.724,14.695H91.869
		l-2.425,1.986c-0.259,0.215-24.24,20.107-32.994,26.836C55.385,192.662,54.549,192.753,54.246,192.753z"/>
	
		<radialGradient id="SVGID_3_" cx="-644.833" cy="-1403.2583" r="48.3968" gradientTransform="matrix(3.0383 0 0 3.0323 2062.116 4239.8433)" gradientUnits="userSpaceOnUse">
		<stop  offset="0" style="stop-color:#36AAE1"/>
		<stop  offset="0.7234" style="stop-color:#36AAE1;stop-opacity:0"/>
	</radialGradient>
	<path fill="url(#SVGID_3_)" d="M54.246,192.753c-0.283,0-0.463-0.07-0.506-0.132c-0.127-0.197-0.278-1.097,0.525-2.832
		c0,0,18.719-33.906,18.998-34.423c2.693-4.902-2.33-6.979-5.215-3.693c-0.497,0.568-10.17,11.358-10.17,11.358h-8.497
		c-8.117,0-14.722-6.595-14.722-14.695V63.343h-5.638c-1.737,0-2.641-0.909-2.89-1.69c-0.23-0.731,0.053-1.412,0.834-1.966
		L99.812,8.169l0.028-0.028c0.358-0.258,1.429-0.893,2.495-0.893c1.097,0,2.25,0.661,2.62,0.93l0.068,0.053l0.029,0.022
		l34.55,24.427V22.382c0-0.604,0.829-1.286,1.938-1.286h13.882c1.116,0,1.949,0.681,1.949,1.286v22.87l20.417,14.43
		c0.782,0.559,1.062,1.24,0.829,1.971c-0.241,0.781-1.149,1.69-2.89,1.69h-5.488v84.993c0,8.101-6.61,14.695-14.724,14.695H91.869
		l-2.425,1.986c-0.259,0.215-24.24,20.107-32.994,26.836C55.385,192.662,54.549,192.753,54.246,192.753z"/>
	<path fill="#1066AF" d="M94.152,123.517c-0.751,0-1.352-0.604-1.352-1.354c0-0.732,0.6-1.343,1.352-1.343
		c0.746,0,1.345,0.61,1.345,1.343C95.497,122.912,94.898,123.517,94.152,123.517"/>
	<rect x="81.876" y="108.42" fill="#1066AF" width="4.889" height="4.891"/>
	<rect x="87.603" y="108.42" fill="#1066AF" width="4.894" height="4.891"/>
	<rect x="81.876" y="114.142" fill="#1066AF" width="4.889" height="4.888"/>
	<rect x="87.603" y="114.142" fill="#1066AF" width="4.894" height="4.888"/>
	<g>
		<g>
			<g>
				<path fill="#FFFFFF" d="M70.932,58.465v-0.891c0-0.614-0.416-1.05-1-1.05H43.079c-0.598,0-1.008,0.436-1.008,1.05v0.891
					c0,0.612,0.422,1.05,1.008,1.05h11.766v36.309c0,0.608,0.424,1.042,1.004,1.042h1.309c0.583,0,1.002-0.425,1.002-1.042V59.515
					h11.772C70.509,59.515,70.932,59.078,70.932,58.465z"/>
				<path fill="#FFFFFF" d="M129.001,93.886h-16.936c-1.406,0-1.518-0.481-1.495-1.164l0.031-35.147
					c-0.031-0.609-0.489-1.05-1.124-1.05h-1.124c-0.64,0-1.087,0.436-1.087,1.05v35.199c0,2.486,1.73,4.093,4.395,4.093h17.34
					c0.632,0,1.097-0.434,1.097-1.042v-0.889C130.098,94.319,129.651,93.886,129.001,93.886z"/>
			</g>
		</g>
		<path fill="#FFFFFF" d="M101.082,63.563c0-3.531-2.901-7.254-7.789-7.254h-12.39c-5.122,0-7.852,3.775-7.852,7.254
			c0,0-0.024,1.184-0.024,1.247v30.963c0,0.664,0.485,1.148,1.152,1.148h1.007c0.667,0,1.146-0.484,1.146-1.148v-1.229l0,0v-5.709
			c0,0,0,0,0-0.003V77.959h21.468v16.552v1.263c0,0.664,0.487,1.148,1.157,1.148h1.003c0.673,0,1.153-0.484,1.153-1.148V64.811
			C101.115,64.715,101.082,63.563,101.082,63.563z M76.334,74.973V64.811c0-0.023,0-0.047,0-0.076v-1.264
			c0-2.054,1.834-4.169,4.917-4.169h11.624c3.036,0,4.922,2.16,4.922,4.169v9.017h0.005v2.485H76.334z"/>
		<path fill="#FFFFFF" d="M163.195,94.926l-13.893-22.805l11.486-14.017c0.941-1.131,0.37-1.58-0.352-1.58c-0.251,0-1.586,0-1.888,0
			c-0.704,0-0.987,0.337-1.372,0.808l-18.789,22.796V57.575c0-0.609-0.452-1.05-1.092-1.05h-1.123c-0.642,0-1.086,0.436-1.086,1.05
			v38.25c0,0.617,0.444,1.055,1.086,1.055h1.123c0.64,0,1.092-0.446,1.092-1.055v-9.311c0-1.178,0.044-1.227,1.054-2.449
			c0.205-0.254,7.644-9.221,7.644-9.221l12.938,21.208c0.234,0.37,0.521,0.828,1.229,0.828h1.272
			C163.292,96.879,163.923,96.083,163.195,94.926z"/>
	</g>
	<g>
		<g>
			<path fill="#FFFFFF" d="M68.893,99.964h-1.276c-0.596,0-1.02,0.433-1.02,1.044v17.006H45.662v-17.006
				c0-0.607-0.425-1.044-1.008-1.044h-1.281c-0.6,0-1.018,0.433-1.018,1.044v38.252c0,0.603,0.43,1.049,1.018,1.049h1.281
				c0.585,0,1.008-0.438,1.008-1.049v-18.264h20.936v18.264c0,0.603,0.434,1.049,1.02,1.049h1.276c0.596,0,1.018-0.438,1.018-1.049
				v-38.252C69.911,100.4,69.482,99.964,68.893,99.964z M143.938,102.951h19.169c0.636,0,1.099-0.445,1.099-1.049v-0.895
				c0-0.611-0.453-1.044-1.099-1.044H143.3c-2.811,0-4.485,2.191-4.485,4.306V136c0,2.369,2.01,4.309,4.485,4.309h19.807
				c0.636,0,1.099-0.446,1.099-1.049v-0.898c0-0.615-0.453-1.049-1.099-1.049h-19.169c-0.675,0-1.818-0.279-1.818-1.313v-15.056
				h16.605c0.631,0,1.094-0.438,1.094-1.051v-0.891c0-0.619-0.448-1.047-1.094-1.047h-16.605V104.27
				C142.119,103.81,142.807,102.951,143.938,102.951z M93.358,99.964H80.961c-5.108,0-7.872,3.786-7.872,7.355v25.623
				c0,3.566,2.763,7.366,7.872,7.366h12.396c4.888,0,7.818-3.743,7.818-7.366v-25.623C101.176,103.7,98.246,99.964,93.358,99.964z
				 M97.861,133.052c0,2.048-1.883,4.261-4.919,4.261H81.313c-3.08,0-4.915-2.17-4.915-4.261v-25.837
				c0-2.098,1.835-4.264,4.915-4.264h11.629c3.036,0,4.919,2.209,4.919,4.264V133.052z M132.479,99.582
				c-2.354,0-2.953,2.011-3.313,3.214l-9.168,33.161l-9.174-33.188c-0.354-1.192-0.95-3.187-3.307-3.187
				c-2.204,0-3.153,1.95-3.153,3.776v35.438c0,0.864,0.51,1.506,1.225,1.506h0.871c0.706,0,1.214-0.642,1.214-1.506v-34.718
				c0-0.054,0-0.093,0-0.15c0.049,0.14,0.111,0.314,0.181,0.562l9.151,33.46c0.444,1.728,1.636,2.71,2.992,2.71
				c1.341,0,2.557-1.006,2.988-2.684l9.151-33.472c0.074-0.251,0.126-0.437,0.188-0.568c0,0.05,0,0.095,0,0.143v34.718
				c0,0.864,0.508,1.506,1.212,1.506h0.873c0.712,0,1.22-0.642,1.22-1.506v-35.438C135.629,101.532,134.686,99.582,132.479,99.582z"
				/>
		</g>
	</g>
</g>
</svg>
