<?xml version="1.0" encoding="utf-8"?>
<!-- Generator: Adobe Illustrator 23.0.1, SVG Export Plug-In . SVG Version: 6.00 Build 0)  -->
<svg version="1.1" id="Layer_1" xmlns="http://www.w3.org/2000/svg" xmlns:xlink="http://www.w3.org/1999/xlink" x="0px" y="0px"
	 viewBox="0 0 96 96" style="enable-background:new 0 0 96 96;" xml:space="preserve">
<style type="text/css">
	.st0{fill:#fff;}
</style>
<g>
	<path class="st0" d="M73.94,1.29c-11.95,0-21.64,9.69-21.64,21.64c0,11.95,9.69,21.64,21.64,21.64c11.95,0,21.64-9.69,21.64-21.64
		C95.58,10.99,85.89,1.29,73.94,1.29z M81.89,31.45c0,0.24-0.05,0.48-0.15,0.73c-0.1,0.25-0.25,0.47-0.43,0.68
		c-0.18,0.2-0.41,0.36-0.68,0.49c-0.27,0.12-0.56,0.19-0.89,0.19H64.23v-3.02c0.36-0.07,0.7-0.17,1.03-0.31
		c0.33-0.14,0.62-0.32,0.87-0.54c0.25-0.22,0.45-0.48,0.6-0.78c0.15-0.3,0.23-0.66,0.23-1.06v-3.87h-3.02v-1.56
		c0-0.43,0.14-0.81,0.41-1.13c0.28-0.32,0.69-0.48,1.24-0.48h1.37v-3.51c0-1.03,0.16-2.01,0.47-2.94s0.79-1.74,1.44-2.45
		s1.45-1.27,2.42-1.68c0.97-0.42,2.12-0.63,3.44-0.63c0.88,0,1.67,0.11,2.38,0.33c0.71,0.22,1.34,0.53,1.9,0.93
		c0.56,0.4,1.05,0.86,1.47,1.4c0.42,0.54,0.79,1.11,1.11,1.73l-2.02,1.27c-0.4,0.22-0.79,0.33-1.15,0.33c-0.5,0-0.95-0.21-1.35-0.62
		c-0.41-0.42-0.79-0.74-1.12-0.94c-0.34-0.21-0.74-0.31-1.22-0.31c-0.88,0-1.53,0.31-1.96,0.92c-0.43,0.61-0.64,1.49-0.64,2.64v3.53
		h6.18v1.92c0,0.16-0.04,0.32-0.11,0.46c-0.07,0.15-0.17,0.28-0.29,0.4c-0.13,0.12-0.27,0.21-0.44,0.28s-0.36,0.11-0.56,0.11h-4.78
		v2.54c0,0.65-0.12,1.24-0.37,1.76c-0.24,0.53-0.57,1.02-0.98,1.47c0.49-0.11,0.98-0.19,1.46-0.25c0.49-0.06,0.98-0.09,1.48-0.09
		h8.16V31.45z"/>
	<path class="st0" d="M74.82,49.79c-0.28,0-0.56,0-0.84-0.01c-1.26,0.51-2.49,0.92-3.69,1.28v25.56H34.13V25.38h11.83
		c-0.03-0.5-0.08-1-0.08-1.51c0-4.97,1.6-9.61,4.32-13.56H33.37c-4.58,0-8.29,3.71-8.29,8.29v9.93h-4.74
		c-0.64,0-1.16,1.15-1.16,2.58c0,0.79,0.16,1.48,0.42,1.96c0.2,0.38,0.46,0.62,0.74,0.62h4.74v8.86H13.69
		c-1.05,0-1.89,1.15-1.89,2.58c0,0.79,0.26,1.48,0.68,1.96c0.33,0.38,0.74,0.62,1.21,0.62h11.39v8.86H9.53
		c-1.3,0-2.35,1.15-2.35,2.58c0,0.79,0.33,1.48,0.84,1.96c0.41,0.38,0.92,0.62,1.5,0.62h15.56v8.86H3.52c-1.71,0-3.1,1.15-3.1,2.58
		c0,0.79,0.43,1.48,1.11,1.96c0.54,0.38,1.22,0.62,1.98,0.62h21.57v10.66c0,4.58,3.71,8.29,8.29,8.29h37.68
		c4.58,0,8.29-3.71,8.29-8.29V49.45C77.86,49.66,76.36,49.79,74.82,49.79z M40.15,85.66h-4.52c-0.83,0-1.51-0.67-1.51-1.51
		c0-0.83,0.67-1.51,1.51-1.51h4.52c0.83,0,1.51,0.67,1.51,1.51C41.66,84.99,40.99,85.66,40.15,85.66z M55.23,87.17
		c0,0.83-0.67,1.51-1.51,1.51H50.7c-0.83,0-1.51-0.67-1.51-1.51v-3.01c0-0.83,0.67-1.51,1.51-1.51h3.01c0.83,0,1.51,0.67,1.51,1.51
		V87.17z M68.79,85.66h-4.52c-0.83,0-1.51-0.67-1.51-1.51c0-0.83,0.67-1.51,1.51-1.51h4.52c0.83,0,1.51,0.67,1.51,1.51
		C70.3,84.99,69.62,85.66,68.79,85.66z"/>
</g>
</svg>
