<?xml version="1.0" encoding="utf-8"?>
<!-- Generator: Adobe Illustrator 15.0.2, SVG Export Plug-In . SVG Version: 6.00 Build 0)  -->
<!DOCTYPE svg PUBLIC "-//W3C//DTD SVG 1.1//EN" "http://www.w3.org/Graphics/SVG/1.1/DTD/svg11.dtd">
<svg version="1.1" id="Layer_1" xmlns="http://www.w3.org/2000/svg" xmlns:xlink="http://www.w3.org/1999/xlink" x="0px" y="0px"
	 width="200px" height="200px" viewBox="0 0 200 200" enable-background="new 0 0 200 200" xml:space="preserve">
<rect x="13.779" y="63.5" fill="#E4FF1A" width="177.388" height="94.796"/>
<path fill="#FFFFFF" stroke="#000000" stroke-width="6" stroke-linecap="square" stroke-linejoin="round" stroke-miterlimit="10" d="
	M158.256,146.943H41.744c-0.626-12.305-7.493-19.846-18.73-20.594V92.427c11.237-0.747,18.104-8.288,18.73-20.592h116.514
	c0.578,11.518,6.51,23.239,18.73,24.328v30.187h-0.002c-5.191,0.348-9.451,2.141-12.59,5.186"/>
<path fill="none" stroke="#000000" stroke-width="6" stroke-linecap="square" stroke-linejoin="round" stroke-miterlimit="10" d="
	M164.396,131.535c-3.66,3.545-5.805,8.787-6.141,15.408"/>
<path d="M52.915,129.34c-3.302,0-5.985,2.682-5.985,5.984c0,3.305,2.683,5.986,5.985,5.986c3.304,0,5.985-2.682,5.985-5.986
	C58.9,132.021,56.219,129.34,52.915,129.34"/>
<path fill="none" stroke="#000000" stroke-width="6" stroke-linecap="square" stroke-linejoin="round" stroke-miterlimit="10" d="
	M188.252,146.943V68.079c0-4.142-3.367-7.51-7.512-7.51H19.259c-4.144,0-7.512,3.368-7.512,7.51v82.62
	c0,4.141,3.368,7.51,7.512,7.51h168.993"/>
<line fill="none" stroke="#000000" stroke-width="6" stroke-linecap="square" stroke-linejoin="round" stroke-miterlimit="10" x1="31.463" y1="51.577" x2="168.535" y2="51.577"/>
<line fill="none" stroke="#000000" stroke-width="6" stroke-linecap="square" stroke-linejoin="round" stroke-miterlimit="10" x1="39.913" y1="41.792" x2="160.086" y2="41.792"/>
<path d="M52.915,77.467c-3.302,0-5.985,2.683-5.985,5.985c0,3.306,2.683,5.987,5.985,5.987c3.304,0,5.985-2.681,5.985-5.987
	C58.9,80.15,56.219,77.467,52.915,77.467"/>
<path d="M148.131,129.34c-3.301,0-5.984,2.682-5.984,5.984c0,3.305,2.684,5.986,5.984,5.986c3.305,0,5.986-2.682,5.986-5.986
	C154.117,132.021,151.436,129.34,148.131,129.34"/>
<path d="M148.131,77.467c-3.301,0-5.984,2.683-5.984,5.985c0,3.306,2.684,5.987,5.984,5.987c3.305,0,5.986-2.681,5.986-5.987
	C154.117,80.15,151.436,77.467,148.131,77.467"/>
<polygon fill="#E4FF1A" points="103.759,94.91 112.769,97.258 114.774,86.857 98.438,85.992 90.377,96.284 89.908,106.151 
	85.463,106.927 85.943,113.531 92.432,114.802 85.463,129.021 86.305,133.473 115.871,133.473 114.896,123.086 100.668,124.94 
	98.558,123.456 102.041,113.531 109.953,113.531 109.85,105.033 102.041,105.033 99.578,104.662 101.682,95.636 "/>
<path fill="none" stroke="#000000" stroke-width="4" stroke-linecap="square" stroke-linejoin="round" stroke-miterlimit="10" d="
	M109.195,131.467H84.127v-5.638c3.691-1.532,7.797-5.503,7.797-10.233c0-0.976-0.07-1.812-0.209-2.784h-6.823v-7.17h5.569
	c-0.348-1.741-0.558-3.76-0.558-5.641c0-8.769,6.405-14.547,15.731-14.547c3.244,0,5.788,0.598,7.421,1.29
	c0.296,0.125,0.562,0.254,0.795,0.381l-1.412,6.498l-0.327,1.509 M105.566,93.898c-4.393,0.29-5.776,3.343-5.776,6.519
	c0,1.813,0.21,3.482,0.626,5.224h9.537v7.17h-8.633c0.07,1.742-0.071,3.342-0.625,4.942c-0.627,1.74-1.742,3.479-3.412,4.939v0.141
	h18.587v8.633"/>
</svg>
