<?xml version="1.0" encoding="utf-8"?>
<!-- Generator: Adobe Illustrator 15.0.2, SVG Export Plug-In . SVG Version: 6.00 Build 0)  -->
<!DOCTYPE svg PUBLIC "-//W3C//DTD SVG 1.1//EN" "http://www.w3.org/Graphics/SVG/1.1/DTD/svg11.dtd">
<svg version="1.1" id="Layer_1" xmlns="http://www.w3.org/2000/svg" xmlns:xlink="http://www.w3.org/1999/xlink" x="0px" y="0px"
	 width="200px" height="200px" viewBox="0 0 200 200" enable-background="new 0 0 200 200" xml:space="preserve">
<rect x="27.179" y="82" fill="#FFFFFF" width="150.821" height="91.418"/>
<rect x="47.524" y="93.833" fill="#E4FF1A" width="18.143" height="16.333"/>
<rect x="76.94" y="93.833" fill="#E4FF1A" width="18.143" height="16.333"/>
<rect x="106.191" y="93.833" fill="#E4FF1A" width="18.143" height="16.333"/>
<rect x="135.607" y="93.833" fill="#E4FF1A" width="18.143" height="16.333"/>
<rect x="47.524" y="118.584" fill="#E4FF1A" width="18.143" height="16.333"/>
<rect x="76.94" y="118.584" fill="#E4FF1A" width="18.143" height="16.333"/>
<rect x="106.191" y="118.584" fill="#E4FF1A" width="18.143" height="16.333"/>
<rect x="135.607" y="118.584" fill="#E4FF1A" width="18.143" height="16.333"/>
<rect x="47.524" y="143.584" fill="#E4FF1A" width="18.143" height="16.333"/>
<rect x="76.94" y="143.584" fill="#E4FF1A" width="18.143" height="16.333"/>
<rect x="106.191" y="143.584" fill="#E4FF1A" width="18.143" height="16.333"/>
<rect x="135.607" y="143.584" fill="#E4FF1A" width="18.143" height="16.333"/>
<rect x="27.179" y="43.5" fill="#E4FF1A" width="147.547" height="38.5"/>
<path fill="none" stroke="#000000" stroke-width="7" stroke-linecap="square" stroke-linejoin="round" stroke-miterlimit="10" d="
	M174.727,173.453H28.438c-1.739,0-3.164-1.426-3.164-3.164V48.982c0-1.739,1.424-3.164,3.164-3.164h27.605"/>
<path fill="none" stroke="#000000" stroke-width="7" stroke-linecap="square" stroke-linejoin="round" stroke-miterlimit="10" d="
	M146.628,45.819h24.935c1.74,0,3.164,1.424,3.164,3.164V156.12"/>
<line fill="none" stroke="#000000" stroke-width="7" stroke-linecap="square" stroke-linejoin="round" stroke-miterlimit="10" x1="82.48" y1="46.083" x2="116.966" y2="46.083"/>
<line fill="none" stroke="#000000" stroke-width="5" stroke-linecap="square" stroke-linejoin="round" stroke-miterlimit="10" x1="32.63" y1="79.462" x2="165.616" y2="79.462"/>
<path fill="#FFFFFF" stroke="#000000" stroke-width="7" stroke-linecap="square" stroke-linejoin="round" stroke-miterlimit="10" d="
	M68.572,61.089L68.572,61.089c-3.143,0-5.713-2.572-5.713-5.715V32.263c0-3.144,2.57-5.716,5.713-5.716
	c3.143,0,5.715,2.572,5.715,5.716v23.111C74.287,58.517,71.714,61.089,68.572,61.089z"/>
<path fill="#FFFFFF" stroke="#000000" stroke-width="7" stroke-linecap="square" stroke-linejoin="round" stroke-miterlimit="10" d="
	M131.868,61.089L131.868,61.089c-3.146,0-5.711-2.572-5.711-5.715V32.263c0-3.144,2.565-5.716,5.711-5.716
	c3.144,0,5.715,2.572,5.715,5.716v23.111C137.583,58.517,135.012,61.089,131.868,61.089z"/>
<path fill="none" stroke="#000000" stroke-width="5" stroke-linecap="square" stroke-linejoin="round" stroke-miterlimit="10" d="
	M63.218,108.525H48.955c-1.102,0-2.003-0.901-2.003-2.002V94.261c0-1.101,0.901-2.002,2.003-2.002h12.261
	c1.101,0,2.002,0.901,2.002,2.002v7.391"/>
<path fill="none" stroke="#000000" stroke-width="5" stroke-linecap="square" stroke-linejoin="round" stroke-miterlimit="10" d="
	M63.218,133.411H48.955c-1.102,0-2.003-0.901-2.003-2.005v-12.26c0-1.104,0.901-2.002,2.003-2.002h12.261
	c1.101,0,2.002,0.897,2.002,2.002v7.39"/>
<path fill="none" stroke="#000000" stroke-width="5" stroke-linecap="square" stroke-linejoin="round" stroke-miterlimit="10" d="
	M63.218,158.296H48.955c-1.102,0-2.003-0.903-2.003-2.005v-12.262c0-1.1,0.901-2.002,2.003-2.002h12.261
	c1.101,0,2.002,0.902,2.002,2.002v7.394"/>
<path fill="none" stroke="#000000" stroke-width="5" stroke-linecap="square" stroke-linejoin="round" stroke-miterlimit="10" d="
	M92.576,108.525H78.312c-1.101,0-2.002-0.901-2.002-2.002V94.261c0-1.101,0.901-2.002,2.002-2.002h12.262
	c1.101,0,2.002,0.901,2.002,2.002v7.391"/>
<path fill="none" stroke="#000000" stroke-width="5" stroke-linecap="square" stroke-linejoin="round" stroke-miterlimit="10" d="
	M92.576,133.411H78.312c-1.101,0-2.002-0.901-2.002-2.005v-12.26c0-1.104,0.901-2.002,2.002-2.002h12.262
	c1.101,0,2.002,0.897,2.002,2.002v7.39"/>
<path fill="none" stroke="#000000" stroke-width="5" stroke-linecap="square" stroke-linejoin="round" stroke-miterlimit="10" d="
	M92.576,158.296H78.312c-1.101,0-2.002-0.903-2.002-2.005v-12.262c0-1.1,0.901-2.002,2.002-2.002h12.262
	c1.101,0,2.002,0.902,2.002,2.002v7.394"/>
<path fill="none" stroke="#000000" stroke-width="5" stroke-linecap="square" stroke-linejoin="round" stroke-miterlimit="10" d="
	M121.936,108.525H107.67c-1.102,0-2.002-0.901-2.002-2.002V94.261c0-1.101,0.9-2.002,2.002-2.002h12.264
	c1.101,0,2.002,0.901,2.002,2.002v7.391"/>
<path fill="none" stroke="#000000" stroke-width="5" stroke-linecap="square" stroke-linejoin="round" stroke-miterlimit="10" d="
	M121.936,133.411H107.67c-1.102,0-2.002-0.901-2.002-2.005v-12.26c0-1.104,0.9-2.002,2.002-2.002h12.264
	c1.101,0,2.002,0.897,2.002,2.002v7.39"/>
<path fill="none" stroke="#000000" stroke-width="5" stroke-linecap="square" stroke-linejoin="round" stroke-miterlimit="10" d="
	M121.936,158.296H107.67c-1.102,0-2.002-0.903-2.002-2.005v-12.262c0-1.1,0.9-2.002,2.002-2.002h12.264
	c1.101,0,2.002,0.902,2.002,2.002v7.394"/>
<path fill="none" stroke="#000000" stroke-width="5" stroke-linecap="square" stroke-linejoin="round" stroke-miterlimit="10" d="
	M151.29,108.525h-14.263c-1.103,0-2.004-0.901-2.004-2.002V94.261c0-1.101,0.901-2.002,2.004-2.002h12.263c1.103,0,2,0.901,2,2.002
	v7.391"/>
<path fill="none" stroke="#000000" stroke-width="5" stroke-linecap="square" stroke-linejoin="round" stroke-miterlimit="10" d="
	M151.29,133.411h-14.263c-1.103,0-2.004-0.901-2.004-2.005v-12.26c0-1.104,0.901-2.002,2.004-2.002h12.263c1.103,0,2,0.897,2,2.002
	v7.39"/>
<path fill="none" stroke="#000000" stroke-width="5" stroke-linecap="square" stroke-linejoin="round" stroke-miterlimit="10" d="
	M151.29,158.296h-14.263c-1.103,0-2.004-0.903-2.004-2.005v-12.262c0-1.1,0.901-2.002,2.004-2.002h12.263c1.103,0,2,0.902,2,2.002
	v7.394"/>
</svg>
