<?xml version="1.0" encoding="utf-8"?>
<!-- Generator: Adobe Illustrator 15.0.2, SVG Export Plug-In . SVG Version: 6.00 Build 0)  -->
<!DOCTYPE svg PUBLIC "-//W3C//DTD SVG 1.1//EN" "http://www.w3.org/Graphics/SVG/1.1/DTD/svg11.dtd">
<svg version="1.1" id="Layer_1" xmlns="http://www.w3.org/2000/svg" xmlns:xlink="http://www.w3.org/1999/xlink" x="0px" y="0px"
	 width="200px" height="200px" viewBox="0 0 200 200" enable-background="new 0 0 200 200" xml:space="preserve">
<ellipse fill="#FFFFFF" cx="99.417" cy="99.655" rx="80.365" ry="80.887"/>
<circle fill="#E4FF1A" cx="99.417" cy="99.651" r="68.55"/>
<path fill="none" stroke="#000000" stroke-width="6" stroke-linecap="square" stroke-linejoin="round" stroke-miterlimit="10" d="
	M100.001,21.509c43.12,0,78.078,34.955,78.078,78.078c0,32.709-20.116,60.72-48.651,72.341"/>
<path fill="none" stroke="#000000" stroke-width="6" stroke-linecap="square" stroke-linejoin="round" stroke-miterlimit="10" d="
	M100.001,177.664c-43.123,0-78.08-34.958-78.08-78.081c0-34.203,21.996-63.27,52.615-73.83"/>
<circle fill="none" stroke="#000000" stroke-width="4" stroke-linecap="round" stroke-linejoin="bevel" stroke-dasharray="3,12,3,12,3,12" cx="100" cy="99.587" r="66.644"/>
<polygon fill="#FFFFFF" points="105.217,80.873 117.717,84.132 120.5,69.701 97.833,68.5 86.65,82.78 86,96.47 79.833,97.545 
	80.5,106.709 89.5,108.471 79.833,128.199 81,134.375 122.021,134.375 120.667,119.965 100.928,122.538 98,120.479 102.834,106.709 
	113.811,106.709 113.667,94.918 102.834,94.918 99.417,94.404 102.334,81.881 "/>
<path fill="none" stroke="#000000" stroke-width="6" stroke-linecap="square" stroke-linejoin="round" stroke-miterlimit="10" d="
	M112.759,131.507h-34.78v-7.823c5.121-2.125,10.817-7.634,10.817-14.197c0-1.354-0.098-2.514-0.29-3.864H79.04v-9.947h7.728
	c-0.483-2.416-0.775-5.216-0.775-7.826c0-12.166,8.887-20.183,21.827-20.183c4.5,0,8.029,0.83,10.295,1.789
	c0.41,0.174,0.779,0.352,1.104,0.529L117.259,79l-0.454,2.093 M107.725,79.383c-6.094,0.401-8.015,4.638-8.015,9.044
	c0,2.517,0.291,4.831,0.869,7.247h13.231v9.947h-11.977c0.098,2.418-0.098,4.637-0.867,6.857c-0.871,2.414-2.416,4.826-4.733,6.854
	v0.196h25.786v11.977"/>
<path fill="#FFFFFF" d="M110.5,79"/>
</svg>
