<?xml version="1.0" encoding="utf-8"?>
<!-- Generator: Adobe Illustrator 15.0.2, SVG Export Plug-In . SVG Version: 6.00 Build 0)  -->
<!DOCTYPE svg PUBLIC "-//W3C//DTD SVG 1.1//EN" "http://www.w3.org/Graphics/SVG/1.1/DTD/svg11.dtd">
<svg version="1.1" id="Layer_1" xmlns="http://www.w3.org/2000/svg" xmlns:xlink="http://www.w3.org/1999/xlink" x="0px" y="0px"
	 width="200px" height="200px" viewBox="0 0 200 200" enable-background="new 0 0 200 200" xml:space="preserve">
<rect x="52.903" y="16.307" fill="#E4FF1A" width="96.425" height="167.388"/>
<rect x="61.479" y="29.316" fill="#FFFFFF" width="73.315" height="122.025"/>
<path fill="none" stroke="#000000" stroke-width="6" stroke-linecap="square" stroke-miterlimit="10" d="M64.485,29.316h67.656
	c1.464,0,2.652,1.198,2.652,2.675V150.08c0,1.477-1.188,2.675-2.652,2.675H67.14c-1.466,0-2.654-1.198-2.654-2.675V46.595"/>
<path fill="none" stroke="#000000" stroke-width="6" stroke-linecap="square" stroke-miterlimit="10" d="M146.376,182.546H56.478
	c-1.974,0-3.575-1.601-3.575-3.573V19.882c0-1.976,1.6-3.576,3.575-3.576h86.324c1.975,0,3.574,1.6,3.574,3.576v145.582"/>
<path d="M105.301,167.848c0,3.127-2.533,5.659-5.661,5.659s-5.66-2.532-5.66-5.659c0-3.126,2.532-5.659,5.66-5.659
	S105.301,164.722,105.301,167.848"/>
</svg>
