<?xml version="1.0" encoding="utf-8"?>
<!-- Generator: Adobe Illustrator 15.0.2, SVG Export Plug-In . SVG Version: 6.00 Build 0)  -->
<!DOCTYPE svg PUBLIC "-//W3C//DTD SVG 1.1//EN" "http://www.w3.org/Graphics/SVG/1.1/DTD/svg11.dtd">
<svg version="1.1" id="Layer_1" xmlns="http://www.w3.org/2000/svg" xmlns:xlink="http://www.w3.org/1999/xlink" x="0px" y="0px"
	 width="200px" height="200px" viewBox="0 0 200 200" enable-background="new 0 0 200 200" xml:space="preserve">
<polyline fill="#E4FF1A" points="17.733,49.317 17.733,158.626 188.95,158.626 188.95,82.139 156.019,49.065 "/>
<rect x="29.119" y="65.111" fill="#FFFFFF" width="105.458" height="74.687"/>
<path fill="none" stroke="#000000" stroke-width="7" stroke-linecap="square" stroke-miterlimit="10" d="M168.347,155.203H19.071
	c-2.584,0-4.68-2.096-4.68-4.68V53.802c0-2.584,2.096-4.683,4.68-4.683h136.894l29.897,32.632v73.452"/>
<polyline fill="none" stroke="#000000" stroke-width="7" stroke-linecap="square" stroke-miterlimit="10" points="32.59,65.111 
	134.575,65.111 134.575,139.798 32.59,139.798 32.59,79.735 "/>
<line fill="none" stroke="#000000" stroke-width="7" stroke-linecap="square" stroke-miterlimit="10" x1="67.375" y1="75.46" x2="67.375" y2="129.139"/>
<line fill="none" stroke="#000000" stroke-width="7" stroke-linecap="square" stroke-miterlimit="10" x1="98.599" y1="75.46" x2="98.599" y2="129.139"/>
<line fill="none" stroke="#000000" stroke-width="7" stroke-linecap="square" stroke-miterlimit="10" x1="55.524" y1="89.877" x2="44.654" y2="89.877"/>
<line fill="none" stroke="#000000" stroke-width="7" stroke-linecap="square" stroke-miterlimit="10" x1="55.524" y1="116.203" x2="44.654" y2="116.203"/>
<line fill="none" stroke="#000000" stroke-width="7" stroke-linecap="square" stroke-miterlimit="10" x1="120.921" y1="90.17" x2="110.448" y2="90.17"/>
<line fill="none" stroke="#000000" stroke-width="7" stroke-linecap="square" stroke-miterlimit="10" x1="120.921" y1="116.494" x2="110.448" y2="116.494"/>
</svg>
