<svg xmlns="http://www.w3.org/2000/svg" width="3806" height="583" viewBox="0 0 3806 583">
  <metadata><?xpacket begin="﻿" id="W5M0MpCehiHzreSzNTczkc9d"?>
<x:xmpmeta xmlns:x="adobe:ns:meta/" x:xmptk="Adobe XMP Core 5.6-c140 79.160451, 2017/05/06-01:08:21        ">
   <rdf:RDF xmlns:rdf="http://www.w3.org/1999/02/22-rdf-syntax-ns#">
      <rdf:Description rdf:about=""/>
   </rdf:RDF>
</x:xmpmeta>
                                                                                                    
                                                                                                    
                                                                                                    
                                                                                                    
                                                                                                    
                                                                                                    
                                                                                                    
                                                                                                    
                                                                                                    
                                                                                                    
                                                                                                    
                                                                                                    
                                                                                                    
                                                                                                    
                                                                                                    
                                                                                                    
                                                                                                    
                                                                                                    
                                                                                                    
                                                                                                    
                           
<?xpacket end="w"?></metadata>
<defs>
    <style>
      .cls-1 {
        fill: #fff;
        fill-rule: evenodd;
      }
    </style>
  </defs>
  <path id="Shape_1_copy_24" data-name="Shape 1 copy 24" class="cls-1" d="M3801.54,323a2.341,2.341,0,0,1-.9-0.287,2.423,2.423,0,0,1-1.24-1.922l-2.66-32.443L3761.09,272.6a2.444,2.444,0,0,1,.66-4.644l45.25-6.444v4.919l-36.15,5.148L3807,287.544v5.332l-5.21-2.3,2.14,26.165,3.07-1.593v5.473l-4.08,2.119A2.41,2.41,0,0,1,3801.54,323Zm-34.64-35.6a2.452,2.452,0,0,1-1.08,3.272l-11.56,5.861a2.408,2.408,0,0,1-3.25-1.074,2.444,2.444,0,0,1,1.08-3.273l11.55-5.861A2.419,2.419,0,0,1,3766.9,287.4Zm13.59,13.094a2.443,2.443,0,0,1-1.02,3.291l-31.49,16.683a2.421,2.421,0,0,1-3.28-1.016,2.447,2.447,0,0,1,1.03-3.291l31.49-16.683A2.409,2.409,0,0,1,3780.49,300.493Zm-56.74,261.4a2.423,2.423,0,0,1-1.88.511l-29.28-4.448-6.75,21.656a2.425,2.425,0,0,1-.78,1.164,2.467,2.467,0,0,1-.84.44,2.41,2.41,0,0,1-2.23-.464l-24.85-20.8-36.2,14.361a2.429,2.429,0,0,1-2.83-3.714l77.57-104.569v0c0.08-.1.16-0.188,0.24-0.272,0.01-.007.01-0.014,0.02-0.021a2.562,2.562,0,0,1,.28-0.231,0.034,0.034,0,0,1,.02-0.014,2.313,2.313,0,0,1,.31-0.186,0.038,0.038,0,0,1,.02-0.008,2.2,2.2,0,0,1,.34-0.137l0.01,0a2.418,2.418,0,0,1,1.14-.063l0.03,0a2.547,2.547,0,0,1,.33.093l0.06,0.02c0.08,0.033.17,0.069,0.25,0.112,0.02,0.009.03,0.019,0.05,0.028s0.03,0.019.05,0.029a2.592,2.592,0,0,1,.29.191,0.147,0.147,0,0,0,.01.013,2.854,2.854,0,0,1,.26.244c0.01,0,.01.007,0.01,0.011a2.971,2.971,0,0,1,.22.277l0.03,0.038a3.165,3.165,0,0,1,.16.3,0.108,0.108,0,0,1,.02.052,1.924,1.924,0,0,1,.12.325c0,0.009.01,0.017,0.01,0.025l24.6,92.52a2.447,2.447,0,0,1-.53,2.247A2.644,2.644,0,0,1,3723.75,561.892Zm-41.44,12.8,5.44-17.473-17.15-2.606-8.33,3.307Zm15.09-98.639-8.81,27.294-3.89,12.081a2.42,2.42,0,1,1-4.6-1.5l10.7-33.18-63.73,85.909,41.3-16.383,7.37-22.833a2.382,2.382,0,0,1,2.53-1.649l0.05,0.006a2.4,2.4,0,0,1,2.02,3.136l-6.84,21.205,45.44,6.9ZM3519.07,762l-11.26-75.934-17.61,40.786,10.93,21.353a2.392,2.392,0,0,1-.62,2.956l-0.04.03a2.409,2.409,0,0,1-3.65-.786l-10.15-19.832-37.02,27.248,7.21,4.179h-9.65l-3.18-1.849a2.45,2.45,0,0,1-1.22-1.966c0-.132,0-0.263.01-0.392a2.418,2.418,0,0,1,.97-1.691l23.85-17.555-10.55-20.084a2.465,2.465,0,0,1-.26-1.381,2.264,2.264,0,0,1,.28-0.9,2.4,2.4,0,0,1,1.9-1.249l32.28-2.867,15.44-35.752a2.43,2.43,0,0,1,4.63.626L3523.97,762h-4.9Zm-56-42.561,8.51,16.205,13.97-10.284,3.55-8.233Zm25.71-38.289-5.91-11.523a2.419,2.419,0,1,1,4.31-2.2l5.91,11.522A2.42,2.42,0,1,1,3488.78,681.15Zm-12.97,13.74-16.8-31.395a2.42,2.42,0,1,1,4.27-2.277l16.81,31.4A2.424,2.424,0,1,1,3475.81,694.89Zm-4.87-355.764v0.012a2.382,2.382,0,0,1-.53,1.017c-0.01.008-.01,0.015-0.02,0.023a2.708,2.708,0,0,1-.25.241c-0.01.013-.03,0.025-0.04,0.037-0.08.058-.15,0.114-0.23,0.164-0.02.01-.03,0.018-0.05,0.027s-0.03.019-.05,0.029a2.106,2.106,0,0,1-.31.149,0.159,0.159,0,0,1-.02.007,2.445,2.445,0,0,1-.34.1c-0.01,0-.01,0-0.02,0a2.289,2.289,0,0,1-.35.047c-0.01,0-.03,0-0.05,0a2.3,2.3,0,0,1-.34-0.008l-0.05-.006a2.684,2.684,0,0,1-.35-0.064,0.052,0.052,0,0,0-.02,0l-92.63-25.433a2.43,2.43,0,0,1-1.67-1.594,2.58,2.58,0,0,1-.09-0.382,2.421,2.421,0,0,1,.51-1.881l18.74-23.035-15.32-16.752a2.465,2.465,0,0,1-.6-1.268,2.317,2.317,0,0,1,.04-0.944,2.425,2.425,0,0,1,1.54-1.692l30.65-10.967,5.98-38.505a2.413,2.413,0,0,1,2.1-2.031,2.44,2.44,0,0,1,2.55,1.462l51.09,119.74v0.007a2.127,2.127,0,0,1,.11.342,0.032,0.032,0,0,1,.01.028,2.158,2.158,0,0,1,.06.355v0.023c0.01,0.122.01,0.243,0.01,0.363,0,0.007-.01.013-0.01,0.02A2.214,2.214,0,0,1,3470.94,339.126Zm-87.42-67.871,12.36,13.517,10.98-13.5,1.38-8.867Zm49.96,28.917a2.445,2.445,0,0,1,3.78-.168l23.29,25.984-41.97-98.373-6.82,43.926,16.02,17.88a2.38,2.38,0,0,1,.14,3.017l-0.03.04a2.418,2.418,0,0,1-3.74.166l-14.89-16.607-29.09,35.754,81.08,22.264L3442.1,312.68l-8.48-9.46A2.41,2.41,0,0,1,3433.48,300.172Zm-34.64-72.481-8.66-9.647a2.412,2.412,0,0,1,.2-3.42,2.447,2.447,0,0,1,3.44.2l8.65,9.647a2.412,2.412,0,0,1-.19,3.42A2.446,2.446,0,0,1,3398.84,227.691Zm-5.69,16.719a2.456,2.456,0,0,1-3.45-.137l-24.26-26.1a2.4,2.4,0,0,1,.13-3.423,2.455,2.455,0,0,1,3.45.136l24.26,26.1A2.4,2.4,0,0,1,3393.15,244.41Zm-27.03-1.64,14.05,13.436a2.4,2.4,0,0,1,.07,3.426,2.44,2.44,0,0,1-3.44.066l-14.06-13.436a2.415,2.415,0,0,1-.07-3.425A2.451,2.451,0,0,1,3366.12,242.77Zm-72.25,281.016a1.94,1.94,0,0,1-.07.337,0.028,0.028,0,0,1-.01.026l-28.46,91.408a2.409,2.409,0,0,1-2.03,1.7,2.4,2.4,0,0,1-1.86-.568l-22.41-19.359-17.24,14.734a2.422,2.422,0,0,1-2.23.493,2.406,2.406,0,0,1-1.64-1.581l-9.96-30.838-38.28-7.128a2.4,2.4,0,0,1-1.96-2.16,2.433,2.433,0,0,1,1.54-2.49l121.35-47.181h0a2.443,2.443,0,0,1,.35-0.1l0.03-.007a2.338,2.338,0,0,1,.36-0.048l0.02,0a2.4,2.4,0,0,1,.36.008l0.02,0a2.525,2.525,0,0,1,.36.066l0.02,0a2.4,2.4,0,0,1,.99.554l0.03,0.02a2.354,2.354,0,0,1,.23.256l0.03,0.045a2.075,2.075,0,0,1,.16.232l0.03,0.048c0.01,0.017.01,0.035,0.02,0.052a1.355,1.355,0,0,1,.14.313,0.02,0.02,0,0,1,.01.02,2.111,2.111,0,0,1,.09.345v0.015a1.386,1.386,0,0,1,.04.349v0.047a1.94,1.94,0,0,1-.02.341A0.11,0.11,0,0,1,3293.87,523.786Zm-72.46,82.228,13.92-11.888-13.13-11.34-8.82-1.642Zm30.5-52.606,26.73-22.379-99.69,38.762,43.67,8.131,18.4-15.4a2.391,2.391,0,0,1,3.02-.047l0.04,0.03a2.41,2.41,0,0,1,.04,3.732l-17.08,14.3,34.78,30.047,24.91-80.014-21.99,18.409L3255,557.13A2.419,2.419,0,1,1,3251.91,553.408Zm-143.6-259.822v0a2.4,2.4,0,0,1-.31.2,0.034,0.034,0,0,1-.02.015,2.823,2.823,0,0,1-.33.149c-0.01,0-.01.005-0.02,0.008a2.2,2.2,0,0,1-.35.1l-0.02,0a2.314,2.314,0,0,1-.37.041h-0.01a2.408,2.408,0,0,1-1.11-.243l-0.03-.013a2.949,2.949,0,0,1-.3-0.178c-0.02-.011-0.03-0.022-0.05-0.033-0.07-.055-0.14-0.113-0.21-0.177a0.149,0.149,0,0,1-.04-0.039,0.155,0.155,0,0,1-.04-0.042,2.988,2.988,0,0,1-.23-0.26,0.017,0.017,0,0,0-.01-0.017,3.37,3.37,0,0,1-.19-0.3v-0.013a2.016,2.016,0,0,1-.14-0.325c-0.01-.015-0.01-0.03-0.02-0.045-0.03-.109-0.06-0.219-0.08-0.331a0.115,0.115,0,0,0-.01-0.057c-0.01-.113-0.02-0.229-0.02-0.344v-0.027l0.65-95.768a2.457,2.457,0,0,1,1.11-2.024,2.347,2.347,0,0,1,.35-0.186,2.384,2.384,0,0,1,1.94.008l27.08,12.088,12.22-19.084a2.413,2.413,0,0,1,4.02-.072l18.5,26.673,38.71-4.2a2.43,2.43,0,0,1,1.75,4.335Zm41.56-101.214-9.86,15.4,15.86,7.082,8.91-.968Zm7.01,27.261-13.13,20.054a2.388,2.388,0,0,1-2.88.916l-0.05-.018a2.412,2.412,0,0,1-1.12-3.563l12.19-18.625-42.02-18.764-0.58,83.832,15.7-23.973,6.94-10.61a2.416,2.416,0,0,1,2.91-.925,2.44,2.44,0,0,1,1.14,3.6L3116.9,280.7l84.14-65.861Zm43.05-21.117a2.425,2.425,0,1,1-4.05-2.668l7.08-10.827a2.411,2.411,0,0,1,3.35-.7,2.437,2.437,0,0,1,.7,3.364Zm-21.66-3.821a2.44,2.44,0,0,1-.76-3.351L3185.27,179H3191l-9.39,14.94A2.417,2.417,0,0,1,3178.27,194.7Zm-18.03-8.485a2.431,2.431,0,0,1-.95-3.3l2.15-3.909h5.53l-3.44,6.257A2.417,2.417,0,0,1,3160.24,186.21Zm-36.18,7.488a2.411,2.411,0,0,1-3.35.7,2.437,2.437,0,0,1-.7-3.364l7.08-10.827a2.425,2.425,0,0,1,4.05,2.668ZM2998.8,696.662l-7.68-10.424a2.419,2.419,0,1,1,3.9-2.864l7.69,10.424A2.423,2.423,0,1,1,2998.8,696.662Zm-22.97-3.893,13.63,18.13a2.4,2.4,0,0,1,.49,1.32,2.716,2.716,0,0,1-.13.935,2.422,2.422,0,0,1-1.68,1.539l-31.4,8.015-9.5,37.768a2.425,2.425,0,0,1-1.18,1.524h-2.32a2.456,2.456,0,0,1-1.17-1.4L2903.04,636.55v-0.006a2.206,2.206,0,0,1-.08-0.352,0.033,0.033,0,0,1-.01-0.028,2.174,2.174,0,0,1-.02-0.36v-0.023a2.183,2.183,0,0,1,.03-0.362V635.4a2.222,2.222,0,0,1,.09-0.357v-0.011a2.511,2.511,0,0,1,.62-0.963c0.01-.007.01-0.014,0.02-0.021a1.9,1.9,0,0,1,.27-0.217c0.02-.011.03-0.022,0.05-0.032a1.445,1.445,0,0,1,.24-0.141,0.2,0.2,0,0,1,.05-0.023c0.02-.009.03-0.016,0.05-0.024a2.593,2.593,0,0,1,.32-0.119,0.052,0.052,0,0,0,.02,0,2.708,2.708,0,0,1,.35-0.07l0.02,0a2.358,2.358,0,0,1,.35-0.013h0.05a2.324,2.324,0,0,1,.33.041l0.06,0.011a2.565,2.565,0,0,1,.33.1c0.01,0,.02,0,0.03.008l89.46,34.1a2.452,2.452,0,0,1,1.51,1.746,2.575,2.575,0,0,1,.05.388,2.394,2.394,0,0,1-.68,1.824Zm7.58,18.127-11-14.628-12.14,12.394-2.19,8.7Zm-71.23-69.888,17,23.1,7.53,10.222a2.421,2.421,0,1,1-3.91,2.856l-20.67-28.075,32.48,101.915,10.83-43.086-14.22-19.319a2.381,2.381,0,0,1,.14-3.018l0.03-.036a2.409,2.409,0,0,1,3.73.19l13.21,17.943,32.16-32.84ZM2927.11,339.6a2.436,2.436,0,0,1-.8,3.342l-11.01,6.8a2.424,2.424,0,1,1-2.53-4.136l11.01-6.795A2.414,2.414,0,0,1,2927.11,339.6Zm56.28-81.866a1.283,1.283,0,0,1-.07.334c0,0.019-.01.037-0.01,0.055-0.03.11-.08,0.219-0.12,0.323a0.028,0.028,0,0,0-.01.025l-41.26,86.426a2.455,2.455,0,0,1-1.87,1.363,2.319,2.319,0,0,1-.39.021,2.411,2.411,0,0,1-1.76-.834L2918.52,323l-19.17,12.088a2.4,2.4,0,0,1-1.35.373,2.35,2.35,0,0,1-.92-0.209,2.425,2.425,0,0,1-1.4-1.805l-5.42-32-36.83-12.636a2.413,2.413,0,0,1-1.63-2.426,2.439,2.439,0,0,1,1.88-2.242l126.77-29.085h0.01a2.627,2.627,0,0,1,.36-0.053l0.03,0a2.4,2.4,0,0,1,.36,0l0.02,0a2.507,2.507,0,0,1,.36.061,0.052,0.052,0,0,0,.02,0,2.135,2.135,0,0,1,.34.119c0.01,0,.01,0,0.02,0a2.36,2.36,0,0,1,.9.694,0.045,0.045,0,0,1,.02.023,1.809,1.809,0,0,1,.2.288l0.03,0.05q0.06,0.122.12,0.252a0.112,0.112,0,0,0,.02.052,0.123,0.123,0,0,0,.02.055c0.03,0.11.07,0.22,0.09,0.331v0.02a2.144,2.144,0,0,1,.04.356v0.015a2.054,2.054,0,0,1-.01.351A0.079,0.079,0,0,1,2983.39,257.729Zm-83.54,71.315,15.47-9.754-11.36-13.147-8.48-2.91Zm37.71-47.685,29.65-18.282-104.15,23.895,42.02,14.414,20.4-12.581a2.4,2.4,0,0,1,3,.393l0.03,0.035a2.415,2.415,0,0,1-.49,3.7l-18.95,11.684,30.08,34.833,36.12-75.653-24.39,15.039-10.8,6.657a2.408,2.408,0,0,1-3.02-.4A2.436,2.436,0,0,1,2937.56,281.359Zm-77.09,21.658a2.436,2.436,0,0,1-.8,3.342l-11.01,6.8a2.424,2.424,0,1,1-2.53-4.135l11.01-6.8A2.415,2.415,0,0,1,2860.47,303.017Zm14.65,11.863a2.439,2.439,0,0,1-.73,3.355l-29.94,19.224a2.425,2.425,0,1,1-2.61-4.089l29.94-19.224A2.409,2.409,0,0,1,2875.12,314.88ZM2650.81,718.068a2.414,2.414,0,0,1-1.92.32l-28.69-7.362-8.88,20.87a2.447,2.447,0,0,1-.9,1.079,2.364,2.364,0,0,1-.88.354,2.41,2.41,0,0,1-2.17-.686l-22.64-23.183-37.46,10.658a2.4,2.4,0,0,1-2.71-1.063,2.436,2.436,0,0,1,.27-2.917l87.67-96.26v0a2.322,2.322,0,0,1,.26-0.247l0.03-.019a2.313,2.313,0,0,1,.29-0.2l0.03-.012a2.143,2.143,0,0,1,.32-0.154,0.045,0.045,0,0,0,.02-0.006,2.556,2.556,0,0,1,.36-0.1l0.01,0a2.409,2.409,0,0,1,1.14.051l0.03,0.008a2.027,2.027,0,0,1,.32.126,0.193,0.193,0,0,1,.05.025,2,2,0,0,1,.25.137c0.01,0.011.03,0.022,0.04,0.032s0.03,0.023.05,0.035a2.6,2.6,0,0,1,.26.219,0.243,0.243,0,0,1,.02.014,2.964,2.964,0,0,1,.23.269s0.01,0.007.01,0.011a3.272,3.272,0,0,1,.19.3c0.01,0.013.01,0.027,0.02,0.041,0.05,0.1.1,0.206,0.14,0.313,0,0.018.01,0.036,0.01,0.054a1.985,1.985,0,0,1,.09.336v0.026l15.2,94.521a2.44,2.44,0,0,1-.75,2.182A2.529,2.529,0,0,1,2650.81,718.068Zm-42.52,8.58,7.17-16.839-16.8-4.312-8.63,2.454Zm24.91-96.627-11.49,26.273-5.09,11.629a2.421,2.421,0,1,1-4.43-1.956l13.98-31.94-72.03,79.084,42.74-12.158,9.61-21.978a2.4,2.4,0,0,1,2.69-1.387l0.05,0.01a2.413,2.413,0,0,1,1.7,3.323l-8.94,20.412,44.52,11.428ZM2479.25,297.586a2.233,2.233,0,0,1-.09.358v0.012a2.408,2.408,0,0,1-.61.968,0.037,0.037,0,0,1-.02.022,1.842,1.842,0,0,1-.27.219c-0.01.012-.03,0.023-0.04,0.033-0.08.052-.16,0.1-0.24,0.145a0.239,0.239,0,0,0-.05.023c-0.02.009-.04,0.016-0.06,0.024a2.017,2.017,0,0,1-.32.123,0.038,0.038,0,0,1-.02,0,2.069,2.069,0,0,1-.35.074s-0.01,0-.01,0a2.488,2.488,0,0,1-.35.018h-0.05a2.454,2.454,0,0,1-.34-0.037l-0.06-.01a2.547,2.547,0,0,1-.33-0.093,0.041,0.041,0,0,1-.02-0.007l-89.9-33.037a2.458,2.458,0,0,1-1.53-1.727,1.7,1.7,0,0,1-.05-0.387,2.4,2.4,0,0,1,.66-1.831l20.54-21.385-13.82-17.96a2.447,2.447,0,0,1-.49-1.313,2.154,2.154,0,0,1,.12-0.937,2.408,2.408,0,0,1,1.67-1.557l31.36-8.374L2432.3,179h8.1l38.76,117.437v0.006a2.206,2.206,0,0,1,.09.351v0.028a2.183,2.183,0,0,1,.03.359v0.024a2.18,2.18,0,0,1-.03.361v0.02Zm-81.26-74.515,11.15,14.491,12.03-12.527,2.11-8.717Zm47.21,32.957a2.445,2.445,0,0,1,3.78.148l20.96,27.818L2436.45,182.52,2426.01,225.7l14.43,19.142a2.4,2.4,0,0,1-.11,3.017l-0.04.037a2.408,2.408,0,0,1-3.73-.146l-13.4-17.779-31.88,33.192,78.69,28.92L2452.72,269.2l-7.63-10.128A2.422,2.422,0,0,1,2445.2,256.028Zm-28.37-75.074L2415.36,179h5.78a2.42,2.42,0,0,1-.9,2.436A2.445,2.445,0,0,1,2416.83,180.954Zm-10.45,15.757L2392.52,179h6.16l11.53,14.735A2.425,2.425,0,1,1,2406.38,196.711Zm-10.68,14.51a2.437,2.437,0,0,1-3.43-.22l-12.84-14.552a2.423,2.423,0,0,1,3.64-3.2l12.85,14.552A2.411,2.411,0,0,1,2395.7,211.221Zm-12.99,26.253,7.79,10.328a2.424,2.424,0,1,1-3.88,2.908l-7.79-10.328A2.424,2.424,0,1,1,2382.71,237.474ZM2317.01,762h-5.46l9.98-19.312L2289.24,762h-49.98l19-.2,3.18-22.458a2.406,2.406,0,0,1,1.35-1.845,2.4,2.4,0,0,1,2.27.1l27.87,16.534,33.42-19.989a2.429,2.429,0,0,1,3.39,3.212Zm-51.29-18.373-2.56,18.121,17.34-.183,7.7-4.6Zm48.02-15.316a2.418,2.418,0,1,1-4.78-.735l1.93-12.8a2.423,2.423,0,1,1,4.79.735ZM2295.2,731.8a2.417,2.417,0,1,1-4.79-.65l4.7-35.3a2.422,2.422,0,1,1,4.8.649Zm-22.61,1.891a2.441,2.441,0,0,1-2.24-2.6l1.43-19.374a2.422,2.422,0,1,1,4.83.363l-1.43,19.374A2.42,2.42,0,0,1,2272.59,733.69Zm-29.76,21.918a2.418,2.418,0,1,1-4.78-.735l1.93-12.8a2.423,2.423,0,1,1,4.79.735Zm-228.44-110.06a0.11,0.11,0,0,1-.01.056,1.942,1.942,0,0,1-.09.332,0.028,0.028,0,0,0-.01.026l-34.1,89.457a2.44,2.44,0,0,1-1.74,1.512,2.375,2.375,0,0,1-.39.054,2.426,2.426,0,0,1-1.83-.683l-21.15-20.717-18.13,13.632a2.417,2.417,0,0,1-3.8-1.328l-8.01-31.4-37.77-9.5a2.41,2.41,0,0,1-1.82-2.278,2.437,2.437,0,0,1,1.69-2.389l124.05-39.531h0.01a2.666,2.666,0,0,1,.35-0.083l0.03,0a2.422,2.422,0,0,1,.36-0.026h0.02a2.451,2.451,0,0,1,.37.031l0.02,0a2.086,2.086,0,0,1,.35.089c0.01,0,.01,0,0.01,0a2.4,2.4,0,0,1,.97.615,0.039,0.039,0,0,0,.02.021,1.7,1.7,0,0,1,.21.271,0.154,0.154,0,0,1,.04.047,2.047,2.047,0,0,1,.14.241c0.01,0.016.01,0.033,0.02,0.05l0.03,0.053c0.04,0.106.08,0.213,0.11,0.322a0.019,0.019,0,0,1,.01.019c0.03,0.116.05,0.233,0.07,0.351v0.014a2.085,2.085,0,0,1,.02.352,0.079,0.079,0,0,0-.01.047A1.925,1.925,0,0,1,2014.39,645.548Zm-77.45,77.611,14.63-11-12.4-12.135-8.69-2.188Zm33.71-50.605,28.08-20.67-101.92,32.477L1939.9,695.2l19.32-14.224a2.4,2.4,0,0,1,3.02.14l0.03,0.033a2.409,2.409,0,0,1-.19,3.728l-17.94,13.211,32.84,32.155,29.85-78.308-23.1,17-10.22,7.526A2.421,2.421,0,1,1,1970.65,672.554Zm31.48-383v0a2.1,2.1,0,0,1-.06.356v0.028c-0.04.117-.07,0.23-0.12,0.34,0,0.008-.01.015-0.01,0.022a3.239,3.239,0,0,1-.17.32,0.016,0.016,0,0,0-.01.017,2.946,2.946,0,0,1-.22.293c-0.01,0-.01.006-0.01,0.009a2.439,2.439,0,0,1-.95.644l-0.03.011a2.288,2.288,0,0,1-.33.093l-0.06.011a2.5,2.5,0,0,1-.27.036h-0.12a2.419,2.419,0,0,1-.34-0.016,0.138,0.138,0,0,0-.02,0,2.41,2.41,0,0,1-.35-0.074l-0.02,0a2.777,2.777,0,0,1-.33-0.125,0.15,0.15,0,0,0-.04-0.019,2.208,2.208,0,0,1-.29-0.171,0.188,0.188,0,0,1-.05-0.032,2.451,2.451,0,0,1-.27-0.218c-0.01-.006-0.01-0.011-0.02-0.017L1929,224.685a2.428,2.428,0,0,1-.7-2.2,1.639,1.639,0,0,1,.1-0.377,2.413,2.413,0,0,1,1.34-1.409l27.41-11.327-5.44-22a2.393,2.393,0,0,1,.07-1.4,2.418,2.418,0,0,1,2.64-1.564l32.08,4.934L1994.38,179h6.11l-18.6,24.423,5.52,23.326a2.4,2.4,0,0,1-1.31,2.718l-0.05.02a2.411,2.411,0,0,1-3.36-1.634l-5.12-21.664-42.54,17.582,60.44,58.1-6.6-27.884-2.92-12.341a2.417,2.417,0,0,1,1.33-2.746,2.442,2.442,0,0,1,3.4,1.651l8.01,33.9L2007.77,179h4.88l-10.51,110.551C2002.13,289.552,2002.13,289.553,2002.13,289.554ZM1961.68,207.5l16.05-6.636,5.43-7.135-25.87-3.98Zm-25.91,2.989-2.98-12.588a2.424,2.424,0,1,1,4.72-1.1l2.98,12.589a2.408,2.408,0,0,1-1.8,2.911A2.436,2.436,0,0,1,1935.77,210.49Zm-40.23,490.055a2.431,2.431,0,0,1-.52,3.393l-10.43,7.682a2.42,2.42,0,1,1-2.86-3.9l10.42-7.682A2.422,2.422,0,0,1,1895.54,700.545Zm15.58,10.583a2.426,2.426,0,0,1-.46,3.4l-28.29,21.632a2.42,2.42,0,1,1-2.93-3.852l28.29-21.633A2.413,2.413,0,0,1,1911.12,711.128ZM1635.43,191.056c-0.02.113-.05,0.223-0.08,0.331a0.119,0.119,0,0,0-.02.054,3.443,3.443,0,0,1-.14.316c-0.01.008-.01,0.017-0.02,0.024l-46.37,84.095a2.434,2.434,0,0,1-2.34,1.254,2.414,2.414,0,0,1-1.71-.939l-18.08-23.6-19.9,10.977a2.42,2.42,0,0,1-3.58-1.858l-3.55-32.354-36.13-14.809a2.439,2.439,0,0,1,.53-4.658l128.61-21.68h0.01a2.3,2.3,0,0,1,.36-0.032,0.151,0.151,0,0,1,.03,0,2.421,2.421,0,0,1,.36.025l0.02,0a2.29,2.29,0,0,1,.35.082,0.041,0.041,0,0,1,.02.007,2.108,2.108,0,0,1,.34.139c0.01,0,.01,0,0.01.006a2.3,2.3,0,0,1,.87.748,0.043,0.043,0,0,1,.02.024,1.793,1.793,0,0,1,.18.3,0.109,0.109,0,0,1,.02.051,2.3,2.3,0,0,1,.11.26c0.01,0.017.01,0.035,0.02,0.053s0.01,0.037.01,0.056c0.03,0.112.06,0.224,0.08,0.337v0.02c0.01,0.12.02,0.239,0.02,0.358v0.015a2.074,2.074,0,0,1-.04.352A0.077,0.077,0,0,1,1635.43,191.056Zm-87.81,66.488,16.06-8.856-10.6-13.827-8.32-3.41Zm40.55-45.521,30.75-16.563-105.66,17.811,41.22,16.894,21.16-11.4a2.39,2.39,0,0,1,2.97.568l0.04,0.038a2.424,2.424,0,0,1-.71,3.679l-19.66,10.585,28.07,36.633,40.59-73.612-25.29,13.624-11.2,6.03a2.412,2.412,0,0,1-3-.574A2.438,2.438,0,0,1,1588.17,212.023Zm-78.45,17.158a2.436,2.436,0,0,1-.99,3.3l-11.42,6.157a2.431,2.431,0,1,1-2.29-4.288l11.42-6.157A2.414,2.414,0,0,1,1509.72,229.181Zm13.98,12.735a2.438,2.438,0,0,1-.94,3.315l-31.09,17.488a2.431,2.431,0,1,1-2.37-4.246l31.09-17.488A2.424,2.424,0,0,1,1523.7,241.916ZM1346.56,728.051a2.42,2.42,0,0,1-1.92.351l-28.79-6.91-8.56,21.007a2.4,2.4,0,0,1-.88,1.093,2.448,2.448,0,0,1-.87.368,2.4,2.4,0,0,1-2.18-.652l-23.01-22.824-37.28,11.246a2.425,2.425,0,0,1-2.74-1.019,2.454,2.454,0,0,1,.23-2.921l86.14-97.629,0.01,0v0a2.458,2.458,0,0,1,.26-0.251,0.037,0.037,0,0,1,.02-0.019,2.352,2.352,0,0,1,.29-0.207,0.034,0.034,0,0,0,.02-0.012,2.923,2.923,0,0,1,.33-0.159,0.159,0.159,0,0,1,.02-0.007,2.121,2.121,0,0,1,.35-0.107l0.01,0a2.446,2.446,0,0,1,1.15.033c0.01,0,.01,0,0.02.007a2.744,2.744,0,0,1,.33.121c0.02,0.008.03,0.016,0.05,0.024,0.08,0.04.17,0.084,0.25,0.134,0.01,0.01.03,0.021,0.04,0.031s0.03,0.023.05,0.034c0.09,0.066.18,0.137,0.27,0.214,0,0,.01.01,0.01,0.015a1.923,1.923,0,0,1,.24.265s0.01,0.007.01,0.011a1.888,1.888,0,0,1,.19.294l0.03,0.041a1.837,1.837,0,0,1,.13.312,0.112,0.112,0,0,1,.02.053,1.964,1.964,0,0,1,.09.334c0,0.009.01,0.018,0.01,0.026l16.69,94.27a2.432,2.432,0,0,1-.73,2.194A1.891,1.891,0,0,1,1346.56,728.051Zm-42.38,9.249,6.91-16.95-16.87-4.048-8.59,2.59Zm23.39-97.008-11.08,26.451-4.91,11.707a2.421,2.421,0,1,1-4.46-1.886l13.48-32.155-70.77,80.208,42.53-12.83,9.28-22.127a2.379,2.379,0,0,1,2.66-1.429l0.04,0.009a2.408,2.408,0,0,1,1.76,3.3l-8.62,20.551,44.7,10.725ZM1198.97,321a2.1,2.1,0,0,1-.09.351v0.019a2.072,2.072,0,0,1-.15.337,0.109,0.109,0,0,1-.01.011,2.393,2.393,0,0,1-.76.847l-0.03.017a2.308,2.308,0,0,1-.3.168,0.4,0.4,0,0,0-.05.024c-0.09.037-.17,0.072-0.26,0.1l-0.06.014a0.327,0.327,0,0,0-.05.014,2.686,2.686,0,0,1-.34.064l-0.02,0a2.406,2.406,0,0,1-.36.01h-0.01a2.291,2.291,0,0,1-.35-0.045l-0.05-.009a2.572,2.572,0,0,1-.33-0.1,0.341,0.341,0,0,0-.05-0.02,2.334,2.334,0,0,1-.31-0.15,0.034,0.034,0,0,1-.02-0.012l-82.52-48.55a2.437,2.437,0,0,1-1.19-1.974,1.7,1.7,0,0,1,.01-0.391,2.4,2.4,0,0,1,.97-1.685l23.96-17.4-10.41-20.15a2.393,2.393,0,0,1-.26-1.383,2.438,2.438,0,0,1,.29-0.9,2.4,2.4,0,0,1,1.91-1.237l32.3-2.662,15.67-35.653a2.4,2.4,0,0,1,2.55-1.415,2.44,2.44,0,0,1,2.07,2.071l18.27,128.909v0.007a2.192,2.192,0,0,1,.02.361v0.028a2.139,2.139,0,0,1-.03.359C1198.98,320.987,1198.97,321,1198.97,321Zm-66.81-87.494,8.4,16.258,14.04-10.195,3.61-8.21Zm44.95-33.088-17.87,40.673,10.8,21.422a2.393,2.393,0,0,1-.65,2.952l-0.03.031a2.415,2.415,0,0,1-3.65-.81l-10.03-19.9L1118.5,271.8l72.22,42.5-12.91-25.609-5.71-11.335a2.408,2.408,0,0,1,.65-2.982,2.432,2.432,0,0,1,3.68.818l15.69,31.132Zm-19-5.037-5.84-11.56a2.422,2.422,0,1,1,4.33-2.172l5.84,11.56A2.422,2.422,0,1,1,1158.11,195.383Zm-13.05,13.657L1129.22,179h5.47l14.65,27.791A2.417,2.417,0,1,1,1145.06,209.04ZM1132,221.429a2.431,2.431,0,0,1-3.33-.827l-10.05-16.621a2.418,2.418,0,1,1,4.14-2.5l10.06,16.621A2.42,2.42,0,0,1,1132,221.429Zm-12.63,38.356a2.434,2.434,0,0,1-3.26-1.081l-5.83-11.56a2.418,2.418,0,1,1,4.32-2.172l5.84,11.56A2.425,2.425,0,0,1,1119.37,259.785Zm-112.71,487.5a2.422,2.422,0,1,1-2.09-4.369l32.1-15.42a2.422,2.422,0,1,1,2.09,4.369Zm-10.684-16.934a2.421,2.421,0,1,1-2.344-4.237l16.988-9.429a2.42,2.42,0,1,1,2.34,4.236ZM984.606,762l-12.591-6.1L958.691,762H947.484a2.406,2.406,0,0,1,.71-0.514l20.257-9.281-25.605-38.167L912.158,762h-5.742l34.348-53.686a2.435,2.435,0,0,1,2.409-1.1,2.408,2.408,0,0,1,1.646,1.04l16.5,24.59,20.525-9.654a2.413,2.413,0,0,1,3.445,2.072l1.454,32.372,9,4.364H984.606Zm-4-32.878-16.561,7.79,9.664,14.4,8.07,3.912Zm-22.571-12.573a2.421,2.421,0,1,1-2.009-4.4l11.77-5.4a2.421,2.421,0,1,1,2.009,4.4ZM774.263,575.4a2.422,2.422,0,0,1-.078.337,0.2,0.2,0,0,1-.006.026l-28.965,91.248a2.434,2.434,0,0,1-2.042,1.685,2.407,2.407,0,0,1-1.86-.579l-22.3-19.482L701.686,663.27a2.414,2.414,0,0,1-3.864-1.11l-9.783-30.893-38.247-7.34a2.414,2.414,0,0,1-1.948-2.171,2.442,2.442,0,0,1,1.559-2.482l121.608-46.506h0.006a2.289,2.289,0,0,1,.347-0.1l0.028-.007a2.28,2.28,0,0,1,.357-0.046l0.024,0a2.429,2.429,0,0,1,.362.011l0.02,0a2.323,2.323,0,0,1,.361.069l0.013,0a2.406,2.406,0,0,1,1,.56l0.023,0.02a2.362,2.362,0,0,1,.231.257c0.012,0.015.024,0.03,0.035,0.046a2.464,2.464,0,0,1,.155.232c0.01,0.016.017,0.033,0.026,0.049s0.017,0.034.027,0.051a2.421,2.421,0,0,1,.137.315l0.006,0.019a2.479,2.479,0,0,1,.09.346,0.08,0.08,0,0,0,0,.015,2.576,2.576,0,0,1,.034.35c0,0.015,0,.031,0,0.047a2.417,2.417,0,0,1-.022.34C774.268,575.36,774.266,575.379,774.263,575.4Zm-72.918,81.825,13.98-11.811L702.262,634l-8.807-1.691Zm30.788-52.436,26.857-22.231-99.908,38.208,43.631,8.374,18.481-15.3a2.393,2.393,0,0,1,3.021-.031l0.038,0.031a2.408,2.408,0,0,1,.022,3.733l-17.164,14.207,34.611,30.24,25.356-79.875-22.093,18.287-9.778,8.094A2.42,2.42,0,1,1,732.133,604.786ZM730.91,357.291a0,0,0,0,0,0,0v0a2.451,2.451,0,0,1-.071.355c0,0.008,0,.018-0.008.027a2.438,2.438,0,0,1-.125.338,0.2,0.2,0,0,0-.01.021,2.383,2.383,0,0,1-.179.316l-0.011.016a2.38,2.38,0,0,1-.23.288l-0.009.009a2.411,2.411,0,0,1-.96.619l-0.028.01a2.2,2.2,0,0,1-.336.084,0.548,0.548,0,0,1-.056.01,2.541,2.541,0,0,1-.278.029c-0.019,0-.037,0-0.055,0h-0.058a2.588,2.588,0,0,1-.343-0.025l-0.019,0a2.383,2.383,0,0,1-.348-0.083l-0.015,0a2.494,2.494,0,0,1-.325-0.134l-0.042-.021a2.46,2.46,0,0,1-.291-0.178l-0.046-.033a2.445,2.445,0,0,1-.261-0.226c-0.007-.007-0.014-0.011-0.021-0.017l-67.134-68.252a2.437,2.437,0,0,1-.647-2.217,2.353,2.353,0,0,1,.112-0.375,2.408,2.408,0,0,1,1.381-1.374l27.645-10.609-4.844-22.16a2.42,2.42,0,0,1,.11-1.4,2.41,2.41,0,0,1,2.677-1.5l31.884,5.788,24.363-30.383a2.414,2.414,0,0,1,2.83-.707,2.438,2.438,0,0,1,1.465,2.537ZM688.8,256.232l3.909,17.88,16.195-6.215,5.61-7Zm24.191,14.335,4.887,23.488a2.393,2.393,0,0,1-1.384,2.685l-0.045.019a2.407,2.407,0,0,1-3.311-1.725L708.6,273.22l-42.909,16.467,58.766,59.745-5.842-28.078-2.586-12.428a2.42,2.42,0,1,1,4.742-.969l7.1,34.133,12.912-106.183ZM726.6,228.011a2.43,2.43,0,0,1-2.866-1.888l-2.644-12.676a2.421,2.421,0,1,1,4.742-.978l2.644,12.676A2.419,2.419,0,0,1,726.6,228.011Zm-19.01,7.925L699.7,201.21a2.421,2.421,0,1,1,4.724-1.063l7.888,34.726A2.421,2.421,0,1,1,707.591,235.936Zm-18.816,6.928-5.412-18.657a2.42,2.42,0,1,1,4.651-1.342l5.413,18.657A2.421,2.421,0,1,1,688.775,242.864ZM669.646,278.3a2.431,2.431,0,0,1-2.867-1.887l-2.643-12.676a2.421,2.421,0,1,1,4.742-.979l2.644,12.676A2.419,2.419,0,0,1,669.646,278.3ZM658.73,636.994a2.429,2.429,0,0,1-.329,3.416l-9.971,8.262a2.421,2.421,0,1,1-3.081-3.736l9.971-8.261A2.417,2.417,0,0,1,658.73,636.994Zm16.159,9.681a2.43,2.43,0,0,1-.268,3.421l-27.015,23.2a2.421,2.421,0,1,1-3.147-3.68l27.015-23.2A2.417,2.417,0,0,1,674.889,646.675ZM457.19,294.2a0.008,0.008,0,0,0,0,0l0,0a2.346,2.346,0,0,1-.3.2c-0.008,0-.016.01-0.025,0.014a2.418,2.418,0,0,1-.328.15l-0.022.008a2.261,2.261,0,0,1-.349.1l-0.02,0a2.37,2.37,0,0,1-.366.041h-0.012a2.4,2.4,0,0,1-1.117-.242l-0.027-.012a2.381,2.381,0,0,1-.3-0.178l-0.047-.033a2.374,2.374,0,0,1-.216-0.176c-0.014-.013-0.026-0.027-0.039-0.039L453.977,294a2.385,2.385,0,0,1-.224-0.26l-0.011-.016a2.3,2.3,0,0,1-.188-0.305l-0.008-.013a2.545,2.545,0,0,1-.135-0.324l-0.015-.045a2.381,2.381,0,0,1-.08-0.331l-0.009-.056a2.491,2.491,0,0,1-.025-0.345c0-.009,0-0.018,0-0.026l0.79-95.732a2.436,2.436,0,0,1,1.11-2.026,2.386,2.386,0,0,1,.344-0.186,2.411,2.411,0,0,1,1.948,0l27.05,12.046,12.244-19.094a2.438,2.438,0,0,1,1.069-.914,2.408,2.408,0,0,1,2.95.836l18.453,26.638,38.712-4.256a2.412,2.412,0,0,1,2.5,1.5,2.441,2.441,0,0,1-.758,2.83Zm41.684-101.233L489,208.372l15.847,7.057,8.914-.98Zm6.969,27.241-13.152,20.064a2.393,2.393,0,0,1-2.878.92l-0.045-.018a2.407,2.407,0,0,1-1.121-3.56l12.215-18.635-41.985-18.7-0.693,83.8L473.908,260.1l6.959-10.616a2.42,2.42,0,1,1,4.039,2.668L465.792,281.3,550,215.352Zm43.067-21.169a2.421,2.421,0,1,1-4.045-2.662l7.094-10.833A2.421,2.421,0,1,1,556,188.205Zm-21.646-3.789a2.43,2.43,0,0,1-.752-3.349l8.124-12.9h5.722L530.6,194.489A2.418,2.418,0,0,1,527.264,195.249Zm-18.008-8.458a2.428,2.428,0,0,1-.948-3.3L510.781,179h5.525l-3.76,6.834A2.42,2.42,0,0,1,509.256,186.791Zm-36.182,7.536a2.421,2.421,0,1,1-4.045-2.661l7.094-10.833a2.421,2.421,0,1,1,4.045,2.661Zm-24.13,544.767a2.411,2.411,0,0,1-1.847.616l-29.479-2.8-5.521,22a2.411,2.411,0,0,1-3.784,1.355L382.333,740.9,347,757.27a2.413,2.413,0,0,1-2.849-.625,2.442,2.442,0,0,1-.183-2.925l71.575-108.758,0,0,0,0a2.4,2.4,0,0,1,.222-0.286l0.019-.021a2.344,2.344,0,0,1,.263-0.246l0.018-.015a2.478,2.478,0,0,1,.3-0.2l0.018-.009a2.458,2.458,0,0,1,.333-0.156,0.042,0.042,0,0,0,.012,0,2.429,2.429,0,0,1,1.136-.127l0.029,0a2.5,2.5,0,0,1,.339.074l0.055,0.017a2.435,2.435,0,0,1,.261.1c0.017,0.007.032,0.017,0.049,0.024l0.052,0.027a2.411,2.411,0,0,1,.3.175l0.016,0.012a2.335,2.335,0,0,1,.275.229l0.011,0.009a2.418,2.418,0,0,1,.232.265l0.029,0.037a2.634,2.634,0,0,1,.181.289l0.026,0.05a2.473,2.473,0,0,1,.134.319c0,0.009.008,0.016,0.011,0.025l29.76,90.992a2.44,2.44,0,0,1-.407,2.273A2.358,2.358,0,0,1,448.944,739.094ZM408.29,754.2l4.454-17.752-17.269-1.639-8.138,3.77Zm9.531-99.331-7.26,27.745-3.213,12.28a2.42,2.42,0,1,1-4.678-1.241l8.825-33.729-58.8,89.352L393,730.6l6.073-23.21a2.393,2.393,0,0,1,2.434-1.789l0.049,0a2.407,2.407,0,0,1,2.2,3.017l-5.64,21.557,45.755,4.342ZM131.944,572.094a2.411,2.411,0,0,1-1.847.616l-29.479-2.8-5.521,22a2.412,2.412,0,0,1-3.785,1.355L65.333,573.9,30,590.27a2.412,2.412,0,0,1-2.849-.625,2.441,2.441,0,0,1-.184-2.925L98.539,477.962l0,0,0,0a2.449,2.449,0,0,1,.222-0.286l0.019-.021a2.353,2.353,0,0,1,.263-0.246l0.018-.015a2.414,2.414,0,0,1,.3-0.2l0.018-.009a2.44,2.44,0,0,1,.333-0.156l0.012,0a2.426,2.426,0,0,1,1.136-.127l0.029,0a2.5,2.5,0,0,1,.339.074l0.055,0.017a2.435,2.435,0,0,1,.261.1c0.017,0.007.032,0.017,0.049,0.024l0.052,0.027a2.411,2.411,0,0,1,.3.175l0.016,0.012a2.335,2.335,0,0,1,.275.229l0.011,0.009a2.418,2.418,0,0,1,.232.265l0.029,0.037a2.634,2.634,0,0,1,.181.289l0.027,0.05a2.617,2.617,0,0,1,.133.319c0,0.009.008,0.016,0.011,0.025l29.76,90.992a2.44,2.44,0,0,1-.407,2.273A2.358,2.358,0,0,1,131.944,572.094ZM91.29,587.2l4.454-17.752-17.269-1.639-8.137,3.77Zm9.531-99.331-7.26,27.745L90.348,527.9a2.42,2.42,0,1,1-4.678-1.241l8.825-33.729-58.8,89.352L76,563.6l6.073-23.21a2.393,2.393,0,0,1,2.434-1.789l0.049,0a2.407,2.407,0,0,1,2.2,3.017l-5.64,21.557,45.755,4.342ZM48.758,222.089a2.449,2.449,0,0,1-.076.333l-0.017.054a2.469,2.469,0,0,1-.131.32c0,0.008-.006.017-0.01,0.025l-43.3,85.384a2.432,2.432,0,0,1-2.287,1.334,2.409,2.409,0,0,1-1.742-.871L-4,302.381v-7.628l6.585,7.965,37.9-74.742L15.734,242.462,4.779,248.873a2.42,2.42,0,1,1-2.431-4.185l30.09-17.61L-4,234.591v-4.95l49.879-10.284h0.007a2.324,2.324,0,0,1,.359-0.045l0.029,0a2.271,2.271,0,0,1,.36.012l0.024,0a2.365,2.365,0,0,1,.356.069l0.019,0a2.445,2.445,0,0,1,.346.126l0.011,0.006a2.4,2.4,0,0,1,.892.713l0.019,0.023a2.377,2.377,0,0,1,.187.291l0.027,0.051a2.5,2.5,0,0,1,.115.254c0.007,0.018.011,0.035,0.017,0.052s0.012,0.037.018,0.056a2.458,2.458,0,0,1,.085.332l0,0.02a2.407,2.407,0,0,1,.033.356s0,0.01,0,.015a2.416,2.416,0,0,1-.023.351C48.762,222.058,48.76,222.074,48.758,222.089ZM1630.83,678.877l0.01,0a1.867,1.867,0,0,1,.19-0.307c0-.007.01-0.016,0.01-0.023a2.74,2.74,0,0,1,.24-0.273,0.035,0.035,0,0,1,.02-0.017,2.373,2.373,0,0,1,.27-0.233c0.01,0,.01-0.008.02-0.012a3.029,3.029,0,0,1,.31-0.189l0.02-.006a2.38,2.38,0,0,1,1.11-.245h0.03a2.448,2.448,0,0,1,.35.038c0.01,0,.03.006,0.05,0.01a2.444,2.444,0,0,1,.27.071,0.21,0.21,0,0,1,.05.019l0.06,0.021a2.3,2.3,0,0,1,.31.143c0.01,0,.01.007,0.02,0.01,0.1,0.06.2,0.126,0.3,0.2,0,0,0,0,.01.008a2.668,2.668,0,0,1,.26.239l0.03,0.034c0.07,0.085.14,0.174,0.21,0.268l0.03,0.048a3.17,3.17,0,0,1,.17.3c0,0.009.01,0.016,0.01,0.024l37.19,83h-5.3l-32.94-73.506-4.31,28.354-1.9,12.55a2.419,2.419,0,1,1-4.78-.743l5.23-34.469L1593.34,762h-5.45l42.94-83.12v0Zm-9.82,63.816a2.39,2.39,0,0,1,2.24-2.034l0.04,0a2.412,2.412,0,0,1,2.51,2.77L1622.97,762h-4.89ZM380.653,761.085a2.4,2.4,0,0,1,1.359.915h-3.877A2.415,2.415,0,0,1,380.653,761.085Zm-340.27-148.2a2.431,2.431,0,0,1-1.728-2.966l3.272-12.529a2.421,2.421,0,1,1,4.682,1.234l-3.272,12.529A2.418,2.418,0,0,1,40.383,612.887Zm13.741,20.527a2.43,2.43,0,0,1-1.78-2.934l8.385-34.61a2.421,2.421,0,1,1,4.7,1.15l-8.385,34.609A2.418,2.418,0,0,1,54.124,633.414ZM79.1,620.259a2.429,2.429,0,0,1-1.95-2.824L80.6,598.318a2.421,2.421,0,1,1,4.763.868L81.914,618.3A2.42,2.42,0,0,1,79.1,620.259Zm34.667-27.075a2.431,2.431,0,0,1-1.728-2.966l3.272-12.529a2.421,2.421,0,1,1,4.682,1.234l-3.272,12.529A2.418,2.418,0,0,1,113.767,593.184Zm317,167a2.431,2.431,0,0,1-1.728-2.966l3.272-12.529a2.421,2.421,0,1,1,4.682,1.234l-3.272,12.529A2.418,2.418,0,0,1,430.767,760.184Zm241.382-83.241a2.429,2.429,0,0,1,.065-3.431l13.965-13.5a2.42,2.42,0,1,1,3.36,3.485L675.574,677A2.419,2.419,0,0,1,672.149,676.943ZM716.1,675.2a2.433,2.433,0,0,1,.329-3.417l9.972-8.261a2.421,2.421,0,1,1,3.081,3.735l-9.971,8.262A2.419,2.419,0,0,1,716.1,675.2Zm300.43,84.488a2.442,2.442,0,0,1,1.2-3.215l11.77-5.4a2.421,2.421,0,1,1,2.01,4.4l-11.77,5.4A2.421,2.421,0,0,1,1016.53,759.69Zm233.65-4.109a2.425,2.425,0,0,1-1.3-3.179l5-11.945a2.42,2.42,0,1,1,4.46,1.879l-5,11.945A2.406,2.406,0,0,1,1250.18,755.581Zm22.53-13.991a2.423,2.423,0,1,1,4.5,1.8L1269.8,762h-5.21Zm19.33,5.216a2.424,2.424,0,1,1,4.6,1.528L1292.11,762h-5.1Zm33.56-.427a2.442,2.442,0,0,1-1.3-3.179l5-11.945a2.424,2.424,0,1,1,4.47,1.879l-5,11.945A2.421,2.421,0,0,1,1325.6,746.379Zm189.46-475.207a2.444,2.444,0,0,1,.74-3.364l16.37-10.527a2.432,2.432,0,1,1,2.62,4.1L1518.42,271.9A2.43,2.43,0,0,1,1515.06,271.172Zm43.53,7a2.445,2.445,0,0,1,.99-3.3l11.42-6.157a2.433,2.433,0,0,1,2.3,4.288l-11.42,6.157A2.421,2.421,0,0,1,1558.59,278.171Zm348.08,463.021a2.436,2.436,0,0,1,.26-3.422l14.71-12.69a2.422,2.422,0,1,1,3.16,3.671l-14.71,12.69A2.423,2.423,0,0,1,1906.67,741.192Zm43.98,0.756a2.431,2.431,0,0,1,.52-3.393l10.43-7.682a2.42,2.42,0,1,1,2.86,3.9l-10.42,7.682A2.422,2.422,0,0,1,1950.65,741.948Zm603.35,2.13a2.43,2.43,0,0,1-1.24-3.2l5.19-11.865a2.42,2.42,0,1,1,4.43,1.949l-5.19,11.865A2.416,2.416,0,0,1,2554,744.078Zm22.76-13.635a2.418,2.418,0,1,1,4.46,1.87L2568.87,762h-5.25ZM2591.1,757.4a2.425,2.425,0,0,1-1.49-3.093l6.39-18.344a2.421,2.421,0,1,1,4.57,1.6l-6.39,18.345A2.416,2.416,0,0,1,2591.1,757.4Zm38.46-21.335a2.43,2.43,0,0,1-1.24-3.2L2633.5,721a2.424,2.424,0,1,1,4.44,1.949l-5.19,11.865A2.419,2.419,0,0,1,2629.56,736.064ZM2868.23,344.51a2.442,2.442,0,0,1,.54-3.393l15.69-11.435a2.415,2.415,0,0,1,3.38.534,2.442,2.442,0,0,1-.54,3.393l-15.68,11.435A2.424,2.424,0,0,1,2868.23,344.51Zm95.95,408.307,6.77,9.183h-6.01l-4.66-6.319A2.419,2.419,0,1,1,2964.18,752.817Zm6.74-12.711a2.42,2.42,0,1,1,3.85-2.933L2993.76,762h-6.09Zm27.1,0.8L2985.33,726.2a2.421,2.421,0,1,1,3.67-3.157l12.69,14.709A2.421,2.421,0,1,1,2998.02,740.9ZM3209.69,608.92a2.431,2.431,0,0,1-.05,3.431l-13.89,13.582a2.421,2.421,0,1,1-3.38-3.467l13.89-13.581A2.425,2.425,0,0,1,3209.69,608.92Zm-44.65-11.462a2.425,2.425,0,0,1,.31-3.418l9.92-8.317a2.424,2.424,0,1,1,3.11,3.718l-9.93,8.317A2.416,2.416,0,0,1,3165.04,597.458Zm29.86-1.844a2.437,2.437,0,0,1-.25,3.423l-26.89,23.352a2.418,2.418,0,1,1-3.16-3.662l26.88-23.352A2.423,2.423,0,0,1,3194.9,595.614Zm41.37,28.3a2.425,2.425,0,0,1,.31-3.418l9.92-8.317a2.42,2.42,0,1,1,3.1,3.718l-9.92,8.317A2.415,2.415,0,0,1,3236.27,623.912Zm133.18-337.021,8.66,9.647a2.421,2.421,0,0,1-.2,3.42,2.447,2.447,0,0,1-3.44-.2l-8.65-9.647a2.412,2.412,0,0,1,.19-3.42A2.446,2.446,0,0,1,3369.45,286.891Zm80.69,399.776a2.422,2.422,0,0,1,3.33.806l10.16,16.556a2.421,2.421,0,1,1-4.13,2.527L3449.34,690A2.424,2.424,0,0,1,3450.14,686.667Zm-2.95,58.07-5.91-11.522a2.42,2.42,0,1,1,4.31-2.2l5.91,11.523A2.419,2.419,0,1,1,3447.19,744.737Zm60.42,16.106L3508.2,762h-5.17A2.418,2.418,0,0,1,3507.61,760.843ZM3630.04,597.48a2.433,2.433,0,0,1-1.56-3.058l3.97-12.325a2.423,2.423,0,1,1,4.61,1.494l-3.97,12.326A2.421,2.421,0,0,1,3630.04,597.48Zm12.57,21.267a2.441,2.441,0,0,1-1.62-3.03l10.32-34.085a2.42,2.42,0,1,1,4.63,1.412l-10.31,34.085A2.421,2.421,0,0,1,3642.61,618.747Zm25.67-11.733a2.431,2.431,0,0,1-1.79-2.928l4.52-18.893a2.422,2.422,0,1,1,4.71,1.134l-4.52,18.893A2.42,2.42,0,0,1,3668.28,607.014Zm36.13-25.086a2.434,2.434,0,0,1-1.56-3.058l3.97-12.325a2.423,2.423,0,1,1,4.61,1.494l-3.97,12.326A2.417,2.417,0,0,1,3704.41,581.928Zm66.68-252.4a2.451,2.451,0,0,1,.82-3.345l16.62-10.1a2.416,2.416,0,0,1,3.33.82,2.445,2.445,0,0,1-.83,3.345l-16.62,10.1A2.407,2.407,0,0,1,3771.09,329.524Z" transform="translate(0 -179)"/>
</svg>
