<?xml version="1.0" encoding="utf-8"?>
<!-- Generator: Adobe Illustrator 16.0.0, SVG Export Plug-In . SVG Version: 6.00 Build 0)  -->
<!DOCTYPE svg PUBLIC "-//W3C//DTD SVG 1.1//EN" "http://www.w3.org/Graphics/SVG/1.1/DTD/svg11.dtd">
<svg version="1.1" id="Layer_1" xmlns="http://www.w3.org/2000/svg" xmlns:xlink="http://www.w3.org/1999/xlink" x="0px" y="0px"
	 width="960px" height="160.378px" viewBox="0 0 960 160.378" enable-background="new 0 0 960 160.378" xml:space="preserve">
<rect x="0.127" y="-0.506" fill="#56DAF3" width="958.863" height="160.884"/>
<path fill="none" stroke="#FFFFFF" stroke-width="1.5" stroke-linecap="square" stroke-miterlimit="10" d="M272.848,18.689
	l-6.622,19.755c-0.144,0.428-0.609,0.657-1.04,0.513l-34.482-11.559c-0.433-0.145-0.665-0.608-0.522-1.036l6.364-18.981
	c0.144-0.428,0.609-0.658,1.041-0.514l30.217,10.129"/>
<path fill="none" stroke="#FFFFFF" stroke-width="1.5" stroke-linecap="square" stroke-miterlimit="10" d="M220.09,27.602
	l8.799-26.25c0.194-0.576,0.818-0.887,1.393-0.693l46.455,15.573c0.577,0.193,0.886,0.817,0.694,1.394l-8.451,25.206
	c-0.193,0.576-0.816,0.886-1.393,0.693l-42.51-14.25"/>
<path fill="#FFFFFF" stroke="#FFFFFF" stroke-width="1.5" stroke-miterlimit="10" d="M228.403,17.047
	c-0.912-0.306-1.404-1.294-1.098-2.208c0.305-0.913,1.293-1.404,2.207-1.099c0.913,0.307,1.404,1.294,1.099,2.207
	C230.304,16.86,229.315,17.352,228.403,17.047"/>
<path fill="none" stroke="#FFFFFF" stroke-width="1.5" stroke-linecap="round" stroke-linejoin="round" stroke-miterlimit="10" d="
	M251.175,43.015c1.035,2.159,2.878,3.758,5.155,4.521c2.279,0.764,4.712,0.597,6.84-0.5"/>
<path fill="none" stroke="#FFFFFF" stroke-width="1.5" stroke-linecap="round" stroke-linejoin="round" stroke-miterlimit="10" d="
	M247.576,45.428c1.576,3.166,4.208,5.34,7.321,6.384c3.021,1.013,6.526,0.895,9.692-0.682"/>
<path fill="none" stroke="#FFFFFF" stroke-width="1.5" stroke-linecap="round" stroke-linejoin="round" stroke-miterlimit="10" d="
	M244.005,47.902c1.963,3.864,5.37,6.815,9.46,8.187c4.137,1.387,8.495,1.039,12.482-0.831"/>
<path fill="none" stroke="#FFFFFF" stroke-width="1.5" stroke-linecap="square" stroke-miterlimit="10" d="M202.127,134.096
	l20.08,5.557c0.436,0.121,0.688,0.574,0.567,1.011l-9.699,35.053c-0.121,0.438-0.572,0.697-1.006,0.578l-19.294-5.338
	c-0.434-0.123-0.689-0.576-0.568-1.015l8.5-30.717"/>
<path fill="none" stroke="#FFFFFF" stroke-width="1.5" stroke-linecap="square" stroke-miterlimit="10" d="M213.847,186.3
	l-26.683-7.383c-0.584-0.162-0.929-0.77-0.766-1.354l13.066-47.223c0.162-0.586,0.768-0.93,1.354-0.766l25.622,7.09
	c0.585,0.162,0.929,0.768,0.767,1.354L215.25,181.23"/>
<path fill="#FFFFFF" stroke="#FFFFFF" stroke-width="1.5" stroke-miterlimit="10" d="M202.864,178.563
	c-0.257,0.931-1.217,1.474-2.146,1.215c-0.929-0.258-1.474-1.215-1.215-2.146c0.258-0.928,1.217-1.473,2.144-1.213
	C202.575,176.677,203.119,177.637,202.864,178.563"/>
<path fill="none" stroke="#FFFFFF" stroke-width="1.5" stroke-linecap="round" stroke-linejoin="round" stroke-miterlimit="10" d="
	M227.576,154.436c2.101-1.147,3.598-3.074,4.238-5.392c0.642-2.313,0.343-4.735-0.865-6.801"/>
<path fill="none" stroke="#FFFFFF" stroke-width="1.5" stroke-linecap="round" stroke-linejoin="round" stroke-miterlimit="10" d="
	M230.179,157.9c3.077-1.742,5.108-4.486,5.983-7.652c0.851-3.069,0.546-6.563-1.199-9.641"/>
<path fill="none" stroke="#FFFFFF" stroke-width="1.5" stroke-linecap="round" stroke-linejoin="round" stroke-miterlimit="10" d="
	M232.84,161.335c3.753-2.168,6.518-5.729,7.669-9.885c1.164-4.205,0.582-8.539-1.498-12.422"/>
<path fill="none" stroke="#FFFFFF" stroke-width="1.5" stroke-linecap="square" stroke-miterlimit="10" d="M294.136,137.811
	l16.164-3.858c0.35-0.084,0.702,0.135,0.787,0.485l6.735,28.215c0.084,0.354-0.13,0.705-0.48,0.791l-15.528,3.709
	c-0.35,0.084-0.703-0.135-0.789-0.487l-5.903-24.724"/>
<path fill="none" stroke="#FFFFFF" stroke-width="1.5" stroke-linecap="square" stroke-miterlimit="10" d="M322.439,169.748
	l-21.477,5.127c-0.471,0.113-0.943-0.18-1.058-0.647l-9.076-38.008c-0.112-0.472,0.178-0.945,0.65-1.06l20.624-4.926
	c0.471-0.111,0.943,0.18,1.057,0.652l8.306,34.777"/>
<path fill="#FFFFFF" stroke="#FFFFFF" stroke-width="1.5" stroke-miterlimit="10" d="M311.789,168.582
	c0.178,0.744-0.283,1.494-1.029,1.674c-0.747,0.179-1.498-0.282-1.675-1.028c-0.179-0.746,0.283-1.498,1.029-1.677
	C310.859,167.373,311.609,167.832,311.789,168.582"/>
<path fill="none" stroke="#FFFFFF" stroke-width="1.5" stroke-linecap="round" stroke-linejoin="round" stroke-miterlimit="10" d="
	M319.746,142.207c1.023-1.613,1.327-3.535,0.883-5.397c-0.445-1.863-1.587-3.44-3.227-4.416"/>
<path fill="none" stroke="#FFFFFF" stroke-width="1.5" stroke-linecap="round" stroke-linejoin="round" stroke-miterlimit="10" d="
	M322.898,143.625c1.476-2.403,1.836-5.104,1.229-7.649c-0.591-2.474-2.15-4.795-4.553-6.271"/>
<path fill="none" stroke="#FFFFFF" stroke-width="1.5" stroke-linecap="round" stroke-linejoin="round" stroke-miterlimit="10" d="
	M326.08,144.994c1.786-2.961,2.345-6.512,1.545-9.854c-0.808-3.386-2.883-6.188-5.831-8.097"/>
<path fill="none" stroke="#FFFFFF" stroke-width="1.5" stroke-linecap="square" stroke-miterlimit="10" d="M388.355,162.914
	l18.651-9.285c0.403-0.201,0.896-0.035,1.098,0.371l16.208,32.558c0.202,0.405,0.04,0.899-0.363,1.102l-17.92,8.924
	c-0.403,0.199-0.896,0.031-1.1-0.373l-14.204-28.527"/>
<path fill="none" stroke="#FFFFFF" stroke-width="1.5" stroke-linecap="square" stroke-miterlimit="10" d="M431.962,193.919
	l-24.783,12.338c-0.543,0.271-1.206,0.05-1.477-0.493l-21.836-43.859c-0.271-0.545-0.05-1.205,0.494-1.478l23.799-11.85
	c0.544-0.271,1.204-0.05,1.476,0.495l19.982,40.136"/>
<path fill="#FFFFFF" stroke="#FFFFFF" stroke-width="1.5" stroke-miterlimit="10" d="M418.62,195.502
	c0.431,0.859,0.078,1.904-0.784,2.336c-0.862,0.432-1.908,0.078-2.337-0.783c-0.43-0.861-0.078-1.908,0.784-2.338
	C417.146,194.291,418.192,194.641,418.62,195.502"/>
<path fill="none" stroke="#FFFFFF" stroke-width="1.5" stroke-linecap="round" stroke-linejoin="round" stroke-miterlimit="10" d="
	M420.879,161.039c0.794-2.259,0.622-4.69-0.449-6.845c-1.068-2.151-2.911-3.752-5.188-4.481"/>
<path fill="none" stroke="#FFFFFF" stroke-width="1.5" stroke-linecap="round" stroke-linejoin="round" stroke-miterlimit="10" d="
	M425.131,161.877c1.123-3.354,0.802-6.754-0.664-9.691c-1.418-2.854-3.979-5.248-7.333-6.371"/>
<path fill="none" stroke="#FFFFFF" stroke-width="1.5" stroke-linecap="round" stroke-linejoin="round" stroke-miterlimit="10" d="
	M429.406,162.651c1.344-4.119,1.021-8.614-0.901-12.479c-1.944-3.906-5.271-6.74-9.413-8.238"/>
<path fill="none" stroke="#FFFFFF" stroke-width="1.5" stroke-linecap="square" stroke-miterlimit="10" d="M385.481,54.874
	l-17.75-10.908c-0.385-0.236-0.503-0.742-0.265-1.129l19.041-30.985c0.238-0.387,0.742-0.509,1.126-0.273l17.056,10.481
	c0.385,0.236,0.504,0.743,0.266,1.13l-16.687,27.154"/>
<path fill="none" stroke="#FFFFFF" stroke-width="1.5" stroke-linecap="square" stroke-miterlimit="10" d="M388.702,1.466
	l23.588,14.495c0.517,0.317,0.679,0.996,0.361,1.513l-25.652,41.743c-0.318,0.52-0.998,0.679-1.514,0.363l-22.65-13.92
	c-0.519-0.317-0.68-0.995-0.362-1.514l23.474-38.197"/>
<path fill="#FFFFFF" stroke="#FFFFFF" stroke-width="1.5" stroke-miterlimit="10" d="M397.109,11.945
	c0.503-0.819,1.578-1.076,2.398-0.571c0.82,0.504,1.076,1.578,0.572,2.397c-0.503,0.82-1.577,1.077-2.398,0.573
	C396.862,13.84,396.605,12.766,397.109,11.945"/>
<path fill="none" stroke="#FFFFFF" stroke-width="1.5" stroke-linecap="round" stroke-linejoin="round" stroke-miterlimit="10" d="
	M366.673,28.274c-2.336,0.521-4.309,1.955-5.566,4.002c-1.259,2.047-1.646,4.457-1.057,6.776"/>
<path fill="none" stroke="#FFFFFF" stroke-width="1.5" stroke-linecap="round" stroke-linejoin="round" stroke-miterlimit="10" d="
	M365.135,24.222c-3.442,0.821-6.154,2.895-7.873,5.692c-1.668,2.715-2.345,6.156-1.522,9.597"/>
<path fill="none" stroke="#FFFFFF" stroke-width="1.5" stroke-linecap="round" stroke-linejoin="round" stroke-miterlimit="10" d="
	M363.529,20.185c-4.206,1.041-7.851,3.693-10.109,7.369c-2.284,3.717-2.927,8.042-2.006,12.348"/>
<path fill="none" stroke="#FFFFFF" stroke-width="1.5" stroke-linecap="square" stroke-miterlimit="10" d="M494.261,120.76
	l19.786,6.523c0.43,0.141,0.66,0.605,0.521,1.037l-11.39,34.539c-0.142,0.434-0.604,0.668-1.032,0.524l-19.013-6.269
	c-0.43-0.143-0.662-0.606-0.52-1.038l9.979-30.269"/>
<path fill="none" stroke="#FFFFFF" stroke-width="1.5" stroke-linecap="square" stroke-miterlimit="10" d="M503.435,173.473
	l-26.292-8.668c-0.576-0.189-0.891-0.814-0.699-1.389l15.343-46.531c0.188-0.578,0.813-0.895,1.389-0.701l25.248,8.324
	c0.577,0.189,0.892,0.813,0.7,1.389l-14.037,42.582"/>
<path fill="#FFFFFF" stroke="#FFFFFF" stroke-width="1.5" stroke-miterlimit="10" d="M492.839,165.213
	c-0.301,0.912-1.287,1.41-2.201,1.107c-0.913-0.301-1.409-1.285-1.108-2.199c0.302-0.914,1.286-1.412,2.199-1.109
	C492.645,163.315,493.14,164.299,492.839,165.213"/>
<path fill="none" stroke="#FFFFFF" stroke-width="1.5" stroke-linecap="round" stroke-linejoin="round" stroke-miterlimit="10" d="
	M518.693,142.311c2.15-1.045,3.74-2.896,4.494-5.18c0.754-2.279,0.571-4.715-0.533-6.836"/>
<path fill="none" stroke="#FFFFFF" stroke-width="1.5" stroke-linecap="round" stroke-linejoin="round" stroke-miterlimit="10" d="
	M521.123,145.899c3.158-1.592,5.321-4.233,6.349-7.354c0.999-3.025,0.862-6.529-0.729-9.688"/>
<path fill="none" stroke="#FFFFFF" stroke-width="1.5" stroke-linecap="round" stroke-linejoin="round" stroke-miterlimit="10" d="
	M523.617,149.458c3.854-1.981,6.788-5.403,8.139-9.5c1.366-4.144,0.996-8.5-0.893-12.479"/>
<path fill="none" stroke="#FFFFFF" stroke-width="1.5" stroke-linecap="square" stroke-miterlimit="10" d="M90.371,28.855
	l14.44-15.019c0.314-0.326,0.832-0.333,1.159-0.019l26.217,25.205c0.328,0.315,0.342,0.834,0.028,1.16l-13.874,14.432
	c-0.313,0.325-0.833,0.333-1.161,0.018L94.205,32.545"/>
<path fill="none" stroke="#FFFFFF" stroke-width="1.5" stroke-linecap="square" stroke-miterlimit="10" d="M141.867,43.381
	L122.68,63.339c-0.421,0.437-1.119,0.45-1.558,0.031L85.803,29.414c-0.438-0.423-0.452-1.119-0.031-1.557l18.425-19.164
	c0.42-0.438,1.117-0.452,1.556-0.031l32.321,31.073"/>
<path fill="#FFFFFF" stroke="#FFFFFF" stroke-width="1.5" stroke-miterlimit="10" d="M129.837,49.362
	c0.694,0.667,0.715,1.771,0.047,2.466c-0.667,0.693-1.771,0.716-2.463,0.048c-0.695-0.668-0.716-1.772-0.049-2.464
	C128.039,48.717,129.142,48.695,129.837,49.362"/>
<path fill="none" stroke="#FFFFFF" stroke-width="1.5" stroke-linecap="round" stroke-linejoin="round" stroke-miterlimit="10" d="
	M120.369,16.146c-0.012-2.394-0.992-4.627-2.725-6.293c-1.731-1.665-4.005-2.556-6.396-2.475"/>
<path fill="none" stroke="#FFFFFF" stroke-width="1.5" stroke-linecap="round" stroke-linejoin="round" stroke-miterlimit="10" d="
	M124.656,15.507c-0.069-3.537-1.517-6.628-3.885-8.905c-2.296-2.208-5.515-3.602-9.051-3.531"/>
<path fill="none" stroke="#FFFFFF" stroke-width="1.5" stroke-linecap="round" stroke-linejoin="round" stroke-miterlimit="10" d="
	M128.942,14.798c-0.12-4.332-1.936-8.458-5.048-11.448c-3.145-3.025-7.231-4.574-11.637-4.591"/>
<path fill="none" stroke="#FFFFFF" stroke-width="1.5" stroke-linecap="square" stroke-miterlimit="10" d="M19.764,149.986
	l18.652-9.285c0.403-0.201,0.895-0.033,1.098,0.373l16.209,32.555c0.204,0.408,0.041,0.902-0.363,1.103l-17.921,8.924
	c-0.404,0.199-0.896,0.035-1.099-0.372l-14.205-28.529"/>
<path fill="none" stroke="#FFFFFF" stroke-width="1.5" stroke-linecap="square" stroke-miterlimit="10" d="M63.372,180.992
	L38.588,193.33c-0.543,0.271-1.205,0.049-1.475-0.494l-21.836-43.856c-0.271-0.547-0.05-1.207,0.493-1.478l23.799-11.852
	c0.544-0.271,1.205-0.049,1.477,0.496l19.981,40.135"/>
<path fill="#FFFFFF" stroke="#FFFFFF" stroke-width="1.5" stroke-miterlimit="10" d="M50.03,182.578
	c0.429,0.859,0.076,1.906-0.784,2.338c-0.862,0.431-1.908,0.076-2.339-0.783c-0.429-0.862-0.077-1.907,0.784-2.338
	C48.554,181.363,49.601,181.716,50.03,182.578"/>
<path fill="none" stroke="#FFFFFF" stroke-width="1.5" stroke-linecap="round" stroke-linejoin="round" stroke-miterlimit="10" d="
	M52.289,148.111c0.793-2.258,0.621-4.691-0.449-6.844c-1.069-2.148-2.91-3.752-5.189-4.48"/>
<path fill="none" stroke="#FFFFFF" stroke-width="1.5" stroke-linecap="round" stroke-linejoin="round" stroke-miterlimit="10" d="
	M56.541,148.953c1.125-3.354,0.802-6.754-0.663-9.693c-1.419-2.854-3.982-5.247-7.335-6.37"/>
<path fill="none" stroke="#FFFFFF" stroke-width="1.5" stroke-linecap="round" stroke-linejoin="round" stroke-miterlimit="10" d="
	M60.814,149.725c1.346-4.119,1.023-8.615-0.901-12.479c-1.944-3.904-5.272-6.74-9.412-8.238"/>
<path fill="none" stroke="#FFFFFF" stroke-width="1.5" stroke-linecap="square" stroke-miterlimit="10" d="M15.223,70.699
	L-2.528,59.79c-0.385-0.235-0.501-0.741-0.263-1.128L16.25,27.676c0.237-0.387,0.741-0.51,1.126-0.273L34.43,37.884
	c0.385,0.236,0.504,0.743,0.267,1.13L18.011,66.167"/>
<path fill="none" stroke="#FFFFFF" stroke-width="1.5" stroke-linecap="square" stroke-miterlimit="10" d="M18.443,17.29
	L42.03,31.785c0.519,0.317,0.679,0.996,0.362,1.512L16.741,75.04c-0.317,0.52-0.997,0.68-1.513,0.363l-22.65-13.92
	c-0.517-0.318-0.68-0.995-0.36-1.513l23.471-38.198"/>
<path fill="#FFFFFF" stroke="#FFFFFF" stroke-width="1.5" stroke-miterlimit="10" d="M26.851,27.769
	c0.503-0.819,1.578-1.076,2.399-0.571c0.82,0.504,1.076,1.577,0.573,2.397c-0.505,0.82-1.579,1.076-2.399,0.572
	C26.604,29.664,26.347,28.589,26.851,27.769"/>
<path fill="none" stroke="#FFFFFF" stroke-width="1.5" stroke-linecap="round" stroke-linejoin="round" stroke-miterlimit="10" d="
	M-3.584,44.097c-2.336,0.521-4.31,1.956-5.568,4.003c-1.257,2.046-1.645,4.456-1.055,6.774"/>
<path fill="none" stroke="#FFFFFF" stroke-width="1.5" stroke-linecap="round" stroke-linejoin="round" stroke-miterlimit="10" d="
	M-5.123,40.046c-3.44,0.821-6.153,2.894-7.873,5.691c-1.668,2.715-2.344,6.156-1.522,9.597"/>
<path fill="none" stroke="#FFFFFF" stroke-width="1.5" stroke-linecap="round" stroke-linejoin="round" stroke-miterlimit="10" d="
	M-6.728,36.009c-4.208,1.041-7.853,3.693-10.11,7.368c-2.284,3.717-2.929,8.042-2.007,12.349"/>
<path fill="none" stroke="#FFFFFF" stroke-width="1.5" stroke-linecap="square" stroke-miterlimit="10" d="M121.92,110.021
	l19.788,6.521c0.428,0.143,0.66,0.604,0.518,1.037l-11.386,34.541c-0.142,0.432-0.606,0.668-1.033,0.523l-19.013-6.268
	c-0.429-0.144-0.661-0.605-0.519-1.039l9.979-30.267"/>
<path fill="none" stroke="#FFFFFF" stroke-width="1.5" stroke-linecap="square" stroke-miterlimit="10" d="M131.097,162.734
	l-26.292-8.67c-0.578-0.189-0.891-0.813-0.701-1.391l15.341-46.529c0.192-0.578,0.814-0.893,1.39-0.701l25.249,8.324
	c0.577,0.191,0.891,0.813,0.7,1.391l-14.039,42.578"/>
<path fill="#FFFFFF" stroke="#FFFFFF" stroke-width="1.5" stroke-miterlimit="10" d="M120.5,154.475
	c-0.301,0.914-1.288,1.409-2.202,1.108c-0.914-0.303-1.411-1.287-1.11-2.201s1.287-1.411,2.201-1.108
	C120.304,152.574,120.802,153.561,120.5,154.475"/>
<path fill="none" stroke="#FFFFFF" stroke-width="1.5" stroke-linecap="round" stroke-linejoin="round" stroke-miterlimit="10" d="
	M146.354,131.57c2.153-1.047,3.742-2.896,4.496-5.178c0.753-2.281,0.573-4.715-0.535-6.836"/>
<path fill="none" stroke="#FFFFFF" stroke-width="1.5" stroke-linecap="round" stroke-linejoin="round" stroke-miterlimit="10" d="
	M148.784,135.16c3.159-1.592,5.322-4.234,6.349-7.354c1-3.025,0.863-6.529-0.73-9.688"/>
<path fill="none" stroke="#FFFFFF" stroke-width="1.5" stroke-linecap="round" stroke-linejoin="round" stroke-miterlimit="10" d="
	M151.278,138.718c3.854-1.981,6.788-5.403,8.139-9.499c1.366-4.146,0.997-8.501-0.893-12.479"/>
<path fill="none" stroke="#FFFFFF" stroke-width="1.5" stroke-linecap="square" stroke-miterlimit="10" d="M659.255,18.689
	l-6.622,19.755c-0.144,0.428-0.607,0.657-1.041,0.513L617.11,27.398c-0.434-0.145-0.664-0.608-0.521-1.036l6.363-18.981
	c0.145-0.428,0.607-0.658,1.041-0.514l30.218,10.129"/>
<path fill="none" stroke="#FFFFFF" stroke-width="1.5" stroke-linecap="square" stroke-miterlimit="10" d="M606.496,27.602
	l8.801-26.25c0.193-0.576,0.816-0.887,1.394-0.693l46.452,15.573c0.577,0.193,0.889,0.817,0.695,1.394l-8.451,25.206
	c-0.191,0.576-0.814,0.886-1.393,0.693l-42.512-14.25"/>
<path fill="#FFFFFF" stroke="#FFFFFF" stroke-width="1.5" stroke-miterlimit="10" d="M614.809,17.047
	c-0.909-0.306-1.4-1.294-1.097-2.208c0.307-0.913,1.294-1.404,2.206-1.099c0.912,0.307,1.404,1.294,1.098,2.207
	C616.711,16.86,615.721,17.352,614.809,17.047"/>
<path fill="none" stroke="#FFFFFF" stroke-width="1.5" stroke-linecap="round" stroke-linejoin="round" stroke-miterlimit="10" d="
	M637.584,43.015c1.033,2.159,2.877,3.758,5.154,4.521c2.276,0.764,4.712,0.597,6.84-0.5"/>
<path fill="none" stroke="#FFFFFF" stroke-width="1.5" stroke-linecap="round" stroke-linejoin="round" stroke-miterlimit="10" d="
	M633.982,45.428c1.574,3.166,4.208,5.34,7.319,6.384c3.022,1.013,6.525,0.895,9.692-0.682"/>
<path fill="none" stroke="#FFFFFF" stroke-width="1.5" stroke-linecap="round" stroke-linejoin="round" stroke-miterlimit="10" d="
	M630.412,47.902c1.963,3.864,5.369,6.815,9.46,8.187c4.138,1.387,8.495,1.039,12.482-0.831"/>
<path fill="none" stroke="#FFFFFF" stroke-width="1.5" stroke-linecap="square" stroke-miterlimit="10" d="M577.791,143.291
	l20.08,5.558c0.436,0.12,0.689,0.573,0.567,1.012l-9.698,35.053c-0.121,0.438-0.572,0.695-1.007,0.574l-19.294-5.338
	c-0.437-0.121-0.689-0.574-0.567-1.013l8.499-30.717"/>
<path fill="none" stroke="#FFFFFF" stroke-width="1.5" stroke-linecap="square" stroke-miterlimit="10" d="M589.512,195.498
	l-26.683-7.384c-0.585-0.161-0.929-0.77-0.769-1.354l13.066-47.221c0.163-0.586,0.771-0.931,1.355-0.769l25.619,7.092
	c0.587,0.162,0.932,0.767,0.77,1.354l-11.957,43.209"/>
<path fill="#FFFFFF" stroke="#FFFFFF" stroke-width="1.5" stroke-miterlimit="10" d="M578.525,187.758
	c-0.254,0.93-1.219,1.473-2.145,1.217c-0.93-0.258-1.474-1.219-1.216-2.146c0.255-0.928,1.217-1.473,2.144-1.217
	C578.24,185.873,578.784,186.832,578.525,187.758"/>
<path fill="none" stroke="#FFFFFF" stroke-width="1.5" stroke-linecap="round" stroke-linejoin="round" stroke-miterlimit="10" d="
	M603.24,163.629c2.101-1.148,3.598-3.072,4.236-5.391c0.643-2.314,0.346-4.736-0.863-6.803"/>
<path fill="none" stroke="#FFFFFF" stroke-width="1.5" stroke-linecap="round" stroke-linejoin="round" stroke-miterlimit="10" d="
	M605.84,167.096c3.08-1.744,5.109-4.488,5.985-7.652c0.85-3.071,0.544-6.563-1.198-9.643"/>
<path fill="none" stroke="#FFFFFF" stroke-width="1.5" stroke-linecap="round" stroke-linejoin="round" stroke-miterlimit="10" d="
	M608.504,170.53c3.753-2.166,6.52-5.727,7.67-9.885c1.163-4.205,0.581-8.537-1.498-12.422"/>
<path fill="none" stroke="#FFFFFF" stroke-width="1.5" stroke-linecap="square" stroke-miterlimit="10" d="M684.333,130.158
	l16.163-3.859c0.351-0.082,0.702,0.138,0.786,0.488l6.736,28.215c0.086,0.353-0.133,0.705-0.48,0.789l-15.529,3.709
	c-0.35,0.084-0.703-0.135-0.789-0.487l-5.9-24.726"/>
<path fill="none" stroke="#FFFFFF" stroke-width="1.5" stroke-linecap="square" stroke-miterlimit="10" d="M712.638,162.096
	l-21.478,5.129c-0.47,0.11-0.944-0.181-1.061-0.649l-9.071-38.009c-0.113-0.471,0.178-0.944,0.646-1.06l20.624-4.924
	c0.471-0.112,0.943,0.178,1.059,0.648l8.307,34.781"/>
<path fill="#FFFFFF" stroke="#FFFFFF" stroke-width="1.5" stroke-miterlimit="10" d="M701.985,160.927
	c0.178,0.746-0.283,1.496-1.029,1.677c-0.745,0.179-1.496-0.285-1.674-1.028c-0.181-0.748,0.281-1.498,1.026-1.679
	C701.058,159.718,701.807,160.18,701.985,160.927"/>
<path fill="none" stroke="#FFFFFF" stroke-width="1.5" stroke-linecap="round" stroke-linejoin="round" stroke-miterlimit="10" d="
	M709.942,134.553c1.022-1.611,1.328-3.533,0.883-5.396c-0.445-1.865-1.586-3.441-3.227-4.419"/>
<path fill="none" stroke="#FFFFFF" stroke-width="1.5" stroke-linecap="round" stroke-linejoin="round" stroke-miterlimit="10" d="
	M713.097,135.971c1.478-2.402,1.836-5.103,1.229-7.647c-0.591-2.474-2.149-4.794-4.554-6.271"/>
<path fill="none" stroke="#FFFFFF" stroke-width="1.5" stroke-linecap="round" stroke-linejoin="round" stroke-miterlimit="10" d="
	M716.278,137.341c1.785-2.959,2.344-6.51,1.544-9.854c-0.81-3.385-2.882-6.188-5.831-8.098"/>
<path fill="none" stroke="#FFFFFF" stroke-width="1.5" stroke-linecap="square" stroke-miterlimit="10" d="M776.429,149.986
	l18.652-9.285c0.402-0.201,0.895-0.033,1.098,0.373l16.207,32.555c0.203,0.408,0.043,0.902-0.361,1.103l-17.924,8.924
	c-0.4,0.199-0.895,0.035-1.098-0.372l-14.205-28.529"/>
<path fill="none" stroke="#FFFFFF" stroke-width="1.5" stroke-linecap="square" stroke-miterlimit="10" d="M820.036,180.992
	l-24.783,12.338c-0.545,0.271-1.205,0.049-1.477-0.494l-21.836-43.856c-0.271-0.547-0.051-1.207,0.49-1.478l23.803-11.852
	c0.543-0.271,1.203-0.049,1.475,0.496l19.982,40.135"/>
<path fill="#FFFFFF" stroke="#FFFFFF" stroke-width="1.5" stroke-miterlimit="10" d="M806.692,182.578
	c0.432,0.859,0.078,1.906-0.783,2.338c-0.861,0.431-1.908,0.076-2.338-0.783c-0.432-0.862-0.078-1.907,0.785-2.338
	C805.218,181.363,806.265,181.716,806.692,182.578"/>
<path fill="none" stroke="#FFFFFF" stroke-width="1.5" stroke-linecap="round" stroke-linejoin="round" stroke-miterlimit="10" d="
	M808.952,148.111c0.795-2.258,0.623-4.691-0.447-6.844c-1.072-2.148-2.91-3.752-5.188-4.48"/>
<path fill="none" stroke="#FFFFFF" stroke-width="1.5" stroke-linecap="round" stroke-linejoin="round" stroke-miterlimit="10" d="
	M813.204,148.953c1.125-3.354,0.803-6.754-0.662-9.693c-1.418-2.854-3.982-5.247-7.334-6.37"/>
<path fill="none" stroke="#FFFFFF" stroke-width="1.5" stroke-linecap="round" stroke-linejoin="round" stroke-miterlimit="10" d="
	M817.479,149.725c1.344-4.119,1.021-8.615-0.9-12.479c-1.945-3.904-5.271-6.74-9.412-8.238"/>
<path fill="none" stroke="#FFFFFF" stroke-width="1.5" stroke-linecap="square" stroke-miterlimit="10" d="M771.889,61.699
	L754.137,50.79c-0.385-0.235-0.502-0.741-0.264-1.128l19.041-30.986c0.236-0.387,0.74-0.51,1.125-0.273l17.057,10.481
	c0.387,0.236,0.505,0.743,0.268,1.13l-16.688,27.153"/>
<path fill="none" stroke="#FFFFFF" stroke-width="1.5" stroke-linecap="square" stroke-miterlimit="10" d="M775.109,8.29
	l23.588,14.495c0.516,0.317,0.678,0.996,0.359,1.512l-25.65,41.743c-0.318,0.52-0.996,0.68-1.516,0.363l-22.648-13.92
	c-0.52-0.318-0.681-0.995-0.359-1.513l23.472-38.198"/>
<path fill="#FFFFFF" stroke="#FFFFFF" stroke-width="1.5" stroke-miterlimit="10" d="M783.518,18.769
	c0.503-0.819,1.576-1.076,2.396-0.571c0.822,0.504,1.076,1.577,0.574,2.397c-0.504,0.82-1.578,1.076-2.398,0.572
	S783.012,19.589,783.518,18.769"/>
<path fill="none" stroke="#FFFFFF" stroke-width="1.5" stroke-linecap="round" stroke-linejoin="round" stroke-miterlimit="10" d="
	M753.078,35.097c-2.336,0.521-4.311,1.956-5.564,4.003c-1.26,2.046-1.646,4.456-1.059,6.774"/>
<path fill="none" stroke="#FFFFFF" stroke-width="1.5" stroke-linecap="round" stroke-linejoin="round" stroke-miterlimit="10" d="
	M751.543,31.046c-3.443,0.821-6.154,2.894-7.873,5.691c-1.67,2.715-2.346,6.156-1.521,9.597"/>
<path fill="none" stroke="#FFFFFF" stroke-width="1.5" stroke-linecap="round" stroke-linejoin="round" stroke-miterlimit="10" d="
	M749.936,27.009c-4.206,1.041-7.852,3.693-10.107,7.368c-2.285,3.717-2.928,8.042-2.006,12.349"/>
<path fill="none" stroke="#FFFFFF" stroke-width="1.5" stroke-linecap="square" stroke-miterlimit="10" d="M840.951,1.83
	l20.832-0.284c0.451-0.007,0.818,0.357,0.826,0.812l0.494,36.365c0.01,0.454-0.354,0.828-0.805,0.834l-20.018,0.273
	c-0.451,0.006-0.822-0.358-0.828-0.813l-0.438-31.866"/>
<path fill="none" stroke="#FFFFFF" stroke-width="1.5" stroke-linecap="square" stroke-miterlimit="10" d="M866.811,48.671
	l-27.684,0.377c-0.607,0.009-1.104-0.478-1.115-1.084l-0.67-48.991c-0.008-0.609,0.479-1.108,1.086-1.117l26.584-0.361
	c0.607-0.008,1.107,0.476,1.115,1.086l0.611,44.829"/>
<path fill="#FFFFFF" stroke="#FFFFFF" stroke-width="1.5" stroke-miterlimit="10" d="M854.102,44.318
	c0.014,0.962-0.76,1.753-1.721,1.766c-0.963,0.014-1.754-0.757-1.766-1.719c-0.018-0.963,0.756-1.754,1.715-1.767
	C853.295,42.586,854.086,43.356,854.102,44.318"/>
<path fill="none" stroke="#FFFFFF" stroke-width="1.5" stroke-linecap="round" stroke-linejoin="round" stroke-miterlimit="10" d="
	M871.074,14.237c1.691-1.691,2.594-3.958,2.561-6.361c-0.031-2.401-0.996-4.644-2.73-6.289"/>
<path fill="none" stroke="#FFFFFF" stroke-width="1.5" stroke-linecap="round" stroke-linejoin="round" stroke-miterlimit="10" d="
	M874.541,16.836c2.467-2.535,3.648-5.737,3.604-9.022c-0.046-3.186-1.313-6.455-3.851-8.92"/>
<path fill="none" stroke="#FFFFFF" stroke-width="1.5" stroke-linecap="round" stroke-linejoin="round" stroke-miterlimit="10" d="
	M878.059,19.387c2.998-3.13,4.656-7.321,4.598-11.635c-0.061-4.363-1.828-8.36-4.912-11.505"/>
<path fill="none" stroke="#FFFFFF" stroke-width="1.5" stroke-linecap="square" stroke-miterlimit="10" d="M882.335,107.835
	l19.787,6.523c0.428,0.141,0.66,0.604,0.518,1.037l-11.387,34.537c-0.143,0.434-0.604,0.67-1.033,0.527l-19.012-6.271
	c-0.43-0.142-0.662-0.604-0.521-1.039l9.979-30.267"/>
<path fill="none" stroke="#FFFFFF" stroke-width="1.5" stroke-linecap="square" stroke-miterlimit="10" d="M891.511,160.548
	l-26.295-8.668c-0.576-0.188-0.889-0.813-0.699-1.389l15.344-46.531c0.188-0.58,0.813-0.893,1.387-0.703l25.25,8.326
	c0.576,0.189,0.891,0.813,0.701,1.39l-14.039,42.579"/>
<path fill="#FFFFFF" stroke="#FFFFFF" stroke-width="1.5" stroke-miterlimit="10" d="M880.913,152.289
	c-0.303,0.912-1.287,1.41-2.201,1.107c-0.914-0.301-1.41-1.287-1.111-2.199c0.303-0.914,1.287-1.412,2.201-1.109
	C880.718,150.389,881.214,151.375,880.913,152.289"/>
<path fill="none" stroke="#FFFFFF" stroke-width="1.5" stroke-linecap="round" stroke-linejoin="round" stroke-miterlimit="10" d="
	M906.767,129.384c2.152-1.045,3.742-2.896,4.496-5.178c0.752-2.281,0.572-4.715-0.535-6.836"/>
<path fill="none" stroke="#FFFFFF" stroke-width="1.5" stroke-linecap="round" stroke-linejoin="round" stroke-miterlimit="10" d="
	M909.198,132.975c3.158-1.595,5.318-4.233,6.35-7.354c0.998-3.023,0.861-6.529-0.73-9.688"/>
<path fill="none" stroke="#FFFFFF" stroke-width="1.5" stroke-linecap="round" stroke-linejoin="round" stroke-miterlimit="10" d="
	M911.69,136.533c3.854-1.982,6.789-5.404,8.139-9.502c1.367-4.145,0.998-8.5-0.895-12.477"/>
<path fill="none" stroke="#FFFFFF" stroke-width="1.5" stroke-linecap="square" stroke-miterlimit="10" d="M957.076,34.514
	l-6.623,19.754c-0.145,0.428-0.609,0.657-1.039,0.513l-34.482-11.559c-0.434-0.145-0.666-0.608-0.521-1.036l6.363-18.981
	c0.143-0.428,0.607-0.658,1.041-0.514L952.03,32.82"/>
<path fill="none" stroke="#FFFFFF" stroke-width="1.5" stroke-linecap="square" stroke-miterlimit="10" d="M904.316,43.426
	l8.801-26.25c0.191-0.576,0.814-0.887,1.391-0.693l46.455,15.573c0.576,0.193,0.887,0.817,0.693,1.394l-8.449,25.206
	c-0.193,0.576-0.816,0.887-1.396,0.693l-42.511-14.25"/>
<path fill="#FFFFFF" stroke="#FFFFFF" stroke-width="1.5" stroke-miterlimit="10" d="M912.627,32.871
	c-0.91-0.305-1.402-1.293-1.096-2.207c0.307-0.913,1.295-1.404,2.205-1.099c0.912,0.306,1.404,1.294,1.1,2.207
	C914.529,32.685,913.543,33.177,912.627,32.871"/>
<path fill="none" stroke="#FFFFFF" stroke-width="1.5" stroke-linecap="round" stroke-linejoin="round" stroke-miterlimit="10" d="
	M935.402,58.838c1.033,2.159,2.877,3.758,5.154,4.521c2.277,0.764,4.714,0.596,6.839-0.5"/>
<path fill="none" stroke="#FFFFFF" stroke-width="1.5" stroke-linecap="round" stroke-linejoin="round" stroke-miterlimit="10" d="
	M931.801,61.251c1.576,3.166,4.209,5.341,7.322,6.386c3.021,1.012,6.525,0.895,9.693-0.683"/>
<path fill="none" stroke="#FFFFFF" stroke-width="1.5" stroke-linecap="round" stroke-linejoin="round" stroke-miterlimit="10" d="
	M928.232,63.726c1.961,3.863,5.367,6.815,9.459,8.186c4.139,1.387,8.494,1.039,12.48-0.831"/>
<path fill="none" stroke="#FFFFFF" stroke-width="1.5" stroke-linecap="square" stroke-miterlimit="10" d="M476.647,9.096
	l14.438-15.02c0.314-0.326,0.832-0.333,1.159-0.018l26.218,25.205c0.328,0.315,0.342,0.833,0.027,1.159l-13.873,14.432
	c-0.314,0.325-0.834,0.333-1.16,0.018l-22.977-22.087"/>
<path fill="none" stroke="#FFFFFF" stroke-width="1.5" stroke-linecap="square" stroke-miterlimit="10" d="M528.143,23.621
	l-19.188,19.958c-0.42,0.438-1.117,0.45-1.555,0.031L472.08,9.652c-0.438-0.422-0.451-1.119-0.031-1.557l18.424-19.164
	c0.425-0.438,1.118-0.453,1.56-0.031l32.317,31.073"/>
<path fill="#FFFFFF" stroke="#FFFFFF" stroke-width="1.5" stroke-miterlimit="10" d="M516.111,29.602
	c0.692,0.667,0.715,1.772,0.049,2.465c-0.667,0.693-1.771,0.716-2.465,0.049c-0.693-0.668-0.716-1.772-0.047-2.464
	C514.314,28.957,515.418,28.935,516.111,29.602"/>
<path fill="none" stroke="#FFFFFF" stroke-width="1.5" stroke-linecap="round" stroke-linejoin="round" stroke-miterlimit="10" d="
	M506.646-3.614c-0.015-2.394-0.991-4.627-2.728-6.293c-1.731-1.665-4.004-2.556-6.395-2.475"/>
<path fill="none" stroke="#FFFFFF" stroke-width="1.5" stroke-linecap="round" stroke-linejoin="round" stroke-miterlimit="10" d="
	M510.93-4.254c-0.068-3.536-1.516-6.627-3.885-8.904c-2.297-2.208-5.516-3.601-9.051-3.531"/>
<path fill="none" stroke="#FFFFFF" stroke-width="1.5" stroke-linecap="round" stroke-linejoin="round" stroke-miterlimit="10" d="
	M515.217-4.961c-0.121-4.333-1.937-8.458-5.047-11.448c-3.146-3.025-7.231-4.574-11.637-4.591"/>
</svg>
