<?xml version="1.0" encoding="utf-8"?>
<!-- Generator: Adobe Illustrator 16.0.0, SVG Export Plug-In . SVG Version: 6.00 Build 0)  -->
<!DOCTYPE svg PUBLIC "-//W3C//DTD SVG 1.1//EN" "http://www.w3.org/Graphics/SVG/1.1/DTD/svg11.dtd">
<svg version="1.1" id="Layer_1" xmlns="http://www.w3.org/2000/svg" xmlns:xlink="http://www.w3.org/1999/xlink" x="0px" y="0px"
	 width="1908.67px" height="240px" viewBox="0 0 1908.67 240" enable-background="new 0 0 1908.67 240" xml:space="preserve">
<path fill="none" stroke="#56DAF3" stroke-width="2" stroke-linecap="square" stroke-miterlimit="10" d="M2080.469,225.488
	l-24.832-7.766c-0.537-0.168-0.836-0.744-0.666-1.287l13.553-43.343c0.17-0.543,0.742-0.844,1.281-0.676l23.855,7.459
	c0.539,0.168,0.838,0.744,0.668,1.285l-11.877,37.981"/>
<path fill="none" stroke="#56DAF3" stroke-width="2" stroke-linecap="square" stroke-miterlimit="10" d="M2067.998,159.85
	l32.994,10.316c0.725,0.227,1.129,0.998,0.904,1.723l-18.261,58.391c-0.227,0.726-0.998,1.13-1.723,0.902l-31.685-9.908
	c-0.725-0.227-1.127-0.996-0.899-1.723l16.707-53.434"/>
<path fill="#FFFFFF" stroke="#56DAF3" stroke-width="2" stroke-miterlimit="10" d="M2081.387,169.959
	c0.359-1.148,1.58-1.787,2.729-1.43c1.146,0.359,1.784,1.58,1.426,2.729c-0.356,1.146-1.578,1.787-2.728,1.428
	C2081.668,172.326,2081.029,171.104,2081.387,169.959"/>
<path fill="none" stroke="#56DAF3" stroke-width="3" stroke-linecap="square" stroke-miterlimit="10" d="M673.858,19.958
	l-9.253,27.601c-0.199,0.598-0.851,0.918-1.452,0.716l-48.179-16.15c-0.603-0.202-0.929-0.849-0.728-1.447l8.89-26.52
	c0.201-0.598,0.853-0.919,1.454-0.718l42.219,14.153"/>
<path fill="none" stroke="#56DAF3" stroke-width="3" stroke-linecap="square" stroke-miterlimit="10" d="M600.146,32.411
	L612.44-4.264c0.27-0.805,1.142-1.239,1.945-0.969l64.905,21.758c0.806,0.27,1.24,1.142,0.97,1.947l-11.806,35.217
	c-0.271,0.805-1.141,1.239-1.947,0.969l-59.393-19.91"/>
<path fill="#FFFFFF" stroke="#56DAF3" stroke-miterlimit="10" d="M611.76,17.664c-1.273-0.427-1.961-1.808-1.534-3.084
	c0.428-1.275,1.809-1.962,3.083-1.535c1.275,0.428,1.963,1.808,1.535,3.083S613.036,18.091,611.76,17.664"/>
<path fill="none" stroke="#56DAF3" stroke-width="3" stroke-linecap="round" stroke-linejoin="round" stroke-miterlimit="10" d="
	M643.579,53.945c1.446,3.016,4.02,5.25,7.203,6.317c3.182,1.067,6.584,0.833,9.555-0.699"/>
<path fill="none" stroke="#56DAF3" stroke-width="3" stroke-linecap="round" stroke-linejoin="round" stroke-miterlimit="10" d="
	M638.548,57.316c2.202,4.424,5.879,7.462,10.23,8.921c4.221,1.415,9.117,1.25,13.541-0.953"/>
<path fill="none" stroke="#56DAF3" stroke-width="3" stroke-linecap="round" stroke-linejoin="round" stroke-miterlimit="10" d="
	M633.56,60.774c2.743,5.398,7.503,9.522,13.219,11.438c5.779,1.938,11.869,1.451,17.439-1.161"/>
<path fill="none" stroke="#56DAF3" stroke-width="3" stroke-linecap="square" stroke-miterlimit="10" d="M552.229,212.436
	l28.057,7.765c0.607,0.168,0.962,0.801,0.792,1.411l-13.551,48.974c-0.169,0.612-0.8,0.974-1.406,0.806l-26.957-7.459
	c-0.607-0.17-0.963-0.803-0.793-1.414l11.875-42.916"/>
<path fill="none" stroke="#56DAF3" stroke-width="3" stroke-linecap="square" stroke-miterlimit="10" d="M568.604,285.376
	l-37.279-10.315c-0.818-0.227-1.298-1.074-1.072-1.892l18.256-65.976c0.228-0.819,1.075-1.299,1.894-1.072l35.798,9.906
	c0.817,0.227,1.299,1.072,1.071,1.893l-16.706,60.372"/>
<path fill="#FFFFFF" stroke="#56DAF3" stroke-miterlimit="10" d="M553.258,274.566c-0.358,1.297-1.701,2.057-2.998,1.697
	s-2.057-1.699-1.697-2.996c0.358-1.297,1.699-2.057,2.995-1.697C552.855,271.93,553.616,273.271,553.258,274.566"/>
<path fill="none" stroke="#56DAF3" stroke-width="3" stroke-linecap="round" stroke-linejoin="round" stroke-miterlimit="10" d="
	M587.786,240.854c2.934-1.604,5.026-4.295,5.922-7.53c0.896-3.234,0.479-6.619-1.209-9.503"/>
<path fill="none" stroke="#56DAF3" stroke-width="3" stroke-linecap="round" stroke-linejoin="round" stroke-miterlimit="10" d="
	M591.421,245.697c4.3-2.436,7.137-6.271,8.361-10.692c1.188-4.291,0.761-9.172-1.675-13.471"/>
<path fill="none" stroke="#56DAF3" stroke-width="3" stroke-linecap="round" stroke-linejoin="round" stroke-miterlimit="10" d="
	M595.14,250.494c5.244-3.027,9.108-8.001,10.716-13.811c1.626-5.875,0.813-11.93-2.093-17.354"/>
<path fill="none" stroke="#56DAF3" stroke-width="2.5" stroke-linecap="square" stroke-miterlimit="10" d="M680.781,187.527
	l22.583-5.391c0.489-0.117,0.979,0.188,1.098,0.68l9.412,39.42c0.118,0.492-0.182,0.986-0.671,1.104l-21.698,5.182
	c-0.489,0.117-0.981-0.188-1.1-0.681l-8.248-34.544"/>
<path fill="none" stroke="#56DAF3" stroke-width="2.5" stroke-linecap="square" stroke-miterlimit="10" d="M720.327,232.15
	l-30.007,7.164c-0.658,0.158-1.32-0.25-1.479-0.906l-12.679-53.105c-0.158-0.658,0.249-1.32,0.908-1.478l28.813-6.882
	c0.659-0.155,1.32,0.25,1.479,0.91l11.603,48.595"/>
<path fill="#FFFFFF" stroke="#56DAF3" stroke-width="2.5" stroke-miterlimit="10" d="M705.445,230.52
	c0.249,1.041-0.396,2.09-1.439,2.34c-1.043,0.248-2.091-0.396-2.34-1.438c-0.249-1.044,0.395-2.092,1.438-2.341
	S705.195,229.475,705.445,230.52"/>
<path fill="none" stroke="#56DAF3" stroke-width="2.5" stroke-linecap="round" stroke-linejoin="round" stroke-miterlimit="10" d="
	M716.563,193.669c1.43-2.252,1.854-4.937,1.232-7.541c-0.621-2.604-2.216-4.808-4.507-6.17"/>
<path fill="none" stroke="#56DAF3" stroke-width="2.5" stroke-linecap="round" stroke-linejoin="round" stroke-miterlimit="10" d="
	M720.967,195.65c2.063-3.358,2.567-7.129,1.718-10.688c-0.824-3.455-3.004-6.698-6.36-8.762"/>
<path fill="none" stroke="#56DAF3" stroke-width="2.5" stroke-linecap="round" stroke-linejoin="round" stroke-miterlimit="10" d="
	M725.413,197.564c2.495-4.135,3.276-9.096,2.159-13.771c-1.129-4.729-4.029-8.645-8.148-11.311"/>
<path fill="none" stroke="#56DAF3" stroke-width="3" stroke-linecap="square" stroke-miterlimit="10" d="M814.75,234.238
	l26.06-12.975c0.563-0.281,1.251-0.048,1.534,0.521l22.646,45.485c0.284,0.569,0.057,1.258-0.508,1.539l-25.038,12.467
	c-0.564,0.279-1.252,0.048-1.536-0.521l-19.846-39.859"/>
<path fill="none" stroke="#56DAF3" stroke-width="3" stroke-linecap="square" stroke-miterlimit="10" d="M875.677,277.557
	l-34.627,17.238c-0.759,0.379-1.683,0.069-2.061-0.689l-30.509-61.279c-0.38-0.762-0.07-1.684,0.689-2.063l33.251-16.556
	c0.76-0.378,1.683-0.069,2.063,0.692l27.918,56.074"/>
<path fill="#FFFFFF" stroke="#56DAF3" stroke-miterlimit="10" d="M857.037,279.771c0.6,1.203,0.107,2.664-1.096,3.265
	c-1.204,0.601-2.666,0.108-3.267-1.095c-0.6-1.203-0.108-2.666,1.095-3.266C854.976,278.077,856.438,278.566,857.037,279.771"/>
<path fill="none" stroke="#56DAF3" stroke-width="3" stroke-linecap="round" stroke-linejoin="round" stroke-miterlimit="10" d="
	M860.192,231.617c1.108-3.155,0.868-6.555-0.627-9.561s-4.066-5.244-7.25-6.263"/>
<path fill="none" stroke="#56DAF3" stroke-width="3" stroke-linecap="round" stroke-linejoin="round" stroke-miterlimit="10" d="
	M866.133,232.791c1.571-4.686,1.12-9.436-0.926-13.543c-1.983-3.984-5.563-7.331-10.248-8.9"/>
<path fill="none" stroke="#56DAF3" stroke-width="3" stroke-linecap="round" stroke-linejoin="round" stroke-miterlimit="10" d="
	M872.106,233.872c1.878-5.756,1.428-12.038-1.26-17.435c-2.717-5.457-7.365-9.418-13.15-11.511"/>
<path fill="none" stroke="#56DAF3" stroke-width="3" stroke-linecap="square" stroke-miterlimit="10" d="M831.226,70.516
	l-24.801-15.241c-0.538-0.329-0.703-1.036-0.37-1.577l26.604-43.292c0.332-0.541,1.036-0.712,1.573-0.382l23.83,14.644
	c0.537,0.33,0.703,1.038,0.371,1.579l-23.313,37.938"/>
<path fill="none" stroke="#56DAF3" stroke-width="3" stroke-linecap="square" stroke-miterlimit="10" d="M835.726-4.105
	l32.956,20.252c0.724,0.443,0.948,1.391,0.506,2.113l-35.841,58.322c-0.444,0.726-1.393,0.95-2.114,0.507l-31.646-19.448
	c-0.723-0.444-0.95-1.39-0.504-2.115l32.795-53.369"/>
<path fill="#FFFFFF" stroke="#56DAF3" stroke-miterlimit="10" d="M847.473,10.536c0.703-1.145,2.204-1.503,3.352-0.798
	c1.146,0.704,1.503,2.204,0.8,3.349c-0.705,1.146-2.205,1.504-3.351,0.8C847.127,13.183,846.769,11.682,847.473,10.536"/>
<path fill="none" stroke="#56DAF3" stroke-width="3" stroke-linecap="round" stroke-linejoin="round" stroke-miterlimit="10" d="
	M804.948,33.349c-3.266,0.729-6.021,2.732-7.779,5.593c-1.757,2.859-2.298,6.226-1.475,9.466"/>
<path fill="none" stroke="#56DAF3" stroke-width="3" stroke-linecap="round" stroke-linejoin="round" stroke-miterlimit="10" d="
	M802.799,27.688c-4.807,1.147-8.597,4.044-11,7.953c-2.331,3.793-3.275,8.601-2.127,13.408"/>
<path fill="none" stroke="#56DAF3" stroke-width="3" stroke-linecap="round" stroke-linejoin="round" stroke-miterlimit="10" d="
	M800.555,22.048c-5.877,1.454-10.97,5.16-14.125,10.295c-3.19,5.194-4.09,11.237-2.803,17.253"/>
<path fill="none" stroke="#56DAF3" stroke-width="3" stroke-linecap="square" stroke-miterlimit="10" d="M962.719,175.344
	l27.647,9.115c0.598,0.195,0.922,0.848,0.723,1.449l-15.91,48.257c-0.197,0.604-0.845,0.935-1.442,0.735l-26.563-8.756
	c-0.599-0.199-0.924-0.849-0.725-1.453l13.941-42.287"/>
<path fill="none" stroke="#56DAF3" stroke-width="3" stroke-linecap="square" stroke-miterlimit="10" d="M975.538,248.993
	l-36.736-12.112c-0.806-0.265-1.244-1.135-0.979-1.939l21.435-65.012c0.267-0.809,1.135-1.246,1.941-0.98l35.275,11.63
	c0.807,0.267,1.244,1.135,0.979,1.942l-19.614,59.492"/>
<path fill="#FFFFFF" stroke="#56DAF3" stroke-miterlimit="10" d="M960.733,237.453c-0.422,1.275-1.8,1.97-3.076,1.549
	c-1.277-0.421-1.972-1.798-1.552-3.074c0.422-1.277,1.799-1.973,3.075-1.551C960.46,234.799,961.154,236.176,960.733,237.453"/>
<path fill="none" stroke="#56DAF3" stroke-width="3" stroke-linecap="round" stroke-linejoin="round" stroke-miterlimit="10" d="
	M996.855,205.453c3.008-1.461,5.229-4.046,6.28-7.234c1.052-3.188,0.8-6.588-0.747-9.551"/>
<path fill="none" stroke="#56DAF3" stroke-width="3" stroke-linecap="round" stroke-linejoin="round" stroke-miterlimit="10" d="
	M1000.251,210.467c4.413-2.224,7.434-5.916,8.871-10.275c1.395-4.227,1.205-9.123-1.021-13.534"/>
<path fill="none" stroke="#56DAF3" stroke-width="3" stroke-linecap="round" stroke-linejoin="round" stroke-miterlimit="10" d="
	M1003.735,215.438c5.384-2.769,9.483-7.549,11.37-13.273c1.909-5.789,1.394-11.876-1.246-17.434"/>
<path fill="none" stroke="#56DAF3" stroke-width="3" stroke-linecap="square" stroke-miterlimit="10" d="M418.907,30.587
	l20.175-20.984c0.438-0.456,1.162-0.466,1.619-0.026l36.63,35.216c0.458,0.44,0.476,1.165,0.039,1.62l-19.384,20.164
	c-0.438,0.454-1.164,0.466-1.622,0.025l-32.101-30.86"/>
<path fill="none" stroke="#56DAF3" stroke-width="3" stroke-linecap="square" stroke-miterlimit="10" d="M490.855,50.882
	l-26.809,27.885c-0.588,0.611-1.562,0.63-2.174,0.043l-49.348-47.443c-0.612-0.59-0.632-1.563-0.043-2.175l25.742-26.775
	c0.589-0.612,1.562-0.632,2.176-0.043l45.156,43.414"/>
<path fill="#FFFFFF" stroke="#56DAF3" stroke-miterlimit="10" d="M474.047,59.239c0.97,0.932,0.999,2.475,0.067,3.444
	c-0.933,0.969-2.475,1-3.443,0.068c-0.97-0.933-1-2.475-0.068-3.443C471.536,58.338,473.077,58.307,474.047,59.239"/>
<path fill="none" stroke="#56DAF3" stroke-width="3" stroke-linecap="round" stroke-linejoin="round" stroke-miterlimit="10" d="
	M460.818,12.83c-0.018-3.344-1.387-6.465-3.808-8.792c-2.419-2.326-5.594-3.571-8.934-3.458"/>
<path fill="none" stroke="#56DAF3" stroke-width="3" stroke-linecap="round" stroke-linejoin="round" stroke-miterlimit="10" d="
	M466.808,11.937c-0.097-4.941-2.119-9.26-5.428-12.441c-3.209-3.086-7.706-5.032-12.646-4.934"/>
<path fill="none" stroke="#56DAF3" stroke-width="3" stroke-linecap="round" stroke-linejoin="round" stroke-miterlimit="10" d="
	M472.796,10.947c-0.168-6.053-2.705-11.818-7.051-15.995c-4.395-4.226-10.105-6.391-16.259-6.415"/>
<path fill="none" stroke="#56DAF3" stroke-width="3" stroke-linecap="square" stroke-miterlimit="10" d="M156.544,38.493
	l-9.252,27.601c-0.2,0.598-0.851,0.918-1.453,0.716L97.661,50.66c-0.603-0.202-0.929-0.849-0.728-1.447l8.89-26.52
	c0.201-0.598,0.852-0.919,1.454-0.718l42.219,14.153"/>
<path fill="none" stroke="#56DAF3" stroke-width="3" stroke-linecap="square" stroke-miterlimit="10" d="M82.833,50.945
	L95.127,14.27c0.27-0.805,1.142-1.239,1.946-0.969l64.905,21.758c0.806,0.27,1.24,1.142,0.97,1.947l-11.806,35.217
	c-0.27,0.805-1.141,1.239-1.947,0.969l-59.393-19.91"/>
<path fill="#FFFFFF" stroke="#56DAF3" stroke-miterlimit="10" d="M94.446,36.198c-1.274-0.427-1.961-1.808-1.534-3.084
	c0.427-1.275,1.808-1.962,3.083-1.535c1.275,0.428,1.962,1.808,1.535,3.083C97.102,35.938,95.722,36.625,94.446,36.198"/>
<path fill="none" stroke="#56DAF3" stroke-width="3" stroke-linecap="round" stroke-linejoin="round" stroke-miterlimit="10" d="
	M126.265,72.479c1.446,3.016,4.02,5.25,7.203,6.317c3.182,1.067,6.584,0.833,9.555-0.699"/>
<path fill="none" stroke="#56DAF3" stroke-width="3" stroke-linecap="round" stroke-linejoin="round" stroke-miterlimit="10" d="
	M121.234,75.85c2.202,4.424,5.879,7.462,10.23,8.921c4.221,1.415,9.118,1.25,13.541-0.953"/>
<path fill="none" stroke="#56DAF3" stroke-width="3" stroke-linecap="round" stroke-linejoin="round" stroke-miterlimit="10" d="
	M116.246,79.308c2.743,5.398,7.503,9.522,13.218,11.438c5.78,1.938,11.869,1.451,17.44-1.161"/>
<path fill="none" stroke="#56DAF3" stroke-width="3" stroke-linecap="square" stroke-miterlimit="10" d="M22.234,170.225
	l28.056,7.764c0.608,0.168,0.962,0.801,0.792,1.412l-13.551,48.973c-0.169,0.611-0.799,0.973-1.406,0.805l-26.957-7.459
	c-0.607-0.169-0.963-0.802-0.793-1.414l11.875-42.914"/>
<path fill="none" stroke="#56DAF3" stroke-width="3" stroke-linecap="square" stroke-miterlimit="10" d="M38.609,243.164
	L1.329,232.85c-0.818-0.228-1.298-1.074-1.072-1.893l18.256-65.977c0.227-0.818,1.075-1.299,1.893-1.071l35.798,9.905
	c0.818,0.228,1.299,1.072,1.072,1.894L40.57,236.08"/>
<path fill="#FFFFFF" stroke="#56DAF3" stroke-miterlimit="10" d="M23.263,232.355c-0.359,1.295-1.701,2.056-2.998,1.696
	c-1.297-0.358-2.057-1.7-1.698-2.995c0.359-1.298,1.7-2.058,2.996-1.699C22.86,229.718,23.621,231.059,23.263,232.355"/>
<path fill="none" stroke="#56DAF3" stroke-width="3" stroke-linecap="round" stroke-linejoin="round" stroke-miterlimit="10" d="
	M57.791,198.643c2.934-1.604,5.027-4.295,5.922-7.531c0.895-3.233,0.479-6.618-1.209-9.502"/>
<path fill="none" stroke="#56DAF3" stroke-width="3" stroke-linecap="round" stroke-linejoin="round" stroke-miterlimit="10" d="
	M61.426,203.484c4.3-2.436,7.137-6.27,8.361-10.691c1.188-4.291,0.761-9.172-1.675-13.471"/>
<path fill="none" stroke="#56DAF3" stroke-width="3" stroke-linecap="round" stroke-linejoin="round" stroke-miterlimit="10" d="
	M65.145,208.282c5.244-3.027,9.108-8.001,10.715-13.812c1.626-5.875,0.813-11.929-2.092-17.353"/>
<path fill="none" stroke="#56DAF3" stroke-width="2.5" stroke-linecap="square" stroke-miterlimit="10" d="M168.764,130.836
	l22.583-5.391c0.489-0.117,0.98,0.188,1.098,0.68l9.412,39.42c0.118,0.492-0.182,0.986-0.671,1.104l-21.698,5.182
	c-0.489,0.117-0.982-0.188-1.1-0.682l-8.248-34.543"/>
<path fill="none" stroke="#56DAF3" stroke-width="2.5" stroke-linecap="square" stroke-miterlimit="10" d="M208.31,175.458
	l-30.007,7.165c-0.658,0.156-1.32-0.25-1.478-0.907l-12.679-53.104c-0.158-0.659,0.249-1.321,0.908-1.479l28.814-6.881
	c0.659-0.156,1.32,0.249,1.478,0.909l11.603,48.595"/>
<path fill="#FFFFFF" stroke="#56DAF3" stroke-width="2.5" stroke-miterlimit="10" d="M193.428,173.826
	c0.249,1.042-0.396,2.091-1.439,2.34c-1.043,0.249-2.091-0.396-2.34-1.438c-0.249-1.045,0.395-2.093,1.438-2.342
	C192.13,172.139,193.178,172.782,193.428,173.826"/>
<path fill="none" stroke="#56DAF3" stroke-width="2.5" stroke-linecap="round" stroke-linejoin="round" stroke-miterlimit="10" d="
	M204.544,136.977c1.43-2.252,1.855-4.936,1.233-7.541c-0.621-2.604-2.216-4.807-4.507-6.17"/>
<path fill="none" stroke="#56DAF3" stroke-width="2.5" stroke-linecap="round" stroke-linejoin="round" stroke-miterlimit="10" d="
	M208.95,138.958c2.063-3.358,2.567-7.129,1.718-10.688c-0.825-3.455-3.004-6.697-6.361-8.761"/>
<path fill="none" stroke="#56DAF3" stroke-width="2.5" stroke-linecap="round" stroke-linejoin="round" stroke-miterlimit="10" d="
	M213.396,140.873c2.495-4.135,3.276-9.096,2.159-13.771c-1.129-4.729-4.029-8.645-8.148-11.312"/>
<path fill="none" stroke="#56DAF3" stroke-width="3" stroke-linecap="square" stroke-miterlimit="10" d="M297.436,197.641
	l26.06-12.975c0.563-0.281,1.251-0.047,1.534,0.521l22.646,45.485c0.284,0.569,0.058,1.259-0.508,1.538l-25.038,12.467
	c-0.563,0.28-1.252,0.049-1.536-0.521l-19.845-39.86"/>
<path fill="none" stroke="#56DAF3" stroke-width="3" stroke-linecap="square" stroke-miterlimit="10" d="M358.363,240.958
	l-34.627,17.239c-0.76,0.379-1.684,0.068-2.062-0.69l-30.509-61.278c-0.379-0.762-0.07-1.685,0.69-2.063l33.251-16.556
	c0.76-0.377,1.683-0.068,2.063,0.692l27.918,56.075"/>
<path fill="#FFFFFF" stroke="#56DAF3" stroke-miterlimit="10" d="M339.723,243.174c0.601,1.203,0.108,2.665-1.096,3.266
	c-1.204,0.6-2.666,0.108-3.266-1.094c-0.601-1.205-0.109-2.666,1.095-3.267C337.662,241.479,339.124,241.971,339.723,243.174"/>
<path fill="none" stroke="#56DAF3" stroke-width="3" stroke-linecap="round" stroke-linejoin="round" stroke-miterlimit="10" d="
	M342.878,195.02c1.109-3.154,0.869-6.555-0.627-9.561c-1.495-3.005-4.066-5.244-7.25-6.262"/>
<path fill="none" stroke="#56DAF3" stroke-width="3" stroke-linecap="round" stroke-linejoin="round" stroke-miterlimit="10" d="
	M348.819,196.193c1.57-4.687,1.12-9.436-0.927-13.543c-1.982-3.985-5.563-7.332-10.248-8.901"/>
<path fill="none" stroke="#56DAF3" stroke-width="3" stroke-linecap="round" stroke-linejoin="round" stroke-miterlimit="10" d="
	M354.792,197.273c1.878-5.756,1.428-12.037-1.259-17.434c-2.717-5.457-7.366-9.419-13.151-11.511"/>
<path fill="none" stroke="#56DAF3" stroke-width="3" stroke-linecap="square" stroke-miterlimit="10" d="M313.912,89.05
	l-24.801-15.241c-0.538-0.329-0.703-1.036-0.37-1.577l26.604-43.292c0.332-0.541,1.036-0.712,1.573-0.382l23.83,14.644
	c0.538,0.33,0.704,1.038,0.372,1.579l-23.313,37.938"/>
<path fill="none" stroke="#56DAF3" stroke-width="3" stroke-linecap="square" stroke-miterlimit="10" d="M318.412,14.429
	l32.956,20.252c0.723,0.443,0.948,1.391,0.505,2.113l-35.84,58.322c-0.445,0.726-1.394,0.95-2.115,0.507l-31.646-19.448
	c-0.723-0.444-0.95-1.39-0.504-2.115l32.794-53.369"/>
<path fill="#FFFFFF" stroke="#56DAF3" stroke-miterlimit="10" d="M330.159,29.07c0.703-1.145,2.204-1.503,3.351-0.798
	c1.146,0.704,1.503,2.204,0.8,3.349c-0.704,1.146-2.204,1.504-3.351,0.8S329.455,30.216,330.159,29.07"/>
<path fill="none" stroke="#56DAF3" stroke-width="3" stroke-linecap="round" stroke-linejoin="round" stroke-miterlimit="10" d="
	M287.634,51.883c-3.265,0.729-6.021,2.732-7.779,5.593c-1.757,2.859-2.298,6.226-1.475,9.466"/>
<path fill="none" stroke="#56DAF3" stroke-width="3" stroke-linecap="round" stroke-linejoin="round" stroke-miterlimit="10" d="
	M285.485,46.222c-4.807,1.147-8.597,4.044-11,7.953c-2.331,3.793-3.276,8.601-2.127,13.408"/>
<path fill="none" stroke="#56DAF3" stroke-width="3" stroke-linecap="round" stroke-linejoin="round" stroke-miterlimit="10" d="
	M283.241,40.582c-5.877,1.454-10.97,5.16-14.125,10.295c-3.191,5.194-4.09,11.237-2.803,17.253"/>
<path fill="none" stroke="#56DAF3" stroke-width="3" stroke-linecap="square" stroke-miterlimit="10" d="M440.167,155.8
	l27.647,9.115c0.598,0.196,0.922,0.847,0.723,1.449l-15.91,48.257c-0.198,0.604-0.845,0.934-1.443,0.734l-26.563-8.756
	c-0.599-0.199-0.924-0.848-0.725-1.451l13.941-42.289"/>
<path fill="none" stroke="#56DAF3" stroke-width="3" stroke-linecap="square" stroke-miterlimit="10" d="M452.987,229.449
	l-36.736-12.112c-0.806-0.265-1.244-1.135-0.979-1.94l21.435-65.012c0.266-0.808,1.135-1.246,1.941-0.98l35.275,11.631
	c0.807,0.267,1.244,1.135,0.979,1.943l-19.614,59.49"/>
<path fill="#FFFFFF" stroke="#56DAF3" stroke-miterlimit="10" d="M438.182,217.909c-0.421,1.276-1.799,1.97-3.075,1.549
	c-1.277-0.421-1.972-1.798-1.552-3.074c0.421-1.278,1.799-1.973,3.075-1.551C437.909,215.255,438.603,216.632,438.182,217.909"/>
<path fill="none" stroke="#56DAF3" stroke-width="3" stroke-linecap="round" stroke-linejoin="round" stroke-miterlimit="10" d="
	M474.304,185.909c3.008-1.461,5.229-4.046,6.281-7.234s0.8-6.588-0.747-9.551"/>
<path fill="none" stroke="#56DAF3" stroke-width="3" stroke-linecap="round" stroke-linejoin="round" stroke-miterlimit="10" d="
	M477.7,190.923c4.413-2.224,7.434-5.916,8.871-10.274c1.395-4.228,1.205-9.123-1.021-13.535"/>
<path fill="none" stroke="#56DAF3" stroke-width="3" stroke-linecap="round" stroke-linejoin="round" stroke-miterlimit="10" d="
	M481.184,195.895c5.385-2.769,9.484-7.549,11.371-13.273c1.909-5.789,1.394-11.876-1.247-17.434"/>
<path fill="none" stroke="#56DAF3" stroke-width="3" stroke-linecap="square" stroke-miterlimit="10" d="M-24.215,6.862
	L-4.04-14.122c0.438-0.456,1.162-0.466,1.619-0.026l36.63,35.216c0.458,0.44,0.476,1.165,0.039,1.62L14.864,42.851
	c-0.438,0.454-1.164,0.466-1.622,0.025l-32.1-30.86"/>
<path fill="none" stroke="#56DAF3" stroke-width="3" stroke-linecap="square" stroke-miterlimit="10" d="M47.733,27.157
	L20.925,55.042c-0.588,0.611-1.562,0.63-2.174,0.043L-30.597,7.642c-0.612-0.59-0.631-1.563-0.043-2.175l25.743-26.775
	c0.588-0.612,1.561-0.632,2.175-0.043l45.157,43.414"/>
<path fill="#FFFFFF" stroke="#56DAF3" stroke-miterlimit="10" d="M30.925,35.514c0.97,0.932,0.999,2.475,0.067,3.444
	c-0.932,0.969-2.474,1-3.443,0.068c-0.97-0.933-1-2.475-0.068-3.443C28.414,34.613,29.955,34.582,30.925,35.514"/>
<path fill="none" stroke="#56DAF3" stroke-width="3" stroke-linecap="round" stroke-linejoin="round" stroke-miterlimit="10" d="
	M17.696-10.895c-0.017-3.344-1.386-6.465-3.807-8.792c-2.419-2.326-5.594-3.571-8.934-3.458"/>
<path fill="none" stroke="#56DAF3" stroke-width="3" stroke-linecap="round" stroke-linejoin="round" stroke-miterlimit="10" d="
	M23.686-11.789c-0.097-4.941-2.12-9.26-5.428-12.441c-3.209-3.086-7.706-5.032-12.646-4.934"/>
<path fill="none" stroke="#56DAF3" stroke-width="3" stroke-linecap="round" stroke-linejoin="round" stroke-miterlimit="10" d="
	M29.674-12.778c-0.168-6.053-2.705-11.818-7.051-15.995c-4.394-4.226-10.105-6.391-16.259-6.415"/>
<path fill="none" stroke="#56DAF3" stroke-width="3" stroke-linecap="square" stroke-miterlimit="10" d="M1213.736,19.958
	l-9.254,27.601c-0.199,0.598-0.851,0.918-1.452,0.716l-48.179-16.15c-0.603-0.202-0.929-0.849-0.728-1.447l8.889-26.52
	c0.201-0.598,0.853-0.919,1.455-0.718l42.219,14.153"/>
<path fill="none" stroke="#56DAF3" stroke-width="3" stroke-linecap="square" stroke-miterlimit="10" d="M1140.023,32.411
	l12.295-36.675c0.27-0.805,1.142-1.239,1.944-0.969l64.905,21.758c0.806,0.27,1.239,1.142,0.97,1.947l-11.806,35.217
	c-0.271,0.805-1.141,1.239-1.947,0.969l-59.394-19.91"/>
<path fill="#FFFFFF" stroke="#56DAF3" stroke-miterlimit="10" d="M1151.637,17.664c-1.272-0.427-1.961-1.808-1.533-3.084
	c0.429-1.275,1.809-1.962,3.082-1.535c1.275,0.428,1.964,1.808,1.535,3.083C1154.293,17.403,1152.913,18.091,1151.637,17.664"/>
<path fill="none" stroke="#56DAF3" stroke-width="3" stroke-linecap="round" stroke-linejoin="round" stroke-miterlimit="10" d="
	M1183.457,53.945c1.445,3.016,4.02,5.25,7.203,6.317c3.182,1.067,6.584,0.833,9.555-0.699"/>
<path fill="none" stroke="#56DAF3" stroke-width="3" stroke-linecap="round" stroke-linejoin="round" stroke-miterlimit="10" d="
	M1178.426,57.316c2.202,4.424,5.879,7.462,10.23,8.921c4.221,1.415,9.117,1.25,13.541-0.953"/>
<path fill="none" stroke="#56DAF3" stroke-width="3" stroke-linecap="round" stroke-linejoin="round" stroke-miterlimit="10" d="
	M1173.438,60.774c2.742,5.398,7.502,9.522,13.218,11.438c5.78,1.938,11.869,1.451,17.439-1.161"/>
<path fill="none" stroke="#56DAF3" stroke-width="3" stroke-linecap="square" stroke-miterlimit="10" d="M1079.426,206.82
	l28.057,7.765c0.607,0.168,0.962,0.801,0.792,1.412l-13.552,48.974c-0.169,0.611-0.799,0.973-1.405,0.805l-26.957-7.459
	c-0.607-0.17-0.964-0.803-0.793-1.414l11.875-42.916"/>
<path fill="none" stroke="#56DAF3" stroke-width="3" stroke-linecap="square" stroke-miterlimit="10" d="M1095.801,279.762
	l-37.279-10.314c-0.817-0.227-1.299-1.074-1.072-1.893l18.257-65.976c0.227-0.819,1.074-1.3,1.893-1.072l35.797,9.906
	c0.818,0.228,1.301,1.071,1.072,1.894l-16.705,60.371"/>
<path fill="#FFFFFF" stroke="#56DAF3" stroke-miterlimit="10" d="M1080.454,268.953c-0.358,1.296-1.701,2.056-2.997,1.697
	c-1.297-0.358-2.057-1.7-1.698-2.996c0.358-1.297,1.7-2.057,2.995-1.698C1080.052,266.314,1080.813,267.656,1080.454,268.953"/>
<path fill="none" stroke="#56DAF3" stroke-width="3" stroke-linecap="round" stroke-linejoin="round" stroke-miterlimit="10" d="
	M1114.982,235.24c2.934-1.605,5.026-4.295,5.922-7.531c0.895-3.234,0.479-6.619-1.209-9.503"/>
<path fill="none" stroke="#56DAF3" stroke-width="3" stroke-linecap="round" stroke-linejoin="round" stroke-miterlimit="10" d="
	M1118.617,240.083c4.301-2.437,7.137-6.271,8.36-10.692c1.188-4.291,0.762-9.172-1.675-13.471"/>
<path fill="none" stroke="#56DAF3" stroke-width="3" stroke-linecap="round" stroke-linejoin="round" stroke-miterlimit="10" d="
	M1122.336,244.88c5.244-3.026,9.109-8.001,10.716-13.812c1.626-5.875,0.813-11.928-2.092-17.353"/>
<path fill="none" stroke="#56DAF3" stroke-width="2.5" stroke-linecap="square" stroke-miterlimit="10" d="M1225.955,182.836
	l22.583-5.391c0.489-0.117,0.979,0.188,1.098,0.68l9.411,39.42c0.119,0.492-0.182,0.986-0.671,1.104l-21.698,5.182
	c-0.488,0.117-0.98-0.188-1.1-0.682l-8.248-34.543"/>
<path fill="none" stroke="#56DAF3" stroke-width="2.5" stroke-linecap="square" stroke-miterlimit="10" d="M1265.501,227.458
	l-30.007,7.165c-0.658,0.156-1.32-0.25-1.479-0.907l-12.678-53.104c-0.158-0.659,0.248-1.321,0.907-1.479l28.813-6.881
	c0.659-0.156,1.32,0.249,1.479,0.909l11.604,48.595"/>
<path fill="#FFFFFF" stroke="#56DAF3" stroke-width="2.5" stroke-miterlimit="10" d="M1250.619,225.826
	c0.249,1.042-0.396,2.091-1.439,2.34s-2.091-0.396-2.34-1.438c-0.249-1.045,0.396-2.093,1.438-2.342
	C1249.322,224.139,1250.369,224.782,1250.619,225.826"/>
<path fill="none" stroke="#56DAF3" stroke-width="2.5" stroke-linecap="round" stroke-linejoin="round" stroke-miterlimit="10" d="
	M1261.736,188.977c1.43-2.252,1.854-4.936,1.231-7.541c-0.621-2.604-2.215-4.807-4.506-6.17"/>
<path fill="none" stroke="#56DAF3" stroke-width="2.5" stroke-linecap="round" stroke-linejoin="round" stroke-miterlimit="10" d="
	M1266.141,190.958c2.064-3.358,2.567-7.129,1.72-10.688c-0.825-3.455-3.005-6.697-6.361-8.762"/>
<path fill="none" stroke="#56DAF3" stroke-width="2.5" stroke-linecap="round" stroke-linejoin="round" stroke-miterlimit="10" d="
	M1270.588,192.873c2.494-4.135,3.275-9.096,2.158-13.771c-1.129-4.729-4.029-8.645-8.148-11.312"/>
<path fill="none" stroke="#56DAF3" stroke-width="3" stroke-linecap="square" stroke-miterlimit="10" d="M1354.627,197.641
	l26.061-12.975c0.563-0.281,1.25-0.047,1.533,0.521l22.646,45.485c0.283,0.569,0.057,1.259-0.508,1.538l-25.039,12.467
	c-0.564,0.28-1.252,0.049-1.535-0.521l-19.846-39.86"/>
<path fill="none" stroke="#56DAF3" stroke-width="3" stroke-linecap="square" stroke-miterlimit="10" d="M1415.555,240.958
	l-34.627,17.239c-0.76,0.379-1.684,0.068-2.061-0.69l-30.51-61.278c-0.379-0.762-0.07-1.685,0.688-2.063l33.252-16.556
	c0.76-0.377,1.683-0.068,2.063,0.692l27.918,56.075"/>
<path fill="#FFFFFF" stroke="#56DAF3" stroke-miterlimit="10" d="M1396.914,243.174c0.6,1.203,0.109,2.665-1.096,3.266
	c-1.203,0.6-2.666,0.108-3.267-1.094c-0.6-1.205-0.108-2.666,1.097-3.267C1394.853,241.479,1396.314,241.971,1396.914,243.174"/>
<path fill="none" stroke="#56DAF3" stroke-width="3" stroke-linecap="round" stroke-linejoin="round" stroke-miterlimit="10" d="
	M1400.07,195.02c1.108-3.154,0.869-6.555-0.627-9.561c-1.496-3.005-4.066-5.244-7.25-6.262"/>
<path fill="none" stroke="#56DAF3" stroke-width="3" stroke-linecap="round" stroke-linejoin="round" stroke-miterlimit="10" d="
	M1406.01,196.193c1.572-4.687,1.121-9.436-0.926-13.543c-1.982-3.985-5.563-7.332-10.248-8.901"/>
<path fill="none" stroke="#56DAF3" stroke-width="3" stroke-linecap="round" stroke-linejoin="round" stroke-miterlimit="10" d="
	M1411.984,197.273c1.877-5.756,1.428-12.037-1.261-17.434c-2.717-5.457-7.364-9.419-13.149-11.511"/>
<path fill="none" stroke="#56DAF3" stroke-width="3" stroke-linecap="square" stroke-miterlimit="10" d="M1371.104,89.05
	l-24.801-15.241c-0.538-0.329-0.703-1.036-0.37-1.577l26.604-43.292c0.332-0.541,1.036-0.712,1.573-0.382l23.829,14.644
	c0.538,0.33,0.704,1.038,0.372,1.579l-23.313,37.938"/>
<path fill="none" stroke="#56DAF3" stroke-width="3" stroke-linecap="square" stroke-miterlimit="10" d="M1375.604,14.429
	l32.957,20.252c0.723,0.443,0.947,1.391,0.505,2.113l-35.841,58.322c-0.444,0.726-1.393,0.95-2.114,0.507l-31.646-19.448
	c-0.723-0.444-0.95-1.39-0.504-2.115l32.795-53.369"/>
<path fill="#FFFFFF" stroke="#56DAF3" stroke-miterlimit="10" d="M1387.351,29.07c0.703-1.145,2.204-1.503,3.352-0.798
	c1.146,0.704,1.503,2.204,0.8,3.349c-0.705,1.146-2.205,1.504-3.351,0.8C1387.005,31.717,1386.646,30.216,1387.351,29.07"/>
<path fill="none" stroke="#56DAF3" stroke-width="3" stroke-linecap="round" stroke-linejoin="round" stroke-miterlimit="10" d="
	M1344.825,51.883c-3.266,0.729-6.021,2.732-7.778,5.593c-1.758,2.859-2.299,6.226-1.476,9.466"/>
<path fill="none" stroke="#56DAF3" stroke-width="3" stroke-linecap="round" stroke-linejoin="round" stroke-miterlimit="10" d="
	M1342.677,46.222c-4.808,1.147-8.597,4.044-11,7.953c-2.331,3.793-3.275,8.601-2.127,13.408"/>
<path fill="none" stroke="#56DAF3" stroke-width="3" stroke-linecap="round" stroke-linejoin="round" stroke-miterlimit="10" d="
	M1340.433,40.582c-5.878,1.454-10.97,5.16-14.126,10.295c-3.19,5.194-4.09,11.237-2.803,17.253"/>
<path fill="none" stroke="#56DAF3" stroke-width="3" stroke-linecap="square" stroke-miterlimit="10" d="M1467.596-7.171
	l29.107-0.396c0.631-0.01,1.147,0.499,1.156,1.134l0.692,50.808c0.011,0.634-0.494,1.157-1.125,1.166l-27.967,0.382
	c-0.631,0.008-1.15-0.5-1.158-1.135l-0.606-44.523"/>
<path fill="none" stroke="#56DAF3" stroke-width="3" stroke-linecap="square" stroke-miterlimit="10" d="M1503.727,58.273
	l-38.678,0.527c-0.848,0.013-1.547-0.668-1.559-1.515l-0.934-68.448c-0.013-0.851,0.668-1.548,1.516-1.56l37.141-0.505
	c0.851-0.012,1.549,0.665,1.56,1.517l0.854,62.634"/>
<path fill="#FFFFFF" stroke="#56DAF3" stroke-miterlimit="10" d="M1485.969,52.191c0.019,1.344-1.059,2.449-2.404,2.468
	c-1.344,0.018-2.448-1.058-2.467-2.401c-0.018-1.346,1.058-2.451,2.4-2.469C1484.844,49.771,1485.949,50.847,1485.969,52.191"/>
<path fill="none" stroke="#56DAF3" stroke-width="3" stroke-linecap="round" stroke-linejoin="round" stroke-miterlimit="10" d="
	M1509.684,10.163c2.367-2.363,3.625-5.53,3.578-8.887c-0.045-3.355-1.391-6.489-3.817-8.786"/>
<path fill="none" stroke="#56DAF3" stroke-width="3" stroke-linecap="round" stroke-linejoin="round" stroke-miterlimit="10" d="
	M1514.529,13.795c3.444-3.541,5.096-8.016,5.035-12.605c-0.062-4.451-1.836-9.019-5.377-12.464"/>
<path fill="none" stroke="#56DAF3" stroke-width="3" stroke-linecap="round" stroke-linejoin="round" stroke-miterlimit="10" d="
	M1519.443,17.359c4.186-4.373,6.504-10.229,6.422-16.256c-0.084-6.096-2.558-11.681-6.865-16.074"/>
<path fill="none" stroke="#56DAF3" stroke-width="3" stroke-linecap="square" stroke-miterlimit="10" d="M1502.596,138.746
	l27.648,9.115c0.598,0.195,0.922,0.847,0.723,1.449l-15.91,48.256c-0.199,0.604-0.846,0.935-1.442,0.736l-26.564-8.757
	c-0.598-0.198-0.924-0.848-0.725-1.452l13.942-42.287"/>
<path fill="none" stroke="#56DAF3" stroke-width="3" stroke-linecap="square" stroke-miterlimit="10" d="M1515.416,212.396
	l-36.736-12.112c-0.807-0.265-1.244-1.136-0.979-1.94l21.434-65.012c0.267-0.809,1.135-1.246,1.941-0.98l35.277,11.631
	c0.805,0.267,1.243,1.135,0.979,1.942l-19.615,59.491"/>
<path fill="#FFFFFF" stroke="#56DAF3" stroke-miterlimit="10" d="M1500.611,200.855c-0.422,1.275-1.799,1.97-3.076,1.549
	c-1.277-0.422-1.971-1.799-1.551-3.074c0.42-1.278,1.797-1.973,3.073-1.551C1500.338,198.201,1501.031,199.578,1500.611,200.855"/>
<path fill="none" stroke="#56DAF3" stroke-width="3" stroke-linecap="round" stroke-linejoin="round" stroke-miterlimit="10" d="
	M1536.732,168.855c3.008-1.461,5.229-4.047,6.28-7.234c1.054-3.188,0.802-6.588-0.745-9.551"/>
<path fill="none" stroke="#56DAF3" stroke-width="3" stroke-linecap="round" stroke-linejoin="round" stroke-miterlimit="10" d="
	M1540.129,173.869c4.412-2.225,7.434-5.916,8.871-10.275c1.395-4.227,1.205-9.123-1.021-13.535"/>
<path fill="none" stroke="#56DAF3" stroke-width="3" stroke-linecap="round" stroke-linejoin="round" stroke-miterlimit="10" d="
	M1543.613,178.841c5.383-2.769,9.483-7.55,11.371-13.274c1.907-5.789,1.393-11.875-1.248-17.433"/>
<path fill="none" stroke="#56DAF3" stroke-width="3" stroke-linecap="square" stroke-miterlimit="10" d="M1629.843,38.493
	l-9.253,27.601c-0.2,0.598-0.851,0.918-1.453,0.716l-48.178-16.15c-0.604-0.202-0.929-0.849-0.729-1.447l8.89-26.52
	c0.201-0.598,0.852-0.919,1.455-0.718l42.219,14.153"/>
<path fill="none" stroke="#56DAF3" stroke-width="3" stroke-linecap="square" stroke-miterlimit="10" d="M1556.13,50.945
	l12.295-36.675c0.271-0.805,1.143-1.239,1.945-0.969l64.905,21.758c0.806,0.27,1.238,1.142,0.97,1.947l-11.806,35.217
	c-0.271,0.805-1.142,1.239-1.947,0.969l-59.395-19.91"/>
<path fill="#FFFFFF" stroke="#56DAF3" stroke-miterlimit="10" d="M1567.743,36.198c-1.273-0.427-1.961-1.808-1.533-3.084
	c0.428-1.275,1.808-1.962,3.082-1.535c1.275,0.428,1.963,1.808,1.535,3.083C1570.399,35.938,1569.02,36.625,1567.743,36.198"/>
<path fill="none" stroke="#56DAF3" stroke-width="3" stroke-linecap="round" stroke-linejoin="round" stroke-miterlimit="10" d="
	M1599.563,72.479c1.445,3.016,4.021,5.25,7.203,6.317s6.584,0.833,9.556-0.699"/>
<path fill="none" stroke="#56DAF3" stroke-width="3" stroke-linecap="round" stroke-linejoin="round" stroke-miterlimit="10" d="
	M1594.532,75.85c2.202,4.424,5.879,7.462,10.229,8.921c4.221,1.415,9.117,1.25,13.541-0.953"/>
<path fill="none" stroke="#56DAF3" stroke-width="3" stroke-linecap="round" stroke-linejoin="round" stroke-miterlimit="10" d="
	M1589.544,79.308c2.742,5.398,7.502,9.522,13.217,11.438c5.781,1.938,11.869,1.451,17.44-1.161"/>
<path fill="none" stroke="#56DAF3" stroke-width="2.5" stroke-linecap="square" stroke-miterlimit="10" d="M1642.063,130.836
	l22.582-5.391c0.489-0.117,0.98,0.188,1.099,0.68l9.411,39.42c0.119,0.492-0.183,0.986-0.671,1.104l-21.698,5.182
	c-0.488,0.117-0.981-0.188-1.1-0.682l-8.248-34.543"/>
<path fill="none" stroke="#56DAF3" stroke-width="2.5" stroke-linecap="square" stroke-miterlimit="10" d="M1681.607,175.458
	l-30.008,7.165c-0.657,0.156-1.319-0.25-1.479-0.907l-12.678-53.104c-0.158-0.659,0.248-1.321,0.906-1.479l28.814-6.881
	c0.659-0.156,1.32,0.249,1.479,0.909l11.604,48.595"/>
<path fill="#FFFFFF" stroke="#56DAF3" stroke-width="2.5" stroke-miterlimit="10" d="M1666.726,173.826
	c0.249,1.042-0.396,2.091-1.438,2.34s-2.091-0.396-2.34-1.438c-0.249-1.045,0.395-2.093,1.438-2.342
	C1665.429,172.139,1666.476,172.782,1666.726,173.826"/>
<path fill="none" stroke="#56DAF3" stroke-width="2.5" stroke-linecap="round" stroke-linejoin="round" stroke-miterlimit="10" d="
	M1677.843,136.977c1.431-2.252,1.855-4.936,1.232-7.541c-0.621-2.604-2.215-4.807-4.506-6.17"/>
<path fill="none" stroke="#56DAF3" stroke-width="2.5" stroke-linecap="round" stroke-linejoin="round" stroke-miterlimit="10" d="
	M1682.247,138.958c2.063-3.358,2.567-7.129,1.719-10.688c-0.825-3.455-3.004-6.697-6.36-8.761"/>
<path fill="none" stroke="#56DAF3" stroke-width="2.5" stroke-linecap="round" stroke-linejoin="round" stroke-miterlimit="10" d="
	M1686.694,140.873c2.493-4.135,3.274-9.096,2.157-13.771c-1.129-4.729-4.028-8.645-8.147-11.312"/>
<path fill="none" stroke="#56DAF3" stroke-width="3" stroke-linecap="square" stroke-miterlimit="10" d="M1770.733,197.641
	l26.061-12.975c0.563-0.281,1.25-0.047,1.533,0.521l22.646,45.485c0.283,0.569,0.058,1.259-0.508,1.538l-25.039,12.467
	c-0.563,0.28-1.252,0.049-1.535-0.521l-19.846-39.86"/>
<path fill="none" stroke="#56DAF3" stroke-width="3" stroke-linecap="square" stroke-miterlimit="10" d="M1831.661,240.958
	l-34.627,17.239c-0.76,0.379-1.685,0.068-2.062-0.69l-30.51-61.278c-0.379-0.762-0.07-1.685,0.689-2.063l33.252-16.556
	c0.76-0.377,1.682-0.068,2.063,0.692l27.918,56.075"/>
<path fill="#FFFFFF" stroke="#56DAF3" stroke-miterlimit="10" d="M1813.021,243.174c0.6,1.203,0.108,2.665-1.097,3.266
	c-1.203,0.6-2.666,0.108-3.266-1.094c-0.601-1.205-0.109-2.666,1.096-3.267S1812.421,241.971,1813.021,243.174"/>
<path fill="none" stroke="#56DAF3" stroke-width="3" stroke-linecap="round" stroke-linejoin="round" stroke-miterlimit="10" d="
	M1816.177,195.02c1.109-3.154,0.869-6.555-0.627-9.561c-1.496-3.005-4.065-5.244-7.25-6.262"/>
<path fill="none" stroke="#56DAF3" stroke-width="3" stroke-linecap="round" stroke-linejoin="round" stroke-miterlimit="10" d="
	M1822.116,196.193c1.571-4.687,1.121-9.436-0.927-13.543c-1.981-3.985-5.563-7.332-10.248-8.901"/>
<path fill="none" stroke="#56DAF3" stroke-width="3" stroke-linecap="round" stroke-linejoin="round" stroke-miterlimit="10" d="
	M1828.091,197.273c1.877-5.756,1.428-12.037-1.26-17.434c-2.717-5.457-7.365-9.419-13.15-11.511"/>
<path fill="none" stroke="#56DAF3" stroke-width="3" stroke-linecap="square" stroke-miterlimit="10" d="M1787.21,89.05
	l-24.801-15.241c-0.538-0.329-0.703-1.036-0.37-1.577l26.604-43.292c0.332-0.541,1.036-0.712,1.573-0.382l23.83,14.644
	c0.538,0.33,0.704,1.038,0.372,1.579l-23.313,37.938"/>
<path fill="none" stroke="#56DAF3" stroke-width="3" stroke-linecap="square" stroke-miterlimit="10" d="M1791.71,14.429
	l32.956,20.252c0.723,0.443,0.948,1.391,0.505,2.113l-35.84,58.322c-0.445,0.726-1.393,0.95-2.115,0.507l-31.646-19.448
	c-0.724-0.444-0.95-1.39-0.504-2.115l32.795-53.369"/>
<path fill="#FFFFFF" stroke="#56DAF3" stroke-miterlimit="10" d="M1803.457,29.07c0.703-1.145,2.204-1.503,3.351-0.798
	c1.146,0.704,1.503,2.204,0.801,3.349c-0.705,1.146-2.205,1.504-3.352,0.8C1803.111,31.717,1802.753,30.216,1803.457,29.07"/>
<path fill="none" stroke="#56DAF3" stroke-width="3" stroke-linecap="round" stroke-linejoin="round" stroke-miterlimit="10" d="
	M1760.932,51.883c-3.265,0.729-6.021,2.732-7.777,5.593c-1.758,2.859-2.299,6.226-1.477,9.466"/>
<path fill="none" stroke="#56DAF3" stroke-width="3" stroke-linecap="round" stroke-linejoin="round" stroke-miterlimit="10" d="
	M1758.783,46.222c-4.809,1.147-8.598,4.044-11,7.953c-2.331,3.793-3.276,8.601-2.127,13.408"/>
<path fill="none" stroke="#56DAF3" stroke-width="3" stroke-linecap="round" stroke-linejoin="round" stroke-miterlimit="10" d="
	M1756.539,40.582c-5.878,1.454-10.97,5.16-14.126,10.295c-3.191,5.194-4.09,11.237-2.803,17.253"/>
<path fill="none" stroke="#56DAF3" stroke-width="3" stroke-linecap="square" stroke-miterlimit="10" d="M1883.702-7.171
	l29.106-0.396c0.632-0.01,1.148,0.499,1.156,1.134l0.693,50.808c0.01,0.634-0.494,1.157-1.125,1.166l-27.967,0.382
	c-0.631,0.008-1.15-0.5-1.158-1.135l-0.607-44.523"/>
<path fill="none" stroke="#56DAF3" stroke-width="3" stroke-linecap="square" stroke-miterlimit="10" d="M1919.833,58.273
	l-38.678,0.527c-0.849,0.013-1.547-0.668-1.56-1.515l-0.934-68.448c-0.012-0.851,0.668-1.548,1.516-1.56l37.142-0.505
	c0.85-0.012,1.549,0.665,1.559,1.517l0.855,62.634"/>
<path fill="#FFFFFF" stroke="#56DAF3" stroke-miterlimit="10" d="M1902.075,52.191c0.018,1.344-1.06,2.449-2.404,2.468
	c-1.344,0.018-2.449-1.058-2.467-2.401c-0.019-1.346,1.057-2.451,2.399-2.469C1900.95,49.771,1902.056,50.847,1902.075,52.191"/>
<path fill="none" stroke="#56DAF3" stroke-width="3" stroke-linecap="round" stroke-linejoin="round" stroke-miterlimit="10" d="
	M1925.79,10.163c2.367-2.363,3.625-5.53,3.578-8.887c-0.045-3.355-1.392-6.489-3.818-8.786"/>
<path fill="none" stroke="#56DAF3" stroke-width="3" stroke-linecap="round" stroke-linejoin="round" stroke-miterlimit="10" d="
	M1930.636,13.795c3.445-3.541,5.097-8.016,5.035-12.605c-0.061-4.451-1.836-9.019-5.377-12.464"/>
<path fill="none" stroke="#56DAF3" stroke-width="3" stroke-linecap="round" stroke-linejoin="round" stroke-miterlimit="10" d="
	M1935.55,17.359c4.187-4.373,6.504-10.229,6.422-16.256c-0.084-6.096-2.557-11.681-6.864-16.074"/>
<path fill="none" stroke="#56DAF3" stroke-width="3" stroke-linecap="square" stroke-miterlimit="10" d="M1918.702,138.746
	l27.647,9.115c0.599,0.195,0.922,0.847,0.724,1.449l-15.91,48.256c-0.199,0.604-0.846,0.935-1.443,0.736l-26.563-8.757
	c-0.599-0.198-0.924-0.848-0.726-1.452l13.943-42.287"/>
<path fill="none" stroke="#56DAF3" stroke-width="3" stroke-linecap="square" stroke-miterlimit="10" d="M1931.521,212.396
	l-36.735-12.112c-0.808-0.265-1.244-1.136-0.979-1.94l21.435-65.012c0.266-0.809,1.135-1.246,1.94-0.98l35.277,11.631
	c0.805,0.267,1.244,1.135,0.979,1.942l-19.614,59.491"/>
<path fill="#FFFFFF" stroke="#56DAF3" stroke-miterlimit="10" d="M1916.718,200.855c-0.422,1.275-1.799,1.97-3.076,1.549
	c-1.276-0.422-1.971-1.799-1.551-3.074c0.42-1.278,1.797-1.973,3.074-1.551C1916.444,198.201,1917.138,199.578,1916.718,200.855"/>
<path fill="none" stroke="#56DAF3" stroke-width="3" stroke-linecap="round" stroke-linejoin="round" stroke-miterlimit="10" d="
	M1952.839,168.855c3.008-1.461,5.23-4.047,6.281-7.234c1.053-3.188,0.801-6.588-0.746-9.551"/>
<path fill="none" stroke="#56DAF3" stroke-width="3" stroke-linecap="round" stroke-linejoin="round" stroke-miterlimit="10" d="
	M1956.235,173.869c4.411-2.225,7.434-5.916,8.87-10.275c1.396-4.227,1.205-9.123-1.021-13.535"/>
<path fill="none" stroke="#56DAF3" stroke-width="3" stroke-linecap="round" stroke-linejoin="round" stroke-miterlimit="10" d="
	M1959.72,178.841c5.384-2.769,9.484-7.55,11.371-13.274c1.908-5.789,1.394-11.875-1.248-17.433"/>
<path fill="none" stroke="#56DAF3" stroke-width="3" stroke-linecap="square" stroke-miterlimit="10" d="M958.601,6.554
	l20.175-20.984c0.438-0.456,1.162-0.466,1.619-0.026l36.631,35.216c0.458,0.44,0.476,1.165,0.039,1.62l-19.386,20.164
	c-0.438,0.454-1.164,0.466-1.621,0.025l-32.1-30.86"/>
<path fill="none" stroke="#56DAF3" stroke-width="3" stroke-linecap="square" stroke-miterlimit="10" d="M1030.548,26.849
	l-26.808,27.885c-0.588,0.611-1.563,0.63-2.174,0.043L952.219,7.333c-0.611-0.59-0.631-1.563-0.043-2.175l25.743-26.775
	c0.588-0.612,1.561-0.632,2.174-0.043l45.157,43.414"/>
<path fill="#FFFFFF" stroke="#56DAF3" stroke-miterlimit="10" d="M1013.74,35.206c0.97,0.932,0.999,2.475,0.066,3.444
	c-0.932,0.969-2.474,1-3.442,0.068c-0.97-0.933-1-2.475-0.068-3.443C1011.229,34.305,1012.771,34.274,1013.74,35.206"/>
<path fill="none" stroke="#56DAF3" stroke-width="3" stroke-linecap="round" stroke-linejoin="round" stroke-miterlimit="10" d="
	M1000.512-11.203c-0.017-3.344-1.386-6.465-3.808-8.792c-2.419-2.326-5.594-3.571-8.935-3.458"/>
<path fill="none" stroke="#56DAF3" stroke-width="3" stroke-linecap="round" stroke-linejoin="round" stroke-miterlimit="10" d="
	M1006.501-12.097c-0.098-4.941-2.12-9.26-5.428-12.441c-3.209-3.086-7.706-5.032-12.646-4.934"/>
<path fill="none" stroke="#56DAF3" stroke-width="3" stroke-linecap="round" stroke-linejoin="round" stroke-miterlimit="10" d="
	M1012.489-13.086c-0.168-6.053-2.705-11.818-7.052-15.995c-4.395-4.226-10.104-6.391-16.259-6.415"/>
</svg>
