<?xml version="1.0" encoding="utf-8"?>
<!-- Generator: Adobe Illustrator 16.0.0, SVG Export Plug-In . SVG Version: 6.00 Build 0)  -->
<!DOCTYPE svg PUBLIC "-//W3C//DTD SVG 1.1//EN" "http://www.w3.org/Graphics/SVG/1.1/DTD/svg11.dtd">
<svg version="1.1" id="Layer_1" xmlns="http://www.w3.org/2000/svg" xmlns:xlink="http://www.w3.org/1999/xlink" x="0px" y="0px"
	 width="1908.67px" height="240px" viewBox="0 0 1908.67 240" enable-background="new 0 0 1908.67 240" xml:space="preserve">
<path fill="none" stroke="#56DAF3" stroke-width="2" stroke-miterlimit="10" d="M930.186,54.49L913.396,6.079
	c-0.307-0.881,0.16-1.843,1.041-2.149l37.645-13.056c0.881-0.306,1.844,0.161,2.15,1.042L973.335,47
	c0.306,0.883-0.161,1.846-1.042,2.152L933.054,62.76"/>
<line fill="none" stroke="#56DAF3" stroke-width="2" stroke-miterlimit="10" x1="943.715" y1="-1.056" x2="960.684" y2="47.87"/>
<line fill="none" stroke="#56DAF3" stroke-width="2" stroke-miterlimit="10" x1="925.509" y1="9.631" x2="931.125" y2="25.821"/>
<line fill="none" stroke="#56DAF3" stroke-width="2" stroke-miterlimit="10" x1="930.167" y1="8.016" x2="934.396" y2="20.214"/>
<line fill="none" stroke="#56DAF3" stroke-width="2" stroke-miterlimit="10" x1="939.102" y1="0.686" x2="956.07" y2="49.611"/>
<path fill="none" stroke="#56DAF3" stroke-width="2" stroke-miterlimit="10" d="M998.564,267.825l-45.513,23.543
	c-0.828,0.431-1.847,0.105-2.273-0.724l-18.31-35.389c-0.429-0.828-0.104-1.85,0.726-2.276l51.783-26.789
	c0.829-0.431,1.851-0.104,2.277,0.724l19.083,36.889"/>
<line fill="none" stroke="#56DAF3" stroke-width="2" stroke-miterlimit="10" x1="941.654" y1="262.383" x2="987.648" y2="238.588"/>
<line fill="none" stroke="#56DAF3" stroke-width="2" stroke-miterlimit="10" x1="954.836" y1="278.871" x2="970.056" y2="270.998"/>
<line fill="none" stroke="#56DAF3" stroke-width="2" stroke-miterlimit="10" x1="952.571" y1="274.494" x2="964.038" y2="268.562"/>
<line fill="none" stroke="#56DAF3" stroke-width="2" stroke-miterlimit="10" x1="944.038" y1="266.699" x2="990.031" y2="242.904"/>
<path fill="none" stroke="#56DAF3" stroke-width="2" stroke-miterlimit="10" d="M1034.861,200.988l51.126-3.402
	c0.932-0.063,1.734,0.643,1.797,1.573l2.646,39.756c0.063,0.931-0.644,1.733-1.572,1.797l-58.176,3.872
	c-0.933,0.063-1.736-0.645-1.8-1.572l-2.758-41.441"/>
<line fill="none" stroke="#56DAF3" stroke-width="2" stroke-miterlimit="10" x1="1084.859" y1="228.712" x2="1033.188" y2="232.15"/>
<line fill="none" stroke="#56DAF3" stroke-width="2" stroke-miterlimit="10" x1="1079.361" y1="208.33" x2="1062.264" y2="209.471"/>
<line fill="none" stroke="#56DAF3" stroke-width="2" stroke-miterlimit="10" x1="1079.689" y1="213.248" x2="1066.807" y2="214.105"/>
<line fill="none" stroke="#56DAF3" stroke-width="2" stroke-miterlimit="10" x1="1084.398" y1="223.803" x2="1032.729" y2="227.242"/>
<path fill="none" stroke="#56DAF3" stroke-width="2" stroke-miterlimit="10" d="M855.857-10.621l-51.015-4.814
	c-0.929-0.086-1.608-0.911-1.521-1.84l3.742-39.667c0.088-0.928,0.91-1.611,1.841-1.523l58.045,5.478
	c0.931,0.088,1.612,0.913,1.523,1.841l-3.9,41.348"/>
<line fill="none" stroke="#56DAF3" stroke-width="2" stroke-miterlimit="10" x1="810.935" y1="-45.98" x2="862.49" y2="-41.116"/>
<line fill="none" stroke="#56DAF3" stroke-width="2" stroke-miterlimit="10" x1="813.104" y1="-24.982" x2="830.163" y2="-23.373"/>
<line fill="none" stroke="#56DAF3" stroke-width="2" stroke-miterlimit="10" x1="813.565" y1="-29.889" x2="826.42" y2="-28.676"/>
<line fill="none" stroke="#56DAF3" stroke-width="2" stroke-miterlimit="10" x1="810.604" y1="-41.061" x2="862.16" y2="-36.196"/>
<path fill="none" stroke="#56DAF3" stroke-width="2" stroke-miterlimit="10" d="M835.938,213.838l51.231,0.944
	c0.933,0.016,1.675,0.786,1.657,1.719l-0.733,39.837c-0.017,0.934-0.787,1.676-1.72,1.657l-58.293-1.072
	c-0.935-0.019-1.678-0.788-1.66-1.721l0.767-41.525"/>
<line fill="none" stroke="#56DAF3" stroke-width="2" stroke-miterlimit="10" x1="883.406" y1="245.7" x2="831.63" y2="244.747"/>
<line fill="none" stroke="#56DAF3" stroke-width="2" stroke-miterlimit="10" x1="879.657" y1="224.926" x2="862.523" y2="224.609"/>
<line fill="none" stroke="#56DAF3" stroke-width="2" stroke-miterlimit="10" x1="879.566" y1="229.854" x2="866.657" y2="229.616"/>
<line fill="none" stroke="#56DAF3" stroke-width="2" stroke-miterlimit="10" x1="883.363" y1="240.77" x2="831.587" y2="239.816"/>
<path fill="none" stroke="#56DAF3" stroke-width="2" stroke-miterlimit="10" d="M739.694,287.408l29.218-42.094
	c0.531-0.769,1.584-0.957,2.351-0.426l32.731,22.719c0.766,0.533,0.956,1.586,0.425,2.353l-33.245,47.896
	c-0.533,0.77-1.586,0.957-2.352,0.428L734.703,294.6"/>
<line fill="none" stroke="#56DAF3" stroke-width="2" stroke-miterlimit="10" x1="792.544" y1="265.604" x2="763.017" y2="308.146"/>
<line fill="none" stroke="#56DAF3" stroke-width="2" stroke-miterlimit="10" x1="773.182" y1="257.193" x2="763.41" y2="271.271"/>
<line fill="none" stroke="#56DAF3" stroke-width="2" stroke-miterlimit="10" x1="777.23" y1="260.005" x2="769.868" y2="270.609"/>
<line fill="none" stroke="#56DAF3" stroke-width="2" stroke-miterlimit="10" x1="788.418" y1="262.902" x2="758.891" y2="305.445"/>
<path fill="none" stroke="#56DAF3" stroke-width="2" stroke-miterlimit="10" d="M791.291,70.267l-51.188,2.294
	c-0.934,0.041-1.723-0.681-1.765-1.612l-1.783-39.803c-0.042-0.932,0.682-1.721,1.612-1.763l58.245-2.609
	c0.934-0.042,1.724,0.68,1.766,1.611l1.858,41.491"/>
<line fill="none" stroke="#56DAF3" stroke-width="2" stroke-miterlimit="10" x1="741.907" y1="41.465" x2="793.639" y2="39.147"/>
<line fill="none" stroke="#56DAF3" stroke-width="2" stroke-miterlimit="10" x1="746.96" y1="61.962" x2="764.079" y2="61.194"/>
<line fill="none" stroke="#56DAF3" stroke-width="2" stroke-miterlimit="10" x1="746.739" y1="57.037" x2="759.638" y2="56.46"/>
<line fill="none" stroke="#56DAF3" stroke-width="2" stroke-miterlimit="10" x1="742.261" y1="46.383" x2="793.993" y2="44.065"/>
<path fill="none" stroke="#56DAF3" stroke-width="2" stroke-miterlimit="10" d="M1013.475-3.158l7.113-50.744
	c0.129-0.923,0.983-1.567,1.907-1.438l39.457,5.53c0.923,0.129,1.565,0.983,1.438,1.907l-8.095,57.738
	c-0.13,0.926-0.983,1.571-1.907,1.441l-41.131-5.767"/>
<line fill="none" stroke="#56DAF3" stroke-width="2" stroke-miterlimit="10" x1="1050.826" y1="-46.438" x2="1043.639" y2="4.845"/>
<line fill="none" stroke="#56DAF3" stroke-width="2" stroke-miterlimit="10" x1="1029.752" y1="-45.221" x2="1027.373" y2="-28.25"/>
<line fill="none" stroke="#56DAF3" stroke-width="2" stroke-miterlimit="10" x1="1034.634" y1="-44.537" x2="1032.841" y2="-31.75"/>
<line fill="none" stroke="#56DAF3" stroke-width="2" stroke-miterlimit="10" x1="1045.927" y1="-46.989" x2="1038.738" y2="4.292"/>
<path fill="none" stroke="#56DAF3" stroke-width="2" stroke-miterlimit="10" d="M547.65,83.338l-16.79-48.411
	c-0.308-0.881,0.161-1.843,1.042-2.149l37.643-13.056c0.881-0.306,1.844,0.161,2.15,1.042l19.104,55.084
	c0.308,0.883-0.161,1.846-1.042,2.152l-39.239,13.607"/>
<line fill="none" stroke="#56DAF3" stroke-width="2" stroke-miterlimit="10" x1="561.179" y1="27.792" x2="578.146" y2="76.718"/>
<line fill="none" stroke="#56DAF3" stroke-width="2" stroke-miterlimit="10" x1="542.973" y1="38.479" x2="548.588" y2="54.669"/>
<line fill="none" stroke="#56DAF3" stroke-width="2" stroke-miterlimit="10" x1="547.63" y1="36.864" x2="551.861" y2="49.062"/>
<line fill="none" stroke="#56DAF3" stroke-width="2" stroke-miterlimit="10" x1="556.566" y1="29.534" x2="573.534" y2="78.459"/>
<path fill="none" stroke="#56DAF3" stroke-width="2" stroke-miterlimit="10" d="M616.028,269.825l-45.513,23.543
	c-0.826,0.431-1.847,0.105-2.273-0.724l-18.31-35.389c-0.429-0.828-0.104-1.85,0.726-2.276l51.784-26.789
	c0.829-0.431,1.85-0.104,2.276,0.724l19.083,36.889"/>
<line fill="none" stroke="#56DAF3" stroke-width="2" stroke-miterlimit="10" x1="559.118" y1="264.383" x2="605.112" y2="240.588"/>
<line fill="none" stroke="#56DAF3" stroke-width="2" stroke-miterlimit="10" x1="572.3" y1="280.871" x2="587.52" y2="272.998"/>
<line fill="none" stroke="#56DAF3" stroke-width="2" stroke-miterlimit="10" x1="570.035" y1="276.494" x2="581.502" y2="270.562"/>
<line fill="none" stroke="#56DAF3" stroke-width="2" stroke-miterlimit="10" x1="561.502" y1="268.699" x2="607.495" y2="244.904"/>
<path fill="none" stroke="#56DAF3" stroke-width="2" stroke-miterlimit="10" d="M652.325,200.988l51.126-3.402
	c0.932-0.063,1.736,0.643,1.797,1.573l2.646,39.756c0.063,0.931-0.644,1.733-1.571,1.797l-58.177,3.872
	c-0.933,0.063-1.736-0.645-1.8-1.572l-2.758-41.441"/>
<line fill="none" stroke="#56DAF3" stroke-width="2" stroke-miterlimit="10" x1="702.323" y1="228.712" x2="650.652" y2="232.15"/>
<line fill="none" stroke="#56DAF3" stroke-width="2" stroke-miterlimit="10" x1="696.825" y1="208.33" x2="679.729" y2="209.471"/>
<line fill="none" stroke="#56DAF3" stroke-width="2" stroke-miterlimit="10" x1="697.153" y1="213.248" x2="684.271" y2="214.105"/>
<line fill="none" stroke="#56DAF3" stroke-width="2" stroke-miterlimit="10" x1="701.862" y1="223.803" x2="650.192" y2="227.242"/>
<path fill="none" stroke="#56DAF3" stroke-width="2" stroke-miterlimit="10" d="M473.321,28.712l-51.015-4.814
	c-0.929-0.086-1.608-0.911-1.521-1.84l3.742-39.667c0.088-0.928,0.912-1.611,1.841-1.523l58.045,5.478
	c0.931,0.088,1.613,0.913,1.525,1.841l-3.902,41.348"/>
<line fill="none" stroke="#56DAF3" stroke-width="2" stroke-miterlimit="10" x1="428.398" y1="-6.647" x2="479.954" y2="-1.783"/>
<line fill="none" stroke="#56DAF3" stroke-width="2" stroke-miterlimit="10" x1="430.566" y1="14.351" x2="447.627" y2="15.96"/>
<line fill="none" stroke="#56DAF3" stroke-width="2" stroke-miterlimit="10" x1="431.029" y1="9.444" x2="443.884" y2="10.657"/>
<line fill="none" stroke="#56DAF3" stroke-width="2" stroke-miterlimit="10" x1="428.068" y1="-1.728" x2="479.624" y2="3.137"/>
<path fill="none" stroke="#56DAF3" stroke-width="2" stroke-miterlimit="10" d="M453.402,176.191l51.229,0.943
	c0.935,0.018,1.675,0.786,1.657,1.721l-0.733,39.836c-0.017,0.934-0.786,1.676-1.72,1.658l-58.293-1.072
	c-0.935-0.02-1.678-0.788-1.66-1.721l0.767-41.525"/>
<line fill="none" stroke="#56DAF3" stroke-width="2" stroke-miterlimit="10" x1="500.87" y1="208.055" x2="449.094" y2="207.102"/>
<line fill="none" stroke="#56DAF3" stroke-width="2" stroke-miterlimit="10" x1="497.121" y1="187.279" x2="479.987" y2="186.965"/>
<line fill="none" stroke="#56DAF3" stroke-width="2" stroke-miterlimit="10" x1="497.03" y1="192.208" x2="484.121" y2="191.971"/>
<line fill="none" stroke="#56DAF3" stroke-width="2" stroke-miterlimit="10" x1="500.827" y1="203.124" x2="449.051" y2="202.172"/>
<path fill="none" stroke="#56DAF3" stroke-width="2" stroke-miterlimit="10" d="M357.158,249.764l29.218-42.094
	c0.531-0.768,1.584-0.957,2.351-0.426l32.731,22.719c0.766,0.532,0.956,1.585,0.425,2.352l-33.245,47.896
	c-0.532,0.768-1.586,0.957-2.352,0.426l-34.119-23.682"/>
<line fill="none" stroke="#56DAF3" stroke-width="2" stroke-miterlimit="10" x1="410.008" y1="227.959" x2="380.48" y2="270.5"/>
<line fill="none" stroke="#56DAF3" stroke-width="2" stroke-miterlimit="10" x1="390.646" y1="219.549" x2="380.874" y2="233.627"/>
<line fill="none" stroke="#56DAF3" stroke-width="2" stroke-miterlimit="10" x1="394.694" y1="222.359" x2="387.332" y2="232.965"/>
<line fill="none" stroke="#56DAF3" stroke-width="2" stroke-miterlimit="10" x1="405.882" y1="225.258" x2="376.354" y2="267.8"/>
<path fill="none" stroke="#56DAF3" stroke-width="2" stroke-miterlimit="10" d="M408.754,170.6l-51.188,2.295
	c-0.934,0.041-1.723-0.682-1.765-1.611l-1.783-39.803c-0.04-0.933,0.682-1.722,1.612-1.764l58.245-2.609
	c0.934-0.041,1.724,0.681,1.766,1.611l1.858,41.491"/>
<line fill="none" stroke="#56DAF3" stroke-width="2" stroke-miterlimit="10" x1="359.371" y1="141.798" x2="411.103" y2="139.48"/>
<line fill="none" stroke="#56DAF3" stroke-width="2" stroke-miterlimit="10" x1="364.424" y1="162.295" x2="381.542" y2="161.527"/>
<line fill="none" stroke="#56DAF3" stroke-width="2" stroke-miterlimit="10" x1="364.203" y1="157.37" x2="377.102" y2="156.793"/>
<line fill="none" stroke="#56DAF3" stroke-width="2" stroke-miterlimit="10" x1="359.725" y1="146.716" x2="411.457" y2="144.398"/>
<path fill="none" stroke="#56DAF3" stroke-width="2" stroke-miterlimit="10" d="M630.938-3.158l7.113-50.744
	c0.129-0.923,0.983-1.567,1.907-1.438l39.457,5.53c0.923,0.129,1.567,0.983,1.438,1.907l-8.095,57.738
	c-0.13,0.926-0.981,1.571-1.907,1.441L629.72,5.509"/>
<line fill="none" stroke="#56DAF3" stroke-width="2" stroke-miterlimit="10" x1="668.29" y1="-46.438" x2="661.104" y2="4.845"/>
<line fill="none" stroke="#56DAF3" stroke-width="2" stroke-miterlimit="10" x1="647.216" y1="-45.221" x2="644.837" y2="-28.25"/>
<line fill="none" stroke="#56DAF3" stroke-width="2" stroke-miterlimit="10" x1="652.098" y1="-44.537" x2="650.305" y2="-31.75"/>
<line fill="none" stroke="#56DAF3" stroke-width="2" stroke-miterlimit="10" x1="663.391" y1="-46.989" x2="656.202" y2="4.292"/>
<path fill="none" stroke="#56DAF3" stroke-width="2" stroke-miterlimit="10" d="M180.49,114.338L163.7,65.927
	c-0.306-0.881,0.161-1.843,1.042-2.149l37.643-13.056c0.881-0.306,1.844,0.161,2.15,1.042l19.104,55.084
	c0.306,0.883-0.161,1.846-1.042,2.152l-39.239,13.607"/>
<line fill="none" stroke="#56DAF3" stroke-width="2" stroke-miterlimit="10" x1="194.019" y1="58.792" x2="210.987" y2="107.718"/>
<line fill="none" stroke="#56DAF3" stroke-width="2" stroke-miterlimit="10" x1="175.813" y1="69.479" x2="181.428" y2="85.669"/>
<line fill="none" stroke="#56DAF3" stroke-width="2" stroke-miterlimit="10" x1="180.47" y1="67.864" x2="184.701" y2="80.062"/>
<line fill="none" stroke="#56DAF3" stroke-width="2" stroke-miterlimit="10" x1="189.406" y1="60.534" x2="206.374" y2="109.459"/>
<path fill="none" stroke="#56DAF3" stroke-width="2" stroke-miterlimit="10" d="M248.868,227.488l-45.511,23.543
	c-0.828,0.43-1.847,0.105-2.275-0.725l-18.308-35.389c-0.429-0.828-0.104-1.85,0.724-2.275l51.784-26.789
	c0.83-0.432,1.85-0.105,2.278,0.723l19.083,36.889"/>
<line fill="none" stroke="#56DAF3" stroke-width="2" stroke-miterlimit="10" x1="191.958" y1="222.046" x2="237.952" y2="198.251"/>
<line fill="none" stroke="#56DAF3" stroke-width="2" stroke-miterlimit="10" x1="205.14" y1="238.534" x2="220.359" y2="230.66"/>
<line fill="none" stroke="#56DAF3" stroke-width="2" stroke-miterlimit="10" x1="202.875" y1="234.157" x2="214.342" y2="228.225"/>
<line fill="none" stroke="#56DAF3" stroke-width="2" stroke-miterlimit="10" x1="194.342" y1="226.361" x2="240.335" y2="202.566"/>
<path fill="none" stroke="#56DAF3" stroke-width="2" stroke-miterlimit="10" d="M285.165,163.343l51.126-3.401
	c0.932-0.063,1.736,0.643,1.797,1.572l2.647,39.756c0.062,0.932-0.646,1.734-1.573,1.797l-58.175,3.873
	c-0.933,0.063-1.738-0.645-1.8-1.572l-2.758-41.441"/>
<line fill="none" stroke="#56DAF3" stroke-width="2" stroke-miterlimit="10" x1="335.163" y1="191.066" x2="283.492" y2="194.506"/>
<line fill="none" stroke="#56DAF3" stroke-width="2" stroke-miterlimit="10" x1="329.665" y1="170.686" x2="312.567" y2="171.824"/>
<line fill="none" stroke="#56DAF3" stroke-width="2" stroke-miterlimit="10" x1="329.993" y1="175.604" x2="317.11" y2="176.46"/>
<line fill="none" stroke="#56DAF3" stroke-width="2" stroke-miterlimit="10" x1="334.702" y1="186.157" x2="283.032" y2="189.598"/>
<path fill="none" stroke="#56DAF3" stroke-width="2" stroke-miterlimit="10" d="M106.161,59.712l-51.013-4.814
	c-0.929-0.086-1.61-0.911-1.522-1.84l3.742-39.667c0.088-0.928,0.912-1.611,1.841-1.523l58.045,5.478
	c0.931,0.088,1.613,0.913,1.525,1.841l-3.902,41.348"/>
<line fill="none" stroke="#56DAF3" stroke-width="2" stroke-miterlimit="10" x1="61.238" y1="24.353" x2="112.794" y2="29.217"/>
<line fill="none" stroke="#56DAF3" stroke-width="2" stroke-miterlimit="10" x1="63.406" y1="45.351" x2="80.467" y2="46.96"/>
<line fill="none" stroke="#56DAF3" stroke-width="2" stroke-miterlimit="10" x1="63.869" y1="40.444" x2="76.724" y2="41.657"/>
<line fill="none" stroke="#56DAF3" stroke-width="2" stroke-miterlimit="10" x1="60.908" y1="29.272" x2="112.464" y2="34.137"/>
<path fill="none" stroke="#56DAF3" stroke-width="2" stroke-miterlimit="10" d="M86.242,146.191l51.231,0.943
	c0.933,0.018,1.675,0.786,1.657,1.721l-0.733,39.836c-0.017,0.934-0.787,1.676-1.72,1.658l-58.293-1.072
	c-0.935-0.02-1.678-0.788-1.66-1.721l0.765-41.525"/>
<line fill="none" stroke="#56DAF3" stroke-width="2" stroke-miterlimit="10" x1="133.709" y1="178.055" x2="81.934" y2="177.102"/>
<line fill="none" stroke="#56DAF3" stroke-width="2" stroke-miterlimit="10" x1="129.96" y1="157.279" x2="112.827" y2="156.965"/>
<line fill="none" stroke="#56DAF3" stroke-width="2" stroke-miterlimit="10" x1="129.87" y1="162.208" x2="116.96" y2="161.971"/>
<line fill="none" stroke="#56DAF3" stroke-width="2" stroke-miterlimit="10" x1="133.667" y1="173.124" x2="81.891" y2="172.172"/>
<path fill="none" stroke="#56DAF3" stroke-width="2" stroke-miterlimit="10" d="M-10.002,219.764l29.218-42.094
	c0.531-0.768,1.584-0.957,2.351-0.426l32.731,22.719c0.766,0.532,0.956,1.585,0.425,2.352l-33.245,47.896
	c-0.533,0.768-1.586,0.957-2.352,0.426l-34.119-23.682"/>
<line fill="none" stroke="#56DAF3" stroke-width="2" stroke-miterlimit="10" x1="42.848" y1="197.959" x2="13.32" y2="240.5"/>
<line fill="none" stroke="#56DAF3" stroke-width="2" stroke-miterlimit="10" x1="23.485" y1="189.549" x2="13.714" y2="203.627"/>
<line fill="none" stroke="#56DAF3" stroke-width="2" stroke-miterlimit="10" x1="27.534" y1="192.359" x2="20.172" y2="202.965"/>
<line fill="none" stroke="#56DAF3" stroke-width="2" stroke-miterlimit="10" x1="38.722" y1="195.258" x2="9.194" y2="237.8"/>
<path fill="none" stroke="#56DAF3" stroke-width="2" stroke-miterlimit="10" d="M41.594,140.6l-51.188,2.295
	c-0.932,0.041-1.721-0.682-1.763-1.611l-1.783-39.803c-0.042-0.932,0.68-1.721,1.612-1.763l58.245-2.609
	c0.934-0.042,1.724,0.68,1.766,1.611l1.858,41.491"/>
<line fill="none" stroke="#56DAF3" stroke-width="2" stroke-miterlimit="10" x1="-7.79" y1="111.798" x2="43.943" y2="109.48"/>
<line fill="none" stroke="#56DAF3" stroke-width="2" stroke-miterlimit="10" x1="-2.736" y1="132.295" x2="14.382" y2="131.527"/>
<line fill="none" stroke="#56DAF3" stroke-width="2" stroke-miterlimit="10" x1="-2.957" y1="127.37" x2="9.941" y2="126.793"/>
<line fill="none" stroke="#56DAF3" stroke-width="2" stroke-miterlimit="10" x1="-7.436" y1="116.716" x2="44.296" y2="114.398"/>
<path fill="none" stroke="#56DAF3" stroke-width="2" stroke-miterlimit="10" d="M263.778,27.842l7.113-50.744
	c0.129-0.923,0.983-1.567,1.907-1.438l39.457,5.53c0.923,0.129,1.567,0.983,1.439,1.907l-8.097,57.738
	c-0.13,0.926-0.981,1.571-1.905,1.441l-41.131-5.767"/>
<line fill="none" stroke="#56DAF3" stroke-width="2" stroke-miterlimit="10" x1="301.13" y1="-15.438" x2="293.942" y2="35.845"/>
<line fill="none" stroke="#56DAF3" stroke-width="2" stroke-miterlimit="10" x1="280.056" y1="-14.221" x2="277.677" y2="2.75"/>
<line fill="none" stroke="#56DAF3" stroke-width="2" stroke-miterlimit="10" x1="284.938" y1="-13.537" x2="283.145" y2="-0.75"/>
<line fill="none" stroke="#56DAF3" stroke-width="2" stroke-miterlimit="10" x1="296.23" y1="-15.989" x2="289.042" y2="35.292"/>
<path fill="none" stroke="#56DAF3" stroke-width="2" stroke-miterlimit="10" d="M1313.826,83.338l-16.789-48.411
	c-0.307-0.881,0.16-1.843,1.042-2.149l37.644-13.056c0.883-0.306,1.846,0.161,2.149,1.042l19.104,55.084
	c0.306,0.883-0.161,1.846-1.042,2.152l-39.239,13.607"/>
<line fill="none" stroke="#56DAF3" stroke-width="2" stroke-miterlimit="10" x1="1327.355" y1="27.792" x2="1344.324" y2="76.718"/>
<line fill="none" stroke="#56DAF3" stroke-width="2" stroke-miterlimit="10" x1="1309.15" y1="38.479" x2="1314.766" y2="54.669"/>
<line fill="none" stroke="#56DAF3" stroke-width="2" stroke-miterlimit="10" x1="1313.807" y1="36.864" x2="1318.037" y2="49.062"/>
<line fill="none" stroke="#56DAF3" stroke-width="2" stroke-miterlimit="10" x1="1322.742" y1="29.534" x2="1339.711" y2="78.459"/>
<path fill="none" stroke="#56DAF3" stroke-width="2" stroke-miterlimit="10" d="M1382.205,257.488l-45.511,23.543
	c-0.828,0.43-1.849,0.105-2.275-0.725l-18.308-35.389c-0.431-0.828-0.104-1.85,0.724-2.275l51.784-26.789
	c0.83-0.432,1.85-0.105,2.277,0.723l19.084,36.889"/>
<line fill="none" stroke="#56DAF3" stroke-width="2" stroke-miterlimit="10" x1="1325.295" y1="252.046" x2="1371.289" y2="228.251"/>
<line fill="none" stroke="#56DAF3" stroke-width="2" stroke-miterlimit="10" x1="1338.477" y1="268.534" x2="1353.696" y2="260.66"/>
<line fill="none" stroke="#56DAF3" stroke-width="2" stroke-miterlimit="10" x1="1336.212" y1="264.157" x2="1347.679" y2="258.225"/>
<line fill="none" stroke="#56DAF3" stroke-width="2" stroke-miterlimit="10" x1="1327.679" y1="256.361" x2="1373.672" y2="232.566"/>
<path fill="none" stroke="#56DAF3" stroke-width="2" stroke-miterlimit="10" d="M1418.502,133.343l51.126-3.401
	c0.932-0.063,1.736,0.643,1.797,1.572l2.647,39.756c0.062,0.932-0.646,1.734-1.573,1.797l-58.175,3.873
	c-0.935,0.063-1.738-0.645-1.802-1.572l-2.758-41.441"/>
<line fill="none" stroke="#56DAF3" stroke-width="2" stroke-miterlimit="10" x1="1468.5" y1="161.066" x2="1416.829" y2="164.506"/>
<line fill="none" stroke="#56DAF3" stroke-width="2" stroke-miterlimit="10" x1="1463.002" y1="140.686" x2="1445.904" y2="141.824"/>
<line fill="none" stroke="#56DAF3" stroke-width="2" stroke-miterlimit="10" x1="1463.33" y1="145.604" x2="1450.447" y2="146.46"/>
<line fill="none" stroke="#56DAF3" stroke-width="2" stroke-miterlimit="10" x1="1468.039" y1="156.157" x2="1416.369" y2="159.598"/>
<path fill="none" stroke="#56DAF3" stroke-width="2" stroke-miterlimit="10" d="M1239.498,28.712l-51.013-4.814
	c-0.929-0.086-1.61-0.911-1.522-1.84l3.742-39.667c0.088-0.928,0.912-1.611,1.841-1.523l58.045,5.478
	c0.933,0.088,1.613,0.913,1.525,1.841l-3.902,41.348"/>
<line fill="none" stroke="#56DAF3" stroke-width="2" stroke-miterlimit="10" x1="1194.575" y1="-6.647" x2="1246.131" y2="-1.783"/>
<line fill="none" stroke="#56DAF3" stroke-width="2" stroke-miterlimit="10" x1="1196.743" y1="14.351" x2="1213.804" y2="15.96"/>
<line fill="none" stroke="#56DAF3" stroke-width="2" stroke-miterlimit="10" x1="1197.206" y1="9.444" x2="1210.061" y2="10.657"/>
<line fill="none" stroke="#56DAF3" stroke-width="2" stroke-miterlimit="10" x1="1194.245" y1="-1.728" x2="1245.801" y2="3.137"/>
<path fill="none" stroke="#56DAF3" stroke-width="2" stroke-miterlimit="10" d="M1219.578,176.191l51.232,0.943
	c0.932,0.018,1.674,0.786,1.654,1.721l-0.73,39.836c-0.02,0.934-0.787,1.676-1.723,1.658l-58.293-1.072
	c-0.934-0.02-1.678-0.788-1.658-1.721l0.766-41.525"/>
<line fill="none" stroke="#56DAF3" stroke-width="2" stroke-miterlimit="10" x1="1267.047" y1="208.055" x2="1215.271" y2="207.102"/>
<line fill="none" stroke="#56DAF3" stroke-width="2" stroke-miterlimit="10" x1="1263.297" y1="187.279" x2="1246.164" y2="186.965"/>
<line fill="none" stroke="#56DAF3" stroke-width="2" stroke-miterlimit="10" x1="1263.207" y1="192.208" x2="1250.297" y2="191.971"/>
<line fill="none" stroke="#56DAF3" stroke-width="2" stroke-miterlimit="10" x1="1267.004" y1="203.124" x2="1215.229" y2="202.172"/>
<path fill="none" stroke="#56DAF3" stroke-width="2" stroke-miterlimit="10" d="M1123.335,249.764l29.218-42.094
	c0.531-0.768,1.584-0.957,2.353-0.426l32.729,22.719c0.767,0.532,0.956,1.585,0.426,2.352l-33.245,47.896
	c-0.532,0.768-1.587,0.957-2.353,0.426l-34.119-23.682"/>
<line fill="none" stroke="#56DAF3" stroke-width="2" stroke-miterlimit="10" x1="1176.186" y1="227.959" x2="1146.657" y2="270.5"/>
<line fill="none" stroke="#56DAF3" stroke-width="2" stroke-miterlimit="10" x1="1156.822" y1="219.549" x2="1147.051" y2="233.627"/>
<line fill="none" stroke="#56DAF3" stroke-width="2" stroke-miterlimit="10" x1="1160.871" y1="222.359" x2="1153.509" y2="232.965"/>
<line fill="none" stroke="#56DAF3" stroke-width="2" stroke-miterlimit="10" x1="1172.059" y1="225.258" x2="1142.531" y2="267.8"/>
<path fill="none" stroke="#56DAF3" stroke-width="2" stroke-miterlimit="10" d="M1397.115,27.842l7.113-50.744
	c0.129-0.923,0.981-1.567,1.905-1.438l39.457,5.53c0.923,0.129,1.567,0.983,1.439,1.907l-8.097,57.738
	c-0.13,0.926-0.981,1.571-1.905,1.441l-41.131-5.767"/>
<line fill="none" stroke="#56DAF3" stroke-width="2" stroke-miterlimit="10" x1="1434.467" y1="-15.438" x2="1427.279" y2="35.845"/>
<line fill="none" stroke="#56DAF3" stroke-width="2" stroke-miterlimit="10" x1="1413.393" y1="-14.221" x2="1411.014" y2="2.75"/>
<line fill="none" stroke="#56DAF3" stroke-width="2" stroke-miterlimit="10" x1="1418.274" y1="-13.537" x2="1416.48" y2="-0.75"/>
<line fill="none" stroke="#56DAF3" stroke-width="2" stroke-miterlimit="10" x1="1429.567" y1="-15.989" x2="1422.379" y2="35.292"/>
<path fill="none" stroke="#56DAF3" stroke-width="2" stroke-miterlimit="10" d="M1684.879,114.338l-16.789-48.411
	c-0.307-0.881,0.16-1.843,1.042-2.149l37.646-13.056c0.881-0.306,1.844,0.161,2.147,1.042l19.104,55.084
	c0.306,0.883-0.161,1.846-1.042,2.152l-39.239,13.607"/>
<line fill="none" stroke="#56DAF3" stroke-width="2" stroke-miterlimit="10" x1="1698.408" y1="58.792" x2="1715.377" y2="107.718"/>
<line fill="none" stroke="#56DAF3" stroke-width="2" stroke-miterlimit="10" x1="1680.203" y1="69.479" x2="1685.818" y2="85.669"/>
<line fill="none" stroke="#56DAF3" stroke-width="2" stroke-miterlimit="10" x1="1684.859" y1="67.864" x2="1689.09" y2="80.062"/>
<line fill="none" stroke="#56DAF3" stroke-width="2" stroke-miterlimit="10" x1="1693.795" y1="60.534" x2="1710.764" y2="109.459"/>
<path fill="none" stroke="#56DAF3" stroke-width="2" stroke-miterlimit="10" d="M1753.258,227.488l-45.511,23.543
	c-0.828,0.43-1.847,0.105-2.275-0.725l-18.308-35.389c-0.429-0.828-0.104-1.85,0.724-2.275l51.784-26.789
	c0.83-0.432,1.852-0.105,2.278,0.723l19.083,36.889"/>
<line fill="none" stroke="#56DAF3" stroke-width="2" stroke-miterlimit="10" x1="1696.348" y1="222.046" x2="1742.342" y2="198.251"/>
<line fill="none" stroke="#56DAF3" stroke-width="2" stroke-miterlimit="10" x1="1709.529" y1="238.534" x2="1724.749" y2="230.66"/>
<line fill="none" stroke="#56DAF3" stroke-width="2" stroke-miterlimit="10" x1="1707.265" y1="234.157" x2="1718.73" y2="228.225"/>
<line fill="none" stroke="#56DAF3" stroke-width="2" stroke-miterlimit="10" x1="1698.73" y1="226.361" x2="1744.725" y2="202.566"/>
<path fill="none" stroke="#56DAF3" stroke-width="2" stroke-miterlimit="10" d="M1789.555,133.343l51.126-3.401
	c0.934-0.063,1.736,0.643,1.798,1.572l2.646,39.756c0.063,0.932-0.645,1.734-1.573,1.797l-58.175,3.873
	c-0.933,0.063-1.738-0.645-1.8-1.572l-2.759-41.441"/>
<line fill="none" stroke="#56DAF3" stroke-width="2" stroke-miterlimit="10" x1="1839.553" y1="161.066" x2="1787.882" y2="164.506"/>
<line fill="none" stroke="#56DAF3" stroke-width="2" stroke-miterlimit="10" x1="1834.055" y1="140.686" x2="1816.957" y2="141.824"/>
<line fill="none" stroke="#56DAF3" stroke-width="2" stroke-miterlimit="10" x1="1834.383" y1="145.604" x2="1821.5" y2="146.46"/>
<line fill="none" stroke="#56DAF3" stroke-width="2" stroke-miterlimit="10" x1="1839.092" y1="156.157" x2="1787.422" y2="159.598"/>
<path fill="none" stroke="#56DAF3" stroke-width="2" stroke-miterlimit="10" d="M1610.551,59.712l-51.013-4.814
	c-0.929-0.086-1.61-0.911-1.522-1.84l3.742-39.667c0.088-0.928,0.912-1.611,1.841-1.523l58.046,5.478
	c0.932,0.088,1.612,0.913,1.524,1.841l-3.901,41.348"/>
<line fill="none" stroke="#56DAF3" stroke-width="2" stroke-miterlimit="10" x1="1565.628" y1="24.353" x2="1617.184" y2="29.217"/>
<line fill="none" stroke="#56DAF3" stroke-width="2" stroke-miterlimit="10" x1="1567.796" y1="45.351" x2="1584.855" y2="46.96"/>
<line fill="none" stroke="#56DAF3" stroke-width="2" stroke-miterlimit="10" x1="1568.259" y1="40.444" x2="1581.113" y2="41.657"/>
<line fill="none" stroke="#56DAF3" stroke-width="2" stroke-miterlimit="10" x1="1565.298" y1="29.272" x2="1616.854" y2="34.137"/>
<path fill="none" stroke="#56DAF3" stroke-width="2" stroke-miterlimit="10" d="M1590.631,146.191l51.232,0.943
	c0.932,0.018,1.674,0.786,1.656,1.721l-0.732,39.836c-0.018,0.934-0.787,1.676-1.721,1.658l-58.293-1.072
	c-0.936-0.02-1.68-0.788-1.66-1.721l0.766-41.525"/>
<line fill="none" stroke="#56DAF3" stroke-width="2" stroke-miterlimit="10" x1="1638.1" y1="178.055" x2="1586.324" y2="177.102"/>
<line fill="none" stroke="#56DAF3" stroke-width="2" stroke-miterlimit="10" x1="1634.35" y1="157.279" x2="1617.217" y2="156.965"/>
<line fill="none" stroke="#56DAF3" stroke-width="2" stroke-miterlimit="10" x1="1634.26" y1="162.208" x2="1621.35" y2="161.971"/>
<line fill="none" stroke="#56DAF3" stroke-width="2" stroke-miterlimit="10" x1="1638.057" y1="173.124" x2="1586.281" y2="172.172"/>
<path fill="none" stroke="#56DAF3" stroke-width="2" stroke-miterlimit="10" d="M1494.388,219.764l29.218-42.094
	c0.531-0.768,1.584-0.957,2.353-0.426l32.729,22.719c0.768,0.532,0.957,1.585,0.427,2.352l-33.245,47.896
	c-0.533,0.768-1.586,0.957-2.354,0.426l-34.119-23.682"/>
<line fill="none" stroke="#56DAF3" stroke-width="2" stroke-miterlimit="10" x1="1547.237" y1="197.959" x2="1517.71" y2="240.5"/>
<line fill="none" stroke="#56DAF3" stroke-width="2" stroke-miterlimit="10" x1="1527.875" y1="189.549" x2="1518.104" y2="203.627"/>
<line fill="none" stroke="#56DAF3" stroke-width="2" stroke-miterlimit="10" x1="1531.924" y1="192.359" x2="1524.563" y2="202.965"/>
<line fill="none" stroke="#56DAF3" stroke-width="2" stroke-miterlimit="10" x1="1543.111" y1="195.258" x2="1513.584" y2="237.8"/>
<path fill="none" stroke="#56DAF3" stroke-width="2" stroke-miterlimit="10" d="M1545.984,140.6l-51.188,2.295
	c-0.932,0.041-1.721-0.682-1.763-1.611l-1.783-39.803c-0.041-0.932,0.68-1.721,1.611-1.763l58.245-2.609
	c0.935-0.042,1.724,0.68,1.766,1.611l1.858,41.491"/>
<line fill="none" stroke="#56DAF3" stroke-width="2" stroke-miterlimit="10" x1="1496.6" y1="111.798" x2="1548.332" y2="109.48"/>
<line fill="none" stroke="#56DAF3" stroke-width="2" stroke-miterlimit="10" x1="1501.653" y1="132.295" x2="1518.771" y2="131.527"/>
<line fill="none" stroke="#56DAF3" stroke-width="2" stroke-miterlimit="10" x1="1501.433" y1="127.37" x2="1514.331" y2="126.793"/>
<line fill="none" stroke="#56DAF3" stroke-width="2" stroke-miterlimit="10" x1="1496.954" y1="116.716" x2="1548.686" y2="114.398"/>
<path fill="none" stroke="#56DAF3" stroke-width="2" stroke-miterlimit="10" d="M1868.072,219.764l29.218-42.094
	c0.531-0.768,1.584-0.957,2.351-0.426l32.731,22.719c0.766,0.532,0.956,1.585,0.425,2.352l-33.245,47.896
	c-0.532,0.768-1.586,0.957-2.352,0.426l-34.119-23.682"/>
<line fill="none" stroke="#56DAF3" stroke-width="2" stroke-miterlimit="10" x1="1920.922" y1="197.959" x2="1891.395" y2="240.5"/>
<line fill="none" stroke="#56DAF3" stroke-width="2" stroke-miterlimit="10" x1="1901.561" y1="189.549" x2="1891.788" y2="203.627"/>
<line fill="none" stroke="#56DAF3" stroke-width="2" stroke-miterlimit="10" x1="1905.608" y1="192.359" x2="1898.246" y2="202.965"/>
<line fill="none" stroke="#56DAF3" stroke-width="2" stroke-miterlimit="10" x1="1916.796" y1="195.258" x2="1887.27" y2="237.8"/>
<path fill="none" stroke="#56DAF3" stroke-width="2" stroke-miterlimit="10" d="M1919.669,140.6l-51.188,2.295
	c-0.932,0.041-1.721-0.682-1.763-1.611l-1.782-39.803c-0.041-0.932,0.681-1.721,1.61-1.763l58.245-2.609
	c0.936-0.042,1.724,0.68,1.766,1.611l1.858,41.491"/>
<line fill="none" stroke="#56DAF3" stroke-width="2" stroke-miterlimit="10" x1="1870.284" y1="111.798" x2="1922.017" y2="109.48"/>
<line fill="none" stroke="#56DAF3" stroke-width="2" stroke-miterlimit="10" x1="1875.338" y1="132.295" x2="1892.456" y2="131.527"/>
<line fill="none" stroke="#56DAF3" stroke-width="2" stroke-miterlimit="10" x1="1875.117" y1="127.37" x2="1888.016" y2="126.793"/>
<line fill="none" stroke="#56DAF3" stroke-width="2" stroke-miterlimit="10" x1="1870.639" y1="116.716" x2="1922.37" y2="114.398"/>
<path fill="none" stroke="#56DAF3" stroke-width="2" stroke-miterlimit="10" d="M1768.168,27.842l7.113-50.744
	c0.129-0.923,0.981-1.567,1.906-1.438l39.457,5.53c0.924,0.129,1.566,0.983,1.438,1.907l-8.095,57.738
	c-0.13,0.926-0.983,1.571-1.907,1.441l-41.131-5.767"/>
<line fill="none" stroke="#56DAF3" stroke-width="2" stroke-miterlimit="10" x1="1805.52" y1="-15.438" x2="1798.332" y2="35.845"/>
<line fill="none" stroke="#56DAF3" stroke-width="2" stroke-miterlimit="10" x1="1784.445" y1="-14.221" x2="1782.066" y2="2.75"/>
<line fill="none" stroke="#56DAF3" stroke-width="2" stroke-miterlimit="10" x1="1789.327" y1="-13.537" x2="1787.534" y2="-0.75"/>
<line fill="none" stroke="#56DAF3" stroke-width="2" stroke-miterlimit="10" x1="1800.62" y1="-15.989" x2="1793.432" y2="35.292"/>
</svg>
