<?xml version="1.0" encoding="utf-8"?>
<!-- Generator: Adobe Illustrator 16.0.0, SVG Export Plug-In . SVG Version: 6.00 Build 0)  -->
<!DOCTYPE svg PUBLIC "-//W3C//DTD SVG 1.1//EN" "http://www.w3.org/Graphics/SVG/1.1/DTD/svg11.dtd">
<svg version="1.1" id="Layer_1" xmlns="http://www.w3.org/2000/svg" xmlns:xlink="http://www.w3.org/1999/xlink" x="0px" y="0px"
	 width="960px" height="160px" viewBox="0 0 960 160" enable-background="new 0 0 960 160" xml:space="preserve">
<g id="Layer_2">
</g>
<rect fill="#56DAF3" width="960" height="160"/>
<path fill="none" stroke="#FFFFFF" stroke-width="1.5" stroke-linecap="square" stroke-linejoin="round" stroke-miterlimit="10" d="
	M464.137,39.545l-9.866-28.448c-0.181-0.518,0.095-1.083,0.612-1.264l22.121-7.672c0.519-0.18,1.083,0.095,1.264,0.612l11.228,32.37
	c0.18,0.519-0.096,1.085-0.613,1.265l-23.058,7.997"/>
<line fill="none" stroke="#FFFFFF" stroke-width="1.5" stroke-linecap="square" stroke-linejoin="round" stroke-miterlimit="10" x1="472.087" y1="6.904" x2="482.059" y2="35.656"/>
<line fill="none" stroke="#FFFFFF" stroke-width="1.5" stroke-linecap="square" stroke-linejoin="round" stroke-miterlimit="10" x1="461.389" y1="13.184" x2="464.688" y2="22.698"/>
<line fill="none" stroke="#FFFFFF" stroke-width="1.5" stroke-linecap="square" stroke-linejoin="round" stroke-miterlimit="10" x1="464.126" y1="12.235" x2="466.611" y2="19.403"/>
<line fill="none" stroke="#FFFFFF" stroke-width="1.5" stroke-linecap="square" stroke-linejoin="round" stroke-miterlimit="10" x1="469.376" y1="7.927" x2="479.348" y2="36.678"/>
<path fill="none" stroke="#FFFFFF" stroke-width="1.5" stroke-linecap="square" stroke-linejoin="round" stroke-miterlimit="10" d="
	M504.32,159.002l-26.746,13.835c-0.487,0.254-1.086,0.063-1.336-0.425l-10.761-20.796c-0.251-0.487-0.061-1.089,0.428-1.339
	l30.431-15.742c0.486-0.253,1.087-0.063,1.338,0.426l11.214,21.678"/>
<line fill="none" stroke="#FFFFFF" stroke-width="1.5" stroke-linecap="square" stroke-linejoin="round" stroke-miterlimit="10" x1="470.876" y1="155.805" x2="497.904" y2="141.82"/>
<line fill="none" stroke="#FFFFFF" stroke-width="1.5" stroke-linecap="square" stroke-linejoin="round" stroke-miterlimit="10" x1="478.623" y1="165.493" x2="487.566" y2="160.866"/>
<line fill="none" stroke="#FFFFFF" stroke-width="1.5" stroke-linecap="square" stroke-linejoin="round" stroke-miterlimit="10" x1="477.292" y1="162.921" x2="484.031" y2="159.436"/>
<line fill="none" stroke="#FFFFFF" stroke-width="1.5" stroke-linecap="square" stroke-linejoin="round" stroke-miterlimit="10" x1="472.277" y1="158.341" x2="499.305" y2="144.357"/>
<path fill="none" stroke="#FFFFFF" stroke-width="1.5" stroke-linecap="square" stroke-linejoin="round" stroke-miterlimit="10" d="
	M544.713,122.585l30.046-1.999c0.547-0.037,1.02,0.378,1.056,0.925l1.555,23.362c0.037,0.547-0.378,1.02-0.924,1.057l-34.188,2.274
	c-0.547,0.037-1.021-0.378-1.057-0.925l-1.621-24.353"/>
<line fill="none" stroke="#FFFFFF" stroke-width="1.5" stroke-linecap="square" stroke-linejoin="round" stroke-miterlimit="10" x1="574.095" y1="138.877" x2="543.729" y2="140.896"/>
<line fill="none" stroke="#FFFFFF" stroke-width="1.5" stroke-linecap="square" stroke-linejoin="round" stroke-miterlimit="10" x1="570.864" y1="126.898" x2="560.816" y2="127.57"/>
<line fill="none" stroke="#FFFFFF" stroke-width="1.5" stroke-linecap="square" stroke-linejoin="round" stroke-miterlimit="10" x1="571.057" y1="129.79" x2="563.485" y2="130.294"/>
<line fill="none" stroke="#FFFFFF" stroke-width="1.5" stroke-linecap="square" stroke-linejoin="round" stroke-miterlimit="10" x1="573.823" y1="135.992" x2="543.461" y2="138.014"/>
<path fill="none" stroke="#FFFFFF" stroke-width="1.5" stroke-linecap="square" stroke-linejoin="round" stroke-miterlimit="10" d="
	M420.458,15.171l-29.979-2.828c-0.546-0.051-0.945-0.536-0.894-1.082l2.199-23.311c0.052-0.545,0.535-0.947,1.082-0.895
	l34.109,3.219c0.548,0.052,0.947,0.536,0.896,1.082l-2.292,24.298"/>
<line fill="none" stroke="#FFFFFF" stroke-width="1.5" stroke-linecap="square" stroke-linejoin="round" stroke-miterlimit="10" x1="394.059" y1="-5.607" x2="424.355" y2="-2.75"/>
<line fill="none" stroke="#FFFFFF" stroke-width="1.5" stroke-linecap="square" stroke-linejoin="round" stroke-miterlimit="10" x1="395.333" y1="6.732" x2="405.358" y2="7.677"/>
<line fill="none" stroke="#FFFFFF" stroke-width="1.5" stroke-linecap="square" stroke-linejoin="round" stroke-miterlimit="10" x1="395.604" y1="3.848" x2="403.159" y2="4.562"/>
<line fill="none" stroke="#FFFFFF" stroke-width="1.5" stroke-linecap="square" stroke-linejoin="round" stroke-miterlimit="10" x1="393.864" y1="-2.718" x2="424.162" y2="0.142"/>
<path fill="none" stroke="#FFFFFF" stroke-width="1.5" stroke-linecap="square" stroke-linejoin="round" stroke-miterlimit="10" d="
	M412.851,121.684l30.106,0.555c0.548,0.01,0.984,0.463,0.974,1.011L443.5,146.66c-0.01,0.548-0.462,0.984-1.011,0.974l-34.256-0.63
	c-0.549-0.012-0.986-0.464-0.976-1.012l0.45-24.402"/>
<line fill="none" stroke="#FFFFFF" stroke-width="1.5" stroke-linecap="square" stroke-linejoin="round" stroke-miterlimit="10" x1="440.746" y1="140.407" x2="410.319" y2="139.848"/>
<line fill="none" stroke="#FFFFFF" stroke-width="1.5" stroke-linecap="square" stroke-linejoin="round" stroke-miterlimit="10" x1="438.543" y1="128.199" x2="428.474" y2="128.014"/>
<line fill="none" stroke="#FFFFFF" stroke-width="1.5" stroke-linecap="square" stroke-linejoin="round" stroke-miterlimit="10" x1="438.489" y1="131.096" x2="430.903" y2="130.956"/>
<line fill="none" stroke="#FFFFFF" stroke-width="1.5" stroke-linecap="square" stroke-linejoin="round" stroke-miterlimit="10" x1="440.721" y1="137.51" x2="410.294" y2="136.95"/>
<path fill="none" stroke="#FFFFFF" stroke-width="1.5" stroke-linecap="square" stroke-linejoin="round" stroke-miterlimit="10" d="
	M356.293,164.917l17.17-24.735c0.312-0.451,0.931-0.563,1.381-0.25l19.235,13.351c0.45,0.313,0.562,0.932,0.25,1.383l-19.537,28.146
	c-0.313,0.453-0.932,0.563-1.382,0.252l-20.05-13.918"/>
<line fill="none" stroke="#FFFFFF" stroke-width="1.5" stroke-linecap="square" stroke-linejoin="round" stroke-miterlimit="10" x1="387.35" y1="152.104" x2="369.999" y2="177.104"/>
<line fill="none" stroke="#FFFFFF" stroke-width="1.5" stroke-linecap="square" stroke-linejoin="round" stroke-miterlimit="10" x1="375.972" y1="147.161" x2="370.229" y2="155.436"/>
<line fill="none" stroke="#FFFFFF" stroke-width="1.5" stroke-linecap="square" stroke-linejoin="round" stroke-miterlimit="10" x1="378.351" y1="148.813" x2="374.025" y2="155.045"/>
<line fill="none" stroke="#FFFFFF" stroke-width="1.5" stroke-linecap="square" stroke-linejoin="round" stroke-miterlimit="10" x1="384.926" y1="150.518" x2="367.574" y2="175.518"/>
<path fill="none" stroke="#FFFFFF" stroke-width="1.5" stroke-linecap="square" stroke-linejoin="round" stroke-miterlimit="10" d="
	M377.427,50.874l-30.081,1.348c-0.548,0.024-1.012-0.399-1.036-0.946l-1.048-23.391c-0.025-0.548,0.4-1.012,0.947-1.036
	l34.228-1.533c0.549-0.024,1.013,0.399,1.038,0.946l1.092,24.383"/>
<line fill="none" stroke="#FFFFFF" stroke-width="1.5" stroke-linecap="square" stroke-linejoin="round" stroke-miterlimit="10" x1="348.406" y1="33.948" x2="378.807" y2="32.586"/>
<line fill="none" stroke="#FFFFFF" stroke-width="1.5" stroke-linecap="square" stroke-linejoin="round" stroke-miterlimit="10" x1="351.375" y1="45.993" x2="361.436" y2="45.542"/>
<line fill="none" stroke="#FFFFFF" stroke-width="1.5" stroke-linecap="square" stroke-linejoin="round" stroke-miterlimit="10" x1="351.246" y1="43.1" x2="358.826" y2="42.761"/>
<line fill="none" stroke="#FFFFFF" stroke-width="1.5" stroke-linecap="square" stroke-linejoin="round" stroke-miterlimit="10" x1="348.614" y1="36.839" x2="379.015" y2="35.477"/>
<path fill="none" stroke="#FFFFFF" stroke-width="1.5" stroke-linecap="square" stroke-linejoin="round" stroke-miterlimit="10" d="
	M513.082,19.557l4.18-29.819c0.076-0.543,0.578-0.921,1.121-0.846l23.188,3.25c0.541,0.076,0.92,0.577,0.845,1.12l-4.757,33.931
	c-0.076,0.544-0.578,0.923-1.121,0.846l-24.17-3.389"/>
<line fill="none" stroke="#FFFFFF" stroke-width="1.5" stroke-linecap="square" stroke-linejoin="round" stroke-miterlimit="10" x1="535.031" y1="-5.877" x2="530.808" y2="24.26"/>
<line fill="none" stroke="#FFFFFF" stroke-width="1.5" stroke-linecap="square" stroke-linejoin="round" stroke-miterlimit="10" x1="522.646" y1="-5.162" x2="521.249" y2="4.812"/>
<line fill="none" stroke="#FFFFFF" stroke-width="1.5" stroke-linecap="square" stroke-linejoin="round" stroke-miterlimit="10" x1="525.517" y1="-4.76" x2="524.463" y2="2.755"/>
<line fill="none" stroke="#FFFFFF" stroke-width="1.5" stroke-linecap="square" stroke-linejoin="round" stroke-miterlimit="10" x1="532.152" y1="-6.201" x2="527.928" y2="23.935"/>
<path fill="none" stroke="#FFFFFF" stroke-width="1.5" stroke-linecap="square" stroke-linejoin="round" stroke-miterlimit="10" d="
	M238.333,48.119l-9.867-28.449c-0.181-0.518,0.095-1.083,0.612-1.264l22.121-7.671c0.518-0.181,1.083,0.094,1.264,0.611
	l11.226,32.37c0.181,0.52-0.095,1.085-0.612,1.265l-23.059,7.997"/>
<line fill="none" stroke="#FFFFFF" stroke-width="1.5" stroke-linecap="square" stroke-linejoin="round" stroke-miterlimit="10" x1="246.283" y1="15.477" x2="256.253" y2="44.229"/>
<line fill="none" stroke="#FFFFFF" stroke-width="1.5" stroke-linecap="square" stroke-linejoin="round" stroke-miterlimit="10" x1="235.583" y1="21.757" x2="238.884" y2="31.271"/>
<line fill="none" stroke="#FFFFFF" stroke-width="1.5" stroke-linecap="square" stroke-linejoin="round" stroke-miterlimit="10" x1="238.32" y1="20.809" x2="240.807" y2="27.977"/>
<line fill="none" stroke="#FFFFFF" stroke-width="1.5" stroke-linecap="square" stroke-linejoin="round" stroke-miterlimit="10" x1="243.572" y1="16.501" x2="253.543" y2="45.252"/>
<path fill="none" stroke="#FFFFFF" stroke-width="1.5" stroke-linecap="square" stroke-linejoin="round" stroke-miterlimit="10" d="
	M279.521,159.002l-26.746,13.835c-0.486,0.254-1.085,0.063-1.336-0.425l-10.76-20.796c-0.252-0.487-0.061-1.089,0.426-1.339
	l30.431-15.742c0.488-0.253,1.087-0.063,1.338,0.426l11.214,21.678"/>
<line fill="none" stroke="#FFFFFF" stroke-width="1.5" stroke-linecap="square" stroke-linejoin="round" stroke-miterlimit="10" x1="246.078" y1="155.805" x2="273.106" y2="141.82"/>
<line fill="none" stroke="#FFFFFF" stroke-width="1.5" stroke-linecap="square" stroke-linejoin="round" stroke-miterlimit="10" x1="253.824" y1="165.493" x2="262.769" y2="160.866"/>
<line fill="none" stroke="#FFFFFF" stroke-width="1.5" stroke-linecap="square" stroke-linejoin="round" stroke-miterlimit="10" x1="252.493" y1="162.921" x2="259.231" y2="159.436"/>
<line fill="none" stroke="#FFFFFF" stroke-width="1.5" stroke-linecap="square" stroke-linejoin="round" stroke-miterlimit="10" x1="247.479" y1="158.341" x2="274.506" y2="144.357"/>
<path fill="none" stroke="#FFFFFF" stroke-width="1.5" stroke-linecap="square" stroke-linejoin="round" stroke-miterlimit="10" d="
	M304.95,114.132l30.044-1.999c0.547-0.037,1.02,0.378,1.056,0.926l1.555,23.361c0.038,0.547-0.378,1.02-0.923,1.057l-34.188,2.274
	c-0.548,0.037-1.021-0.378-1.058-0.924l-1.621-24.353"/>
<line fill="none" stroke="#FFFFFF" stroke-width="1.5" stroke-linecap="square" stroke-linejoin="round" stroke-miterlimit="10" x1="334.332" y1="130.424" x2="303.967" y2="132.443"/>
<line fill="none" stroke="#FFFFFF" stroke-width="1.5" stroke-linecap="square" stroke-linejoin="round" stroke-miterlimit="10" x1="331.101" y1="118.445" x2="321.054" y2="119.117"/>
<line fill="none" stroke="#FFFFFF" stroke-width="1.5" stroke-linecap="square" stroke-linejoin="round" stroke-miterlimit="10" x1="331.293" y1="121.337" x2="323.723" y2="121.841"/>
<line fill="none" stroke="#FFFFFF" stroke-width="1.5" stroke-linecap="square" stroke-linejoin="round" stroke-miterlimit="10" x1="334.061" y1="127.539" x2="303.697" y2="129.561"/>
<path fill="none" stroke="#FFFFFF" stroke-width="1.5" stroke-linecap="square" stroke-linejoin="round" stroke-miterlimit="10" d="
	M195.659,38.285l-29.979-2.829c-0.546-0.05-0.945-0.535-0.894-1.081l2.199-23.311c0.052-0.545,0.536-0.946,1.082-0.895l34.11,3.219
	c0.547,0.052,0.948,0.536,0.896,1.082l-2.292,24.298"/>
<line fill="none" stroke="#FFFFFF" stroke-width="1.5" stroke-linecap="square" stroke-linejoin="round" stroke-miterlimit="10" x1="169.26" y1="17.507" x2="199.557" y2="20.364"/>
<line fill="none" stroke="#FFFFFF" stroke-width="1.5" stroke-linecap="square" stroke-linejoin="round" stroke-miterlimit="10" x1="170.534" y1="29.847" x2="180.559" y2="30.791"/>
<line fill="none" stroke="#FFFFFF" stroke-width="1.5" stroke-linecap="square" stroke-linejoin="round" stroke-miterlimit="10" x1="170.806" y1="26.962" x2="178.359" y2="27.675"/>
<line fill="none" stroke="#FFFFFF" stroke-width="1.5" stroke-linecap="square" stroke-linejoin="round" stroke-miterlimit="10" x1="169.065" y1="20.396" x2="199.362" y2="23.256"/>
<path fill="none" stroke="#FFFFFF" stroke-width="1.5" stroke-linecap="square" stroke-linejoin="round" stroke-miterlimit="10" d="
	M192.488,118.068l30.105,0.555c0.549,0.011,0.984,0.462,0.974,1.012l-0.431,23.409c-0.01,0.549-0.463,0.985-1.011,0.976
	l-34.256-0.631c-0.549-0.012-0.986-0.464-0.976-1.011l0.451-24.403"/>
<line fill="none" stroke="#FFFFFF" stroke-width="1.5" stroke-linecap="square" stroke-linejoin="round" stroke-miterlimit="10" x1="220.382" y1="136.794" x2="189.956" y2="136.232"/>
<line fill="none" stroke="#FFFFFF" stroke-width="1.5" stroke-linecap="square" stroke-linejoin="round" stroke-miterlimit="10" x1="218.179" y1="124.585" x2="208.111" y2="124.4"/>
<line fill="none" stroke="#FFFFFF" stroke-width="1.5" stroke-linecap="square" stroke-linejoin="round" stroke-miterlimit="10" x1="218.126" y1="127.48" x2="210.54" y2="127.342"/>
<line fill="none" stroke="#FFFFFF" stroke-width="1.5" stroke-linecap="square" stroke-linejoin="round" stroke-miterlimit="10" x1="220.357" y1="133.896" x2="189.931" y2="133.337"/>
<path fill="none" stroke="#FFFFFF" stroke-width="1.5" stroke-linecap="square" stroke-linejoin="round" stroke-miterlimit="10" d="
	M135.93,161.305l17.17-24.736c0.312-0.451,0.931-0.563,1.381-0.25l19.235,13.351c0.45,0.313,0.562,0.933,0.25,1.382l-19.536,28.146
	c-0.313,0.451-0.933,0.563-1.382,0.251l-20.05-13.917"/>
<line fill="none" stroke="#FFFFFF" stroke-width="1.5" stroke-linecap="square" stroke-linejoin="round" stroke-miterlimit="10" x1="166.987" y1="148.49" x2="149.635" y2="173.49"/>
<line fill="none" stroke="#FFFFFF" stroke-width="1.5" stroke-linecap="square" stroke-linejoin="round" stroke-miterlimit="10" x1="155.609" y1="143.548" x2="149.866" y2="151.82"/>
<line fill="none" stroke="#FFFFFF" stroke-width="1.5" stroke-linecap="square" stroke-linejoin="round" stroke-miterlimit="10" x1="157.988" y1="145.2" x2="153.662" y2="151.434"/>
<line fill="none" stroke="#FFFFFF" stroke-width="1.5" stroke-linecap="square" stroke-linejoin="round" stroke-miterlimit="10" x1="164.563" y1="146.902" x2="147.21" y2="171.902"/>
<path fill="none" stroke="#FFFFFF" stroke-width="1.5" stroke-linecap="square" stroke-linejoin="round" stroke-miterlimit="10" d="
	M166.25,114.783l-30.081,1.349c-0.548,0.024-1.012-0.399-1.037-0.946l-1.047-23.391c-0.024-0.549,0.4-1.012,0.947-1.037
	l34.228-1.533c0.549-0.023,1.013,0.4,1.038,0.947l1.092,24.383"/>
<line fill="none" stroke="#FFFFFF" stroke-width="1.5" stroke-linecap="square" stroke-linejoin="round" stroke-miterlimit="10" x1="137.23" y1="97.857" x2="167.63" y2="96.496"/>
<line fill="none" stroke="#FFFFFF" stroke-width="1.5" stroke-linecap="square" stroke-linejoin="round" stroke-miterlimit="10" x1="140.199" y1="109.902" x2="150.259" y2="109.451"/>
<line fill="none" stroke="#FFFFFF" stroke-width="1.5" stroke-linecap="square" stroke-linejoin="round" stroke-miterlimit="10" x1="140.07" y1="107.009" x2="147.65" y2="106.67"/>
<line fill="none" stroke="#FFFFFF" stroke-width="1.5" stroke-linecap="square" stroke-linejoin="round" stroke-miterlimit="10" x1="137.438" y1="100.748" x2="167.838" y2="99.386"/>
<path fill="none" stroke="#FFFFFF" stroke-width="1.5" stroke-linecap="square" stroke-linejoin="round" stroke-miterlimit="10" d="
	M288.283,19.557l4.179-29.819c0.076-0.543,0.578-0.921,1.121-0.846l23.187,3.25c0.542,0.076,0.92,0.577,0.845,1.12l-4.757,33.931
	c-0.076,0.544-0.577,0.923-1.121,0.846l-24.171-3.389"/>
<line fill="none" stroke="#FFFFFF" stroke-width="1.5" stroke-linecap="square" stroke-linejoin="round" stroke-miterlimit="10" x1="310.233" y1="-5.877" x2="306.01" y2="24.26"/>
<line fill="none" stroke="#FFFFFF" stroke-width="1.5" stroke-linecap="square" stroke-linejoin="round" stroke-miterlimit="10" x1="297.849" y1="-5.162" x2="296.451" y2="4.812"/>
<line fill="none" stroke="#FFFFFF" stroke-width="1.5" stroke-linecap="square" stroke-linejoin="round" stroke-miterlimit="10" x1="300.717" y1="-4.76" x2="299.664" y2="2.755"/>
<line fill="none" stroke="#FFFFFF" stroke-width="1.5" stroke-linecap="square" stroke-linejoin="round" stroke-miterlimit="10" x1="307.354" y1="-6.201" x2="303.129" y2="23.935"/>
<path fill="none" stroke="#FFFFFF" stroke-width="1.5" stroke-linecap="square" stroke-linejoin="round" stroke-miterlimit="10" d="
	M23.575,70.387l-9.867-28.449c-0.18-0.518,0.095-1.083,0.612-1.264l22.121-7.671c0.518-0.181,1.083,0.094,1.264,0.611l11.227,32.37
	c0.18,0.52-0.095,1.085-0.612,1.265l-23.059,7.997"/>
<line fill="none" stroke="#FFFFFF" stroke-width="1.5" stroke-linecap="square" stroke-linejoin="round" stroke-miterlimit="10" x1="31.525" y1="37.744" x2="41.497" y2="66.496"/>
<line fill="none" stroke="#FFFFFF" stroke-width="1.5" stroke-linecap="square" stroke-linejoin="round" stroke-miterlimit="10" x1="20.827" y1="44.024" x2="24.126" y2="53.539"/>
<line fill="none" stroke="#FFFFFF" stroke-width="1.5" stroke-linecap="square" stroke-linejoin="round" stroke-miterlimit="10" x1="23.563" y1="43.076" x2="26.05" y2="50.244"/>
<line fill="none" stroke="#FFFFFF" stroke-width="1.5" stroke-linecap="square" stroke-linejoin="round" stroke-miterlimit="10" x1="28.815" y1="38.769" x2="38.786" y2="67.52"/>
<path fill="none" stroke="#FFFFFF" stroke-width="1.5" stroke-linecap="square" stroke-linejoin="round" stroke-miterlimit="10" d="
	M63.758,136.88l-26.745,13.835c-0.487,0.252-1.085,0.063-1.337-0.426l-10.759-20.797c-0.252-0.486-0.061-1.088,0.425-1.338
	l30.431-15.741c0.488-0.254,1.087-0.063,1.339,0.425l11.214,21.678"/>
<line fill="none" stroke="#FFFFFF" stroke-width="1.5" stroke-linecap="square" stroke-linejoin="round" stroke-miterlimit="10" x1="30.314" y1="133.682" x2="57.343" y2="119.698"/>
<line fill="none" stroke="#FFFFFF" stroke-width="1.5" stroke-linecap="square" stroke-linejoin="round" stroke-miterlimit="10" x1="38.061" y1="143.371" x2="47.004" y2="138.743"/>
<line fill="none" stroke="#FFFFFF" stroke-width="1.5" stroke-linecap="square" stroke-linejoin="round" stroke-miterlimit="10" x1="36.73" y1="140.799" x2="43.468" y2="137.313"/>
<line fill="none" stroke="#FFFFFF" stroke-width="1.5" stroke-linecap="square" stroke-linejoin="round" stroke-miterlimit="10" x1="31.715" y1="136.218" x2="58.743" y2="122.234"/>
<path fill="none" stroke="#FFFFFF" stroke-width="1.5" stroke-linecap="square" stroke-linejoin="round" stroke-miterlimit="10" d="
	M93.623,110.52l30.044-2c0.548-0.035,1.02,0.379,1.056,0.924l1.555,23.363c0.037,0.547-0.379,1.02-0.924,1.057l-34.187,2.275
	c-0.548,0.036-1.021-0.379-1.058-0.925l-1.621-24.353"/>
<line fill="none" stroke="#FFFFFF" stroke-width="1.5" stroke-linecap="square" stroke-linejoin="round" stroke-miterlimit="10" x1="123.004" y1="126.811" x2="92.64" y2="128.832"/>
<line fill="none" stroke="#FFFFFF" stroke-width="1.5" stroke-linecap="square" stroke-linejoin="round" stroke-miterlimit="10" x1="119.773" y1="114.834" x2="109.726" y2="115.503"/>
<line fill="none" stroke="#FFFFFF" stroke-width="1.5" stroke-linecap="square" stroke-linejoin="round" stroke-miterlimit="10" x1="119.966" y1="117.725" x2="112.395" y2="118.227"/>
<line fill="none" stroke="#FFFFFF" stroke-width="1.5" stroke-linecap="square" stroke-linejoin="round" stroke-miterlimit="10" x1="122.733" y1="123.926" x2="92.369" y2="125.947"/>
<path fill="none" stroke="#FFFFFF" stroke-width="1.5" stroke-linecap="square" stroke-linejoin="round" stroke-miterlimit="10" d="
	M72.52,19.557l4.18-29.819c0.076-0.543,0.578-0.921,1.121-0.846l23.187,3.25c0.542,0.076,0.921,0.577,0.846,1.12l-4.757,33.931
	c-0.077,0.544-0.577,0.923-1.121,0.846l-24.17-3.389"/>
<line fill="none" stroke="#FFFFFF" stroke-width="1.5" stroke-linecap="square" stroke-linejoin="round" stroke-miterlimit="10" x1="94.47" y1="-5.877" x2="90.246" y2="24.26"/>
<line fill="none" stroke="#FFFFFF" stroke-width="1.5" stroke-linecap="square" stroke-linejoin="round" stroke-miterlimit="10" x1="82.085" y1="-5.162" x2="80.688" y2="4.812"/>
<line fill="none" stroke="#FFFFFF" stroke-width="1.5" stroke-linecap="square" stroke-linejoin="round" stroke-miterlimit="10" x1="84.955" y1="-4.76" x2="83.901" y2="2.755"/>
<line fill="none" stroke="#FFFFFF" stroke-width="1.5" stroke-linecap="square" stroke-linejoin="round" stroke-miterlimit="10" x1="91.59" y1="-6.201" x2="87.366" y2="23.935"/>
<path fill="none" stroke="#FFFFFF" stroke-width="1.5" stroke-linecap="square" stroke-linejoin="round" stroke-miterlimit="10" d="
	M687.078,39.546l-9.865-28.449c-0.181-0.518,0.094-1.083,0.612-1.264l22.122-7.671c0.518-0.181,1.084,0.094,1.263,0.611
	l11.227,32.37c0.181,0.52-0.095,1.085-0.611,1.265l-23.061,7.997"/>
<line fill="none" stroke="#FFFFFF" stroke-width="1.5" stroke-linecap="square" stroke-linejoin="round" stroke-miterlimit="10" x1="695.029" y1="6.903" x2="705.001" y2="35.655"/>
<line fill="none" stroke="#FFFFFF" stroke-width="1.5" stroke-linecap="square" stroke-linejoin="round" stroke-miterlimit="10" x1="684.331" y1="13.184" x2="687.631" y2="22.698"/>
<line fill="none" stroke="#FFFFFF" stroke-width="1.5" stroke-linecap="square" stroke-linejoin="round" stroke-miterlimit="10" x1="687.066" y1="12.235" x2="689.553" y2="19.403"/>
<line fill="none" stroke="#FFFFFF" stroke-width="1.5" stroke-linecap="square" stroke-linejoin="round" stroke-miterlimit="10" x1="692.318" y1="7.928" x2="702.29" y2="36.679"/>
<path fill="none" stroke="#FFFFFF" stroke-width="1.5" stroke-linecap="square" stroke-linejoin="round" stroke-miterlimit="10" d="
	M729.768,136.88l-26.743,13.835c-0.486,0.252-1.088,0.063-1.338-0.426l-10.759-20.797c-0.253-0.486-0.061-1.088,0.427-1.338
	l30.43-15.741c0.488-0.254,1.088-0.063,1.339,0.425l11.215,21.678"/>
<line fill="none" stroke="#FFFFFF" stroke-width="1.5" stroke-linecap="square" stroke-linejoin="round" stroke-miterlimit="10" x1="696.324" y1="133.682" x2="723.353" y2="119.698"/>
<line fill="none" stroke="#FFFFFF" stroke-width="1.5" stroke-linecap="square" stroke-linejoin="round" stroke-miterlimit="10" x1="704.071" y1="143.371" x2="713.015" y2="138.743"/>
<line fill="none" stroke="#FFFFFF" stroke-width="1.5" stroke-linecap="square" stroke-linejoin="round" stroke-miterlimit="10" x1="702.74" y1="140.799" x2="709.479" y2="137.313"/>
<line fill="none" stroke="#FFFFFF" stroke-width="1.5" stroke-linecap="square" stroke-linejoin="round" stroke-miterlimit="10" x1="697.726" y1="136.218" x2="724.753" y2="122.234"/>
<path fill="none" stroke="#FFFFFF" stroke-width="1.5" stroke-linecap="square" stroke-linejoin="round" stroke-miterlimit="10" d="
	M757.978,104.927l30.046-1.999c0.547-0.035,1.021,0.379,1.056,0.924l1.556,23.363c0.037,0.547-0.379,1.02-0.924,1.057l-34.188,2.275
	c-0.55,0.036-1.021-0.379-1.06-0.925l-1.62-24.353"/>
<line fill="none" stroke="#FFFFFF" stroke-width="1.5" stroke-linecap="square" stroke-linejoin="round" stroke-miterlimit="10" x1="787.358" y1="121.219" x2="756.995" y2="123.24"/>
<line fill="none" stroke="#FFFFFF" stroke-width="1.5" stroke-linecap="square" stroke-linejoin="round" stroke-miterlimit="10" x1="784.128" y1="109.242" x2="774.081" y2="109.911"/>
<line fill="none" stroke="#FFFFFF" stroke-width="1.5" stroke-linecap="square" stroke-linejoin="round" stroke-miterlimit="10" x1="784.321" y1="112.132" x2="776.75" y2="112.635"/>
<line fill="none" stroke="#FFFFFF" stroke-width="1.5" stroke-linecap="square" stroke-linejoin="round" stroke-miterlimit="10" x1="787.088" y1="118.334" x2="756.724" y2="120.355"/>
<path fill="none" stroke="#FFFFFF" stroke-width="1.5" stroke-linecap="square" stroke-linejoin="round" stroke-miterlimit="10" d="
	M645.905,38.285l-29.979-2.829c-0.546-0.05-0.947-0.535-0.895-1.081l2.199-23.311c0.051-0.545,0.534-0.946,1.081-0.895l34.109,3.219
	c0.549,0.052,0.949,0.536,0.896,1.082l-2.294,24.298"/>
<line fill="none" stroke="#FFFFFF" stroke-width="1.5" stroke-linecap="square" stroke-linejoin="round" stroke-miterlimit="10" x1="619.507" y1="17.507" x2="649.803" y2="20.364"/>
<line fill="none" stroke="#FFFFFF" stroke-width="1.5" stroke-linecap="square" stroke-linejoin="round" stroke-miterlimit="10" x1="620.781" y1="29.847" x2="630.807" y2="30.791"/>
<line fill="none" stroke="#FFFFFF" stroke-width="1.5" stroke-linecap="square" stroke-linejoin="round" stroke-miterlimit="10" x1="621.053" y1="26.962" x2="628.607" y2="27.675"/>
<line fill="none" stroke="#FFFFFF" stroke-width="1.5" stroke-linecap="square" stroke-linejoin="round" stroke-miterlimit="10" x1="619.313" y1="20.396" x2="649.609" y2="23.256"/>
<path fill="none" stroke="#FFFFFF" stroke-width="1.5" stroke-linecap="square" stroke-linejoin="round" stroke-miterlimit="10" d="
	M653.263,108.014l30.107,0.555c0.547,0.011,0.981,0.461,0.972,1.012l-0.429,23.408c-0.012,0.55-0.463,0.986-1.013,0.976
	l-34.258-0.63c-0.548-0.012-0.984-0.464-0.975-1.011l0.451-24.403"/>
<line fill="none" stroke="#FFFFFF" stroke-width="1.5" stroke-linecap="square" stroke-linejoin="round" stroke-miterlimit="10" x1="681.157" y1="126.738" x2="650.731" y2="126.178"/>
<line fill="none" stroke="#FFFFFF" stroke-width="1.5" stroke-linecap="square" stroke-linejoin="round" stroke-miterlimit="10" x1="678.954" y1="114.529" x2="668.886" y2="114.346"/>
<line fill="none" stroke="#FFFFFF" stroke-width="1.5" stroke-linecap="square" stroke-linejoin="round" stroke-miterlimit="10" x1="678.901" y1="117.426" x2="671.314" y2="117.286"/>
<line fill="none" stroke="#FFFFFF" stroke-width="1.5" stroke-linecap="square" stroke-linejoin="round" stroke-miterlimit="10" x1="681.133" y1="123.841" x2="650.708" y2="123.281"/>
<path fill="none" stroke="#FFFFFF" stroke-width="1.5" stroke-linecap="square" stroke-linejoin="round" stroke-miterlimit="10" d="
	M596.706,151.248l17.169-24.736c0.312-0.451,0.931-0.563,1.383-0.25l19.233,13.352c0.451,0.313,0.563,0.932,0.25,1.382
	l-19.536,28.146c-0.313,0.451-0.933,0.563-1.383,0.252l-20.05-13.918"/>
<line fill="none" stroke="#FFFFFF" stroke-width="1.5" stroke-linecap="square" stroke-linejoin="round" stroke-miterlimit="10" x1="627.765" y1="138.436" x2="610.411" y2="163.436"/>
<line fill="none" stroke="#FFFFFF" stroke-width="1.5" stroke-linecap="square" stroke-linejoin="round" stroke-miterlimit="10" x1="616.384" y1="133.492" x2="610.642" y2="141.766"/>
<line fill="none" stroke="#FFFFFF" stroke-width="1.5" stroke-linecap="square" stroke-linejoin="round" stroke-miterlimit="10" x1="618.763" y1="135.145" x2="614.438" y2="141.377"/>
<line fill="none" stroke="#FFFFFF" stroke-width="1.5" stroke-linecap="square" stroke-linejoin="round" stroke-miterlimit="10" x1="625.338" y1="136.848" x2="607.985" y2="161.848"/>
<path fill="none" stroke="#FFFFFF" stroke-width="1.5" stroke-linecap="square" stroke-linejoin="round" stroke-miterlimit="10" d="
	M738.529,19.557l4.181-29.819c0.075-0.543,0.577-0.921,1.12-0.846l23.188,3.25c0.541,0.076,0.921,0.577,0.847,1.12l-4.758,33.931
	c-0.077,0.544-0.577,0.923-1.12,0.846l-24.171-3.389"/>
<line fill="none" stroke="#FFFFFF" stroke-width="1.5" stroke-linecap="square" stroke-linejoin="round" stroke-miterlimit="10" x1="760.479" y1="-5.877" x2="756.256" y2="24.26"/>
<line fill="none" stroke="#FFFFFF" stroke-width="1.5" stroke-linecap="square" stroke-linejoin="round" stroke-miterlimit="10" x1="748.096" y1="-5.162" x2="746.697" y2="4.812"/>
<line fill="none" stroke="#FFFFFF" stroke-width="1.5" stroke-linecap="square" stroke-linejoin="round" stroke-miterlimit="10" x1="750.965" y1="-4.76" x2="749.91" y2="2.755"/>
<line fill="none" stroke="#FFFFFF" stroke-width="1.5" stroke-linecap="square" stroke-linejoin="round" stroke-miterlimit="10" x1="757.601" y1="-6.201" x2="753.376" y2="23.935"/>
<path fill="none" stroke="#FFFFFF" stroke-width="1.5" stroke-linecap="square" stroke-linejoin="round" stroke-miterlimit="10" d="
	M907.635,70.387l-9.866-28.449c-0.18-0.518,0.096-1.083,0.613-1.264l22.122-7.671c0.519-0.181,1.083,0.094,1.263,0.611l11.227,32.37
	c0.181,0.52-0.094,1.085-0.611,1.265l-23.06,7.997"/>
<line fill="none" stroke="#FFFFFF" stroke-width="1.5" stroke-linecap="square" stroke-linejoin="round" stroke-miterlimit="10" x1="915.586" y1="37.744" x2="925.558" y2="66.496"/>
<line fill="none" stroke="#FFFFFF" stroke-width="1.5" stroke-linecap="square" stroke-linejoin="round" stroke-miterlimit="10" x1="904.888" y1="44.024" x2="908.188" y2="53.539"/>
<line fill="none" stroke="#FFFFFF" stroke-width="1.5" stroke-linecap="square" stroke-linejoin="round" stroke-miterlimit="10" x1="907.624" y1="43.076" x2="910.109" y2="50.244"/>
<line fill="none" stroke="#FFFFFF" stroke-width="1.5" stroke-linecap="square" stroke-linejoin="round" stroke-miterlimit="10" x1="912.875" y1="38.769" x2="922.847" y2="67.52"/>
<path fill="none" stroke="#FFFFFF" stroke-width="1.5" stroke-linecap="square" stroke-linejoin="round" stroke-miterlimit="10" d="
	M947.818,136.88l-26.744,13.835c-0.486,0.252-1.086,0.063-1.337-0.426l-10.761-20.797c-0.251-0.486-0.061-1.088,0.427-1.338
	l30.431-15.741c0.488-0.254,1.089-0.063,1.34,0.425l11.214,21.678"/>
<line fill="none" stroke="#FFFFFF" stroke-width="1.5" stroke-linecap="square" stroke-linejoin="round" stroke-miterlimit="10" x1="914.375" y1="133.682" x2="941.403" y2="119.698"/>
<line fill="none" stroke="#FFFFFF" stroke-width="1.5" stroke-linecap="square" stroke-linejoin="round" stroke-miterlimit="10" x1="922.121" y1="143.371" x2="931.065" y2="138.743"/>
<line fill="none" stroke="#FFFFFF" stroke-width="1.5" stroke-linecap="square" stroke-linejoin="round" stroke-miterlimit="10" x1="920.791" y1="140.799" x2="927.528" y2="137.313"/>
<line fill="none" stroke="#FFFFFF" stroke-width="1.5" stroke-linecap="square" stroke-linejoin="round" stroke-miterlimit="10" x1="915.775" y1="136.218" x2="942.804" y2="122.234"/>
<path fill="none" stroke="#FFFFFF" stroke-width="1.5" stroke-linecap="square" stroke-linejoin="round" stroke-miterlimit="10" d="
	M863.956,38.285l-29.979-2.829c-0.547-0.05-0.946-0.535-0.895-1.081l2.198-23.311c0.052-0.545,0.536-0.946,1.083-0.895l34.11,3.219
	c0.546,0.052,0.946,0.536,0.896,1.082l-2.292,24.298"/>
<line fill="none" stroke="#FFFFFF" stroke-width="1.5" stroke-linecap="square" stroke-linejoin="round" stroke-miterlimit="10" x1="837.557" y1="17.507" x2="867.854" y2="20.364"/>
<line fill="none" stroke="#FFFFFF" stroke-width="1.5" stroke-linecap="square" stroke-linejoin="round" stroke-miterlimit="10" x1="838.832" y1="29.847" x2="848.854" y2="30.791"/>
<line fill="none" stroke="#FFFFFF" stroke-width="1.5" stroke-linecap="square" stroke-linejoin="round" stroke-miterlimit="10" x1="839.104" y1="26.962" x2="846.656" y2="27.675"/>
<line fill="none" stroke="#FFFFFF" stroke-width="1.5" stroke-linecap="square" stroke-linejoin="round" stroke-miterlimit="10" x1="837.363" y1="20.396" x2="867.661" y2="23.256"/>
<path fill="none" stroke="#FFFFFF" stroke-width="1.5" stroke-linecap="square" stroke-linejoin="round" stroke-miterlimit="10" d="
	M859.13,112.479l30.106,0.554c0.548,0.011,0.983,0.462,0.974,1.012l-0.431,23.409c-0.011,0.549-0.462,0.984-1.012,0.975
	l-34.256-0.63c-0.551-0.012-0.986-0.464-0.977-1.011l0.45-24.403"/>
<line fill="none" stroke="#FFFFFF" stroke-width="1.5" stroke-linecap="square" stroke-linejoin="round" stroke-miterlimit="10" x1="887.024" y1="131.202" x2="856.599" y2="130.643"/>
<line fill="none" stroke="#FFFFFF" stroke-width="1.5" stroke-linecap="square" stroke-linejoin="round" stroke-miterlimit="10" x1="884.821" y1="118.993" x2="874.753" y2="118.809"/>
<line fill="none" stroke="#FFFFFF" stroke-width="1.5" stroke-linecap="square" stroke-linejoin="round" stroke-miterlimit="10" x1="884.769" y1="121.891" x2="877.182" y2="121.75"/>
<line fill="none" stroke="#FFFFFF" stroke-width="1.5" stroke-linecap="square" stroke-linejoin="round" stroke-miterlimit="10" x1="887" y1="128.305" x2="856.573" y2="127.745"/>
<path fill="none" stroke="#FFFFFF" stroke-width="1.5" stroke-linecap="square" stroke-linejoin="round" stroke-miterlimit="10" d="
	M802.573,155.712l17.17-24.735c0.311-0.451,0.931-0.563,1.382-0.25l19.234,13.351c0.449,0.313,0.562,0.932,0.25,1.382
	l-19.537,28.146c-0.313,0.451-0.934,0.563-1.384,0.25l-20.05-13.916"/>
<line fill="none" stroke="#FFFFFF" stroke-width="1.5" stroke-linecap="square" stroke-linejoin="round" stroke-miterlimit="10" x1="833.63" y1="142.898" x2="816.278" y2="167.898"/>
<line fill="none" stroke="#FFFFFF" stroke-width="1.5" stroke-linecap="square" stroke-linejoin="round" stroke-miterlimit="10" x1="822.251" y1="137.956" x2="816.51" y2="146.229"/>
<line fill="none" stroke="#FFFFFF" stroke-width="1.5" stroke-linecap="square" stroke-linejoin="round" stroke-miterlimit="10" x1="824.63" y1="139.607" x2="820.306" y2="145.841"/>
<line fill="none" stroke="#FFFFFF" stroke-width="1.5" stroke-linecap="square" stroke-linejoin="round" stroke-miterlimit="10" x1="831.204" y1="141.313" x2="813.853" y2="166.313"/>
<path fill="none" stroke="#FFFFFF" stroke-width="1.5" stroke-linecap="square" stroke-linejoin="round" stroke-miterlimit="10" d="
	M832.894,109.191l-30.08,1.349c-0.549,0.024-1.012-0.399-1.036-0.947l-1.05-23.39c-0.022-0.549,0.401-1.012,0.947-1.037
	l34.229-1.533c0.549-0.023,1.013,0.4,1.038,0.947l1.091,24.382"/>
<line fill="none" stroke="#FFFFFF" stroke-width="1.5" stroke-linecap="square" stroke-linejoin="round" stroke-miterlimit="10" x1="803.872" y1="92.266" x2="834.272" y2="90.904"/>
<line fill="none" stroke="#FFFFFF" stroke-width="1.5" stroke-linecap="square" stroke-linejoin="round" stroke-miterlimit="10" x1="806.843" y1="104.311" x2="816.901" y2="103.859"/>
<line fill="none" stroke="#FFFFFF" stroke-width="1.5" stroke-linecap="square" stroke-linejoin="round" stroke-miterlimit="10" x1="806.712" y1="101.417" x2="814.292" y2="101.078"/>
<line fill="none" stroke="#FFFFFF" stroke-width="1.5" stroke-linecap="square" stroke-linejoin="round" stroke-miterlimit="10" x1="804.081" y1="95.156" x2="834.481" y2="93.794"/>
</svg>
