<?xml version="1.0" encoding="utf-8"?>
<!-- Generator: Adobe Illustrator 15.0.2, SVG Export Plug-In . SVG Version: 6.00 Build 0)  -->
<!DOCTYPE svg PUBLIC "-//W3C//DTD SVG 1.1//EN" "http://www.w3.org/Graphics/SVG/1.1/DTD/svg11.dtd">
<svg version="1.1" id="Layer_1" xmlns="http://www.w3.org/2000/svg" xmlns:xlink="http://www.w3.org/1999/xlink" x="0px" y="0px"
	 width="1908.672px" height="240px" viewBox="0 0 1908.672 240" enable-background="new 0 0 1908.672 240" xml:space="preserve">
<rect x="0" fill="#56DAF3" width="1908.672" height="240"/>
<g>
	
		<line fill="none" stroke="#FFFFFF" stroke-width="2" stroke-linecap="round" stroke-linejoin="bevel" stroke-miterlimit="10" x1="1086.685" y1="232.818" x2="1084.68" y2="211.715"/>
	<path fill="none" stroke="#FFFFFF" stroke-width="2" stroke-linecap="round" stroke-linejoin="bevel" stroke-miterlimit="10" d="
		M1083.645,176.37c5.773-0.664,11.754,1.53,15.708,6.362c6.181,7.549,5.071,18.682-2.479,24.861
		c-1.106,0.906-2.289,1.654-3.523,2.25"/>
	<path fill="none" stroke="#FFFFFF" stroke-width="2" stroke-linecap="round" stroke-linejoin="bevel" stroke-miterlimit="10" d="
		M1093.35,209.846c-7.184,3.467-16.064,1.713-21.339-4.732c-2.175-2.655-3.448-5.756-3.854-8.928"/>
	<path fill="none" stroke="#FFFFFF" stroke-width="2" stroke-linecap="round" stroke-linejoin="bevel" stroke-miterlimit="10" d="
		M1090.218,211.811l2.217,23.336c0.205,2.147-0.862,4.023-2.368,4.168c-1.507,0.144-2.907-1.498-3.112-3.647l-0.265-2.784"/>
	<path fill="none" stroke="#FFFFFF" stroke-width="2" stroke-linecap="round" stroke-linejoin="bevel" stroke-miterlimit="10" d="
		M1069.035,188.186c1.033-2.984,2.88-5.73,5.502-7.877c7.553-6.182,18.683-5.07,24.864,2.479c0.905,1.106,1.653,2.29,2.25,3.522"/>
	<path fill="none" stroke="#FFFFFF" stroke-width="2" stroke-linecap="round" stroke-linejoin="bevel" stroke-miterlimit="10" d="
		M1077.534,183.268c2.08-1.748,4.726-2.858,7.646-3.012c7.134-0.371,13.218,5.107,13.59,12.243c0.054,1.045-0.017,2.067-0.201,3.054
		"/>
</g>
<g>
	
		<line fill="none" stroke="#FFFFFF" stroke-width="2" stroke-linecap="round" stroke-linejoin="bevel" stroke-miterlimit="10" x1="1087.358" y1="73.498" x2="1108.145" y2="69.329"/>
	<path fill="none" stroke="#FFFFFF" stroke-width="2" stroke-linecap="round" stroke-linejoin="bevel" stroke-miterlimit="10" d="
		M1143.194,64.657c1.256,5.674-0.311,11.849-4.709,16.28c-6.873,6.926-18.06,6.969-24.986,0.096
		c-1.015-1.007-1.882-2.107-2.601-3.273"/>
	<path fill="none" stroke="#FFFFFF" stroke-width="2" stroke-linecap="round" stroke-linejoin="bevel" stroke-miterlimit="10" d="
		M1110.898,77.76c-4.188-6.788-3.359-15.802,2.507-21.713c2.418-2.437,5.37-4.022,8.482-4.754"/>
	<path fill="none" stroke="#FFFFFF" stroke-width="2" stroke-linecap="round" stroke-linejoin="bevel" stroke-miterlimit="10" d="
		M1108.621,74.846l-22.982,4.611c-2.116,0.425-4.093-0.443-4.392-1.926c-0.298-1.484,1.19-3.046,3.31-3.471l2.741-0.55"/>
	<path fill="none" stroke="#FFFFFF" stroke-width="2" stroke-linecap="round" stroke-linejoin="bevel" stroke-miterlimit="10" d="
		M1129.937,51.342c3.076,0.72,5.997,2.274,8.401,4.661c6.928,6.875,6.97,18.061,0.097,24.988c-1.007,1.014-2.107,1.88-3.272,2.601"
		/>
	<path fill="none" stroke="#FFFFFF" stroke-width="2" stroke-linecap="round" stroke-linejoin="bevel" stroke-miterlimit="10" d="
		M1135.704,59.289c1.954,1.889,3.331,4.405,3.784,7.295c1.104,7.058-3.719,13.674-10.777,14.779
		c-1.033,0.162-2.06,0.197-3.059,0.115"/>
</g>
<g>
	
		<line fill="none" stroke="#FFFFFF" stroke-width="2" stroke-linecap="round" stroke-linejoin="bevel" stroke-miterlimit="10" x1="1030.951" y1="-16.848" x2="1043.008" y2="0.59"/>
	<path fill="none" stroke="#FFFFFF" stroke-width="2" stroke-linecap="round" stroke-linejoin="bevel" stroke-miterlimit="10" d="
		M1061.173,30.928c-4.713,3.398-11.004,4.404-16.814,2.12c-9.081-3.569-13.549-13.826-9.979-22.907
		c0.522-1.331,1.189-2.562,1.977-3.685"/>
	<path fill="none" stroke="#FFFFFF" stroke-width="2" stroke-linecap="round" stroke-linejoin="bevel" stroke-miterlimit="10" d="
		M1036.355,6.456c4.575-6.533,13.181-9.34,20.932-6.292c3.195,1.256,5.819,3.339,7.724,5.908"/>
	<path fill="none" stroke="#FFFFFF" stroke-width="2" stroke-linecap="round" stroke-linejoin="bevel" stroke-miterlimit="10" d="
		M1038.13,3.211l-13.332-19.28c-1.229-1.774-1.213-3.933,0.03-4.794c1.244-0.861,3.27-0.112,4.497,1.664l1.59,2.3"/>
	<path fill="none" stroke="#FFFFFF" stroke-width="2" stroke-linecap="round" stroke-linejoin="bevel" stroke-miterlimit="10" d="
		M1068.151,13.481c0.557,3.109,0.286,6.408-0.954,9.561c-3.571,9.083-13.826,13.549-22.907,9.98
		c-1.33-0.523-2.563-1.191-3.686-1.976"/>
	<path fill="none" stroke="#FFFFFF" stroke-width="2" stroke-linecap="round" stroke-linejoin="bevel" stroke-miterlimit="10" d="
		M1063.137,21.924c-0.961,2.542-2.728,4.803-5.201,6.362c-6.044,3.809-14.029,1.999-17.838-4.047
		c-0.559-0.885-0.996-1.813-1.316-2.762"/>
</g>
<g>
	
		<line fill="none" stroke="#FFFFFF" stroke-width="2" stroke-linecap="round" stroke-linejoin="bevel" stroke-miterlimit="10" x1="752.336" y1="239.57" x2="754.052" y2="218.441"/>
	<path fill="none" stroke="#FFFFFF" stroke-width="2" stroke-linecap="round" stroke-linejoin="bevel" stroke-miterlimit="10" d="
		M759.213,183.46c5.8,0.354,11.305,3.562,14.354,9.011c4.766,8.514,1.729,19.28-6.787,24.047c-1.248,0.697-2.544,1.229-3.864,1.599"
		/>
	<path fill="none" stroke="#FFFFFF" stroke-width="2" stroke-linecap="round" stroke-linejoin="bevel" stroke-miterlimit="10" d="
		M762.915,218.115c-7.678,2.158-16.115-1.121-20.183-8.389c-1.677-2.996-2.388-6.271-2.234-9.465"/>
	<path fill="none" stroke="#FFFFFF" stroke-width="2" stroke-linecap="round" stroke-linejoin="bevel" stroke-miterlimit="10" d="
		M759.486,219.503l-1.896,23.364c-0.174,2.15-1.553,3.813-3.061,3.689c-1.509-0.121-2.601-1.982-2.426-4.137l0.227-2.787"/>
	<path fill="none" stroke="#FFFFFF" stroke-width="2" stroke-linecap="round" stroke-linejoin="bevel" stroke-miterlimit="10" d="
		M742.76,192.539c1.539-2.76,3.837-5.141,6.794-6.793c8.516-4.768,19.281-1.729,24.048,6.787c0.698,1.248,1.228,2.544,1.6,3.861"/>
	<path fill="none" stroke="#FFFFFF" stroke-width="2" stroke-linecap="round" stroke-linejoin="bevel" stroke-miterlimit="10" d="
		M751.988,189.184c2.354-1.358,5.152-1.99,8.056-1.629c7.089,0.881,12.121,7.34,11.239,14.43c-0.129,1.039-0.377,2.035-0.73,2.973"
		/>
</g>
<g>
	
		<line fill="none" stroke="#FFFFFF" stroke-width="2" stroke-linecap="round" stroke-linejoin="bevel" stroke-miterlimit="10" x1="874.316" y1="228.396" x2="875.218" y2="208.087"/>
	<path fill="none" stroke="#FFFFFF" stroke-width="2" stroke-linecap="round" stroke-linejoin="bevel" stroke-miterlimit="10" d="
		M878.93,174.383c5.57,0.137,10.959,3.016,14.072,8.129c4.866,7.991,2.333,18.416-5.658,23.282
		c-1.171,0.714-2.395,1.269-3.646,1.668"/>
	<path fill="none" stroke="#FFFFFF" stroke-width="2" stroke-linecap="round" stroke-linejoin="bevel" stroke-miterlimit="10" d="
		M883.699,207.462c-7.283,2.339-15.482-0.507-19.637-7.328c-1.713-2.812-2.509-5.924-2.475-8.989"/>
	<path fill="none" stroke="#FFFFFF" stroke-width="2" stroke-linecap="round" stroke-linejoin="bevel" stroke-miterlimit="10" d="
		M880.464,208.913l-0.995,22.456c-0.092,2.066-1.354,3.707-2.805,3.645c-1.448-0.063-2.562-1.81-2.47-3.879l0.118-2.679"/>
	<path fill="none" stroke="#FFFFFF" stroke-width="2" stroke-linecap="round" stroke-linejoin="bevel" stroke-miterlimit="10" d="
		M863.484,183.662c1.378-2.697,3.497-5.061,6.272-6.75c7.992-4.867,18.416-2.333,23.283,5.658c0.713,1.172,1.267,2.396,1.67,3.646"
		/>
	<path fill="none" stroke="#FFFFFF" stroke-width="2" stroke-linecap="round" stroke-linejoin="bevel" stroke-miterlimit="10" d="
		M872.21,180.122c2.207-1.386,4.867-2.089,7.66-1.847c6.826,0.596,11.875,6.607,11.28,13.435c-0.086,0.999-0.29,1.962-0.596,2.873"
		/>
</g>
<g>
	
		<line fill="none" stroke="#FFFFFF" stroke-width="2" stroke-linecap="round" stroke-linejoin="bevel" stroke-miterlimit="10" x1="783.099" y1="9.256" x2="787.931" y2="29.897"/>
	<path fill="none" stroke="#FFFFFF" stroke-width="2" stroke-linecap="round" stroke-linejoin="bevel" stroke-miterlimit="10" d="
		M793.722,64.78c-5.631,1.437-11.854,0.068-16.423-4.186c-7.143-6.647-7.543-17.827-0.896-24.969
		c0.975-1.047,2.046-1.948,3.189-2.705"/>
	<path fill="none" stroke="#FFFFFF" stroke-width="2" stroke-linecap="round" stroke-linejoin="bevel" stroke-miterlimit="10" d="
		M779.593,32.92c6.649-4.403,15.686-3.864,21.781,1.812c2.514,2.338,4.192,5.238,5.023,8.326"/>
	<path fill="none" stroke="#FFFFFF" stroke-width="2" stroke-linecap="round" stroke-linejoin="bevel" stroke-miterlimit="10" d="
		M782.432,30.55l-5.344-22.823c-0.493-2.101,0.311-4.104,1.783-4.45c1.475-0.346,3.083,1.092,3.575,3.195l0.639,2.723"/>
	<path fill="none" stroke="#FFFFFF" stroke-width="2" stroke-linecap="round" stroke-linejoin="bevel" stroke-miterlimit="10" d="
		M806.606,51.103c-0.622,3.097-2.081,6.066-4.39,8.546c-6.649,7.144-17.828,7.544-24.973,0.896
		c-1.045-0.974-1.946-2.046-2.704-3.188"/>
	<path fill="none" stroke="#FFFFFF" stroke-width="2" stroke-linecap="round" stroke-linejoin="bevel" stroke-miterlimit="10" d="
		M798.847,57.122c-1.825,2.013-4.296,3.47-7.169,4.016c-7.02,1.33-13.787-3.279-15.117-10.299c-0.195-1.028-0.263-2.052-0.213-3.053
		"/>
</g>
<g>
	
		<line fill="none" stroke="#FFFFFF" stroke-width="2" stroke-linecap="round" stroke-linejoin="bevel" stroke-miterlimit="10" x1="639.31" y1="154.971" x2="650.004" y2="173.275"/>
	<path fill="none" stroke="#FFFFFF" stroke-width="2" stroke-linecap="round" stroke-linejoin="bevel" stroke-miterlimit="10" d="
		M665.804,204.908c-4.958,3.031-11.308,3.555-16.927,0.834c-8.783-4.25-12.457-14.817-8.206-23.602
		c0.624-1.287,1.383-2.463,2.252-3.522"/>
	<path fill="none" stroke="#FFFFFF" stroke-width="2" stroke-linecap="round" stroke-linejoin="bevel" stroke-miterlimit="10" d="
		M642.924,178.618c5.06-6.166,13.854-8.31,21.351-4.681c3.09,1.496,5.548,3.772,7.251,6.479"/>
	<path fill="none" stroke="#FFFFFF" stroke-width="2" stroke-linecap="round" stroke-linejoin="bevel" stroke-miterlimit="10" d="
		M644.939,175.52l-11.825-20.24c-1.089-1.863-0.91-4.014,0.396-4.778c1.307-0.763,3.268,0.138,4.356,2.002l1.411,2.415"/>
	<path fill="none" stroke="#FFFFFF" stroke-width="2" stroke-linecap="round" stroke-linejoin="bevel" stroke-miterlimit="10" d="
		M674.093,188.045c0.317,3.145-0.203,6.411-1.681,9.461c-4.252,8.784-14.816,12.457-23.602,8.205
		c-1.287-0.623-2.463-1.382-3.524-2.251"/>
	<path fill="none" stroke="#FFFFFF" stroke-width="2" stroke-linecap="round" stroke-linejoin="bevel" stroke-miterlimit="10" d="
		M668.448,196.081c-1.15,2.462-3.083,4.581-5.67,5.948c-6.316,3.337-14.142,0.923-17.479-5.395
		c-0.488-0.926-0.854-1.884-1.102-2.855"/>
</g>
<g>
	
		<line fill="none" stroke="#FFFFFF" stroke-width="2" stroke-linecap="round" stroke-linejoin="bevel" stroke-miterlimit="10" x1="676.075" y1="73.498" x2="696.861" y2="69.329"/>
	<path fill="none" stroke="#FFFFFF" stroke-width="2" stroke-linecap="round" stroke-linejoin="bevel" stroke-miterlimit="10" d="
		M731.911,64.657c1.256,5.674-0.311,11.849-4.709,16.28c-6.873,6.926-18.06,6.969-24.985,0.096
		c-1.016-1.007-1.882-2.107-2.602-3.273"/>
	<path fill="none" stroke="#FFFFFF" stroke-width="2" stroke-linecap="round" stroke-linejoin="bevel" stroke-miterlimit="10" d="
		M699.615,77.76c-4.188-6.788-3.358-15.802,2.507-21.713c2.418-2.437,5.37-4.022,8.482-4.754"/>
	<path fill="none" stroke="#FFFFFF" stroke-width="2" stroke-linecap="round" stroke-linejoin="bevel" stroke-miterlimit="10" d="
		M697.338,74.846l-22.983,4.611c-2.116,0.425-4.092-0.443-4.391-1.926c-0.299-1.484,1.189-3.046,3.309-3.471l2.742-0.55"/>
	<path fill="none" stroke="#FFFFFF" stroke-width="2" stroke-linecap="round" stroke-linejoin="bevel" stroke-miterlimit="10" d="
		M718.653,51.342c3.076,0.72,5.997,2.274,8.401,4.661c6.928,6.875,6.97,18.061,0.097,24.988c-1.007,1.014-2.106,1.88-3.271,2.601"/>
	<path fill="none" stroke="#FFFFFF" stroke-width="2" stroke-linecap="round" stroke-linejoin="bevel" stroke-miterlimit="10" d="
		M724.422,59.289c1.954,1.889,3.331,4.405,3.783,7.295c1.104,7.058-3.719,13.674-10.777,14.779c-1.033,0.162-2.06,0.197-3.059,0.115
		"/>
</g>
<g>
	
		<line fill="none" stroke="#FFFFFF" stroke-width="2" stroke-linecap="round" stroke-linejoin="bevel" stroke-miterlimit="10" x1="619.669" y1="-16.848" x2="631.724" y2="0.59"/>
	<path fill="none" stroke="#FFFFFF" stroke-width="2" stroke-linecap="round" stroke-linejoin="bevel" stroke-miterlimit="10" d="
		M649.889,30.928c-4.713,3.398-11.004,4.404-16.814,2.12c-9.081-3.569-13.549-13.826-9.979-22.907
		c0.522-1.331,1.189-2.562,1.977-3.685"/>
	<path fill="none" stroke="#FFFFFF" stroke-width="2" stroke-linecap="round" stroke-linejoin="bevel" stroke-miterlimit="10" d="
		M625.072,6.456c4.575-6.533,13.182-9.34,20.933-6.292c3.194,1.256,5.818,3.339,7.723,5.908"/>
	<path fill="none" stroke="#FFFFFF" stroke-width="2" stroke-linecap="round" stroke-linejoin="bevel" stroke-miterlimit="10" d="
		M626.846,3.211l-13.332-19.28c-1.229-1.774-1.213-3.933,0.031-4.794c1.244-0.861,3.269-0.112,4.497,1.664l1.59,2.3"/>
	<path fill="none" stroke="#FFFFFF" stroke-width="2" stroke-linecap="round" stroke-linejoin="bevel" stroke-miterlimit="10" d="
		M656.868,13.481c0.558,3.109,0.286,6.408-0.954,9.561c-3.57,9.083-13.825,13.549-22.907,9.98c-1.33-0.523-2.563-1.191-3.686-1.976"
		/>
	<path fill="none" stroke="#FFFFFF" stroke-width="2" stroke-linecap="round" stroke-linejoin="bevel" stroke-miterlimit="10" d="
		M651.854,21.924c-0.961,2.542-2.727,4.803-5.201,6.362c-6.044,3.809-14.029,1.999-17.838-4.047
		c-0.558-0.885-0.996-1.813-1.316-2.762"/>
</g>
<g>
	
		<line fill="none" stroke="#FFFFFF" stroke-width="2" stroke-linecap="round" stroke-linejoin="bevel" stroke-miterlimit="10" x1="383.923" y1="206.298" x2="385.638" y2="185.168"/>
	<path fill="none" stroke="#FFFFFF" stroke-width="2" stroke-linecap="round" stroke-linejoin="bevel" stroke-miterlimit="10" d="
		M390.8,150.188c5.8,0.354,11.305,3.562,14.354,9.01c4.767,8.515,1.729,19.281-6.787,24.047c-1.248,0.697-2.544,1.229-3.863,1.599"
		/>
	<path fill="none" stroke="#FFFFFF" stroke-width="2" stroke-linecap="round" stroke-linejoin="bevel" stroke-miterlimit="10" d="
		M394.502,184.842c-7.679,2.158-16.116-1.121-20.184-8.389c-1.677-2.996-2.388-6.27-2.233-9.465"/>
	<path fill="none" stroke="#FFFFFF" stroke-width="2" stroke-linecap="round" stroke-linejoin="bevel" stroke-miterlimit="10" d="
		M391.073,186.229l-1.896,23.365c-0.174,2.149-1.552,3.811-3.061,3.689c-1.509-0.122-2.601-1.983-2.426-4.137l0.228-2.787"/>
	<path fill="none" stroke="#FFFFFF" stroke-width="2" stroke-linecap="round" stroke-linejoin="bevel" stroke-miterlimit="10" d="
		M374.347,159.266c1.539-2.759,3.837-5.14,6.794-6.793c8.516-4.768,19.281-1.728,24.048,6.787c0.698,1.248,1.228,2.545,1.6,3.862"/>
	<path fill="none" stroke="#FFFFFF" stroke-width="2" stroke-linecap="round" stroke-linejoin="bevel" stroke-miterlimit="10" d="
		M383.575,155.909c2.354-1.358,5.152-1.989,8.056-1.63c7.089,0.883,12.122,7.341,11.239,14.432c-0.129,1.038-0.377,2.034-0.73,2.973
		"/>
</g>
<g>
	
		<line fill="none" stroke="#FFFFFF" stroke-width="2" stroke-linecap="round" stroke-linejoin="bevel" stroke-miterlimit="10" x1="481.52" y1="187.708" x2="482.421" y2="167.398"/>
	<path fill="none" stroke="#FFFFFF" stroke-width="2" stroke-linecap="round" stroke-linejoin="bevel" stroke-miterlimit="10" d="
		M486.135,133.693c5.569,0.138,10.959,3.016,14.071,8.129c4.867,7.992,2.333,18.416-5.657,23.283
		c-1.171,0.713-2.395,1.268-3.646,1.668"/>
	<path fill="none" stroke="#FFFFFF" stroke-width="2" stroke-linecap="round" stroke-linejoin="bevel" stroke-miterlimit="10" d="
		M490.902,166.773c-7.283,2.338-15.482-0.508-19.637-7.328c-1.713-2.812-2.509-5.924-2.476-8.989"/>
	<path fill="none" stroke="#FFFFFF" stroke-width="2" stroke-linecap="round" stroke-linejoin="bevel" stroke-miterlimit="10" d="
		M487.667,168.225l-0.994,22.457c-0.093,2.066-1.354,3.707-2.805,3.645c-1.448-0.064-2.562-1.811-2.47-3.879l0.118-2.68"/>
	<path fill="none" stroke="#FFFFFF" stroke-width="2" stroke-linecap="round" stroke-linejoin="bevel" stroke-miterlimit="10" d="
		M470.688,142.975c1.378-2.697,3.497-5.062,6.272-6.75c7.992-4.867,18.415-2.334,23.283,5.658c0.712,1.172,1.267,2.395,1.669,3.645"
		/>
	<path fill="none" stroke="#FFFFFF" stroke-width="2" stroke-linecap="round" stroke-linejoin="bevel" stroke-miterlimit="10" d="
		M479.413,139.434c2.208-1.386,4.868-2.088,7.661-1.846c6.826,0.596,11.875,6.607,11.28,13.434c-0.086,1-0.29,1.963-0.596,2.873"/>
</g>
<g>
	
		<line fill="none" stroke="#FFFFFF" stroke-width="2" stroke-linecap="round" stroke-linejoin="bevel" stroke-miterlimit="10" x1="362.106" y1="40.894" x2="366.938" y2="61.535"/>
	<path fill="none" stroke="#FFFFFF" stroke-width="2" stroke-linecap="round" stroke-linejoin="bevel" stroke-miterlimit="10" d="
		M372.729,96.417c-5.631,1.437-11.853,0.068-16.423-4.186c-7.143-6.647-7.543-17.827-0.896-24.969
		c0.975-1.047,2.046-1.948,3.189-2.705"/>
	<path fill="none" stroke="#FFFFFF" stroke-width="2" stroke-linecap="round" stroke-linejoin="bevel" stroke-miterlimit="10" d="
		M358.599,64.558c6.649-4.403,15.686-3.864,21.782,1.812c2.513,2.338,4.191,5.238,5.022,8.326"/>
	<path fill="none" stroke="#FFFFFF" stroke-width="2" stroke-linecap="round" stroke-linejoin="bevel" stroke-miterlimit="10" d="
		M361.438,62.188l-5.344-22.823c-0.493-2.101,0.311-4.104,1.784-4.45s3.083,1.092,3.574,3.195l0.639,2.723"/>
	<path fill="none" stroke="#FFFFFF" stroke-width="2" stroke-linecap="round" stroke-linejoin="bevel" stroke-miterlimit="10" d="
		M385.613,82.741c-0.622,3.097-2.081,6.066-4.39,8.546c-6.649,7.144-17.828,7.544-24.973,0.896
		c-1.045-0.974-1.946-2.046-2.703-3.188"/>
	<path fill="none" stroke="#FFFFFF" stroke-width="2" stroke-linecap="round" stroke-linejoin="bevel" stroke-miterlimit="10" d="
		M377.854,88.759c-1.825,2.013-4.296,3.47-7.169,4.016c-7.02,1.33-13.787-3.279-15.117-10.299c-0.195-1.028-0.263-2.052-0.213-3.053
		"/>
</g>
<g>
	
		<line fill="none" stroke="#FFFFFF" stroke-width="2" stroke-linecap="round" stroke-linejoin="bevel" stroke-miterlimit="10" x1="225.086" y1="208.766" x2="223.082" y2="187.66"/>
	<path fill="none" stroke="#FFFFFF" stroke-width="2" stroke-linecap="round" stroke-linejoin="bevel" stroke-miterlimit="10" d="
		M222.046,152.314c5.773-0.664,11.754,1.531,15.708,6.363c6.182,7.549,5.071,18.682-2.479,24.861
		c-1.107,0.906-2.29,1.654-3.524,2.25"/>
	<path fill="none" stroke="#FFFFFF" stroke-width="2" stroke-linecap="round" stroke-linejoin="bevel" stroke-miterlimit="10" d="
		M231.751,185.79c-7.184,3.467-16.063,1.713-21.339-4.731c-2.175-2.656-3.448-5.756-3.854-8.928"/>
	<path fill="none" stroke="#FFFFFF" stroke-width="2" stroke-linecap="round" stroke-linejoin="bevel" stroke-miterlimit="10" d="
		M228.619,187.755l2.217,23.336c0.205,2.147-0.861,4.024-2.368,4.169c-1.507,0.143-2.906-1.498-3.111-3.648l-0.266-2.783"/>
	<path fill="none" stroke="#FFFFFF" stroke-width="2" stroke-linecap="round" stroke-linejoin="bevel" stroke-miterlimit="10" d="
		M207.436,164.131c1.033-2.984,2.879-5.73,5.502-7.877c7.552-6.182,18.682-5.07,24.864,2.479c0.904,1.106,1.652,2.291,2.25,3.523"/>
	<path fill="none" stroke="#FFFFFF" stroke-width="2" stroke-linecap="round" stroke-linejoin="bevel" stroke-miterlimit="10" d="
		M215.935,159.213c2.08-1.749,4.725-2.859,7.646-3.012c7.134-0.372,13.218,5.107,13.59,12.242c0.055,1.045-0.017,2.068-0.2,3.055"/>
</g>
<g>
	
		<line fill="none" stroke="#FFFFFF" stroke-width="2" stroke-linecap="round" stroke-linejoin="bevel" stroke-miterlimit="10" x1="250.143" y1="83.498" x2="270.929" y2="79.329"/>
	<path fill="none" stroke="#FFFFFF" stroke-width="2" stroke-linecap="round" stroke-linejoin="bevel" stroke-miterlimit="10" d="
		M305.979,74.657c1.256,5.674-0.311,11.849-4.709,16.28c-6.873,6.926-18.061,6.969-24.986,0.096
		c-1.015-1.007-1.882-2.107-2.601-3.273"/>
	<path fill="none" stroke="#FFFFFF" stroke-width="2" stroke-linecap="round" stroke-linejoin="bevel" stroke-miterlimit="10" d="
		M273.683,87.76c-4.188-6.788-3.359-15.802,2.507-21.713c2.418-2.437,5.37-4.022,8.481-4.754"/>
	<path fill="none" stroke="#FFFFFF" stroke-width="2" stroke-linecap="round" stroke-linejoin="bevel" stroke-miterlimit="10" d="
		M271.405,84.846l-22.983,4.611c-2.115,0.425-4.092-0.443-4.391-1.926c-0.298-1.484,1.19-3.046,3.309-3.471l2.742-0.55"/>
	<path fill="none" stroke="#FFFFFF" stroke-width="2" stroke-linecap="round" stroke-linejoin="bevel" stroke-miterlimit="10" d="
		M292.721,61.342c3.075,0.72,5.997,2.274,8.4,4.661c6.929,6.875,6.971,18.061,0.098,24.988c-1.007,1.014-2.107,1.88-3.272,2.601"/>
	<path fill="none" stroke="#FFFFFF" stroke-width="2" stroke-linecap="round" stroke-linejoin="bevel" stroke-miterlimit="10" d="
		M298.489,69.289c1.954,1.889,3.331,4.405,3.784,7.295c1.104,7.058-3.719,13.674-10.778,14.779
		c-1.033,0.162-2.059,0.197-3.058,0.115"/>
</g>
<g>
	
		<line fill="none" stroke="#FFFFFF" stroke-width="2" stroke-linecap="round" stroke-linejoin="bevel" stroke-miterlimit="10" x1="193.736" y1="-6.848" x2="205.792" y2="10.59"/>
	<path fill="none" stroke="#FFFFFF" stroke-width="2" stroke-linecap="round" stroke-linejoin="bevel" stroke-miterlimit="10" d="
		M223.957,40.928c-4.713,3.398-11.004,4.404-16.813,2.12c-9.081-3.569-13.549-13.826-9.979-22.907
		c0.523-1.331,1.19-2.562,1.978-3.685"/>
	<path fill="none" stroke="#FFFFFF" stroke-width="2" stroke-linecap="round" stroke-linejoin="bevel" stroke-miterlimit="10" d="
		M199.14,16.456c4.574-6.533,13.181-9.34,20.932-6.292c3.195,1.256,5.819,3.339,7.723,5.908"/>
	<path fill="none" stroke="#FFFFFF" stroke-width="2" stroke-linecap="round" stroke-linejoin="bevel" stroke-miterlimit="10" d="
		M200.914,13.211l-13.332-19.28c-1.228-1.774-1.213-3.933,0.031-4.794c1.244-0.861,3.269-0.112,4.497,1.664l1.59,2.3"/>
	<path fill="none" stroke="#FFFFFF" stroke-width="2" stroke-linecap="round" stroke-linejoin="bevel" stroke-miterlimit="10" d="
		M230.936,23.481c0.557,3.109,0.286,6.408-0.954,9.561c-3.571,9.083-13.826,13.549-22.908,9.98c-1.33-0.523-2.562-1.191-3.685-1.976
		"/>
	<path fill="none" stroke="#FFFFFF" stroke-width="2" stroke-linecap="round" stroke-linejoin="bevel" stroke-miterlimit="10" d="
		M225.921,31.924c-0.961,2.542-2.727,4.803-5.2,6.362c-6.045,3.809-14.029,1.999-17.839-4.047c-0.558-0.885-0.995-1.813-1.315-2.762
		"/>
</g>
<g>
	
		<line fill="none" stroke="#FFFFFF" stroke-width="2" stroke-linecap="round" stroke-linejoin="bevel" stroke-miterlimit="10" x1="55.588" y1="187.708" x2="56.488" y2="167.398"/>
	<path fill="none" stroke="#FFFFFF" stroke-width="2" stroke-linecap="round" stroke-linejoin="bevel" stroke-miterlimit="10" d="
		M60.202,133.693c5.57,0.138,10.959,3.016,14.072,8.129c4.867,7.992,2.333,18.416-5.658,23.283
		c-1.171,0.713-2.394,1.268-3.646,1.668"/>
	<path fill="none" stroke="#FFFFFF" stroke-width="2" stroke-linecap="round" stroke-linejoin="bevel" stroke-miterlimit="10" d="
		M64.97,166.773c-7.283,2.338-15.483-0.508-19.638-7.328c-1.713-2.812-2.509-5.924-2.475-8.989"/>
	<path fill="none" stroke="#FFFFFF" stroke-width="2" stroke-linecap="round" stroke-linejoin="bevel" stroke-miterlimit="10" d="
		M61.734,168.225l-0.995,22.457c-0.092,2.066-1.354,3.707-2.804,3.645c-1.449-0.064-2.563-1.811-2.471-3.879l0.118-2.68"/>
	<path fill="none" stroke="#FFFFFF" stroke-width="2" stroke-linecap="round" stroke-linejoin="bevel" stroke-miterlimit="10" d="
		M44.756,142.975c1.378-2.697,3.497-5.062,6.272-6.75c7.993-4.867,18.416-2.334,23.284,5.658c0.712,1.172,1.266,2.395,1.669,3.645"
		/>
	<path fill="none" stroke="#FFFFFF" stroke-width="2" stroke-linecap="round" stroke-linejoin="bevel" stroke-miterlimit="10" d="
		M53.48,139.434c2.208-1.386,4.868-2.088,7.661-1.846c6.825,0.596,11.875,6.607,11.279,13.434c-0.086,1-0.29,1.963-0.596,2.873"/>
</g>
<g>
	
		<line fill="none" stroke="#FFFFFF" stroke-width="2" stroke-linecap="round" stroke-linejoin="bevel" stroke-miterlimit="10" x1="1207.975" y1="70.573" x2="1200.828" y2="51.093"/>
	<path fill="none" stroke="#FFFFFF" stroke-width="2" stroke-linecap="round" stroke-linejoin="bevel" stroke-miterlimit="10" d="
		M1191.057,17.892c5.3-2.065,11.507-1.474,16.452,2.116c7.729,5.608,9.446,16.422,3.837,24.151
		c-0.822,1.133-1.756,2.137-2.776,3.007"/>
	<path fill="none" stroke="#FFFFFF" stroke-width="2" stroke-linecap="round" stroke-linejoin="bevel" stroke-miterlimit="10" d="
		M1208.569,47.166c-5.938,5.069-14.78,5.617-21.377,0.829c-2.719-1.974-4.695-4.59-5.87-7.492"/>
	<path fill="none" stroke="#FFFFFF" stroke-width="2" stroke-linecap="round" stroke-linejoin="bevel" stroke-miterlimit="10" d="
		M1206.094,49.806l7.903,21.539c0.729,1.982,0.185,4.024-1.204,4.535c-1.391,0.51-3.124-0.696-3.854-2.68l-0.942-2.57"/>
	<path fill="none" stroke="#FFFFFF" stroke-width="2" stroke-linecap="round" stroke-linejoin="bevel" stroke-miterlimit="10" d="
		M1180.165,32.71c0.235-3.083,1.301-6.142,3.25-8.824c5.61-7.73,16.424-9.448,24.153-3.838c1.132,0.823,2.136,1.757,3.007,2.776"/>
	<path fill="none" stroke="#FFFFFF" stroke-width="2" stroke-linecap="round" stroke-linejoin="bevel" stroke-miterlimit="10" d="
		M1186.987,25.942c1.533-2.172,3.762-3.882,6.488-4.754c6.661-2.126,13.784,1.548,15.91,8.21c0.312,0.976,0.499,1.962,0.568,2.94"/>
</g>
<g>
	
		<line fill="none" stroke="#FFFFFF" stroke-width="2" stroke-linecap="round" stroke-linejoin="bevel" stroke-miterlimit="10" x1="1574.941" y1="208.766" x2="1572.938" y2="187.66"/>
	<path fill="none" stroke="#FFFFFF" stroke-width="2" stroke-linecap="round" stroke-linejoin="bevel" stroke-miterlimit="10" d="
		M1571.902,152.314c5.773-0.664,11.754,1.531,15.708,6.363c6.182,7.549,5.071,18.682-2.479,24.861
		c-1.106,0.906-2.289,1.654-3.523,2.25"/>
	<path fill="none" stroke="#FFFFFF" stroke-width="2" stroke-linecap="round" stroke-linejoin="bevel" stroke-miterlimit="10" d="
		M1581.607,185.79c-7.184,3.467-16.063,1.713-21.34-4.731c-2.174-2.656-3.447-5.756-3.854-8.928"/>
	<path fill="none" stroke="#FFFFFF" stroke-width="2" stroke-linecap="round" stroke-linejoin="bevel" stroke-miterlimit="10" d="
		M1578.475,187.755l2.217,23.336c0.205,2.147-0.861,4.024-2.367,4.169c-1.508,0.143-2.907-1.498-3.111-3.648l-0.266-2.783"/>
	<path fill="none" stroke="#FFFFFF" stroke-width="2" stroke-linecap="round" stroke-linejoin="bevel" stroke-miterlimit="10" d="
		M1557.292,164.131c1.032-2.984,2.88-5.73,5.502-7.877c7.553-6.182,18.683-5.07,24.864,2.479c0.904,1.106,1.652,2.291,2.25,3.523"/>
	<path fill="none" stroke="#FFFFFF" stroke-width="2" stroke-linecap="round" stroke-linejoin="bevel" stroke-miterlimit="10" d="
		M1565.792,159.213c2.078-1.749,4.725-2.859,7.646-3.012c7.134-0.372,13.218,5.107,13.591,12.242
		c0.054,1.045-0.018,2.068-0.201,3.055"/>
</g>
<g>
	
		<line fill="none" stroke="#FFFFFF" stroke-width="2" stroke-linecap="round" stroke-linejoin="bevel" stroke-miterlimit="10" x1="1599.999" y1="83.498" x2="1620.785" y2="79.329"/>
	<path fill="none" stroke="#FFFFFF" stroke-width="2" stroke-linecap="round" stroke-linejoin="bevel" stroke-miterlimit="10" d="
		M1655.835,74.657c1.256,5.674-0.312,11.849-4.709,16.28c-6.872,6.926-18.061,6.969-24.985,0.096
		c-1.015-1.007-1.882-2.107-2.601-3.273"/>
	<path fill="none" stroke="#FFFFFF" stroke-width="2" stroke-linecap="round" stroke-linejoin="bevel" stroke-miterlimit="10" d="
		M1623.539,87.76c-4.188-6.788-3.358-15.802,2.507-21.713c2.418-2.437,5.37-4.022,8.482-4.754"/>
	<path fill="none" stroke="#FFFFFF" stroke-width="2" stroke-linecap="round" stroke-linejoin="bevel" stroke-miterlimit="10" d="
		M1621.261,84.846l-22.983,4.611c-2.115,0.425-4.092-0.443-4.391-1.926c-0.297-1.484,1.19-3.046,3.309-3.471l2.742-0.55"/>
	<path fill="none" stroke="#FFFFFF" stroke-width="2" stroke-linecap="round" stroke-linejoin="bevel" stroke-miterlimit="10" d="
		M1642.576,61.342c3.076,0.72,5.998,2.274,8.402,4.661c6.928,6.875,6.969,18.061,0.096,24.988c-1.007,1.014-2.106,1.88-3.271,2.601"
		/>
	<path fill="none" stroke="#FFFFFF" stroke-width="2" stroke-linecap="round" stroke-linejoin="bevel" stroke-miterlimit="10" d="
		M1648.344,69.289c1.955,1.889,3.332,4.405,3.785,7.295c1.104,7.058-3.72,13.674-10.779,14.779
		c-1.033,0.162-2.059,0.197-3.057,0.115"/>
</g>
<g>
	
		<line fill="none" stroke="#FFFFFF" stroke-width="2" stroke-linecap="round" stroke-linejoin="bevel" stroke-miterlimit="10" x1="1543.593" y1="-6.848" x2="1555.647" y2="10.59"/>
	<path fill="none" stroke="#FFFFFF" stroke-width="2" stroke-linecap="round" stroke-linejoin="bevel" stroke-miterlimit="10" d="
		M1573.813,40.928c-4.713,3.398-11.004,4.404-16.814,2.12c-9.08-3.569-13.549-13.826-9.979-22.907
		c0.521-1.331,1.189-2.562,1.977-3.685"/>
	<path fill="none" stroke="#FFFFFF" stroke-width="2" stroke-linecap="round" stroke-linejoin="bevel" stroke-miterlimit="10" d="
		M1548.996,16.456c4.574-6.533,13.182-9.34,20.933-6.292c3.193,1.256,5.817,3.339,7.723,5.908"/>
	<path fill="none" stroke="#FFFFFF" stroke-width="2" stroke-linecap="round" stroke-linejoin="bevel" stroke-miterlimit="10" d="
		M1550.77,13.211l-13.332-19.28c-1.229-1.774-1.213-3.933,0.031-4.794c1.244-0.861,3.268-0.112,4.496,1.664l1.591,2.3"/>
	<path fill="none" stroke="#FFFFFF" stroke-width="2" stroke-linecap="round" stroke-linejoin="bevel" stroke-miterlimit="10" d="
		M1580.792,23.481c0.557,3.109,0.286,6.408-0.953,9.561c-3.571,9.083-13.826,13.549-22.908,9.98
		c-1.33-0.523-2.563-1.191-3.687-1.976"/>
	<path fill="none" stroke="#FFFFFF" stroke-width="2" stroke-linecap="round" stroke-linejoin="bevel" stroke-miterlimit="10" d="
		M1575.777,31.924c-0.961,2.542-2.727,4.803-5.201,6.362c-6.045,3.809-14.028,1.999-17.839-4.047
		c-0.558-0.885-0.996-1.813-1.316-2.762"/>
</g>
<g>
	
		<line fill="none" stroke="#FFFFFF" stroke-width="2" stroke-linecap="round" stroke-linejoin="bevel" stroke-miterlimit="10" x1="1307.846" y1="206.298" x2="1309.562" y2="185.168"/>
	<path fill="none" stroke="#FFFFFF" stroke-width="2" stroke-linecap="round" stroke-linejoin="bevel" stroke-miterlimit="10" d="
		M1314.723,150.188c5.799,0.354,11.305,3.562,14.354,9.01c4.767,8.515,1.728,19.281-6.787,24.047
		c-1.248,0.697-2.545,1.229-3.863,1.599"/>
	<path fill="none" stroke="#FFFFFF" stroke-width="2" stroke-linecap="round" stroke-linejoin="bevel" stroke-miterlimit="10" d="
		M1318.426,184.842c-7.679,2.158-16.116-1.121-20.184-8.389c-1.678-2.996-2.389-6.27-2.233-9.465"/>
	<path fill="none" stroke="#FFFFFF" stroke-width="2" stroke-linecap="round" stroke-linejoin="bevel" stroke-miterlimit="10" d="
		M1314.996,186.229l-1.896,23.365c-0.174,2.149-1.552,3.811-3.061,3.689c-1.51-0.122-2.602-1.983-2.427-4.137l0.228-2.787"/>
	<path fill="none" stroke="#FFFFFF" stroke-width="2" stroke-linecap="round" stroke-linejoin="bevel" stroke-miterlimit="10" d="
		M1298.271,159.266c1.539-2.759,3.837-5.14,6.794-6.793c8.517-4.768,19.281-1.728,24.049,6.787c0.697,1.248,1.229,2.545,1.6,3.862"
		/>
	<path fill="none" stroke="#FFFFFF" stroke-width="2" stroke-linecap="round" stroke-linejoin="bevel" stroke-miterlimit="10" d="
		M1307.499,155.909c2.354-1.358,5.151-1.989,8.055-1.63c7.09,0.883,12.123,7.341,11.24,14.432c-0.129,1.038-0.377,2.034-0.73,2.973"
		/>
</g>
<g>
	
		<line fill="none" stroke="#FFFFFF" stroke-width="2" stroke-linecap="round" stroke-linejoin="bevel" stroke-miterlimit="10" x1="1696.996" y1="150.816" x2="1695.281" y2="171.947"/>
	<path fill="none" stroke="#FFFFFF" stroke-width="2" stroke-linecap="round" stroke-linejoin="bevel" stroke-miterlimit="10" d="
		M1690.119,206.93c-5.799-0.355-11.305-3.563-14.354-9.011c-4.767-8.515-1.728-19.28,6.787-24.047
		c1.248-0.698,2.545-1.229,3.864-1.599"/>
	<path fill="none" stroke="#FFFFFF" stroke-width="2" stroke-linecap="round" stroke-linejoin="bevel" stroke-miterlimit="10" d="
		M1686.419,172.273c7.678-2.158,16.114,1.121,20.182,8.389c1.678,2.996,2.389,6.27,2.234,9.464"/>
	<path fill="none" stroke="#FFFFFF" stroke-width="2" stroke-linecap="round" stroke-linejoin="bevel" stroke-miterlimit="10" d="
		M1689.846,170.887l1.896-23.365c0.174-2.149,1.552-3.812,3.06-3.689c1.51,0.122,2.602,1.982,2.428,4.137l-0.228,2.787"/>
	<path fill="none" stroke="#FFFFFF" stroke-width="2" stroke-linecap="round" stroke-linejoin="bevel" stroke-miterlimit="10" d="
		M1706.572,197.85c-1.539,2.76-3.838,5.141-6.795,6.793c-8.516,4.769-19.281,1.729-24.049-6.787c-0.697-1.248-1.228-2.543-1.6-3.861
		"/>
	<path fill="none" stroke="#FFFFFF" stroke-width="2" stroke-linecap="round" stroke-linejoin="bevel" stroke-miterlimit="10" d="
		M1697.344,201.206c-2.354,1.358-5.152,1.989-8.056,1.629c-7.09-0.882-12.123-7.34-11.239-14.431
		c0.129-1.038,0.377-2.034,0.729-2.973"/>
</g>
<g>
	
		<line fill="none" stroke="#FFFFFF" stroke-width="2" stroke-linecap="round" stroke-linejoin="bevel" stroke-miterlimit="10" x1="1405.443" y1="187.708" x2="1406.344" y2="167.398"/>
	<path fill="none" stroke="#FFFFFF" stroke-width="2" stroke-linecap="round" stroke-linejoin="bevel" stroke-miterlimit="10" d="
		M1410.057,133.693c5.57,0.138,10.959,3.016,14.072,8.129c4.866,7.992,2.334,18.416-5.658,23.283
		c-1.17,0.713-2.393,1.268-3.646,1.668"/>
	<path fill="none" stroke="#FFFFFF" stroke-width="2" stroke-linecap="round" stroke-linejoin="bevel" stroke-miterlimit="10" d="
		M1414.826,166.773c-7.282,2.338-15.482-0.508-19.637-7.328c-1.714-2.812-2.51-5.924-2.476-8.989"/>
	<path fill="none" stroke="#FFFFFF" stroke-width="2" stroke-linecap="round" stroke-linejoin="bevel" stroke-miterlimit="10" d="
		M1411.591,168.225l-0.994,22.457c-0.092,2.066-1.354,3.707-2.806,3.645c-1.448-0.064-2.561-1.811-2.469-3.879l0.117-2.68"/>
	<path fill="none" stroke="#FFFFFF" stroke-width="2" stroke-linecap="round" stroke-linejoin="bevel" stroke-miterlimit="10" d="
		M1394.611,142.975c1.379-2.697,3.496-5.062,6.271-6.75c7.993-4.867,18.416-2.334,23.284,5.658c0.712,1.172,1.267,2.395,1.668,3.645
		"/>
	<path fill="none" stroke="#FFFFFF" stroke-width="2" stroke-linecap="round" stroke-linejoin="bevel" stroke-miterlimit="10" d="
		M1403.337,139.434c2.208-1.386,4.866-2.088,7.66-1.846c6.825,0.596,11.877,6.607,11.28,13.434c-0.086,1-0.29,1.963-0.596,2.873"/>
</g>
<g>
	
		<line fill="none" stroke="#FFFFFF" stroke-width="2" stroke-linecap="round" stroke-linejoin="bevel" stroke-miterlimit="10" x1="1286.029" y1="40.894" x2="1290.861" y2="61.535"/>
	<path fill="none" stroke="#FFFFFF" stroke-width="2" stroke-linecap="round" stroke-linejoin="bevel" stroke-miterlimit="10" d="
		M1296.652,96.417c-5.631,1.437-11.854,0.068-16.423-4.186c-7.142-6.647-7.543-17.827-0.896-24.969
		c0.975-1.047,2.046-1.948,3.189-2.705"/>
	<path fill="none" stroke="#FFFFFF" stroke-width="2" stroke-linecap="round" stroke-linejoin="bevel" stroke-miterlimit="10" d="
		M1282.522,64.558c6.649-4.403,15.688-3.864,21.782,1.812c2.513,2.338,4.19,5.238,5.021,8.326"/>
	<path fill="none" stroke="#FFFFFF" stroke-width="2" stroke-linecap="round" stroke-linejoin="bevel" stroke-miterlimit="10" d="
		M1285.361,62.188l-5.343-22.823c-0.493-2.101,0.311-4.104,1.785-4.45c1.473-0.346,3.082,1.092,3.574,3.195l0.639,2.723"/>
	<path fill="none" stroke="#FFFFFF" stroke-width="2" stroke-linecap="round" stroke-linejoin="bevel" stroke-miterlimit="10" d="
		M1309.536,82.741c-0.621,3.097-2.081,6.066-4.39,8.546c-6.649,7.144-17.828,7.544-24.972,0.896
		c-1.045-0.974-1.947-2.046-2.704-3.188"/>
	<path fill="none" stroke="#FFFFFF" stroke-width="2" stroke-linecap="round" stroke-linejoin="bevel" stroke-miterlimit="10" d="
		M1301.777,88.759c-1.824,2.013-4.297,3.47-7.17,4.016c-7.019,1.33-13.787-3.279-15.117-10.299
		c-0.194-1.028-0.263-2.052-0.213-3.053"/>
</g>
<g>
	
		<line fill="none" stroke="#FFFFFF" stroke-width="2" stroke-linecap="round" stroke-linejoin="bevel" stroke-miterlimit="10" x1="572.22" y1="64.807" x2="577.052" y2="85.449"/>
	<path fill="none" stroke="#FFFFFF" stroke-width="2" stroke-linecap="round" stroke-linejoin="bevel" stroke-miterlimit="10" d="
		M582.844,120.331c-5.631,1.437-11.854,0.068-16.423-4.186c-7.143-6.647-7.543-17.827-0.896-24.969
		c0.975-1.047,2.045-1.948,3.189-2.705"/>
	<path fill="none" stroke="#FFFFFF" stroke-width="2" stroke-linecap="round" stroke-linejoin="bevel" stroke-miterlimit="10" d="
		M568.714,88.471c6.648-4.403,15.687-3.864,21.781,1.812c2.514,2.338,4.191,5.238,5.022,8.326"/>
	<path fill="none" stroke="#FFFFFF" stroke-width="2" stroke-linecap="round" stroke-linejoin="bevel" stroke-miterlimit="10" d="
		M571.552,86.102l-5.343-22.823c-0.493-2.101,0.311-4.104,1.784-4.45c1.474-0.346,3.082,1.092,3.574,3.195l0.639,2.723"/>
	<path fill="none" stroke="#FFFFFF" stroke-width="2" stroke-linecap="round" stroke-linejoin="bevel" stroke-miterlimit="10" d="
		M595.727,106.654c-0.622,3.097-2.081,6.066-4.39,8.546c-6.649,7.144-17.828,7.544-24.973,0.896
		c-1.045-0.974-1.946-2.046-2.704-3.188"/>
	<path fill="none" stroke="#FFFFFF" stroke-width="2" stroke-linecap="round" stroke-linejoin="bevel" stroke-miterlimit="10" d="
		M587.969,112.673c-1.824,2.013-4.297,3.47-7.17,4.016c-7.02,1.33-13.787-3.279-15.117-10.299c-0.195-1.028-0.263-2.052-0.213-3.053
		"/>
</g>
<g>
	
		<line fill="none" stroke="#FFFFFF" stroke-width="2" stroke-linecap="round" stroke-linejoin="bevel" stroke-miterlimit="10" x1="1720.615" y1="70.573" x2="1713.469" y2="51.093"/>
	<path fill="none" stroke="#FFFFFF" stroke-width="2" stroke-linecap="round" stroke-linejoin="bevel" stroke-miterlimit="10" d="
		M1703.697,17.892c5.299-2.065,11.506-1.474,16.451,2.116c7.729,5.608,9.447,16.422,3.838,24.151
		c-0.821,1.133-1.756,2.137-2.776,3.007"/>
	<path fill="none" stroke="#FFFFFF" stroke-width="2" stroke-linecap="round" stroke-linejoin="bevel" stroke-miterlimit="10" d="
		M1721.21,47.166c-5.938,5.069-14.779,5.617-21.377,0.829c-2.72-1.974-4.695-4.59-5.869-7.492"/>
	<path fill="none" stroke="#FFFFFF" stroke-width="2" stroke-linecap="round" stroke-linejoin="bevel" stroke-miterlimit="10" d="
		M1718.732,49.806l7.904,21.539c0.729,1.982,0.184,4.024-1.205,4.535c-1.39,0.51-3.124-0.696-3.853-2.68l-0.942-2.57"/>
	<path fill="none" stroke="#FFFFFF" stroke-width="2" stroke-linecap="round" stroke-linejoin="bevel" stroke-miterlimit="10" d="
		M1692.805,32.71c0.234-3.083,1.301-6.142,3.249-8.824c5.61-7.73,16.425-9.448,24.153-3.838c1.133,0.823,2.135,1.757,3.008,2.776"/>
	<path fill="none" stroke="#FFFFFF" stroke-width="2" stroke-linecap="round" stroke-linejoin="bevel" stroke-miterlimit="10" d="
		M1699.628,25.942c1.532-2.172,3.762-3.882,6.487-4.754c6.662-2.126,13.784,1.548,15.91,8.21c0.313,0.976,0.5,1.962,0.57,2.94"/>
</g>
<g>
	
		<line fill="none" stroke="#FFFFFF" stroke-width="2" stroke-linecap="round" stroke-linejoin="bevel" stroke-miterlimit="10" x1="1802.87" y1="206.298" x2="1804.587" y2="185.168"/>
	<path fill="none" stroke="#FFFFFF" stroke-width="2" stroke-linecap="round" stroke-linejoin="bevel" stroke-miterlimit="10" d="
		M1809.747,150.188c5.799,0.354,11.306,3.562,14.354,9.01c4.766,8.515,1.727,19.281-6.787,24.047
		c-1.248,0.697-2.545,1.229-3.864,1.599"/>
	<path fill="none" stroke="#FFFFFF" stroke-width="2" stroke-linecap="round" stroke-linejoin="bevel" stroke-miterlimit="10" d="
		M1813.449,184.842c-7.679,2.158-16.116-1.121-20.183-8.389c-1.678-2.996-2.389-6.27-2.234-9.465"/>
	<path fill="none" stroke="#FFFFFF" stroke-width="2" stroke-linecap="round" stroke-linejoin="bevel" stroke-miterlimit="10" d="
		M1810.021,186.229l-1.896,23.365c-0.175,2.149-1.553,3.811-3.061,3.689c-1.51-0.122-2.602-1.983-2.427-4.137l0.227-2.787"/>
	<path fill="none" stroke="#FFFFFF" stroke-width="2" stroke-linecap="round" stroke-linejoin="bevel" stroke-miterlimit="10" d="
		M1793.296,159.266c1.539-2.759,3.837-5.14,6.794-6.793c8.517-4.768,19.28-1.728,24.049,6.787c0.696,1.248,1.228,2.545,1.6,3.862"/>
	<path fill="none" stroke="#FFFFFF" stroke-width="2" stroke-linecap="round" stroke-linejoin="bevel" stroke-miterlimit="10" d="
		M1802.522,155.909c2.354-1.358,5.152-1.989,8.055-1.63c7.09,0.883,12.123,7.341,11.24,14.432c-0.129,1.038-0.377,2.034-0.729,2.973
		"/>
</g>
<g>
	
		<line fill="none" stroke="#FFFFFF" stroke-width="2" stroke-linecap="round" stroke-linejoin="bevel" stroke-miterlimit="10" x1="1900.469" y1="187.708" x2="1901.368" y2="167.398"/>
	<path fill="none" stroke="#FFFFFF" stroke-width="2" stroke-linecap="round" stroke-linejoin="bevel" stroke-miterlimit="10" d="
		M1905.081,133.693c5.57,0.138,10.959,3.016,14.072,8.129c4.867,7.992,2.334,18.416-5.658,23.283
		c-1.17,0.713-2.393,1.268-3.645,1.668"/>
	<path fill="none" stroke="#FFFFFF" stroke-width="2" stroke-linecap="round" stroke-linejoin="bevel" stroke-miterlimit="10" d="
		M1909.851,166.773c-7.283,2.338-15.483-0.508-19.637-7.328c-1.714-2.812-2.511-5.924-2.477-8.989"/>
	<path fill="none" stroke="#FFFFFF" stroke-width="2" stroke-linecap="round" stroke-linejoin="bevel" stroke-miterlimit="10" d="
		M1906.614,168.225l-0.994,22.457c-0.092,2.066-1.354,3.707-2.805,3.645c-1.449-0.064-2.561-1.811-2.469-3.879l0.117-2.68"/>
	<path fill="none" stroke="#FFFFFF" stroke-width="2" stroke-linecap="round" stroke-linejoin="bevel" stroke-miterlimit="10" d="
		M1889.636,142.975c1.379-2.697,3.496-5.062,6.271-6.75c7.993-4.867,18.416-2.334,23.285,5.658c0.711,1.172,1.266,2.395,1.668,3.645
		"/>
	<path fill="none" stroke="#FFFFFF" stroke-width="2" stroke-linecap="round" stroke-linejoin="bevel" stroke-miterlimit="10" d="
		M1898.36,139.434c2.208-1.386,4.867-2.088,7.661-1.846c6.825,0.596,11.876,6.607,11.28,13.434c-0.086,1-0.29,1.963-0.596,2.873"/>
</g>
<g>
	
		<line fill="none" stroke="#FFFFFF" stroke-width="2" stroke-linecap="round" stroke-linejoin="bevel" stroke-miterlimit="10" x1="1781.054" y1="40.894" x2="1785.886" y2="61.535"/>
	<path fill="none" stroke="#FFFFFF" stroke-width="2" stroke-linecap="round" stroke-linejoin="bevel" stroke-miterlimit="10" d="
		M1791.677,96.417c-5.631,1.437-11.854,0.068-16.423-4.186c-7.144-6.647-7.544-17.827-0.896-24.969
		c0.975-1.047,2.046-1.948,3.189-2.705"/>
	<path fill="none" stroke="#FFFFFF" stroke-width="2" stroke-linecap="round" stroke-linejoin="bevel" stroke-miterlimit="10" d="
		M1777.548,64.558c6.648-4.403,15.687-3.864,21.781,1.812c2.514,2.338,4.191,5.238,5.022,8.326"/>
	<path fill="none" stroke="#FFFFFF" stroke-width="2" stroke-linecap="round" stroke-linejoin="bevel" stroke-miterlimit="10" d="
		M1780.386,62.188l-5.343-22.823c-0.493-2.101,0.311-4.104,1.783-4.45c1.474-0.346,3.082,1.092,3.574,3.195l0.639,2.723"/>
	<path fill="none" stroke="#FFFFFF" stroke-width="2" stroke-linecap="round" stroke-linejoin="bevel" stroke-miterlimit="10" d="
		M1804.561,82.741c-0.622,3.097-2.081,6.066-4.39,8.546c-6.649,7.144-17.828,7.544-24.973,0.896
		c-1.046-0.974-1.946-2.046-2.705-3.188"/>
	<path fill="none" stroke="#FFFFFF" stroke-width="2" stroke-linecap="round" stroke-linejoin="bevel" stroke-miterlimit="10" d="
		M1796.802,88.759c-1.824,2.013-4.297,3.47-7.17,4.016c-7.02,1.33-13.786-3.279-15.116-10.299c-0.195-1.028-0.264-2.052-0.213-3.053
		"/>
</g>
<g id="Layer_2">
	<g>
		
			<line fill="none" stroke="#FFFFFF" stroke-width="2" stroke-linecap="round" stroke-linejoin="bevel" stroke-miterlimit="10" x1="905.151" y1="54.803" x2="890.162" y2="39.812"/>
		<path fill="none" stroke="#FFFFFF" stroke-width="2" stroke-linecap="round" stroke-linejoin="bevel" stroke-miterlimit="10" d="
			M866.848,13.226c4.027-4.189,10.035-6.308,16.161-5.103c9.573,1.882,15.81,11.17,13.927,20.745
			c-0.276,1.403-0.711,2.735-1.283,3.979"/>
		<path fill="none" stroke="#FFFFFF" stroke-width="2" stroke-linecap="round" stroke-linejoin="bevel" stroke-miterlimit="10" d="
			M895.653,32.847c-3.329,7.248-11.292,11.554-19.463,9.947c-3.369-0.663-6.324-2.241-8.658-4.427"/>
		<path fill="none" stroke="#FFFFFF" stroke-width="2" stroke-linecap="round" stroke-linejoin="bevel" stroke-miterlimit="10" d="
			M894.49,36.357l16.575,16.575c1.526,1.525,1.899,3.651,0.83,4.721c-1.07,1.071-3.195,0.697-4.723-0.83l-1.979-1.978"/>
		<path fill="none" stroke="#FFFFFF" stroke-width="2" stroke-linecap="round" stroke-linejoin="bevel" stroke-miterlimit="10" d="
			M863.112,31.64c-1.104-2.959-1.431-6.251-0.775-9.576c1.883-9.575,11.17-15.811,20.745-13.928
			c1.402,0.276,2.733,0.712,3.979,1.282"/>
		<path fill="none" stroke="#FFFFFF" stroke-width="2" stroke-linecap="round" stroke-linejoin="bevel" stroke-miterlimit="10" d="
			M866.531,22.435c0.489-2.672,1.82-5.213,3.976-7.192c5.263-4.832,13.442-4.483,18.274,0.78c0.708,0.771,1.306,1.605,1.791,2.482"
			/>
	</g>
	<g>
		
			<line fill="none" stroke="#FFFFFF" stroke-width="2" stroke-linecap="round" stroke-linejoin="bevel" stroke-miterlimit="10" x1="982.469" y1="203.283" x2="968.217" y2="218.977"/>
		<path fill="none" stroke="#FFFFFF" stroke-width="2" stroke-linecap="round" stroke-linejoin="bevel" stroke-miterlimit="10" d="
			M942.782,243.543c-4.378-3.82-6.783-9.721-5.874-15.896c1.419-9.653,10.396-16.33,20.05-14.91c1.415,0.209,2.767,0.58,4.037,1.092
			"/>
		<path fill="none" stroke="#FFFFFF" stroke-width="2" stroke-linecap="round" stroke-linejoin="bevel" stroke-miterlimit="10" d="
			M960.995,213.827c7.4,2.976,12.083,10.723,10.871,18.961c-0.499,3.397-1.933,6.425-4.004,8.86"/>
		<path fill="none" stroke="#FFFFFF" stroke-width="2" stroke-linecap="round" stroke-linejoin="bevel" stroke-miterlimit="10" d="
			M964.557,214.818l15.759-17.354c1.45-1.598,3.556-2.072,4.676-1.056c1.12,1.016,0.851,3.157-0.602,4.757l-1.88,2.07"/>
		<path fill="none" stroke="#FFFFFF" stroke-width="2" stroke-linecap="round" stroke-linejoin="bevel" stroke-miterlimit="10" d="
			M961.355,246.389c-2.902,1.245-6.176,1.729-9.527,1.235c-9.655-1.42-16.33-10.396-14.911-20.052
			c0.209-1.413,0.58-2.764,1.09-4.035"/>
		<path fill="none" stroke="#FFFFFF" stroke-width="2" stroke-linecap="round" stroke-linejoin="bevel" stroke-miterlimit="10" d="
			M951.997,243.416c-2.692-0.359-5.295-1.566-7.375-3.624c-5.078-5.024-5.125-13.212-0.1-18.292c0.735-0.743,1.54-1.381,2.393-1.906
			"/>
	</g>
	<g>
		
			<line fill="none" stroke="#FFFFFF" stroke-width="2" stroke-linecap="round" stroke-linejoin="bevel" stroke-miterlimit="10" x1="493.868" y1="64.803" x2="478.879" y2="49.812"/>
		<path fill="none" stroke="#FFFFFF" stroke-width="2" stroke-linecap="round" stroke-linejoin="bevel" stroke-miterlimit="10" d="
			M455.565,23.226c4.027-4.189,10.035-6.308,16.161-5.103c9.574,1.882,15.81,11.17,13.927,20.745
			c-0.275,1.403-0.711,2.735-1.283,3.979"/>
		<path fill="none" stroke="#FFFFFF" stroke-width="2" stroke-linecap="round" stroke-linejoin="bevel" stroke-miterlimit="10" d="
			M484.37,42.847c-3.329,7.248-11.292,11.554-19.463,9.947c-3.369-0.663-6.324-2.241-8.658-4.427"/>
		<path fill="none" stroke="#FFFFFF" stroke-width="2" stroke-linecap="round" stroke-linejoin="bevel" stroke-miterlimit="10" d="
			M483.207,46.357l16.575,16.575c1.526,1.525,1.899,3.651,0.83,4.721c-1.07,1.071-3.195,0.697-4.723-0.83l-1.979-1.978"/>
		<path fill="none" stroke="#FFFFFF" stroke-width="2" stroke-linecap="round" stroke-linejoin="bevel" stroke-miterlimit="10" d="
			M451.829,41.64c-1.104-2.959-1.431-6.251-0.775-9.576c1.883-9.575,11.17-15.811,20.746-13.928
			c1.401,0.276,2.732,0.712,3.979,1.282"/>
		<path fill="none" stroke="#FFFFFF" stroke-width="2" stroke-linecap="round" stroke-linejoin="bevel" stroke-miterlimit="10" d="
			M455.248,32.435c0.489-2.672,1.82-5.213,3.976-7.192c5.263-4.832,13.442-4.483,18.274,0.78c0.708,0.771,1.306,1.605,1.791,2.482"
			/>
	</g>
	<g>
		
			<line fill="none" stroke="#FFFFFF" stroke-width="2" stroke-linecap="round" stroke-linejoin="bevel" stroke-miterlimit="10" x1="571.185" y1="186.645" x2="556.933" y2="202.337"/>
		<path fill="none" stroke="#FFFFFF" stroke-width="2" stroke-linecap="round" stroke-linejoin="bevel" stroke-miterlimit="10" d="
			M531.499,226.902c-4.378-3.82-6.782-9.721-5.873-15.896c1.419-9.652,10.396-16.328,20.05-14.908
			c1.415,0.207,2.766,0.578,4.037,1.09"/>
		<path fill="none" stroke="#FFFFFF" stroke-width="2" stroke-linecap="round" stroke-linejoin="bevel" stroke-miterlimit="10" d="
			M549.712,197.188c7.399,2.977,12.083,10.724,10.87,18.961c-0.499,3.397-1.933,6.426-4.004,8.861"/>
		<path fill="none" stroke="#FFFFFF" stroke-width="2" stroke-linecap="round" stroke-linejoin="bevel" stroke-miterlimit="10" d="
			M553.274,198.18l15.759-17.354c1.45-1.598,3.557-2.072,4.677-1.057c1.119,1.017,0.85,3.158-0.603,4.758l-1.88,2.07"/>
		<path fill="none" stroke="#FFFFFF" stroke-width="2" stroke-linecap="round" stroke-linejoin="bevel" stroke-miterlimit="10" d="
			M550.072,229.748c-2.901,1.246-6.176,1.73-9.526,1.236c-9.656-1.42-16.33-10.396-14.911-20.051
			c0.209-1.414,0.58-2.766,1.089-4.037"/>
		<path fill="none" stroke="#FFFFFF" stroke-width="2" stroke-linecap="round" stroke-linejoin="bevel" stroke-miterlimit="10" d="
			M540.714,226.775c-2.693-0.358-5.295-1.566-7.375-3.623c-5.079-5.024-5.125-13.213-0.101-18.293
			c0.735-0.742,1.54-1.381,2.394-1.906"/>
	</g>
	<g>
		
			<line fill="none" stroke="#FFFFFF" stroke-width="2" stroke-linecap="round" stroke-linejoin="bevel" stroke-miterlimit="10" x1="67.936" y1="64.803" x2="52.946" y2="49.812"/>
		<path fill="none" stroke="#FFFFFF" stroke-width="2" stroke-linecap="round" stroke-linejoin="bevel" stroke-miterlimit="10" d="
			M29.633,23.226c4.027-4.189,10.035-6.308,16.161-5.103c9.574,1.882,15.811,11.17,13.928,20.745
			c-0.276,1.403-0.711,2.735-1.283,3.979"/>
		<path fill="none" stroke="#FFFFFF" stroke-width="2" stroke-linecap="round" stroke-linejoin="bevel" stroke-miterlimit="10" d="
			M58.438,42.847c-3.329,7.248-11.292,11.554-19.463,9.947c-3.369-0.663-6.324-2.241-8.658-4.427"/>
		<path fill="none" stroke="#FFFFFF" stroke-width="2" stroke-linecap="round" stroke-linejoin="bevel" stroke-miterlimit="10" d="
			M57.275,46.357L73.85,62.933c1.525,1.525,1.898,3.651,0.83,4.721c-1.07,1.071-3.195,0.697-4.724-0.83l-1.978-1.978"/>
		<path fill="none" stroke="#FFFFFF" stroke-width="2" stroke-linecap="round" stroke-linejoin="bevel" stroke-miterlimit="10" d="
			M25.897,41.64c-1.105-2.959-1.432-6.251-0.776-9.576c1.883-9.575,11.17-15.811,20.746-13.928c1.402,0.276,2.733,0.712,3.979,1.282
			"/>
		<path fill="none" stroke="#FFFFFF" stroke-width="2" stroke-linecap="round" stroke-linejoin="bevel" stroke-miterlimit="10" d="
			M29.316,32.435c0.489-2.672,1.82-5.213,3.975-7.192c5.264-4.832,13.443-4.483,18.275,0.78c0.708,0.771,1.305,1.605,1.791,2.482"/>
	</g>
	<g>
		
			<line fill="none" stroke="#FFFFFF" stroke-width="2" stroke-linecap="round" stroke-linejoin="bevel" stroke-miterlimit="10" x1="145.253" y1="186.645" x2="131" y2="202.337"/>
		<path fill="none" stroke="#FFFFFF" stroke-width="2" stroke-linecap="round" stroke-linejoin="bevel" stroke-miterlimit="10" d="
			M105.567,226.902c-4.378-3.82-6.783-9.721-5.874-15.896c1.419-9.652,10.396-16.328,20.05-14.908
			c1.415,0.207,2.766,0.578,4.037,1.09"/>
		<path fill="none" stroke="#FFFFFF" stroke-width="2" stroke-linecap="round" stroke-linejoin="bevel" stroke-miterlimit="10" d="
			M123.779,197.188c7.4,2.977,12.083,10.724,10.871,18.961c-0.499,3.397-1.934,6.426-4.004,8.861"/>
		<path fill="none" stroke="#FFFFFF" stroke-width="2" stroke-linecap="round" stroke-linejoin="bevel" stroke-miterlimit="10" d="
			M127.342,198.18l15.76-17.354c1.449-1.598,3.556-2.072,4.676-1.057c1.12,1.017,0.85,3.158-0.603,4.758l-1.88,2.07"/>
		<path fill="none" stroke="#FFFFFF" stroke-width="2" stroke-linecap="round" stroke-linejoin="bevel" stroke-miterlimit="10" d="
			M124.14,229.748c-2.902,1.246-6.177,1.73-9.527,1.236c-9.656-1.42-16.33-10.396-14.911-20.051c0.209-1.414,0.58-2.766,1.089-4.037
			"/>
		<path fill="none" stroke="#FFFFFF" stroke-width="2" stroke-linecap="round" stroke-linejoin="bevel" stroke-miterlimit="10" d="
			M114.781,226.775c-2.693-0.358-5.295-1.566-7.375-3.623c-5.079-5.024-5.125-13.213-0.1-18.293c0.734-0.742,1.54-1.381,2.393-1.906
			"/>
	</g>
	<g>
		
			<line fill="none" stroke="#FFFFFF" stroke-width="2" stroke-linecap="round" stroke-linejoin="bevel" stroke-miterlimit="10" x1="1417.792" y1="64.803" x2="1402.802" y2="49.812"/>
		<path fill="none" stroke="#FFFFFF" stroke-width="2" stroke-linecap="round" stroke-linejoin="bevel" stroke-miterlimit="10" d="
			M1379.488,23.226c4.027-4.189,10.035-6.308,16.161-5.103c9.573,1.882,15.811,11.17,13.927,20.745
			c-0.274,1.403-0.711,2.735-1.282,3.979"/>
		<path fill="none" stroke="#FFFFFF" stroke-width="2" stroke-linecap="round" stroke-linejoin="bevel" stroke-miterlimit="10" d="
			M1408.294,42.847c-3.328,7.248-11.291,11.554-19.464,9.947c-3.368-0.663-6.323-2.241-8.657-4.427"/>
		<path fill="none" stroke="#FFFFFF" stroke-width="2" stroke-linecap="round" stroke-linejoin="bevel" stroke-miterlimit="10" d="
			M1407.132,46.357l16.573,16.575c1.527,1.525,1.9,3.651,0.83,4.721c-1.068,1.071-3.194,0.697-4.723-0.83l-1.978-1.978"/>
		<path fill="none" stroke="#FFFFFF" stroke-width="2" stroke-linecap="round" stroke-linejoin="bevel" stroke-miterlimit="10" d="
			M1375.753,41.64c-1.104-2.959-1.432-6.251-0.775-9.576c1.883-9.575,11.17-15.811,20.745-13.928
			c1.401,0.276,2.732,0.712,3.979,1.282"/>
		<path fill="none" stroke="#FFFFFF" stroke-width="2" stroke-linecap="round" stroke-linejoin="bevel" stroke-miterlimit="10" d="
			M1379.173,32.435c0.487-2.672,1.819-5.213,3.975-7.192c5.262-4.832,13.443-4.483,18.275,0.78c0.707,0.771,1.305,1.605,1.79,2.482"
			/>
	</g>
	<g>
		
			<line fill="none" stroke="#FFFFFF" stroke-width="2" stroke-linecap="round" stroke-linejoin="bevel" stroke-miterlimit="10" x1="1495.108" y1="186.645" x2="1480.855" y2="202.337"/>
		<path fill="none" stroke="#FFFFFF" stroke-width="2" stroke-linecap="round" stroke-linejoin="bevel" stroke-miterlimit="10" d="
			M1455.423,226.902c-4.379-3.82-6.783-9.721-5.873-15.896c1.418-9.652,10.396-16.328,20.049-14.908
			c1.416,0.207,2.766,0.578,4.037,1.09"/>
		<path fill="none" stroke="#FFFFFF" stroke-width="2" stroke-linecap="round" stroke-linejoin="bevel" stroke-miterlimit="10" d="
			M1473.635,197.188c7.399,2.977,12.084,10.724,10.871,18.961c-0.499,3.397-1.935,6.426-4.004,8.861"/>
		<path fill="none" stroke="#FFFFFF" stroke-width="2" stroke-linecap="round" stroke-linejoin="bevel" stroke-miterlimit="10" d="
			M1477.197,198.18l15.759-17.354c1.45-1.598,3.557-2.072,4.678-1.057c1.12,1.018,0.85,3.158-0.604,4.758l-1.88,2.07"/>
		<path fill="none" stroke="#FFFFFF" stroke-width="2" stroke-linecap="round" stroke-linejoin="bevel" stroke-miterlimit="10" d="
			M1473.996,229.748c-2.901,1.246-6.176,1.73-9.526,1.236c-9.656-1.42-16.33-10.396-14.912-20.051
			c0.209-1.414,0.58-2.766,1.09-4.037"/>
		<path fill="none" stroke="#FFFFFF" stroke-width="2" stroke-linecap="round" stroke-linejoin="bevel" stroke-miterlimit="10" d="
			M1464.637,226.775c-2.693-0.358-5.295-1.566-7.375-3.623c-5.078-5.024-5.125-13.213-0.101-18.293
			c0.734-0.742,1.539-1.381,2.394-1.906"/>
	</g>
	<g>
		
			<line fill="none" stroke="#FFFFFF" stroke-width="2" stroke-linecap="round" stroke-linejoin="bevel" stroke-miterlimit="10" x1="1213.386" y1="146.445" x2="1205.833" y2="166.254"/>
		<path fill="none" stroke="#FFFFFF" stroke-width="2" stroke-linecap="round" stroke-linejoin="bevel" stroke-miterlimit="10" d="
			M1191.099,198.398c-5.47-1.963-9.859-6.58-11.263-12.664c-2.196-9.506,3.73-18.994,13.238-21.189
			c1.395-0.322,2.786-0.469,4.156-0.456"/>
		<path fill="none" stroke="#FFFFFF" stroke-width="2" stroke-linecap="round" stroke-linejoin="bevel" stroke-miterlimit="10" d="
			M1197.23,164.089c7.976,0.075,15.16,5.583,17.033,13.697c0.772,3.345,0.541,6.688-0.5,9.711"/>
		<path fill="none" stroke="#FFFFFF" stroke-width="2" stroke-linecap="round" stroke-linejoin="bevel" stroke-miterlimit="10" d="
			M1200.91,163.716l8.352-21.903c0.768-2.016,2.556-3.226,3.97-2.688c1.414,0.539,1.943,2.631,1.173,4.648l-0.997,2.613"/>
		<path fill="none" stroke="#FFFFFF" stroke-width="2" stroke-linecap="round" stroke-linejoin="bevel" stroke-miterlimit="10" d="
			M1209.432,194.279c-2.249,2.219-5.121,3.863-8.422,4.623c-9.51,2.197-18.996-3.73-21.192-13.238
			c-0.321-1.393-0.468-2.785-0.456-4.155"/>
		<path fill="none" stroke="#FFFFFF" stroke-width="2" stroke-linecap="round" stroke-linejoin="bevel" stroke-miterlimit="10" d="
			M1199.634,194.923c-2.64,0.646-5.502,0.47-8.188-0.688c-6.561-2.828-9.587-10.436-6.759-16.996
			c0.414-0.961,0.931-1.848,1.533-2.648"/>
	</g>
	<g>
		
			<line fill="none" stroke="#FFFFFF" stroke-width="2" stroke-linecap="round" stroke-linejoin="bevel" stroke-miterlimit="10" x1="1524.925" y1="108.37" x2="1509.897" y2="114.87"/>
		<path fill="none" stroke="#FFFFFF" stroke-width="2" stroke-linecap="round" stroke-linejoin="bevel" stroke-miterlimit="10" d="
			M1484.18,124.05c-1.863-4.082-1.676-8.998,0.932-13.054c4.073-6.339,12.516-8.175,18.854-4.102
			c0.93,0.598,1.762,1.288,2.493,2.053"/>
		<path fill="none" stroke="#FFFFFF" stroke-width="2" stroke-linecap="round" stroke-linejoin="bevel" stroke-miterlimit="10" d="
			M1506.458,108.946c4.259,4.452,5.086,11.394,1.606,16.803c-1.433,2.229-3.406,3.903-5.639,4.959"/>
		<path fill="none" stroke="#FFFFFF" stroke-width="2" stroke-linecap="round" stroke-linejoin="bevel" stroke-miterlimit="10" d="
			M1508.647,110.78l16.614-7.188c1.528-0.662,3.162-0.326,3.627,0.747c0.464,1.071-0.408,2.492-1.939,3.155l-1.981,0.857"/>
		<path fill="none" stroke="#FFFFFF" stroke-width="2" stroke-linecap="round" stroke-linejoin="bevel" stroke-miterlimit="10" d="
			M1496.34,131.969c-2.438-0.049-4.896-0.75-7.098-2.166c-6.34-4.074-8.176-12.516-4.102-18.856
			c0.597-0.928,1.288-1.759,2.053-2.492"/>
		<path fill="none" stroke="#FFFFFF" stroke-width="2" stroke-linecap="round" stroke-linejoin="bevel" stroke-miterlimit="10" d="
			M1490.702,126.896c-1.779-1.111-3.226-2.791-4.033-4.898c-1.974-5.153,0.604-10.928,5.756-12.9
			c0.756-0.289,1.522-0.48,2.292-0.581"/>
	</g>
	<g>
		
			<line fill="none" stroke="#FFFFFF" stroke-width="2" stroke-linecap="round" stroke-linejoin="bevel" stroke-miterlimit="10" x1="190.449" y1="108.37" x2="175.423" y2="114.87"/>
		<path fill="none" stroke="#FFFFFF" stroke-width="2" stroke-linecap="round" stroke-linejoin="bevel" stroke-miterlimit="10" d="
			M149.705,124.05c-1.863-4.082-1.676-8.998,0.933-13.054c4.072-6.339,12.515-8.175,18.854-4.102
			c0.93,0.598,1.762,1.288,2.493,2.053"/>
		<path fill="none" stroke="#FFFFFF" stroke-width="2" stroke-linecap="round" stroke-linejoin="bevel" stroke-miterlimit="10" d="
			M171.983,108.946c4.258,4.452,5.085,11.394,1.605,16.803c-1.433,2.229-3.405,3.903-5.639,4.959"/>
		<path fill="none" stroke="#FFFFFF" stroke-width="2" stroke-linecap="round" stroke-linejoin="bevel" stroke-miterlimit="10" d="
			M174.173,110.78l16.614-7.188c1.529-0.662,3.162-0.326,3.627,0.747c0.464,1.071-0.408,2.492-1.938,3.155l-1.982,0.857"/>
		<path fill="none" stroke="#FFFFFF" stroke-width="2" stroke-linecap="round" stroke-linejoin="bevel" stroke-miterlimit="10" d="
			M161.864,131.969c-2.438-0.049-4.896-0.75-7.097-2.166c-6.34-4.074-8.177-12.516-4.103-18.856
			c0.598-0.928,1.288-1.759,2.053-2.492"/>
		<path fill="none" stroke="#FFFFFF" stroke-width="2" stroke-linecap="round" stroke-linejoin="bevel" stroke-miterlimit="10" d="
			M156.228,126.896c-1.78-1.111-3.227-2.791-4.034-4.898c-1.973-5.153,0.604-10.928,5.756-12.9c0.756-0.289,1.523-0.48,2.292-0.581"
			/>
	</g>
	<g>
		
			<line fill="none" stroke="#FFFFFF" stroke-width="2" stroke-linecap="round" stroke-linejoin="bevel" stroke-miterlimit="10" x1="1912.815" y1="64.803" x2="1897.826" y2="49.812"/>
		<path fill="none" stroke="#FFFFFF" stroke-width="2" stroke-linecap="round" stroke-linejoin="bevel" stroke-miterlimit="10" d="
			M1874.513,23.226c4.026-4.189,10.035-6.308,16.161-5.103c9.572,1.882,15.81,11.17,13.927,20.745
			c-0.275,1.403-0.711,2.735-1.283,3.979"/>
		<path fill="none" stroke="#FFFFFF" stroke-width="2" stroke-linecap="round" stroke-linejoin="bevel" stroke-miterlimit="10" d="
			M1903.317,42.847c-3.328,7.248-11.291,11.554-19.463,9.947c-3.368-0.663-6.324-2.241-8.658-4.427"/>
		<path fill="none" stroke="#FFFFFF" stroke-width="2" stroke-linecap="round" stroke-linejoin="bevel" stroke-miterlimit="10" d="
			M1902.155,46.357l16.574,16.575c1.527,1.525,1.9,3.651,0.83,4.721c-1.069,1.071-3.195,0.697-4.723-0.83l-1.978-1.978"/>
		<path fill="none" stroke="#FFFFFF" stroke-width="2" stroke-linecap="round" stroke-linejoin="bevel" stroke-miterlimit="10" d="
			M1870.776,41.64c-1.104-2.959-1.431-6.251-0.775-9.576c1.884-9.575,11.171-15.811,20.745-13.928
			c1.402,0.276,2.733,0.712,3.979,1.282"/>
		<path fill="none" stroke="#FFFFFF" stroke-width="2" stroke-linecap="round" stroke-linejoin="bevel" stroke-miterlimit="10" d="
			M1874.196,32.435c0.488-2.672,1.82-5.213,3.976-7.192c5.262-4.832,13.442-4.483,18.274,0.78c0.707,0.771,1.306,1.605,1.79,2.482"
			/>
	</g>
</g>
</svg>
