<?xml version="1.0" encoding="utf-8"?>
<!-- Generator: Adobe Illustrator 16.0.0, SVG Export Plug-In . SVG Version: 6.00 Build 0)  -->
<!DOCTYPE svg PUBLIC "-//W3C//DTD SVG 1.1//EN" "http://www.w3.org/Graphics/SVG/1.1/DTD/svg11.dtd">
<svg version="1.1" id="Layer_1" xmlns="http://www.w3.org/2000/svg" xmlns:xlink="http://www.w3.org/1999/xlink" x="0px" y="0px"
	 width="960px" height="160px" viewBox="0 0 960 160" enable-background="new 0 0 960 160" xml:space="preserve">
<g id="Layer_1_1_">
	<polygon fill="#56DAF3" points="-0.231,-0.111 960,0 960,160 0,160 	"/>
	<g>
		
			<line fill="none" stroke="#FFFFFF" stroke-width="1.5" stroke-linecap="round" stroke-linejoin="bevel" stroke-miterlimit="10" x1="618.392" y1="173.502" x2="617.035" y2="159.23"/>
		
			<path fill="none" stroke="#FFFFFF" stroke-width="1.5" stroke-linecap="round" stroke-linejoin="bevel" stroke-miterlimit="10" d="
			M616.335,135.331c3.904-0.449,7.95,1.034,10.623,4.302c4.18,5.104,3.429,12.633-1.676,16.813c-0.749,0.613-1.55,1.119-2.384,1.521
			"/>
		
			<path fill="none" stroke="#FFFFFF" stroke-width="1.5" stroke-linecap="round" stroke-linejoin="bevel" stroke-miterlimit="10" d="
			M622.898,157.968c-4.858,2.345-10.862,1.158-14.431-3.2c-1.471-1.795-2.332-3.893-2.604-6.037"/>
		
			<path fill="none" stroke="#FFFFFF" stroke-width="1.5" stroke-linecap="round" stroke-linejoin="bevel" stroke-miterlimit="10" d="
			M620.779,159.296l1.499,15.78c0.139,1.451-0.582,2.721-1.602,2.818s-1.965-1.014-2.104-2.467l-0.181-1.883"/>
		
			<path fill="none" stroke="#FFFFFF" stroke-width="1.5" stroke-linecap="round" stroke-linejoin="bevel" stroke-miterlimit="10" d="
			M606.456,143.32c0.699-2.019,1.947-3.875,3.721-5.326c5.107-4.18,12.633-3.43,16.814,1.677c0.611,0.748,1.117,1.55,1.521,2.382"/>
		
			<path fill="none" stroke="#FFFFFF" stroke-width="1.5" stroke-linecap="round" stroke-linejoin="bevel" stroke-miterlimit="10" d="
			M612.204,139.995c1.406-1.183,3.193-1.933,5.169-2.037c4.825-0.251,8.938,3.454,9.19,8.278c0.035,0.707-0.012,1.398-0.136,2.065"
			/>
	</g>
	<g>
		
			<line fill="none" stroke="#FFFFFF" stroke-width="1.5" stroke-linecap="round" stroke-linejoin="bevel" stroke-miterlimit="10" x1="618.848" y1="27.767" x2="632.902" y2="24.948"/>
		
			<path fill="none" stroke="#FFFFFF" stroke-width="1.5" stroke-linecap="round" stroke-linejoin="bevel" stroke-miterlimit="10" d="
			M656.604,21.789c0.85,3.836-0.212,8.012-3.186,11.009c-4.646,4.683-12.213,4.712-16.896,0.065
			c-0.688-0.682-1.273-1.425-1.761-2.214"/>
		
			<path fill="none" stroke="#FFFFFF" stroke-width="1.5" stroke-linecap="round" stroke-linejoin="bevel" stroke-miterlimit="10" d="
			M634.765,30.649c-2.831-4.589-2.271-10.685,1.696-14.683c1.635-1.648,3.631-2.72,5.734-3.214"/>
		
			<path fill="none" stroke="#FFFFFF" stroke-width="1.5" stroke-linecap="round" stroke-linejoin="bevel" stroke-miterlimit="10" d="
			M633.225,28.679l-15.541,3.118c-1.432,0.287-2.767-0.3-2.969-1.302c-0.202-1.004,0.805-2.061,2.237-2.347l1.854-0.373"/>
		
			<path fill="none" stroke="#FFFFFF" stroke-width="1.5" stroke-linecap="round" stroke-linejoin="bevel" stroke-miterlimit="10" d="
			M647.64,12.785c2.08,0.487,4.056,1.538,5.682,3.152c4.685,4.649,4.713,12.214,0.064,16.897c-0.682,0.686-1.425,1.271-2.212,1.759"
			/>
		
			<path fill="none" stroke="#FFFFFF" stroke-width="1.5" stroke-linecap="round" stroke-linejoin="bevel" stroke-miterlimit="10" d="
			M651.539,18.159c1.321,1.278,2.252,2.979,2.559,4.933c0.746,4.773-2.515,9.247-7.288,9.994c-0.697,0.109-1.392,0.133-2.066,0.078"
			/>
	</g>
	<g>
		
			<line fill="none" stroke="#FFFFFF" stroke-width="1.5" stroke-linecap="round" stroke-linejoin="bevel" stroke-miterlimit="10" x1="580.703" y1="-14.326" x2="588.856" y2="-2.535"/>
		
			<path fill="none" stroke="#FFFFFF" stroke-width="1.5" stroke-linecap="round" stroke-linejoin="bevel" stroke-miterlimit="10" d="
			M601.139,17.981c-3.187,2.297-7.439,2.978-11.368,1.433c-6.142-2.413-9.163-9.349-6.748-15.49c0.354-0.9,0.806-1.732,1.338-2.492"
			/>
		
			<path fill="none" stroke="#FFFFFF" stroke-width="1.5" stroke-linecap="round" stroke-linejoin="bevel" stroke-miterlimit="10" d="
			M584.357,1.432c3.094-4.417,8.913-6.315,14.153-4.254c2.161,0.849,3.936,2.258,5.224,3.995"/>
		
			<path fill="none" stroke="#FFFFFF" stroke-width="1.5" stroke-linecap="round" stroke-linejoin="bevel" stroke-miterlimit="10" d="
			M585.557-0.762l-9.015-13.037c-0.83-1.2-0.82-2.66,0.021-3.242c0.842-0.583,2.211-0.076,3.041,1.125l1.075,1.555"/>
		
			<path fill="none" stroke="#FFFFFF" stroke-width="1.5" stroke-linecap="round" stroke-linejoin="bevel" stroke-miterlimit="10" d="
			M605.859,6.183c0.376,2.103,0.191,4.333-0.646,6.465c-2.415,6.142-9.35,9.162-15.491,6.749c-0.898-0.354-1.731-0.805-2.492-1.336"
			/>
		
			<path fill="none" stroke="#FFFFFF" stroke-width="1.5" stroke-linecap="round" stroke-linejoin="bevel" stroke-miterlimit="10" d="
			M602.468,11.892c-0.648,1.719-1.844,3.248-3.518,4.302c-4.086,2.576-9.485,1.352-12.063-2.737
			c-0.377-0.599-0.674-1.226-0.89-1.868"/>
	</g>
	<g>
		
			<line fill="none" stroke="#FFFFFF" stroke-width="1.5" stroke-linecap="round" stroke-linejoin="bevel" stroke-miterlimit="10" x1="392.298" y1="178.066" x2="393.459" y2="163.779"/>
		
			<path fill="none" stroke="#FFFFFF" stroke-width="1.5" stroke-linecap="round" stroke-linejoin="bevel" stroke-miterlimit="10" d="
			M396.948,140.125c3.923,0.24,7.645,2.408,9.708,6.094c3.223,5.758,1.167,13.037-4.59,16.262c-0.844,0.471-1.721,0.83-2.614,1.08"
			/>
		
			<path fill="none" stroke="#FFFFFF" stroke-width="1.5" stroke-linecap="round" stroke-linejoin="bevel" stroke-miterlimit="10" d="
			M399.452,163.561c-5.191,1.459-10.897-0.759-13.646-5.674c-1.135-2.025-1.616-4.24-1.511-6.4"/>
		
			<path fill="none" stroke="#FFFFFF" stroke-width="1.5" stroke-linecap="round" stroke-linejoin="bevel" stroke-miterlimit="10" d="
			M397.135,164.498l-1.282,15.799c-0.118,1.454-1.05,2.578-2.07,2.495c-1.02-0.082-1.759-1.341-1.64-2.797l0.153-1.886"/>
		
			<path fill="none" stroke="#FFFFFF" stroke-width="1.5" stroke-linecap="round" stroke-linejoin="bevel" stroke-miterlimit="10" d="
			M385.824,146.266c1.041-1.867,2.594-3.478,4.593-4.595c5.76-3.224,13.039-1.169,16.263,4.591c0.472,0.844,0.831,1.719,1.082,2.61"
			/>
		
			<path fill="none" stroke="#FFFFFF" stroke-width="1.5" stroke-linecap="round" stroke-linejoin="bevel" stroke-miterlimit="10" d="
			M392.064,143.995c1.592-0.918,3.482-1.347,5.446-1.103c4.793,0.596,8.196,4.965,7.602,9.758c-0.088,0.703-0.255,1.377-0.496,2.012
			"/>
	</g>
	<g>
		
			<line fill="none" stroke="#FFFFFF" stroke-width="1.5" stroke-linecap="round" stroke-linejoin="bevel" stroke-miterlimit="10" x1="474.784" y1="170.512" x2="475.394" y2="156.777"/>
		
			<path fill="none" stroke="#FFFFFF" stroke-width="1.5" stroke-linecap="round" stroke-linejoin="bevel" stroke-miterlimit="10" d="
			M477.904,133.986c3.767,0.093,7.409,2.039,9.516,5.496c3.291,5.404,1.577,12.455-3.826,15.744
			c-0.792,0.482-1.619,0.858-2.466,1.129"/>
		
			<path fill="none" stroke="#FFFFFF" stroke-width="1.5" stroke-linecap="round" stroke-linejoin="bevel" stroke-miterlimit="10" d="
			M481.129,156.355c-4.925,1.582-10.471-0.344-13.279-4.955c-1.157-1.9-1.695-4.006-1.674-6.08"/>
		
			<path fill="none" stroke="#FFFFFF" stroke-width="1.5" stroke-linecap="round" stroke-linejoin="bevel" stroke-miterlimit="10" d="
			M478.94,157.337l-0.674,15.187c-0.063,1.396-0.916,2.506-1.896,2.463c-0.98-0.043-1.732-1.223-1.671-2.622l0.081-1.812"/>
		
			<path fill="none" stroke="#FFFFFF" stroke-width="1.5" stroke-linecap="round" stroke-linejoin="bevel" stroke-miterlimit="10" d="
			M467.46,140.262c0.931-1.824,2.364-3.422,4.24-4.563c5.404-3.291,12.453-1.577,15.745,3.825c0.48,0.793,0.854,1.621,1.129,2.465"
			/>
		
			<path fill="none" stroke="#FFFFFF" stroke-width="1.5" stroke-linecap="round" stroke-linejoin="bevel" stroke-miterlimit="10" d="
			M473.359,137.868c1.491-0.938,3.291-1.413,5.18-1.249c4.616,0.402,8.03,4.468,7.629,9.085c-0.059,0.676-0.197,1.325-0.404,1.942"
			/>
	</g>
	<g>
		
			<line fill="none" stroke="#FFFFFF" stroke-width="1.5" stroke-linecap="round" stroke-linejoin="bevel" stroke-miterlimit="10" x1="413.101" y1="3.326" x2="416.368" y2="17.284"/>
		
			<path fill="none" stroke="#FFFFFF" stroke-width="1.5" stroke-linecap="round" stroke-linejoin="bevel" stroke-miterlimit="10" d="
			M420.284,40.872c-3.808,0.972-8.014,0.046-11.104-2.831c-4.83-4.495-5.101-12.055-0.606-16.884
			c0.659-0.708,1.385-1.317,2.157-1.829"/>
		
			<path fill="none" stroke="#FFFFFF" stroke-width="1.5" stroke-linecap="round" stroke-linejoin="bevel" stroke-miterlimit="10" d="
			M410.73,19.328c4.497-2.977,10.606-2.613,14.729,1.225c1.7,1.581,2.836,3.542,3.397,5.63"/>
		
			<path fill="none" stroke="#FFFFFF" stroke-width="1.5" stroke-linecap="round" stroke-linejoin="bevel" stroke-miterlimit="10" d="
			M412.65,17.725l-3.613-15.433c-0.334-1.421,0.21-2.775,1.206-3.009c0.997-0.234,2.085,0.738,2.418,2.161l0.431,1.841"/>
		
			<path fill="none" stroke="#FFFFFF" stroke-width="1.5" stroke-linecap="round" stroke-linejoin="bevel" stroke-miterlimit="10" d="
			M428.997,31.624c-0.42,2.094-1.406,4.102-2.969,5.779c-4.496,4.831-12.056,5.101-16.886,0.606
			c-0.706-0.659-1.316-1.384-1.829-2.156"/>
		
			<path fill="none" stroke="#FFFFFF" stroke-width="1.5" stroke-linecap="round" stroke-linejoin="bevel" stroke-miterlimit="10" d="
			M423.75,35.693c-1.233,1.361-2.904,2.346-4.847,2.716c-4.747,0.899-9.323-2.217-10.223-6.964
			c-0.132-0.695-0.179-1.388-0.145-2.064"/>
	</g>
	<g>
		
			<line fill="none" stroke="#FFFFFF" stroke-width="1.5" stroke-linecap="round" stroke-linejoin="bevel" stroke-miterlimit="10" x1="315.869" y1="120.859" x2="323.1" y2="133.238"/>
		
			<path fill="none" stroke="#FFFFFF" stroke-width="1.5" stroke-linecap="round" stroke-linejoin="bevel" stroke-miterlimit="10" d="
			M333.784,154.629c-3.352,2.051-7.646,2.403-11.445,0.563c-5.939-2.873-8.424-10.02-5.55-15.959
			c0.423-0.871,0.935-1.666,1.523-2.383"/>
		
			<path fill="none" stroke="#FFFFFF" stroke-width="1.5" stroke-linecap="round" stroke-linejoin="bevel" stroke-miterlimit="10" d="
			M318.312,136.852c3.422-4.17,9.369-5.619,14.438-3.166c2.09,1.013,3.752,2.553,4.904,4.383"/>
		
			<path fill="none" stroke="#FFFFFF" stroke-width="1.5" stroke-linecap="round" stroke-linejoin="bevel" stroke-miterlimit="10" d="
			M319.676,134.756l-7.997-13.688c-0.735-1.26-0.615-2.715,0.268-3.23c0.884-0.516,2.21,0.094,2.947,1.354l0.954,1.634"/>
		
			<path fill="none" stroke="#FFFFFF" stroke-width="1.5" stroke-linecap="round" stroke-linejoin="bevel" stroke-miterlimit="10" d="
			M339.39,143.227c0.215,2.125-0.137,4.334-1.136,6.396c-2.875,5.939-10.021,8.424-15.961,5.549
			c-0.869-0.422-1.665-0.936-2.382-1.521"/>
		
			<path fill="none" stroke="#FFFFFF" stroke-width="1.5" stroke-linecap="round" stroke-linejoin="bevel" stroke-miterlimit="10" d="
			M335.573,148.659c-0.778,1.665-2.084,3.099-3.834,4.022c-4.271,2.256-9.563,0.623-11.819-3.647
			c-0.33-0.626-0.577-1.274-0.745-1.931"/>
	</g>
	<g>
		
			<line fill="none" stroke="#FFFFFF" stroke-width="1.5" stroke-linecap="round" stroke-linejoin="bevel" stroke-miterlimit="10" x1="340.73" y1="46.767" x2="354.787" y2="43.948"/>
		
			<path fill="none" stroke="#FFFFFF" stroke-width="1.5" stroke-linecap="round" stroke-linejoin="bevel" stroke-miterlimit="10" d="
			M378.487,40.789c0.849,3.836-0.21,8.012-3.185,11.009c-4.647,4.683-12.212,4.712-16.896,0.065
			c-0.686-0.682-1.272-1.425-1.758-2.214"/>
		
			<path fill="none" stroke="#FFFFFF" stroke-width="1.5" stroke-linecap="round" stroke-linejoin="bevel" stroke-miterlimit="10" d="
			M356.649,49.649c-2.833-4.589-2.271-10.685,1.694-14.683c1.635-1.648,3.632-2.72,5.736-3.214"/>
		
			<path fill="none" stroke="#FFFFFF" stroke-width="1.5" stroke-linecap="round" stroke-linejoin="bevel" stroke-miterlimit="10" d="
			M355.107,47.679l-15.541,3.118c-1.43,0.287-2.767-0.3-2.969-1.302c-0.202-1.004,0.804-2.061,2.237-2.347l1.854-0.373"/>
		
			<path fill="none" stroke="#FFFFFF" stroke-width="1.5" stroke-linecap="round" stroke-linejoin="bevel" stroke-miterlimit="10" d="
			M369.522,31.785c2.08,0.487,4.056,1.538,5.681,3.152c4.686,4.649,4.713,12.214,0.066,16.897c-0.682,0.686-1.425,1.271-2.212,1.759
			"/>
		
			<path fill="none" stroke="#FFFFFF" stroke-width="1.5" stroke-linecap="round" stroke-linejoin="bevel" stroke-miterlimit="10" d="
			M373.422,37.159c1.322,1.278,2.253,2.979,2.56,4.933c0.746,4.773-2.515,9.247-7.289,9.994c-0.699,0.109-1.392,0.133-2.067,0.078"
			/>
	</g>
	<g>
		
			<line fill="none" stroke="#FFFFFF" stroke-width="1.5" stroke-linecap="round" stroke-linejoin="bevel" stroke-miterlimit="10" x1="302.587" y1="-14.326" x2="310.739" y2="-2.535"/>
		
			<path fill="none" stroke="#FFFFFF" stroke-width="1.5" stroke-linecap="round" stroke-linejoin="bevel" stroke-miterlimit="10" d="
			M323.023,17.981c-3.187,2.297-7.441,2.978-11.37,1.433c-6.14-2.413-9.162-9.349-6.748-15.49c0.354-0.9,0.804-1.732,1.336-2.492"/>
		
			<path fill="none" stroke="#FFFFFF" stroke-width="1.5" stroke-linecap="round" stroke-linejoin="bevel" stroke-miterlimit="10" d="
			M306.242,1.432c3.093-4.417,8.913-6.315,14.154-4.254c2.161,0.849,3.935,2.258,5.222,3.995"/>
		
			<path fill="none" stroke="#FFFFFF" stroke-width="1.5" stroke-linecap="round" stroke-linejoin="bevel" stroke-miterlimit="10" d="
			M307.441-0.762l-9.015-13.037c-0.831-1.2-0.82-2.66,0.021-3.242c0.841-0.583,2.211-0.076,3.041,1.125l1.075,1.555"/>
		
			<path fill="none" stroke="#FFFFFF" stroke-width="1.5" stroke-linecap="round" stroke-linejoin="bevel" stroke-miterlimit="10" d="
			M327.742,6.183c0.376,2.103,0.194,4.333-0.645,6.465c-2.416,6.142-9.35,9.162-15.491,6.749c-0.899-0.354-1.732-0.805-2.492-1.336"
			/>
		
			<path fill="none" stroke="#FFFFFF" stroke-width="1.5" stroke-linecap="round" stroke-linejoin="bevel" stroke-miterlimit="10" d="
			M324.352,11.892c-0.649,1.719-1.844,3.248-3.517,4.302c-4.086,2.576-9.487,1.352-12.062-2.737
			c-0.378-0.599-0.674-1.226-0.89-1.868"/>
	</g>
	<g>
		
			<line fill="none" stroke="#FFFFFF" stroke-width="1.5" stroke-linecap="round" stroke-linejoin="bevel" stroke-miterlimit="10" x1="143.172" y1="155.568" x2="144.332" y2="141.279"/>
		
			<path fill="none" stroke="#FFFFFF" stroke-width="1.5" stroke-linecap="round" stroke-linejoin="bevel" stroke-miterlimit="10" d="
			M147.822,117.626c3.922,0.239,7.645,2.408,9.707,6.093c3.223,5.758,1.168,13.038-4.589,16.262c-0.844,0.471-1.72,0.83-2.613,1.08"
			/>
		
			<path fill="none" stroke="#FFFFFF" stroke-width="1.5" stroke-linecap="round" stroke-linejoin="bevel" stroke-miterlimit="10" d="
			M150.326,141.061c-5.192,1.459-10.898-0.759-13.648-5.674c-1.134-2.025-1.615-4.238-1.511-6.398"/>
		
			<path fill="none" stroke="#FFFFFF" stroke-width="1.5" stroke-linecap="round" stroke-linejoin="bevel" stroke-miterlimit="10" d="
			M148.008,141.997l-1.282,15.8c-0.118,1.454-1.049,2.577-2.069,2.495c-1.02-0.083-1.759-1.341-1.64-2.797l0.153-1.886"/>
		
			<path fill="none" stroke="#FFFFFF" stroke-width="1.5" stroke-linecap="round" stroke-linejoin="bevel" stroke-miterlimit="10" d="
			M136.697,123.766c1.041-1.865,2.594-3.477,4.594-4.595c5.759-3.224,13.039-1.168,16.262,4.591c0.472,0.844,0.83,1.721,1.082,2.61"
			/>
		
			<path fill="none" stroke="#FFFFFF" stroke-width="1.5" stroke-linecap="round" stroke-linejoin="bevel" stroke-miterlimit="10" d="
			M142.938,121.495c1.591-0.919,3.483-1.347,5.447-1.103c4.793,0.597,8.197,4.963,7.601,9.758c-0.087,0.703-0.255,1.377-0.495,2.012
			"/>
	</g>
	<g>
		
			<line fill="none" stroke="#FFFFFF" stroke-width="1.5" stroke-linecap="round" stroke-linejoin="bevel" stroke-miterlimit="10" x1="209.169" y1="142.998" x2="209.778" y2="129.264"/>
		
			<path fill="none" stroke="#FFFFFF" stroke-width="1.5" stroke-linecap="round" stroke-linejoin="bevel" stroke-miterlimit="10" d="
			M212.289,106.473c3.767,0.094,7.411,2.039,9.516,5.498c3.292,5.402,1.578,12.452-3.826,15.743
			c-0.791,0.481-1.618,0.856-2.464,1.128"/>
		
			<path fill="none" stroke="#FFFFFF" stroke-width="1.5" stroke-linecap="round" stroke-linejoin="bevel" stroke-miterlimit="10" d="
			M215.514,128.842c-4.925,1.58-10.471-0.344-13.28-4.956c-1.158-1.901-1.696-4.006-1.673-6.077"/>
		
			<path fill="none" stroke="#FFFFFF" stroke-width="1.5" stroke-linecap="round" stroke-linejoin="bevel" stroke-miterlimit="10" d="
			M213.326,129.822l-0.672,15.187c-0.062,1.397-0.915,2.507-1.896,2.464c-0.98-0.043-1.733-1.224-1.669-2.623l0.079-1.812"/>
		
			<path fill="none" stroke="#FFFFFF" stroke-width="1.5" stroke-linecap="round" stroke-linejoin="bevel" stroke-miterlimit="10" d="
			M201.844,112.748c0.932-1.823,2.365-3.423,4.242-4.564c5.405-3.291,12.453-1.578,15.745,3.826
			c0.481,0.793,0.856,1.619,1.128,2.465"/>
		
			<path fill="none" stroke="#FFFFFF" stroke-width="1.5" stroke-linecap="round" stroke-linejoin="bevel" stroke-miterlimit="10" d="
			M207.745,110.354c1.493-0.937,3.292-1.41,5.181-1.248c4.616,0.403,8.03,4.47,7.627,9.084c-0.058,0.678-0.195,1.328-0.403,1.943"/>
	</g>
	<g>
		
			<line fill="none" stroke="#FFFFFF" stroke-width="1.5" stroke-linecap="round" stroke-linejoin="bevel" stroke-miterlimit="10" x1="128.42" y1="5.72" x2="131.687" y2="19.678"/>
		
			<path fill="none" stroke="#FFFFFF" stroke-width="1.5" stroke-linecap="round" stroke-linejoin="bevel" stroke-miterlimit="10" d="
			M135.603,43.265c-3.808,0.972-8.015,0.046-11.105-2.831c-4.83-4.494-5.101-12.054-0.605-16.884
			c0.658-0.708,1.383-1.317,2.156-1.829"/>
		
			<path fill="none" stroke="#FFFFFF" stroke-width="1.5" stroke-linecap="round" stroke-linejoin="bevel" stroke-miterlimit="10" d="
			M126.048,21.722c4.497-2.978,10.607-2.613,14.729,1.226c1.699,1.581,2.835,3.542,3.397,5.629"/>
		
			<path fill="none" stroke="#FFFFFF" stroke-width="1.5" stroke-linecap="round" stroke-linejoin="bevel" stroke-miterlimit="10" d="
			M127.968,20.119l-3.614-15.433c-0.333-1.421,0.211-2.775,1.207-3.009c0.997-0.234,2.085,0.738,2.417,2.16l0.432,1.842"/>
		
			<path fill="none" stroke="#FFFFFF" stroke-width="1.5" stroke-linecap="round" stroke-linejoin="bevel" stroke-miterlimit="10" d="
			M144.316,34.018c-0.421,2.094-1.408,4.102-2.969,5.779c-4.496,4.831-12.056,5.102-16.886,0.606
			c-0.707-0.659-1.317-1.384-1.829-2.156"/>
		
			<path fill="none" stroke="#FFFFFF" stroke-width="1.5" stroke-linecap="round" stroke-linejoin="bevel" stroke-miterlimit="10" d="
			M139.068,38.087c-1.233,1.361-2.905,2.346-4.848,2.716c-4.746,0.899-9.322-2.217-10.222-6.964
			c-0.132-0.695-0.178-1.388-0.144-2.065"/>
	</g>
	<g>
		
			<line fill="none" stroke="#FFFFFF" stroke-width="1.5" stroke-linecap="round" stroke-linejoin="bevel" stroke-miterlimit="10" x1="35.765" y1="157.236" x2="34.41" y2="142.965"/>
		
			<path fill="none" stroke="#FFFFFF" stroke-width="1.5" stroke-linecap="round" stroke-linejoin="bevel" stroke-miterlimit="10" d="
			M33.709,119.064c3.904-0.449,7.948,1.035,10.622,4.302c4.18,5.104,3.429,12.634-1.676,16.813
			c-0.749,0.611-1.549,1.117-2.383,1.521"/>
		
			<path fill="none" stroke="#FFFFFF" stroke-width="1.5" stroke-linecap="round" stroke-linejoin="bevel" stroke-miterlimit="10" d="
			M40.271,141.701c-4.858,2.344-10.862,1.158-14.43-3.2c-1.471-1.796-2.332-3.892-2.606-6.037"/>
		
			<path fill="none" stroke="#FFFFFF" stroke-width="1.5" stroke-linecap="round" stroke-linejoin="bevel" stroke-miterlimit="10" d="
			M38.154,143.029l1.499,15.779c0.139,1.453-0.583,2.723-1.601,2.819c-1.019,0.097-1.966-1.015-2.104-2.468l-0.179-1.883"/>
		
			<path fill="none" stroke="#FFFFFF" stroke-width="1.5" stroke-linecap="round" stroke-linejoin="bevel" stroke-miterlimit="10" d="
			M23.83,127.055c0.699-2.019,1.947-3.875,3.72-5.326c5.107-4.181,12.633-3.43,16.813,1.676c0.612,0.748,1.118,1.55,1.521,2.383"/>
		
			<path fill="none" stroke="#FFFFFF" stroke-width="1.5" stroke-linecap="round" stroke-linejoin="bevel" stroke-miterlimit="10" d="
			M29.577,123.729c1.407-1.183,3.195-1.934,5.17-2.035c4.824-0.252,8.938,3.453,9.189,8.277c0.037,0.707-0.011,1.398-0.136,2.065"/>
	</g>
	<g>
		
			<line fill="none" stroke="#FFFFFF" stroke-width="1.5" stroke-linecap="round" stroke-linejoin="bevel" stroke-miterlimit="10" x1="52.708" y1="34.529" x2="66.765" y2="31.71"/>
		
			<path fill="none" stroke="#FFFFFF" stroke-width="1.5" stroke-linecap="round" stroke-linejoin="bevel" stroke-miterlimit="10" d="
			M90.465,28.551c0.85,3.836-0.21,8.012-3.184,11.009c-4.647,4.683-12.212,4.712-16.896,0.064c-0.687-0.681-1.273-1.425-1.759-2.213
			"/>
		
			<path fill="none" stroke="#FFFFFF" stroke-width="1.5" stroke-linecap="round" stroke-linejoin="bevel" stroke-miterlimit="10" d="
			M68.627,37.411c-2.832-4.589-2.271-10.686,1.695-14.683c1.635-1.648,3.631-2.72,5.736-3.215"/>
		
			<path fill="none" stroke="#FFFFFF" stroke-width="1.5" stroke-linecap="round" stroke-linejoin="bevel" stroke-miterlimit="10" d="
			M67.086,35.44l-15.541,3.119c-1.431,0.287-2.767-0.3-2.969-1.302c-0.202-1.004,0.805-2.061,2.237-2.347l1.854-0.373"/>
		
			<path fill="none" stroke="#FFFFFF" stroke-width="1.5" stroke-linecap="round" stroke-linejoin="bevel" stroke-miterlimit="10" d="
			M81.5,19.547c2.08,0.487,4.055,1.538,5.681,3.152c4.685,4.649,4.713,12.213,0.065,16.897c-0.681,0.686-1.425,1.271-2.212,1.759"/>
		
			<path fill="none" stroke="#FFFFFF" stroke-width="1.5" stroke-linecap="round" stroke-linejoin="bevel" stroke-miterlimit="10" d="
			M85.401,24.921c1.322,1.277,2.253,2.979,2.559,4.933c0.746,4.773-2.515,9.247-7.289,9.994c-0.699,0.109-1.392,0.133-2.068,0.078"
			/>
	</g>
	<g>
		
			<line fill="none" stroke="#FFFFFF" stroke-width="1.5" stroke-linecap="round" stroke-linejoin="bevel" stroke-miterlimit="10" x1="14.565" y1="-26.564" x2="22.718" y2="-14.772"/>
		
			<path fill="none" stroke="#FFFFFF" stroke-width="1.5" stroke-linecap="round" stroke-linejoin="bevel" stroke-miterlimit="10" d="
			M35.001,5.743c-3.187,2.297-7.441,2.978-11.37,1.433c-6.141-2.413-9.162-9.349-6.748-15.49c0.354-0.9,0.805-1.732,1.337-2.492"/>
		
			<path fill="none" stroke="#FFFFFF" stroke-width="1.5" stroke-linecap="round" stroke-linejoin="bevel" stroke-miterlimit="10" d="
			M18.22-10.806c3.093-4.417,8.913-6.315,14.154-4.254c2.161,0.849,3.935,2.258,5.223,3.995"/>
		
			<path fill="none" stroke="#FFFFFF" stroke-width="1.5" stroke-linecap="round" stroke-linejoin="bevel" stroke-miterlimit="10" d="
			M19.419-13l-9.016-13.037c-0.83-1.2-0.82-2.66,0.021-3.242c0.841-0.583,2.21-0.076,3.041,1.125l1.075,1.555"/>
		
			<path fill="none" stroke="#FFFFFF" stroke-width="1.5" stroke-linecap="round" stroke-linejoin="bevel" stroke-miterlimit="10" d="
			M39.721-6.055c0.376,2.103,0.193,4.333-0.646,6.465c-2.415,6.142-9.349,9.162-15.49,6.749c-0.899-0.354-1.732-0.805-2.492-1.336"
			/>
		
			<path fill="none" stroke="#FFFFFF" stroke-width="1.5" stroke-linecap="round" stroke-linejoin="bevel" stroke-miterlimit="10" d="
			M36.329-0.346c-0.649,1.719-1.844,3.248-3.517,4.302C28.725,6.532,23.326,5.308,20.75,1.22c-0.377-0.599-0.673-1.226-0.89-1.868"
			/>
	</g>
	<g>
		
			<line fill="none" stroke="#FFFFFF" stroke-width="1.5" stroke-linecap="round" stroke-linejoin="bevel" stroke-miterlimit="10" x1="700.409" y1="25.79" x2="695.576" y2="12.616"/>
		
			<path fill="none" stroke="#FFFFFF" stroke-width="1.5" stroke-linecap="round" stroke-linejoin="bevel" stroke-miterlimit="10" d="
			M688.969-9.834c3.585-1.396,7.782-0.997,11.126,1.431c5.228,3.792,6.39,11.105,2.594,16.332c-0.555,0.766-1.187,1.445-1.875,2.033
			"/>
		
			<path fill="none" stroke="#FFFFFF" stroke-width="1.5" stroke-linecap="round" stroke-linejoin="bevel" stroke-miterlimit="10" d="
			M700.813,9.961c-4.018,3.428-9.996,3.798-14.456,0.561c-1.841-1.334-3.176-3.104-3.971-5.066"/>
		
			<path fill="none" stroke="#FFFFFF" stroke-width="1.5" stroke-linecap="round" stroke-linejoin="bevel" stroke-miterlimit="10" d="
			M699.138,11.747l5.346,14.565c0.49,1.34,0.124,2.721-0.814,3.066c-0.94,0.345-2.113-0.471-2.606-1.812l-0.638-1.738"/>
		
			<path fill="none" stroke="#FFFFFF" stroke-width="1.5" stroke-linecap="round" stroke-linejoin="bevel" stroke-miterlimit="10" d="
			M681.604,0.186c0.157-2.084,0.878-4.153,2.195-5.967c3.795-5.227,11.106-6.389,16.334-2.595c0.767,0.557,1.443,1.188,2.033,1.877"
			/>
		
			<path fill="none" stroke="#FFFFFF" stroke-width="1.5" stroke-linecap="round" stroke-linejoin="bevel" stroke-miterlimit="10" d="
			M686.218-4.391c1.036-1.469,2.543-2.625,4.388-3.214c4.505-1.438,9.32,1.046,10.759,5.551c0.211,0.66,0.338,1.327,0.385,1.988"/>
	</g>
	<g>
		
			<line fill="none" stroke="#FFFFFF" stroke-width="1.5" stroke-linecap="round" stroke-linejoin="bevel" stroke-miterlimit="10" x1="948.558" y1="139.236" x2="947.203" y2="124.965"/>
		
			<path fill="none" stroke="#FFFFFF" stroke-width="1.5" stroke-linecap="round" stroke-linejoin="bevel" stroke-miterlimit="10" d="
			M946.503,101.064c3.903-0.449,7.948,1.035,10.622,4.302c4.179,5.104,3.429,12.634-1.677,16.813
			c-0.748,0.611-1.548,1.117-2.382,1.521"/>
		
			<path fill="none" stroke="#FFFFFF" stroke-width="1.5" stroke-linecap="round" stroke-linejoin="bevel" stroke-miterlimit="10" d="
			M953.065,123.701c-4.857,2.344-10.863,1.158-14.432-3.2c-1.47-1.796-2.331-3.892-2.604-6.037"/>
		
			<path fill="none" stroke="#FFFFFF" stroke-width="1.5" stroke-linecap="round" stroke-linejoin="bevel" stroke-miterlimit="10" d="
			M950.947,125.029l1.5,15.779c0.138,1.453-0.582,2.723-1.602,2.819s-1.967-1.015-2.104-2.468l-0.18-1.883"/>
		
			<path fill="none" stroke="#FFFFFF" stroke-width="1.5" stroke-linecap="round" stroke-linejoin="bevel" stroke-miterlimit="10" d="
			M936.622,109.055c0.699-2.019,1.948-3.875,3.721-5.326c5.107-4.181,12.634-3.43,16.814,1.676c0.611,0.748,1.117,1.55,1.521,2.383"
			/>
		
			<path fill="none" stroke="#FFFFFF" stroke-width="1.5" stroke-linecap="round" stroke-linejoin="bevel" stroke-miterlimit="10" d="
			M942.37,105.729c1.406-1.183,3.193-1.934,5.171-2.035c4.824-0.252,8.938,3.453,9.19,8.277c0.035,0.707-0.014,1.398-0.137,2.065"/>
	</g>
	<g>
		
			<line fill="none" stroke="#FFFFFF" stroke-width="1.5" stroke-linecap="round" stroke-linejoin="bevel" stroke-miterlimit="10" x1="927.358" y1="-26.564" x2="935.51" y2="-14.772"/>
		
			<path fill="none" stroke="#FFFFFF" stroke-width="1.5" stroke-linecap="round" stroke-linejoin="bevel" stroke-miterlimit="10" d="
			M947.794,5.743c-3.187,2.297-7.439,2.978-11.368,1.433c-6.142-2.413-9.162-9.349-6.749-15.49c0.354-0.9,0.805-1.732,1.338-2.492"
			/>
		
			<path fill="none" stroke="#FFFFFF" stroke-width="1.5" stroke-linecap="round" stroke-linejoin="bevel" stroke-miterlimit="10" d="
			M931.013-10.806c3.095-4.417,8.914-6.315,14.154-4.254c2.161,0.849,3.935,2.258,5.224,3.995"/>
		
			<path fill="none" stroke="#FFFFFF" stroke-width="1.5" stroke-linecap="round" stroke-linejoin="bevel" stroke-miterlimit="10" d="
			M932.212-13l-9.015-13.037c-0.831-1.2-0.82-2.66,0.021-3.242c0.842-0.583,2.211-0.076,3.041,1.125l1.076,1.555"/>
		
			<path fill="none" stroke="#FFFFFF" stroke-width="1.5" stroke-linecap="round" stroke-linejoin="bevel" stroke-miterlimit="10" d="
			M952.514-6.055c0.376,2.103,0.193,4.333-0.645,6.465c-2.415,6.142-9.351,9.162-15.491,6.749c-0.899-0.354-1.732-0.805-2.492-1.336
			"/>
		
			<path fill="none" stroke="#FFFFFF" stroke-width="1.5" stroke-linecap="round" stroke-linejoin="bevel" stroke-miterlimit="10" d="
			M949.123-0.346c-0.65,1.719-1.844,3.248-3.519,4.302c-4.087,2.576-9.485,1.352-12.062-2.737c-0.378-0.599-0.674-1.226-0.891-1.868
			"/>
	</g>
	<g>
		
			<line fill="none" stroke="#FFFFFF" stroke-width="1.5" stroke-linecap="round" stroke-linejoin="bevel" stroke-miterlimit="10" x1="767.943" y1="155.568" x2="769.104" y2="141.279"/>
		
			<path fill="none" stroke="#FFFFFF" stroke-width="1.5" stroke-linecap="round" stroke-linejoin="bevel" stroke-miterlimit="10" d="
			M772.594,117.626c3.922,0.239,7.646,2.408,9.707,6.093c3.224,5.758,1.168,13.038-4.589,16.262c-0.844,0.471-1.721,0.83-2.614,1.08
			"/>
		
			<path fill="none" stroke="#FFFFFF" stroke-width="1.5" stroke-linecap="round" stroke-linejoin="bevel" stroke-miterlimit="10" d="
			M775.098,141.061c-5.191,1.459-10.897-0.759-13.647-5.674c-1.134-2.025-1.615-4.238-1.511-6.398"/>
		
			<path fill="none" stroke="#FFFFFF" stroke-width="1.5" stroke-linecap="round" stroke-linejoin="bevel" stroke-miterlimit="10" d="
			M772.779,141.997l-1.283,15.8c-0.117,1.454-1.049,2.577-2.068,2.495c-1.021-0.083-1.76-1.341-1.642-2.797l0.152-1.886"/>
		
			<path fill="none" stroke="#FFFFFF" stroke-width="1.5" stroke-linecap="round" stroke-linejoin="bevel" stroke-miterlimit="10" d="
			M761.47,123.766c1.04-1.865,2.596-3.477,4.594-4.595c5.76-3.224,13.038-1.168,16.264,4.591c0.471,0.844,0.83,1.721,1.082,2.61"/>
		
			<path fill="none" stroke="#FFFFFF" stroke-width="1.5" stroke-linecap="round" stroke-linejoin="bevel" stroke-miterlimit="10" d="
			M767.709,121.495c1.591-0.919,3.483-1.347,5.446-1.103c4.794,0.597,8.196,4.963,7.601,9.758c-0.087,0.703-0.255,1.377-0.492,2.012
			"/>
	</g>
	<g>
		
			<line fill="none" stroke="#FFFFFF" stroke-width="1.5" stroke-linecap="round" stroke-linejoin="bevel" stroke-miterlimit="10" x1="833.94" y1="142.998" x2="834.55" y2="129.264"/>
		
			<path fill="none" stroke="#FFFFFF" stroke-width="1.5" stroke-linecap="round" stroke-linejoin="bevel" stroke-miterlimit="10" d="
			M837.061,106.473c3.768,0.094,7.41,2.039,9.517,5.498c3.291,5.402,1.578,12.452-3.826,15.743
			c-0.791,0.481-1.618,0.856-2.465,1.128"/>
		
			<path fill="none" stroke="#FFFFFF" stroke-width="1.5" stroke-linecap="round" stroke-linejoin="bevel" stroke-miterlimit="10" d="
			M840.285,128.842c-4.925,1.58-10.469-0.344-13.278-4.956c-1.159-1.901-1.697-4.006-1.675-6.077"/>
		
			<path fill="none" stroke="#FFFFFF" stroke-width="1.5" stroke-linecap="round" stroke-linejoin="bevel" stroke-miterlimit="10" d="
			M838.097,129.822l-0.672,15.187c-0.063,1.397-0.915,2.507-1.896,2.464s-1.731-1.224-1.67-2.623l0.079-1.812"/>
		
			<path fill="none" stroke="#FFFFFF" stroke-width="1.5" stroke-linecap="round" stroke-linejoin="bevel" stroke-miterlimit="10" d="
			M826.616,112.748c0.932-1.823,2.363-3.423,4.24-4.564c5.403-3.291,12.452-1.578,15.745,3.826c0.48,0.793,0.855,1.619,1.128,2.465"
			/>
		
			<path fill="none" stroke="#FFFFFF" stroke-width="1.5" stroke-linecap="round" stroke-linejoin="bevel" stroke-miterlimit="10" d="
			M832.516,110.354c1.494-0.937,3.291-1.41,5.183-1.248c4.613,0.403,8.028,4.47,7.627,9.084c-0.06,0.678-0.195,1.328-0.403,1.943"/>
	</g>
	<g>
		
			<line fill="none" stroke="#FFFFFF" stroke-width="1.5" stroke-linecap="round" stroke-linejoin="bevel" stroke-miterlimit="10" x1="753.191" y1="5.72" x2="756.459" y2="19.678"/>
		
			<path fill="none" stroke="#FFFFFF" stroke-width="1.5" stroke-linecap="round" stroke-linejoin="bevel" stroke-miterlimit="10" d="
			M760.374,43.265c-3.808,0.972-8.015,0.046-11.105-2.831c-4.828-4.494-5.101-12.054-0.604-16.884
			c0.658-0.708,1.383-1.317,2.156-1.829"/>
		
			<path fill="none" stroke="#FFFFFF" stroke-width="1.5" stroke-linecap="round" stroke-linejoin="bevel" stroke-miterlimit="10" d="
			M750.819,21.722c4.497-2.978,10.606-2.613,14.729,1.226c1.699,1.581,2.835,3.542,3.396,5.629"/>
		
			<path fill="none" stroke="#FFFFFF" stroke-width="1.5" stroke-linecap="round" stroke-linejoin="bevel" stroke-miterlimit="10" d="
			M752.739,20.119l-3.613-15.433c-0.333-1.421,0.211-2.775,1.207-3.009c0.997-0.234,2.084,0.738,2.417,2.16l0.432,1.842"/>
		
			<path fill="none" stroke="#FFFFFF" stroke-width="1.5" stroke-linecap="round" stroke-linejoin="bevel" stroke-miterlimit="10" d="
			M769.087,34.018c-0.421,2.094-1.407,4.102-2.969,5.779c-4.495,4.831-12.057,5.102-16.887,0.606
			c-0.707-0.659-1.316-1.384-1.828-2.156"/>
		
			<path fill="none" stroke="#FFFFFF" stroke-width="1.5" stroke-linecap="round" stroke-linejoin="bevel" stroke-miterlimit="10" d="
			M763.84,38.087c-1.232,1.361-2.905,2.346-4.849,2.716c-4.746,0.899-9.322-2.217-10.223-6.964
			c-0.133-0.695-0.179-1.388-0.145-2.065"/>
	</g>
	<g>
		
			<line fill="none" stroke="#FFFFFF" stroke-width="1.5" stroke-linecap="round" stroke-linejoin="bevel" stroke-miterlimit="10" x1="262.255" y1="10.854" x2="265.522" y2="24.813"/>
		
			<path fill="none" stroke="#FFFFFF" stroke-width="1.5" stroke-linecap="round" stroke-linejoin="bevel" stroke-miterlimit="10" d="
			M269.438,48.4c-3.808,0.971-8.016,0.045-11.105-2.831c-4.83-4.495-5.101-12.054-0.606-16.884c0.659-0.708,1.383-1.317,2.157-1.829
			"/>
		
			<path fill="none" stroke="#FFFFFF" stroke-width="1.5" stroke-linecap="round" stroke-linejoin="bevel" stroke-miterlimit="10" d="
			M259.884,26.856c4.496-2.977,10.608-2.613,14.729,1.226c1.7,1.581,2.834,3.542,3.396,5.63"/>
		
			<path fill="none" stroke="#FFFFFF" stroke-width="1.5" stroke-linecap="round" stroke-linejoin="bevel" stroke-miterlimit="10" d="
			M261.803,25.254l-3.612-15.433c-0.334-1.42,0.21-2.775,1.207-3.009c0.996-0.234,2.084,0.738,2.417,2.161l0.432,1.841"/>
		
			<path fill="none" stroke="#FFFFFF" stroke-width="1.5" stroke-linecap="round" stroke-linejoin="bevel" stroke-miterlimit="10" d="
			M278.151,39.152c-0.42,2.094-1.407,4.102-2.969,5.779c-4.496,4.831-12.056,5.102-16.885,0.605
			c-0.707-0.658-1.317-1.383-1.83-2.155"/>
		
			<path fill="none" stroke="#FFFFFF" stroke-width="1.5" stroke-linecap="round" stroke-linejoin="bevel" stroke-miterlimit="10" d="
			M272.904,43.222c-1.232,1.361-2.905,2.346-4.848,2.716c-4.746,0.899-9.323-2.217-10.223-6.964
			c-0.131-0.696-0.177-1.388-0.144-2.065"/>
	</g>
</g>
<g id="Layer_2">
	<g>
		
			<line fill="none" stroke="#FFFFFF" stroke-width="1.5" stroke-linecap="round" stroke-linejoin="bevel" stroke-miterlimit="10" x1="495.635" y1="34.125" x2="485.5" y2="23.988"/>
		
			<path fill="none" stroke="#FFFFFF" stroke-width="1.5" stroke-linecap="round" stroke-linejoin="bevel" stroke-miterlimit="10" d="
			M469.734,6.01c2.723-2.833,6.784-4.266,10.928-3.451c6.474,1.272,10.69,7.553,9.418,14.028c-0.188,0.949-0.48,1.849-0.868,2.69"/>
		
			<path fill="none" stroke="#FFFFFF" stroke-width="1.5" stroke-linecap="round" stroke-linejoin="bevel" stroke-miterlimit="10" d="
			M489.212,19.278c-2.25,4.901-7.635,7.813-13.161,6.726c-2.278-0.448-4.275-1.515-5.854-2.993"/>
		
			<path fill="none" stroke="#FFFFFF" stroke-width="1.5" stroke-linecap="round" stroke-linejoin="bevel" stroke-miterlimit="10" d="
			M488.427,21.652l11.207,11.208c1.032,1.031,1.284,2.469,0.563,3.192c-0.725,0.725-2.16,0.472-3.193-0.561l-1.338-1.337"/>
		
			<path fill="none" stroke="#FFFFFF" stroke-width="1.5" stroke-linecap="round" stroke-linejoin="bevel" stroke-miterlimit="10" d="
			M467.207,18.462c-0.747-2.001-0.968-4.227-0.523-6.476c1.272-6.475,7.554-10.692,14.028-9.418c0.948,0.187,1.848,0.481,2.69,0.867
			"/>
		
			<path fill="none" stroke="#FFFFFF" stroke-width="1.5" stroke-linecap="round" stroke-linejoin="bevel" stroke-miterlimit="10" d="
			M469.521,12.238c0.33-1.807,1.229-3.525,2.688-4.863c3.558-3.268,9.091-3.032,12.357,0.527c0.479,0.521,0.883,1.085,1.212,1.678"
			/>
	</g>
	<g>
		
			<line fill="none" stroke="#FFFFFF" stroke-width="1.5" stroke-linecap="round" stroke-linejoin="bevel" stroke-miterlimit="10" x1="547.919" y1="153.529" x2="538.281" y2="164.143"/>
		
			<path fill="none" stroke="#FFFFFF" stroke-width="1.5" stroke-linecap="round" stroke-linejoin="bevel" stroke-miterlimit="10" d="
			M521.081,180.754c-2.959-2.583-4.587-6.572-3.971-10.749c0.958-6.528,7.027-11.043,13.559-10.083
			c0.956,0.143,1.87,0.393,2.729,0.738"/>
		
			<path fill="none" stroke="#FFFFFF" stroke-width="1.5" stroke-linecap="round" stroke-linejoin="bevel" stroke-miterlimit="10" d="
			M533.398,160.66c5.003,2.012,8.17,7.251,7.352,12.82c-0.338,2.299-1.308,4.346-2.708,5.992"/>
		
			<path fill="none" stroke="#FFFFFF" stroke-width="1.5" stroke-linecap="round" stroke-linejoin="bevel" stroke-miterlimit="10" d="
			M535.807,161.33l10.656-11.734c0.98-1.08,2.405-1.4,3.162-0.714c0.758,0.687,0.574,2.136-0.406,3.218l-1.271,1.398"/>
		
			<path fill="none" stroke="#FFFFFF" stroke-width="1.5" stroke-linecap="round" stroke-linejoin="bevel" stroke-miterlimit="10" d="
			M533.642,182.68c-1.963,0.842-4.176,1.168-6.441,0.834c-6.53-0.959-11.043-7.029-10.084-13.559
			c0.142-0.956,0.393-1.869,0.736-2.729"/>
		
			<path fill="none" stroke="#FFFFFF" stroke-width="1.5" stroke-linecap="round" stroke-linejoin="bevel" stroke-miterlimit="10" d="
			M527.313,180.668c-1.821-0.243-3.58-1.059-4.987-2.45c-3.435-3.397-3.465-8.935-0.067-12.368c0.497-0.504,1.043-0.935,1.618-1.291
			"/>
	</g>
	<g>
		
			<line fill="none" stroke="#FFFFFF" stroke-width="1.5" stroke-linecap="round" stroke-linejoin="bevel" stroke-miterlimit="10" x1="217.519" y1="21.888" x2="207.383" y2="11.75"/>
		
			<path fill="none" stroke="#FFFFFF" stroke-width="1.5" stroke-linecap="round" stroke-linejoin="bevel" stroke-miterlimit="10" d="
			M191.618-6.228c2.723-2.833,6.786-4.266,10.928-3.451c6.474,1.272,10.691,7.553,9.418,14.028c-0.186,0.948-0.48,1.849-0.868,2.69"
			/>
		
			<path fill="none" stroke="#FFFFFF" stroke-width="1.5" stroke-linecap="round" stroke-linejoin="bevel" stroke-miterlimit="10" d="
			M211.096,7.041c-2.25,4.901-7.635,7.813-13.161,6.726c-2.278-0.448-4.276-1.515-5.855-2.993"/>
		
			<path fill="none" stroke="#FFFFFF" stroke-width="1.5" stroke-linecap="round" stroke-linejoin="bevel" stroke-miterlimit="10" d="
			M210.311,9.414l11.208,11.208c1.032,1.031,1.284,2.469,0.562,3.192c-0.724,0.725-2.161,0.472-3.194-0.561l-1.338-1.337"/>
		
			<path fill="none" stroke="#FFFFFF" stroke-width="1.5" stroke-linecap="round" stroke-linejoin="bevel" stroke-miterlimit="10" d="
			M189.092,6.225c-0.748-2.001-0.967-4.227-0.525-6.476c1.273-6.475,7.553-10.692,14.029-9.418c0.948,0.187,1.848,0.481,2.691,0.867
			"/>
		
			<path fill="none" stroke="#FFFFFF" stroke-width="1.5" stroke-linecap="round" stroke-linejoin="bevel" stroke-miterlimit="10" d="
			M191.404,0c0.331-1.807,1.231-3.525,2.688-4.863c3.56-3.268,9.091-3.032,12.358,0.527c0.479,0.521,0.882,1.085,1.211,1.679"/>
	</g>
	<g>
		
			<line fill="none" stroke="#FFFFFF" stroke-width="1.5" stroke-linecap="round" stroke-linejoin="bevel" stroke-miterlimit="10" x1="269.801" y1="142.277" x2="260.164" y2="152.891"/>
		
			<path fill="none" stroke="#FFFFFF" stroke-width="1.5" stroke-linecap="round" stroke-linejoin="bevel" stroke-miterlimit="10" d="
			M242.965,169.502c-2.959-2.584-4.587-6.574-3.971-10.75c0.959-6.527,7.03-11.042,13.557-10.081c0.958,0.14,1.872,0.392,2.73,0.737
			"/>
		
			<path fill="none" stroke="#FFFFFF" stroke-width="1.5" stroke-linecap="round" stroke-linejoin="bevel" stroke-miterlimit="10" d="
			M255.281,149.408c5.004,2.013,8.17,7.251,7.352,12.82c-0.338,2.299-1.308,4.347-2.708,5.992"/>
		
			<path fill="none" stroke="#FFFFFF" stroke-width="1.5" stroke-linecap="round" stroke-linejoin="bevel" stroke-miterlimit="10" d="
			M257.69,150.079l10.657-11.735c0.98-1.08,2.404-1.4,3.162-0.714c0.757,0.688,0.574,2.136-0.407,3.218l-1.272,1.399"/>
		
			<path fill="none" stroke="#FFFFFF" stroke-width="1.5" stroke-linecap="round" stroke-linejoin="bevel" stroke-miterlimit="10" d="
			M255.526,171.426c-1.963,0.844-4.176,1.17-6.443,0.836c-6.529-0.96-11.042-7.029-10.083-13.559
			c0.141-0.956,0.392-1.87,0.737-2.729"/>
		
			<path fill="none" stroke="#FFFFFF" stroke-width="1.5" stroke-linecap="round" stroke-linejoin="bevel" stroke-miterlimit="10" d="
			M249.197,169.416c-1.821-0.243-3.581-1.061-4.987-2.45c-3.435-3.397-3.465-8.935-0.067-12.37c0.497-0.502,1.041-0.934,1.618-1.289
			"/>
	</g>
	<g>
		
			<line fill="none" stroke="#FFFFFF" stroke-width="1.5" stroke-linecap="round" stroke-linejoin="bevel" stroke-miterlimit="10" x1="842.29" y1="21.888" x2="832.155" y2="11.75"/>
		
			<path fill="none" stroke="#FFFFFF" stroke-width="1.5" stroke-linecap="round" stroke-linejoin="bevel" stroke-miterlimit="10" d="
			M816.39-6.228c2.724-2.833,6.786-4.266,10.93-3.451c6.473,1.272,10.689,7.553,9.417,14.028c-0.188,0.948-0.48,1.849-0.868,2.69"/>
		
			<path fill="none" stroke="#FFFFFF" stroke-width="1.5" stroke-linecap="round" stroke-linejoin="bevel" stroke-miterlimit="10" d="
			M835.867,7.041c-2.25,4.901-7.635,7.813-13.161,6.726c-2.276-0.448-4.276-1.515-5.854-2.993"/>
		
			<path fill="none" stroke="#FFFFFF" stroke-width="1.5" stroke-linecap="round" stroke-linejoin="bevel" stroke-miterlimit="10" d="
			M835.082,9.414l11.207,11.208c1.033,1.031,1.285,2.469,0.562,3.192c-0.723,0.725-2.159,0.472-3.192-0.561l-1.337-1.337"/>
		
			<path fill="none" stroke="#FFFFFF" stroke-width="1.5" stroke-linecap="round" stroke-linejoin="bevel" stroke-miterlimit="10" d="
			M813.863,6.225c-0.747-2.001-0.968-4.227-0.524-6.476c1.274-6.475,7.553-10.692,14.028-9.418c0.948,0.187,1.848,0.481,2.689,0.867
			"/>
		
			<path fill="none" stroke="#FFFFFF" stroke-width="1.5" stroke-linecap="round" stroke-linejoin="bevel" stroke-miterlimit="10" d="
			M816.176,0c0.33-1.807,1.23-3.525,2.688-4.863c3.56-3.268,9.091-3.032,12.356,0.527c0.479,0.521,0.884,1.085,1.212,1.679"/>
	</g>
	<g>
		
			<line fill="none" stroke="#FFFFFF" stroke-width="1.5" stroke-linecap="round" stroke-linejoin="bevel" stroke-miterlimit="10" x1="894.574" y1="142.277" x2="884.936" y2="152.891"/>
		
			<path fill="none" stroke="#FFFFFF" stroke-width="1.5" stroke-linecap="round" stroke-linejoin="bevel" stroke-miterlimit="10" d="
			M867.736,169.502c-2.959-2.584-4.586-6.574-3.972-10.75c0.959-6.527,7.03-11.042,13.558-10.081
			c0.958,0.14,1.872,0.392,2.729,0.737"/>
		
			<path fill="none" stroke="#FFFFFF" stroke-width="1.5" stroke-linecap="round" stroke-linejoin="bevel" stroke-miterlimit="10" d="
			M880.053,149.408c5.004,2.013,8.171,7.251,7.353,12.82c-0.337,2.299-1.309,4.347-2.708,5.992"/>
		
			<path fill="none" stroke="#FFFFFF" stroke-width="1.5" stroke-linecap="round" stroke-linejoin="bevel" stroke-miterlimit="10" d="
			M882.462,150.079l10.657-11.735c0.979-1.08,2.403-1.4,3.161-0.714c0.759,0.688,0.576,2.136-0.406,3.218l-1.272,1.399"/>
		
			<path fill="none" stroke="#FFFFFF" stroke-width="1.5" stroke-linecap="round" stroke-linejoin="bevel" stroke-miterlimit="10" d="
			M880.297,171.426c-1.963,0.844-4.176,1.17-6.442,0.836c-6.528-0.96-11.043-7.029-10.084-13.559
			c0.143-0.956,0.394-1.87,0.737-2.729"/>
		
			<path fill="none" stroke="#FFFFFF" stroke-width="1.5" stroke-linecap="round" stroke-linejoin="bevel" stroke-miterlimit="10" d="
			M873.968,169.416c-1.818-0.243-3.58-1.061-4.986-2.45c-3.435-3.397-3.466-8.935-0.066-12.37c0.496-0.502,1.04-0.934,1.617-1.289"
			/>
	</g>
	<g>
		
			<line fill="none" stroke="#FFFFFF" stroke-width="1.5" stroke-linecap="round" stroke-linejoin="bevel" stroke-miterlimit="10" x1="704.069" y1="115.096" x2="698.96" y2="128.49"/>
		
			<path fill="none" stroke="#FFFFFF" stroke-width="1.5" stroke-linecap="round" stroke-linejoin="bevel" stroke-miterlimit="10" d="
			M688.998,150.227c-3.699-1.326-6.667-4.449-7.616-8.563c-1.484-6.428,2.523-12.844,8.953-14.329
			c0.941-0.218,1.883-0.315,2.811-0.308"/>
		
			<path fill="none" stroke="#FFFFFF" stroke-width="1.5" stroke-linecap="round" stroke-linejoin="bevel" stroke-miterlimit="10" d="
			M693.144,127.025c5.396,0.052,10.252,3.775,11.52,9.263c0.521,2.262,0.365,4.522-0.338,6.567"/>
		
			<path fill="none" stroke="#FFFFFF" stroke-width="1.5" stroke-linecap="round" stroke-linejoin="bevel" stroke-miterlimit="10" d="
			M695.632,126.773l5.647-14.812c0.52-1.362,1.729-2.183,2.684-1.817c0.957,0.364,1.314,1.778,0.794,3.144l-0.673,1.769"/>
		
			<path fill="none" stroke="#FFFFFF" stroke-width="1.5" stroke-linecap="round" stroke-linejoin="bevel" stroke-miterlimit="10" d="
			M701.396,147.441c-1.521,1.5-3.464,2.611-5.695,3.125c-6.43,1.486-12.845-2.521-14.33-8.951c-0.216-0.941-0.316-1.883-0.309-2.811
			"/>
		
			<path fill="none" stroke="#FFFFFF" stroke-width="1.5" stroke-linecap="round" stroke-linejoin="bevel" stroke-miterlimit="10" d="
			M694.769,147.876c-1.783,0.437-3.721,0.317-5.536-0.465c-4.437-1.912-6.481-7.058-4.57-11.493c0.279-0.648,0.63-1.249,1.036-1.791
			"/>
	</g>
	<g>
		
			<line fill="none" stroke="#FFFFFF" stroke-width="1.5" stroke-linecap="round" stroke-linejoin="bevel" stroke-miterlimit="10" x1="12.343" y1="51.348" x2="2.182" y2="55.744"/>
		
			<path fill="none" stroke="#FFFFFF" stroke-width="1.5" stroke-linecap="round" stroke-linejoin="bevel" stroke-miterlimit="10" d="
			M1.336,52.978l11.235-4.86c1.034-0.448,2.138-0.221,2.453,0.505c0.313,0.725-0.276,1.686-1.311,2.134l-1.34,0.58"/>
	</g>
</g>
<g>
	
		<line fill="none" stroke="#FFFFFF" stroke-width="1.5" stroke-linecap="round" stroke-linejoin="bevel" stroke-miterlimit="10" x1="905.358" y1="122.497" x2="905.968" y2="108.764"/>
	<path fill="none" stroke="#FFFFFF" stroke-width="1.5" stroke-linecap="round" stroke-linejoin="bevel" stroke-miterlimit="10" d="
		M908.479,85.971c3.767,0.094,7.409,2.04,9.516,5.498c3.291,5.403,1.578,12.453-3.826,15.744c-0.791,0.48-1.618,0.855-2.465,1.128"
		/>
	<path fill="none" stroke="#FFFFFF" stroke-width="1.5" stroke-linecap="round" stroke-linejoin="bevel" stroke-miterlimit="10" d="
		M911.703,108.341c-4.925,1.58-10.469-0.344-13.278-4.956c-1.159-1.9-1.697-4.006-1.675-6.078"/>
	<path fill="none" stroke="#FFFFFF" stroke-width="1.5" stroke-linecap="round" stroke-linejoin="bevel" stroke-miterlimit="10" d="
		M909.515,109.32l-0.672,15.188c-0.063,1.396-0.915,2.508-1.896,2.465s-1.731-1.225-1.67-2.623l0.079-1.813"/>
	<path fill="none" stroke="#FFFFFF" stroke-width="1.5" stroke-linecap="round" stroke-linejoin="bevel" stroke-miterlimit="10" d="
		M898.034,92.247c0.932-1.823,2.363-3.423,4.24-4.563c5.403-3.291,12.452-1.578,15.745,3.825c0.48,0.793,0.855,1.619,1.128,2.466"/>
	<path fill="none" stroke="#FFFFFF" stroke-width="1.5" stroke-linecap="round" stroke-linejoin="bevel" stroke-miterlimit="10" d="
		M903.934,89.854c1.494-0.938,3.291-1.412,5.183-1.248c4.614,0.402,8.029,4.469,7.627,9.084c-0.06,0.677-0.195,1.326-0.403,1.942"/>
</g>
</svg>
