<?xml version="1.0" encoding="utf-8"?>
<!-- Generator: Adobe Illustrator 16.0.0, SVG Export Plug-In . SVG Version: 6.00 Build 0)  -->
<!DOCTYPE svg PUBLIC "-//W3C//DTD SVG 1.1//EN" "http://www.w3.org/Graphics/SVG/1.1/DTD/svg11.dtd">
<svg version="1.1" id="Layer_1" xmlns="http://www.w3.org/2000/svg" xmlns:xlink="http://www.w3.org/1999/xlink" x="0px" y="0px"
	 width="960px" height="160px" viewBox="0 0 960 160" enable-background="new 0 0 960 160" xml:space="preserve">
<g id="Layer_2">
</g>
<rect fill="#56DAF3" width="960" height="160"/>
<path fill="none" stroke="#FFFFFF" stroke-width="1.5" stroke-linecap="square" stroke-miterlimit="10" d="M213.499,125.094
	l36.902-12.51c0.639-0.215,1.333,0.125,1.548,0.766l8.104,23.908c0.217,0.641-0.126,1.334-0.764,1.551l-33.841,11.471l-10.125-5.561
	l-6.154-18.158"/>
<polyline fill="none" stroke="#FFFFFF" stroke-width="1.5" stroke-linecap="square" stroke-miterlimit="10" points="
	254.608,135.988 229.396,144.535 223.14,126.07 248.351,117.527 253.382,132.375 "/>
<line fill="none" stroke="#FFFFFF" stroke-width="1.5" stroke-linecap="square" stroke-miterlimit="10" x1="245.142" y1="136.346" x2="240.644" y2="123.076"/>
<line fill="none" stroke="#FFFFFF" stroke-width="1.5" stroke-linecap="square" stroke-miterlimit="10" x1="237.422" y1="138.963" x2="232.925" y2="125.691"/>
<line fill="none" stroke="#FFFFFF" stroke-width="1.5" stroke-linecap="square" stroke-miterlimit="10" x1="246.863" y1="131.789" x2="249.55" y2="130.879"/>
<line fill="none" stroke="#FFFFFF" stroke-width="1.5" stroke-linecap="square" stroke-miterlimit="10" x1="244.657" y1="125.279" x2="247.345" y2="124.369"/>
<line fill="none" stroke="#FFFFFF" stroke-width="1.5" stroke-linecap="square" stroke-miterlimit="10" x1="230.672" y1="137.195" x2="233.261" y2="136.316"/>
<line fill="none" stroke="#FFFFFF" stroke-width="1.5" stroke-linecap="square" stroke-miterlimit="10" x1="228.467" y1="130.688" x2="231.056" y2="129.811"/>
<path fill="none" stroke="#FFFFFF" stroke-width="1.5" stroke-linecap="square" stroke-miterlimit="10" d="M232.767,30.405
	L230.655-8.5c-0.037-0.674,0.48-1.25,1.152-1.286l25.209-1.368c0.674-0.036,1.25,0.48,1.288,1.152l1.936,35.68l-8.081,8.253
	l-19.145,1.039"/>
<polyline fill="none" stroke="#FFFFFF" stroke-width="1.5" stroke-linecap="square" stroke-miterlimit="10" points="254.327,-6.251 
	255.77,20.33 236.303,21.385 234.861,-5.195 250.516,-6.045 "/>
<line fill="none" stroke="#FFFFFF" stroke-width="1.5" stroke-linecap="square" stroke-miterlimit="10" x1="252.122" y1="2.96" x2="238.131" y2="3.72"/>
<line fill="none" stroke="#FFFFFF" stroke-width="1.5" stroke-linecap="square" stroke-miterlimit="10" x1="252.563" y1="11.099" x2="238.573" y2="11.858"/>
<line fill="none" stroke="#FFFFFF" stroke-width="1.5" stroke-linecap="square" stroke-miterlimit="10" x1="248.197" y1="0.077" x2="248.044" y2="-2.757"/>
<line fill="none" stroke="#FFFFFF" stroke-width="1.5" stroke-linecap="square" stroke-miterlimit="10" x1="241.335" y1="0.448" x2="241.182" y2="-2.385"/>
<line fill="none" stroke="#FFFFFF" stroke-width="1.5" stroke-linecap="square" stroke-miterlimit="10" x1="249.045" y1="17.125" x2="248.897" y2="14.396"/>
<line fill="none" stroke="#FFFFFF" stroke-width="1.5" stroke-linecap="square" stroke-miterlimit="10" x1="242.185" y1="17.496" x2="242.036" y2="14.767"/>
<path fill="none" stroke="#FFFFFF" stroke-width="1.5" stroke-linecap="square" stroke-miterlimit="10" d="M332.054,145.828
	l5.514,38.572c0.095,0.668-0.369,1.287-1.037,1.383l-24.992,3.572c-0.666,0.094-1.287-0.369-1.383-1.035l-5.055-35.373l7.327-8.93
	l18.981-2.713"/>
<polyline fill="none" stroke="#FFFFFF" stroke-width="1.5" stroke-linecap="square" stroke-miterlimit="10" points="
	313.789,184.234 310.022,157.881 329.322,155.123 333.087,181.475 317.567,183.693 "/>
<line fill="none" stroke="#FFFFFF" stroke-width="1.5" stroke-linecap="square" stroke-miterlimit="10" x1="315.178" y1="174.863" x2="329.048" y2="172.883"/>
<line fill="none" stroke="#FFFFFF" stroke-width="1.5" stroke-linecap="square" stroke-miterlimit="10" x1="314.025" y1="166.797" x2="327.896" y2="164.813"/>
<line fill="none" stroke="#FFFFFF" stroke-width="1.5" stroke-linecap="square" stroke-miterlimit="10" x1="319.342" y1="177.395" x2="319.742" y2="180.201"/>
<line fill="none" stroke="#FFFFFF" stroke-width="1.5" stroke-linecap="square" stroke-miterlimit="10" x1="326.144" y1="176.422" x2="326.544" y2="179.23"/>
<line fill="none" stroke="#FFFFFF" stroke-width="1.5" stroke-linecap="square" stroke-miterlimit="10" x1="317.002" y1="160.484" x2="317.389" y2="163.191"/>
<line fill="none" stroke="#FFFFFF" stroke-width="1.5" stroke-linecap="square" stroke-miterlimit="10" x1="323.804" y1="159.514" x2="324.191" y2="162.217"/>
<path fill="none" stroke="#FFFFFF" stroke-width="1.5" stroke-linecap="square" stroke-miterlimit="10" d="M316.299,50.268
	l-38.675-4.733c-0.669-0.083-1.147-0.692-1.064-1.362l3.066-25.059c0.083-0.668,0.69-1.147,1.36-1.065l35.469,4.34l6.71,9.403
	l-2.33,19.03"/>
<polyline fill="none" stroke="#FFFFFF" stroke-width="1.5" stroke-linecap="square" stroke-miterlimit="10" points="283.983,22.622 
	310.406,25.855 308.038,45.207 281.615,41.973 283.52,26.41 "/>
<line fill="none" stroke="#FFFFFF" stroke-width="1.5" stroke-linecap="square" stroke-miterlimit="10" x1="292.667" y1="26.406" x2="290.965" y2="40.313"/>
<line fill="none" stroke="#FFFFFF" stroke-width="1.5" stroke-linecap="square" stroke-miterlimit="10" x1="300.757" y1="27.396" x2="299.055" y2="41.304"/>
<line fill="none" stroke="#FFFFFF" stroke-width="1.5" stroke-linecap="square" stroke-miterlimit="10" x1="289.14" y1="29.766" x2="286.324" y2="29.421"/>
<line fill="none" stroke="#FFFFFF" stroke-width="1.5" stroke-linecap="square" stroke-miterlimit="10" x1="288.305" y1="36.586" x2="285.489" y2="36.241"/>
<line fill="none" stroke="#FFFFFF" stroke-width="1.5" stroke-linecap="square" stroke-miterlimit="10" x1="306.074" y1="31.916" x2="303.36" y2="31.583"/>
<line fill="none" stroke="#FFFFFF" stroke-width="1.5" stroke-linecap="square" stroke-miterlimit="10" x1="305.239" y1="38.735" x2="302.526" y2="38.403"/>
<path fill="none" stroke="#FFFFFF" stroke-width="1.5" stroke-linecap="square" stroke-miterlimit="10" d="M387.421,119.084
	l-19.648,33.648c-0.339,0.58-1.088,0.776-1.671,0.438l-21.801-12.731c-0.583-0.34-0.78-1.088-0.44-1.67l18.019-30.857l11.29-2.443
	l16.557,9.668"/>
<polyline fill="none" stroke="#FFFFFF" stroke-width="1.5" stroke-linecap="square" stroke-miterlimit="10" points="
	349.246,137.828 362.669,114.84 379.504,124.67 366.081,147.656 352.542,139.75 "/>
<line fill="none" stroke="#FFFFFF" stroke-width="1.5" stroke-linecap="square" stroke-miterlimit="10" x1="356.156" y1="131.348" x2="368.257" y2="138.414"/>
<line fill="none" stroke="#FFFFFF" stroke-width="1.5" stroke-linecap="square" stroke-miterlimit="10" x1="360.267" y1="124.309" x2="372.366" y2="131.375"/>
<line fill="none" stroke="#FFFFFF" stroke-width="1.5" stroke-linecap="square" stroke-miterlimit="10" x1="357.847" y1="135.916" x2="356.416" y2="138.367"/>
<line fill="none" stroke="#FFFFFF" stroke-width="1.5" stroke-linecap="square" stroke-miterlimit="10" x1="363.781" y1="139.383" x2="362.35" y2="141.83"/>
<line fill="none" stroke="#FFFFFF" stroke-width="1.5" stroke-linecap="square" stroke-miterlimit="10" x1="366.521" y1="121.217" x2="365.142" y2="123.574"/>
<line fill="none" stroke="#FFFFFF" stroke-width="1.5" stroke-linecap="square" stroke-miterlimit="10" x1="372.454" y1="124.68" x2="371.076" y2="127.041"/>
<path fill="none" stroke="#FFFFFF" stroke-width="1.5" stroke-linecap="square" stroke-miterlimit="10" d="M394.832-4.641
	L431.32,9.025c0.631,0.238,0.952,0.941,0.714,1.573L423.18,34.24c-0.235,0.631-0.939,0.954-1.572,0.717l-33.462-12.533
	l-4.321-10.713l6.726-17.954"/>
<polyline fill="none" stroke="#FFFFFF" stroke-width="1.5" stroke-linecap="square" stroke-miterlimit="10" points="419.768,29.81 
	394.838,20.473 401.677,2.216 426.605,11.554 421.106,26.234 "/>
<line fill="none" stroke="#FFFFFF" stroke-width="1.5" stroke-linecap="square" stroke-miterlimit="10" x1="412.212" y1="24.096" x2="417.126" y2="10.974"/>
<line fill="none" stroke="#FFFFFF" stroke-width="1.5" stroke-linecap="square" stroke-miterlimit="10" x1="404.58" y1="21.237" x2="409.495" y2="8.115"/>
<line fill="none" stroke="#FFFFFF" stroke-width="1.5" stroke-linecap="square" stroke-miterlimit="10" x1="416.429" y1="21.656" x2="419.086" y2="22.652"/>
<line fill="none" stroke="#FFFFFF" stroke-width="1.5" stroke-linecap="square" stroke-miterlimit="10" x1="418.839" y1="15.221" x2="421.497" y2="16.216"/>
<line fill="none" stroke="#FFFFFF" stroke-width="1.5" stroke-linecap="square" stroke-miterlimit="10" x1="400.471" y1="15.597" x2="403.03" y2="16.556"/>
<line fill="none" stroke="#FFFFFF" stroke-width="1.5" stroke-linecap="square" stroke-miterlimit="10" x1="402.881" y1="9.164" x2="405.44" y2="10.121"/>
<path fill="none" stroke="#FFFFFF" stroke-width="1.5" stroke-linecap="square" stroke-miterlimit="10" d="M440.223,156.447
	l7.201-38.293c0.125-0.664,0.765-1.1,1.426-0.973l24.812,4.664c0.663,0.125,1.102,0.764,0.976,1.428l-6.604,35.113l-9.813,6.096
	l-18.842-3.545"/>
<polyline fill="none" stroke="#FFFFFF" stroke-width="1.5" stroke-linecap="square" stroke-miterlimit="10" points="
	469.882,125.969 464.962,152.131 445.803,148.527 450.724,122.367 466.132,125.264 "/>
<line fill="none" stroke="#FFFFFF" stroke-width="1.5" stroke-linecap="square" stroke-miterlimit="10" x1="465.55" y1="134.393" x2="451.78" y2="131.803"/>
<line fill="none" stroke="#FFFFFF" stroke-width="1.5" stroke-linecap="square" stroke-miterlimit="10" x1="464.044" y1="142.402" x2="450.273" y2="139.813"/>
<line fill="none" stroke="#FFFFFF" stroke-width="1.5" stroke-linecap="square" stroke-miterlimit="10" x1="462.423" y1="130.656" x2="462.948" y2="127.867"/>
<line fill="none" stroke="#FFFFFF" stroke-width="1.5" stroke-linecap="square" stroke-miterlimit="10" x1="455.67" y1="129.387" x2="456.194" y2="126.598"/>
<line fill="none" stroke="#FFFFFF" stroke-width="1.5" stroke-linecap="square" stroke-miterlimit="10" x1="459.193" y1="147.418" x2="459.698" y2="144.732"/>
<line fill="none" stroke="#FFFFFF" stroke-width="1.5" stroke-linecap="square" stroke-miterlimit="10" x1="452.441" y1="146.148" x2="452.945" y2="143.463"/>
<path fill="none" stroke="#FFFFFF" stroke-width="1.5" stroke-linecap="square" stroke-miterlimit="10" d="M89.281,119.771
	l5.513,38.571c0.095,0.669-0.369,1.285-1.037,1.384l-24.992,3.571c-0.668,0.095-1.288-0.368-1.383-1.034l-5.056-35.375l7.327-8.929
	l18.98-2.715"/>
<polyline fill="none" stroke="#FFFFFF" stroke-width="1.5" stroke-linecap="square" stroke-miterlimit="10" points="71.016,158.176 
	67.25,131.824 86.549,129.066 90.314,155.42 74.794,157.637 "/>
<line fill="none" stroke="#FFFFFF" stroke-width="1.5" stroke-linecap="square" stroke-miterlimit="10" x1="72.405" y1="148.807" x2="86.275" y2="146.824"/>
<line fill="none" stroke="#FFFFFF" stroke-width="1.5" stroke-linecap="square" stroke-miterlimit="10" x1="71.251" y1="140.738" x2="85.123" y2="138.756"/>
<line fill="none" stroke="#FFFFFF" stroke-width="1.5" stroke-linecap="square" stroke-miterlimit="10" x1="76.569" y1="151.338" x2="76.97" y2="154.146"/>
<line fill="none" stroke="#FFFFFF" stroke-width="1.5" stroke-linecap="square" stroke-miterlimit="10" x1="83.37" y1="150.363" x2="83.772" y2="153.172"/>
<line fill="none" stroke="#FFFFFF" stroke-width="1.5" stroke-linecap="square" stroke-miterlimit="10" x1="74.229" y1="134.428" x2="74.616" y2="137.135"/>
<line fill="none" stroke="#FFFFFF" stroke-width="1.5" stroke-linecap="square" stroke-miterlimit="10" x1="81.03" y1="133.455" x2="81.417" y2="136.162"/>
<path fill="none" stroke="#FFFFFF" stroke-width="1.5" stroke-linecap="square" stroke-miterlimit="10" d="M68.614,60.733
	l-38.676-4.732c-0.669-0.083-1.146-0.692-1.064-1.361l3.067-25.06c0.082-0.668,0.69-1.146,1.36-1.065l35.467,4.34l6.711,9.403
	l-2.329,19.03"/>
<polyline fill="none" stroke="#FFFFFF" stroke-width="1.5" stroke-linecap="square" stroke-miterlimit="10" points="36.298,33.087 
	62.721,36.32 60.353,55.672 33.931,52.438 35.835,36.876 "/>
<line fill="none" stroke="#FFFFFF" stroke-width="1.5" stroke-linecap="square" stroke-miterlimit="10" x1="44.982" y1="36.872" x2="43.28" y2="50.78"/>
<line fill="none" stroke="#FFFFFF" stroke-width="1.5" stroke-linecap="square" stroke-miterlimit="10" x1="53.072" y1="37.861" x2="51.37" y2="51.77"/>
<line fill="none" stroke="#FFFFFF" stroke-width="1.5" stroke-linecap="square" stroke-miterlimit="10" x1="41.455" y1="40.231" x2="38.64" y2="39.887"/>
<line fill="none" stroke="#FFFFFF" stroke-width="1.5" stroke-linecap="square" stroke-miterlimit="10" x1="40.62" y1="47.052" x2="37.804" y2="46.707"/>
<line fill="none" stroke="#FFFFFF" stroke-width="1.5" stroke-linecap="square" stroke-miterlimit="10" x1="58.389" y1="42.382" x2="55.675" y2="42.049"/>
<line fill="none" stroke="#FFFFFF" stroke-width="1.5" stroke-linecap="square" stroke-miterlimit="10" x1="57.554" y1="49.201" x2="54.84" y2="48.869"/>
<path fill="none" stroke="#FFFFFF" stroke-width="1.5" stroke-linecap="square" stroke-miterlimit="10" d="M138.534,72.174
	l-19.648,33.648c-0.34,0.582-1.089,0.777-1.671,0.439L95.413,93.529c-0.582-0.34-0.779-1.088-0.44-1.67l18.019-30.857l11.29-2.443
	l16.557,9.667"/>
<polyline fill="none" stroke="#FFFFFF" stroke-width="1.5" stroke-linecap="square" stroke-miterlimit="10" points="100.357,90.916 
	113.781,67.927 130.616,77.759 117.192,100.746 103.654,92.838 "/>
<line fill="none" stroke="#FFFFFF" stroke-width="1.5" stroke-linecap="square" stroke-miterlimit="10" x1="107.269" y1="84.438" x2="119.368" y2="91.504"/>
<line fill="none" stroke="#FFFFFF" stroke-width="1.5" stroke-linecap="square" stroke-miterlimit="10" x1="111.378" y1="77.399" x2="123.478" y2="84.467"/>
<line fill="none" stroke="#FFFFFF" stroke-width="1.5" stroke-linecap="square" stroke-miterlimit="10" x1="108.959" y1="89.008" x2="107.528" y2="91.455"/>
<line fill="none" stroke="#FFFFFF" stroke-width="1.5" stroke-linecap="square" stroke-miterlimit="10" x1="114.893" y1="92.471" x2="113.462" y2="94.924"/>
<line fill="none" stroke="#FFFFFF" stroke-width="1.5" stroke-linecap="square" stroke-miterlimit="10" x1="117.633" y1="74.304" x2="116.253" y2="76.665"/>
<line fill="none" stroke="#FFFFFF" stroke-width="1.5" stroke-linecap="square" stroke-miterlimit="10" x1="123.565" y1="77.769" x2="122.188" y2="80.129"/>
<path fill="none" stroke="#FFFFFF" stroke-width="1.5" stroke-linecap="square" stroke-miterlimit="10" d="M147.146-4.641
	l36.489,13.666c0.63,0.238,0.951,0.941,0.714,1.573l-8.854,23.642c-0.237,0.631-0.941,0.954-1.573,0.717l-33.461-12.533
	l-4.321-10.713l6.725-17.954"/>
<polyline fill="none" stroke="#FFFFFF" stroke-width="1.5" stroke-linecap="square" stroke-miterlimit="10" points="172.083,29.81 
	147.153,20.473 153.992,2.216 178.92,11.554 173.421,26.234 "/>
<line fill="none" stroke="#FFFFFF" stroke-width="1.5" stroke-linecap="square" stroke-miterlimit="10" x1="164.527" y1="24.096" x2="169.441" y2="10.974"/>
<line fill="none" stroke="#FFFFFF" stroke-width="1.5" stroke-linecap="square" stroke-miterlimit="10" x1="156.895" y1="21.237" x2="161.81" y2="8.115"/>
<line fill="none" stroke="#FFFFFF" stroke-width="1.5" stroke-linecap="square" stroke-miterlimit="10" x1="168.744" y1="21.656" x2="171.401" y2="22.652"/>
<line fill="none" stroke="#FFFFFF" stroke-width="1.5" stroke-linecap="square" stroke-miterlimit="10" x1="171.154" y1="15.221" x2="173.812" y2="16.216"/>
<line fill="none" stroke="#FFFFFF" stroke-width="1.5" stroke-linecap="square" stroke-miterlimit="10" x1="152.785" y1="15.597" x2="155.345" y2="16.556"/>
<line fill="none" stroke="#FFFFFF" stroke-width="1.5" stroke-linecap="square" stroke-miterlimit="10" x1="155.196" y1="9.164" x2="157.755" y2="10.121"/>
<path fill="none" stroke="#FFFFFF" stroke-width="1.5" stroke-linecap="square" stroke-miterlimit="10" d="M168.669,151.975
	l7.202-38.295c0.124-0.66,0.763-1.1,1.426-0.975l24.81,4.666c0.663,0.125,1.101,0.764,0.976,1.426l-6.605,35.117l-9.813,6.094
	l-18.841-3.543"/>
<polyline fill="none" stroke="#FFFFFF" stroke-width="1.5" stroke-linecap="square" stroke-miterlimit="10" points="
	198.328,121.494 193.408,147.654 174.25,144.053 179.17,117.893 194.578,120.789 "/>
<line fill="none" stroke="#FFFFFF" stroke-width="1.5" stroke-linecap="square" stroke-miterlimit="10" x1="193.996" y1="129.918" x2="180.226" y2="127.326"/>
<line fill="none" stroke="#FFFFFF" stroke-width="1.5" stroke-linecap="square" stroke-miterlimit="10" x1="192.49" y1="137.928" x2="178.719" y2="135.338"/>
<line fill="none" stroke="#FFFFFF" stroke-width="1.5" stroke-linecap="square" stroke-miterlimit="10" x1="190.869" y1="126.182" x2="191.394" y2="123.393"/>
<line fill="none" stroke="#FFFFFF" stroke-width="1.5" stroke-linecap="square" stroke-miterlimit="10" x1="184.115" y1="124.914" x2="184.641" y2="122.125"/>
<line fill="none" stroke="#FFFFFF" stroke-width="1.5" stroke-linecap="square" stroke-miterlimit="10" x1="187.638" y1="142.941" x2="188.144" y2="140.256"/>
<line fill="none" stroke="#FFFFFF" stroke-width="1.5" stroke-linecap="square" stroke-miterlimit="10" x1="180.887" y1="141.674" x2="181.392" y2="138.986"/>
<path fill="none" stroke="#FFFFFF" stroke-width="1.5" stroke-linecap="square" stroke-miterlimit="10" d="M484.473,129.566
	l36.901-12.508c0.639-0.218,1.332,0.129,1.55,0.766l8.104,23.91c0.218,0.639-0.124,1.332-0.764,1.549l-33.842,11.471l-10.124-5.561
	l-6.154-18.158"/>
<polyline fill="none" stroke="#FFFFFF" stroke-width="1.5" stroke-linecap="square" stroke-miterlimit="10" points="
	525.582,140.465 500.369,149.008 494.112,130.545 519.323,122 524.354,136.85 "/>
<line fill="none" stroke="#FFFFFF" stroke-width="1.5" stroke-linecap="square" stroke-miterlimit="10" x1="516.114" y1="140.82" x2="511.617" y2="127.551"/>
<line fill="none" stroke="#FFFFFF" stroke-width="1.5" stroke-linecap="square" stroke-miterlimit="10" x1="508.396" y1="143.438" x2="503.899" y2="130.168"/>
<line fill="none" stroke="#FFFFFF" stroke-width="1.5" stroke-linecap="square" stroke-miterlimit="10" x1="517.837" y1="136.264" x2="520.523" y2="135.354"/>
<line fill="none" stroke="#FFFFFF" stroke-width="1.5" stroke-linecap="square" stroke-miterlimit="10" x1="515.629" y1="129.756" x2="518.318" y2="128.846"/>
<line fill="none" stroke="#FFFFFF" stroke-width="1.5" stroke-linecap="square" stroke-miterlimit="10" x1="501.646" y1="141.67" x2="504.235" y2="140.793"/>
<line fill="none" stroke="#FFFFFF" stroke-width="1.5" stroke-linecap="square" stroke-miterlimit="10" x1="499.441" y1="135.164" x2="502.028" y2="134.287"/>
<path fill="none" stroke="#FFFFFF" stroke-width="1.5" stroke-linecap="square" stroke-miterlimit="10" d="M479.872,30.405
	L477.759-8.5c-0.037-0.674,0.48-1.25,1.154-1.286l25.208-1.368c0.672-0.036,1.25,0.48,1.285,1.152l1.938,35.68l-8.081,8.253
	l-19.146,1.039"/>
<polyline fill="none" stroke="#FFFFFF" stroke-width="1.5" stroke-linecap="square" stroke-miterlimit="10" points="501.432,-6.251 
	502.874,20.33 483.407,21.385 481.965,-5.195 497.621,-6.045 "/>
<line fill="none" stroke="#FFFFFF" stroke-width="1.5" stroke-linecap="square" stroke-miterlimit="10" x1="499.227" y1="2.96" x2="485.235" y2="3.72"/>
<line fill="none" stroke="#FFFFFF" stroke-width="1.5" stroke-linecap="square" stroke-miterlimit="10" x1="499.668" y1="11.099" x2="485.677" y2="11.858"/>
<line fill="none" stroke="#FFFFFF" stroke-width="1.5" stroke-linecap="square" stroke-miterlimit="10" x1="495.301" y1="0.077" x2="495.147" y2="-2.757"/>
<line fill="none" stroke="#FFFFFF" stroke-width="1.5" stroke-linecap="square" stroke-miterlimit="10" x1="488.438" y1="0.448" x2="488.286" y2="-2.385"/>
<line fill="none" stroke="#FFFFFF" stroke-width="1.5" stroke-linecap="square" stroke-miterlimit="10" x1="496.148" y1="17.125" x2="496.002" y2="14.396"/>
<line fill="none" stroke="#FFFFFF" stroke-width="1.5" stroke-linecap="square" stroke-miterlimit="10" x1="489.289" y1="17.496" x2="489.141" y2="14.767"/>
<path fill="none" stroke="#FFFFFF" stroke-width="1.5" stroke-linecap="square" stroke-miterlimit="10" d="M610.385,140.271
	l5.514,38.571c0.097,0.668-0.368,1.285-1.036,1.384l-24.991,3.571c-0.668,0.095-1.289-0.368-1.383-1.034l-5.057-35.375l7.328-8.929
	l18.98-2.715"/>
<polyline fill="none" stroke="#FFFFFF" stroke-width="1.5" stroke-linecap="square" stroke-miterlimit="10" points="
	592.119,178.676 588.353,152.324 607.653,149.566 611.418,175.92 595.898,178.137 "/>
<line fill="none" stroke="#FFFFFF" stroke-width="1.5" stroke-linecap="square" stroke-miterlimit="10" x1="593.51" y1="169.307" x2="607.38" y2="167.324"/>
<line fill="none" stroke="#FFFFFF" stroke-width="1.5" stroke-linecap="square" stroke-miterlimit="10" x1="592.354" y1="161.238" x2="606.227" y2="159.256"/>
<line fill="none" stroke="#FFFFFF" stroke-width="1.5" stroke-linecap="square" stroke-miterlimit="10" x1="597.672" y1="171.838" x2="598.073" y2="174.646"/>
<line fill="none" stroke="#FFFFFF" stroke-width="1.5" stroke-linecap="square" stroke-miterlimit="10" x1="604.475" y1="170.863" x2="604.877" y2="173.672"/>
<line fill="none" stroke="#FFFFFF" stroke-width="1.5" stroke-linecap="square" stroke-miterlimit="10" x1="595.332" y1="154.928" x2="595.72" y2="157.635"/>
<line fill="none" stroke="#FFFFFF" stroke-width="1.5" stroke-linecap="square" stroke-miterlimit="10" x1="602.133" y1="153.955" x2="602.521" y2="156.662"/>
<path fill="none" stroke="#FFFFFF" stroke-width="1.5" stroke-linecap="square" stroke-miterlimit="10" d="M578.479,47.946
	l-38.677-4.733c-0.669-0.082-1.145-0.69-1.063-1.361l3.067-25.059c0.081-0.669,0.689-1.147,1.36-1.066l35.468,4.341l6.711,9.402
	l-2.329,19.031"/>
<polyline fill="none" stroke="#FFFFFF" stroke-width="1.5" stroke-linecap="square" stroke-miterlimit="10" points="546.162,20.3 
	572.587,23.533 570.219,42.885 543.797,39.65 545.7,24.088 "/>
<line fill="none" stroke="#FFFFFF" stroke-width="1.5" stroke-linecap="square" stroke-miterlimit="10" x1="554.847" y1="24.084" x2="553.146" y2="37.991"/>
<line fill="none" stroke="#FFFFFF" stroke-width="1.5" stroke-linecap="square" stroke-miterlimit="10" x1="562.938" y1="25.074" x2="561.234" y2="38.982"/>
<line fill="none" stroke="#FFFFFF" stroke-width="1.5" stroke-linecap="square" stroke-miterlimit="10" x1="551.32" y1="27.444" x2="548.504" y2="27.099"/>
<line fill="none" stroke="#FFFFFF" stroke-width="1.5" stroke-linecap="square" stroke-miterlimit="10" x1="550.484" y1="34.264" x2="547.669" y2="33.92"/>
<line fill="none" stroke="#FFFFFF" stroke-width="1.5" stroke-linecap="square" stroke-miterlimit="10" x1="568.254" y1="29.593" x2="565.542" y2="29.262"/>
<line fill="none" stroke="#FFFFFF" stroke-width="1.5" stroke-linecap="square" stroke-miterlimit="10" x1="567.419" y1="36.415" x2="564.707" y2="36.082"/>
<path fill="none" stroke="#FFFFFF" stroke-width="1.5" stroke-linecap="square" stroke-miterlimit="10" d="M659.637,122.279
	l-19.646,33.646c-0.34,0.584-1.09,0.779-1.672,0.438l-21.8-12.729c-0.584-0.338-0.78-1.088-0.441-1.67l18.02-30.854l11.29-2.445
	l16.557,9.668"/>
<polyline fill="none" stroke="#FFFFFF" stroke-width="1.5" stroke-linecap="square" stroke-miterlimit="10" points="
	621.461,141.021 634.886,118.033 651.719,127.865 638.296,150.852 624.757,142.945 "/>
<line fill="none" stroke="#FFFFFF" stroke-width="1.5" stroke-linecap="square" stroke-miterlimit="10" x1="628.373" y1="134.543" x2="640.471" y2="141.607"/>
<line fill="none" stroke="#FFFFFF" stroke-width="1.5" stroke-linecap="square" stroke-miterlimit="10" x1="632.481" y1="127.504" x2="644.582" y2="134.57"/>
<line fill="none" stroke="#FFFFFF" stroke-width="1.5" stroke-linecap="square" stroke-miterlimit="10" x1="630.063" y1="139.111" x2="628.631" y2="141.561"/>
<line fill="none" stroke="#FFFFFF" stroke-width="1.5" stroke-linecap="square" stroke-miterlimit="10" x1="635.997" y1="142.576" x2="634.565" y2="145.027"/>
<line fill="none" stroke="#FFFFFF" stroke-width="1.5" stroke-linecap="square" stroke-miterlimit="10" x1="638.734" y1="124.41" x2="637.357" y2="126.77"/>
<line fill="none" stroke="#FFFFFF" stroke-width="1.5" stroke-linecap="square" stroke-miterlimit="10" x1="644.669" y1="127.873" x2="643.29" y2="130.234"/>
<path fill="none" stroke="#FFFFFF" stroke-width="1.5" stroke-linecap="square" stroke-miterlimit="10" d="M641.935-4.641
	l36.49,13.666c0.631,0.238,0.952,0.941,0.714,1.573l-8.854,23.642c-0.236,0.631-0.94,0.954-1.571,0.717l-33.462-12.534
	l-4.321-10.713l6.725-17.955"/>
<polyline fill="none" stroke="#FFFFFF" stroke-width="1.5" stroke-linecap="square" stroke-miterlimit="10" points="666.872,29.81 
	641.942,20.473 648.781,2.216 673.71,11.554 668.21,26.234 "/>
<line fill="none" stroke="#FFFFFF" stroke-width="1.5" stroke-linecap="square" stroke-miterlimit="10" x1="659.316" y1="24.096" x2="664.229" y2="10.974"/>
<line fill="none" stroke="#FFFFFF" stroke-width="1.5" stroke-linecap="square" stroke-miterlimit="10" x1="651.684" y1="21.237" x2="656.598" y2="8.115"/>
<line fill="none" stroke="#FFFFFF" stroke-width="1.5" stroke-linecap="square" stroke-miterlimit="10" x1="663.533" y1="21.656" x2="666.19" y2="22.652"/>
<line fill="none" stroke="#FFFFFF" stroke-width="1.5" stroke-linecap="square" stroke-miterlimit="10" x1="665.942" y1="15.221" x2="668.6" y2="16.216"/>
<line fill="none" stroke="#FFFFFF" stroke-width="1.5" stroke-linecap="square" stroke-miterlimit="10" x1="647.575" y1="15.597" x2="650.135" y2="16.556"/>
<line fill="none" stroke="#FFFFFF" stroke-width="1.5" stroke-linecap="square" stroke-miterlimit="10" x1="649.984" y1="9.164" x2="652.545" y2="10.121"/>
<path fill="none" stroke="#FFFFFF" stroke-width="1.5" stroke-linecap="square" stroke-miterlimit="10" d="M694.575,148.438
	l7.203-38.293c0.123-0.662,0.763-1.1,1.426-0.973l24.81,4.666c0.663,0.123,1.102,0.762,0.978,1.426l-6.604,35.115l-9.813,6.096
	l-18.842-3.545"/>
<polyline fill="none" stroke="#FFFFFF" stroke-width="1.5" stroke-linecap="square" stroke-miterlimit="10" points="
	724.234,117.961 719.315,144.121 700.155,140.518 705.076,114.357 720.484,117.256 "/>
<line fill="none" stroke="#FFFFFF" stroke-width="1.5" stroke-linecap="square" stroke-miterlimit="10" x1="719.902" y1="126.383" x2="706.131" y2="123.795"/>
<line fill="none" stroke="#FFFFFF" stroke-width="1.5" stroke-linecap="square" stroke-miterlimit="10" x1="718.396" y1="134.395" x2="704.626" y2="131.803"/>
<line fill="none" stroke="#FFFFFF" stroke-width="1.5" stroke-linecap="square" stroke-miterlimit="10" x1="716.776" y1="122.648" x2="717.299" y2="119.859"/>
<line fill="none" stroke="#FFFFFF" stroke-width="1.5" stroke-linecap="square" stroke-miterlimit="10" x1="710.023" y1="121.379" x2="710.547" y2="118.59"/>
<line fill="none" stroke="#FFFFFF" stroke-width="1.5" stroke-linecap="square" stroke-miterlimit="10" x1="713.544" y1="139.41" x2="714.051" y2="136.723"/>
<line fill="none" stroke="#FFFFFF" stroke-width="1.5" stroke-linecap="square" stroke-miterlimit="10" x1="706.793" y1="138.141" x2="707.299" y2="135.453"/>
<path fill="none" stroke="#FFFFFF" stroke-width="1.5" stroke-linecap="square" stroke-miterlimit="10" d="M725.579,30.405
	L723.467-8.5c-0.035-0.674,0.48-1.25,1.154-1.286l25.208-1.368c0.674-0.036,1.25,0.48,1.286,1.152l1.937,35.68l-8.081,8.253
	l-19.145,1.039"/>
<polyline fill="none" stroke="#FFFFFF" stroke-width="1.5" stroke-linecap="square" stroke-miterlimit="10" points="747.14,-6.251 
	748.581,20.33 729.115,21.385 727.674,-5.195 743.329,-6.045 "/>
<line fill="none" stroke="#FFFFFF" stroke-width="1.5" stroke-linecap="square" stroke-miterlimit="10" x1="744.934" y1="2.96" x2="730.943" y2="3.72"/>
<line fill="none" stroke="#FFFFFF" stroke-width="1.5" stroke-linecap="square" stroke-miterlimit="10" x1="745.375" y1="11.099" x2="731.384" y2="11.858"/>
<line fill="none" stroke="#FFFFFF" stroke-width="1.5" stroke-linecap="square" stroke-miterlimit="10" x1="741.008" y1="0.077" x2="740.854" y2="-2.757"/>
<line fill="none" stroke="#FFFFFF" stroke-width="1.5" stroke-linecap="square" stroke-miterlimit="10" x1="734.147" y1="0.448" x2="733.993" y2="-2.385"/>
<line fill="none" stroke="#FFFFFF" stroke-width="1.5" stroke-linecap="square" stroke-miterlimit="10" x1="741.857" y1="17.125" x2="741.709" y2="14.396"/>
<line fill="none" stroke="#FFFFFF" stroke-width="1.5" stroke-linecap="square" stroke-miterlimit="10" x1="734.996" y1="17.496" x2="734.848" y2="14.767"/>
<path fill="none" stroke="#FFFFFF" stroke-width="1.5" stroke-linecap="square" stroke-miterlimit="10" d="M829.778,119.771
	l5.512,38.571c0.096,0.669-0.369,1.285-1.036,1.384l-24.991,3.571c-0.668,0.095-1.288-0.368-1.383-1.034l-5.056-35.375l7.328-8.929
	l18.979-2.715"/>
<polyline fill="none" stroke="#FFFFFF" stroke-width="1.5" stroke-linecap="square" stroke-miterlimit="10" points="
	811.513,158.176 807.746,131.824 827.045,129.066 830.813,155.42 815.292,157.637 "/>
<line fill="none" stroke="#FFFFFF" stroke-width="1.5" stroke-linecap="square" stroke-miterlimit="10" x1="812.902" y1="148.807" x2="826.771" y2="146.824"/>
<line fill="none" stroke="#FFFFFF" stroke-width="1.5" stroke-linecap="square" stroke-miterlimit="10" x1="811.749" y1="140.738" x2="825.62" y2="138.756"/>
<line fill="none" stroke="#FFFFFF" stroke-width="1.5" stroke-linecap="square" stroke-miterlimit="10" x1="817.065" y1="151.338" x2="817.467" y2="154.146"/>
<line fill="none" stroke="#FFFFFF" stroke-width="1.5" stroke-linecap="square" stroke-miterlimit="10" x1="823.867" y1="150.363" x2="824.271" y2="153.172"/>
<line fill="none" stroke="#FFFFFF" stroke-width="1.5" stroke-linecap="square" stroke-miterlimit="10" x1="814.727" y1="134.428" x2="815.114" y2="137.135"/>
<line fill="none" stroke="#FFFFFF" stroke-width="1.5" stroke-linecap="square" stroke-miterlimit="10" x1="821.526" y1="133.455" x2="821.915" y2="136.162"/>
<path fill="none" stroke="#FFFFFF" stroke-width="1.5" stroke-linecap="square" stroke-miterlimit="10" d="M809.111,60.733
	l-38.677-4.732c-0.67-0.083-1.146-0.692-1.063-1.361l3.065-25.06c0.082-0.668,0.691-1.146,1.361-1.065l35.467,4.34l6.711,9.403
	l-2.328,19.03"/>
<polyline fill="none" stroke="#FFFFFF" stroke-width="1.5" stroke-linecap="square" stroke-miterlimit="10" points="776.795,33.087 
	803.219,36.32 800.85,55.672 774.428,52.438 776.331,36.876 "/>
<line fill="none" stroke="#FFFFFF" stroke-width="1.5" stroke-linecap="square" stroke-miterlimit="10" x1="785.479" y1="36.872" x2="783.778" y2="50.78"/>
<line fill="none" stroke="#FFFFFF" stroke-width="1.5" stroke-linecap="square" stroke-miterlimit="10" x1="793.569" y1="37.861" x2="791.866" y2="51.77"/>
<line fill="none" stroke="#FFFFFF" stroke-width="1.5" stroke-linecap="square" stroke-miterlimit="10" x1="781.952" y1="40.231" x2="779.136" y2="39.887"/>
<line fill="none" stroke="#FFFFFF" stroke-width="1.5" stroke-linecap="square" stroke-miterlimit="10" x1="781.117" y1="47.052" x2="778.301" y2="46.707"/>
<line fill="none" stroke="#FFFFFF" stroke-width="1.5" stroke-linecap="square" stroke-miterlimit="10" x1="798.886" y1="42.382" x2="796.173" y2="42.049"/>
<line fill="none" stroke="#FFFFFF" stroke-width="1.5" stroke-linecap="square" stroke-miterlimit="10" x1="798.051" y1="49.201" x2="795.338" y2="48.869"/>
<path fill="none" stroke="#FFFFFF" stroke-width="1.5" stroke-linecap="square" stroke-miterlimit="10" d="M879.029,72.174
	l-19.647,33.648c-0.34,0.582-1.088,0.777-1.67,0.439l-21.801-12.732c-0.583-0.34-0.781-1.088-0.44-1.67l18.019-30.857l11.29-2.443
	l16.557,9.667"/>
<polyline fill="none" stroke="#FFFFFF" stroke-width="1.5" stroke-linecap="square" stroke-miterlimit="10" points="840.854,90.916 
	854.278,67.927 871.111,77.759 857.689,100.746 844.15,92.838 "/>
<line fill="none" stroke="#FFFFFF" stroke-width="1.5" stroke-linecap="square" stroke-miterlimit="10" x1="847.766" y1="84.438" x2="859.865" y2="91.504"/>
<line fill="none" stroke="#FFFFFF" stroke-width="1.5" stroke-linecap="square" stroke-miterlimit="10" x1="851.876" y1="77.399" x2="863.976" y2="84.467"/>
<line fill="none" stroke="#FFFFFF" stroke-width="1.5" stroke-linecap="square" stroke-miterlimit="10" x1="849.457" y1="89.008" x2="848.025" y2="91.455"/>
<line fill="none" stroke="#FFFFFF" stroke-width="1.5" stroke-linecap="square" stroke-miterlimit="10" x1="855.39" y1="92.471" x2="853.958" y2="94.924"/>
<line fill="none" stroke="#FFFFFF" stroke-width="1.5" stroke-linecap="square" stroke-miterlimit="10" x1="858.13" y1="74.304" x2="856.751" y2="76.665"/>
<line fill="none" stroke="#FFFFFF" stroke-width="1.5" stroke-linecap="square" stroke-miterlimit="10" x1="864.063" y1="77.769" x2="862.685" y2="80.129"/>
<path fill="none" stroke="#FFFFFF" stroke-width="1.5" stroke-linecap="square" stroke-miterlimit="10" d="M887.643-4.641
	l36.49,13.666c0.631,0.238,0.952,0.941,0.715,1.573l-8.854,23.642c-0.236,0.631-0.939,0.954-1.571,0.717l-33.464-12.534
	l-4.32-10.713l6.726-17.955"/>
<polyline fill="none" stroke="#FFFFFF" stroke-width="1.5" stroke-linecap="square" stroke-miterlimit="10" points="912.578,29.81 
	887.65,20.473 894.489,2.216 919.417,11.554 913.918,26.234 "/>
<line fill="none" stroke="#FFFFFF" stroke-width="1.5" stroke-linecap="square" stroke-miterlimit="10" x1="905.024" y1="24.096" x2="909.938" y2="10.974"/>
<line fill="none" stroke="#FFFFFF" stroke-width="1.5" stroke-linecap="square" stroke-miterlimit="10" x1="897.392" y1="21.237" x2="902.307" y2="8.115"/>
<line fill="none" stroke="#FFFFFF" stroke-width="1.5" stroke-linecap="square" stroke-miterlimit="10" x1="909.241" y1="21.656" x2="911.897" y2="22.652"/>
<line fill="none" stroke="#FFFFFF" stroke-width="1.5" stroke-linecap="square" stroke-miterlimit="10" x1="911.651" y1="15.221" x2="914.308" y2="16.216"/>
<line fill="none" stroke="#FFFFFF" stroke-width="1.5" stroke-linecap="square" stroke-miterlimit="10" x1="893.282" y1="15.597" x2="895.843" y2="16.556"/>
<line fill="none" stroke="#FFFFFF" stroke-width="1.5" stroke-linecap="square" stroke-miterlimit="10" x1="895.694" y1="9.164" x2="898.253" y2="10.121"/>
<path fill="none" stroke="#FFFFFF" stroke-width="1.5" stroke-linecap="square" stroke-miterlimit="10" d="M913.969,116.938
	l7.202-38.292c0.123-0.661,0.763-1.099,1.426-0.973l24.811,4.667c0.664,0.123,1.101,0.763,0.977,1.427l-6.603,35.114l-9.813,6.097
	l-18.843-3.545"/>
<polyline fill="none" stroke="#FFFFFF" stroke-width="1.5" stroke-linecap="square" stroke-miterlimit="10" points="943.628,86.461 
	938.708,112.621 919.549,109.018 924.47,82.857 939.877,85.756 "/>
<line fill="none" stroke="#FFFFFF" stroke-width="1.5" stroke-linecap="square" stroke-miterlimit="10" x1="939.295" y1="94.883" x2="925.525" y2="92.295"/>
<line fill="none" stroke="#FFFFFF" stroke-width="1.5" stroke-linecap="square" stroke-miterlimit="10" x1="937.789" y1="102.895" x2="924.018" y2="100.303"/>
<line fill="none" stroke="#FFFFFF" stroke-width="1.5" stroke-linecap="square" stroke-miterlimit="10" x1="936.169" y1="91.148" x2="936.691" y2="88.359"/>
<line fill="none" stroke="#FFFFFF" stroke-width="1.5" stroke-linecap="square" stroke-miterlimit="10" x1="929.416" y1="89.879" x2="929.94" y2="87.09"/>
<line fill="none" stroke="#FFFFFF" stroke-width="1.5" stroke-linecap="square" stroke-miterlimit="10" x1="932.938" y1="107.91" x2="933.444" y2="105.223"/>
<line fill="none" stroke="#FFFFFF" stroke-width="1.5" stroke-linecap="square" stroke-miterlimit="10" x1="926.187" y1="106.641" x2="926.692" y2="103.953"/>
<path fill="none" stroke="#FFFFFF" stroke-width="1.5" stroke-linecap="square" stroke-miterlimit="10" d="M745.185,126.816
	l36.901-12.508c0.639-0.218,1.332,0.129,1.55,0.766l8.104,23.91c0.218,0.639-0.124,1.332-0.764,1.549l-33.842,11.471l-10.124-5.561
	l-6.153-18.158"/>
<polyline fill="none" stroke="#FFFFFF" stroke-width="1.5" stroke-linecap="square" stroke-miterlimit="10" points="
	786.294,137.715 761.081,146.258 754.824,127.795 780.035,119.25 785.067,134.1 "/>
<line fill="none" stroke="#FFFFFF" stroke-width="1.5" stroke-linecap="square" stroke-miterlimit="10" x1="776.826" y1="138.07" x2="772.329" y2="124.801"/>
<line fill="none" stroke="#FFFFFF" stroke-width="1.5" stroke-linecap="square" stroke-miterlimit="10" x1="769.108" y1="140.688" x2="764.611" y2="127.418"/>
<line fill="none" stroke="#FFFFFF" stroke-width="1.5" stroke-linecap="square" stroke-miterlimit="10" x1="778.549" y1="133.514" x2="781.235" y2="132.604"/>
<line fill="none" stroke="#FFFFFF" stroke-width="1.5" stroke-linecap="square" stroke-miterlimit="10" x1="776.341" y1="127.006" x2="779.03" y2="126.096"/>
<line fill="none" stroke="#FFFFFF" stroke-width="1.5" stroke-linecap="square" stroke-miterlimit="10" x1="762.357" y1="138.92" x2="764.947" y2="138.043"/>
<line fill="none" stroke="#FFFFFF" stroke-width="1.5" stroke-linecap="square" stroke-miterlimit="10" x1="760.153" y1="132.414" x2="762.74" y2="131.537"/>
</svg>
