<?xml version="1.0" encoding="utf-8"?>
<!-- Generator: Adobe Illustrator 16.0.0, SVG Export Plug-In . SVG Version: 6.00 Build 0)  -->
<!DOCTYPE svg PUBLIC "-//W3C//DTD SVG 1.1//EN" "http://www.w3.org/Graphics/SVG/1.1/DTD/svg11.dtd">
<svg version="1.1" id="Layer_1" xmlns="http://www.w3.org/2000/svg" xmlns:xlink="http://www.w3.org/1999/xlink" x="0px" y="0px"
	 width="1908.67px" height="240px" viewBox="0 0 1908.67 240" enable-background="new 0 0 1908.67 240" xml:space="preserve">
<rect fill="#56DAF3" width="1908.671" height="240"/>
<path fill="none" stroke="#FFFFFF" stroke-width="2" stroke-linecap="square" stroke-miterlimit="10" d="M515.874,179.948
	l63.469-21.514c1.099-0.371,2.292,0.217,2.664,1.315l13.938,41.123c0.373,1.099-0.217,2.293-1.314,2.666l-58.205,19.728
	l-17.414-9.564l-10.585-31.23"/>
<polyline fill="none" stroke="#FFFFFF" stroke-width="2" stroke-linecap="square" stroke-miterlimit="10" points="586.578,198.688 
	543.216,213.386 532.454,181.63 575.815,166.935 584.47,192.472 "/>
<line fill="none" stroke="#FFFFFF" stroke-width="2" stroke-linecap="square" stroke-miterlimit="10" x1="570.297" y1="199.302" x2="562.561" y2="176.478"/>
<line fill="none" stroke="#FFFFFF" stroke-width="2" stroke-linecap="square" stroke-miterlimit="10" x1="557.021" y1="203.802" x2="549.285" y2="180.978"/>
<line fill="none" stroke="#FFFFFF" stroke-width="2" stroke-linecap="square" stroke-miterlimit="10" x1="573.258" y1="191.464" x2="577.879" y2="189.897"/>
<line fill="none" stroke="#FFFFFF" stroke-width="2" stroke-linecap="square" stroke-miterlimit="10" x1="569.464" y1="180.271" x2="574.086" y2="178.704"/>
<line fill="none" stroke="#FFFFFF" stroke-width="2" stroke-linecap="square" stroke-miterlimit="10" x1="545.411" y1="200.763" x2="549.863" y2="199.254"/>
<line fill="none" stroke="#FFFFFF" stroke-width="2" stroke-linecap="square" stroke-miterlimit="10" x1="541.618" y1="189.571" x2="546.07" y2="188.062"/>
<path fill="none" stroke="#FFFFFF" stroke-width="2" stroke-linecap="square" stroke-miterlimit="10" d="M540.752,60.85
	L537.12-6.067c-0.063-1.157,0.826-2.148,1.983-2.211l43.357-2.353c1.159-0.063,2.15,0.825,2.214,1.982l3.33,61.367l-13.899,14.195
	L541.178,68.7"/>
<polyline fill="none" stroke="#FFFFFF" stroke-width="2" stroke-linecap="square" stroke-miterlimit="10" points="577.835,-2.198 
	580.316,43.519 546.835,45.335 544.355,-0.382 571.28,-1.842 "/>
<line fill="none" stroke="#FFFFFF" stroke-width="2" stroke-linecap="square" stroke-miterlimit="10" x1="574.042" y1="13.646" x2="549.979" y2="14.952"/>
<line fill="none" stroke="#FFFFFF" stroke-width="2" stroke-linecap="square" stroke-miterlimit="10" x1="574.802" y1="27.644" x2="550.738" y2="28.949"/>
<line fill="none" stroke="#FFFFFF" stroke-width="2" stroke-linecap="square" stroke-miterlimit="10" x1="567.291" y1="8.685" x2="567.027" y2="3.813"/>
<line fill="none" stroke="#FFFFFF" stroke-width="2" stroke-linecap="square" stroke-miterlimit="10" x1="555.49" y1="9.325" x2="555.226" y2="4.452"/>
<line fill="none" stroke="#FFFFFF" stroke-width="2" stroke-linecap="square" stroke-miterlimit="10" x1="568.75" y1="38.008" x2="568.496" y2="33.313"/>
<line fill="none" stroke="#FFFFFF" stroke-width="2" stroke-linecap="square" stroke-miterlimit="10" x1="556.951" y1="38.647" x2="556.695" y2="33.953"/>
<path fill="none" stroke="#FFFFFF" stroke-width="2" stroke-linecap="square" stroke-miterlimit="10" d="M703.054,233.186
	l9.482,66.342c0.164,1.147-0.634,2.213-1.783,2.378l-42.984,6.143c-1.147,0.164-2.214-0.634-2.379-1.78l-8.694-60.84l12.603-15.359
	l32.645-4.664"/>
<polyline fill="none" stroke="#FFFFFF" stroke-width="2" stroke-linecap="square" stroke-miterlimit="10" points="671.639,299.241 
	665.161,253.917 698.354,249.174 704.832,294.497 678.138,298.313 "/>
<line fill="none" stroke="#FFFFFF" stroke-width="2" stroke-linecap="square" stroke-miterlimit="10" x1="674.029" y1="283.125" x2="697.885" y2="279.715"/>
<line fill="none" stroke="#FFFFFF" stroke-width="2" stroke-linecap="square" stroke-miterlimit="10" x1="672.045" y1="269.248" x2="695.902" y2="265.839"/>
<line fill="none" stroke="#FFFFFF" stroke-width="2" stroke-linecap="square" stroke-miterlimit="10" x1="681.189" y1="287.477" x2="681.879" y2="292.307"/>
<line fill="none" stroke="#FFFFFF" stroke-width="2" stroke-linecap="square" stroke-miterlimit="10" x1="692.889" y1="285.805" x2="693.579" y2="290.635"/>
<line fill="none" stroke="#FFFFFF" stroke-width="2" stroke-linecap="square" stroke-miterlimit="10" x1="677.166" y1="258.395" x2="677.831" y2="263.048"/>
<line fill="none" stroke="#FFFFFF" stroke-width="2" stroke-linecap="square" stroke-miterlimit="10" x1="688.864" y1="256.723" x2="689.53" y2="261.376"/>
<path fill="none" stroke="#FFFFFF" stroke-width="2" stroke-linecap="square" stroke-miterlimit="10" d="M684.423,95.011
	l-66.52-8.14c-1.151-0.142-1.972-1.189-1.83-2.341l5.274-43.1c0.142-1.151,1.188-1.973,2.34-1.833l61.003,7.466l11.542,16.171
	l-4.007,32.731"/>
<polyline fill="none" stroke="#FFFFFF" stroke-width="2" stroke-linecap="square" stroke-miterlimit="10" points="628.841,47.463 
	674.287,53.024 670.213,86.306 624.768,80.744 628.044,53.979 "/>
<line fill="none" stroke="#FFFFFF" stroke-width="2" stroke-linecap="square" stroke-miterlimit="10" x1="643.777" y1="53.971" x2="640.85" y2="77.891"/>
<line fill="none" stroke="#FFFFFF" stroke-width="2" stroke-linecap="square" stroke-miterlimit="10" x1="657.691" y1="55.673" x2="654.764" y2="79.594"/>
<line fill="none" stroke="#FFFFFF" stroke-width="2" stroke-linecap="square" stroke-miterlimit="10" x1="637.71" y1="59.749" x2="632.867" y2="59.156"/>
<line fill="none" stroke="#FFFFFF" stroke-width="2" stroke-linecap="square" stroke-miterlimit="10" x1="636.274" y1="71.481" x2="631.431" y2="70.887"/>
<line fill="none" stroke="#FFFFFF" stroke-width="2" stroke-linecap="square" stroke-miterlimit="10" x1="666.835" y1="63.447" x2="662.168" y2="62.875"/>
<line fill="none" stroke="#FFFFFF" stroke-width="2" stroke-linecap="square" stroke-miterlimit="10" x1="665.399" y1="75.176" x2="660.733" y2="74.606"/>
<path fill="none" stroke="#FFFFFF" stroke-width="2" stroke-linecap="square" stroke-miterlimit="10" d="M798.282,187.188
	l-33.793,57.873c-0.584,1-1.872,1.338-2.874,0.754l-37.496-21.896c-1.002-0.585-1.341-1.872-0.757-2.874l30.991-53.07l19.418-4.203
	l28.476,16.629"/>
<polyline fill="none" stroke="#FFFFFF" stroke-width="2" stroke-linecap="square" stroke-miterlimit="10" points="732.623,219.424 
	755.71,179.887 784.665,196.796 761.577,236.332 738.292,222.734 "/>
<line fill="none" stroke="#FFFFFF" stroke-width="2" stroke-linecap="square" stroke-miterlimit="10" x1="744.509" y1="208.281" x2="765.32" y2="220.434"/>
<line fill="none" stroke="#FFFFFF" stroke-width="2" stroke-linecap="square" stroke-miterlimit="10" x1="751.578" y1="196.176" x2="772.389" y2="208.329"/>
<line fill="none" stroke="#FFFFFF" stroke-width="2" stroke-linecap="square" stroke-miterlimit="10" x1="747.416" y1="216.141" x2="744.955" y2="220.354"/>
<line fill="none" stroke="#FFFFFF" stroke-width="2" stroke-linecap="square" stroke-miterlimit="10" x1="757.622" y1="222.1" x2="755.161" y2="226.313"/>
<line fill="none" stroke="#FFFFFF" stroke-width="2" stroke-linecap="square" stroke-miterlimit="10" x1="762.334" y1="190.854" x2="759.963" y2="194.913"/>
<line fill="none" stroke="#FFFFFF" stroke-width="2" stroke-linecap="square" stroke-miterlimit="10" x1="772.539" y1="196.813" x2="770.169" y2="200.873"/>
<path fill="none" stroke="#FFFFFF" stroke-width="2" stroke-linecap="square" stroke-miterlimit="10" d="M819.492,0.572
	l62.758,23.505c1.085,0.407,1.637,1.618,1.23,2.705l-15.23,40.662c-0.407,1.086-1.618,1.639-2.705,1.232L807.993,47.12
	l-7.432-18.426l11.566-30.88"/>
<polyline fill="none" stroke="#FFFFFF" stroke-width="2" stroke-linecap="square" stroke-miterlimit="10" points="862.38,59.824 
	819.504,43.766 831.266,12.366 874.141,28.426 864.682,53.677 "/>
<line fill="none" stroke="#FFFFFF" stroke-width="2" stroke-linecap="square" stroke-miterlimit="10" x1="849.385" y1="49.997" x2="857.838" y2="27.429"/>
<line fill="none" stroke="#FFFFFF" stroke-width="2" stroke-linecap="square" stroke-miterlimit="10" x1="836.258" y1="45.08" x2="844.711" y2="22.512"/>
<line fill="none" stroke="#FFFFFF" stroke-width="2" stroke-linecap="square" stroke-miterlimit="10" x1="856.638" y1="45.802" x2="861.208" y2="47.513"/>
<line fill="none" stroke="#FFFFFF" stroke-width="2" stroke-linecap="square" stroke-miterlimit="10" x1="860.783" y1="34.733" x2="865.354" y2="36.445"/>
<line fill="none" stroke="#FFFFFF" stroke-width="2" stroke-linecap="square" stroke-miterlimit="10" x1="829.191" y1="35.38" x2="833.593" y2="37.029"/>
<line fill="none" stroke="#FFFFFF" stroke-width="2" stroke-linecap="square" stroke-miterlimit="10" x1="833.336" y1="24.314" x2="837.739" y2="25.962"/>
<path fill="none" stroke="#FFFFFF" stroke-width="2" stroke-linecap="square" stroke-miterlimit="10" d="M875.287,245.548
	l12.386-65.86c0.214-1.141,1.313-1.892,2.453-1.676l42.672,8.024c1.14,0.214,1.894,1.313,1.679,2.453l-11.358,60.397l-16.877,10.481
	l-32.407-6.095"/>
<polyline fill="none" stroke="#FFFFFF" stroke-width="2" stroke-linecap="square" stroke-miterlimit="10" points="926.299,193.127 
	917.837,238.122 884.885,231.925 893.348,186.93 919.848,191.914 "/>
<line fill="none" stroke="#FFFFFF" stroke-width="2" stroke-linecap="square" stroke-miterlimit="10" x1="918.848" y1="207.615" x2="895.164" y2="203.161"/>
<line fill="none" stroke="#FFFFFF" stroke-width="2" stroke-linecap="square" stroke-miterlimit="10" x1="916.257" y1="221.393" x2="892.573" y2="216.938"/>
<line fill="none" stroke="#FFFFFF" stroke-width="2" stroke-linecap="square" stroke-miterlimit="10" x1="913.47" y1="201.189" x2="914.372" y2="196.395"/>
<line fill="none" stroke="#FFFFFF" stroke-width="2" stroke-linecap="square" stroke-miterlimit="10" x1="901.854" y1="199.006" x2="902.757" y2="194.21"/>
<line fill="none" stroke="#FFFFFF" stroke-width="2" stroke-linecap="square" stroke-miterlimit="10" x1="907.914" y1="230.02" x2="908.783" y2="225.398"/>
<line fill="none" stroke="#FFFFFF" stroke-width="2" stroke-linecap="square" stroke-miterlimit="10" x1="896.301" y1="227.834" x2="897.169" y2="223.214"/>
<path fill="none" stroke="#FFFFFF" stroke-width="2" stroke-linecap="square" stroke-miterlimit="10" d="M89.874,163.449
	l63.469-21.514c1.098-0.371,2.292,0.217,2.664,1.315l13.938,41.123c0.373,1.099-0.216,2.293-1.314,2.666l-58.205,19.728
	l-17.414-9.564l-10.585-31.23"/>
<polyline fill="none" stroke="#FFFFFF" stroke-width="2" stroke-linecap="square" stroke-miterlimit="10" points="160.578,182.189 
	117.216,196.887 106.454,165.131 149.815,150.436 158.47,175.973 "/>
<line fill="none" stroke="#FFFFFF" stroke-width="2" stroke-linecap="square" stroke-miterlimit="10" x1="144.297" y1="182.803" x2="136.561" y2="159.979"/>
<line fill="none" stroke="#FFFFFF" stroke-width="2" stroke-linecap="square" stroke-miterlimit="10" x1="131.021" y1="187.303" x2="123.285" y2="164.479"/>
<line fill="none" stroke="#FFFFFF" stroke-width="2" stroke-linecap="square" stroke-miterlimit="10" x1="147.258" y1="174.965" x2="151.879" y2="173.398"/>
<line fill="none" stroke="#FFFFFF" stroke-width="2" stroke-linecap="square" stroke-miterlimit="10" x1="143.464" y1="163.771" x2="148.086" y2="162.205"/>
<line fill="none" stroke="#FFFFFF" stroke-width="2" stroke-linecap="square" stroke-miterlimit="10" x1="119.411" y1="184.264" x2="123.863" y2="182.755"/>
<line fill="none" stroke="#FFFFFF" stroke-width="2" stroke-linecap="square" stroke-miterlimit="10" x1="115.618" y1="173.072" x2="120.07" y2="171.563"/>
<path fill="none" stroke="#FFFFFF" stroke-width="2" stroke-linecap="square" stroke-miterlimit="10" d="M114.752,60.85
	L111.12-6.067c-0.063-1.157,0.826-2.148,1.984-2.211l43.357-2.353c1.159-0.063,2.15,0.825,2.214,1.982l3.33,61.367l-13.9,14.195
	L115.178,68.7"/>
<polyline fill="none" stroke="#FFFFFF" stroke-width="2" stroke-linecap="square" stroke-miterlimit="10" points="151.835,-2.198 
	154.316,43.519 120.835,45.335 118.355,-0.382 145.28,-1.842 "/>
<line fill="none" stroke="#FFFFFF" stroke-width="2" stroke-linecap="square" stroke-miterlimit="10" x1="148.042" y1="13.646" x2="123.979" y2="14.952"/>
<line fill="none" stroke="#FFFFFF" stroke-width="2" stroke-linecap="square" stroke-miterlimit="10" x1="148.802" y1="27.644" x2="124.738" y2="28.949"/>
<line fill="none" stroke="#FFFFFF" stroke-width="2" stroke-linecap="square" stroke-miterlimit="10" x1="141.291" y1="8.685" x2="141.027" y2="3.813"/>
<line fill="none" stroke="#FFFFFF" stroke-width="2" stroke-linecap="square" stroke-miterlimit="10" x1="129.49" y1="9.325" x2="129.226" y2="4.452"/>
<line fill="none" stroke="#FFFFFF" stroke-width="2" stroke-linecap="square" stroke-miterlimit="10" x1="142.75" y1="38.008" x2="142.496" y2="33.313"/>
<line fill="none" stroke="#FFFFFF" stroke-width="2" stroke-linecap="square" stroke-miterlimit="10" x1="130.951" y1="38.647" x2="130.695" y2="33.953"/>
<path fill="none" stroke="#FFFFFF" stroke-width="2" stroke-linecap="square" stroke-miterlimit="10" d="M293.968,214.552
	l9.482,66.343c0.164,1.146-0.634,2.211-1.783,2.377l-42.984,6.143c-1.148,0.164-2.214-0.634-2.379-1.781l-8.695-60.839
	l12.603-15.358l32.644-4.666"/>
<polyline fill="none" stroke="#FFFFFF" stroke-width="2" stroke-linecap="square" stroke-miterlimit="10" points="262.553,280.607 
	256.075,235.283 289.268,230.54 295.745,275.863 269.051,279.678 "/>
<line fill="none" stroke="#FFFFFF" stroke-width="2" stroke-linecap="square" stroke-miterlimit="10" x1="264.942" y1="264.491" x2="288.798" y2="261.081"/>
<line fill="none" stroke="#FFFFFF" stroke-width="2" stroke-linecap="square" stroke-miterlimit="10" x1="262.958" y1="250.613" x2="286.816" y2="247.205"/>
<line fill="none" stroke="#FFFFFF" stroke-width="2" stroke-linecap="square" stroke-miterlimit="10" x1="272.103" y1="268.842" x2="272.793" y2="273.673"/>
<line fill="none" stroke="#FFFFFF" stroke-width="2" stroke-linecap="square" stroke-miterlimit="10" x1="283.802" y1="267.17" x2="284.493" y2="272.001"/>
<line fill="none" stroke="#FFFFFF" stroke-width="2" stroke-linecap="square" stroke-miterlimit="10" x1="268.08" y1="239.76" x2="268.745" y2="244.414"/>
<line fill="none" stroke="#FFFFFF" stroke-width="2" stroke-linecap="square" stroke-miterlimit="10" x1="279.777" y1="238.089" x2="280.443" y2="242.742"/>
<path fill="none" stroke="#FFFFFF" stroke-width="2" stroke-linecap="square" stroke-miterlimit="10" d="M258.423,113.011
	l-66.52-8.14c-1.151-0.142-1.971-1.189-1.83-2.341l5.275-43.1c0.141-1.151,1.188-1.973,2.34-1.833l61.002,7.466l11.542,16.171
	l-4.006,32.731"/>
<polyline fill="none" stroke="#FFFFFF" stroke-width="2" stroke-linecap="square" stroke-miterlimit="10" points="202.841,65.463 
	248.287,71.024 244.213,104.306 198.768,98.744 202.044,71.979 "/>
<line fill="none" stroke="#FFFFFF" stroke-width="2" stroke-linecap="square" stroke-miterlimit="10" x1="217.777" y1="71.971" x2="214.85" y2="95.891"/>
<line fill="none" stroke="#FFFFFF" stroke-width="2" stroke-linecap="square" stroke-miterlimit="10" x1="231.691" y1="73.673" x2="228.764" y2="97.594"/>
<line fill="none" stroke="#FFFFFF" stroke-width="2" stroke-linecap="square" stroke-miterlimit="10" x1="211.71" y1="77.749" x2="206.867" y2="77.156"/>
<line fill="none" stroke="#FFFFFF" stroke-width="2" stroke-linecap="square" stroke-miterlimit="10" x1="210.274" y1="89.481" x2="205.431" y2="88.887"/>
<line fill="none" stroke="#FFFFFF" stroke-width="2" stroke-linecap="square" stroke-miterlimit="10" x1="240.835" y1="81.447" x2="236.168" y2="80.875"/>
<line fill="none" stroke="#FFFFFF" stroke-width="2" stroke-linecap="square" stroke-miterlimit="10" x1="239.399" y1="93.176" x2="234.733" y2="92.606"/>
<path fill="none" stroke="#FFFFFF" stroke-width="2" stroke-linecap="square" stroke-miterlimit="10" d="M378.678,132.688
	l-33.793,57.871c-0.584,1.002-1.872,1.34-2.874,0.756l-37.496-21.896c-1.002-0.585-1.341-1.872-0.757-2.874l30.991-53.07
	l19.418-4.203l28.476,16.627"/>
<polyline fill="none" stroke="#FFFFFF" stroke-width="2" stroke-linecap="square" stroke-miterlimit="10" points="313.019,164.922 
	336.106,125.385 365.061,142.294 341.973,181.83 318.688,168.232 "/>
<line fill="none" stroke="#FFFFFF" stroke-width="2" stroke-linecap="square" stroke-miterlimit="10" x1="324.905" y1="153.779" x2="345.715" y2="165.932"/>
<line fill="none" stroke="#FFFFFF" stroke-width="2" stroke-linecap="square" stroke-miterlimit="10" x1="331.973" y1="141.674" x2="352.784" y2="153.827"/>
<line fill="none" stroke="#FFFFFF" stroke-width="2" stroke-linecap="square" stroke-miterlimit="10" x1="327.813" y1="161.639" x2="325.351" y2="165.852"/>
<line fill="none" stroke="#FFFFFF" stroke-width="2" stroke-linecap="square" stroke-miterlimit="10" x1="338.018" y1="167.598" x2="335.557" y2="171.813"/>
<line fill="none" stroke="#FFFFFF" stroke-width="2" stroke-linecap="square" stroke-miterlimit="10" x1="342.73" y1="136.352" x2="340.359" y2="140.411"/>
<line fill="none" stroke="#FFFFFF" stroke-width="2" stroke-linecap="square" stroke-miterlimit="10" x1="352.934" y1="142.311" x2="350.564" y2="146.371"/>
<path fill="none" stroke="#FFFFFF" stroke-width="2" stroke-linecap="square" stroke-miterlimit="10" d="M393.492,0.572
	l62.758,23.505c1.085,0.407,1.637,1.618,1.23,2.705l-15.23,40.662c-0.407,1.086-1.618,1.639-2.705,1.232L381.993,47.12
	l-7.431-18.426l11.565-30.88"/>
<polyline fill="none" stroke="#FFFFFF" stroke-width="2" stroke-linecap="square" stroke-miterlimit="10" points="436.38,59.824 
	393.504,43.766 405.266,12.366 448.141,28.426 438.682,53.677 "/>
<line fill="none" stroke="#FFFFFF" stroke-width="2" stroke-linecap="square" stroke-miterlimit="10" x1="423.385" y1="49.997" x2="431.838" y2="27.429"/>
<line fill="none" stroke="#FFFFFF" stroke-width="2" stroke-linecap="square" stroke-miterlimit="10" x1="410.258" y1="45.08" x2="418.711" y2="22.512"/>
<line fill="none" stroke="#FFFFFF" stroke-width="2" stroke-linecap="square" stroke-miterlimit="10" x1="430.638" y1="45.802" x2="435.208" y2="47.513"/>
<line fill="none" stroke="#FFFFFF" stroke-width="2" stroke-linecap="square" stroke-miterlimit="10" x1="434.783" y1="34.733" x2="439.354" y2="36.445"/>
<line fill="none" stroke="#FFFFFF" stroke-width="2" stroke-linecap="square" stroke-miterlimit="10" x1="403.191" y1="35.38" x2="407.593" y2="37.029"/>
<line fill="none" stroke="#FFFFFF" stroke-width="2" stroke-linecap="square" stroke-miterlimit="10" x1="407.336" y1="24.314" x2="411.739" y2="25.962"/>
<path fill="none" stroke="#FFFFFF" stroke-width="2" stroke-linecap="square" stroke-miterlimit="10" d="M438.769,226.179
	l12.387-65.861c0.214-1.139,1.313-1.891,2.453-1.676l42.672,8.025c1.14,0.214,1.893,1.313,1.679,2.453L486.6,229.519L469.723,240
	l-32.406-6.095"/>
<polyline fill="none" stroke="#FFFFFF" stroke-width="2" stroke-linecap="square" stroke-miterlimit="10" points="489.781,173.758 
	481.319,218.753 448.367,212.556 456.83,167.562 483.33,172.545 "/>
<line fill="none" stroke="#FFFFFF" stroke-width="2" stroke-linecap="square" stroke-miterlimit="10" x1="482.33" y1="188.246" x2="458.646" y2="183.792"/>
<line fill="none" stroke="#FFFFFF" stroke-width="2" stroke-linecap="square" stroke-miterlimit="10" x1="479.739" y1="202.022" x2="456.055" y2="197.567"/>
<line fill="none" stroke="#FFFFFF" stroke-width="2" stroke-linecap="square" stroke-miterlimit="10" x1="476.952" y1="181.821" x2="477.854" y2="177.024"/>
<line fill="none" stroke="#FFFFFF" stroke-width="2" stroke-linecap="square" stroke-miterlimit="10" x1="465.336" y1="179.638" x2="466.239" y2="174.841"/>
<line fill="none" stroke="#FFFFFF" stroke-width="2" stroke-linecap="square" stroke-miterlimit="10" x1="471.396" y1="210.649" x2="472.265" y2="206.028"/>
<line fill="none" stroke="#FFFFFF" stroke-width="2" stroke-linecap="square" stroke-miterlimit="10" x1="459.783" y1="208.465" x2="460.651" y2="203.845"/>
<path fill="none" stroke="#FFFFFF" stroke-width="2" stroke-linecap="square" stroke-miterlimit="10" d="M-28.631,0.572
	l62.758,23.505c1.085,0.407,1.637,1.618,1.23,2.705l-15.23,40.662c-0.407,1.086-1.618,1.639-2.705,1.232L-40.129,47.12
	l-7.431-18.426l11.566-30.88"/>
<polyline fill="none" stroke="#FFFFFF" stroke-width="2" stroke-linecap="square" stroke-miterlimit="10" points="14.257,59.824 
	-28.619,43.766 -16.857,12.366 26.018,28.426 16.56,53.677 "/>
<line fill="none" stroke="#FFFFFF" stroke-width="2" stroke-linecap="square" stroke-miterlimit="10" x1="1.263" y1="49.997" x2="9.715" y2="27.429"/>
<line fill="none" stroke="#FFFFFF" stroke-width="2" stroke-linecap="square" stroke-miterlimit="10" x1="-11.865" y1="45.08" x2="-3.412" y2="22.512"/>
<line fill="none" stroke="#FFFFFF" stroke-width="2" stroke-linecap="square" stroke-miterlimit="10" x1="8.515" y1="45.802" x2="13.085" y2="47.513"/>
<line fill="none" stroke="#FFFFFF" stroke-width="2" stroke-linecap="square" stroke-miterlimit="10" x1="12.661" y1="34.733" x2="17.231" y2="36.445"/>
<line fill="none" stroke="#FFFFFF" stroke-width="2" stroke-linecap="square" stroke-miterlimit="10" x1="-18.932" y1="35.38" x2="-14.529" y2="37.029"/>
<line fill="none" stroke="#FFFFFF" stroke-width="2" stroke-linecap="square" stroke-miterlimit="10" x1="-14.787" y1="24.314" x2="-10.384" y2="25.962"/>
<path fill="none" stroke="#FFFFFF" stroke-width="2" stroke-linecap="square" stroke-miterlimit="10" d="M16.646,209.68
	l12.386-65.861c0.214-1.139,1.313-1.891,2.453-1.676l42.672,8.025c1.14,0.214,1.893,1.313,1.679,2.453l-11.359,60.396L47.6,223.501
	l-32.407-6.095"/>
<polyline fill="none" stroke="#FFFFFF" stroke-width="2" stroke-linecap="square" stroke-miterlimit="10" points="67.659,157.259 
	59.197,202.254 26.244,196.057 34.707,151.063 61.208,156.046 "/>
<line fill="none" stroke="#FFFFFF" stroke-width="2" stroke-linecap="square" stroke-miterlimit="10" x1="60.207" y1="171.747" x2="36.523" y2="167.293"/>
<line fill="none" stroke="#FFFFFF" stroke-width="2" stroke-linecap="square" stroke-miterlimit="10" x1="57.616" y1="185.523" x2="33.932" y2="181.068"/>
<line fill="none" stroke="#FFFFFF" stroke-width="2" stroke-linecap="square" stroke-miterlimit="10" x1="54.829" y1="165.322" x2="55.731" y2="160.525"/>
<line fill="none" stroke="#FFFFFF" stroke-width="2" stroke-linecap="square" stroke-miterlimit="10" x1="43.214" y1="163.139" x2="44.116" y2="158.342"/>
<line fill="none" stroke="#FFFFFF" stroke-width="2" stroke-linecap="square" stroke-miterlimit="10" x1="49.273" y1="194.15" x2="50.142" y2="189.529"/>
<line fill="none" stroke="#FFFFFF" stroke-width="2" stroke-linecap="square" stroke-miterlimit="10" x1="37.66" y1="191.966" x2="38.528" y2="187.346"/>
<path fill="none" stroke="#FFFFFF" stroke-width="2" stroke-linecap="square" stroke-miterlimit="10" d="M951.393,199.316
	l63.469-21.512c1.098-0.373,2.291,0.217,2.664,1.314l13.938,41.123c0.373,1.099-0.215,2.293-1.313,2.666l-58.205,19.729
	l-17.414-9.566l-10.584-31.229"/>
<polyline fill="none" stroke="#FFFFFF" stroke-width="2" stroke-linecap="square" stroke-miterlimit="10" points="1022.096,218.059 
	978.734,232.755 967.973,200.999 1011.334,186.303 1019.988,211.841 "/>
<line fill="none" stroke="#FFFFFF" stroke-width="2" stroke-linecap="square" stroke-miterlimit="10" x1="1005.816" y1="218.671" x2="998.08" y2="195.848"/>
<line fill="none" stroke="#FFFFFF" stroke-width="2" stroke-linecap="square" stroke-miterlimit="10" x1="992.539" y1="223.171" x2="984.805" y2="200.348"/>
<line fill="none" stroke="#FFFFFF" stroke-width="2" stroke-linecap="square" stroke-miterlimit="10" x1="1008.777" y1="210.833" x2="1013.398" y2="209.268"/>
<line fill="none" stroke="#FFFFFF" stroke-width="2" stroke-linecap="square" stroke-miterlimit="10" x1="1004.982" y1="199.641" x2="1009.605" y2="198.073"/>
<line fill="none" stroke="#FFFFFF" stroke-width="2" stroke-linecap="square" stroke-miterlimit="10" x1="980.93" y1="220.132" x2="985.383" y2="218.623"/>
<line fill="none" stroke="#FFFFFF" stroke-width="2" stroke-linecap="square" stroke-miterlimit="10" x1="977.137" y1="208.939" x2="981.588" y2="207.432"/>
<path fill="none" stroke="#FFFFFF" stroke-width="2" stroke-linecap="square" stroke-miterlimit="10" d="M965.754,60.85
	l-3.633-66.917c-0.063-1.157,0.826-2.148,1.984-2.211l43.356-2.353c1.158-0.063,2.15,0.825,2.213,1.982l3.33,61.367l-13.899,14.195
	L966.178,68.7"/>
<polyline fill="none" stroke="#FFFFFF" stroke-width="2" stroke-linecap="square" stroke-miterlimit="10" points="1002.836,-2.198 
	1005.317,43.519 971.836,45.335 969.355,-0.382 996.281,-1.842 "/>
<line fill="none" stroke="#FFFFFF" stroke-width="2" stroke-linecap="square" stroke-miterlimit="10" x1="999.043" y1="13.646" x2="974.98" y2="14.952"/>
<line fill="none" stroke="#FFFFFF" stroke-width="2" stroke-linecap="square" stroke-miterlimit="10" x1="999.803" y1="27.644" x2="975.739" y2="28.949"/>
<line fill="none" stroke="#FFFFFF" stroke-width="2" stroke-linecap="square" stroke-miterlimit="10" x1="992.292" y1="8.685" x2="992.027" y2="3.813"/>
<line fill="none" stroke="#FFFFFF" stroke-width="2" stroke-linecap="square" stroke-miterlimit="10" x1="980.49" y1="9.325" x2="980.227" y2="4.452"/>
<line fill="none" stroke="#FFFFFF" stroke-width="2" stroke-linecap="square" stroke-miterlimit="10" x1="993.751" y1="38.008" x2="993.496" y2="33.313"/>
<line fill="none" stroke="#FFFFFF" stroke-width="2" stroke-linecap="square" stroke-miterlimit="10" x1="981.951" y1="38.647" x2="981.696" y2="33.953"/>
<path fill="none" stroke="#FFFFFF" stroke-width="2" stroke-linecap="square" stroke-miterlimit="10" d="M1144.969,214.552
	l9.482,66.343c0.164,1.146-0.635,2.211-1.783,2.377l-42.984,6.143c-1.147,0.164-2.214-0.634-2.379-1.781l-8.693-60.839
	l12.603-15.358l32.645-4.666"/>
<polyline fill="none" stroke="#FFFFFF" stroke-width="2" stroke-linecap="square" stroke-miterlimit="10" points="1113.554,280.607 
	1107.076,235.283 1140.27,230.54 1146.746,275.863 1120.053,279.678 "/>
<line fill="none" stroke="#FFFFFF" stroke-width="2" stroke-linecap="square" stroke-miterlimit="10" x1="1115.943" y1="264.491" x2="1139.799" y2="261.081"/>
<line fill="none" stroke="#FFFFFF" stroke-width="2" stroke-linecap="square" stroke-miterlimit="10" x1="1113.959" y1="250.613" x2="1137.816" y2="247.205"/>
<line fill="none" stroke="#FFFFFF" stroke-width="2" stroke-linecap="square" stroke-miterlimit="10" x1="1123.104" y1="268.842" x2="1123.794" y2="273.673"/>
<line fill="none" stroke="#FFFFFF" stroke-width="2" stroke-linecap="square" stroke-miterlimit="10" x1="1134.803" y1="267.17" x2="1135.494" y2="272.001"/>
<line fill="none" stroke="#FFFFFF" stroke-width="2" stroke-linecap="square" stroke-miterlimit="10" x1="1119.08" y1="239.76" x2="1119.746" y2="244.414"/>
<line fill="none" stroke="#FFFFFF" stroke-width="2" stroke-linecap="square" stroke-miterlimit="10" x1="1130.778" y1="238.089" x2="1131.444" y2="242.742"/>
<path fill="none" stroke="#FFFFFF" stroke-width="2" stroke-linecap="square" stroke-miterlimit="10" d="M1135.354,91.018
	l-66.52-8.14c-1.15-0.142-1.971-1.189-1.83-2.341l5.275-43.1c0.141-1.151,1.188-1.973,2.34-1.833l61.002,7.466l11.543,16.171
	l-4.006,32.731"/>
<polyline fill="none" stroke="#FFFFFF" stroke-width="2" stroke-linecap="square" stroke-miterlimit="10" points="1079.771,43.469 
	1125.217,49.03 1121.145,82.313 1075.699,76.75 1078.975,49.985 "/>
<line fill="none" stroke="#FFFFFF" stroke-width="2" stroke-linecap="square" stroke-miterlimit="10" x1="1094.708" y1="49.977" x2="1091.781" y2="73.897"/>
<line fill="none" stroke="#FFFFFF" stroke-width="2" stroke-linecap="square" stroke-miterlimit="10" x1="1108.622" y1="51.68" x2="1105.694" y2="75.601"/>
<line fill="none" stroke="#FFFFFF" stroke-width="2" stroke-linecap="square" stroke-miterlimit="10" x1="1088.641" y1="55.755" x2="1083.797" y2="55.163"/>
<line fill="none" stroke="#FFFFFF" stroke-width="2" stroke-linecap="square" stroke-miterlimit="10" x1="1087.205" y1="67.487" x2="1082.361" y2="66.894"/>
<line fill="none" stroke="#FFFFFF" stroke-width="2" stroke-linecap="square" stroke-miterlimit="10" x1="1117.766" y1="59.453" x2="1113.1" y2="58.882"/>
<line fill="none" stroke="#FFFFFF" stroke-width="2" stroke-linecap="square" stroke-miterlimit="10" x1="1116.33" y1="71.183" x2="1111.664" y2="70.612"/>
<path fill="none" stroke="#FFFFFF" stroke-width="2" stroke-linecap="square" stroke-miterlimit="10" d="M1229.679,164.688
	l-33.794,57.871c-0.584,1.002-1.871,1.34-2.873,0.756l-37.496-21.896c-1.002-0.585-1.341-1.872-0.757-2.874l30.991-53.069
	l19.418-4.203l28.476,16.627"/>
<polyline fill="none" stroke="#FFFFFF" stroke-width="2" stroke-linecap="square" stroke-miterlimit="10" points="1164.02,196.922 
	1187.107,157.385 1216.063,174.294 1192.974,213.83 1169.688,200.232 "/>
<line fill="none" stroke="#FFFFFF" stroke-width="2" stroke-linecap="square" stroke-miterlimit="10" x1="1175.906" y1="185.779" x2="1196.717" y2="197.932"/>
<line fill="none" stroke="#FFFFFF" stroke-width="2" stroke-linecap="square" stroke-miterlimit="10" x1="1182.975" y1="173.674" x2="1203.785" y2="185.827"/>
<line fill="none" stroke="#FFFFFF" stroke-width="2" stroke-linecap="square" stroke-miterlimit="10" x1="1178.813" y1="193.639" x2="1176.352" y2="197.852"/>
<line fill="none" stroke="#FFFFFF" stroke-width="2" stroke-linecap="square" stroke-miterlimit="10" x1="1189.02" y1="199.598" x2="1186.558" y2="203.813"/>
<line fill="none" stroke="#FFFFFF" stroke-width="2" stroke-linecap="square" stroke-miterlimit="10" x1="1193.73" y1="168.352" x2="1191.359" y2="172.411"/>
<line fill="none" stroke="#FFFFFF" stroke-width="2" stroke-linecap="square" stroke-miterlimit="10" x1="1203.936" y1="174.311" x2="1201.564" y2="178.371"/>
<path fill="none" stroke="#FFFFFF" stroke-width="2" stroke-linecap="square" stroke-miterlimit="10" d="M1244.492,0.572
	l62.759,23.505c1.085,0.407,1.637,1.618,1.229,2.705l-15.229,40.662c-0.407,1.086-1.618,1.639-2.704,1.232l-57.553-21.557
	l-7.432-18.426l11.566-30.88"/>
<polyline fill="none" stroke="#FFFFFF" stroke-width="2" stroke-linecap="square" stroke-miterlimit="10" points="1287.381,59.824 
	1244.505,43.766 1256.267,12.366 1299.142,28.426 1289.684,53.677 "/>
<line fill="none" stroke="#FFFFFF" stroke-width="2" stroke-linecap="square" stroke-miterlimit="10" x1="1274.387" y1="49.997" x2="1282.839" y2="27.429"/>
<line fill="none" stroke="#FFFFFF" stroke-width="2" stroke-linecap="square" stroke-miterlimit="10" x1="1261.259" y1="45.08" x2="1269.712" y2="22.512"/>
<line fill="none" stroke="#FFFFFF" stroke-width="2" stroke-linecap="square" stroke-miterlimit="10" x1="1281.639" y1="45.802" x2="1286.209" y2="47.513"/>
<line fill="none" stroke="#FFFFFF" stroke-width="2" stroke-linecap="square" stroke-miterlimit="10" x1="1285.784" y1="34.733" x2="1290.354" y2="36.445"/>
<line fill="none" stroke="#FFFFFF" stroke-width="2" stroke-linecap="square" stroke-miterlimit="10" x1="1254.191" y1="35.38" x2="1258.594" y2="37.029"/>
<line fill="none" stroke="#FFFFFF" stroke-width="2" stroke-linecap="square" stroke-miterlimit="10" x1="1258.337" y1="24.314" x2="1262.74" y2="25.962"/>
<path fill="none" stroke="#FFFFFF" stroke-width="2" stroke-linecap="square" stroke-miterlimit="10" d="M1289.77,209.68
	l12.388-65.861c0.214-1.139,1.313-1.891,2.453-1.676l42.672,8.025c1.141,0.214,1.893,1.313,1.679,2.453l-11.358,60.396
	l-16.878,10.482l-32.406-6.096"/>
<polyline fill="none" stroke="#FFFFFF" stroke-width="2" stroke-linecap="square" stroke-miterlimit="10" points="1340.782,157.259 
	1332.32,202.254 1299.367,196.057 1307.83,151.063 1334.331,156.046 "/>
<line fill="none" stroke="#FFFFFF" stroke-width="2" stroke-linecap="square" stroke-miterlimit="10" x1="1333.33" y1="171.747" x2="1309.646" y2="167.293"/>
<line fill="none" stroke="#FFFFFF" stroke-width="2" stroke-linecap="square" stroke-miterlimit="10" x1="1330.74" y1="185.523" x2="1307.056" y2="181.068"/>
<line fill="none" stroke="#FFFFFF" stroke-width="2" stroke-linecap="square" stroke-miterlimit="10" x1="1327.953" y1="165.322" x2="1328.854" y2="160.525"/>
<line fill="none" stroke="#FFFFFF" stroke-width="2" stroke-linecap="square" stroke-miterlimit="10" x1="1316.338" y1="163.139" x2="1317.24" y2="158.342"/>
<line fill="none" stroke="#FFFFFF" stroke-width="2" stroke-linecap="square" stroke-miterlimit="10" x1="1322.396" y1="194.15" x2="1323.266" y2="189.529"/>
<line fill="none" stroke="#FFFFFF" stroke-width="2" stroke-linecap="square" stroke-miterlimit="10" x1="1310.783" y1="191.966" x2="1311.652" y2="187.346"/>
<path fill="none" stroke="#FFFFFF" stroke-width="2" stroke-linecap="square" stroke-miterlimit="10" d="M1363.475,163.449
	l63.47-21.514c1.098-0.371,2.291,0.217,2.663,1.315l13.938,41.123c0.373,1.099-0.215,2.293-1.313,2.666l-58.203,19.728
	l-17.414-9.564l-10.585-31.23"/>
<polyline fill="none" stroke="#FFFFFF" stroke-width="2" stroke-linecap="square" stroke-miterlimit="10" points="1434.178,182.189 
	1390.816,196.887 1380.055,165.131 1423.416,150.436 1432.07,175.973 "/>
<line fill="none" stroke="#FFFFFF" stroke-width="2" stroke-linecap="square" stroke-miterlimit="10" x1="1417.896" y1="182.803" x2="1410.162" y2="159.979"/>
<line fill="none" stroke="#FFFFFF" stroke-width="2" stroke-linecap="square" stroke-miterlimit="10" x1="1404.621" y1="187.303" x2="1396.886" y2="164.479"/>
<line fill="none" stroke="#FFFFFF" stroke-width="2" stroke-linecap="square" stroke-miterlimit="10" x1="1420.858" y1="174.965" x2="1425.48" y2="173.398"/>
<line fill="none" stroke="#FFFFFF" stroke-width="2" stroke-linecap="square" stroke-miterlimit="10" x1="1417.064" y1="163.771" x2="1421.688" y2="162.205"/>
<line fill="none" stroke="#FFFFFF" stroke-width="2" stroke-linecap="square" stroke-miterlimit="10" x1="1393.012" y1="184.264" x2="1397.464" y2="182.755"/>
<line fill="none" stroke="#FFFFFF" stroke-width="2" stroke-linecap="square" stroke-miterlimit="10" x1="1389.219" y1="173.072" x2="1393.67" y2="171.563"/>
<path fill="none" stroke="#FFFFFF" stroke-width="2" stroke-linecap="square" stroke-miterlimit="10" d="M1388.354,60.85
	l-3.633-66.917c-0.063-1.157,0.826-2.148,1.984-2.211l43.357-2.353c1.157-0.063,2.149,0.825,2.213,1.982l3.33,61.367l-13.9,14.195
	l-32.927,1.787"/>
<polyline fill="none" stroke="#FFFFFF" stroke-width="2" stroke-linecap="square" stroke-miterlimit="10" points="1425.436,-2.198 
	1427.917,43.519 1394.436,45.335 1391.955,-0.382 1418.881,-1.842 "/>
<line fill="none" stroke="#FFFFFF" stroke-width="2" stroke-linecap="square" stroke-miterlimit="10" x1="1421.643" y1="13.646" x2="1397.58" y2="14.952"/>
<line fill="none" stroke="#FFFFFF" stroke-width="2" stroke-linecap="square" stroke-miterlimit="10" x1="1422.402" y1="27.644" x2="1398.339" y2="28.949"/>
<line fill="none" stroke="#FFFFFF" stroke-width="2" stroke-linecap="square" stroke-miterlimit="10" x1="1414.892" y1="8.685" x2="1414.627" y2="3.813"/>
<line fill="none" stroke="#FFFFFF" stroke-width="2" stroke-linecap="square" stroke-miterlimit="10" x1="1403.09" y1="9.325" x2="1402.826" y2="4.452"/>
<line fill="none" stroke="#FFFFFF" stroke-width="2" stroke-linecap="square" stroke-miterlimit="10" x1="1416.351" y1="38.008" x2="1416.096" y2="33.313"/>
<line fill="none" stroke="#FFFFFF" stroke-width="2" stroke-linecap="square" stroke-miterlimit="10" x1="1404.551" y1="38.647" x2="1404.296" y2="33.953"/>
<path fill="none" stroke="#FFFFFF" stroke-width="2" stroke-linecap="square" stroke-miterlimit="10" d="M1567.568,214.552
	l9.481,66.343c0.164,1.146-0.635,2.211-1.782,2.377l-42.984,6.143c-1.148,0.164-2.214-0.634-2.379-1.781l-8.694-60.839
	l12.604-15.358l32.644-4.666"/>
<polyline fill="none" stroke="#FFFFFF" stroke-width="2" stroke-linecap="square" stroke-miterlimit="10" points="1536.153,280.607 
	1529.676,235.283 1562.868,230.54 1569.346,275.863 1542.652,279.678 "/>
<line fill="none" stroke="#FFFFFF" stroke-width="2" stroke-linecap="square" stroke-miterlimit="10" x1="1538.543" y1="264.491" x2="1562.398" y2="261.081"/>
<line fill="none" stroke="#FFFFFF" stroke-width="2" stroke-linecap="square" stroke-miterlimit="10" x1="1536.559" y1="250.613" x2="1560.416" y2="247.205"/>
<line fill="none" stroke="#FFFFFF" stroke-width="2" stroke-linecap="square" stroke-miterlimit="10" x1="1545.703" y1="268.842" x2="1546.395" y2="273.673"/>
<line fill="none" stroke="#FFFFFF" stroke-width="2" stroke-linecap="square" stroke-miterlimit="10" x1="1557.402" y1="267.17" x2="1558.094" y2="272.001"/>
<line fill="none" stroke="#FFFFFF" stroke-width="2" stroke-linecap="square" stroke-miterlimit="10" x1="1541.68" y1="239.76" x2="1542.346" y2="244.414"/>
<line fill="none" stroke="#FFFFFF" stroke-width="2" stroke-linecap="square" stroke-miterlimit="10" x1="1553.378" y1="238.089" x2="1554.044" y2="242.742"/>
<path fill="none" stroke="#FFFFFF" stroke-width="2" stroke-linecap="square" stroke-miterlimit="10" d="M1532.023,113.011
	l-66.521-8.14c-1.15-0.142-1.971-1.189-1.83-2.341l5.275-43.1c0.141-1.151,1.188-1.973,2.34-1.833l61.002,7.466l11.543,16.171
	l-4.006,32.731"/>
<polyline fill="none" stroke="#FFFFFF" stroke-width="2" stroke-linecap="square" stroke-miterlimit="10" points="1476.441,65.463 
	1521.887,71.024 1517.813,104.306 1472.369,98.744 1475.645,71.979 "/>
<line fill="none" stroke="#FFFFFF" stroke-width="2" stroke-linecap="square" stroke-miterlimit="10" x1="1491.378" y1="71.971" x2="1488.451" y2="95.891"/>
<line fill="none" stroke="#FFFFFF" stroke-width="2" stroke-linecap="square" stroke-miterlimit="10" x1="1505.292" y1="73.673" x2="1502.364" y2="97.594"/>
<line fill="none" stroke="#FFFFFF" stroke-width="2" stroke-linecap="square" stroke-miterlimit="10" x1="1485.311" y1="77.749" x2="1480.467" y2="77.156"/>
<line fill="none" stroke="#FFFFFF" stroke-width="2" stroke-linecap="square" stroke-miterlimit="10" x1="1483.875" y1="89.481" x2="1479.031" y2="88.887"/>
<line fill="none" stroke="#FFFFFF" stroke-width="2" stroke-linecap="square" stroke-miterlimit="10" x1="1514.436" y1="81.447" x2="1509.77" y2="80.875"/>
<line fill="none" stroke="#FFFFFF" stroke-width="2" stroke-linecap="square" stroke-miterlimit="10" x1="1513" y1="93.176" x2="1508.334" y2="92.606"/>
<path fill="none" stroke="#FFFFFF" stroke-width="2" stroke-linecap="square" stroke-miterlimit="10" d="M1783.869,163.449
	l63.469-21.514c1.098-0.371,2.291,0.217,2.664,1.315l13.938,41.123c0.373,1.099-0.215,2.293-1.313,2.666l-58.204,19.728
	l-17.414-9.564l-10.585-31.23"/>
<polyline fill="none" stroke="#FFFFFF" stroke-width="2" stroke-linecap="square" stroke-miterlimit="10" points="1854.572,182.189 
	1811.211,196.887 1800.449,165.131 1843.811,150.436 1852.465,175.973 "/>
<line fill="none" stroke="#FFFFFF" stroke-width="2" stroke-linecap="square" stroke-miterlimit="10" x1="1838.292" y1="182.803" x2="1830.557" y2="159.979"/>
<line fill="none" stroke="#FFFFFF" stroke-width="2" stroke-linecap="square" stroke-miterlimit="10" x1="1825.016" y1="187.303" x2="1817.28" y2="164.479"/>
<line fill="none" stroke="#FFFFFF" stroke-width="2" stroke-linecap="square" stroke-miterlimit="10" x1="1841.253" y1="174.965" x2="1845.875" y2="173.398"/>
<line fill="none" stroke="#FFFFFF" stroke-width="2" stroke-linecap="square" stroke-miterlimit="10" x1="1837.459" y1="163.771" x2="1842.081" y2="162.205"/>
<line fill="none" stroke="#FFFFFF" stroke-width="2" stroke-linecap="square" stroke-miterlimit="10" x1="1813.406" y1="184.264" x2="1817.858" y2="182.755"/>
<line fill="none" stroke="#FFFFFF" stroke-width="2" stroke-linecap="square" stroke-miterlimit="10" x1="1809.613" y1="173.072" x2="1814.064" y2="171.563"/>
<path fill="none" stroke="#FFFFFF" stroke-width="2" stroke-linecap="square" stroke-miterlimit="10" d="M1808.748,60.85
	l-3.633-66.917c-0.063-1.157,0.826-2.148,1.983-2.211l43.357-2.353c1.158-0.063,2.15,0.825,2.213,1.982l3.33,61.367l-13.9,14.195
	l-32.927,1.787"/>
<polyline fill="none" stroke="#FFFFFF" stroke-width="2" stroke-linecap="square" stroke-miterlimit="10" points="1845.83,-2.198 
	1848.313,43.519 1814.83,45.335 1812.35,-0.382 1839.275,-1.842 "/>
<line fill="none" stroke="#FFFFFF" stroke-width="2" stroke-linecap="square" stroke-miterlimit="10" x1="1842.037" y1="13.646" x2="1817.975" y2="14.952"/>
<line fill="none" stroke="#FFFFFF" stroke-width="2" stroke-linecap="square" stroke-miterlimit="10" x1="1842.797" y1="27.644" x2="1818.733" y2="28.949"/>
<line fill="none" stroke="#FFFFFF" stroke-width="2" stroke-linecap="square" stroke-miterlimit="10" x1="1835.286" y1="8.685" x2="1835.021" y2="3.813"/>
<line fill="none" stroke="#FFFFFF" stroke-width="2" stroke-linecap="square" stroke-miterlimit="10" x1="1823.484" y1="9.325" x2="1823.221" y2="4.452"/>
<line fill="none" stroke="#FFFFFF" stroke-width="2" stroke-linecap="square" stroke-miterlimit="10" x1="1836.745" y1="38.008" x2="1836.49" y2="33.313"/>
<line fill="none" stroke="#FFFFFF" stroke-width="2" stroke-linecap="square" stroke-miterlimit="10" x1="1824.945" y1="38.647" x2="1824.689" y2="33.953"/>
<path fill="none" stroke="#FFFFFF" stroke-width="2" stroke-linecap="square" stroke-miterlimit="10" d="M1952.418,113.011
	l-66.52-8.14c-1.15-0.142-1.972-1.189-1.83-2.341l5.274-43.1c0.142-1.151,1.188-1.973,2.34-1.833l61.002,7.466l11.543,16.171
	l-4.006,32.731"/>
<polyline fill="none" stroke="#FFFFFF" stroke-width="2" stroke-linecap="square" stroke-miterlimit="10" points="1896.836,65.463 
	1942.281,71.024 1938.208,104.306 1892.764,98.744 1896.039,71.979 "/>
<line fill="none" stroke="#FFFFFF" stroke-width="2" stroke-linecap="square" stroke-miterlimit="10" x1="1911.771" y1="71.971" x2="1908.846" y2="95.891"/>
<line fill="none" stroke="#FFFFFF" stroke-width="2" stroke-linecap="square" stroke-miterlimit="10" x1="1925.688" y1="73.673" x2="1922.759" y2="97.594"/>
<line fill="none" stroke="#FFFFFF" stroke-width="2" stroke-linecap="square" stroke-miterlimit="10" x1="1905.705" y1="77.749" x2="1900.861" y2="77.156"/>
<line fill="none" stroke="#FFFFFF" stroke-width="2" stroke-linecap="square" stroke-miterlimit="10" x1="1904.27" y1="89.481" x2="1899.426" y2="88.887"/>
<line fill="none" stroke="#FFFFFF" stroke-width="2" stroke-linecap="square" stroke-miterlimit="10" x1="1934.83" y1="81.447" x2="1930.164" y2="80.875"/>
<line fill="none" stroke="#FFFFFF" stroke-width="2" stroke-linecap="square" stroke-miterlimit="10" x1="1933.395" y1="93.176" x2="1928.729" y2="92.606"/>
<path fill="none" stroke="#FFFFFF" stroke-width="2" stroke-linecap="square" stroke-miterlimit="10" d="M1652.278,132.688
	l-33.794,57.871c-0.584,1.002-1.871,1.34-2.873,0.756l-37.496-21.896c-1.002-0.585-1.341-1.872-0.757-2.874l30.99-53.07
	l19.418-4.203l28.477,16.627"/>
<polyline fill="none" stroke="#FFFFFF" stroke-width="2" stroke-linecap="square" stroke-miterlimit="10" points="1586.619,164.922 
	1609.707,125.385 1638.661,142.294 1615.573,181.83 1592.288,168.232 "/>
<line fill="none" stroke="#FFFFFF" stroke-width="2" stroke-linecap="square" stroke-miterlimit="10" x1="1598.506" y1="153.779" x2="1619.316" y2="165.932"/>
<line fill="none" stroke="#FFFFFF" stroke-width="2" stroke-linecap="square" stroke-miterlimit="10" x1="1605.574" y1="141.674" x2="1626.385" y2="153.827"/>
<line fill="none" stroke="#FFFFFF" stroke-width="2" stroke-linecap="square" stroke-miterlimit="10" x1="1601.412" y1="161.639" x2="1598.951" y2="165.852"/>
<line fill="none" stroke="#FFFFFF" stroke-width="2" stroke-linecap="square" stroke-miterlimit="10" x1="1611.618" y1="167.598" x2="1609.157" y2="171.813"/>
<line fill="none" stroke="#FFFFFF" stroke-width="2" stroke-linecap="square" stroke-miterlimit="10" x1="1616.33" y1="136.352" x2="1613.959" y2="140.411"/>
<line fill="none" stroke="#FFFFFF" stroke-width="2" stroke-linecap="square" stroke-miterlimit="10" x1="1626.535" y1="142.311" x2="1624.165" y2="146.371"/>
<path fill="none" stroke="#FFFFFF" stroke-width="2" stroke-linecap="square" stroke-miterlimit="10" d="M1667.092,0.572
	l62.76,23.505c1.084,0.407,1.637,1.618,1.229,2.705l-15.229,40.662c-0.407,1.086-1.618,1.639-2.704,1.232l-57.554-21.557
	l-7.431-18.426l11.566-30.88"/>
<polyline fill="none" stroke="#FFFFFF" stroke-width="2" stroke-linecap="square" stroke-miterlimit="10" points="1709.98,59.824 
	1667.104,43.766 1678.866,12.366 1721.741,28.426 1712.283,53.677 "/>
<line fill="none" stroke="#FFFFFF" stroke-width="2" stroke-linecap="square" stroke-miterlimit="10" x1="1696.986" y1="49.997" x2="1705.438" y2="27.429"/>
<line fill="none" stroke="#FFFFFF" stroke-width="2" stroke-linecap="square" stroke-miterlimit="10" x1="1683.858" y1="45.08" x2="1692.313" y2="22.512"/>
<line fill="none" stroke="#FFFFFF" stroke-width="2" stroke-linecap="square" stroke-miterlimit="10" x1="1704.238" y1="45.802" x2="1708.809" y2="47.513"/>
<line fill="none" stroke="#FFFFFF" stroke-width="2" stroke-linecap="square" stroke-miterlimit="10" x1="1708.384" y1="34.733" x2="1712.954" y2="36.445"/>
<line fill="none" stroke="#FFFFFF" stroke-width="2" stroke-linecap="square" stroke-miterlimit="10" x1="1676.791" y1="35.38" x2="1681.193" y2="37.029"/>
<line fill="none" stroke="#FFFFFF" stroke-width="2" stroke-linecap="square" stroke-miterlimit="10" x1="1680.938" y1="24.314" x2="1685.34" y2="25.962"/>
<path fill="none" stroke="#FFFFFF" stroke-width="2" stroke-linecap="square" stroke-miterlimit="10" d="M1712.369,209.68
	l12.387-65.861c0.214-1.139,1.313-1.891,2.453-1.676l42.672,8.025c1.141,0.214,1.893,1.313,1.679,2.453l-11.357,60.396
	l-16.878,10.482l-32.407-6.096"/>
<polyline fill="none" stroke="#FFFFFF" stroke-width="2" stroke-linecap="square" stroke-miterlimit="10" points="1763.382,157.259 
	1754.92,202.254 1721.967,196.057 1730.43,151.063 1756.931,156.046 "/>
<line fill="none" stroke="#FFFFFF" stroke-width="2" stroke-linecap="square" stroke-miterlimit="10" x1="1755.93" y1="171.747" x2="1732.246" y2="167.293"/>
<line fill="none" stroke="#FFFFFF" stroke-width="2" stroke-linecap="square" stroke-miterlimit="10" x1="1753.34" y1="185.523" x2="1729.655" y2="181.068"/>
<line fill="none" stroke="#FFFFFF" stroke-width="2" stroke-linecap="square" stroke-miterlimit="10" x1="1750.553" y1="165.322" x2="1751.454" y2="160.525"/>
<line fill="none" stroke="#FFFFFF" stroke-width="2" stroke-linecap="square" stroke-miterlimit="10" x1="1738.938" y1="163.139" x2="1739.84" y2="158.342"/>
<line fill="none" stroke="#FFFFFF" stroke-width="2" stroke-linecap="square" stroke-miterlimit="10" x1="1744.996" y1="194.15" x2="1745.865" y2="189.529"/>
<line fill="none" stroke="#FFFFFF" stroke-width="2" stroke-linecap="square" stroke-miterlimit="10" x1="1733.383" y1="191.966" x2="1734.252" y2="187.346"/>
</svg>
