<?xml version="1.0" encoding="utf-8"?>
<!-- Generator: Adobe Illustrator 16.0.0, SVG Export Plug-In . SVG Version: 6.00 Build 0)  -->
<!DOCTYPE svg PUBLIC "-//W3C//DTD SVG 1.1//EN" "http://www.w3.org/Graphics/SVG/1.1/DTD/svg11.dtd">
<svg version="1.1" id="Layer_1" xmlns="http://www.w3.org/2000/svg" xmlns:xlink="http://www.w3.org/1999/xlink" x="0px" y="0px"
	 width="960px" height="160px" viewBox="0 0 960 160" enable-background="new 0 0 960 160" xml:space="preserve">
<g id="Layer_2">
</g>
<path fill="none" stroke="#56DAF3" stroke-width="1.5" stroke-linecap="square" stroke-miterlimit="10" d="M194.746,123.078
	l36.902-12.51c0.639-0.215,1.333,0.125,1.548,0.766l8.104,23.908c0.217,0.641-0.126,1.334-0.764,1.551l-33.841,11.471l-10.125-5.561
	l-6.154-18.158"/>
<polyline fill="none" stroke="#56DAF3" stroke-width="1.5" stroke-linecap="square" stroke-miterlimit="10" points="
	235.855,133.973 210.643,142.52 204.387,124.055 229.598,115.512 234.629,130.359 "/>
<line fill="none" stroke="#56DAF3" stroke-width="1.5" stroke-linecap="square" stroke-miterlimit="10" x1="226.389" y1="134.33" x2="221.891" y2="121.061"/>
<line fill="none" stroke="#56DAF3" stroke-width="1.5" stroke-linecap="square" stroke-miterlimit="10" x1="218.669" y1="136.947" x2="214.172" y2="123.676"/>
<line fill="none" stroke="#56DAF3" stroke-width="1.5" stroke-linecap="square" stroke-miterlimit="10" x1="228.11" y1="129.773" x2="230.797" y2="128.863"/>
<line fill="none" stroke="#56DAF3" stroke-width="1.5" stroke-linecap="square" stroke-miterlimit="10" x1="225.904" y1="123.264" x2="228.592" y2="122.354"/>
<line fill="none" stroke="#56DAF3" stroke-width="1.5" stroke-linecap="square" stroke-miterlimit="10" x1="211.919" y1="135.18" x2="214.508" y2="134.301"/>
<line fill="none" stroke="#56DAF3" stroke-width="1.5" stroke-linecap="square" stroke-miterlimit="10" x1="209.714" y1="128.672" x2="212.303" y2="127.795"/>
<path fill="none" stroke="#56DAF3" stroke-width="1.5" stroke-linecap="square" stroke-miterlimit="10" d="M214.014,28.389
	l-2.112-38.905c-0.037-0.674,0.48-1.25,1.152-1.286l25.209-1.368c0.674-0.036,1.25,0.48,1.288,1.152l1.936,35.68l-8.081,8.253
	l-19.145,1.039"/>
<polyline fill="none" stroke="#56DAF3" stroke-width="1.5" stroke-linecap="square" stroke-miterlimit="10" points="235.574,-8.267 
	237.017,18.314 217.55,19.369 216.108,-7.21 231.763,-8.061 "/>
<line fill="none" stroke="#56DAF3" stroke-width="1.5" stroke-linecap="square" stroke-miterlimit="10" x1="233.369" y1="0.944" x2="219.378" y2="1.705"/>
<line fill="none" stroke="#56DAF3" stroke-width="1.5" stroke-linecap="square" stroke-miterlimit="10" x1="233.81" y1="9.083" x2="219.82" y2="9.842"/>
<line fill="none" stroke="#56DAF3" stroke-width="1.5" stroke-linecap="square" stroke-miterlimit="10" x1="229.444" y1="-1.938" x2="229.291" y2="-4.772"/>
<line fill="none" stroke="#56DAF3" stroke-width="1.5" stroke-linecap="square" stroke-miterlimit="10" x1="222.582" y1="-1.567" x2="222.429" y2="-4.4"/>
<line fill="none" stroke="#56DAF3" stroke-width="1.5" stroke-linecap="square" stroke-miterlimit="10" x1="230.292" y1="15.109" x2="230.144" y2="12.38"/>
<line fill="none" stroke="#56DAF3" stroke-width="1.5" stroke-linecap="square" stroke-miterlimit="10" x1="223.432" y1="15.48" x2="223.283" y2="12.751"/>
<path fill="none" stroke="#56DAF3" stroke-width="1.5" stroke-linecap="square" stroke-miterlimit="10" d="M313.301,143.813
	l5.514,38.572c0.095,0.668-0.369,1.287-1.037,1.383l-24.992,3.572c-0.666,0.094-1.287-0.369-1.383-1.035l-5.055-35.373l7.327-8.93
	l18.981-2.713"/>
<polyline fill="none" stroke="#56DAF3" stroke-width="1.5" stroke-linecap="square" stroke-miterlimit="10" points="
	295.036,182.219 291.269,155.865 310.569,153.107 314.334,179.459 298.814,181.678 "/>
<line fill="none" stroke="#56DAF3" stroke-width="1.5" stroke-linecap="square" stroke-miterlimit="10" x1="296.425" y1="172.848" x2="310.295" y2="170.867"/>
<line fill="none" stroke="#56DAF3" stroke-width="1.5" stroke-linecap="square" stroke-miterlimit="10" x1="295.272" y1="164.781" x2="309.143" y2="162.797"/>
<line fill="none" stroke="#56DAF3" stroke-width="1.5" stroke-linecap="square" stroke-miterlimit="10" x1="300.589" y1="175.379" x2="300.989" y2="178.186"/>
<line fill="none" stroke="#56DAF3" stroke-width="1.5" stroke-linecap="square" stroke-miterlimit="10" x1="307.391" y1="174.406" x2="307.791" y2="177.215"/>
<line fill="none" stroke="#56DAF3" stroke-width="1.5" stroke-linecap="square" stroke-miterlimit="10" x1="298.249" y1="158.469" x2="298.636" y2="161.176"/>
<line fill="none" stroke="#56DAF3" stroke-width="1.5" stroke-linecap="square" stroke-miterlimit="10" x1="305.051" y1="157.498" x2="305.438" y2="160.201"/>
<path fill="none" stroke="#56DAF3" stroke-width="1.5" stroke-linecap="square" stroke-miterlimit="10" d="M297.546,48.252
	l-38.675-4.733c-0.669-0.083-1.147-0.692-1.064-1.362l3.066-25.059c0.083-0.668,0.69-1.147,1.36-1.065l35.469,4.34l6.71,9.403
	l-2.33,19.03"/>
<polyline fill="none" stroke="#56DAF3" stroke-width="1.5" stroke-linecap="square" stroke-miterlimit="10" points="265.23,20.606 
	291.653,23.839 289.285,43.191 262.862,39.958 264.767,24.395 "/>
<line fill="none" stroke="#56DAF3" stroke-width="1.5" stroke-linecap="square" stroke-miterlimit="10" x1="273.914" y1="24.391" x2="272.212" y2="38.297"/>
<line fill="none" stroke="#56DAF3" stroke-width="1.5" stroke-linecap="square" stroke-miterlimit="10" x1="282.004" y1="25.38" x2="280.302" y2="39.289"/>
<line fill="none" stroke="#56DAF3" stroke-width="1.5" stroke-linecap="square" stroke-miterlimit="10" x1="270.387" y1="27.75" x2="267.571" y2="27.405"/>
<line fill="none" stroke="#56DAF3" stroke-width="1.5" stroke-linecap="square" stroke-miterlimit="10" x1="269.552" y1="34.57" x2="266.736" y2="34.226"/>
<line fill="none" stroke="#56DAF3" stroke-width="1.5" stroke-linecap="square" stroke-miterlimit="10" x1="287.321" y1="29.9" x2="284.607" y2="29.567"/>
<line fill="none" stroke="#56DAF3" stroke-width="1.5" stroke-linecap="square" stroke-miterlimit="10" x1="286.486" y1="36.719" x2="283.773" y2="36.387"/>
<path fill="none" stroke="#56DAF3" stroke-width="1.5" stroke-linecap="square" stroke-miterlimit="10" d="M368.668,117.068
	l-19.648,33.648c-0.339,0.58-1.088,0.776-1.671,0.438l-21.801-12.731c-0.583-0.34-0.78-1.088-0.44-1.67l18.019-30.857l11.29-2.443
	l16.557,9.668"/>
<polyline fill="none" stroke="#56DAF3" stroke-width="1.5" stroke-linecap="square" stroke-miterlimit="10" points="
	330.493,135.813 343.916,112.824 360.751,122.654 347.328,145.641 333.789,137.734 "/>
<line fill="none" stroke="#56DAF3" stroke-width="1.5" stroke-linecap="square" stroke-miterlimit="10" x1="337.403" y1="129.332" x2="349.504" y2="136.398"/>
<line fill="none" stroke="#56DAF3" stroke-width="1.5" stroke-linecap="square" stroke-miterlimit="10" x1="341.514" y1="122.293" x2="353.613" y2="129.359"/>
<line fill="none" stroke="#56DAF3" stroke-width="1.5" stroke-linecap="square" stroke-miterlimit="10" x1="339.094" y1="133.9" x2="337.663" y2="136.352"/>
<line fill="none" stroke="#56DAF3" stroke-width="1.5" stroke-linecap="square" stroke-miterlimit="10" x1="345.028" y1="137.367" x2="343.597" y2="139.814"/>
<line fill="none" stroke="#56DAF3" stroke-width="1.5" stroke-linecap="square" stroke-miterlimit="10" x1="347.768" y1="119.201" x2="346.389" y2="121.559"/>
<line fill="none" stroke="#56DAF3" stroke-width="1.5" stroke-linecap="square" stroke-miterlimit="10" x1="353.701" y1="122.664" x2="352.323" y2="125.025"/>
<path fill="none" stroke="#56DAF3" stroke-width="1.5" stroke-linecap="square" stroke-miterlimit="10" d="M376.079-6.657
	l36.488,13.666c0.631,0.238,0.952,0.941,0.714,1.573l-8.854,23.642c-0.235,0.631-0.939,0.954-1.572,0.717l-33.462-12.533
	l-4.321-10.713l6.726-17.954"/>
<polyline fill="none" stroke="#56DAF3" stroke-width="1.5" stroke-linecap="square" stroke-miterlimit="10" points="401.015,27.794 
	376.085,18.458 382.924,0.2 407.853,9.539 402.354,24.218 "/>
<line fill="none" stroke="#56DAF3" stroke-width="1.5" stroke-linecap="square" stroke-miterlimit="10" x1="393.459" y1="22.081" x2="398.373" y2="8.958"/>
<line fill="none" stroke="#56DAF3" stroke-width="1.5" stroke-linecap="square" stroke-miterlimit="10" x1="385.827" y1="19.221" x2="390.742" y2="6.1"/>
<line fill="none" stroke="#56DAF3" stroke-width="1.5" stroke-linecap="square" stroke-miterlimit="10" x1="397.676" y1="19.641" x2="400.333" y2="20.636"/>
<line fill="none" stroke="#56DAF3" stroke-width="1.5" stroke-linecap="square" stroke-miterlimit="10" x1="400.086" y1="13.206" x2="402.744" y2="14.2"/>
<line fill="none" stroke="#56DAF3" stroke-width="1.5" stroke-linecap="square" stroke-miterlimit="10" x1="381.718" y1="13.582" x2="384.277" y2="14.541"/>
<line fill="none" stroke="#56DAF3" stroke-width="1.5" stroke-linecap="square" stroke-miterlimit="10" x1="384.128" y1="7.148" x2="386.687" y2="8.105"/>
<path fill="none" stroke="#56DAF3" stroke-width="1.5" stroke-linecap="square" stroke-miterlimit="10" d="M421.47,154.432
	l7.201-38.293c0.125-0.664,0.765-1.1,1.426-0.973l24.812,4.664c0.663,0.125,1.102,0.764,0.976,1.428l-6.604,35.113l-9.813,6.096
	l-18.842-3.545"/>
<polyline fill="none" stroke="#56DAF3" stroke-width="1.5" stroke-linecap="square" stroke-miterlimit="10" points="
	451.129,123.953 446.209,150.115 427.05,146.512 431.971,120.352 447.379,123.248 "/>
<line fill="none" stroke="#56DAF3" stroke-width="1.5" stroke-linecap="square" stroke-miterlimit="10" x1="446.797" y1="132.377" x2="433.027" y2="129.787"/>
<line fill="none" stroke="#56DAF3" stroke-width="1.5" stroke-linecap="square" stroke-miterlimit="10" x1="445.291" y1="140.387" x2="431.521" y2="137.797"/>
<line fill="none" stroke="#56DAF3" stroke-width="1.5" stroke-linecap="square" stroke-miterlimit="10" x1="443.67" y1="128.641" x2="444.195" y2="125.852"/>
<line fill="none" stroke="#56DAF3" stroke-width="1.5" stroke-linecap="square" stroke-miterlimit="10" x1="436.917" y1="127.371" x2="437.441" y2="124.582"/>
<line fill="none" stroke="#56DAF3" stroke-width="1.5" stroke-linecap="square" stroke-miterlimit="10" x1="440.44" y1="145.402" x2="440.945" y2="142.717"/>
<line fill="none" stroke="#56DAF3" stroke-width="1.5" stroke-linecap="square" stroke-miterlimit="10" x1="433.688" y1="144.133" x2="434.192" y2="141.447"/>
<path fill="none" stroke="#56DAF3" stroke-width="1.5" stroke-linecap="square" stroke-miterlimit="10" d="M70.528,117.756
	l5.513,38.571c0.095,0.669-0.369,1.285-1.037,1.384l-24.992,3.571c-0.668,0.095-1.288-0.368-1.383-1.034l-5.056-35.375l7.327-8.929
	l18.98-2.715"/>
<polyline fill="none" stroke="#56DAF3" stroke-width="1.5" stroke-linecap="square" stroke-miterlimit="10" points="52.263,156.16 
	48.497,129.809 67.796,127.051 71.561,153.404 56.041,155.621 "/>
<line fill="none" stroke="#56DAF3" stroke-width="1.5" stroke-linecap="square" stroke-miterlimit="10" x1="53.652" y1="146.791" x2="67.522" y2="144.809"/>
<line fill="none" stroke="#56DAF3" stroke-width="1.5" stroke-linecap="square" stroke-miterlimit="10" x1="52.498" y1="138.723" x2="66.37" y2="136.74"/>
<line fill="none" stroke="#56DAF3" stroke-width="1.5" stroke-linecap="square" stroke-miterlimit="10" x1="57.816" y1="149.322" x2="58.217" y2="152.131"/>
<line fill="none" stroke="#56DAF3" stroke-width="1.5" stroke-linecap="square" stroke-miterlimit="10" x1="64.617" y1="148.348" x2="65.019" y2="151.156"/>
<line fill="none" stroke="#56DAF3" stroke-width="1.5" stroke-linecap="square" stroke-miterlimit="10" x1="55.476" y1="132.412" x2="55.863" y2="135.119"/>
<line fill="none" stroke="#56DAF3" stroke-width="1.5" stroke-linecap="square" stroke-miterlimit="10" x1="62.277" y1="131.439" x2="62.664" y2="134.146"/>
<path fill="none" stroke="#56DAF3" stroke-width="1.5" stroke-linecap="square" stroke-miterlimit="10" d="M49.861,58.717
	l-38.676-4.732c-0.669-0.083-1.146-0.692-1.064-1.361l3.067-25.06c0.082-0.668,0.69-1.146,1.36-1.065l35.467,4.34l6.711,9.403
	l-2.329,19.03"/>
<polyline fill="none" stroke="#56DAF3" stroke-width="1.5" stroke-linecap="square" stroke-miterlimit="10" points="17.545,31.071 
	43.968,34.304 41.6,53.656 15.178,50.422 17.082,34.86 "/>
<line fill="none" stroke="#56DAF3" stroke-width="1.5" stroke-linecap="square" stroke-miterlimit="10" x1="26.229" y1="34.856" x2="24.527" y2="48.764"/>
<line fill="none" stroke="#56DAF3" stroke-width="1.5" stroke-linecap="square" stroke-miterlimit="10" x1="34.319" y1="35.845" x2="32.617" y2="49.754"/>
<line fill="none" stroke="#56DAF3" stroke-width="1.5" stroke-linecap="square" stroke-miterlimit="10" x1="22.702" y1="38.215" x2="19.887" y2="37.872"/>
<line fill="none" stroke="#56DAF3" stroke-width="1.5" stroke-linecap="square" stroke-miterlimit="10" x1="21.867" y1="45.036" x2="19.051" y2="44.691"/>
<line fill="none" stroke="#56DAF3" stroke-width="1.5" stroke-linecap="square" stroke-miterlimit="10" x1="39.636" y1="40.366" x2="36.922" y2="40.033"/>
<line fill="none" stroke="#56DAF3" stroke-width="1.5" stroke-linecap="square" stroke-miterlimit="10" x1="38.801" y1="47.186" x2="36.087" y2="46.854"/>
<path fill="none" stroke="#56DAF3" stroke-width="1.5" stroke-linecap="square" stroke-miterlimit="10" d="M119.781,70.158
	l-19.648,33.648c-0.34,0.582-1.089,0.777-1.671,0.439L76.66,91.514c-0.582-0.34-0.779-1.088-0.44-1.67l18.019-30.857l11.29-2.443
	l16.557,9.667"/>
<polyline fill="none" stroke="#56DAF3" stroke-width="1.5" stroke-linecap="square" stroke-miterlimit="10" points="81.604,88.9 
	95.028,65.911 111.863,75.743 98.439,98.73 84.901,90.822 "/>
<line fill="none" stroke="#56DAF3" stroke-width="1.5" stroke-linecap="square" stroke-miterlimit="10" x1="88.516" y1="82.422" x2="100.615" y2="89.488"/>
<line fill="none" stroke="#56DAF3" stroke-width="1.5" stroke-linecap="square" stroke-miterlimit="10" x1="92.625" y1="75.383" x2="104.725" y2="82.451"/>
<line fill="none" stroke="#56DAF3" stroke-width="1.5" stroke-linecap="square" stroke-miterlimit="10" x1="90.206" y1="86.992" x2="88.775" y2="89.439"/>
<line fill="none" stroke="#56DAF3" stroke-width="1.5" stroke-linecap="square" stroke-miterlimit="10" x1="96.14" y1="90.455" x2="94.709" y2="92.908"/>
<line fill="none" stroke="#56DAF3" stroke-width="1.5" stroke-linecap="square" stroke-miterlimit="10" x1="98.88" y1="72.289" x2="97.5" y2="74.649"/>
<line fill="none" stroke="#56DAF3" stroke-width="1.5" stroke-linecap="square" stroke-miterlimit="10" x1="104.812" y1="75.753" x2="103.435" y2="78.113"/>
<path fill="none" stroke="#56DAF3" stroke-width="1.5" stroke-linecap="square" stroke-miterlimit="10" d="M128.393-6.657
	l36.489,13.666c0.63,0.238,0.951,0.941,0.714,1.573l-8.854,23.642c-0.237,0.631-0.941,0.954-1.573,0.717l-33.461-12.533
	l-4.321-10.713l6.725-17.954"/>
<polyline fill="none" stroke="#56DAF3" stroke-width="1.5" stroke-linecap="square" stroke-miterlimit="10" points="153.33,27.794 
	128.4,18.458 135.239,0.2 160.167,9.539 154.668,24.218 "/>
<line fill="none" stroke="#56DAF3" stroke-width="1.5" stroke-linecap="square" stroke-miterlimit="10" x1="145.774" y1="22.081" x2="150.688" y2="8.958"/>
<line fill="none" stroke="#56DAF3" stroke-width="1.5" stroke-linecap="square" stroke-miterlimit="10" x1="138.142" y1="19.221" x2="143.057" y2="6.1"/>
<line fill="none" stroke="#56DAF3" stroke-width="1.5" stroke-linecap="square" stroke-miterlimit="10" x1="149.991" y1="19.641" x2="152.648" y2="20.636"/>
<line fill="none" stroke="#56DAF3" stroke-width="1.5" stroke-linecap="square" stroke-miterlimit="10" x1="152.401" y1="13.206" x2="155.059" y2="14.2"/>
<line fill="none" stroke="#56DAF3" stroke-width="1.5" stroke-linecap="square" stroke-miterlimit="10" x1="134.032" y1="13.582" x2="136.592" y2="14.541"/>
<line fill="none" stroke="#56DAF3" stroke-width="1.5" stroke-linecap="square" stroke-miterlimit="10" x1="136.443" y1="7.148" x2="139.002" y2="8.105"/>
<path fill="none" stroke="#56DAF3" stroke-width="1.5" stroke-linecap="square" stroke-miterlimit="10" d="M149.916,149.959
	l7.202-38.295c0.124-0.66,0.763-1.1,1.426-0.975l24.81,4.666c0.663,0.125,1.101,0.764,0.976,1.426l-6.605,35.117l-9.813,6.094
	l-18.841-3.543"/>
<polyline fill="none" stroke="#56DAF3" stroke-width="1.5" stroke-linecap="square" stroke-miterlimit="10" points="
	179.575,119.479 174.655,145.639 155.497,142.037 160.417,115.877 175.825,118.773 "/>
<line fill="none" stroke="#56DAF3" stroke-width="1.5" stroke-linecap="square" stroke-miterlimit="10" x1="175.243" y1="127.902" x2="161.473" y2="125.311"/>
<line fill="none" stroke="#56DAF3" stroke-width="1.5" stroke-linecap="square" stroke-miterlimit="10" x1="173.737" y1="135.912" x2="159.966" y2="133.322"/>
<line fill="none" stroke="#56DAF3" stroke-width="1.5" stroke-linecap="square" stroke-miterlimit="10" x1="172.116" y1="124.166" x2="172.641" y2="121.377"/>
<line fill="none" stroke="#56DAF3" stroke-width="1.5" stroke-linecap="square" stroke-miterlimit="10" x1="165.362" y1="122.898" x2="165.888" y2="120.109"/>
<line fill="none" stroke="#56DAF3" stroke-width="1.5" stroke-linecap="square" stroke-miterlimit="10" x1="168.885" y1="140.926" x2="169.391" y2="138.24"/>
<line fill="none" stroke="#56DAF3" stroke-width="1.5" stroke-linecap="square" stroke-miterlimit="10" x1="162.134" y1="139.658" x2="162.639" y2="136.971"/>
<path fill="none" stroke="#56DAF3" stroke-width="1.5" stroke-linecap="square" stroke-miterlimit="10" d="M465.72,127.551
	l36.901-12.508c0.639-0.218,1.332,0.129,1.55,0.766l8.104,23.91c0.218,0.639-0.124,1.332-0.764,1.549l-33.842,11.471l-10.124-5.561
	l-6.154-18.158"/>
<polyline fill="none" stroke="#56DAF3" stroke-width="1.5" stroke-linecap="square" stroke-miterlimit="10" points="
	506.829,138.449 481.616,146.992 475.359,128.529 500.57,119.984 505.602,134.834 "/>
<line fill="none" stroke="#56DAF3" stroke-width="1.5" stroke-linecap="square" stroke-miterlimit="10" x1="497.361" y1="138.805" x2="492.864" y2="125.535"/>
<line fill="none" stroke="#56DAF3" stroke-width="1.5" stroke-linecap="square" stroke-miterlimit="10" x1="489.643" y1="141.422" x2="485.146" y2="128.152"/>
<line fill="none" stroke="#56DAF3" stroke-width="1.5" stroke-linecap="square" stroke-miterlimit="10" x1="499.084" y1="134.248" x2="501.771" y2="133.338"/>
<line fill="none" stroke="#56DAF3" stroke-width="1.5" stroke-linecap="square" stroke-miterlimit="10" x1="496.876" y1="127.74" x2="499.565" y2="126.83"/>
<line fill="none" stroke="#56DAF3" stroke-width="1.5" stroke-linecap="square" stroke-miterlimit="10" x1="482.893" y1="139.654" x2="485.482" y2="138.777"/>
<line fill="none" stroke="#56DAF3" stroke-width="1.5" stroke-linecap="square" stroke-miterlimit="10" x1="480.688" y1="133.148" x2="483.275" y2="132.271"/>
<path fill="none" stroke="#56DAF3" stroke-width="1.5" stroke-linecap="square" stroke-miterlimit="10" d="M461.119,28.389
	l-2.113-38.905c-0.037-0.674,0.48-1.25,1.154-1.286l25.208-1.368c0.672-0.036,1.25,0.48,1.285,1.152l1.938,35.68l-8.081,8.253
	l-19.146,1.039"/>
<polyline fill="none" stroke="#56DAF3" stroke-width="1.5" stroke-linecap="square" stroke-miterlimit="10" points="482.679,-8.267 
	484.121,18.314 464.654,19.369 463.212,-7.21 478.868,-8.061 "/>
<line fill="none" stroke="#56DAF3" stroke-width="1.5" stroke-linecap="square" stroke-miterlimit="10" x1="480.474" y1="0.944" x2="466.482" y2="1.705"/>
<line fill="none" stroke="#56DAF3" stroke-width="1.5" stroke-linecap="square" stroke-miterlimit="10" x1="480.915" y1="9.083" x2="466.924" y2="9.842"/>
<line fill="none" stroke="#56DAF3" stroke-width="1.5" stroke-linecap="square" stroke-miterlimit="10" x1="476.548" y1="-1.938" x2="476.395" y2="-4.772"/>
<line fill="none" stroke="#56DAF3" stroke-width="1.5" stroke-linecap="square" stroke-miterlimit="10" x1="469.686" y1="-1.567" x2="469.533" y2="-4.4"/>
<line fill="none" stroke="#56DAF3" stroke-width="1.5" stroke-linecap="square" stroke-miterlimit="10" x1="477.396" y1="15.109" x2="477.249" y2="12.38"/>
<line fill="none" stroke="#56DAF3" stroke-width="1.5" stroke-linecap="square" stroke-miterlimit="10" x1="470.536" y1="15.48" x2="470.388" y2="12.751"/>
<path fill="none" stroke="#56DAF3" stroke-width="1.5" stroke-linecap="square" stroke-miterlimit="10" d="M591.632,138.256
	l5.514,38.571c0.097,0.668-0.368,1.285-1.036,1.384l-24.991,3.571c-0.668,0.095-1.289-0.368-1.383-1.034l-5.057-35.375l7.328-8.929
	l18.98-2.715"/>
<polyline fill="none" stroke="#56DAF3" stroke-width="1.5" stroke-linecap="square" stroke-miterlimit="10" points="573.366,176.66 
	569.6,150.309 588.9,147.551 592.665,173.904 577.146,176.121 "/>
<line fill="none" stroke="#56DAF3" stroke-width="1.5" stroke-linecap="square" stroke-miterlimit="10" x1="574.757" y1="167.291" x2="588.627" y2="165.309"/>
<line fill="none" stroke="#56DAF3" stroke-width="1.5" stroke-linecap="square" stroke-miterlimit="10" x1="573.602" y1="159.223" x2="587.474" y2="157.24"/>
<line fill="none" stroke="#56DAF3" stroke-width="1.5" stroke-linecap="square" stroke-miterlimit="10" x1="578.919" y1="169.822" x2="579.32" y2="172.631"/>
<line fill="none" stroke="#56DAF3" stroke-width="1.5" stroke-linecap="square" stroke-miterlimit="10" x1="585.722" y1="168.848" x2="586.124" y2="171.656"/>
<line fill="none" stroke="#56DAF3" stroke-width="1.5" stroke-linecap="square" stroke-miterlimit="10" x1="576.579" y1="152.912" x2="576.967" y2="155.619"/>
<line fill="none" stroke="#56DAF3" stroke-width="1.5" stroke-linecap="square" stroke-miterlimit="10" x1="583.38" y1="151.939" x2="583.768" y2="154.646"/>
<path fill="none" stroke="#56DAF3" stroke-width="1.5" stroke-linecap="square" stroke-miterlimit="10" d="M559.727,45.93
	l-38.677-4.733c-0.669-0.082-1.145-0.69-1.063-1.361l3.067-25.059c0.081-0.669,0.689-1.147,1.36-1.066l35.468,4.341l6.711,9.402
	l-2.329,19.031"/>
<polyline fill="none" stroke="#56DAF3" stroke-width="1.5" stroke-linecap="square" stroke-miterlimit="10" points="527.409,18.284 
	553.834,21.518 551.466,40.869 525.044,37.634 526.947,22.072 "/>
<line fill="none" stroke="#56DAF3" stroke-width="1.5" stroke-linecap="square" stroke-miterlimit="10" x1="536.094" y1="22.068" x2="534.393" y2="35.976"/>
<line fill="none" stroke="#56DAF3" stroke-width="1.5" stroke-linecap="square" stroke-miterlimit="10" x1="544.186" y1="23.059" x2="542.481" y2="36.966"/>
<line fill="none" stroke="#56DAF3" stroke-width="1.5" stroke-linecap="square" stroke-miterlimit="10" x1="532.567" y1="25.428" x2="529.751" y2="25.083"/>
<line fill="none" stroke="#56DAF3" stroke-width="1.5" stroke-linecap="square" stroke-miterlimit="10" x1="531.731" y1="32.249" x2="528.916" y2="31.904"/>
<line fill="none" stroke="#56DAF3" stroke-width="1.5" stroke-linecap="square" stroke-miterlimit="10" x1="549.501" y1="27.577" x2="546.789" y2="27.247"/>
<line fill="none" stroke="#56DAF3" stroke-width="1.5" stroke-linecap="square" stroke-miterlimit="10" x1="548.666" y1="34.399" x2="545.954" y2="34.066"/>
<path fill="none" stroke="#56DAF3" stroke-width="1.5" stroke-linecap="square" stroke-miterlimit="10" d="M640.884,120.264
	l-19.646,33.646c-0.34,0.584-1.09,0.779-1.672,0.438l-21.8-12.729c-0.584-0.338-0.78-1.088-0.441-1.67l18.02-30.854l11.29-2.445
	l16.557,9.668"/>
<polyline fill="none" stroke="#56DAF3" stroke-width="1.5" stroke-linecap="square" stroke-miterlimit="10" points="
	602.708,139.006 616.133,116.018 632.966,125.85 619.543,148.836 606.004,140.93 "/>
<line fill="none" stroke="#56DAF3" stroke-width="1.5" stroke-linecap="square" stroke-miterlimit="10" x1="609.62" y1="132.527" x2="621.718" y2="139.592"/>
<line fill="none" stroke="#56DAF3" stroke-width="1.5" stroke-linecap="square" stroke-miterlimit="10" x1="613.729" y1="125.488" x2="625.829" y2="132.555"/>
<line fill="none" stroke="#56DAF3" stroke-width="1.5" stroke-linecap="square" stroke-miterlimit="10" x1="611.311" y1="137.096" x2="609.878" y2="139.545"/>
<line fill="none" stroke="#56DAF3" stroke-width="1.5" stroke-linecap="square" stroke-miterlimit="10" x1="617.244" y1="140.561" x2="615.813" y2="143.012"/>
<line fill="none" stroke="#56DAF3" stroke-width="1.5" stroke-linecap="square" stroke-miterlimit="10" x1="619.981" y1="122.395" x2="618.604" y2="124.754"/>
<line fill="none" stroke="#56DAF3" stroke-width="1.5" stroke-linecap="square" stroke-miterlimit="10" x1="625.916" y1="125.857" x2="624.537" y2="128.219"/>
<path fill="none" stroke="#56DAF3" stroke-width="1.5" stroke-linecap="square" stroke-miterlimit="10" d="M623.182-6.657
	l36.49,13.666c0.631,0.238,0.952,0.941,0.714,1.573l-8.854,23.642c-0.236,0.631-0.94,0.954-1.571,0.717l-33.462-12.534
	l-4.321-10.713l6.725-17.955"/>
<polyline fill="none" stroke="#56DAF3" stroke-width="1.5" stroke-linecap="square" stroke-miterlimit="10" points="648.119,27.794 
	623.189,18.458 630.028,0.2 654.957,9.539 649.457,24.218 "/>
<line fill="none" stroke="#56DAF3" stroke-width="1.5" stroke-linecap="square" stroke-miterlimit="10" x1="640.563" y1="22.081" x2="645.477" y2="8.958"/>
<line fill="none" stroke="#56DAF3" stroke-width="1.5" stroke-linecap="square" stroke-miterlimit="10" x1="632.931" y1="19.221" x2="637.845" y2="6.1"/>
<line fill="none" stroke="#56DAF3" stroke-width="1.5" stroke-linecap="square" stroke-miterlimit="10" x1="644.78" y1="19.641" x2="647.438" y2="20.636"/>
<line fill="none" stroke="#56DAF3" stroke-width="1.5" stroke-linecap="square" stroke-miterlimit="10" x1="647.189" y1="13.206" x2="649.847" y2="14.2"/>
<line fill="none" stroke="#56DAF3" stroke-width="1.5" stroke-linecap="square" stroke-miterlimit="10" x1="628.822" y1="13.582" x2="631.382" y2="14.541"/>
<line fill="none" stroke="#56DAF3" stroke-width="1.5" stroke-linecap="square" stroke-miterlimit="10" x1="631.231" y1="7.148" x2="633.792" y2="8.105"/>
<path fill="none" stroke="#56DAF3" stroke-width="1.5" stroke-linecap="square" stroke-miterlimit="10" d="M675.822,146.422
	l7.203-38.293c0.123-0.662,0.763-1.1,1.426-0.973l24.81,4.666c0.663,0.123,1.102,0.762,0.978,1.426l-6.604,35.115l-9.813,6.096
	l-18.842-3.545"/>
<polyline fill="none" stroke="#56DAF3" stroke-width="1.5" stroke-linecap="square" stroke-miterlimit="10" points="
	705.481,115.945 700.563,142.105 681.402,138.502 686.323,112.342 701.731,115.24 "/>
<line fill="none" stroke="#56DAF3" stroke-width="1.5" stroke-linecap="square" stroke-miterlimit="10" x1="701.149" y1="124.367" x2="687.378" y2="121.779"/>
<line fill="none" stroke="#56DAF3" stroke-width="1.5" stroke-linecap="square" stroke-miterlimit="10" x1="699.643" y1="132.379" x2="685.873" y2="129.787"/>
<line fill="none" stroke="#56DAF3" stroke-width="1.5" stroke-linecap="square" stroke-miterlimit="10" x1="698.023" y1="120.633" x2="698.546" y2="117.844"/>
<line fill="none" stroke="#56DAF3" stroke-width="1.5" stroke-linecap="square" stroke-miterlimit="10" x1="691.271" y1="119.363" x2="691.794" y2="116.574"/>
<line fill="none" stroke="#56DAF3" stroke-width="1.5" stroke-linecap="square" stroke-miterlimit="10" x1="694.791" y1="137.395" x2="695.298" y2="134.707"/>
<line fill="none" stroke="#56DAF3" stroke-width="1.5" stroke-linecap="square" stroke-miterlimit="10" x1="688.04" y1="136.125" x2="688.546" y2="133.438"/>
<path fill="none" stroke="#56DAF3" stroke-width="1.5" stroke-linecap="square" stroke-miterlimit="10" d="M706.826,28.389
	l-2.112-38.905c-0.035-0.674,0.48-1.25,1.154-1.286l25.208-1.368c0.674-0.036,1.25,0.48,1.286,1.152l1.937,35.68l-8.081,8.253
	l-19.145,1.039"/>
<polyline fill="none" stroke="#56DAF3" stroke-width="1.5" stroke-linecap="square" stroke-miterlimit="10" points="728.387,-8.267 
	729.828,18.314 710.362,19.369 708.921,-7.21 724.576,-8.061 "/>
<line fill="none" stroke="#56DAF3" stroke-width="1.5" stroke-linecap="square" stroke-miterlimit="10" x1="726.181" y1="0.944" x2="712.19" y2="1.705"/>
<line fill="none" stroke="#56DAF3" stroke-width="1.5" stroke-linecap="square" stroke-miterlimit="10" x1="726.622" y1="9.083" x2="712.631" y2="9.842"/>
<line fill="none" stroke="#56DAF3" stroke-width="1.5" stroke-linecap="square" stroke-miterlimit="10" x1="722.255" y1="-1.938" x2="722.102" y2="-4.772"/>
<line fill="none" stroke="#56DAF3" stroke-width="1.5" stroke-linecap="square" stroke-miterlimit="10" x1="715.395" y1="-1.567" x2="715.24" y2="-4.4"/>
<line fill="none" stroke="#56DAF3" stroke-width="1.5" stroke-linecap="square" stroke-miterlimit="10" x1="723.104" y1="15.109" x2="722.956" y2="12.38"/>
<line fill="none" stroke="#56DAF3" stroke-width="1.5" stroke-linecap="square" stroke-miterlimit="10" x1="716.243" y1="15.48" x2="716.095" y2="12.751"/>
<path fill="none" stroke="#56DAF3" stroke-width="1.5" stroke-linecap="square" stroke-miterlimit="10" d="M811.025,117.756
	l5.512,38.571c0.096,0.669-0.369,1.285-1.036,1.384l-24.991,3.571c-0.668,0.095-1.288-0.368-1.383-1.034l-5.056-35.375l7.328-8.929
	l18.979-2.715"/>
<polyline fill="none" stroke="#56DAF3" stroke-width="1.5" stroke-linecap="square" stroke-miterlimit="10" points="792.76,156.16 
	788.993,129.809 808.292,127.051 812.061,153.404 796.539,155.621 "/>
<line fill="none" stroke="#56DAF3" stroke-width="1.5" stroke-linecap="square" stroke-miterlimit="10" x1="794.149" y1="146.791" x2="808.018" y2="144.809"/>
<line fill="none" stroke="#56DAF3" stroke-width="1.5" stroke-linecap="square" stroke-miterlimit="10" x1="792.996" y1="138.723" x2="806.867" y2="136.74"/>
<line fill="none" stroke="#56DAF3" stroke-width="1.5" stroke-linecap="square" stroke-miterlimit="10" x1="798.313" y1="149.322" x2="798.714" y2="152.131"/>
<line fill="none" stroke="#56DAF3" stroke-width="1.5" stroke-linecap="square" stroke-miterlimit="10" x1="805.114" y1="148.348" x2="805.518" y2="151.156"/>
<line fill="none" stroke="#56DAF3" stroke-width="1.5" stroke-linecap="square" stroke-miterlimit="10" x1="795.974" y1="132.412" x2="796.361" y2="135.119"/>
<line fill="none" stroke="#56DAF3" stroke-width="1.5" stroke-linecap="square" stroke-miterlimit="10" x1="802.773" y1="131.439" x2="803.162" y2="134.146"/>
<path fill="none" stroke="#56DAF3" stroke-width="1.5" stroke-linecap="square" stroke-miterlimit="10" d="M790.358,58.717
	l-38.677-4.732c-0.67-0.083-1.146-0.692-1.063-1.361l3.065-25.06c0.082-0.668,0.691-1.146,1.361-1.065l35.467,4.34l6.711,9.403
	l-2.328,19.03"/>
<polyline fill="none" stroke="#56DAF3" stroke-width="1.5" stroke-linecap="square" stroke-miterlimit="10" points="758.042,31.071 
	784.466,34.304 782.097,53.656 755.675,50.422 757.578,34.86 "/>
<line fill="none" stroke="#56DAF3" stroke-width="1.5" stroke-linecap="square" stroke-miterlimit="10" x1="766.727" y1="34.856" x2="765.025" y2="48.764"/>
<line fill="none" stroke="#56DAF3" stroke-width="1.5" stroke-linecap="square" stroke-miterlimit="10" x1="774.816" y1="35.845" x2="773.113" y2="49.754"/>
<line fill="none" stroke="#56DAF3" stroke-width="1.5" stroke-linecap="square" stroke-miterlimit="10" x1="763.199" y1="38.215" x2="760.383" y2="37.872"/>
<line fill="none" stroke="#56DAF3" stroke-width="1.5" stroke-linecap="square" stroke-miterlimit="10" x1="762.364" y1="45.036" x2="759.548" y2="44.691"/>
<line fill="none" stroke="#56DAF3" stroke-width="1.5" stroke-linecap="square" stroke-miterlimit="10" x1="780.133" y1="40.366" x2="777.42" y2="40.033"/>
<line fill="none" stroke="#56DAF3" stroke-width="1.5" stroke-linecap="square" stroke-miterlimit="10" x1="779.298" y1="47.186" x2="776.585" y2="46.854"/>
<path fill="none" stroke="#56DAF3" stroke-width="1.5" stroke-linecap="square" stroke-miterlimit="10" d="M860.276,70.158
	l-19.647,33.648c-0.34,0.582-1.088,0.777-1.67,0.439l-21.801-12.732c-0.583-0.34-0.781-1.088-0.44-1.67l18.019-30.857l11.29-2.443
	l16.557,9.667"/>
<polyline fill="none" stroke="#56DAF3" stroke-width="1.5" stroke-linecap="square" stroke-miterlimit="10" points="822.102,88.9 
	835.525,65.911 852.358,75.743 838.937,98.73 825.397,90.822 "/>
<line fill="none" stroke="#56DAF3" stroke-width="1.5" stroke-linecap="square" stroke-miterlimit="10" x1="829.013" y1="82.422" x2="841.112" y2="89.488"/>
<line fill="none" stroke="#56DAF3" stroke-width="1.5" stroke-linecap="square" stroke-miterlimit="10" x1="833.123" y1="75.383" x2="845.223" y2="82.451"/>
<line fill="none" stroke="#56DAF3" stroke-width="1.5" stroke-linecap="square" stroke-miterlimit="10" x1="830.704" y1="86.992" x2="829.272" y2="89.439"/>
<line fill="none" stroke="#56DAF3" stroke-width="1.5" stroke-linecap="square" stroke-miterlimit="10" x1="836.637" y1="90.455" x2="835.205" y2="92.908"/>
<line fill="none" stroke="#56DAF3" stroke-width="1.5" stroke-linecap="square" stroke-miterlimit="10" x1="839.377" y1="72.289" x2="837.998" y2="74.649"/>
<line fill="none" stroke="#56DAF3" stroke-width="1.5" stroke-linecap="square" stroke-miterlimit="10" x1="845.311" y1="75.753" x2="843.932" y2="78.113"/>
<path fill="none" stroke="#56DAF3" stroke-width="1.5" stroke-linecap="square" stroke-miterlimit="10" d="M868.89-6.657
	l36.49,13.666c0.631,0.238,0.952,0.941,0.715,1.573l-8.854,23.642c-0.236,0.631-0.939,0.954-1.571,0.717l-33.464-12.534
	l-4.32-10.713l6.726-17.955"/>
<polyline fill="none" stroke="#56DAF3" stroke-width="1.5" stroke-linecap="square" stroke-miterlimit="10" points="893.825,27.794 
	868.897,18.458 875.736,0.2 900.664,9.539 895.165,24.218 "/>
<line fill="none" stroke="#56DAF3" stroke-width="1.5" stroke-linecap="square" stroke-miterlimit="10" x1="886.271" y1="22.081" x2="891.186" y2="8.958"/>
<line fill="none" stroke="#56DAF3" stroke-width="1.5" stroke-linecap="square" stroke-miterlimit="10" x1="878.639" y1="19.221" x2="883.554" y2="6.1"/>
<line fill="none" stroke="#56DAF3" stroke-width="1.5" stroke-linecap="square" stroke-miterlimit="10" x1="890.488" y1="19.641" x2="893.145" y2="20.636"/>
<line fill="none" stroke="#56DAF3" stroke-width="1.5" stroke-linecap="square" stroke-miterlimit="10" x1="892.898" y1="13.206" x2="895.555" y2="14.2"/>
<line fill="none" stroke="#56DAF3" stroke-width="1.5" stroke-linecap="square" stroke-miterlimit="10" x1="874.529" y1="13.582" x2="877.09" y2="14.541"/>
<line fill="none" stroke="#56DAF3" stroke-width="1.5" stroke-linecap="square" stroke-miterlimit="10" x1="876.941" y1="7.148" x2="879.5" y2="8.105"/>
<path fill="none" stroke="#56DAF3" stroke-width="1.5" stroke-linecap="square" stroke-miterlimit="10" d="M895.216,114.922
	l7.202-38.292c0.123-0.661,0.763-1.099,1.426-0.973l24.811,4.667c0.664,0.123,1.101,0.763,0.977,1.427l-6.603,35.114l-9.813,6.097
	l-18.843-3.545"/>
<polyline fill="none" stroke="#56DAF3" stroke-width="1.5" stroke-linecap="square" stroke-miterlimit="10" points="924.875,84.445 
	919.955,110.605 900.796,107.002 905.717,80.842 921.124,83.74 "/>
<line fill="none" stroke="#56DAF3" stroke-width="1.5" stroke-linecap="square" stroke-miterlimit="10" x1="920.542" y1="92.867" x2="906.772" y2="90.279"/>
<line fill="none" stroke="#56DAF3" stroke-width="1.5" stroke-linecap="square" stroke-miterlimit="10" x1="919.036" y1="100.879" x2="905.265" y2="98.287"/>
<line fill="none" stroke="#56DAF3" stroke-width="1.5" stroke-linecap="square" stroke-miterlimit="10" x1="917.416" y1="89.133" x2="917.938" y2="86.344"/>
<line fill="none" stroke="#56DAF3" stroke-width="1.5" stroke-linecap="square" stroke-miterlimit="10" x1="910.663" y1="87.863" x2="911.188" y2="85.074"/>
<line fill="none" stroke="#56DAF3" stroke-width="1.5" stroke-linecap="square" stroke-miterlimit="10" x1="914.186" y1="105.895" x2="914.691" y2="103.207"/>
<line fill="none" stroke="#56DAF3" stroke-width="1.5" stroke-linecap="square" stroke-miterlimit="10" x1="907.434" y1="104.625" x2="907.939" y2="101.938"/>
<path fill="none" stroke="#56DAF3" stroke-width="1.5" stroke-linecap="square" stroke-miterlimit="10" d="M726.432,124.801
	l36.901-12.508c0.639-0.218,1.332,0.129,1.55,0.766l8.104,23.91c0.218,0.639-0.124,1.332-0.764,1.549l-33.842,11.471l-10.124-5.561
	l-6.153-18.158"/>
<polyline fill="none" stroke="#56DAF3" stroke-width="1.5" stroke-linecap="square" stroke-miterlimit="10" points="
	767.541,135.699 742.328,144.242 736.071,125.779 761.282,117.234 766.314,132.084 "/>
<line fill="none" stroke="#56DAF3" stroke-width="1.5" stroke-linecap="square" stroke-miterlimit="10" x1="758.073" y1="136.055" x2="753.576" y2="122.785"/>
<line fill="none" stroke="#56DAF3" stroke-width="1.5" stroke-linecap="square" stroke-miterlimit="10" x1="750.355" y1="138.672" x2="745.858" y2="125.402"/>
<line fill="none" stroke="#56DAF3" stroke-width="1.5" stroke-linecap="square" stroke-miterlimit="10" x1="759.796" y1="131.498" x2="762.482" y2="130.588"/>
<line fill="none" stroke="#56DAF3" stroke-width="1.5" stroke-linecap="square" stroke-miterlimit="10" x1="757.588" y1="124.99" x2="760.277" y2="124.08"/>
<line fill="none" stroke="#56DAF3" stroke-width="1.5" stroke-linecap="square" stroke-miterlimit="10" x1="743.604" y1="136.904" x2="746.194" y2="136.027"/>
<line fill="none" stroke="#56DAF3" stroke-width="1.5" stroke-linecap="square" stroke-miterlimit="10" x1="741.4" y1="130.398" x2="743.987" y2="129.521"/>
</svg>
