<?xml version="1.0" encoding="utf-8"?>
<!-- Generator: Adobe Illustrator 16.0.0, SVG Export Plug-In . SVG Version: 6.00 Build 0)  -->
<!DOCTYPE svg PUBLIC "-//W3C//DTD SVG 1.1//EN" "http://www.w3.org/Graphics/SVG/1.1/DTD/svg11.dtd">
<svg version="1.1" id="Layer_1" xmlns="http://www.w3.org/2000/svg" xmlns:xlink="http://www.w3.org/1999/xlink" x="0px" y="0px"
	 width="960px" height="160px" viewBox="0 0 960 160" enable-background="new 0 0 960 160" xml:space="preserve">
<g id="Layer_2">
</g>
<rect fill="#56DAF3" width="960" height="160"/>
<path fill="none" stroke="#FFFFFF" stroke-width="1.5" stroke-linecap="square" stroke-linejoin="round" stroke-miterlimit="10" d="
	M121.761,97.168l-32.15-10.881c-0.585-0.199-0.9-0.834-0.702-1.42l8.462-25c0.198-0.584,0.833-0.898,1.418-0.7l36.583,12.382
	c0.586,0.198,0.9,0.833,0.702,1.42l-8.82,26.058"/>
<line fill="none" stroke="#FFFFFF" stroke-width="1.5" stroke-linecap="square" stroke-linejoin="round" stroke-miterlimit="10" x1="98.196" y1="67.524" x2="130.686" y2="78.521"/>
<line fill="none" stroke="#FFFFFF" stroke-width="1.5" stroke-linecap="square" stroke-linejoin="round" stroke-miterlimit="10" x1="96.39" y1="81.391" x2="107.142" y2="85.031"/>
<line fill="none" stroke="#FFFFFF" stroke-width="1.5" stroke-linecap="square" stroke-linejoin="round" stroke-miterlimit="10" x1="97.437" y1="78.298" x2="105.538" y2="81.04"/>
<line fill="none" stroke="#FFFFFF" stroke-width="1.5" stroke-linecap="square" stroke-linejoin="round" stroke-miterlimit="10" x1="97.233" y1="70.645" x2="129.724" y2="81.643"/>
<path fill="none" stroke="#FFFFFF" stroke-width="1.5" stroke-linecap="square" stroke-miterlimit="10" d="M34.049,38.612
	l16.78,3.744c0.363,0.081,0.592,0.443,0.509,0.811l-6.535,29.287c-0.082,0.367-0.442,0.598-0.806,0.517l-16.121-3.597
	c-0.365-0.081-0.592-0.444-0.511-0.811l5.727-25.665"/>
<path fill="none" stroke="#FFFFFF" stroke-width="1.5" stroke-linecap="square" stroke-miterlimit="10" d="M45.88,81.146
	l-22.295-4.973c-0.49-0.109-0.798-0.595-0.688-1.085l8.804-39.455c0.108-0.49,0.594-0.799,1.084-0.689l21.409,4.777
	c0.489,0.109,0.797,0.594,0.688,1.084l-8.055,36.106"/>
<path fill="#FFFFFF" stroke="#FFFFFF" stroke-width="1.5" stroke-miterlimit="10" d="M36.506,75.227
	c-0.173,0.777-0.942,1.266-1.717,1.092c-0.775-0.174-1.263-0.941-1.089-1.717c0.172-0.774,0.94-1.264,1.717-1.09
	C36.19,73.685,36.679,74.454,36.506,75.227"/>
<path fill="none" stroke="#FFFFFF" stroke-width="1.5" stroke-linecap="square" stroke-linejoin="round" stroke-miterlimit="10" d="
	M41.877,114.902l30.363,15.17c0.553,0.275,0.778,0.947,0.501,1.5l-11.795,23.609c-0.276,0.553-0.949,0.777-1.5,0.502l-34.55-17.26
	c-0.553-0.277-0.778-0.949-0.501-1.502l12.294-24.611"/>
<line fill="none" stroke="#FFFFFF" stroke-width="1.5" stroke-linecap="square" stroke-linejoin="round" stroke-miterlimit="10" x1="61.176" y1="147.484" x2="30.49" y2="132.154"/>
<line fill="none" stroke="#FFFFFF" stroke-width="1.5" stroke-linecap="square" stroke-linejoin="round" stroke-miterlimit="10" x1="64.857" y1="133.994" x2="54.701" y2="128.922"/>
<line fill="none" stroke="#FFFFFF" stroke-width="1.5" stroke-linecap="square" stroke-linejoin="round" stroke-miterlimit="10" x1="63.397" y1="136.916" x2="55.746" y2="133.094"/>
<line fill="none" stroke="#FFFFFF" stroke-width="1.5" stroke-linecap="square" stroke-linejoin="round" stroke-miterlimit="10" x1="62.555" y1="144.525" x2="31.869" y2="129.195"/>
<path fill="none" stroke="#FFFFFF" stroke-width="1.5" stroke-linecap="square" stroke-miterlimit="10" d="M133.155,158.512
	l-8.813-36.895c-0.152-0.641,0.242-1.279,0.88-1.434l23.907-5.711c0.639-0.15,1.28,0.24,1.434,0.881l8.081,33.834l-6.3,9.314
	l-18.154,4.338"/>
<polyline fill="none" stroke="#FFFFFF" stroke-width="1.5" stroke-linecap="square" stroke-miterlimit="10" points="
	147.407,119.641 153.428,144.846 134.969,149.256 128.948,124.049 143.793,120.504 "/>
<line fill="none" stroke="#FFFFFF" stroke-width="1.5" stroke-linecap="square" stroke-miterlimit="10" x1="146.904" y1="128.848" x2="133.637" y2="132.018"/>
<line fill="none" stroke="#FFFFFF" stroke-width="1.5" stroke-linecap="square" stroke-miterlimit="10" x1="148.747" y1="136.566" x2="135.48" y2="139.736"/>
<line fill="none" stroke="#FFFFFF" stroke-width="1.5" stroke-linecap="square" stroke-miterlimit="10" x1="142.64" y1="126.771" x2="141.998" y2="124.084"/>
<line fill="none" stroke="#FFFFFF" stroke-width="1.5" stroke-linecap="square" stroke-miterlimit="10" x1="136.134" y1="128.326" x2="135.492" y2="125.639"/>
<line fill="none" stroke="#FFFFFF" stroke-width="1.5" stroke-linecap="square" stroke-miterlimit="10" x1="146.429" y1="142.951" x2="145.81" y2="140.363"/>
<line fill="none" stroke="#FFFFFF" stroke-width="1.5" stroke-linecap="square" stroke-miterlimit="10" x1="139.923" y1="144.506" x2="139.305" y2="141.916"/>
<path fill="none" stroke="#FFFFFF" stroke-width="1.5" stroke-linecap="square" stroke-miterlimit="10" d="M244.931,158.002
	l-16.409-5.133c-0.356-0.111-0.552-0.49-0.441-0.85l8.956-28.641c0.112-0.357,0.491-0.559,0.847-0.447l15.763,4.93
	c0.356,0.109,0.553,0.49,0.441,0.848l-7.848,25.098"/>
<path fill="none" stroke="#FFFFFF" stroke-width="1.5" stroke-linecap="square" stroke-miterlimit="10" d="M236.69,114.627
	l21.803,6.818c0.48,0.148,0.746,0.658,0.597,1.139l-12.065,38.584c-0.151,0.479-0.659,0.746-1.14,0.596l-20.936-6.547
	c-0.479-0.148-0.745-0.658-0.596-1.139l11.041-35.309"/>
<path fill="#FFFFFF" stroke="#FFFFFF" stroke-width="1.5" stroke-miterlimit="10" d="M245.537,121.309
	c0.236-0.76,1.043-1.182,1.803-0.943c0.759,0.236,1.18,1.045,0.944,1.803c-0.237,0.758-1.043,1.182-1.803,0.943
	C245.723,122.873,245.301,122.064,245.537,121.309"/>
<path fill="none" stroke="#FFFFFF" stroke-width="1.5" stroke-linecap="square" stroke-linejoin="round" stroke-miterlimit="10" d="
	M189.347,27.59l33.901,1.673c0.617,0.03,1.092,0.555,1.062,1.172l-1.3,26.36c-0.03,0.617-0.555,1.093-1.173,1.062l-38.574-1.902
	c-0.618-0.031-1.093-0.556-1.063-1.173l1.356-27.478"/>
<line fill="none" stroke="#FFFFFF" stroke-width="1.5" stroke-linecap="square" stroke-linejoin="round" stroke-miterlimit="10" x1="220.123" y1="49.656" x2="185.863" y2="47.966"/>
<line fill="none" stroke="#FFFFFF" stroke-width="1.5" stroke-linecap="square" stroke-linejoin="round" stroke-miterlimit="10" x1="218.066" y1="35.826" x2="206.729" y2="35.265"/>
<line fill="none" stroke="#FFFFFF" stroke-width="1.5" stroke-linecap="square" stroke-linejoin="round" stroke-miterlimit="10" x1="217.906" y1="39.087" x2="209.363" y2="38.665"/>
<line fill="none" stroke="#FFFFFF" stroke-width="1.5" stroke-linecap="square" stroke-linejoin="round" stroke-miterlimit="10" x1="220.196" y1="46.391" x2="185.934" y2="44.701"/>
<path fill="none" stroke="#FFFFFF" stroke-width="1.5" stroke-linecap="square" stroke-miterlimit="10" d="M146.109,26.579
	l-35.834,12.442c-0.62,0.215-1.298-0.113-1.513-0.733l-8.061-23.219c-0.215-0.62,0.113-1.299,0.732-1.514l32.862-11.41l9.896,5.341
	l6.123,17.633"/>
<polyline fill="none" stroke="#FFFFFF" stroke-width="1.5" stroke-linecap="square" stroke-miterlimit="10" points="106.011,16.266 
	130.493,7.766 136.718,25.696 112.236,34.196 107.23,19.777 "/>
<line fill="none" stroke="#FFFFFF" stroke-width="1.5" stroke-linecap="square" stroke-miterlimit="10" x1="115.223" y1="15.851" x2="119.698" y2="28.737"/>
<line fill="none" stroke="#FFFFFF" stroke-width="1.5" stroke-linecap="square" stroke-miterlimit="10" x1="122.719" y1="13.249" x2="127.193" y2="26.135"/>
<line fill="none" stroke="#FFFFFF" stroke-width="1.5" stroke-linecap="square" stroke-miterlimit="10" x1="113.58" y1="20.301" x2="110.971" y2="21.207"/>
<line fill="none" stroke="#FFFFFF" stroke-width="1.5" stroke-linecap="square" stroke-miterlimit="10" x1="115.774" y1="26.62" x2="113.164" y2="27.526"/>
<line fill="none" stroke="#FFFFFF" stroke-width="1.5" stroke-linecap="square" stroke-miterlimit="10" x1="129.304" y1="14.92" x2="126.789" y2="15.793"/>
<line fill="none" stroke="#FFFFFF" stroke-width="1.5" stroke-linecap="square" stroke-miterlimit="10" x1="131.497" y1="21.239" x2="128.983" y2="22.111"/>
<path fill="none" stroke="#FFFFFF" stroke-width="1.5" stroke-linecap="square" stroke-miterlimit="10" d="M425.018,23.77
	l36.318-10.944c0.629-0.189,1.292,0.166,1.481,0.795l7.09,23.533c0.189,0.628-0.167,1.293-0.797,1.482l-33.304,10.037l-9.667-5.748
	l-5.386-17.872"/>
<polyline fill="none" stroke="#FFFFFF" stroke-width="1.5" stroke-linecap="square" stroke-miterlimit="10" points="464.651,35.737 
	439.838,43.213 434.362,25.04 459.175,17.564 463.58,32.179 "/>
<line fill="none" stroke="#FFFFFF" stroke-width="1.5" stroke-linecap="square" stroke-miterlimit="10" x1="455.431" y1="35.768" x2="451.493" y2="22.709"/>
<line fill="none" stroke="#FFFFFF" stroke-width="1.5" stroke-linecap="square" stroke-miterlimit="10" x1="447.832" y1="38.058" x2="443.897" y2="24.998"/>
<line fill="none" stroke="#FFFFFF" stroke-width="1.5" stroke-linecap="square" stroke-miterlimit="10" x1="457.256" y1="31.392" x2="459.901" y2="30.595"/>
<line fill="none" stroke="#FFFFFF" stroke-width="1.5" stroke-linecap="square" stroke-miterlimit="10" x1="455.326" y1="24.987" x2="457.972" y2="24.191"/>
<line fill="none" stroke="#FFFFFF" stroke-width="1.5" stroke-linecap="square" stroke-miterlimit="10" x1="441.324" y1="36.115" x2="443.872" y2="35.347"/>
<line fill="none" stroke="#FFFFFF" stroke-width="1.5" stroke-linecap="square" stroke-miterlimit="10" x1="439.395" y1="29.71" x2="441.942" y2="28.944"/>
<path fill="none" stroke="#FFFFFF" stroke-width="1.5" stroke-linecap="square" stroke-miterlimit="10" d="M512.888,5.455
	l16.78,3.744c0.363,0.081,0.591,0.444,0.509,0.811l-6.533,29.288c-0.082,0.366-0.443,0.597-0.808,0.516l-16.121-3.597
	c-0.364-0.081-0.592-0.444-0.51-0.812l5.728-25.664"/>
<path fill="none" stroke="#FFFFFF" stroke-width="1.5" stroke-linecap="square" stroke-miterlimit="10" d="M524.718,47.988
	l-22.296-4.974c-0.487-0.109-0.798-0.595-0.688-1.084l8.805-39.457c0.108-0.489,0.595-0.798,1.084-0.688l21.41,4.777
	c0.488,0.108,0.797,0.594,0.688,1.084l-8.056,36.106"/>
<path fill="#FFFFFF" stroke="#FFFFFF" stroke-width="1.5" stroke-miterlimit="10" d="M515.344,42.069
	c-0.175,0.777-0.942,1.266-1.719,1.092c-0.775-0.174-1.264-0.941-1.089-1.717c0.173-0.774,0.94-1.264,1.716-1.09
	C515.028,40.527,515.516,41.296,515.344,42.069"/>
<path fill="none" stroke="#FFFFFF" stroke-width="1.5" stroke-linecap="square" stroke-linejoin="round" stroke-miterlimit="10" d="
	M514.442,136.775l30.361,15.17c0.555,0.275,0.777,0.947,0.503,1.498l-11.798,23.611c-0.274,0.553-0.946,0.777-1.5,0.502
	l-34.549-17.26c-0.555-0.277-0.777-0.949-0.502-1.502l12.295-24.611"/>
<line fill="none" stroke="#FFFFFF" stroke-width="1.5" stroke-linecap="square" stroke-linejoin="round" stroke-miterlimit="10" x1="533.74" y1="169.357" x2="503.056" y2="154.027"/>
<line fill="none" stroke="#FFFFFF" stroke-width="1.5" stroke-linecap="square" stroke-linejoin="round" stroke-miterlimit="10" x1="537.422" y1="155.867" x2="527.268" y2="150.795"/>
<line fill="none" stroke="#FFFFFF" stroke-width="1.5" stroke-linecap="square" stroke-linejoin="round" stroke-miterlimit="10" x1="535.963" y1="158.789" x2="528.311" y2="154.967"/>
<line fill="none" stroke="#FFFFFF" stroke-width="1.5" stroke-linecap="square" stroke-linejoin="round" stroke-miterlimit="10" x1="535.121" y1="166.398" x2="504.435" y2="151.068"/>
<path fill="none" stroke="#FFFFFF" stroke-width="1.5" stroke-linecap="square" stroke-miterlimit="10" d="M615.461,165.541
	l-8.813-36.895c-0.152-0.639,0.241-1.279,0.879-1.432l23.906-5.711c0.641-0.152,1.28,0.24,1.434,0.881l8.082,33.834l-6.3,9.314
	l-18.153,4.338"/>
<polyline fill="none" stroke="#FFFFFF" stroke-width="1.5" stroke-linecap="square" stroke-miterlimit="10" points="629.713,126.67 
	635.733,151.875 617.274,156.285 611.254,131.078 626.1,127.535 "/>
<line fill="none" stroke="#FFFFFF" stroke-width="1.5" stroke-linecap="square" stroke-miterlimit="10" x1="629.21" y1="135.877" x2="615.941" y2="139.047"/>
<line fill="none" stroke="#FFFFFF" stroke-width="1.5" stroke-linecap="square" stroke-miterlimit="10" x1="631.053" y1="143.596" x2="617.785" y2="146.766"/>
<line fill="none" stroke="#FFFFFF" stroke-width="1.5" stroke-linecap="square" stroke-miterlimit="10" x1="624.945" y1="133.801" x2="624.304" y2="131.115"/>
<line fill="none" stroke="#FFFFFF" stroke-width="1.5" stroke-linecap="square" stroke-miterlimit="10" x1="618.439" y1="135.355" x2="617.798" y2="132.668"/>
<line fill="none" stroke="#FFFFFF" stroke-width="1.5" stroke-linecap="square" stroke-miterlimit="10" x1="628.734" y1="149.98" x2="628.116" y2="147.393"/>
<line fill="none" stroke="#FFFFFF" stroke-width="1.5" stroke-linecap="square" stroke-miterlimit="10" x1="622.229" y1="151.535" x2="621.611" y2="148.947"/>
<path fill="none" stroke="#FFFFFF" stroke-width="1.5" stroke-linecap="square" stroke-miterlimit="10" d="M729.856,156.811
	l-16.408-5.131c-0.354-0.109-0.553-0.492-0.44-0.852l8.956-28.641c0.113-0.359,0.49-0.557,0.847-0.447l15.764,4.93
	c0.354,0.111,0.555,0.492,0.44,0.85l-7.848,25.1"/>
<path fill="none" stroke="#FFFFFF" stroke-width="1.5" stroke-linecap="square" stroke-miterlimit="10" d="M721.616,113.438
	l21.803,6.816c0.479,0.15,0.746,0.66,0.599,1.139l-12.068,38.586c-0.148,0.48-0.658,0.746-1.139,0.596l-20.936-6.547
	c-0.48-0.15-0.746-0.658-0.596-1.141l11.04-35.309"/>
<path fill="#FFFFFF" stroke="#FFFFFF" stroke-width="1.5" stroke-miterlimit="10" d="M730.464,120.117
	c0.236-0.758,1.043-1.18,1.804-0.945c0.758,0.238,1.18,1.045,0.942,1.805c-0.236,0.76-1.043,1.182-1.803,0.943
	C730.649,121.682,730.228,120.873,730.464,120.117"/>
<path fill="none" stroke="#FFFFFF" stroke-width="1.5" stroke-linecap="square" stroke-linejoin="round" stroke-miterlimit="10" d="
	M655.543,34.397l33.9,1.672c0.617,0.03,1.093,0.556,1.061,1.172l-1.299,26.36c-0.031,0.617-0.557,1.093-1.172,1.062l-38.574-1.902
	c-0.619-0.031-1.095-0.555-1.063-1.173l1.354-27.478"/>
<line fill="none" stroke="#FFFFFF" stroke-width="1.5" stroke-linecap="square" stroke-linejoin="round" stroke-miterlimit="10" x1="686.318" y1="56.463" x2="652.059" y2="54.773"/>
<line fill="none" stroke="#FFFFFF" stroke-width="1.5" stroke-linecap="square" stroke-linejoin="round" stroke-miterlimit="10" x1="684.263" y1="42.631" x2="672.925" y2="42.072"/>
<line fill="none" stroke="#FFFFFF" stroke-width="1.5" stroke-linecap="square" stroke-linejoin="round" stroke-miterlimit="10" x1="684.102" y1="45.893" x2="675.559" y2="45.471"/>
<line fill="none" stroke="#FFFFFF" stroke-width="1.5" stroke-linecap="square" stroke-linejoin="round" stroke-miterlimit="10" x1="686.392" y1="53.198" x2="652.131" y2="51.508"/>
<path fill="none" stroke="#FFFFFF" stroke-width="1.5" stroke-linecap="square" stroke-linejoin="round" stroke-miterlimit="10" d="
	M368.52,41.05l-32.15-10.881c-0.585-0.2-0.898-0.834-0.701-1.418l8.461-25c0.198-0.586,0.833-0.9,1.419-0.701l36.582,12.382
	c0.587,0.198,0.9,0.833,0.703,1.419l-8.821,26.06"/>
<line fill="none" stroke="#FFFFFF" stroke-width="1.5" stroke-linecap="square" stroke-linejoin="round" stroke-miterlimit="10" x1="344.954" y1="11.407" x2="377.445" y2="22.405"/>
<line fill="none" stroke="#FFFFFF" stroke-width="1.5" stroke-linecap="square" stroke-linejoin="round" stroke-miterlimit="10" x1="343.149" y1="25.273" x2="353.902" y2="28.913"/>
<line fill="none" stroke="#FFFFFF" stroke-width="1.5" stroke-linecap="square" stroke-linejoin="round" stroke-miterlimit="10" x1="344.196" y1="22.18" x2="352.297" y2="24.923"/>
<line fill="none" stroke="#FFFFFF" stroke-width="1.5" stroke-linecap="square" stroke-linejoin="round" stroke-miterlimit="10" x1="343.991" y1="14.528" x2="376.483" y2="25.524"/>
<path fill="none" stroke="#FFFFFF" stroke-width="1.5" stroke-linecap="square" stroke-miterlimit="10" d="M618.674,26.579
	L582.84,39.021c-0.62,0.215-1.298-0.113-1.514-0.733l-8.061-23.219c-0.216-0.62,0.112-1.299,0.731-1.514l32.861-11.41l9.896,5.341
	l6.123,17.633"/>
<polyline fill="none" stroke="#FFFFFF" stroke-width="1.5" stroke-linecap="square" stroke-miterlimit="10" points="578.576,16.266 
	603.058,7.766 609.283,25.696 584.801,34.196 579.795,19.777 "/>
<line fill="none" stroke="#FFFFFF" stroke-width="1.5" stroke-linecap="square" stroke-miterlimit="10" x1="587.789" y1="15.851" x2="592.263" y2="28.737"/>
<line fill="none" stroke="#FFFFFF" stroke-width="1.5" stroke-linecap="square" stroke-miterlimit="10" x1="595.285" y1="13.249" x2="599.758" y2="26.135"/>
<line fill="none" stroke="#FFFFFF" stroke-width="1.5" stroke-linecap="square" stroke-miterlimit="10" x1="586.146" y1="20.301" x2="583.536" y2="21.207"/>
<line fill="none" stroke="#FFFFFF" stroke-width="1.5" stroke-linecap="square" stroke-miterlimit="10" x1="588.34" y1="26.62" x2="585.73" y2="27.526"/>
<line fill="none" stroke="#FFFFFF" stroke-width="1.5" stroke-linecap="square" stroke-miterlimit="10" x1="601.867" y1="14.92" x2="599.354" y2="15.793"/>
<line fill="none" stroke="#FFFFFF" stroke-width="1.5" stroke-linecap="square" stroke-miterlimit="10" x1="604.063" y1="21.239" x2="601.547" y2="22.111"/>
<path fill="none" stroke="#FFFFFF" stroke-width="1.5" stroke-linecap="square" stroke-miterlimit="10" d="M280.905,8.846
	l16.779,3.744c0.363,0.082,0.593,0.444,0.51,0.812l-6.536,29.287c-0.082,0.367-0.442,0.598-0.805,0.516l-16.12-3.596
	c-0.365-0.081-0.592-0.444-0.511-0.812l5.727-25.665"/>
<path fill="none" stroke="#FFFFFF" stroke-width="1.5" stroke-linecap="square" stroke-miterlimit="10" d="M292.735,51.382
	l-22.294-4.976c-0.49-0.108-0.798-0.594-0.688-1.084l8.802-39.456c0.109-0.489,0.595-0.798,1.085-0.688l21.409,4.776
	c0.49,0.11,0.797,0.596,0.688,1.085l-8.055,36.105"/>
<path fill="#FFFFFF" stroke="#FFFFFF" stroke-width="1.5" stroke-miterlimit="10" d="M283.362,45.463
	c-0.173,0.775-0.942,1.264-1.717,1.091c-0.777-0.175-1.263-0.941-1.09-1.718c0.172-0.774,0.94-1.263,1.717-1.089
	C283.047,43.921,283.534,44.687,283.362,45.463"/>
<path fill="none" stroke="#FFFFFF" stroke-width="1.5" stroke-linecap="square" stroke-linejoin="round" stroke-miterlimit="10" d="
	M288.734,119.697l30.362,15.17c0.553,0.273,0.779,0.945,0.503,1.5l-11.796,23.607c-0.276,0.555-0.948,0.777-1.5,0.5l-34.55-17.258
	c-0.553-0.277-0.777-0.949-0.501-1.502l12.294-24.609"/>
<line fill="none" stroke="#FFFFFF" stroke-width="1.5" stroke-linecap="square" stroke-linejoin="round" stroke-miterlimit="10" x1="308.033" y1="152.281" x2="277.346" y2="136.951"/>
<line fill="none" stroke="#FFFFFF" stroke-width="1.5" stroke-linecap="square" stroke-linejoin="round" stroke-miterlimit="10" x1="311.713" y1="138.787" x2="301.558" y2="133.717"/>
<line fill="none" stroke="#FFFFFF" stroke-width="1.5" stroke-linecap="square" stroke-linejoin="round" stroke-miterlimit="10" x1="310.254" y1="141.709" x2="302.603" y2="137.887"/>
<line fill="none" stroke="#FFFFFF" stroke-width="1.5" stroke-linecap="square" stroke-linejoin="round" stroke-miterlimit="10" x1="309.412" y1="149.32" x2="278.726" y2="133.992"/>
<path fill="none" stroke="#FFFFFF" stroke-width="1.5" stroke-linecap="square" stroke-miterlimit="10" d="M375.926,167.881
	l-8.813-36.893c-0.153-0.641,0.242-1.281,0.88-1.436l23.905-5.711c0.639-0.152,1.281,0.24,1.434,0.881l8.083,33.832l-6.3,9.316
	l-18.155,4.336"/>
<polyline fill="none" stroke="#FFFFFF" stroke-width="1.5" stroke-linecap="square" stroke-miterlimit="10" points="390.178,129.01 
	396.198,154.217 377.74,158.625 371.718,133.42 386.563,129.873 "/>
<line fill="none" stroke="#FFFFFF" stroke-width="1.5" stroke-linecap="square" stroke-miterlimit="10" x1="389.674" y1="138.217" x2="376.407" y2="141.387"/>
<line fill="none" stroke="#FFFFFF" stroke-width="1.5" stroke-linecap="square" stroke-miterlimit="10" x1="391.517" y1="145.936" x2="378.25" y2="149.104"/>
<line fill="none" stroke="#FFFFFF" stroke-width="1.5" stroke-linecap="square" stroke-miterlimit="10" x1="385.41" y1="136.141" x2="384.769" y2="133.453"/>
<line fill="none" stroke="#FFFFFF" stroke-width="1.5" stroke-linecap="square" stroke-miterlimit="10" x1="378.904" y1="137.693" x2="378.263" y2="135.008"/>
<line fill="none" stroke="#FFFFFF" stroke-width="1.5" stroke-linecap="square" stroke-miterlimit="10" x1="389.2" y1="152.32" x2="388.581" y2="149.73"/>
<line fill="none" stroke="#FFFFFF" stroke-width="1.5" stroke-linecap="square" stroke-miterlimit="10" x1="382.694" y1="153.873" x2="382.075" y2="151.287"/>
<path fill="none" stroke="#FFFFFF" stroke-width="1.5" stroke-linecap="square" stroke-miterlimit="10" d="M923.021,93.322
	l-36.468-10.451c-0.631-0.18-0.995-0.838-0.813-1.469l6.771-23.628c0.183-0.631,0.843-0.997,1.474-0.815l33.438,9.584l5.021,10.063
	L927.3,94.549"/>
<polyline fill="none" stroke="#FFFFFF" stroke-width="1.5" stroke-linecap="square" stroke-miterlimit="10" points="896.168,61.81 
	921.08,68.952 915.85,87.195 890.938,80.055 895.143,65.383 "/>
<line fill="none" stroke="#FFFFFF" stroke-width="1.5" stroke-linecap="square" stroke-miterlimit="10" x1="903.941" y1="66.774" x2="900.182" y2="79.886"/>
<line fill="none" stroke="#FFFFFF" stroke-width="1.5" stroke-linecap="square" stroke-miterlimit="10" x1="911.566" y1="68.96" x2="907.809" y2="82.072"/>
<line fill="none" stroke="#FFFFFF" stroke-width="1.5" stroke-linecap="square" stroke-miterlimit="10" x1="900.035" y1="69.466" x2="897.381" y2="68.705"/>
<line fill="none" stroke="#FFFFFF" stroke-width="1.5" stroke-linecap="square" stroke-miterlimit="10" x1="898.191" y1="75.896" x2="895.537" y2="75.135"/>
<line fill="none" stroke="#FFFFFF" stroke-width="1.5" stroke-linecap="square" stroke-miterlimit="10" x1="915.988" y1="74.115" x2="913.432" y2="73.383"/>
<line fill="none" stroke="#FFFFFF" stroke-width="1.5" stroke-linecap="square" stroke-miterlimit="10" x1="914.146" y1="80.547" x2="911.588" y2="79.812"/>
<path fill="none" stroke="#FFFFFF" stroke-width="1.5" stroke-linecap="square" stroke-linejoin="round" stroke-miterlimit="10" d="
	M830.027,74.208l-32.15-10.881c-0.586-0.199-0.897-0.834-0.701-1.418l8.461-25.001c0.197-0.584,0.834-0.898,1.421-0.7l36.579,12.382
	c0.587,0.198,0.9,0.833,0.703,1.42l-8.821,26.059"/>
<line fill="none" stroke="#FFFFFF" stroke-width="1.5" stroke-linecap="square" stroke-linejoin="round" stroke-miterlimit="10" x1="806.461" y1="44.565" x2="838.951" y2="55.562"/>
<line fill="none" stroke="#FFFFFF" stroke-width="1.5" stroke-linecap="square" stroke-linejoin="round" stroke-miterlimit="10" x1="804.656" y1="58.431" x2="815.408" y2="62.071"/>
<line fill="none" stroke="#FFFFFF" stroke-width="1.5" stroke-linecap="square" stroke-linejoin="round" stroke-miterlimit="10" x1="805.703" y1="55.339" x2="813.803" y2="58.081"/>
<line fill="none" stroke="#FFFFFF" stroke-width="1.5" stroke-linecap="square" stroke-linejoin="round" stroke-miterlimit="10" x1="805.498" y1="47.685" x2="837.988" y2="58.683"/>
<path fill="none" stroke="#FFFFFF" stroke-width="1.5" stroke-linecap="square" stroke-miterlimit="10" d="M742.314,15.653
	l16.78,3.744c0.363,0.082,0.593,0.444,0.509,0.811l-6.535,29.288c-0.08,0.366-0.441,0.598-0.805,0.516l-16.121-3.597
	c-0.365-0.081-0.593-0.443-0.511-0.811l5.728-25.665"/>
<path fill="none" stroke="#FFFFFF" stroke-width="1.5" stroke-linecap="square" stroke-miterlimit="10" d="M754.145,58.188
	l-22.295-4.975c-0.49-0.109-0.8-0.595-0.689-1.085l8.805-39.455c0.109-0.49,0.595-0.799,1.084-0.689l21.41,4.777
	c0.488,0.109,0.797,0.595,0.688,1.085l-8.056,36.105"/>
<path fill="#FFFFFF" stroke="#FFFFFF" stroke-width="1.5" stroke-miterlimit="10" d="M744.771,52.269
	c-0.175,0.776-0.943,1.264-1.718,1.091c-0.776-0.174-1.264-0.941-1.09-1.718c0.174-0.774,0.941-1.263,1.717-1.089
	C744.455,50.727,744.943,51.495,744.771,52.269"/>
<path fill="none" stroke="#FFFFFF" stroke-width="1.5" stroke-linecap="square" stroke-linejoin="round" stroke-miterlimit="10" d="
	M768.874,118.506l30.361,15.168c0.553,0.277,0.779,0.949,0.504,1.502l-11.797,23.609c-0.277,0.553-0.947,0.777-1.5,0.5
	l-34.551-17.258c-0.554-0.277-0.777-0.949-0.502-1.502l12.295-24.611"/>
<line fill="none" stroke="#FFFFFF" stroke-width="1.5" stroke-linecap="square" stroke-linejoin="round" stroke-miterlimit="10" x1="788.173" y1="151.088" x2="757.487" y2="135.758"/>
<line fill="none" stroke="#FFFFFF" stroke-width="1.5" stroke-linecap="square" stroke-linejoin="round" stroke-miterlimit="10" x1="791.853" y1="137.598" x2="781.698" y2="132.527"/>
<line fill="none" stroke="#FFFFFF" stroke-width="1.5" stroke-linecap="square" stroke-linejoin="round" stroke-miterlimit="10" x1="790.394" y1="140.52" x2="782.743" y2="136.699"/>
<line fill="none" stroke="#FFFFFF" stroke-width="1.5" stroke-linecap="square" stroke-linejoin="round" stroke-miterlimit="10" x1="789.55" y1="148.129" x2="758.866" y2="132.799"/>
<path fill="none" stroke="#FFFFFF" stroke-width="1.5" stroke-linecap="square" stroke-miterlimit="10" d="M841.42,135.553
	l-8.813-36.893c-0.152-0.641,0.239-1.281,0.881-1.438l23.904-5.709c0.639-0.15,1.28,0.242,1.434,0.881l8.082,33.832l-6.299,9.316
	l-18.156,4.336"/>
<polyline fill="none" stroke="#FFFFFF" stroke-width="1.5" stroke-linecap="square" stroke-miterlimit="10" points="855.672,96.682 
	861.693,121.887 843.234,126.297 837.213,101.092 852.059,97.545 "/>
<line fill="none" stroke="#FFFFFF" stroke-width="1.5" stroke-linecap="square" stroke-miterlimit="10" x1="855.168" y1="105.889" x2="841.902" y2="109.059"/>
<line fill="none" stroke="#FFFFFF" stroke-width="1.5" stroke-linecap="square" stroke-miterlimit="10" x1="857.013" y1="113.607" x2="843.744" y2="116.775"/>
<line fill="none" stroke="#FFFFFF" stroke-width="1.5" stroke-linecap="square" stroke-miterlimit="10" x1="850.906" y1="103.811" x2="850.263" y2="101.125"/>
<line fill="none" stroke="#FFFFFF" stroke-width="1.5" stroke-linecap="square" stroke-miterlimit="10" x1="844.398" y1="105.365" x2="843.758" y2="102.68"/>
<line fill="none" stroke="#FFFFFF" stroke-width="1.5" stroke-linecap="square" stroke-miterlimit="10" x1="854.695" y1="119.992" x2="854.076" y2="117.402"/>
<line fill="none" stroke="#FFFFFF" stroke-width="1.5" stroke-linecap="square" stroke-miterlimit="10" x1="848.189" y1="121.545" x2="847.57" y2="118.959"/>
<path fill="none" stroke="#FFFFFF" stroke-width="1.5" stroke-linecap="square" stroke-linejoin="round" stroke-miterlimit="10" d="
	M891.242,11.437l33.902,1.673c0.618,0.03,1.092,0.555,1.063,1.172l-1.301,26.36c-0.031,0.618-0.555,1.093-1.174,1.062l-38.574-1.903
	c-0.617-0.029-1.092-0.555-1.063-1.173l1.357-27.478"/>
<line fill="none" stroke="#FFFFFF" stroke-width="1.5" stroke-linecap="square" stroke-linejoin="round" stroke-miterlimit="10" x1="922.02" y1="33.504" x2="887.758" y2="31.813"/>
<line fill="none" stroke="#FFFFFF" stroke-width="1.5" stroke-linecap="square" stroke-linejoin="round" stroke-miterlimit="10" x1="919.963" y1="19.673" x2="908.625" y2="19.114"/>
<line fill="none" stroke="#FFFFFF" stroke-width="1.5" stroke-linecap="square" stroke-linejoin="round" stroke-miterlimit="10" x1="919.801" y1="22.933" x2="911.26" y2="22.513"/>
<line fill="none" stroke="#FFFFFF" stroke-width="1.5" stroke-linecap="square" stroke-linejoin="round" stroke-miterlimit="10" x1="922.092" y1="30.239" x2="887.83" y2="28.548"/>
</svg>
