<?xml version="1.0" encoding="utf-8"?>
<!-- Generator: Adobe Illustrator 15.0.2, SVG Export Plug-In . SVG Version: 6.00 Build 0)  -->
<!DOCTYPE svg PUBLIC "-//W3C//DTD SVG 1.1//EN" "http://www.w3.org/Graphics/SVG/1.1/DTD/svg11.dtd">
<svg version="1.1" id="Layer_1" xmlns="http://www.w3.org/2000/svg" xmlns:xlink="http://www.w3.org/1999/xlink" x="0px" y="0px"
	 width="1908.67px" height="240px" viewBox="0 0 1908.67 240" enable-background="new 0 0 1908.67 240" xml:space="preserve">
<rect x="0" fill="#56DAF3" width="1908.671" height="240"/>
<path fill="none" stroke="#FFFFFF" stroke-width="2" stroke-linecap="square" stroke-linejoin="round" stroke-miterlimit="10" d="
	M480.649,154.219l-48.654-16.467c-0.886-0.301-1.36-1.26-1.062-2.146l12.806-37.832c0.3-0.886,1.261-1.361,2.146-1.061
	l55.361,18.738c0.888,0.3,1.362,1.261,1.063,2.148l-13.348,39.435"/>
<line fill="none" stroke="#FFFFFF" stroke-width="2" stroke-linecap="square" stroke-linejoin="round" stroke-miterlimit="10" x1="444.986" y1="109.36" x2="494.156" y2="126.002"/>
<line fill="none" stroke="#FFFFFF" stroke-width="2" stroke-linecap="square" stroke-linejoin="round" stroke-miterlimit="10" x1="442.254" y1="130.344" x2="458.526" y2="135.852"/>
<line fill="none" stroke="#FFFFFF" stroke-width="2" stroke-linecap="square" stroke-linejoin="round" stroke-miterlimit="10" x1="443.839" y1="125.664" x2="456.099" y2="129.813"/>
<line fill="none" stroke="#FFFFFF" stroke-width="2" stroke-linecap="square" stroke-linejoin="round" stroke-miterlimit="10" x1="443.529" y1="114.083" x2="492.699" y2="130.725"/>
<path fill="none" stroke="#FFFFFF" stroke-width="2" stroke-linecap="square" stroke-miterlimit="10" d="M270.168,148.4
	l-55.185-15.816c-0.955-0.273-1.507-1.27-1.233-2.225l10.248-35.756c0.272-0.955,1.271-1.509,2.226-1.235l50.606,14.504
	l7.595,15.229l-7.783,27.153"/>
<polyline fill="none" stroke="#FFFFFF" stroke-width="2" stroke-linecap="square" stroke-miterlimit="10" points="229.528,100.713 
	267.229,111.519 259.315,139.129 221.614,128.322 227.979,106.119 "/>
<line fill="none" stroke="#FFFFFF" stroke-width="2" stroke-linecap="square" stroke-miterlimit="10" x1="241.29" y1="108.224" x2="235.603" y2="128.066"/>
<line fill="none" stroke="#FFFFFF" stroke-width="2" stroke-linecap="square" stroke-miterlimit="10" x1="252.833" y1="111.532" x2="247.146" y2="131.375"/>
<line fill="none" stroke="#FFFFFF" stroke-width="2" stroke-linecap="square" stroke-miterlimit="10" x1="235.382" y1="112.298" x2="231.363" y2="111.146"/>
<line fill="none" stroke="#FFFFFF" stroke-width="2" stroke-linecap="square" stroke-miterlimit="10" x1="232.592" y1="122.029" x2="228.574" y2="120.877"/>
<line fill="none" stroke="#FFFFFF" stroke-width="2" stroke-linecap="square" stroke-miterlimit="10" x1="259.526" y1="119.334" x2="255.654" y2="118.225"/>
<line fill="none" stroke="#FFFFFF" stroke-width="2" stroke-linecap="square" stroke-miterlimit="10" x1="256.737" y1="129.066" x2="252.866" y2="127.955"/>
<path fill="none" stroke="#FFFFFF" stroke-width="2" stroke-linecap="square" stroke-miterlimit="10" d="M347.91,65.606
	l25.394,5.666c0.55,0.123,0.896,0.672,0.771,1.227l-9.89,44.322c-0.123,0.555-0.669,0.904-1.219,0.781l-24.396-5.443
	c-0.552-0.123-0.896-0.672-0.772-1.227l8.667-38.84"/>
<path fill="none" stroke="#FFFFFF" stroke-width="2" stroke-linecap="square" stroke-miterlimit="10" d="M365.815,129.975
	l-33.741-7.525c-0.741-0.166-1.208-0.9-1.042-1.643l13.323-59.709c0.164-0.741,0.899-1.208,1.641-1.042l32.4,7.229
	c0.74,0.165,1.206,0.899,1.041,1.641l-12.19,54.642"/>
<path fill="#FFFFFF" stroke="#FFFFFF" stroke-width="2" stroke-miterlimit="10" d="M351.629,121.018
	c-0.263,1.176-1.427,1.914-2.6,1.652c-1.174-0.264-1.912-1.426-1.648-2.6c0.261-1.171,1.423-1.911,2.598-1.648
	C351.151,118.684,351.891,119.846,351.629,121.018"/>
<path fill="none" stroke="#FFFFFF" stroke-width="2" stroke-linecap="square" stroke-linejoin="round" stroke-miterlimit="10" d="
	M359.757,181.059l45.949,22.955c0.838,0.418,1.178,1.436,0.76,2.271l-17.851,35.729c-0.418,0.838-1.436,1.178-2.271,0.76
	l-52.286-26.121c-0.837-0.418-1.177-1.436-0.759-2.271l18.605-37.245"/>
<line fill="none" stroke="#FFFFFF" stroke-width="2" stroke-linecap="square" stroke-linejoin="round" stroke-miterlimit="10" x1="388.963" y1="230.365" x2="342.524" y2="207.166"/>
<line fill="none" stroke="#FFFFFF" stroke-width="2" stroke-linecap="square" stroke-linejoin="round" stroke-miterlimit="10" x1="394.532" y1="209.951" x2="379.164" y2="202.273"/>
<line fill="none" stroke="#FFFFFF" stroke-width="2" stroke-linecap="square" stroke-linejoin="round" stroke-miterlimit="10" x1="392.323" y1="214.371" x2="380.745" y2="208.588"/>
<line fill="none" stroke="#FFFFFF" stroke-width="2" stroke-linecap="square" stroke-linejoin="round" stroke-miterlimit="10" x1="391.05" y1="225.887" x2="344.612" y2="202.688"/>
<path fill="none" stroke="#FFFFFF" stroke-width="2" stroke-linecap="square" stroke-miterlimit="10" d="M497.893,247.055
	l-13.337-55.834c-0.23-0.967,0.366-1.938,1.332-2.168l36.178-8.643c0.967-0.23,1.938,0.365,2.17,1.332l12.23,51.203l-9.534,14.098
	l-27.474,6.563"/>
<polyline fill="none" stroke="#FFFFFF" stroke-width="2" stroke-linecap="square" stroke-miterlimit="10" points="519.46,188.229 
	528.572,226.373 500.637,233.047 491.525,194.9 513.99,189.535 "/>
<line fill="none" stroke="#FFFFFF" stroke-width="2" stroke-linecap="square" stroke-miterlimit="10" x1="518.698" y1="202.162" x2="498.62" y2="206.959"/>
<line fill="none" stroke="#FFFFFF" stroke-width="2" stroke-linecap="square" stroke-miterlimit="10" x1="521.488" y1="213.842" x2="501.41" y2="218.639"/>
<line fill="none" stroke="#FFFFFF" stroke-width="2" stroke-linecap="square" stroke-miterlimit="10" x1="512.245" y1="199.02" x2="511.275" y2="194.953"/>
<line fill="none" stroke="#FFFFFF" stroke-width="2" stroke-linecap="square" stroke-miterlimit="10" x1="502.4" y1="201.371" x2="501.429" y2="197.305"/>
<line fill="none" stroke="#FFFFFF" stroke-width="2" stroke-linecap="square" stroke-miterlimit="10" x1="517.98" y1="223.506" x2="517.044" y2="219.588"/>
<line fill="none" stroke="#FFFFFF" stroke-width="2" stroke-linecap="square" stroke-miterlimit="10" x1="508.135" y1="225.857" x2="507.198" y2="221.939"/>
<path fill="none" stroke="#FFFFFF" stroke-width="2" stroke-linecap="square" stroke-miterlimit="10" d="M656.071,216.783
	l-24.832-7.766c-0.539-0.168-0.836-0.744-0.667-1.287l13.554-43.342c0.169-0.543,0.741-0.846,1.28-0.678l23.855,7.459
	c0.539,0.168,0.837,0.744,0.667,1.285l-11.876,37.98"/>
<path fill="none" stroke="#FFFFFF" stroke-width="2" stroke-linecap="square" stroke-miterlimit="10" d="M643.6,151.145
	l32.995,10.316c0.726,0.227,1.128,0.998,0.902,1.723l-18.259,58.393c-0.228,0.725-0.998,1.129-1.724,0.9l-31.683-9.908
	c-0.727-0.227-1.129-0.994-0.902-1.723l16.708-53.434"/>
<path fill="#FFFFFF" stroke="#FFFFFF" stroke-width="2" stroke-miterlimit="10" d="M656.989,161.254
	c0.358-1.148,1.579-1.787,2.729-1.43c1.147,0.359,1.786,1.58,1.428,2.729c-0.359,1.146-1.578,1.787-2.729,1.428
	C657.27,163.621,656.631,162.398,656.989,161.254"/>
<path fill="none" stroke="#FFFFFF" stroke-width="2" stroke-linecap="square" stroke-linejoin="round" stroke-miterlimit="10" d="
	M582.931,48.925l51.303,2.531c0.935,0.046,1.653,0.84,1.607,1.774l-1.969,39.892c-0.046,0.935-0.84,1.654-1.774,1.607l-58.376-2.88
	c-0.936-0.046-1.654-0.84-1.608-1.775l2.053-41.583"/>
<line fill="none" stroke="#FFFFFF" stroke-width="2" stroke-linecap="square" stroke-linejoin="round" stroke-miterlimit="10" x1="629.504" y1="82.319" x2="577.656" y2="79.761"/>
<line fill="none" stroke="#FFFFFF" stroke-width="2" stroke-linecap="square" stroke-linejoin="round" stroke-miterlimit="10" x1="626.392" y1="61.388" x2="609.234" y2="60.541"/>
<line fill="none" stroke="#FFFFFF" stroke-width="2" stroke-linecap="square" stroke-linejoin="round" stroke-miterlimit="10" x1="626.148" y1="66.323" x2="613.221" y2="65.686"/>
<line fill="none" stroke="#FFFFFF" stroke-width="2" stroke-linecap="square" stroke-linejoin="round" stroke-miterlimit="10" x1="629.614" y1="77.378" x2="577.766" y2="74.82"/>
<path fill="none" stroke="#FFFFFF" stroke-width="2" stroke-linecap="square" stroke-linejoin="round" stroke-miterlimit="10" d="
	M129.435,119.474l-48.654-16.467c-0.886-0.301-1.36-1.261-1.061-2.146l12.805-37.833c0.301-0.886,1.262-1.361,2.147-1.061
	l55.362,18.738c0.887,0.3,1.361,1.261,1.063,2.148l-13.348,39.436"/>
<line fill="none" stroke="#FFFFFF" stroke-width="2" stroke-linecap="square" stroke-linejoin="round" stroke-miterlimit="10" x1="93.771" y1="74.615" x2="142.941" y2="91.257"/>
<line fill="none" stroke="#FFFFFF" stroke-width="2" stroke-linecap="square" stroke-linejoin="round" stroke-miterlimit="10" x1="91.04" y1="95.599" x2="107.312" y2="101.107"/>
<line fill="none" stroke="#FFFFFF" stroke-width="2" stroke-linecap="square" stroke-linejoin="round" stroke-miterlimit="10" x1="92.624" y1="90.918" x2="104.884" y2="95.068"/>
<line fill="none" stroke="#FFFFFF" stroke-width="2" stroke-linecap="square" stroke-linejoin="round" stroke-miterlimit="10" x1="92.314" y1="79.337" x2="141.485" y2="95.98"/>
<path fill="none" stroke="#FFFFFF" stroke-width="2" stroke-linecap="square" stroke-miterlimit="10" d="M517.494,47.395
	l-54.229,18.829c-0.938,0.326-1.964-0.171-2.29-1.11l-12.199-35.137c-0.326-0.938,0.171-1.965,1.108-2.291l49.73-17.267
	l14.978,8.083l9.266,26.684"/>
<polyline fill="none" stroke="#FFFFFF" stroke-width="2" stroke-linecap="square" stroke-miterlimit="10" points="456.814,31.789 
	493.863,18.926 503.282,46.059 466.234,58.922 458.657,37.102 "/>
<line fill="none" stroke="#FFFFFF" stroke-width="2" stroke-linecap="square" stroke-miterlimit="10" x1="470.755" y1="31.161" x2="477.526" y2="50.661"/>
<line fill="none" stroke="#FFFFFF" stroke-width="2" stroke-linecap="square" stroke-miterlimit="10" x1="482.099" y1="27.223" x2="488.868" y2="46.723"/>
<line fill="none" stroke="#FFFFFF" stroke-width="2" stroke-linecap="square" stroke-miterlimit="10" x1="468.269" y1="37.894" x2="464.32" y2="39.265"/>
<line fill="none" stroke="#FFFFFF" stroke-width="2" stroke-linecap="square" stroke-miterlimit="10" x1="471.589" y1="47.458" x2="467.64" y2="48.828"/>
<line fill="none" stroke="#FFFFFF" stroke-width="2" stroke-linecap="square" stroke-miterlimit="10" x1="492.063" y1="29.751" x2="488.258" y2="31.072"/>
<line fill="none" stroke="#FFFFFF" stroke-width="2" stroke-linecap="square" stroke-miterlimit="10" x1="495.383" y1="39.314" x2="491.578" y2="40.634"/>
<path fill="none" stroke="#FFFFFF" stroke-width="2" stroke-linecap="square" stroke-miterlimit="10" d="M-3.304,30.861
	l25.394,5.666c0.55,0.123,0.896,0.672,0.771,1.227l-9.889,44.322c-0.124,0.555-0.669,0.904-1.219,0.781l-24.396-5.443
	c-0.551-0.123-0.896-0.672-0.772-1.227l8.667-38.84"/>
<path fill="none" stroke="#FFFFFF" stroke-width="2" stroke-linecap="square" stroke-miterlimit="10" d="M14.6,95.23l-33.741-7.528
	c-0.74-0.165-1.208-0.899-1.042-1.641l13.323-59.71c0.165-0.741,0.9-1.208,1.641-1.042l32.4,7.229
	c0.741,0.165,1.207,0.899,1.042,1.641l-12.19,54.64"/>
<path fill="#FFFFFF" stroke="#FFFFFF" stroke-width="2" stroke-miterlimit="10" d="M0.415,86.273
	c-0.263,1.175-1.427,1.913-2.6,1.651c-1.174-0.263-1.912-1.425-1.648-2.599c0.261-1.172,1.423-1.911,2.598-1.648
	C-0.063,83.939,0.676,85.101,0.415,86.273"/>
<path fill="none" stroke="#FFFFFF" stroke-width="2" stroke-linecap="square" stroke-linejoin="round" stroke-miterlimit="10" d="
	M8.542,146.313l45.95,22.955c0.837,0.418,1.177,1.436,0.759,2.271L37.4,207.27c-0.418,0.836-1.435,1.176-2.271,0.758l-52.286-26.117
	c-0.837-0.42-1.177-1.438-0.759-2.273L0.69,142.391"/>
<line fill="none" stroke="#FFFFFF" stroke-width="2" stroke-linecap="square" stroke-linejoin="round" stroke-miterlimit="10" x1="37.748" y1="195.621" x2="-8.69" y2="172.422"/>
<line fill="none" stroke="#FFFFFF" stroke-width="2" stroke-linecap="square" stroke-linejoin="round" stroke-miterlimit="10" x1="43.318" y1="175.205" x2="27.95" y2="167.529"/>
<line fill="none" stroke="#FFFFFF" stroke-width="2" stroke-linecap="square" stroke-linejoin="round" stroke-miterlimit="10" x1="41.109" y1="179.627" x2="29.531" y2="173.842"/>
<line fill="none" stroke="#FFFFFF" stroke-width="2" stroke-linecap="square" stroke-linejoin="round" stroke-miterlimit="10" x1="39.835" y1="191.143" x2="-6.603" y2="167.943"/>
<path fill="none" stroke="#FFFFFF" stroke-width="2" stroke-linecap="square" stroke-miterlimit="10" d="M146.678,212.309
	l-13.337-55.832c-0.231-0.967,0.366-1.938,1.332-2.17l36.177-8.641c0.967-0.232,1.939,0.365,2.17,1.332l12.231,51.201l-9.534,14.098
	l-27.473,6.563"/>
<polyline fill="none" stroke="#FFFFFF" stroke-width="2" stroke-linecap="square" stroke-miterlimit="10" points="168.245,153.482 
	177.357,191.629 149.422,198.301 140.311,160.156 162.776,154.789 "/>
<line fill="none" stroke="#FFFFFF" stroke-width="2" stroke-linecap="square" stroke-miterlimit="10" x1="167.483" y1="167.418" x2="147.406" y2="172.213"/>
<line fill="none" stroke="#FFFFFF" stroke-width="2" stroke-linecap="square" stroke-miterlimit="10" x1="170.273" y1="179.098" x2="150.196" y2="183.893"/>
<line fill="none" stroke="#FFFFFF" stroke-width="2" stroke-linecap="square" stroke-miterlimit="10" x1="161.031" y1="164.273" x2="160.06" y2="160.207"/>
<line fill="none" stroke="#FFFFFF" stroke-width="2" stroke-linecap="square" stroke-miterlimit="10" x1="151.186" y1="166.625" x2="150.214" y2="162.561"/>
<line fill="none" stroke="#FFFFFF" stroke-width="2" stroke-linecap="square" stroke-miterlimit="10" x1="166.765" y1="188.76" x2="165.83" y2="184.842"/>
<line fill="none" stroke="#FFFFFF" stroke-width="2" stroke-linecap="square" stroke-miterlimit="10" x1="156.92" y1="191.111" x2="155.984" y2="187.195"/>
<path fill="none" stroke="#FFFFFF" stroke-width="2" stroke-linecap="square" stroke-linejoin="round" stroke-miterlimit="10" d="
	M222.077,24.481l51.302,2.531c0.935,0.046,1.653,0.84,1.607,1.774l-1.969,39.892c-0.047,0.935-0.84,1.654-1.774,1.607l-58.375-2.88
	c-0.936-0.046-1.655-0.84-1.609-1.775l2.052-41.583"/>
<line fill="none" stroke="#FFFFFF" stroke-width="2" stroke-linecap="square" stroke-linejoin="round" stroke-miterlimit="10" x1="268.65" y1="57.875" x2="216.803" y2="55.317"/>
<line fill="none" stroke="#FFFFFF" stroke-width="2" stroke-linecap="square" stroke-linejoin="round" stroke-miterlimit="10" x1="265.538" y1="36.943" x2="248.38" y2="36.097"/>
<line fill="none" stroke="#FFFFFF" stroke-width="2" stroke-linecap="square" stroke-linejoin="round" stroke-miterlimit="10" x1="265.294" y1="41.879" x2="252.367" y2="41.241"/>
<line fill="none" stroke="#FFFFFF" stroke-width="2" stroke-linecap="square" stroke-linejoin="round" stroke-miterlimit="10" x1="268.761" y1="52.934" x2="216.912" y2="50.375"/>
<path fill="none" stroke="#FFFFFF" stroke-width="2" stroke-linecap="square" stroke-miterlimit="10" d="M939.578,43.144
	l54.965-16.562c0.95-0.287,1.954,0.252,2.24,1.203l10.73,35.614c0.287,0.951-0.252,1.957-1.204,2.243L955.906,80.83l-14.629-8.698
	l-8.148-27.047"/>
<polyline fill="none" stroke="#FFFFFF" stroke-width="2" stroke-linecap="square" stroke-miterlimit="10" points="999.559,61.254 
	962.009,72.568 953.722,45.067 991.273,33.753 997.938,55.869 "/>
<line fill="none" stroke="#FFFFFF" stroke-width="2" stroke-linecap="square" stroke-miterlimit="10" x1="985.604" y1="61.303" x2="979.648" y2="41.539"/>
<line fill="none" stroke="#FFFFFF" stroke-width="2" stroke-linecap="square" stroke-miterlimit="10" x1="974.106" y1="64.767" x2="968.151" y2="45.002"/>
<line fill="none" stroke="#FFFFFF" stroke-width="2" stroke-linecap="square" stroke-miterlimit="10" x1="988.366" y1="54.679" x2="992.37" y2="53.473"/>
<line fill="none" stroke="#FFFFFF" stroke-width="2" stroke-linecap="square" stroke-miterlimit="10" x1="985.447" y1="44.986" x2="989.449" y2="43.781"/>
<line fill="none" stroke="#FFFFFF" stroke-width="2" stroke-linecap="square" stroke-miterlimit="10" x1="964.257" y1="61.827" x2="968.113" y2="60.665"/>
<line fill="none" stroke="#FFFFFF" stroke-width="2" stroke-linecap="square" stroke-miterlimit="10" x1="961.336" y1="52.134" x2="965.192" y2="50.974"/>
<path fill="none" stroke="#FFFFFF" stroke-width="2" stroke-linecap="square" stroke-miterlimit="10" d="M1072.557,15.427
	l25.394,5.666c0.551,0.123,0.896,0.672,0.771,1.227l-9.89,44.322c-0.125,0.555-0.67,0.904-1.221,0.781l-24.396-5.443
	c-0.552-0.123-0.896-0.672-0.772-1.227l8.666-38.84"/>
<path fill="none" stroke="#FFFFFF" stroke-width="2" stroke-linecap="square" stroke-miterlimit="10" d="M1090.459,79.795
	l-33.74-7.527c-0.74-0.166-1.207-0.9-1.043-1.641L1069,10.916c0.163-0.741,0.899-1.208,1.641-1.042l32.4,7.229
	c0.739,0.165,1.207,0.899,1.041,1.641l-12.191,54.641"/>
<path fill="#FFFFFF" stroke="#FFFFFF" stroke-width="2" stroke-miterlimit="10" d="M1076.274,70.838
	c-0.264,1.176-1.427,1.914-2.6,1.652c-1.176-0.264-1.912-1.426-1.649-2.6c0.262-1.171,1.424-1.911,2.599-1.648
	C1075.797,68.504,1076.534,69.667,1076.274,70.838"/>
<path fill="none" stroke="#FFFFFF" stroke-width="2" stroke-linecap="square" stroke-linejoin="round" stroke-miterlimit="10" d="
	M1074.909,188.01l45.949,22.955c0.837,0.418,1.177,1.434,0.759,2.27l-17.851,35.73c-0.418,0.838-1.435,1.178-2.271,0.76
	l-52.285-26.121c-0.838-0.418-1.179-1.436-0.761-2.271l18.607-37.246"/>
<line fill="none" stroke="#FFFFFF" stroke-width="2" stroke-linecap="square" stroke-linejoin="round" stroke-miterlimit="10" x1="1104.115" y1="237.316" x2="1057.678" y2="214.117"/>
<line fill="none" stroke="#FFFFFF" stroke-width="2" stroke-linecap="square" stroke-linejoin="round" stroke-miterlimit="10" x1="1109.686" y1="216.902" x2="1094.318" y2="209.225"/>
<line fill="none" stroke="#FFFFFF" stroke-width="2" stroke-linecap="square" stroke-linejoin="round" stroke-miterlimit="10" x1="1107.477" y1="221.322" x2="1095.898" y2="215.539"/>
<line fill="none" stroke="#FFFFFF" stroke-width="2" stroke-linecap="square" stroke-linejoin="round" stroke-miterlimit="10" x1="1106.202" y1="232.838" x2="1059.765" y2="209.639"/>
<path fill="none" stroke="#FFFFFF" stroke-width="2" stroke-linecap="square" stroke-miterlimit="10" d="M1213.046,247.055
	l-13.337-55.834c-0.23-0.967,0.364-1.938,1.33-2.168l36.178-8.643c0.969-0.23,1.938,0.365,2.17,1.332l12.23,51.203l-9.533,14.098
	l-27.474,6.563"/>
<polyline fill="none" stroke="#FFFFFF" stroke-width="2" stroke-linecap="square" stroke-miterlimit="10" points="1234.613,188.229 
	1243.725,226.373 1215.789,233.047 1206.678,194.9 1229.145,189.535 "/>
<line fill="none" stroke="#FFFFFF" stroke-width="2" stroke-linecap="square" stroke-miterlimit="10" x1="1233.852" y1="202.162" x2="1213.773" y2="206.959"/>
<line fill="none" stroke="#FFFFFF" stroke-width="2" stroke-linecap="square" stroke-miterlimit="10" x1="1236.641" y1="213.842" x2="1216.563" y2="218.639"/>
<line fill="none" stroke="#FFFFFF" stroke-width="2" stroke-linecap="square" stroke-miterlimit="10" x1="1227.398" y1="199.02" x2="1226.428" y2="194.953"/>
<line fill="none" stroke="#FFFFFF" stroke-width="2" stroke-linecap="square" stroke-miterlimit="10" x1="1217.553" y1="201.371" x2="1216.582" y2="197.305"/>
<line fill="none" stroke="#FFFFFF" stroke-width="2" stroke-linecap="square" stroke-miterlimit="10" x1="1233.133" y1="223.506" x2="1232.197" y2="219.588"/>
<line fill="none" stroke="#FFFFFF" stroke-width="2" stroke-linecap="square" stroke-miterlimit="10" x1="1223.286" y1="225.857" x2="1222.352" y2="221.939"/>
<path fill="none" stroke="#FFFFFF" stroke-width="2" stroke-linecap="square" stroke-miterlimit="10" d="M1372.559,204.281
	l-24.831-7.766c-0.538-0.168-0.837-0.744-0.667-1.287l13.554-43.344c0.17-0.543,0.741-0.844,1.28-0.676l23.854,7.459
	c0.539,0.168,0.839,0.744,0.668,1.285l-11.877,37.98"/>
<path fill="none" stroke="#FFFFFF" stroke-width="2" stroke-linecap="square" stroke-miterlimit="10" d="M1360.088,138.643
	l32.994,10.316c0.726,0.227,1.129,0.998,0.903,1.723l-18.261,58.393c-0.228,0.725-0.998,1.129-1.723,0.9l-31.684-9.908
	c-0.727-0.227-1.129-0.996-0.9-1.723l16.707-53.434"/>
<path fill="#FFFFFF" stroke="#FFFFFF" stroke-width="2" stroke-miterlimit="10" d="M1373.477,148.752
	c0.359-1.148,1.58-1.787,2.729-1.43c1.147,0.359,1.785,1.58,1.428,2.729c-0.357,1.146-1.578,1.787-2.728,1.428
	C1373.757,151.12,1373.118,149.896,1373.477,148.752"/>
<path fill="none" stroke="#FFFFFF" stroke-width="2" stroke-linecap="square" stroke-linejoin="round" stroke-miterlimit="10" d="
	M1288.444,59.226l51.302,2.531c0.936,0.046,1.654,0.84,1.607,1.774l-1.968,39.892c-0.047,0.935-0.841,1.654-1.774,1.607
	l-58.376-2.88c-0.936-0.046-1.655-0.84-1.609-1.775l2.053-41.583"/>
<line fill="none" stroke="#FFFFFF" stroke-width="2" stroke-linecap="square" stroke-linejoin="round" stroke-miterlimit="10" x1="1335.018" y1="92.62" x2="1283.171" y2="90.062"/>
<line fill="none" stroke="#FFFFFF" stroke-width="2" stroke-linecap="square" stroke-linejoin="round" stroke-miterlimit="10" x1="1331.905" y1="71.688" x2="1314.748" y2="70.842"/>
<line fill="none" stroke="#FFFFFF" stroke-width="2" stroke-linecap="square" stroke-linejoin="round" stroke-miterlimit="10" x1="1331.661" y1="76.624" x2="1318.734" y2="75.986"/>
<line fill="none" stroke="#FFFFFF" stroke-width="2" stroke-linecap="square" stroke-linejoin="round" stroke-miterlimit="10" x1="1335.128" y1="87.679" x2="1283.279" y2="85.121"/>
<path fill="none" stroke="#FFFFFF" stroke-width="2" stroke-linecap="square" stroke-linejoin="round" stroke-miterlimit="10" d="
	M854.079,69.294l-48.653-16.467c-0.887-0.301-1.36-1.261-1.062-2.146l12.806-37.833c0.3-0.886,1.261-1.361,2.146-1.061
	l55.361,18.738c0.888,0.3,1.361,1.261,1.063,2.148l-13.349,39.436"/>
<line fill="none" stroke="#FFFFFF" stroke-width="2" stroke-linecap="square" stroke-linejoin="round" stroke-miterlimit="10" x1="818.416" y1="24.435" x2="867.586" y2="41.078"/>
<line fill="none" stroke="#FFFFFF" stroke-width="2" stroke-linecap="square" stroke-linejoin="round" stroke-miterlimit="10" x1="815.685" y1="45.419" x2="831.956" y2="50.927"/>
<line fill="none" stroke="#FFFFFF" stroke-width="2" stroke-linecap="square" stroke-linejoin="round" stroke-miterlimit="10" x1="817.269" y1="40.739" x2="829.529" y2="44.888"/>
<line fill="none" stroke="#FFFFFF" stroke-width="2" stroke-linecap="square" stroke-linejoin="round" stroke-miterlimit="10" x1="816.959" y1="29.158" x2="866.13" y2="45.8"/>
<path fill="none" stroke="#FFFFFF" stroke-width="2" stroke-linecap="square" stroke-miterlimit="10" d="M1232.648,47.395
	l-54.229,18.829c-0.938,0.326-1.964-0.171-2.289-1.11l-12.2-35.137c-0.325-0.938,0.171-1.965,1.108-2.291l49.731-17.267
	l14.978,8.083l9.266,26.684"/>
<polyline fill="none" stroke="#FFFFFF" stroke-width="2" stroke-linecap="square" stroke-miterlimit="10" points="1171.967,31.789 
	1209.016,18.926 1218.436,46.059 1181.387,58.922 1173.811,37.102 "/>
<line fill="none" stroke="#FFFFFF" stroke-width="2" stroke-linecap="square" stroke-miterlimit="10" x1="1185.907" y1="31.161" x2="1192.679" y2="50.661"/>
<line fill="none" stroke="#FFFFFF" stroke-width="2" stroke-linecap="square" stroke-miterlimit="10" x1="1197.252" y1="27.223" x2="1204.021" y2="46.723"/>
<line fill="none" stroke="#FFFFFF" stroke-width="2" stroke-linecap="square" stroke-miterlimit="10" x1="1183.422" y1="37.894" x2="1179.473" y2="39.265"/>
<line fill="none" stroke="#FFFFFF" stroke-width="2" stroke-linecap="square" stroke-miterlimit="10" x1="1186.741" y1="47.458" x2="1182.793" y2="48.828"/>
<line fill="none" stroke="#FFFFFF" stroke-width="2" stroke-linecap="square" stroke-miterlimit="10" x1="1207.215" y1="29.751" x2="1203.41" y2="31.072"/>
<line fill="none" stroke="#FFFFFF" stroke-width="2" stroke-linecap="square" stroke-miterlimit="10" x1="1210.535" y1="39.314" x2="1206.73" y2="40.634"/>
<path fill="none" stroke="#FFFFFF" stroke-width="2" stroke-linecap="square" stroke-miterlimit="10" d="M721.488,20.561
	l25.394,5.666c0.55,0.123,0.896,0.672,0.771,1.227l-9.89,44.322c-0.124,0.555-0.669,0.904-1.219,0.781l-24.396-5.443
	c-0.552-0.123-0.896-0.672-0.773-1.227l8.667-38.84"/>
<path fill="none" stroke="#FFFFFF" stroke-width="2" stroke-linecap="square" stroke-miterlimit="10" d="M739.392,84.929
	l-33.74-7.528c-0.741-0.165-1.208-0.899-1.042-1.641l13.322-59.71c0.165-0.741,0.9-1.208,1.642-1.042l32.399,7.229
	c0.741,0.165,1.207,0.899,1.042,1.641l-12.19,54.64"/>
<path fill="#FFFFFF" stroke="#FFFFFF" stroke-width="2" stroke-miterlimit="10" d="M725.206,75.972
	c-0.262,1.175-1.426,1.913-2.599,1.651c-1.175-0.263-1.912-1.425-1.648-2.599c0.261-1.172,1.423-1.911,2.598-1.648
	C724.729,73.638,725.468,74.8,725.206,75.972"/>
<path fill="none" stroke="#FFFFFF" stroke-width="2" stroke-linecap="square" stroke-linejoin="round" stroke-miterlimit="10" d="
	M722.36,158.814l45.949,22.955c0.837,0.418,1.178,1.434,0.76,2.271l-17.851,35.729c-0.418,0.836-1.436,1.176-2.271,0.758
	l-52.286-26.118c-0.837-0.421-1.177-1.437-0.759-2.272l18.605-37.244"/>
<line fill="none" stroke="#FFFFFF" stroke-width="2" stroke-linecap="square" stroke-linejoin="round" stroke-miterlimit="10" x1="751.566" y1="208.123" x2="705.127" y2="184.924"/>
<line fill="none" stroke="#FFFFFF" stroke-width="2" stroke-linecap="square" stroke-linejoin="round" stroke-miterlimit="10" x1="757.136" y1="187.707" x2="741.768" y2="180.031"/>
<line fill="none" stroke="#FFFFFF" stroke-width="2" stroke-linecap="square" stroke-linejoin="round" stroke-miterlimit="10" x1="754.927" y1="192.129" x2="743.349" y2="186.344"/>
<line fill="none" stroke="#FFFFFF" stroke-width="2" stroke-linecap="square" stroke-linejoin="round" stroke-miterlimit="10" x1="753.653" y1="203.645" x2="707.215" y2="180.445"/>
<path fill="none" stroke="#FFFFFF" stroke-width="2" stroke-linecap="square" stroke-miterlimit="10" d="M861.83,245.41
	l-13.337-55.832c-0.23-0.967,0.366-1.939,1.332-2.17l36.178-8.641c0.967-0.232,1.938,0.363,2.17,1.332l12.23,51.199l-9.534,14.1
	l-27.474,6.563"/>
<polyline fill="none" stroke="#FFFFFF" stroke-width="2" stroke-linecap="square" stroke-miterlimit="10" points="883.398,186.584 
	892.51,224.73 864.574,231.402 855.463,193.258 877.929,187.891 "/>
<line fill="none" stroke="#FFFFFF" stroke-width="2" stroke-linecap="square" stroke-miterlimit="10" x1="882.636" y1="200.52" x2="862.559" y2="205.314"/>
<line fill="none" stroke="#FFFFFF" stroke-width="2" stroke-linecap="square" stroke-miterlimit="10" x1="885.426" y1="212.199" x2="865.349" y2="216.994"/>
<line fill="none" stroke="#FFFFFF" stroke-width="2" stroke-linecap="square" stroke-miterlimit="10" x1="876.184" y1="197.375" x2="875.213" y2="193.309"/>
<line fill="none" stroke="#FFFFFF" stroke-width="2" stroke-linecap="square" stroke-miterlimit="10" x1="866.338" y1="199.727" x2="865.366" y2="195.662"/>
<line fill="none" stroke="#FFFFFF" stroke-width="2" stroke-linecap="square" stroke-miterlimit="10" x1="881.918" y1="221.861" x2="880.982" y2="217.943"/>
<line fill="none" stroke="#FFFFFF" stroke-width="2" stroke-linecap="square" stroke-miterlimit="10" x1="872.073" y1="224.213" x2="871.137" y2="220.297"/>
<path fill="none" stroke="#FFFFFF" stroke-width="2" stroke-linecap="square" stroke-linejoin="round" stroke-miterlimit="10" d="
	M1903.713,154.219l-48.654-16.467c-0.887-0.301-1.36-1.26-1.062-2.146l12.806-37.832c0.299-0.886,1.26-1.361,2.146-1.061
	l55.36,18.738c0.888,0.3,1.363,1.261,1.063,2.148l-13.348,39.435"/>
<line fill="none" stroke="#FFFFFF" stroke-width="2" stroke-linecap="square" stroke-linejoin="round" stroke-miterlimit="10" x1="1868.049" y1="109.36" x2="1917.219" y2="126.002"/>
<line fill="none" stroke="#FFFFFF" stroke-width="2" stroke-linecap="square" stroke-linejoin="round" stroke-miterlimit="10" x1="1865.316" y1="130.344" x2="1881.59" y2="135.852"/>
<line fill="none" stroke="#FFFFFF" stroke-width="2" stroke-linecap="square" stroke-linejoin="round" stroke-miterlimit="10" x1="1866.902" y1="125.664" x2="1879.161" y2="129.813"/>
<line fill="none" stroke="#FFFFFF" stroke-width="2" stroke-linecap="square" stroke-linejoin="round" stroke-miterlimit="10" x1="1866.592" y1="114.083" x2="1915.762" y2="130.725"/>
<path fill="none" stroke="#FFFFFF" stroke-width="2" stroke-linecap="square" stroke-miterlimit="10" d="M1693.23,148.4
	l-55.185-15.816c-0.955-0.273-1.509-1.27-1.233-2.225l10.248-35.756c0.271-0.955,1.271-1.509,2.227-1.235l50.605,14.504
	l7.596,15.229l-7.783,27.153"/>
<polyline fill="none" stroke="#FFFFFF" stroke-width="2" stroke-linecap="square" stroke-miterlimit="10" points="1652.591,100.713 
	1690.291,111.519 1682.377,139.129 1644.677,128.322 1651.041,106.119 "/>
<line fill="none" stroke="#FFFFFF" stroke-width="2" stroke-linecap="square" stroke-miterlimit="10" x1="1664.354" y1="108.224" x2="1658.666" y2="128.066"/>
<line fill="none" stroke="#FFFFFF" stroke-width="2" stroke-linecap="square" stroke-miterlimit="10" x1="1675.896" y1="111.532" x2="1670.209" y2="131.375"/>
<line fill="none" stroke="#FFFFFF" stroke-width="2" stroke-linecap="square" stroke-miterlimit="10" x1="1658.444" y1="112.298" x2="1654.426" y2="111.146"/>
<line fill="none" stroke="#FFFFFF" stroke-width="2" stroke-linecap="square" stroke-miterlimit="10" x1="1655.654" y1="122.029" x2="1651.637" y2="120.877"/>
<line fill="none" stroke="#FFFFFF" stroke-width="2" stroke-linecap="square" stroke-miterlimit="10" x1="1682.588" y1="119.334" x2="1678.717" y2="118.225"/>
<line fill="none" stroke="#FFFFFF" stroke-width="2" stroke-linecap="square" stroke-miterlimit="10" x1="1679.799" y1="129.066" x2="1675.928" y2="127.955"/>
<path fill="none" stroke="#FFFFFF" stroke-width="2" stroke-linecap="square" stroke-miterlimit="10" d="M1770.975,65.606
	l25.394,5.666c0.55,0.123,0.896,0.672,0.771,1.227l-9.892,44.322c-0.123,0.555-0.668,0.904-1.219,0.781l-24.396-5.443
	c-0.554-0.123-0.896-0.672-0.772-1.227l8.666-38.84"/>
<path fill="none" stroke="#FFFFFF" stroke-width="2" stroke-linecap="square" stroke-miterlimit="10" d="M1788.877,129.975
	l-33.74-7.525c-0.74-0.166-1.207-0.9-1.043-1.643l13.324-59.709c0.163-0.741,0.899-1.208,1.641-1.042l32.4,7.229
	c0.739,0.165,1.207,0.899,1.041,1.641l-12.191,54.642"/>
<path fill="#FFFFFF" stroke="#FFFFFF" stroke-width="2" stroke-miterlimit="10" d="M1774.691,121.018
	c-0.263,1.176-1.427,1.914-2.599,1.652c-1.176-0.264-1.912-1.426-1.649-2.6c0.262-1.171,1.424-1.911,2.599-1.648
	C1774.215,118.684,1774.952,119.846,1774.691,121.018"/>
<path fill="none" stroke="#FFFFFF" stroke-width="2" stroke-linecap="square" stroke-linejoin="round" stroke-miterlimit="10" d="
	M1782.82,181.059l45.948,22.955c0.837,0.418,1.177,1.436,0.759,2.271l-17.851,35.729c-0.418,0.838-1.435,1.178-2.271,0.76
	l-52.285-26.121c-0.838-0.418-1.178-1.436-0.76-2.271l18.606-37.245"/>
<line fill="none" stroke="#FFFFFF" stroke-width="2" stroke-linecap="square" stroke-linejoin="round" stroke-miterlimit="10" x1="1812.025" y1="230.365" x2="1765.588" y2="207.166"/>
<line fill="none" stroke="#FFFFFF" stroke-width="2" stroke-linecap="square" stroke-linejoin="round" stroke-miterlimit="10" x1="1817.596" y1="209.951" x2="1802.229" y2="202.273"/>
<line fill="none" stroke="#FFFFFF" stroke-width="2" stroke-linecap="square" stroke-linejoin="round" stroke-miterlimit="10" x1="1815.387" y1="214.371" x2="1803.809" y2="208.588"/>
<line fill="none" stroke="#FFFFFF" stroke-width="2" stroke-linecap="square" stroke-linejoin="round" stroke-miterlimit="10" x1="1814.113" y1="225.887" x2="1767.674" y2="202.688"/>
<path fill="none" stroke="#FFFFFF" stroke-width="2" stroke-linecap="square" stroke-miterlimit="10" d="M1920.954,247.055
	l-13.336-55.834c-0.231-0.967,0.365-1.938,1.33-2.168l36.178-8.643c0.968-0.23,1.938,0.365,2.171,1.332l12.229,51.203l-9.533,14.098
	l-27.474,6.563"/>
<polyline fill="none" stroke="#FFFFFF" stroke-width="2" stroke-linecap="square" stroke-miterlimit="10" points="1942.523,188.229 
	1951.635,226.373 1923.698,233.047 1914.588,194.9 1937.053,189.535 "/>
<line fill="none" stroke="#FFFFFF" stroke-width="2" stroke-linecap="square" stroke-miterlimit="10" x1="1941.762" y1="202.162" x2="1921.684" y2="206.959"/>
<line fill="none" stroke="#FFFFFF" stroke-width="2" stroke-linecap="square" stroke-miterlimit="10" x1="1944.551" y1="213.842" x2="1924.473" y2="218.639"/>
<line fill="none" stroke="#FFFFFF" stroke-width="2" stroke-linecap="square" stroke-miterlimit="10" x1="1935.309" y1="199.02" x2="1934.338" y2="194.953"/>
<line fill="none" stroke="#FFFFFF" stroke-width="2" stroke-linecap="square" stroke-miterlimit="10" x1="1925.463" y1="201.371" x2="1924.491" y2="197.305"/>
<line fill="none" stroke="#FFFFFF" stroke-width="2" stroke-linecap="square" stroke-miterlimit="10" x1="1941.043" y1="223.506" x2="1940.107" y2="219.588"/>
<line fill="none" stroke="#FFFFFF" stroke-width="2" stroke-linecap="square" stroke-miterlimit="10" x1="1931.197" y1="225.857" x2="1930.262" y2="221.939"/>
<path fill="none" stroke="#FFFFFF" stroke-width="2" stroke-linecap="square" stroke-miterlimit="10" d="M2080.469,204.281
	l-24.832-7.766c-0.537-0.168-0.836-0.744-0.666-1.287l13.553-43.344c0.17-0.543,0.742-0.844,1.281-0.676l23.854,7.459
	c0.539,0.168,0.838,0.744,0.668,1.285l-11.877,37.98"/>
<path fill="none" stroke="#FFFFFF" stroke-width="2" stroke-linecap="square" stroke-miterlimit="10" d="M2067.998,138.643
	l32.993,10.316c0.726,0.227,1.129,0.998,0.904,1.723l-18.261,58.393c-0.228,0.725-0.998,1.129-1.723,0.9l-31.686-9.908
	c-0.725-0.227-1.127-0.996-0.898-1.723l16.707-53.434"/>
<path fill="#FFFFFF" stroke="#FFFFFF" stroke-width="2" stroke-miterlimit="10" d="M2081.387,148.752
	c0.358-1.148,1.58-1.787,2.729-1.43c1.146,0.359,1.784,1.58,1.426,2.729c-0.355,1.146-1.577,1.787-2.728,1.428
	C2081.668,151.119,2081.029,149.896,2081.387,148.752"/>
<path fill="none" stroke="#FFFFFF" stroke-width="2" stroke-linecap="square" stroke-linejoin="round" stroke-miterlimit="10" d="
	M1996.354,59.226l51.304,2.531c0.935,0.046,1.653,0.84,1.606,1.774l-1.967,39.892c-0.048,0.935-0.843,1.654-1.775,1.607
	l-58.377-2.88c-0.934-0.046-1.653-0.84-1.608-1.775l2.054-41.583"/>
<line fill="none" stroke="#FFFFFF" stroke-width="2" stroke-linecap="square" stroke-linejoin="round" stroke-miterlimit="10" x1="2042.928" y1="92.62" x2="1991.079" y2="90.062"/>
<line fill="none" stroke="#FFFFFF" stroke-width="2" stroke-linecap="square" stroke-linejoin="round" stroke-miterlimit="10" x1="2039.814" y1="71.688" x2="2022.657" y2="70.842"/>
<line fill="none" stroke="#FFFFFF" stroke-width="2" stroke-linecap="square" stroke-linejoin="round" stroke-miterlimit="10" x1="2039.572" y1="76.624" x2="2026.645" y2="75.986"/>
<line fill="none" stroke="#FFFFFF" stroke-width="2" stroke-linecap="square" stroke-linejoin="round" stroke-miterlimit="10" x1="2043.036" y1="87.679" x2="1991.189" y2="85.121"/>
<path fill="none" stroke="#FFFFFF" stroke-width="2" stroke-linecap="square" stroke-linejoin="round" stroke-miterlimit="10" d="
	M1552.496,119.474l-48.652-16.467c-0.887-0.301-1.36-1.261-1.063-2.146l12.806-37.833c0.3-0.886,1.261-1.361,2.146-1.061
	l55.36,18.738c0.888,0.3,1.361,1.261,1.063,2.148l-13.349,39.436"/>
<line fill="none" stroke="#FFFFFF" stroke-width="2" stroke-linecap="square" stroke-linejoin="round" stroke-miterlimit="10" x1="1516.834" y1="74.615" x2="1566.004" y2="91.257"/>
<line fill="none" stroke="#FFFFFF" stroke-width="2" stroke-linecap="square" stroke-linejoin="round" stroke-miterlimit="10" x1="1514.102" y1="95.599" x2="1530.373" y2="101.107"/>
<line fill="none" stroke="#FFFFFF" stroke-width="2" stroke-linecap="square" stroke-linejoin="round" stroke-miterlimit="10" x1="1515.688" y1="90.918" x2="1527.946" y2="95.068"/>
<line fill="none" stroke="#FFFFFF" stroke-width="2" stroke-linecap="square" stroke-linejoin="round" stroke-miterlimit="10" x1="1515.377" y1="79.337" x2="1564.547" y2="95.98"/>
<path fill="none" stroke="#FFFFFF" stroke-width="2" stroke-linecap="square" stroke-miterlimit="10" d="M1940.559,47.395
	l-54.229,18.829c-0.938,0.326-1.963-0.171-2.288-1.11l-12.201-35.137c-0.326-0.938,0.172-1.965,1.108-2.291l49.731-17.267
	l14.978,8.083l9.267,26.684"/>
<polyline fill="none" stroke="#FFFFFF" stroke-width="2" stroke-linecap="square" stroke-miterlimit="10" points="1879.877,31.789 
	1916.926,18.926 1926.346,46.059 1889.297,58.922 1881.721,37.102 "/>
<line fill="none" stroke="#FFFFFF" stroke-width="2" stroke-linecap="square" stroke-miterlimit="10" x1="1893.818" y1="31.161" x2="1900.588" y2="50.661"/>
<line fill="none" stroke="#FFFFFF" stroke-width="2" stroke-linecap="square" stroke-miterlimit="10" x1="1905.161" y1="27.223" x2="1911.932" y2="46.723"/>
<line fill="none" stroke="#FFFFFF" stroke-width="2" stroke-linecap="square" stroke-miterlimit="10" x1="1891.332" y1="37.894" x2="1887.383" y2="39.265"/>
<line fill="none" stroke="#FFFFFF" stroke-width="2" stroke-linecap="square" stroke-miterlimit="10" x1="1894.652" y1="47.458" x2="1890.702" y2="48.828"/>
<line fill="none" stroke="#FFFFFF" stroke-width="2" stroke-linecap="square" stroke-miterlimit="10" x1="1915.125" y1="29.751" x2="1911.32" y2="31.072"/>
<line fill="none" stroke="#FFFFFF" stroke-width="2" stroke-linecap="square" stroke-miterlimit="10" x1="1918.445" y1="39.314" x2="1914.641" y2="40.634"/>
<path fill="none" stroke="#FFFFFF" stroke-width="2" stroke-linecap="square" stroke-miterlimit="10" d="M1419.759,30.861
	l25.394,5.666c0.551,0.123,0.896,0.672,0.771,1.227l-9.891,44.322c-0.123,0.555-0.669,0.904-1.219,0.781l-24.396-5.443
	c-0.553-0.123-0.896-0.672-0.771-1.227l8.666-38.84"/>
<path fill="none" stroke="#FFFFFF" stroke-width="2" stroke-linecap="square" stroke-miterlimit="10" d="M1437.661,95.23
	l-33.739-7.528c-0.741-0.165-1.208-0.899-1.043-1.641l13.322-59.71c0.165-0.741,0.899-1.208,1.643-1.042l32.398,7.229
	c0.741,0.165,1.207,0.899,1.042,1.641l-12.19,54.64"/>
<path fill="#FFFFFF" stroke="#FFFFFF" stroke-width="2" stroke-miterlimit="10" d="M1423.477,86.273
	c-0.262,1.175-1.426,1.913-2.599,1.651c-1.176-0.263-1.911-1.425-1.649-2.599c0.263-1.172,1.425-1.911,2.599-1.648
	C1422.998,83.939,1423.738,85.101,1423.477,86.273"/>
<path fill="none" stroke="#FFFFFF" stroke-width="2" stroke-linecap="square" stroke-linejoin="round" stroke-miterlimit="10" d="
	M1431.604,146.313l45.95,22.955c0.836,0.418,1.177,1.436,0.759,2.271l-17.851,35.73c-0.418,0.836-1.436,1.176-2.271,0.758
	l-52.285-26.119c-0.838-0.42-1.178-1.436-0.76-2.273l18.604-37.244"/>
<line fill="none" stroke="#FFFFFF" stroke-width="2" stroke-linecap="square" stroke-linejoin="round" stroke-miterlimit="10" x1="1460.811" y1="195.621" x2="1414.371" y2="172.422"/>
<line fill="none" stroke="#FFFFFF" stroke-width="2" stroke-linecap="square" stroke-linejoin="round" stroke-miterlimit="10" x1="1466.381" y1="175.205" x2="1451.013" y2="167.529"/>
<line fill="none" stroke="#FFFFFF" stroke-width="2" stroke-linecap="square" stroke-linejoin="round" stroke-miterlimit="10" x1="1464.172" y1="179.627" x2="1452.594" y2="173.842"/>
<line fill="none" stroke="#FFFFFF" stroke-width="2" stroke-linecap="square" stroke-linejoin="round" stroke-miterlimit="10" x1="1462.896" y1="191.143" x2="1416.459" y2="167.943"/>
<path fill="none" stroke="#FFFFFF" stroke-width="2" stroke-linecap="square" stroke-miterlimit="10" d="M1569.74,212.309
	l-13.337-55.832c-0.23-0.967,0.365-1.938,1.331-2.17l36.178-8.641c0.968-0.232,1.938,0.365,2.171,1.332l12.229,51.201l-9.533,14.098
	l-27.475,6.563"/>
<polyline fill="none" stroke="#FFFFFF" stroke-width="2" stroke-linecap="square" stroke-miterlimit="10" points="1591.308,153.482 
	1600.42,191.629 1572.484,198.301 1563.373,160.156 1585.838,154.789 "/>
<line fill="none" stroke="#FFFFFF" stroke-width="2" stroke-linecap="square" stroke-miterlimit="10" x1="1590.546" y1="167.418" x2="1570.469" y2="172.213"/>
<line fill="none" stroke="#FFFFFF" stroke-width="2" stroke-linecap="square" stroke-miterlimit="10" x1="1593.336" y1="179.098" x2="1573.258" y2="183.893"/>
<line fill="none" stroke="#FFFFFF" stroke-width="2" stroke-linecap="square" stroke-miterlimit="10" x1="1584.094" y1="164.273" x2="1583.123" y2="160.207"/>
<line fill="none" stroke="#FFFFFF" stroke-width="2" stroke-linecap="square" stroke-miterlimit="10" x1="1574.248" y1="166.625" x2="1573.277" y2="162.561"/>
<line fill="none" stroke="#FFFFFF" stroke-width="2" stroke-linecap="square" stroke-miterlimit="10" x1="1589.827" y1="188.76" x2="1588.893" y2="184.842"/>
<line fill="none" stroke="#FFFFFF" stroke-width="2" stroke-linecap="square" stroke-miterlimit="10" x1="1579.982" y1="191.111" x2="1579.047" y2="187.195"/>
<path fill="none" stroke="#FFFFFF" stroke-width="2" stroke-linecap="square" stroke-linejoin="round" stroke-miterlimit="10" d="
	M1645.139,24.481l51.304,2.531c0.937,0.046,1.653,0.84,1.608,1.774l-1.969,39.892c-0.048,0.935-0.841,1.654-1.775,1.607
	l-58.377-2.88c-0.934-0.046-1.653-0.84-1.608-1.775l2.054-41.583"/>
<line fill="none" stroke="#FFFFFF" stroke-width="2" stroke-linecap="square" stroke-linejoin="round" stroke-miterlimit="10" x1="1691.713" y1="57.875" x2="1639.865" y2="55.317"/>
<line fill="none" stroke="#FFFFFF" stroke-width="2" stroke-linecap="square" stroke-linejoin="round" stroke-miterlimit="10" x1="1688.602" y1="36.943" x2="1671.443" y2="36.097"/>
<line fill="none" stroke="#FFFFFF" stroke-width="2" stroke-linecap="square" stroke-linejoin="round" stroke-miterlimit="10" x1="1688.357" y1="41.879" x2="1675.43" y2="41.241"/>
<line fill="none" stroke="#FFFFFF" stroke-width="2" stroke-linecap="square" stroke-linejoin="round" stroke-miterlimit="10" x1="1691.823" y1="52.934" x2="1639.975" y2="50.375"/>
</svg>
