<?xml version="1.0" encoding="utf-8"?>
<!-- Generator: Adobe Illustrator 16.0.0, SVG Export Plug-In . SVG Version: 6.00 Build 0)  -->
<!DOCTYPE svg PUBLIC "-//W3C//DTD SVG 1.1//EN" "http://www.w3.org/Graphics/SVG/1.1/DTD/svg11.dtd">
<svg version="1.1" id="Layer_1" xmlns="http://www.w3.org/2000/svg" xmlns:xlink="http://www.w3.org/1999/xlink" x="0px" y="0px"
	 width="960px" height="160px" viewBox="0 0 960 160" enable-background="new 0 0 960 160" xml:space="preserve">
<rect y="0.042" fill="#56DAF3" width="960" height="159.958"/>
<path fill="none" stroke="#FFFFFF" stroke-width="1.5" stroke-linecap="square" stroke-linejoin="round" stroke-miterlimit="10" d="
	M201.355,143.062l-30.7-10.389c-0.559-0.189-0.859-0.795-0.67-1.355l8.081-23.873c0.189-0.557,0.795-0.855,1.354-0.668
	l34.933,11.824c0.559,0.188,0.86,0.795,0.67,1.355l-8.422,24.883"/>
<line fill="none" stroke="#FFFFFF" stroke-width="1.5" stroke-linecap="square" stroke-linejoin="round" stroke-miterlimit="10" x1="178.852" y1="114.757" x2="209.877" y2="125.257"/>
<line fill="none" stroke="#FFFFFF" stroke-width="1.5" stroke-linecap="square" stroke-linejoin="round" stroke-miterlimit="10" x1="177.128" y1="127.997" x2="187.396" y2="131.472"/>
<line fill="none" stroke="#FFFFFF" stroke-width="1.5" stroke-linecap="square" stroke-linejoin="round" stroke-miterlimit="10" x1="178.128" y1="125.044" x2="185.863" y2="127.663"/>
<line fill="none" stroke="#FFFFFF" stroke-width="1.5" stroke-linecap="square" stroke-linejoin="round" stroke-miterlimit="10" x1="177.933" y1="117.735" x2="208.958" y2="128.237"/>
<path fill="none" stroke="#FFFFFF" stroke-width="1.5" stroke-linecap="square" stroke-miterlimit="10" d="M89.321,59.613
	l-34.82-9.981c-0.603-0.172-0.951-0.801-0.779-1.404l6.467-22.561c0.172-0.602,0.801-0.952,1.404-0.778l31.932,9.152l4.792,9.608
	l-4.911,17.134"/>
<polyline fill="none" stroke="#FFFFFF" stroke-width="1.5" stroke-linecap="square" stroke-miterlimit="10" points="63.678,29.521 
	87.467,36.34 82.473,53.762 58.684,46.943 62.701,32.932 "/>
<line fill="none" stroke="#FFFFFF" stroke-width="1.5" stroke-linecap="square" stroke-miterlimit="10" x1="71.1" y1="34.26" x2="67.511" y2="46.781"/>
<line fill="none" stroke="#FFFFFF" stroke-width="1.5" stroke-linecap="square" stroke-miterlimit="10" x1="78.383" y1="36.349" x2="74.794" y2="48.869"/>
<line fill="none" stroke="#FFFFFF" stroke-width="1.5" stroke-linecap="square" stroke-miterlimit="10" x1="67.371" y1="36.831" x2="64.835" y2="36.104"/>
<line fill="none" stroke="#FFFFFF" stroke-width="1.5" stroke-linecap="square" stroke-miterlimit="10" x1="65.611" y1="42.972" x2="63.076" y2="42.245"/>
<line fill="none" stroke="#FFFFFF" stroke-width="1.5" stroke-linecap="square" stroke-miterlimit="10" x1="82.606" y1="41.271" x2="80.163" y2="40.571"/>
<line fill="none" stroke="#FFFFFF" stroke-width="1.5" stroke-linecap="square" stroke-miterlimit="10" x1="80.846" y1="47.412" x2="78.404" y2="46.711"/>
<path fill="none" stroke="#FFFFFF" stroke-width="1.5" stroke-linecap="square" stroke-miterlimit="10" d="M138.376,7.37
	l16.022,3.575c0.347,0.077,0.565,0.424,0.486,0.774l-6.24,27.966c-0.078,0.35-0.422,0.57-0.77,0.493l-15.394-3.435
	c-0.348-0.077-0.565-0.424-0.488-0.774l5.469-24.506"/>
<path fill="none" stroke="#FFFFFF" stroke-width="1.5" stroke-linecap="square" stroke-miterlimit="10" d="M149.673,47.985
	l-21.29-4.749c-0.467-0.104-0.762-0.568-0.657-1.036l8.406-37.676c0.104-0.468,0.567-0.763,1.036-0.657l20.444,4.561
	c0.467,0.104,0.761,0.568,0.657,1.036l-7.692,34.478"/>
<path fill="#FFFFFF" stroke="#FFFFFF" stroke-width="1.5" stroke-miterlimit="10" d="M140.722,42.334
	c-0.166,0.741-0.9,1.207-1.64,1.042c-0.74-0.166-1.206-0.899-1.041-1.639c0.165-0.74,0.898-1.207,1.64-1.041
	C140.42,40.861,140.887,41.595,140.722,42.334"/>
<path fill="none" stroke="#FFFFFF" stroke-width="1.5" stroke-linecap="square" stroke-linejoin="round" stroke-miterlimit="10" d="
	M116.093,130.524l28.994,14.484c0.529,0.264,0.743,0.906,0.479,1.434l-11.264,22.543c-0.264,0.529-0.906,0.742-1.433,0.48
	l-32.992-16.482c-0.528-0.264-0.743-0.904-0.479-1.434l11.74-23.5"/>
<line fill="none" stroke="#FFFFFF" stroke-width="1.5" stroke-linecap="square" stroke-linejoin="round" stroke-miterlimit="10" x1="134.522" y1="161.636" x2="105.219" y2="146.999"/>
<line fill="none" stroke="#FFFFFF" stroke-width="1.5" stroke-linecap="square" stroke-linejoin="round" stroke-miterlimit="10" x1="138.036" y1="148.757" x2="128.339" y2="143.911"/>
<line fill="none" stroke="#FFFFFF" stroke-width="1.5" stroke-linecap="square" stroke-linejoin="round" stroke-miterlimit="10" x1="136.643" y1="151.544" x2="129.337" y2="147.896"/>
<line fill="none" stroke="#FFFFFF" stroke-width="1.5" stroke-linecap="square" stroke-linejoin="round" stroke-miterlimit="10" x1="135.839" y1="158.812" x2="106.537" y2="144.171"/>
<path fill="none" stroke="#FFFFFF" stroke-width="1.5" stroke-linecap="square" stroke-miterlimit="10" d="M191.663,202.989
	l-8.415-35.23c-0.146-0.609,0.231-1.223,0.84-1.369l22.827-5.451c0.61-0.146,1.223,0.23,1.369,0.84l7.718,32.307l-6.016,8.896
	l-17.335,4.143"/>
<polyline fill="none" stroke="#FFFFFF" stroke-width="1.5" stroke-linecap="square" stroke-miterlimit="10" points="205.271,165.87 
	211.021,189.938 193.394,194.151 187.645,170.081 201.82,166.696 "/>
<line fill="none" stroke="#FFFFFF" stroke-width="1.5" stroke-linecap="square" stroke-miterlimit="10" x1="204.79" y1="174.663" x2="192.122" y2="177.688"/>
<line fill="none" stroke="#FFFFFF" stroke-width="1.5" stroke-linecap="square" stroke-miterlimit="10" x1="206.551" y1="182.032" x2="193.882" y2="185.06"/>
<line fill="none" stroke="#FFFFFF" stroke-width="1.5" stroke-linecap="square" stroke-miterlimit="10" x1="200.719" y1="172.679" x2="200.106" y2="170.114"/>
<line fill="none" stroke="#FFFFFF" stroke-width="1.5" stroke-linecap="square" stroke-miterlimit="10" x1="194.506" y1="174.163" x2="193.894" y2="171.599"/>
<line fill="none" stroke="#FFFFFF" stroke-width="1.5" stroke-linecap="square" stroke-miterlimit="10" x1="204.337" y1="188.132" x2="203.747" y2="185.657"/>
<line fill="none" stroke="#FFFFFF" stroke-width="1.5" stroke-linecap="square" stroke-miterlimit="10" x1="198.125" y1="189.612" x2="197.534" y2="187.142"/>
<path fill="none" stroke="#FFFFFF" stroke-width="1.5" stroke-linecap="square" stroke-miterlimit="10" d="M303.474,160.066
	l-15.669-4.9c-0.34-0.105-0.527-0.471-0.421-0.813l8.551-27.346c0.107-0.344,0.469-0.535,0.809-0.43l15.052,4.707
	c0.34,0.105,0.528,0.469,0.42,0.811l-7.493,23.965"/>
<path fill="none" stroke="#FFFFFF" stroke-width="1.5" stroke-linecap="square" stroke-miterlimit="10" d="M295.605,118.65
	l20.819,6.51c0.458,0.143,0.712,0.629,0.569,1.084l-11.521,36.846c-0.144,0.459-0.629,0.713-1.087,0.568l-19.992-6.252
	c-0.458-0.143-0.711-0.627-0.569-1.086l10.542-33.715"/>
<path fill="#FFFFFF" stroke="#FFFFFF" stroke-width="1.5" stroke-miterlimit="10" d="M304.053,125.027
	c0.226-0.725,0.997-1.127,1.721-0.9c0.724,0.227,1.127,0.994,0.901,1.721c-0.226,0.723-0.996,1.129-1.721,0.902
	C304.23,126.521,303.828,125.75,304.053,125.027"/>
<path fill="none" stroke="#FFFFFF" stroke-width="1.5" stroke-linecap="square" stroke-linejoin="round" stroke-miterlimit="10" d="
	M248.305,16.678l32.372,1.598c0.589,0.028,1.042,0.529,1.013,1.119l-1.241,25.171c-0.029,0.589-0.53,1.044-1.121,1.014
	l-36.834-1.818c-0.589-0.028-1.043-0.529-1.014-1.121l1.294-26.238"/>
<line fill="none" stroke="#FFFFFF" stroke-width="1.5" stroke-linecap="square" stroke-linejoin="round" stroke-miterlimit="10" x1="277.692" y1="37.749" x2="244.978" y2="36.135"/>
<line fill="none" stroke="#FFFFFF" stroke-width="1.5" stroke-linecap="square" stroke-linejoin="round" stroke-miterlimit="10" x1="275.729" y1="24.542" x2="264.902" y2="24.008"/>
<line fill="none" stroke="#FFFFFF" stroke-width="1.5" stroke-linecap="square" stroke-linejoin="round" stroke-miterlimit="10" x1="275.575" y1="27.656" x2="267.418" y2="27.254"/>
<line fill="none" stroke="#FFFFFF" stroke-width="1.5" stroke-linecap="square" stroke-linejoin="round" stroke-miterlimit="10" x1="277.762" y1="34.632" x2="245.046" y2="33.017"/>
<path fill="none" stroke="#FFFFFF" stroke-width="1.5" stroke-linecap="square" stroke-miterlimit="10" d="M227.588,14.363
	l-34.217,11.881c-0.592,0.205-1.239-0.108-1.444-0.702l-7.698-22.17c-0.206-0.591,0.108-1.24,0.699-1.445l31.38-10.896l9.451,5.101
	l5.846,16.837"/>
<polyline fill="none" stroke="#FFFFFF" stroke-width="1.5" stroke-linecap="square" stroke-miterlimit="10" points="189.3,4.517 
	212.677,-3.6 218.621,13.52 195.244,21.637 190.463,7.868 "/>
<line fill="none" stroke="#FFFFFF" stroke-width="1.5" stroke-linecap="square" stroke-miterlimit="10" x1="198.097" y1="4.119" x2="202.369" y2="16.423"/>
<line fill="none" stroke="#FFFFFF" stroke-width="1.5" stroke-linecap="square" stroke-miterlimit="10" x1="205.255" y1="1.635" x2="209.526" y2="13.939"/>
<line fill="none" stroke="#FFFFFF" stroke-width="1.5" stroke-linecap="square" stroke-miterlimit="10" x1="196.528" y1="8.368" x2="194.036" y2="9.233"/>
<line fill="none" stroke="#FFFFFF" stroke-width="1.5" stroke-linecap="square" stroke-miterlimit="10" x1="198.623" y1="14.403" x2="196.131" y2="15.267"/>
<line fill="none" stroke="#FFFFFF" stroke-width="1.5" stroke-linecap="square" stroke-miterlimit="10" x1="211.542" y1="3.229" x2="209.141" y2="4.063"/>
<line fill="none" stroke="#FFFFFF" stroke-width="1.5" stroke-linecap="square" stroke-miterlimit="10" x1="213.637" y1="9.264" x2="211.236" y2="10.097"/>
<path fill="none" stroke="#FFFFFF" stroke-width="1.5" stroke-linecap="square" stroke-miterlimit="10" d="M-6.391,127.154
	l-8.416-35.229c-0.146-0.611,0.231-1.223,0.84-1.371l22.827-5.451c0.61-0.146,1.223,0.23,1.369,0.84l7.718,32.307l-6.016,8.896
	l-17.334,4.141"/>
<polyline fill="none" stroke="#FFFFFF" stroke-width="1.5" stroke-linecap="square" stroke-miterlimit="10" points="7.218,90.035 
	12.967,114.105 -4.659,118.314 -10.408,94.246 3.767,90.859 "/>
<line fill="none" stroke="#FFFFFF" stroke-width="1.5" stroke-linecap="square" stroke-miterlimit="10" x1="6.737" y1="98.828" x2="-5.932" y2="101.854"/>
<line fill="none" stroke="#FFFFFF" stroke-width="1.5" stroke-linecap="square" stroke-miterlimit="10" x1="8.498" y1="106.199" x2="-4.171" y2="109.225"/>
<line fill="none" stroke="#FFFFFF" stroke-width="1.5" stroke-linecap="square" stroke-miterlimit="10" x1="2.666" y1="96.844" x2="2.053" y2="94.279"/>
<line fill="none" stroke="#FFFFFF" stroke-width="1.5" stroke-linecap="square" stroke-miterlimit="10" x1="-3.546" y1="98.328" x2="-4.159" y2="95.764"/>
<line fill="none" stroke="#FFFFFF" stroke-width="1.5" stroke-linecap="square" stroke-miterlimit="10" x1="6.284" y1="112.297" x2="5.694" y2="109.822"/>
<line fill="none" stroke="#FFFFFF" stroke-width="1.5" stroke-linecap="square" stroke-miterlimit="10" x1="0.072" y1="113.777" x2="-0.519" y2="111.307"/>
<path fill="none" stroke="#FFFFFF" stroke-width="1.5" stroke-linecap="square" stroke-linejoin="round" stroke-miterlimit="10" d="
	M58.977-18.58l32.37,1.597c0.59,0.03,1.043,0.531,1.015,1.12L91.12,9.308c-0.03,0.591-0.53,1.043-1.12,1.015L53.166,8.505
	c-0.59-0.029-1.044-0.531-1.015-1.12l1.294-26.239"/>
<line fill="none" stroke="#FFFFFF" stroke-width="1.5" stroke-linecap="square" stroke-linejoin="round" stroke-miterlimit="10" x1="88.363" y1="2.491" x2="55.648" y2="0.877"/>
<line fill="none" stroke="#FFFFFF" stroke-width="1.5" stroke-linecap="square" stroke-linejoin="round" stroke-miterlimit="10" x1="86.4" y1="-10.716" x2="75.573" y2="-11.25"/>
<line fill="none" stroke="#FFFFFF" stroke-width="1.5" stroke-linecap="square" stroke-linejoin="round" stroke-miterlimit="10" x1="86.246" y1="-7.602" x2="78.089" y2="-8.004"/>
<line fill="none" stroke="#FFFFFF" stroke-width="1.5" stroke-linecap="square" stroke-linejoin="round" stroke-miterlimit="10" x1="88.434" y1="-0.626" x2="55.717" y2="-2.241"/>
<path fill="none" stroke="#FFFFFF" stroke-width="1.5" stroke-linecap="square" stroke-linejoin="round" stroke-miterlimit="10" d="
	M655.304,149.788l-30.7-10.393c-0.558-0.189-0.857-0.795-0.669-1.354l8.08-23.871c0.189-0.559,0.795-0.859,1.354-0.67l34.932,11.824
	c0.56,0.189,0.859,0.795,0.67,1.354l-8.423,24.883"/>
<line fill="none" stroke="#FFFFFF" stroke-width="1.5" stroke-linecap="square" stroke-linejoin="round" stroke-miterlimit="10" x1="632.801" y1="121.481" x2="663.826" y2="131.981"/>
<line fill="none" stroke="#FFFFFF" stroke-width="1.5" stroke-linecap="square" stroke-linejoin="round" stroke-miterlimit="10" x1="631.077" y1="134.72" x2="641.345" y2="138.198"/>
<line fill="none" stroke="#FFFFFF" stroke-width="1.5" stroke-linecap="square" stroke-linejoin="round" stroke-miterlimit="10" x1="632.076" y1="131.769" x2="639.813" y2="134.386"/>
<line fill="none" stroke="#FFFFFF" stroke-width="1.5" stroke-linecap="square" stroke-linejoin="round" stroke-miterlimit="10" x1="631.881" y1="124.462" x2="662.907" y2="134.964"/>
<path fill="none" stroke="#FFFFFF" stroke-width="1.5" stroke-linecap="square" stroke-miterlimit="10" d="M473.345,13.031
	L508.026,2.58c0.6-0.181,1.233,0.16,1.414,0.76l6.77,22.471c0.182,0.6-0.159,1.235-0.76,1.416l-31.803,9.583l-9.23-5.489
	l-5.142-17.066"/>
<polyline fill="none" stroke="#FFFFFF" stroke-width="1.5" stroke-linecap="square" stroke-miterlimit="10" points="511.19,24.458 
	487.498,31.597 482.269,14.243 505.963,7.105 510.169,21.06 "/>
<line fill="none" stroke="#FFFFFF" stroke-width="1.5" stroke-linecap="square" stroke-miterlimit="10" x1="502.387" y1="24.488" x2="498.628" y2="12.018"/>
<line fill="none" stroke="#FFFFFF" stroke-width="1.5" stroke-linecap="square" stroke-miterlimit="10" x1="495.131" y1="26.674" x2="491.373" y2="14.203"/>
<line fill="none" stroke="#FFFFFF" stroke-width="1.5" stroke-linecap="square" stroke-miterlimit="10" x1="504.129" y1="20.309" x2="506.655" y2="19.548"/>
<line fill="none" stroke="#FFFFFF" stroke-width="1.5" stroke-linecap="square" stroke-miterlimit="10" x1="502.286" y1="14.192" x2="504.813" y2="13.433"/>
<line fill="none" stroke="#FFFFFF" stroke-width="1.5" stroke-linecap="square" stroke-miterlimit="10" x1="488.916" y1="24.819" x2="491.35" y2="24.086"/>
<line fill="none" stroke="#FFFFFF" stroke-width="1.5" stroke-linecap="square" stroke-miterlimit="10" x1="487.073" y1="18.702" x2="489.507" y2="17.971"/>
<path fill="none" stroke="#FFFFFF" stroke-width="1.5" stroke-linecap="square" stroke-miterlimit="10" d="M557.251-4.459
	l16.024,3.575c0.346,0.077,0.564,0.424,0.485,0.774l-6.239,27.966c-0.079,0.35-0.423,0.57-0.771,0.493l-15.394-3.435
	c-0.348-0.077-0.564-0.424-0.486-0.773l5.469-24.508"/>
<path fill="none" stroke="#FFFFFF" stroke-width="1.5" stroke-linecap="square" stroke-miterlimit="10" d="M568.548,36.157
	l-21.289-4.75c-0.468-0.104-0.763-0.568-0.659-1.035l8.407-37.677c0.104-0.468,0.568-0.762,1.035-0.657l20.444,4.562
	c0.467,0.104,0.762,0.567,0.657,1.035l-7.693,34.478"/>
<path fill="#FFFFFF" stroke="#FFFFFF" stroke-width="1.5" stroke-miterlimit="10" d="M559.598,30.505
	c-0.167,0.741-0.901,1.207-1.642,1.042c-0.741-0.166-1.207-0.899-1.039-1.641c0.165-0.739,0.898-1.206,1.638-1.039
	C559.296,29.032,559.762,29.767,559.598,30.505"/>
<path fill="none" stroke="#FFFFFF" stroke-width="1.5" stroke-linecap="square" stroke-linejoin="round" stroke-miterlimit="10" d="
	M544.334,130.604l28.993,14.486c0.528,0.264,0.743,0.904,0.479,1.432l-11.264,22.543c-0.265,0.531-0.905,0.746-1.434,0.48
	l-32.991-16.482c-0.528-0.262-0.742-0.904-0.479-1.432l11.74-23.502"/>
<line fill="none" stroke="#FFFFFF" stroke-width="1.5" stroke-linecap="square" stroke-linejoin="round" stroke-miterlimit="10" x1="562.762" y1="161.717" x2="533.46" y2="147.078"/>
<line fill="none" stroke="#FFFFFF" stroke-width="1.5" stroke-linecap="square" stroke-linejoin="round" stroke-miterlimit="10" x1="566.277" y1="148.836" x2="556.581" y2="143.99"/>
<line fill="none" stroke="#FFFFFF" stroke-width="1.5" stroke-linecap="square" stroke-linejoin="round" stroke-miterlimit="10" x1="564.884" y1="151.625" x2="557.577" y2="147.977"/>
<line fill="none" stroke="#FFFFFF" stroke-width="1.5" stroke-linecap="square" stroke-linejoin="round" stroke-miterlimit="10" x1="564.08" y1="158.889" x2="534.778" y2="144.252"/>
<path fill="none" stroke="#FFFFFF" stroke-width="1.5" stroke-linecap="square" stroke-miterlimit="10" d="M697.952,174.05
	l-8.415-35.23c-0.146-0.611,0.23-1.223,0.84-1.367l22.826-5.455c0.612-0.146,1.224,0.23,1.37,0.842l7.718,32.309l-6.017,8.893
	l-17.334,4.143"/>
<polyline fill="none" stroke="#FFFFFF" stroke-width="1.5" stroke-linecap="square" stroke-miterlimit="10" points="
	711.561,136.931 717.311,161.001 699.685,165.21 693.934,141.142 708.109,137.755 "/>
<line fill="none" stroke="#FFFFFF" stroke-width="1.5" stroke-linecap="square" stroke-miterlimit="10" x1="711.08" y1="145.724" x2="698.411" y2="148.751"/>
<line fill="none" stroke="#FFFFFF" stroke-width="1.5" stroke-linecap="square" stroke-miterlimit="10" x1="712.841" y1="153.093" x2="700.171" y2="156.118"/>
<line fill="none" stroke="#FFFFFF" stroke-width="1.5" stroke-linecap="square" stroke-miterlimit="10" x1="707.009" y1="143.741" x2="706.396" y2="141.175"/>
<line fill="none" stroke="#FFFFFF" stroke-width="1.5" stroke-linecap="square" stroke-miterlimit="10" x1="700.796" y1="145.224" x2="700.183" y2="142.657"/>
<line fill="none" stroke="#FFFFFF" stroke-width="1.5" stroke-linecap="square" stroke-miterlimit="10" x1="710.626" y1="159.19" x2="710.036" y2="156.718"/>
<line fill="none" stroke="#FFFFFF" stroke-width="1.5" stroke-linecap="square" stroke-miterlimit="10" x1="704.414" y1="160.675" x2="703.824" y2="158.204"/>
<path fill="none" stroke="#FFFFFF" stroke-width="1.5" stroke-linecap="square" stroke-miterlimit="10" d="M773.229,144.763
	l-15.667-4.9c-0.34-0.105-0.527-0.469-0.421-0.813l8.553-27.35c0.108-0.342,0.467-0.531,0.808-0.426l15.052,4.707
	c0.341,0.105,0.528,0.469,0.422,0.811l-7.494,23.965"/>
<path fill="none" stroke="#FFFFFF" stroke-width="1.5" stroke-linecap="square" stroke-miterlimit="10" d="M765.361,103.345
	l20.819,6.51c0.457,0.145,0.712,0.631,0.569,1.088l-11.522,36.846c-0.144,0.455-0.63,0.711-1.087,0.568l-19.991-6.254
	c-0.459-0.141-0.713-0.629-0.569-1.086l10.542-33.717"/>
<path fill="#FFFFFF" stroke="#FFFFFF" stroke-width="1.5" stroke-miterlimit="10" d="M773.811,109.726
	c0.225-0.725,0.995-1.129,1.721-0.904c0.724,0.229,1.126,0.998,0.899,1.723c-0.225,0.723-0.995,1.127-1.72,0.9
	S773.583,110.448,773.811,109.726"/>
<path fill="none" stroke="#FFFFFF" stroke-width="1.5" stroke-linecap="square" stroke-linejoin="round" stroke-miterlimit="10" d="
	M693.473,18.761l32.371,1.598c0.59,0.028,1.044,0.529,1.014,1.12l-1.242,25.171c-0.029,0.59-0.529,1.042-1.118,1.014l-36.835-1.816
	c-0.591-0.03-1.044-0.531-1.016-1.121l1.295-26.237"/>
<line fill="none" stroke="#FFFFFF" stroke-width="1.5" stroke-linecap="square" stroke-linejoin="round" stroke-miterlimit="10" x1="722.859" y1="39.831" x2="690.146" y2="38.218"/>
<line fill="none" stroke="#FFFFFF" stroke-width="1.5" stroke-linecap="square" stroke-linejoin="round" stroke-miterlimit="10" x1="720.896" y1="26.625" x2="710.07" y2="26.09"/>
<line fill="none" stroke="#FFFFFF" stroke-width="1.5" stroke-linecap="square" stroke-linejoin="round" stroke-miterlimit="10" x1="720.743" y1="29.739" x2="712.586" y2="29.336"/>
<line fill="none" stroke="#FFFFFF" stroke-width="1.5" stroke-linecap="square" stroke-linejoin="round" stroke-miterlimit="10" x1="722.93" y1="36.714" x2="690.214" y2="35.1"/>
<path fill="none" stroke="#FFFFFF" stroke-width="1.5" stroke-linecap="square" stroke-linejoin="round" stroke-miterlimit="10" d="
	M419.396,29.531l-30.7-10.392c-0.559-0.189-0.857-0.795-0.669-1.354l8.08-23.873c0.189-0.558,0.795-0.858,1.355-0.669l34.932,11.824
	c0.56,0.188,0.859,0.795,0.671,1.355l-8.424,24.883"/>
<line fill="none" stroke="#FFFFFF" stroke-width="1.5" stroke-linecap="square" stroke-linejoin="round" stroke-miterlimit="10" x1="396.893" y1="1.226" x2="427.918" y2="11.728"/>
<line fill="none" stroke="#FFFFFF" stroke-width="1.5" stroke-linecap="square" stroke-linejoin="round" stroke-miterlimit="10" x1="395.169" y1="14.466" x2="405.437" y2="17.94"/>
<line fill="none" stroke="#FFFFFF" stroke-width="1.5" stroke-linecap="square" stroke-linejoin="round" stroke-miterlimit="10" x1="396.168" y1="11.513" x2="403.905" y2="14.131"/>
<line fill="none" stroke="#FFFFFF" stroke-width="1.5" stroke-linecap="square" stroke-linejoin="round" stroke-miterlimit="10" x1="395.973" y1="4.206" x2="427" y2="14.706"/>
<path fill="none" stroke="#FFFFFF" stroke-width="1.5" stroke-linecap="square" stroke-miterlimit="10" d="M658.267,15.713
	l-34.218,11.88c-0.593,0.206-1.239-0.108-1.444-0.7l-7.699-22.17c-0.204-0.592,0.108-1.24,0.701-1.446l31.379-10.896l9.45,5.101
	l5.847,16.837"/>
<polyline fill="none" stroke="#FFFFFF" stroke-width="1.5" stroke-linecap="square" stroke-miterlimit="10" points="619.978,5.865 
	643.355,-2.251 649.3,14.87 625.922,22.986 621.142,9.218 "/>
<line fill="none" stroke="#FFFFFF" stroke-width="1.5" stroke-linecap="square" stroke-miterlimit="10" x1="628.774" y1="5.469" x2="633.046" y2="17.773"/>
<line fill="none" stroke="#FFFFFF" stroke-width="1.5" stroke-linecap="square" stroke-miterlimit="10" x1="635.932" y1="2.984" x2="640.203" y2="15.289"/>
<line fill="none" stroke="#FFFFFF" stroke-width="1.5" stroke-linecap="square" stroke-miterlimit="10" x1="627.206" y1="9.718" x2="624.714" y2="10.582"/>
<line fill="none" stroke="#FFFFFF" stroke-width="1.5" stroke-linecap="square" stroke-miterlimit="10" x1="629.301" y1="15.753" x2="626.809" y2="16.617"/>
<line fill="none" stroke="#FFFFFF" stroke-width="1.5" stroke-linecap="square" stroke-miterlimit="10" x1="642.219" y1="4.58" x2="639.818" y2="5.412"/>
<line fill="none" stroke="#FFFFFF" stroke-width="1.5" stroke-linecap="square" stroke-miterlimit="10" x1="644.314" y1="10.614" x2="641.912" y2="11.447"/>
<path fill="none" stroke="#FFFFFF" stroke-width="1.5" stroke-linecap="square" stroke-miterlimit="10" d="M335.733-1.22
	l16.022,3.576c0.347,0.077,0.566,0.424,0.486,0.774l-6.24,27.966c-0.079,0.35-0.422,0.57-0.769,0.493l-15.393-3.435
	c-0.349-0.077-0.566-0.424-0.488-0.774l5.469-24.507"/>
<path fill="none" stroke="#FFFFFF" stroke-width="1.5" stroke-linecap="square" stroke-miterlimit="10" d="M347.03,39.396
	l-21.289-4.751c-0.467-0.104-0.762-0.566-0.657-1.035l8.405-37.676c0.104-0.467,0.568-0.762,1.037-0.657l20.443,4.562
	c0.468,0.104,0.762,0.567,0.657,1.036l-7.691,34.477"/>
<path fill="#FFFFFF" stroke="#FFFFFF" stroke-width="1.5" stroke-miterlimit="10" d="M338.079,33.745
	c-0.165,0.741-0.899,1.207-1.639,1.042c-0.742-0.166-1.207-0.899-1.041-1.641c0.165-0.739,0.898-1.204,1.639-1.039
	C337.778,32.271,338.244,33.005,338.079,33.745"/>
<path fill="none" stroke="#FFFFFF" stroke-width="1.5" stroke-linecap="square" stroke-linejoin="round" stroke-miterlimit="10" d="
	M345.301,123.488l28.993,14.484c0.528,0.266,0.743,0.906,0.479,1.434l-11.263,22.545c-0.264,0.527-0.906,0.74-1.434,0.479
	l-32.992-16.48c-0.528-0.268-0.742-0.908-0.479-1.434l11.74-23.5"/>
<line fill="none" stroke="#FFFFFF" stroke-width="1.5" stroke-linecap="square" stroke-linejoin="round" stroke-miterlimit="10" x1="363.729" y1="154.602" x2="334.428" y2="139.963"/>
<line fill="none" stroke="#FFFFFF" stroke-width="1.5" stroke-linecap="square" stroke-linejoin="round" stroke-miterlimit="10" x1="367.245" y1="141.719" x2="357.547" y2="136.877"/>
<line fill="none" stroke="#FFFFFF" stroke-width="1.5" stroke-linecap="square" stroke-linejoin="round" stroke-miterlimit="10" x1="365.851" y1="144.51" x2="358.545" y2="140.859"/>
<line fill="none" stroke="#FFFFFF" stroke-width="1.5" stroke-linecap="square" stroke-linejoin="round" stroke-miterlimit="10" x1="365.046" y1="151.775" x2="335.745" y2="137.139"/>
<path fill="none" stroke="#FFFFFF" stroke-width="1.5" stroke-linecap="square" stroke-miterlimit="10" d="M449.66,154.252
	l-8.415-35.229c-0.146-0.609,0.23-1.225,0.84-1.369l22.827-5.451c0.61-0.146,1.224,0.23,1.369,0.84l7.718,32.307l-6.016,8.896
	l-17.336,4.141"/>
<polyline fill="none" stroke="#FFFFFF" stroke-width="1.5" stroke-linecap="square" stroke-miterlimit="10" points="
	463.269,117.135 469.018,141.205 451.392,145.416 445.642,121.346 459.817,117.959 "/>
<line fill="none" stroke="#FFFFFF" stroke-width="1.5" stroke-linecap="square" stroke-miterlimit="10" x1="462.788" y1="125.928" x2="450.119" y2="128.953"/>
<line fill="none" stroke="#FFFFFF" stroke-width="1.5" stroke-linecap="square" stroke-miterlimit="10" x1="464.548" y1="133.297" x2="451.88" y2="136.322"/>
<line fill="none" stroke="#FFFFFF" stroke-width="1.5" stroke-linecap="square" stroke-miterlimit="10" x1="458.716" y1="123.943" x2="458.104" y2="121.377"/>
<line fill="none" stroke="#FFFFFF" stroke-width="1.5" stroke-linecap="square" stroke-miterlimit="10" x1="452.504" y1="125.428" x2="451.892" y2="122.863"/>
<line fill="none" stroke="#FFFFFF" stroke-width="1.5" stroke-linecap="square" stroke-miterlimit="10" x1="462.335" y1="139.395" x2="461.744" y2="136.922"/>
<line fill="none" stroke="#FFFFFF" stroke-width="1.5" stroke-linecap="square" stroke-miterlimit="10" x1="456.122" y1="140.879" x2="455.532" y2="138.406"/>
<path fill="none" stroke="#FFFFFF" stroke-width="1.5" stroke-linecap="square" stroke-miterlimit="10" d="M937.1,61.635
	l-34.82-9.981c-0.603-0.173-0.951-0.802-0.778-1.403l6.467-22.562c0.172-0.604,0.803-0.954,1.406-0.78l31.93,9.152l4.794,9.608
	l-4.912,17.133"/>
<polyline fill="none" stroke="#FFFFFF" stroke-width="1.5" stroke-linecap="square" stroke-miterlimit="10" points="911.458,31.544 
	935.246,38.363 930.253,55.784 906.464,48.965 910.48,34.955 "/>
<line fill="none" stroke="#FFFFFF" stroke-width="1.5" stroke-linecap="square" stroke-miterlimit="10" x1="918.88" y1="36.284" x2="915.291" y2="48.804"/>
<line fill="none" stroke="#FFFFFF" stroke-width="1.5" stroke-linecap="square" stroke-miterlimit="10" x1="926.162" y1="38.371" x2="922.575" y2="50.892"/>
<line fill="none" stroke="#FFFFFF" stroke-width="1.5" stroke-linecap="square" stroke-miterlimit="10" x1="915.15" y1="38.854" x2="912.615" y2="38.127"/>
<line fill="none" stroke="#FFFFFF" stroke-width="1.5" stroke-linecap="square" stroke-miterlimit="10" x1="913.391" y1="44.994" x2="910.855" y2="44.268"/>
<line fill="none" stroke="#FFFFFF" stroke-width="1.5" stroke-linecap="square" stroke-miterlimit="10" x1="930.386" y1="43.293" x2="927.942" y2="42.594"/>
<line fill="none" stroke="#FFFFFF" stroke-width="1.5" stroke-linecap="square" stroke-miterlimit="10" x1="928.625" y1="49.435" x2="926.184" y2="48.733"/>
<path fill="none" stroke="#FFFFFF" stroke-width="1.5" stroke-linecap="square" stroke-linejoin="round" stroke-miterlimit="10" d="
	M848.3,43.382l-30.699-10.392c-0.56-0.189-0.857-0.795-0.67-1.353l8.08-23.873c0.189-0.558,0.795-0.859,1.354-0.669l34.931,11.824
	c0.561,0.189,0.86,0.795,0.672,1.355l-8.424,24.883"/>
<line fill="none" stroke="#FFFFFF" stroke-width="1.5" stroke-linecap="square" stroke-linejoin="round" stroke-miterlimit="10" x1="825.797" y1="15.077" x2="856.822" y2="25.578"/>
<line fill="none" stroke="#FFFFFF" stroke-width="1.5" stroke-linecap="square" stroke-linejoin="round" stroke-miterlimit="10" x1="824.074" y1="28.318" x2="834.341" y2="31.793"/>
<line fill="none" stroke="#FFFFFF" stroke-width="1.5" stroke-linecap="square" stroke-linejoin="round" stroke-miterlimit="10" x1="825.074" y1="25.364" x2="832.809" y2="27.982"/>
<line fill="none" stroke="#FFFFFF" stroke-width="1.5" stroke-linecap="square" stroke-linejoin="round" stroke-miterlimit="10" x1="824.878" y1="18.057" x2="855.903" y2="28.558"/>
<path fill="none" stroke="#FFFFFF" stroke-width="1.5" stroke-linecap="square" stroke-miterlimit="10" d="M776.33,9.596
	l16.024,3.576c0.346,0.077,0.564,0.424,0.485,0.773l-6.239,27.967c-0.078,0.35-0.423,0.57-0.77,0.493l-15.394-3.435
	c-0.348-0.077-0.566-0.424-0.486-0.774l5.468-24.507"/>
<path fill="none" stroke="#FFFFFF" stroke-width="1.5" stroke-linecap="square" stroke-miterlimit="10" d="M787.627,50.212
	l-21.29-4.75c-0.467-0.104-0.762-0.567-0.657-1.036l8.406-37.675c0.104-0.468,0.567-0.763,1.036-0.658l20.443,4.562
	c0.468,0.104,0.762,0.568,0.658,1.036l-7.693,34.477"/>
<path fill="#FFFFFF" stroke="#FFFFFF" stroke-width="1.5" stroke-miterlimit="10" d="M778.678,44.56
	c-0.166,0.741-0.9,1.207-1.641,1.042c-0.742-0.166-1.207-0.898-1.041-1.639c0.167-0.74,0.9-1.206,1.64-1.041
	C778.376,43.088,778.842,43.821,778.678,44.56"/>
<path fill="none" stroke="#FFFFFF" stroke-width="1.5" stroke-linecap="square" stroke-linejoin="round" stroke-miterlimit="10" d="
	M810.486,108.187l28.994,14.482c0.527,0.264,0.742,0.906,0.479,1.434l-11.265,22.545c-0.263,0.527-0.905,0.742-1.432,0.48
	l-32.991-16.482c-0.528-0.266-0.744-0.906-0.479-1.434l11.739-23.502"/>
<line fill="none" stroke="#FFFFFF" stroke-width="1.5" stroke-linecap="square" stroke-linejoin="round" stroke-miterlimit="10" x1="828.916" y1="139.298" x2="799.614" y2="124.659"/>
<line fill="none" stroke="#FFFFFF" stroke-width="1.5" stroke-linecap="square" stroke-linejoin="round" stroke-miterlimit="10" x1="832.431" y1="126.417" x2="822.733" y2="121.571"/>
<line fill="none" stroke="#FFFFFF" stroke-width="1.5" stroke-linecap="square" stroke-linejoin="round" stroke-miterlimit="10" x1="831.036" y1="129.206" x2="823.731" y2="125.556"/>
<line fill="none" stroke="#FFFFFF" stroke-width="1.5" stroke-linecap="square" stroke-linejoin="round" stroke-miterlimit="10" x1="830.231" y1="136.472" x2="800.931" y2="121.835"/>
<path fill="none" stroke="#FFFFFF" stroke-width="1.5" stroke-linecap="square" stroke-miterlimit="10" d="M897.647,144.78
	l-8.415-35.229c-0.146-0.611,0.23-1.223,0.84-1.371l22.828-5.451c0.61-0.146,1.222,0.23,1.368,0.84l7.718,32.307l-6.016,8.896
	l-17.337,4.141"/>
<polyline fill="none" stroke="#FFFFFF" stroke-width="1.5" stroke-linecap="square" stroke-miterlimit="10" points="
	911.257,107.661 917.006,131.729 899.38,135.94 893.631,111.872 907.806,108.485 "/>
<line fill="none" stroke="#FFFFFF" stroke-width="1.5" stroke-linecap="square" stroke-miterlimit="10" x1="910.776" y1="116.454" x2="898.108" y2="119.479"/>
<line fill="none" stroke="#FFFFFF" stroke-width="1.5" stroke-linecap="square" stroke-miterlimit="10" x1="912.537" y1="123.825" x2="899.867" y2="126.851"/>
<line fill="none" stroke="#FFFFFF" stroke-width="1.5" stroke-linecap="square" stroke-miterlimit="10" x1="906.705" y1="114.47" x2="906.093" y2="111.905"/>
<line fill="none" stroke="#FFFFFF" stroke-width="1.5" stroke-linecap="square" stroke-miterlimit="10" x1="900.493" y1="115.954" x2="899.881" y2="113.39"/>
<line fill="none" stroke="#FFFFFF" stroke-width="1.5" stroke-linecap="square" stroke-miterlimit="10" x1="910.323" y1="129.921" x2="909.732" y2="127.45"/>
<line fill="none" stroke="#FFFFFF" stroke-width="1.5" stroke-linecap="square" stroke-miterlimit="10" x1="904.11" y1="131.405" x2="903.521" y2="128.935"/>
<path fill="none" stroke="#FFFFFF" stroke-width="1.5" stroke-linecap="square" stroke-linejoin="round" stroke-miterlimit="10" d="
	M906.756-16.558l32.372,1.597c0.59,0.03,1.043,0.53,1.015,1.12L938.9,11.33c-0.03,0.59-0.53,1.044-1.12,1.014l-36.835-1.818
	c-0.589-0.027-1.043-0.529-1.016-1.12l1.297-26.238"/>
<line fill="none" stroke="#FFFFFF" stroke-width="1.5" stroke-linecap="square" stroke-linejoin="round" stroke-miterlimit="10" x1="936.144" y1="4.514" x2="903.428" y2="2.899"/>
<line fill="none" stroke="#FFFFFF" stroke-width="1.5" stroke-linecap="square" stroke-linejoin="round" stroke-miterlimit="10" x1="934.181" y1="-8.693" x2="923.354" y2="-9.227"/>
<line fill="none" stroke="#FFFFFF" stroke-width="1.5" stroke-linecap="square" stroke-linejoin="round" stroke-miterlimit="10" x1="934.025" y1="-5.58" x2="925.868" y2="-5.981"/>
<line fill="none" stroke="#FFFFFF" stroke-width="1.5" stroke-linecap="square" stroke-linejoin="round" stroke-miterlimit="10" x1="936.214" y1="1.396" x2="903.498" y2="-0.219"/>
</svg>
