<?xml version="1.0" encoding="utf-8"?>
<!-- Generator: Adobe Illustrator 16.0.0, SVG Export Plug-In . SVG Version: 6.00 Build 0)  -->
<!DOCTYPE svg PUBLIC "-//W3C//DTD SVG 1.1//EN" "http://www.w3.org/Graphics/SVG/1.1/DTD/svg11.dtd">
<svg version="1.1" id="Layer_1" xmlns="http://www.w3.org/2000/svg" xmlns:xlink="http://www.w3.org/1999/xlink" x="0px" y="0px"
	 width="1908.67px" height="240px" viewBox="0 0 1908.67 240" enable-background="new 0 0 1908.67 240" xml:space="preserve">
<rect fill="#56DAF3" width="1908.671" height="240"/>
<path fill="none" stroke="#FFFFFF" stroke-width="2" stroke-linecap="square" stroke-linejoin="round" stroke-miterlimit="10" d="
	M527.485,198.789l-48.654-16.467c-0.886-0.301-1.361-1.26-1.062-2.146l12.806-37.832c0.3-0.885,1.261-1.36,2.146-1.061
	l55.362,18.738c0.887,0.3,1.362,1.261,1.063,2.148l-13.348,39.435"/>
<line fill="none" stroke="#FFFFFF" stroke-width="2" stroke-linecap="square" stroke-linejoin="round" stroke-miterlimit="10" x1="491.822" y1="153.93" x2="540.992" y2="170.572"/>
<line fill="none" stroke="#FFFFFF" stroke-width="2" stroke-linecap="square" stroke-linejoin="round" stroke-miterlimit="10" x1="489.09" y1="174.914" x2="505.362" y2="180.422"/>
<line fill="none" stroke="#FFFFFF" stroke-width="2" stroke-linecap="square" stroke-linejoin="round" stroke-miterlimit="10" x1="490.675" y1="170.234" x2="502.935" y2="174.383"/>
<line fill="none" stroke="#FFFFFF" stroke-width="2" stroke-linecap="square" stroke-linejoin="round" stroke-miterlimit="10" x1="490.365" y1="158.653" x2="539.536" y2="175.295"/>
<path fill="none" stroke="#FFFFFF" stroke-width="2" stroke-linecap="square" stroke-miterlimit="10" d="M302.772,146.262
	l-55.184-15.816c-0.955-0.273-1.507-1.27-1.234-2.225l10.248-35.756c0.273-0.955,1.271-1.509,2.226-1.235l50.606,14.504
	l7.595,15.229l-7.783,27.154"/>
<polyline fill="none" stroke="#FFFFFF" stroke-width="2" stroke-linecap="square" stroke-miterlimit="10" points="262.132,98.574 
	299.833,109.38 291.919,136.99 254.218,126.184 260.583,103.98 "/>
<line fill="none" stroke="#FFFFFF" stroke-width="2" stroke-linecap="square" stroke-miterlimit="10" x1="273.894" y1="106.085" x2="268.207" y2="125.928"/>
<line fill="none" stroke="#FFFFFF" stroke-width="2" stroke-linecap="square" stroke-miterlimit="10" x1="285.437" y1="109.394" x2="279.75" y2="129.236"/>
<line fill="none" stroke="#FFFFFF" stroke-width="2" stroke-linecap="square" stroke-miterlimit="10" x1="267.986" y1="110.159" x2="263.967" y2="109.007"/>
<line fill="none" stroke="#FFFFFF" stroke-width="2" stroke-linecap="square" stroke-miterlimit="10" x1="265.196" y1="119.891" x2="261.178" y2="118.738"/>
<line fill="none" stroke="#FFFFFF" stroke-width="2" stroke-linecap="square" stroke-miterlimit="10" x1="292.13" y1="117.195" x2="288.258" y2="116.086"/>
<line fill="none" stroke="#FFFFFF" stroke-width="2" stroke-linecap="square" stroke-miterlimit="10" x1="289.341" y1="126.928" x2="285.47" y2="125.816"/>
<path fill="none" stroke="#FFFFFF" stroke-width="2" stroke-linecap="square" stroke-miterlimit="10" d="M380.515,63.467
	l25.393,5.666c0.55,0.123,0.896,0.672,0.771,1.227l-9.89,44.322c-0.123,0.555-0.669,0.904-1.219,0.781l-24.396-5.443
	c-0.552-0.123-0.896-0.672-0.773-1.227l8.667-38.84"/>
<path fill="none" stroke="#FFFFFF" stroke-width="2" stroke-linecap="square" stroke-miterlimit="10" d="M398.419,127.836
	l-33.741-7.526c-0.741-0.166-1.208-0.9-1.042-1.642l13.323-59.71c0.164-0.741,0.899-1.208,1.641-1.042l32.4,7.229
	c0.74,0.165,1.206,0.899,1.041,1.641l-12.19,54.641"/>
<path fill="#FFFFFF" stroke="#FFFFFF" stroke-width="2" stroke-miterlimit="10" d="M384.233,118.879
	c-0.262,1.176-1.426,1.914-2.599,1.652c-1.174-0.264-1.912-1.426-1.649-2.6c0.261-1.171,1.423-1.911,2.598-1.648
	C383.755,116.545,384.495,117.708,384.233,118.879"/>
<path fill="none" stroke="#FFFFFF" stroke-width="2" stroke-linecap="square" stroke-linejoin="round" stroke-miterlimit="10" d="
	M392.361,178.92l45.95,22.955c0.837,0.418,1.177,1.435,0.759,2.271l-17.85,35.729c-0.418,0.838-1.436,1.178-2.271,0.76
	l-52.286-26.121c-0.837-0.418-1.177-1.436-0.759-2.271l18.606-37.246"/>
<line fill="none" stroke="#FFFFFF" stroke-width="2" stroke-linecap="square" stroke-linejoin="round" stroke-miterlimit="10" x1="421.567" y1="228.227" x2="375.128" y2="205.027"/>
<line fill="none" stroke="#FFFFFF" stroke-width="2" stroke-linecap="square" stroke-linejoin="round" stroke-miterlimit="10" x1="427.137" y1="207.813" x2="411.769" y2="200.135"/>
<line fill="none" stroke="#FFFFFF" stroke-width="2" stroke-linecap="square" stroke-linejoin="round" stroke-miterlimit="10" x1="424.928" y1="212.232" x2="413.35" y2="206.449"/>
<line fill="none" stroke="#FFFFFF" stroke-width="2" stroke-linecap="square" stroke-linejoin="round" stroke-miterlimit="10" x1="423.654" y1="223.748" x2="377.216" y2="200.549"/>
<path fill="none" stroke="#FFFFFF" stroke-width="2" stroke-linecap="square" stroke-miterlimit="10" d="M512.125,293.764
	l-13.337-55.834c-0.23-0.967,0.366-1.938,1.332-2.168l36.178-8.643c0.967-0.23,1.938,0.365,2.17,1.332l12.23,51.203l-9.534,14.098
	l-27.473,6.563"/>
<polyline fill="none" stroke="#FFFFFF" stroke-width="2" stroke-linecap="square" stroke-miterlimit="10" points="533.692,234.938 
	542.804,273.082 514.869,279.756 505.757,241.609 528.223,236.244 "/>
<line fill="none" stroke="#FFFFFF" stroke-width="2" stroke-linecap="square" stroke-miterlimit="10" x1="532.93" y1="248.871" x2="512.853" y2="253.668"/>
<line fill="none" stroke="#FFFFFF" stroke-width="2" stroke-linecap="square" stroke-miterlimit="10" x1="535.72" y1="260.551" x2="515.643" y2="265.348"/>
<line fill="none" stroke="#FFFFFF" stroke-width="2" stroke-linecap="square" stroke-miterlimit="10" x1="526.478" y1="245.729" x2="525.507" y2="241.662"/>
<line fill="none" stroke="#FFFFFF" stroke-width="2" stroke-linecap="square" stroke-miterlimit="10" x1="516.632" y1="248.08" x2="515.661" y2="244.014"/>
<line fill="none" stroke="#FFFFFF" stroke-width="2" stroke-linecap="square" stroke-miterlimit="10" x1="532.212" y1="270.215" x2="531.276" y2="266.297"/>
<line fill="none" stroke="#FFFFFF" stroke-width="2" stroke-linecap="square" stroke-miterlimit="10" x1="522.367" y1="272.566" x2="521.431" y2="268.648"/>
<path fill="none" stroke="#FFFFFF" stroke-width="2" stroke-linecap="square" stroke-miterlimit="10" d="M670.303,240.492
	l-24.832-7.766c-0.539-0.168-0.836-0.744-0.667-1.287l13.553-43.342c0.169-0.543,0.742-0.845,1.281-0.677l23.855,7.459
	c0.539,0.168,0.837,0.744,0.667,1.285l-11.876,37.981"/>
<path fill="none" stroke="#FFFFFF" stroke-width="2" stroke-linecap="square" stroke-miterlimit="10" d="M657.832,174.854
	l32.995,10.316c0.726,0.227,1.128,0.998,0.903,1.723l-18.259,58.392c-0.228,0.725-0.998,1.129-1.724,0.901l-31.683-9.908
	c-0.726-0.227-1.128-0.995-0.902-1.723l16.708-53.434"/>
<path fill="#FFFFFF" stroke="#FFFFFF" stroke-width="2" stroke-miterlimit="10" d="M671.221,184.963
	c0.358-1.148,1.579-1.787,2.728-1.43c1.148,0.359,1.786,1.58,1.428,2.729c-0.359,1.146-1.578,1.787-2.728,1.428
	C671.501,187.33,670.863,186.107,671.221,184.963"/>
<path fill="none" stroke="#FFFFFF" stroke-width="2" stroke-linecap="square" stroke-linejoin="round" stroke-miterlimit="10" d="
	M582.931,35.084l51.303,2.531c0.934,0.046,1.653,0.84,1.607,1.774l-1.968,39.892c-0.046,0.935-0.84,1.654-1.775,1.607l-58.376-2.88
	c-0.935-0.046-1.654-0.84-1.608-1.775l2.052-41.583"/>
<line fill="none" stroke="#FFFFFF" stroke-width="2" stroke-linecap="square" stroke-linejoin="round" stroke-miterlimit="10" x1="629.504" y1="68.479" x2="577.657" y2="65.92"/>
<line fill="none" stroke="#FFFFFF" stroke-width="2" stroke-linecap="square" stroke-linejoin="round" stroke-miterlimit="10" x1="626.392" y1="47.548" x2="609.234" y2="46.701"/>
<line fill="none" stroke="#FFFFFF" stroke-width="2" stroke-linecap="square" stroke-linejoin="round" stroke-miterlimit="10" x1="626.148" y1="52.483" x2="613.221" y2="51.846"/>
<line fill="none" stroke="#FFFFFF" stroke-width="2" stroke-linecap="square" stroke-linejoin="round" stroke-miterlimit="10" x1="629.614" y1="63.538" x2="577.766" y2="60.979"/>
<path fill="none" stroke="#FFFFFF" stroke-width="2" stroke-linecap="square" stroke-linejoin="round" stroke-miterlimit="10" d="
	M162.039,117.335l-48.654-16.467c-0.886-0.301-1.361-1.261-1.061-2.146l12.805-37.833c0.3-0.886,1.261-1.361,2.147-1.061
	l55.362,18.738c0.887,0.3,1.362,1.261,1.063,2.148l-13.348,39.436"/>
<line fill="none" stroke="#FFFFFF" stroke-width="2" stroke-linecap="square" stroke-linejoin="round" stroke-miterlimit="10" x1="126.375" y1="72.477" x2="175.545" y2="89.118"/>
<line fill="none" stroke="#FFFFFF" stroke-width="2" stroke-linecap="square" stroke-linejoin="round" stroke-miterlimit="10" x1="123.644" y1="93.46" x2="139.916" y2="98.968"/>
<line fill="none" stroke="#FFFFFF" stroke-width="2" stroke-linecap="square" stroke-linejoin="round" stroke-miterlimit="10" x1="125.228" y1="88.779" x2="137.488" y2="92.929"/>
<line fill="none" stroke="#FFFFFF" stroke-width="2" stroke-linecap="square" stroke-linejoin="round" stroke-miterlimit="10" x1="124.918" y1="77.198" x2="174.089" y2="93.841"/>
<path fill="none" stroke="#FFFFFF" stroke-width="2" stroke-linecap="square" stroke-miterlimit="10" d="M550.099,31.416
	L495.87,50.245c-0.938,0.326-1.964-0.171-2.29-1.11L481.38,13.998c-0.326-0.938,0.171-1.965,1.108-2.291L532.22-5.56l14.977,8.083
	l9.266,26.684"/>
<polyline fill="none" stroke="#FFFFFF" stroke-width="2" stroke-linecap="square" stroke-miterlimit="10" points="489.418,15.81 
	526.467,2.947 535.887,30.08 498.838,42.943 491.262,21.123 "/>
<line fill="none" stroke="#FFFFFF" stroke-width="2" stroke-linecap="square" stroke-miterlimit="10" x1="503.359" y1="15.182" x2="510.13" y2="34.682"/>
<line fill="none" stroke="#FFFFFF" stroke-width="2" stroke-linecap="square" stroke-miterlimit="10" x1="514.703" y1="11.244" x2="521.473" y2="30.744"/>
<line fill="none" stroke="#FFFFFF" stroke-width="2" stroke-linecap="square" stroke-miterlimit="10" x1="500.873" y1="21.915" x2="496.924" y2="23.286"/>
<line fill="none" stroke="#FFFFFF" stroke-width="2" stroke-linecap="square" stroke-miterlimit="10" x1="504.193" y1="31.479" x2="500.244" y2="32.849"/>
<line fill="none" stroke="#FFFFFF" stroke-width="2" stroke-linecap="square" stroke-miterlimit="10" x1="524.667" y1="13.772" x2="520.862" y2="15.093"/>
<line fill="none" stroke="#FFFFFF" stroke-width="2" stroke-linecap="square" stroke-miterlimit="10" x1="527.987" y1="23.335" x2="524.183" y2="24.655"/>
<path fill="none" stroke="#FFFFFF" stroke-width="2" stroke-linecap="square" stroke-miterlimit="10" d="M29.3,28.722l25.393,5.666
	c0.55,0.123,0.896,0.672,0.771,1.227l-9.889,44.322c-0.124,0.555-0.669,0.904-1.219,0.781L19.96,75.275
	c-0.551-0.123-0.896-0.672-0.773-1.227l8.667-38.84"/>
<path fill="none" stroke="#FFFFFF" stroke-width="2" stroke-linecap="square" stroke-miterlimit="10" d="M47.204,93.091
	l-33.741-7.528c-0.741-0.165-1.208-0.899-1.042-1.641l13.323-59.71c0.165-0.741,0.9-1.208,1.641-1.042l32.4,7.229
	c0.741,0.165,1.207,0.899,1.042,1.641L48.636,86.68"/>
<path fill="#FFFFFF" stroke="#FFFFFF" stroke-width="2" stroke-miterlimit="10" d="M33.019,84.134
	c-0.262,1.175-1.426,1.913-2.599,1.651c-1.174-0.263-1.912-1.425-1.649-2.599c0.261-1.172,1.423-1.911,2.598-1.648
	C32.541,81.8,33.28,82.962,33.019,84.134"/>
<path fill="none" stroke="#FFFFFF" stroke-width="2" stroke-linecap="square" stroke-linejoin="round" stroke-miterlimit="10" d="
	M41.146,144.174l45.95,22.955c0.837,0.418,1.177,1.435,0.759,2.271l-17.851,35.73c-0.418,0.836-1.435,1.176-2.271,0.758
	l-52.286-26.118c-0.837-0.42-1.177-1.437-0.759-2.273l18.606-37.245"/>
<line fill="none" stroke="#FFFFFF" stroke-width="2" stroke-linecap="square" stroke-linejoin="round" stroke-miterlimit="10" x1="70.352" y1="193.482" x2="23.914" y2="170.283"/>
<line fill="none" stroke="#FFFFFF" stroke-width="2" stroke-linecap="square" stroke-linejoin="round" stroke-miterlimit="10" x1="75.922" y1="173.066" x2="60.554" y2="165.391"/>
<line fill="none" stroke="#FFFFFF" stroke-width="2" stroke-linecap="square" stroke-linejoin="round" stroke-miterlimit="10" x1="73.713" y1="177.488" x2="62.135" y2="171.703"/>
<line fill="none" stroke="#FFFFFF" stroke-width="2" stroke-linecap="square" stroke-linejoin="round" stroke-miterlimit="10" x1="72.439" y1="189.004" x2="26.001" y2="165.805"/>
<path fill="none" stroke="#FFFFFF" stroke-width="2" stroke-linecap="square" stroke-miterlimit="10" d="M179.282,210.17
	l-13.337-55.832c-0.231-0.967,0.366-1.938,1.332-2.17l36.177-8.641c0.967-0.232,1.939,0.365,2.17,1.332l12.231,51.201l-9.534,14.098
	l-27.473,6.563"/>
<polyline fill="none" stroke="#FFFFFF" stroke-width="2" stroke-linecap="square" stroke-miterlimit="10" points="200.849,151.344 
	209.961,189.49 182.026,196.162 172.915,158.018 195.38,152.65 "/>
<line fill="none" stroke="#FFFFFF" stroke-width="2" stroke-linecap="square" stroke-miterlimit="10" x1="200.087" y1="165.279" x2="180.01" y2="170.074"/>
<line fill="none" stroke="#FFFFFF" stroke-width="2" stroke-linecap="square" stroke-miterlimit="10" x1="202.877" y1="176.959" x2="182.8" y2="181.754"/>
<line fill="none" stroke="#FFFFFF" stroke-width="2" stroke-linecap="square" stroke-miterlimit="10" x1="193.635" y1="162.135" x2="192.664" y2="158.068"/>
<line fill="none" stroke="#FFFFFF" stroke-width="2" stroke-linecap="square" stroke-miterlimit="10" x1="183.79" y1="164.486" x2="182.818" y2="160.422"/>
<line fill="none" stroke="#FFFFFF" stroke-width="2" stroke-linecap="square" stroke-miterlimit="10" x1="199.369" y1="186.621" x2="198.434" y2="182.703"/>
<line fill="none" stroke="#FFFFFF" stroke-width="2" stroke-linecap="square" stroke-miterlimit="10" x1="189.524" y1="188.973" x2="188.588" y2="185.057"/>
<path fill="none" stroke="#FFFFFF" stroke-width="2" stroke-linecap="square" stroke-linejoin="round" stroke-miterlimit="10" d="
	M254.681,22.342l51.302,2.531c0.935,0.046,1.653,0.84,1.608,1.774l-1.969,39.892c-0.047,0.935-0.84,1.654-1.775,1.607l-58.375-2.88
	c-0.935-0.046-1.655-0.84-1.609-1.775l2.052-41.583"/>
<line fill="none" stroke="#FFFFFF" stroke-width="2" stroke-linecap="square" stroke-linejoin="round" stroke-miterlimit="10" x1="301.254" y1="55.736" x2="249.407" y2="53.178"/>
<line fill="none" stroke="#FFFFFF" stroke-width="2" stroke-linecap="square" stroke-linejoin="round" stroke-miterlimit="10" x1="298.142" y1="34.804" x2="280.984" y2="33.958"/>
<line fill="none" stroke="#FFFFFF" stroke-width="2" stroke-linecap="square" stroke-linejoin="round" stroke-miterlimit="10" x1="297.898" y1="39.74" x2="284.971" y2="39.103"/>
<line fill="none" stroke="#FFFFFF" stroke-width="2" stroke-linecap="square" stroke-linejoin="round" stroke-miterlimit="10" x1="301.365" y1="50.795" x2="249.516" y2="48.236"/>
<path fill="none" stroke="#FFFFFF" stroke-width="2" stroke-linecap="square" stroke-linejoin="round" stroke-miterlimit="10" d="
	M1185.667,220.243l-48.654-16.467c-0.885-0.301-1.359-1.26-1.061-2.146l12.805-37.832c0.301-0.885,1.262-1.36,2.146-1.061
	l55.361,18.738c0.887,0.3,1.363,1.261,1.063,2.148l-13.348,39.435"/>
<line fill="none" stroke="#FFFFFF" stroke-width="2" stroke-linecap="square" stroke-linejoin="round" stroke-miterlimit="10" x1="1150.003" y1="175.384" x2="1199.173" y2="192.026"/>
<line fill="none" stroke="#FFFFFF" stroke-width="2" stroke-linecap="square" stroke-linejoin="round" stroke-miterlimit="10" x1="1147.272" y1="196.368" x2="1163.544" y2="201.876"/>
<line fill="none" stroke="#FFFFFF" stroke-width="2" stroke-linecap="square" stroke-linejoin="round" stroke-miterlimit="10" x1="1148.856" y1="191.688" x2="1161.116" y2="195.837"/>
<line fill="none" stroke="#FFFFFF" stroke-width="2" stroke-linecap="square" stroke-linejoin="round" stroke-miterlimit="10" x1="1148.546" y1="180.107" x2="1197.718" y2="196.749"/>
<path fill="none" stroke="#FFFFFF" stroke-width="2" stroke-linecap="square" stroke-miterlimit="10" d="M939.579,29.304
	l54.964-16.562c0.951-0.287,1.955,0.252,2.241,1.203l10.73,35.614c0.287,0.951-0.252,1.957-1.204,2.243L955.907,66.99l-14.629-8.698
	l-8.149-27.047"/>
<polyline fill="none" stroke="#FFFFFF" stroke-width="2" stroke-linecap="square" stroke-miterlimit="10" points="999.559,47.414 
	962.009,58.728 953.722,31.227 991.273,19.913 997.938,42.029 "/>
<line fill="none" stroke="#FFFFFF" stroke-width="2" stroke-linecap="square" stroke-miterlimit="10" x1="985.604" y1="47.463" x2="979.648" y2="27.699"/>
<line fill="none" stroke="#FFFFFF" stroke-width="2" stroke-linecap="square" stroke-miterlimit="10" x1="974.106" y1="50.927" x2="968.151" y2="31.162"/>
<line fill="none" stroke="#FFFFFF" stroke-width="2" stroke-linecap="square" stroke-miterlimit="10" x1="988.367" y1="40.839" x2="992.371" y2="39.633"/>
<line fill="none" stroke="#FFFFFF" stroke-width="2" stroke-linecap="square" stroke-miterlimit="10" x1="985.447" y1="31.146" x2="989.45" y2="29.941"/>
<line fill="none" stroke="#FFFFFF" stroke-width="2" stroke-linecap="square" stroke-miterlimit="10" x1="964.257" y1="47.987" x2="968.113" y2="46.825"/>
<line fill="none" stroke="#FFFFFF" stroke-width="2" stroke-linecap="square" stroke-miterlimit="10" x1="961.336" y1="38.293" x2="965.192" y2="37.134"/>
<path fill="none" stroke="#FFFFFF" stroke-width="2" stroke-linecap="square" stroke-miterlimit="10" d="M1072.557,1.586
	l25.394,5.666c0.55,0.123,0.895,0.672,0.771,1.227l-9.89,44.322c-0.124,0.555-0.669,0.904-1.22,0.781l-24.396-5.443
	c-0.552-0.123-0.896-0.672-0.772-1.227l8.666-38.84"/>
<path fill="none" stroke="#FFFFFF" stroke-width="2" stroke-linecap="square" stroke-miterlimit="10" d="M1090.46,65.955
	l-33.741-7.527c-0.74-0.166-1.207-0.9-1.043-1.641L1069-2.924c0.164-0.741,0.9-1.208,1.641-1.042l32.4,7.229
	c0.74,0.165,1.207,0.899,1.041,1.641l-12.191,54.641"/>
<path fill="#FFFFFF" stroke="#FFFFFF" stroke-width="2" stroke-miterlimit="10" d="M1076.274,56.998
	c-0.264,1.176-1.427,1.914-2.6,1.652c-1.175-0.264-1.912-1.426-1.649-2.6c0.262-1.171,1.424-1.911,2.598-1.648
	C1075.797,54.664,1076.535,55.827,1076.274,56.998"/>
<path fill="none" stroke="#FFFFFF" stroke-width="2" stroke-linecap="square" stroke-linejoin="round" stroke-miterlimit="10" d="
	M1052.085,215.639l45.949,22.955c0.838,0.418,1.178,1.434,0.76,2.27l-17.852,35.73c-0.418,0.838-1.434,1.178-2.271,0.76
	l-52.285-26.121c-0.838-0.418-1.178-1.436-0.76-2.271l18.607-37.246"/>
<line fill="none" stroke="#FFFFFF" stroke-width="2" stroke-linecap="square" stroke-linejoin="round" stroke-miterlimit="10" x1="1081.29" y1="264.945" x2="1034.853" y2="241.746"/>
<line fill="none" stroke="#FFFFFF" stroke-width="2" stroke-linecap="square" stroke-linejoin="round" stroke-miterlimit="10" x1="1086.86" y1="244.531" x2="1071.493" y2="236.854"/>
<line fill="none" stroke="#FFFFFF" stroke-width="2" stroke-linecap="square" stroke-linejoin="round" stroke-miterlimit="10" x1="1084.651" y1="248.951" x2="1073.073" y2="243.168"/>
<line fill="none" stroke="#FFFFFF" stroke-width="2" stroke-linecap="square" stroke-linejoin="round" stroke-miterlimit="10" x1="1083.378" y1="260.467" x2="1036.94" y2="237.268"/>
<path fill="none" stroke="#FFFFFF" stroke-width="2" stroke-linecap="square" stroke-miterlimit="10" d="M1253.258,258.696
	l-13.338-55.834c-0.23-0.967,0.365-1.938,1.332-2.168l36.176-8.643c0.969-0.23,1.939,0.365,2.17,1.332l12.232,51.203l-9.535,14.098
	l-27.473,6.563"/>
<polyline fill="none" stroke="#FFFFFF" stroke-width="2" stroke-linecap="square" stroke-miterlimit="10" points="1274.824,199.87 
	1283.936,238.015 1256.002,244.688 1246.889,206.542 1269.355,201.177 "/>
<line fill="none" stroke="#FFFFFF" stroke-width="2" stroke-linecap="square" stroke-miterlimit="10" x1="1274.063" y1="213.804" x2="1253.984" y2="218.601"/>
<line fill="none" stroke="#FFFFFF" stroke-width="2" stroke-linecap="square" stroke-miterlimit="10" x1="1276.852" y1="225.483" x2="1256.773" y2="230.28"/>
<line fill="none" stroke="#FFFFFF" stroke-width="2" stroke-linecap="square" stroke-miterlimit="10" x1="1267.609" y1="210.661" x2="1266.639" y2="206.595"/>
<line fill="none" stroke="#FFFFFF" stroke-width="2" stroke-linecap="square" stroke-miterlimit="10" x1="1257.764" y1="213.013" x2="1256.793" y2="208.946"/>
<line fill="none" stroke="#FFFFFF" stroke-width="2" stroke-linecap="square" stroke-miterlimit="10" x1="1273.344" y1="235.147" x2="1272.408" y2="231.229"/>
<line fill="none" stroke="#FFFFFF" stroke-width="2" stroke-linecap="square" stroke-miterlimit="10" x1="1263.498" y1="237.499" x2="1262.563" y2="233.581"/>
<path fill="none" stroke="#FFFFFF" stroke-width="2" stroke-linecap="square" stroke-miterlimit="10" d="M1372.559,212.281
	l-24.831-7.766c-0.538-0.168-0.837-0.744-0.667-1.287l13.554-43.343c0.17-0.543,0.741-0.844,1.28-0.676l23.855,7.459
	c0.539,0.168,0.838,0.744,0.668,1.285l-11.877,37.981"/>
<path fill="none" stroke="#FFFFFF" stroke-width="2" stroke-linecap="square" stroke-miterlimit="10" d="M1360.088,146.643
	l32.995,10.316c0.725,0.227,1.128,0.998,0.903,1.723l-18.261,58.392c-0.227,0.725-0.998,1.129-1.723,0.901l-31.683-9.908
	c-0.727-0.227-1.129-0.996-0.901-1.723l16.707-53.434"/>
<path fill="#FFFFFF" stroke="#FFFFFF" stroke-width="2" stroke-miterlimit="10" d="M1373.477,156.752
	c0.359-1.148,1.58-1.787,2.729-1.43c1.147,0.359,1.785,1.58,1.427,2.729c-0.357,1.146-1.578,1.787-2.727,1.428
	S1373.119,157.896,1373.477,156.752"/>
<path fill="none" stroke="#FFFFFF" stroke-width="2" stroke-linecap="square" stroke-linejoin="round" stroke-miterlimit="10" d="
	M1288.444,38.386l51.302,2.531c0.935,0.046,1.654,0.84,1.607,1.774l-1.968,39.892c-0.047,0.935-0.841,1.654-1.774,1.607
	l-58.376-2.88c-0.936-0.046-1.655-0.84-1.609-1.775l2.052-41.583"/>
<line fill="none" stroke="#FFFFFF" stroke-width="2" stroke-linecap="square" stroke-linejoin="round" stroke-miterlimit="10" x1="1335.018" y1="71.78" x2="1283.171" y2="69.222"/>
<line fill="none" stroke="#FFFFFF" stroke-width="2" stroke-linecap="square" stroke-linejoin="round" stroke-miterlimit="10" x1="1331.905" y1="50.848" x2="1314.748" y2="50.001"/>
<line fill="none" stroke="#FFFFFF" stroke-width="2" stroke-linecap="square" stroke-linejoin="round" stroke-miterlimit="10" x1="1331.662" y1="55.784" x2="1318.734" y2="55.146"/>
<line fill="none" stroke="#FFFFFF" stroke-width="2" stroke-linecap="square" stroke-linejoin="round" stroke-miterlimit="10" x1="1335.128" y1="66.839" x2="1283.279" y2="64.281"/>
<path fill="none" stroke="#FFFFFF" stroke-width="2" stroke-linecap="square" stroke-linejoin="round" stroke-miterlimit="10" d="
	M854.08,55.454l-48.654-16.467c-0.886-0.301-1.36-1.261-1.061-2.146L817.17-0.992c0.3-0.886,1.261-1.361,2.147-1.061l55.361,18.738
	c0.888,0.3,1.362,1.261,1.063,2.148l-13.349,39.436"/>
<line fill="none" stroke="#FFFFFF" stroke-width="2" stroke-linecap="square" stroke-linejoin="round" stroke-miterlimit="10" x1="818.416" y1="10.595" x2="867.586" y2="27.238"/>
<line fill="none" stroke="#FFFFFF" stroke-width="2" stroke-linecap="square" stroke-linejoin="round" stroke-miterlimit="10" x1="815.685" y1="31.579" x2="831.957" y2="37.086"/>
<line fill="none" stroke="#FFFFFF" stroke-width="2" stroke-linecap="square" stroke-linejoin="round" stroke-miterlimit="10" x1="817.269" y1="26.899" x2="829.529" y2="31.048"/>
<line fill="none" stroke="#FFFFFF" stroke-width="2" stroke-linecap="square" stroke-linejoin="round" stroke-miterlimit="10" x1="816.959" y1="15.318" x2="866.13" y2="31.959"/>
<path fill="none" stroke="#FFFFFF" stroke-width="2" stroke-linecap="square" stroke-miterlimit="10" d="M1232.648,33.555
	l-54.23,18.829c-0.938,0.326-1.963-0.171-2.289-1.11l-12.2-35.137c-0.325-0.938,0.171-1.965,1.109-2.291l49.731-17.267l14.977,8.083
	l9.266,26.684"/>
<polyline fill="none" stroke="#FFFFFF" stroke-width="2" stroke-linecap="square" stroke-miterlimit="10" points="1171.967,17.949 
	1209.016,5.085 1218.436,32.219 1181.387,45.082 1173.811,23.262 "/>
<line fill="none" stroke="#FFFFFF" stroke-width="2" stroke-linecap="square" stroke-miterlimit="10" x1="1185.908" y1="17.321" x2="1192.679" y2="36.821"/>
<line fill="none" stroke="#FFFFFF" stroke-width="2" stroke-linecap="square" stroke-miterlimit="10" x1="1197.252" y1="13.383" x2="1204.021" y2="32.883"/>
<line fill="none" stroke="#FFFFFF" stroke-width="2" stroke-linecap="square" stroke-miterlimit="10" x1="1183.422" y1="24.054" x2="1179.473" y2="25.425"/>
<line fill="none" stroke="#FFFFFF" stroke-width="2" stroke-linecap="square" stroke-miterlimit="10" x1="1186.742" y1="33.618" x2="1182.793" y2="34.988"/>
<line fill="none" stroke="#FFFFFF" stroke-width="2" stroke-linecap="square" stroke-miterlimit="10" x1="1207.215" y1="15.911" x2="1203.411" y2="17.231"/>
<line fill="none" stroke="#FFFFFF" stroke-width="2" stroke-linecap="square" stroke-miterlimit="10" x1="1210.536" y1="25.474" x2="1206.73" y2="26.793"/>
<path fill="none" stroke="#FFFFFF" stroke-width="2" stroke-linecap="square" stroke-miterlimit="10" d="M721.488,6.721
	l25.393,5.666c0.55,0.123,0.896,0.672,0.771,1.227l-9.89,44.322c-0.124,0.555-0.669,0.904-1.219,0.781l-24.396-5.443
	c-0.552-0.123-0.896-0.672-0.773-1.227l8.667-38.84"/>
<path fill="none" stroke="#FFFFFF" stroke-width="2" stroke-linecap="square" stroke-miterlimit="10" d="M739.392,71.089
	l-33.74-7.528c-0.741-0.165-1.208-0.899-1.042-1.641l13.322-59.71c0.165-0.741,0.9-1.208,1.642-1.042l32.399,7.229
	c0.741,0.165,1.207,0.899,1.042,1.641l-12.19,54.64"/>
<path fill="#FFFFFF" stroke="#FFFFFF" stroke-width="2" stroke-miterlimit="10" d="M725.207,62.132
	c-0.262,1.175-1.426,1.913-2.599,1.651c-1.175-0.263-1.912-1.425-1.649-2.599c0.261-1.172,1.423-1.911,2.598-1.648
	C724.729,59.798,725.468,60.959,725.207,62.132"/>
<path fill="none" stroke="#FFFFFF" stroke-width="2" stroke-linecap="square" stroke-linejoin="round" stroke-miterlimit="10" d="
	M736.592,182.523l45.949,22.955c0.837,0.418,1.178,1.434,0.76,2.271l-17.851,35.729c-0.418,0.836-1.435,1.176-2.271,0.758
	l-52.286-26.118c-0.837-0.421-1.177-1.437-0.759-2.273l18.605-37.243"/>
<line fill="none" stroke="#FFFFFF" stroke-width="2" stroke-linecap="square" stroke-linejoin="round" stroke-miterlimit="10" x1="765.798" y1="231.832" x2="719.359" y2="208.633"/>
<line fill="none" stroke="#FFFFFF" stroke-width="2" stroke-linecap="square" stroke-linejoin="round" stroke-miterlimit="10" x1="771.368" y1="211.416" x2="756" y2="203.74"/>
<line fill="none" stroke="#FFFFFF" stroke-width="2" stroke-linecap="square" stroke-linejoin="round" stroke-miterlimit="10" x1="769.159" y1="215.838" x2="757.581" y2="210.053"/>
<line fill="none" stroke="#FFFFFF" stroke-width="2" stroke-linecap="square" stroke-linejoin="round" stroke-miterlimit="10" x1="767.885" y1="227.354" x2="721.447" y2="204.154"/>
<path fill="none" stroke="#FFFFFF" stroke-width="2" stroke-linecap="square" stroke-miterlimit="10" d="M902.043,253.117
	l-13.337-55.832c-0.231-0.967,0.366-1.939,1.332-2.17l36.177-8.641c0.967-0.232,1.939,0.364,2.17,1.332l12.231,51.2l-9.534,14.099
	l-27.474,6.563"/>
<polyline fill="none" stroke="#FFFFFF" stroke-width="2" stroke-linecap="square" stroke-miterlimit="10" points="923.61,194.291 
	932.722,232.438 904.787,239.109 895.675,200.965 918.141,195.598 "/>
<line fill="none" stroke="#FFFFFF" stroke-width="2" stroke-linecap="square" stroke-miterlimit="10" x1="922.848" y1="208.227" x2="902.771" y2="213.021"/>
<line fill="none" stroke="#FFFFFF" stroke-width="2" stroke-linecap="square" stroke-miterlimit="10" x1="925.638" y1="219.906" x2="905.561" y2="224.701"/>
<line fill="none" stroke="#FFFFFF" stroke-width="2" stroke-linecap="square" stroke-miterlimit="10" x1="916.396" y1="205.082" x2="915.425" y2="201.016"/>
<line fill="none" stroke="#FFFFFF" stroke-width="2" stroke-linecap="square" stroke-miterlimit="10" x1="906.55" y1="207.434" x2="905.579" y2="203.369"/>
<line fill="none" stroke="#FFFFFF" stroke-width="2" stroke-linecap="square" stroke-miterlimit="10" x1="922.13" y1="229.568" x2="921.194" y2="225.65"/>
<line fill="none" stroke="#FFFFFF" stroke-width="2" stroke-linecap="square" stroke-miterlimit="10" x1="912.285" y1="231.92" x2="911.349" y2="228.004"/>
<path fill="none" stroke="#FFFFFF" stroke-width="2" stroke-linecap="square" stroke-linejoin="round" stroke-miterlimit="10" d="
	M1903.713,154.219l-48.654-16.467c-0.887-0.301-1.36-1.26-1.061-2.146l12.805-37.832c0.299-0.886,1.26-1.361,2.146-1.061
	l55.36,18.738c0.888,0.3,1.363,1.261,1.063,2.148l-13.348,39.435"/>
<line fill="none" stroke="#FFFFFF" stroke-width="2" stroke-linecap="square" stroke-linejoin="round" stroke-miterlimit="10" x1="1868.049" y1="109.36" x2="1917.219" y2="126.002"/>
<line fill="none" stroke="#FFFFFF" stroke-width="2" stroke-linecap="square" stroke-linejoin="round" stroke-miterlimit="10" x1="1865.316" y1="130.344" x2="1881.59" y2="135.852"/>
<line fill="none" stroke="#FFFFFF" stroke-width="2" stroke-linecap="square" stroke-linejoin="round" stroke-miterlimit="10" x1="1866.902" y1="125.664" x2="1879.162" y2="129.813"/>
<line fill="none" stroke="#FFFFFF" stroke-width="2" stroke-linecap="square" stroke-linejoin="round" stroke-miterlimit="10" x1="1866.592" y1="114.083" x2="1915.762" y2="130.725"/>
<path fill="none" stroke="#FFFFFF" stroke-width="2" stroke-linecap="square" stroke-miterlimit="10" d="M1693.23,148.4
	l-55.185-15.816c-0.955-0.273-1.508-1.27-1.233-2.225l10.248-35.756c0.272-0.955,1.271-1.509,2.227-1.235l50.605,14.504
	l7.596,15.229l-7.783,27.154"/>
<polyline fill="none" stroke="#FFFFFF" stroke-width="2" stroke-linecap="square" stroke-miterlimit="10" points="1652.591,100.713 
	1690.291,111.519 1682.377,139.129 1644.677,128.322 1651.041,106.119 "/>
<line fill="none" stroke="#FFFFFF" stroke-width="2" stroke-linecap="square" stroke-miterlimit="10" x1="1664.354" y1="108.224" x2="1658.666" y2="128.066"/>
<line fill="none" stroke="#FFFFFF" stroke-width="2" stroke-linecap="square" stroke-miterlimit="10" x1="1675.896" y1="111.532" x2="1670.209" y2="131.375"/>
<line fill="none" stroke="#FFFFFF" stroke-width="2" stroke-linecap="square" stroke-miterlimit="10" x1="1658.444" y1="112.298" x2="1654.426" y2="111.146"/>
<line fill="none" stroke="#FFFFFF" stroke-width="2" stroke-linecap="square" stroke-miterlimit="10" x1="1655.654" y1="122.029" x2="1651.637" y2="120.877"/>
<line fill="none" stroke="#FFFFFF" stroke-width="2" stroke-linecap="square" stroke-miterlimit="10" x1="1682.588" y1="119.334" x2="1678.717" y2="118.225"/>
<line fill="none" stroke="#FFFFFF" stroke-width="2" stroke-linecap="square" stroke-miterlimit="10" x1="1679.799" y1="129.066" x2="1675.928" y2="127.955"/>
<path fill="none" stroke="#FFFFFF" stroke-width="2" stroke-linecap="square" stroke-miterlimit="10" d="M1770.975,65.606
	l25.394,5.666c0.549,0.123,0.895,0.672,0.771,1.227l-9.891,44.322c-0.123,0.555-0.668,0.904-1.219,0.781l-24.396-5.443
	c-0.553-0.123-0.896-0.672-0.772-1.227l8.666-38.84"/>
<path fill="none" stroke="#FFFFFF" stroke-width="2" stroke-linecap="square" stroke-miterlimit="10" d="M1788.877,129.975
	l-33.74-7.526c-0.74-0.166-1.207-0.9-1.043-1.642l13.324-59.71c0.164-0.741,0.9-1.208,1.641-1.042l32.4,7.229
	c0.74,0.165,1.207,0.899,1.041,1.641l-12.191,54.641"/>
<path fill="#FFFFFF" stroke="#FFFFFF" stroke-width="2" stroke-miterlimit="10" d="M1774.691,121.018
	c-0.263,1.176-1.427,1.914-2.599,1.652c-1.176-0.264-1.912-1.426-1.649-2.6c0.262-1.171,1.424-1.911,2.598-1.648
	C1774.215,118.684,1774.953,119.846,1774.691,121.018"/>
<path fill="none" stroke="#FFFFFF" stroke-width="2" stroke-linecap="square" stroke-linejoin="round" stroke-miterlimit="10" d="
	M1782.82,181.059l45.948,22.955c0.837,0.418,1.177,1.435,0.759,2.271l-17.851,35.729c-0.418,0.838-1.434,1.178-2.271,0.76
	l-52.285-26.121c-0.838-0.418-1.178-1.436-0.76-2.271l18.606-37.246"/>
<line fill="none" stroke="#FFFFFF" stroke-width="2" stroke-linecap="square" stroke-linejoin="round" stroke-miterlimit="10" x1="1812.025" y1="230.365" x2="1765.588" y2="207.166"/>
<line fill="none" stroke="#FFFFFF" stroke-width="2" stroke-linecap="square" stroke-linejoin="round" stroke-miterlimit="10" x1="1817.596" y1="209.951" x2="1802.229" y2="202.273"/>
<line fill="none" stroke="#FFFFFF" stroke-width="2" stroke-linecap="square" stroke-linejoin="round" stroke-miterlimit="10" x1="1815.387" y1="214.371" x2="1803.809" y2="208.588"/>
<line fill="none" stroke="#FFFFFF" stroke-width="2" stroke-linecap="square" stroke-linejoin="round" stroke-miterlimit="10" x1="1814.113" y1="225.887" x2="1767.674" y2="202.688"/>
<path fill="none" stroke="#FFFFFF" stroke-width="2" stroke-linecap="square" stroke-linejoin="round" stroke-miterlimit="10" d="
	M1552.497,119.474l-48.653-16.467c-0.887-0.301-1.36-1.261-1.062-2.146l12.805-37.833c0.3-0.886,1.261-1.361,2.147-1.061
	l55.36,18.738c0.888,0.3,1.362,1.261,1.063,2.148l-13.349,39.436"/>
<line fill="none" stroke="#FFFFFF" stroke-width="2" stroke-linecap="square" stroke-linejoin="round" stroke-miterlimit="10" x1="1516.834" y1="74.615" x2="1566.004" y2="91.257"/>
<line fill="none" stroke="#FFFFFF" stroke-width="2" stroke-linecap="square" stroke-linejoin="round" stroke-miterlimit="10" x1="1514.102" y1="95.599" x2="1530.374" y2="101.107"/>
<line fill="none" stroke="#FFFFFF" stroke-width="2" stroke-linecap="square" stroke-linejoin="round" stroke-miterlimit="10" x1="1515.688" y1="90.918" x2="1527.946" y2="95.068"/>
<line fill="none" stroke="#FFFFFF" stroke-width="2" stroke-linecap="square" stroke-linejoin="round" stroke-miterlimit="10" x1="1515.377" y1="79.337" x2="1564.547" y2="95.98"/>
<path fill="none" stroke="#FFFFFF" stroke-width="2" stroke-linecap="square" stroke-miterlimit="10" d="M1940.559,47.395
	l-54.229,18.829c-0.938,0.326-1.963-0.171-2.289-1.11l-12.201-35.137c-0.326-0.938,0.172-1.965,1.109-2.291l49.731-17.267
	l14.978,8.083l9.266,26.684"/>
<polyline fill="none" stroke="#FFFFFF" stroke-width="2" stroke-linecap="square" stroke-miterlimit="10" points="1879.877,31.789 
	1916.926,18.926 1926.346,46.059 1889.297,58.922 1881.721,37.102 "/>
<line fill="none" stroke="#FFFFFF" stroke-width="2" stroke-linecap="square" stroke-miterlimit="10" x1="1893.818" y1="31.161" x2="1900.588" y2="50.661"/>
<line fill="none" stroke="#FFFFFF" stroke-width="2" stroke-linecap="square" stroke-miterlimit="10" x1="1905.162" y1="27.223" x2="1911.932" y2="46.723"/>
<line fill="none" stroke="#FFFFFF" stroke-width="2" stroke-linecap="square" stroke-miterlimit="10" x1="1891.332" y1="37.894" x2="1887.383" y2="39.265"/>
<line fill="none" stroke="#FFFFFF" stroke-width="2" stroke-linecap="square" stroke-miterlimit="10" x1="1894.652" y1="47.458" x2="1890.703" y2="48.828"/>
<line fill="none" stroke="#FFFFFF" stroke-width="2" stroke-linecap="square" stroke-miterlimit="10" x1="1915.125" y1="29.751" x2="1911.32" y2="31.072"/>
<line fill="none" stroke="#FFFFFF" stroke-width="2" stroke-linecap="square" stroke-miterlimit="10" x1="1918.445" y1="39.314" x2="1914.641" y2="40.634"/>
<path fill="none" stroke="#FFFFFF" stroke-width="2" stroke-linecap="square" stroke-miterlimit="10" d="M1419.759,23.861
	l25.394,5.666c0.55,0.123,0.896,0.672,0.771,1.227l-9.89,44.322c-0.123,0.555-0.669,0.904-1.219,0.781l-24.396-5.443
	c-0.552-0.123-0.896-0.672-0.771-1.227l8.666-38.84"/>
<path fill="none" stroke="#FFFFFF" stroke-width="2" stroke-linecap="square" stroke-miterlimit="10" d="M1437.662,88.23
	l-33.74-7.528c-0.741-0.165-1.208-0.899-1.043-1.641l13.323-59.71c0.165-0.741,0.899-1.208,1.642-1.042l32.399,7.229
	c0.741,0.165,1.207,0.899,1.042,1.641l-12.191,54.64"/>
<path fill="#FFFFFF" stroke="#FFFFFF" stroke-width="2" stroke-miterlimit="10" d="M1423.477,79.273
	c-0.262,1.175-1.426,1.913-2.599,1.651c-1.175-0.263-1.911-1.425-1.649-2.599c0.263-1.172,1.425-1.911,2.599-1.648
	C1422.999,76.939,1423.738,78.101,1423.477,79.273"/>
<path fill="none" stroke="#FFFFFF" stroke-width="2" stroke-linecap="square" stroke-linejoin="round" stroke-miterlimit="10" d="
	M1431.604,154.313l45.95,22.955c0.836,0.418,1.177,1.435,0.759,2.271l-17.851,35.73c-0.418,0.836-1.435,1.176-2.271,0.758
	l-52.285-26.119c-0.838-0.42-1.178-1.436-0.76-2.273l18.605-37.244"/>
<line fill="none" stroke="#FFFFFF" stroke-width="2" stroke-linecap="square" stroke-linejoin="round" stroke-miterlimit="10" x1="1460.811" y1="203.621" x2="1414.372" y2="180.422"/>
<line fill="none" stroke="#FFFFFF" stroke-width="2" stroke-linecap="square" stroke-linejoin="round" stroke-miterlimit="10" x1="1466.381" y1="183.205" x2="1451.013" y2="175.529"/>
<line fill="none" stroke="#FFFFFF" stroke-width="2" stroke-linecap="square" stroke-linejoin="round" stroke-miterlimit="10" x1="1464.172" y1="187.627" x2="1452.594" y2="181.842"/>
<line fill="none" stroke="#FFFFFF" stroke-width="2" stroke-linecap="square" stroke-linejoin="round" stroke-miterlimit="10" x1="1462.896" y1="199.143" x2="1416.459" y2="175.943"/>
<path fill="none" stroke="#FFFFFF" stroke-width="2" stroke-linecap="square" stroke-miterlimit="10" d="M1569.74,212.309
	l-13.337-55.832c-0.231-0.967,0.365-1.938,1.331-2.17l36.178-8.641c0.967-0.232,1.938,0.365,2.17,1.332l12.23,51.201l-9.533,14.098
	l-27.475,6.563"/>
<polyline fill="none" stroke="#FFFFFF" stroke-width="2" stroke-linecap="square" stroke-miterlimit="10" points="1591.308,153.482 
	1600.42,191.629 1572.484,198.301 1563.373,160.156 1585.838,154.789 "/>
<line fill="none" stroke="#FFFFFF" stroke-width="2" stroke-linecap="square" stroke-miterlimit="10" x1="1590.546" y1="167.418" x2="1570.469" y2="172.213"/>
<line fill="none" stroke="#FFFFFF" stroke-width="2" stroke-linecap="square" stroke-miterlimit="10" x1="1593.336" y1="179.098" x2="1573.258" y2="183.893"/>
<line fill="none" stroke="#FFFFFF" stroke-width="2" stroke-linecap="square" stroke-miterlimit="10" x1="1584.094" y1="164.273" x2="1583.123" y2="160.207"/>
<line fill="none" stroke="#FFFFFF" stroke-width="2" stroke-linecap="square" stroke-miterlimit="10" x1="1574.248" y1="166.625" x2="1573.277" y2="162.561"/>
<line fill="none" stroke="#FFFFFF" stroke-width="2" stroke-linecap="square" stroke-miterlimit="10" x1="1589.828" y1="188.76" x2="1588.893" y2="184.842"/>
<line fill="none" stroke="#FFFFFF" stroke-width="2" stroke-linecap="square" stroke-miterlimit="10" x1="1579.982" y1="191.111" x2="1579.047" y2="187.195"/>
<path fill="none" stroke="#FFFFFF" stroke-width="2" stroke-linecap="square" stroke-linejoin="round" stroke-miterlimit="10" d="
	M1645.139,24.481l51.304,2.531c0.936,0.046,1.653,0.84,1.608,1.774l-1.969,39.892c-0.047,0.935-0.84,1.654-1.775,1.607l-58.377-2.88
	c-0.934-0.046-1.653-0.84-1.608-1.775l2.053-41.583"/>
<line fill="none" stroke="#FFFFFF" stroke-width="2" stroke-linecap="square" stroke-linejoin="round" stroke-miterlimit="10" x1="1691.713" y1="57.875" x2="1639.865" y2="55.317"/>
<line fill="none" stroke="#FFFFFF" stroke-width="2" stroke-linecap="square" stroke-linejoin="round" stroke-miterlimit="10" x1="1688.602" y1="36.943" x2="1671.443" y2="36.097"/>
<line fill="none" stroke="#FFFFFF" stroke-width="2" stroke-linecap="square" stroke-linejoin="round" stroke-miterlimit="10" x1="1688.357" y1="41.879" x2="1675.43" y2="41.241"/>
<line fill="none" stroke="#FFFFFF" stroke-width="2" stroke-linecap="square" stroke-linejoin="round" stroke-miterlimit="10" x1="1691.824" y1="52.934" x2="1639.975" y2="50.375"/>
</svg>
