<?xml version="1.0" encoding="utf-8"?>
<!-- Generator: Adobe Illustrator 16.0.0, SVG Export Plug-In . SVG Version: 6.00 Build 0)  -->
<!DOCTYPE svg PUBLIC "-//W3C//DTD SVG 1.1//EN" "http://www.w3.org/Graphics/SVG/1.1/DTD/svg11.dtd">
<svg version="1.1" id="Layer_1" xmlns="http://www.w3.org/2000/svg" xmlns:xlink="http://www.w3.org/1999/xlink" x="0px" y="0px"
	 width="960px" height="160px" viewBox="0 0 960 160" enable-background="new 0 0 960 160" xml:space="preserve">
<rect y="0.042" fill="#56DAF3" width="960" height="159.958"/>
<path fill="none" stroke="#FFFFFF" stroke-width="1.5" stroke-linecap="square" stroke-linejoin="round" stroke-miterlimit="10" d="
	M419.945,7.749c9.982,6.152,13.09,19.231,6.937,29.216c-4.667,7.572-13.319,11.187-21.583,9.806"/>
<path fill="none" stroke="#FFFFFF" stroke-width="1.5" stroke-linecap="square" stroke-linejoin="round" stroke-miterlimit="10" d="
	M397.667,43.901c-9.983-6.152-13.089-19.233-6.937-29.217c4.88-7.918,14.12-11.51,22.714-9.586"/>
<circle fill="none" stroke="#FFFFFF" stroke-width="1.5" stroke-linecap="round" stroke-linejoin="bevel" stroke-dasharray="3,12,3,12,3,12" cx="408.806" cy="25.825" r="18.123"/>
<path fill="none" stroke="#FFFFFF" stroke-width="1.5" stroke-linecap="square" stroke-linejoin="round" stroke-miterlimit="10" d="
	M407.206,35.036l-8.052-4.962l1.116-1.811c1.488,0.239,3.594-0.225,4.531-1.744c0.193-0.313,0.334-0.596,0.484-0.936l-2.191-1.351
	l1.418-2.303l1.789,1.103c0.233-0.628,0.564-1.318,0.937-1.922c1.736-2.816,4.936-3.405,7.933-1.559
	c1.042,0.642,1.741,1.338,2.128,1.883c0.07,0.099,0.13,0.193,0.18,0.28l-1.74,1.808l-0.404,0.419 M413.477,22.249
	c-1.468-0.777-2.517-0.069-3.146,0.95c-0.36,0.583-0.623,1.16-0.833,1.802l3.063,1.887l-1.419,2.304l-2.773-1.709
	c-0.322,0.574-0.684,1.059-1.178,1.464c-0.546,0.435-1.248,0.772-2.074,0.912l-0.028,0.043l5.97,3.679l-1.709,2.772"/>
<path fill="#FFFFFF" stroke="#FFFFFF" stroke-width="1.5" stroke-miterlimit="10" d="M414.174,22.557"/>
<path fill="none" stroke="#FFFFFF" stroke-width="1.5" stroke-linecap="square" stroke-linejoin="round" stroke-miterlimit="10" d="
	M391.102,127.854c0.257-11.723,9.97-21.018,21.695-20.76c8.894,0.194,16.388,5.832,19.376,13.658"/>
<path fill="none" stroke="#FFFFFF" stroke-width="1.5" stroke-linecap="square" stroke-linejoin="round" stroke-miterlimit="10" d="
	M433.556,128.787c-0.257,11.726-9.971,21.021-21.695,20.763c-9.299-0.205-17.07-6.358-19.758-14.746"/>
<circle fill="none" stroke="#FFFFFF" stroke-width="1.5" stroke-linecap="round" stroke-linejoin="bevel" stroke-dasharray="3,12,3,12,3,12" cx="412.329" cy="128.324" r="18.123"/>
<path fill="none" stroke="#FFFFFF" stroke-width="1.5" stroke-linecap="square" stroke-linejoin="round" stroke-miterlimit="10" d="
	M421.084,125.044l-0.208,9.456l-2.127-0.047c-0.547-1.405-2.011-2.987-3.796-3.026c-0.367-0.008-0.683,0.015-1.052,0.058
	l-0.057,2.571l-2.705-0.06l0.046-2.101c-0.659,0.115-1.423,0.179-2.132,0.164c-3.308-0.073-5.434-2.539-5.357-6.057
	c0.026-1.224,0.274-2.181,0.548-2.787c0.05-0.111,0.1-0.209,0.15-0.297l2.439,0.586l0.566,0.135 M406.883,126.101
	c0.072,1.66,1.213,2.207,2.411,2.234c0.684,0.016,1.315-0.052,1.976-0.193l0.079-3.598l2.706,0.061l-0.072,3.257
	c0.658-0.015,1.259,0.055,1.859,0.276c0.652,0.25,1.297,0.687,1.834,1.328h0.053l0.154-7.011l3.256,0.07"/>
<path fill="#FFFFFF" stroke="#FFFFFF" stroke-width="1.5" stroke-miterlimit="10" d="M406.794,125.345"/>
<path fill="none" stroke="#FFFFFF" stroke-width="1.5" stroke-linecap="square" stroke-linejoin="round" stroke-miterlimit="10" d="
	M317.016,69.286c-7.198-9.257-5.53-22.596,3.728-29.796c7.021-5.46,16.393-5.818,23.651-1.632"/>
<path fill="none" stroke="#FFFFFF" stroke-width="1.5" stroke-linecap="square" stroke-linejoin="round" stroke-miterlimit="10" d="
	M350.539,43.215c7.198,9.257,5.529,22.598-3.728,29.796c-7.342,5.71-17.254,5.84-24.633,1.03"/>
<circle fill="none" stroke="#FFFFFF" stroke-width="1.5" stroke-linecap="round" stroke-linejoin="bevel" stroke-dasharray="3,12,3,12,3,12" cx="333.777" cy="56.25" r="18.123"/>
<path fill="none" stroke="#FFFFFF" stroke-width="1.5" stroke-linecap="square" stroke-linejoin="round" stroke-miterlimit="10" d="
	M338.5,48.184l5.806,7.466l-1.679,1.306c-1.311-0.745-3.446-1.048-4.855,0.047c-0.291,0.226-0.521,0.441-0.78,0.708l1.58,2.032
	l-2.135,1.661l-1.29-1.658c-0.438,0.506-0.99,1.037-1.551,1.472c-2.613,2.031-5.816,1.462-7.977-1.315
	c-0.751-0.968-1.163-1.863-1.334-2.51c-0.031-0.118-0.055-0.226-0.071-0.325l2.263-1.084l0.525-0.252 M328.15,57.965
	c1.104,1.241,2.334,0.945,3.279,0.21c0.541-0.419,0.989-0.87,1.411-1.398l-2.209-2.84l2.137-1.661l1.999,2.571
	c0.503-0.423,1.012-0.752,1.617-0.958c0.664-0.217,1.44-0.287,2.262-0.128l0.042-0.032l-4.305-5.535l2.572-2"/>
<path fill="#FFFFFF" stroke="#FFFFFF" stroke-width="1.5" stroke-miterlimit="10" d="M327.605,57.435"/>
<path fill="none" stroke="#FFFFFF" stroke-width="1.5" stroke-linecap="square" stroke-linejoin="round" stroke-miterlimit="10" d="
	M263.936,115.285c10.016-6.099,23.079-2.92,29.178,7.097c4.624,7.601,3.912,16.95-1.074,23.685"/>
<path fill="none" stroke="#FFFFFF" stroke-width="1.5" stroke-linecap="square" stroke-linejoin="round" stroke-miterlimit="10" d="
	M286.015,151.56c-10.016,6.099-23.08,2.918-29.177-7.1c-4.836-7.943-3.837-17.808,1.783-24.589"/>
<circle fill="none" stroke="#FFFFFF" stroke-width="1.5" stroke-linecap="round" stroke-linejoin="bevel" stroke-dasharray="3,12,3,12,3,12" cx="274.976" cy="133.422" r="18.122"/>
<path fill="none" stroke="#FFFFFF" stroke-width="1.5" stroke-linecap="square" stroke-linejoin="round" stroke-miterlimit="10" d="
	M282.452,139.033l-8.079,4.916l-1.105-1.815c0.888-1.218,1.433-3.304,0.506-4.828c-0.191-0.313-0.379-0.567-0.614-0.856l-2.198,1.34
	l-1.407-2.312l1.794-1.092c-0.453-0.494-0.917-1.104-1.286-1.709c-1.719-2.826-0.789-5.944,2.217-7.774
	c1.045-0.638,1.982-0.94,2.645-1.039c0.12-0.019,0.23-0.029,0.331-0.035l0.82,2.373l0.19,0.552 M273.913,127.636
	c-1.359,0.957-1.206,2.211-0.583,3.233c0.355,0.586,0.751,1.082,1.227,1.563l3.073-1.873l1.407,2.313l-2.782,1.693
	c0.363,0.549,0.631,1.092,0.767,1.715c0.139,0.685,0.121,1.463-0.131,2.262l0.027,0.046l5.99-3.646l1.694,2.782"/>
<path fill="#FFFFFF" stroke="#FFFFFF" stroke-width="1.5" stroke-miterlimit="10" d="M274.503,127.156"/>
<path fill="none" stroke="#FFFFFF" stroke-width="1.5" stroke-linecap="square" stroke-linejoin="round" stroke-miterlimit="10" d="
	M237.869,56.615c3.189-11.284,14.922-17.847,26.208-14.657c8.559,2.42,14.401,9.755,15.331,18.083"/>
<path fill="none" stroke="#FFFFFF" stroke-width="1.5" stroke-linecap="square" stroke-linejoin="round" stroke-miterlimit="10" d="
	M278.732,68.165c-3.19,11.285-14.924,17.846-26.208,14.655c-8.951-2.529-14.93-10.436-15.428-19.229"/>
<circle fill="none" stroke="#FFFFFF" stroke-width="1.5" stroke-linecap="round" stroke-linejoin="bevel" stroke-dasharray="3,12,3,12,3,12" cx="258.301" cy="62.39" r="18.123"/>
<path fill="none" stroke="#FFFFFF" stroke-width="1.5" stroke-linecap="square" stroke-linejoin="round" stroke-miterlimit="10" d="
	M267.597,61.413l-2.572,9.101l-2.047-0.579c-0.177-1.497-1.198-3.396-2.916-3.881c-0.354-0.1-0.665-0.159-1.032-0.209l-0.7,2.477
	l-2.604-0.735l0.572-2.022c-0.668-0.052-1.423-0.183-2.105-0.376c-3.184-0.901-4.625-3.819-3.667-7.205
	c0.333-1.178,0.812-2.04,1.23-2.561c0.076-0.095,0.149-0.178,0.219-0.251l2.214,1.18l0.514,0.275 M253.584,58.874
	c-0.346,1.625,0.621,2.44,1.774,2.767c0.658,0.187,1.286,0.281,1.961,0.308l0.978-3.463l2.604,0.736l-0.886,3.134
	c0.64,0.153,1.206,0.369,1.729,0.734c0.568,0.406,1.084,0.991,1.444,1.747l0.051,0.015l1.907-6.749l3.134,0.886"/>
<path fill="#FFFFFF" stroke="#FFFFFF" stroke-width="1.5" stroke-miterlimit="10" d="M253.689,58.119"/>
<path fill="none" stroke="#FFFFFF" stroke-width="1.5" stroke-linecap="square" stroke-linejoin="round" stroke-miterlimit="10" d="
	M482.224,130.506c11.627-1.52,22.287,6.672,23.81,18.301c1.151,8.82-3.282,17.082-10.568,21.223"/>
<path fill="none" stroke="#FFFFFF" stroke-width="1.5" stroke-linecap="square" stroke-linejoin="round" stroke-miterlimit="10" d="
	M487.731,172.613c-11.631,1.521-22.287-6.674-23.811-18.301c-1.206-9.223,3.701-17.836,11.584-21.764"/>
<circle fill="none" stroke="#FFFFFF" stroke-width="1.5" stroke-linecap="round" stroke-linejoin="bevel" stroke-dasharray="3,12,3,12,3,12" cx="484.978" cy="151.56" r="18.122"/>
<path fill="none" stroke="#FFFFFF" stroke-width="1.5" stroke-linecap="square" stroke-linejoin="round" stroke-miterlimit="10" d="
	M489.543,159.717l-9.378,1.227l-0.275-2.107c1.307-0.756,2.647-2.441,2.416-4.209c-0.047-0.365-0.114-0.678-0.215-1.033
	l-2.553,0.334l-0.352-2.684l2.084-0.271c-0.217-0.633-0.395-1.377-0.484-2.082c-0.428-3.277,1.686-5.756,5.174-6.211
	c1.215-0.158,2.195-0.063,2.84,0.119c0.117,0.031,0.224,0.066,0.316,0.104l-0.211,2.5l-0.049,0.58 M486.347,145.838
	c-1.627,0.324-1.996,1.535-1.841,2.723c0.089,0.68,0.249,1.293,0.491,1.924l3.566-0.467l0.352,2.684l-3.229,0.422
	c0.111,0.648,0.139,1.256,0.011,1.881c-0.149,0.682-0.482,1.387-1.035,2.016l0.008,0.055l6.952-0.91l0.422,3.229"/>
<path fill="#FFFFFF" stroke="#FFFFFF" stroke-width="1.5" stroke-miterlimit="10" d="M487.082,145.639"/>
<path fill="none" stroke="#FFFFFF" stroke-width="1.5" stroke-linecap="square" stroke-linejoin="round" stroke-miterlimit="10" d="
	M165.74,33.046c9.982,6.152,13.089,19.232,6.937,29.216c-4.667,7.572-13.319,11.188-21.584,9.807"/>
<path fill="none" stroke="#FFFFFF" stroke-width="1.5" stroke-linecap="square" stroke-linejoin="round" stroke-miterlimit="10" d="
	M143.462,69.199c-9.984-6.153-13.089-19.233-6.938-29.217c4.88-7.918,14.12-11.509,22.714-9.586"/>
<circle fill="none" stroke="#FFFFFF" stroke-width="1.5" stroke-linecap="round" stroke-linejoin="bevel" stroke-dasharray="3,12,3,12,3,12" cx="154.601" cy="51.122" r="18.123"/>
<path fill="none" stroke="#FFFFFF" stroke-width="1.5" stroke-linecap="square" stroke-linejoin="round" stroke-miterlimit="10" d="
	M153,60.333l-8.052-4.963l1.116-1.811c1.489,0.239,3.594-0.225,4.531-1.744c0.193-0.313,0.335-0.595,0.484-0.935l-2.191-1.351
	l1.418-2.303l1.789,1.103c0.233-0.628,0.565-1.317,0.937-1.922c1.736-2.816,4.937-3.404,7.933-1.559
	c1.042,0.642,1.741,1.338,2.129,1.883c0.069,0.099,0.13,0.193,0.179,0.28l-1.739,1.808l-0.404,0.42 M159.272,47.546
	c-1.468-0.777-2.518-0.07-3.146,0.95c-0.359,0.583-0.622,1.16-0.833,1.802l3.063,1.887l-1.419,2.304l-2.772-1.709
	c-0.322,0.574-0.685,1.059-1.179,1.463c-0.546,0.435-1.248,0.772-2.074,0.911l-0.027,0.044l5.97,3.679l-1.709,2.772"/>
<path fill="#FFFFFF" stroke="#FFFFFF" stroke-width="1.5" stroke-miterlimit="10" d="M159.969,47.854"/>
<path fill="none" stroke="#FFFFFF" stroke-width="1.5" stroke-linecap="square" stroke-linejoin="round" stroke-miterlimit="10" d="
	M85.16,115.142c0.258-11.723,9.971-21.019,21.695-20.762c8.893,0.196,16.388,5.834,19.377,13.659"/>
<path fill="none" stroke="#FFFFFF" stroke-width="1.5" stroke-linecap="square" stroke-linejoin="round" stroke-miterlimit="10" d="
	M127.614,116.074c-0.257,11.727-9.971,21.021-21.695,20.764c-9.299-0.205-17.071-6.359-19.758-14.746"/>
<circle fill="none" stroke="#FFFFFF" stroke-width="1.5" stroke-linecap="round" stroke-linejoin="bevel" stroke-dasharray="3,12,3,12,3,12" cx="106.387" cy="115.61" r="18.122"/>
<path fill="none" stroke="#FFFFFF" stroke-width="1.5" stroke-linecap="square" stroke-linejoin="round" stroke-miterlimit="10" d="
	M115.142,112.33l-0.208,9.455l-2.126-0.045c-0.548-1.405-2.012-2.987-3.796-3.026c-0.368-0.011-0.683,0.014-1.052,0.055
	l-0.057,2.574l-2.705-0.06l0.046-2.103c-0.658,0.117-1.422,0.181-2.131,0.164c-3.308-0.074-5.435-2.537-5.357-6.056
	c0.026-1.223,0.274-2.18,0.548-2.789c0.05-0.108,0.1-0.209,0.15-0.297l2.44,0.588l0.566,0.136 M100.94,113.388
	c0.073,1.66,1.213,2.207,2.411,2.233c0.685,0.015,1.316-0.051,1.976-0.192l0.078-3.599l2.706,0.06l-0.072,3.256
	c0.657-0.012,1.259,0.058,1.859,0.277c0.652,0.252,1.297,0.687,1.835,1.33h0.053l0.153-7.013l3.257,0.071"/>
<path fill="#FFFFFF" stroke="#FFFFFF" stroke-width="1.5" stroke-miterlimit="10" d="M100.853,112.632"/>
<path fill="none" stroke="#FFFFFF" stroke-width="1.5" stroke-linecap="square" stroke-linejoin="round" stroke-miterlimit="10" d="
	M53.75,40.871c-7.198-9.257-5.53-22.596,3.727-29.796c7.022-5.46,16.394-5.818,23.651-1.632"/>
<path fill="none" stroke="#FFFFFF" stroke-width="1.5" stroke-linecap="square" stroke-linejoin="round" stroke-miterlimit="10" d="
	M87.272,14.801c7.199,9.257,5.53,22.598-3.728,29.796c-7.342,5.71-17.254,5.84-24.633,1.03"/>
<circle fill="none" stroke="#FFFFFF" stroke-width="1.5" stroke-linecap="round" stroke-linejoin="bevel" stroke-dasharray="3,12,3,12,3,12" cx="70.511" cy="27.836" r="18.123"/>
<path fill="none" stroke="#FFFFFF" stroke-width="1.5" stroke-linecap="square" stroke-linejoin="round" stroke-miterlimit="10" d="
	M75.234,19.769l5.806,7.466l-1.679,1.306c-1.311-0.745-3.446-1.048-4.854,0.047c-0.291,0.226-0.522,0.441-0.781,0.708l1.581,2.032
	l-2.135,1.661l-1.291-1.658c-0.438,0.506-0.99,1.037-1.551,1.472c-2.612,2.031-5.817,1.462-7.977-1.315
	c-0.751-0.968-1.163-1.863-1.334-2.51c-0.031-0.118-0.055-0.226-0.071-0.325l2.262-1.085l0.525-0.252 M64.884,29.551
	c1.104,1.241,2.334,0.945,3.279,0.21c0.541-0.419,0.989-0.87,1.411-1.398l-2.209-2.84l2.137-1.661l1.999,2.571
	c0.502-0.423,1.011-0.752,1.617-0.958c0.663-0.217,1.439-0.287,2.262-0.128l0.042-0.032l-4.305-5.535l2.571-2"/>
<path fill="#FFFFFF" stroke="#FFFFFF" stroke-width="1.5" stroke-miterlimit="10" d="M64.339,29.02"/>
<path fill="none" stroke="#FFFFFF" stroke-width="1.5" stroke-linecap="square" stroke-linejoin="round" stroke-miterlimit="10" d="
	M-10.954,103.273c10.016-6.098,23.078-2.92,29.177,7.096c4.624,7.602,3.912,16.951-1.074,23.686"/>
<path fill="none" stroke="#FFFFFF" stroke-width="1.5" stroke-linecap="square" stroke-linejoin="round" stroke-miterlimit="10" d="
	M11.125,139.547c-10.017,6.098-23.08,2.918-29.177-7.1c-4.837-7.943-3.837-17.809,1.783-24.588"/>
<circle fill="none" stroke="#FFFFFF" stroke-width="1.5" stroke-linecap="round" stroke-linejoin="bevel" stroke-dasharray="3,12,3,12,3,12" cx="0.084" cy="121.409" r="18.122"/>
<path fill="none" stroke="#FFFFFF" stroke-width="1.5" stroke-linecap="square" stroke-linejoin="round" stroke-miterlimit="10" d="
	M7.561,127.021l-8.079,4.916l-1.105-1.816c0.889-1.217,1.434-3.303,0.506-4.826c-0.191-0.314-0.379-0.568-0.614-0.857l-2.198,1.342
	l-1.406-2.313l1.794-1.094c-0.453-0.492-0.917-1.104-1.286-1.709c-1.719-2.824-0.789-5.943,2.217-7.773
	c1.045-0.637,1.982-0.939,2.644-1.039c0.12-0.02,0.231-0.027,0.332-0.033l0.819,2.371l0.191,0.553 M-0.978,115.623
	c-1.359,0.957-1.206,2.211-0.583,3.234c0.355,0.586,0.751,1.08,1.227,1.563l3.073-1.873l1.407,2.313l-2.782,1.693
	c0.364,0.549,0.632,1.092,0.767,1.715c0.14,0.684,0.121,1.463-0.131,2.262l0.028,0.045l5.99-3.646l1.694,2.783"/>
<path fill="#FFFFFF" stroke="#FFFFFF" stroke-width="1.5" stroke-miterlimit="10" d="M-0.387,115.143"/>
<path fill="none" stroke="#FFFFFF" stroke-width="1.5" stroke-linecap="square" stroke-linejoin="round" stroke-miterlimit="10" d="
	M-18.37,53.901c3.19-11.284,14.922-17.847,26.208-14.657c8.56,2.42,14.402,9.755,15.331,18.083"/>
<path fill="none" stroke="#FFFFFF" stroke-width="1.5" stroke-linecap="square" stroke-linejoin="round" stroke-miterlimit="10" d="
	M22.494,65.451C19.304,76.736,7.57,83.297-3.715,80.107c-8.95-2.53-14.929-10.436-15.428-19.23"/>
<circle fill="none" stroke="#FFFFFF" stroke-width="1.5" stroke-linecap="round" stroke-linejoin="bevel" stroke-dasharray="3,12,3,12,3,12" cx="2.062" cy="59.676" r="18.123"/>
<path fill="none" stroke="#FFFFFF" stroke-width="1.5" stroke-linecap="square" stroke-linejoin="round" stroke-miterlimit="10" d="
	M11.358,58.699L8.786,67.8l-2.047-0.579c-0.178-1.497-1.199-3.396-2.916-3.881c-0.354-0.1-0.665-0.159-1.032-0.209l-0.7,2.477
	l-2.604-0.735L0.06,62.85c-0.667-0.052-1.422-0.183-2.105-0.376c-3.184-0.901-4.625-3.819-3.667-7.205
	c0.333-1.178,0.812-2.04,1.23-2.561c0.076-0.095,0.149-0.178,0.219-0.251l2.215,1.18l0.513,0.275 M-2.654,56.16
	C-3,57.785-2.034,58.6-0.881,58.927c0.659,0.188,1.287,0.281,1.962,0.308l0.978-3.463l2.604,0.736l-0.886,3.134
	c0.64,0.153,1.205,0.369,1.73,0.734c0.568,0.406,1.084,0.991,1.443,1.747l0.051,0.015l1.907-6.749l3.134,0.886"/>
<path fill="#FFFFFF" stroke="#FFFFFF" stroke-width="1.5" stroke-miterlimit="10" d="M-2.55,55.405"/>
<path fill="none" stroke="#FFFFFF" stroke-width="1.5" stroke-linecap="square" stroke-linejoin="round" stroke-miterlimit="10" d="
	M200.121,120.236c11.627-1.52,22.287,6.672,23.808,18.299c1.153,8.822-3.283,17.084-10.569,21.225"/>
<path fill="none" stroke="#FFFFFF" stroke-width="1.5" stroke-linecap="square" stroke-linejoin="round" stroke-miterlimit="10" d="
	M205.628,162.344c-11.627,1.52-22.287-6.674-23.808-18.303c-1.206-9.221,3.701-17.834,11.584-21.762"/>
<circle fill="none" stroke="#FFFFFF" stroke-width="1.5" stroke-linecap="round" stroke-linejoin="bevel" stroke-dasharray="3,12,3,12,3,12" cx="202.875" cy="141.29" r="18.122"/>
<path fill="none" stroke="#FFFFFF" stroke-width="1.5" stroke-linecap="square" stroke-linejoin="round" stroke-miterlimit="10" d="
	M207.441,149.447l-9.377,1.229l-0.276-2.107c1.306-0.756,2.647-2.441,2.417-4.213c-0.048-0.361-0.117-0.674-0.214-1.029
	l-2.553,0.334l-0.351-2.684l2.083-0.271c-0.215-0.633-0.393-1.377-0.484-2.082c-0.428-3.281,1.685-5.756,5.174-6.213
	c1.215-0.158,2.194-0.061,2.839,0.121c0.117,0.031,0.223,0.066,0.316,0.104l-0.21,2.5l-0.048,0.58 M204.245,135.568
	c-1.628,0.324-1.997,1.535-1.842,2.723c0.089,0.682,0.25,1.295,0.491,1.926l3.568-0.471l0.351,2.688l-3.23,0.42
	c0.112,0.648,0.137,1.256,0.008,1.883c-0.148,0.682-0.481,1.387-1.034,2.016l0.007,0.053l6.953-0.91l0.423,3.229"/>
<path fill="#FFFFFF" stroke="#FFFFFF" stroke-width="1.5" stroke-miterlimit="10" d="M204.98,135.367"/>
<path fill="none" stroke="#FFFFFF" stroke-width="1.5" stroke-linecap="square" stroke-linejoin="round" stroke-miterlimit="10" d="
	M927.286,119.387c10.018-6.098,23.08-2.92,29.178,7.096c4.625,7.602,3.912,16.951-1.074,23.686"/>
<path fill="none" stroke="#FFFFFF" stroke-width="1.5" stroke-linecap="square" stroke-linejoin="round" stroke-miterlimit="10" d="
	M949.366,155.66c-10.02,6.098-23.08,2.918-29.178-7.1c-4.836-7.943-3.836-17.809,1.781-24.588"/>
<circle fill="none" stroke="#FFFFFF" stroke-width="1.5" stroke-linecap="round" stroke-linejoin="bevel" stroke-dasharray="3,12,3,12,3,12" cx="938.327" cy="137.522" r="18.122"/>
<path fill="none" stroke="#FFFFFF" stroke-width="1.5" stroke-linecap="square" stroke-linejoin="round" stroke-miterlimit="10" d="
	M945.804,143.135l-8.08,4.916l-1.104-1.816c0.889-1.217,1.434-3.303,0.506-4.826c-0.191-0.314-0.379-0.568-0.613-0.857l-2.197,1.342
	l-1.406-2.313l1.795-1.094c-0.455-0.492-0.918-1.104-1.287-1.709c-1.719-2.824-0.789-5.943,2.217-7.773
	c1.045-0.637,1.982-0.939,2.646-1.039c0.119-0.02,0.229-0.027,0.33-0.033l0.818,2.371l0.191,0.553 M937.265,131.736
	c-1.357,0.957-1.207,2.211-0.584,3.234c0.357,0.586,0.752,1.08,1.229,1.563l3.074-1.873l1.404,2.313l-2.779,1.693
	c0.361,0.549,0.631,1.092,0.766,1.715c0.141,0.684,0.121,1.463-0.129,2.262l0.025,0.045l5.99-3.646l1.693,2.783"/>
<path fill="#FFFFFF" stroke="#FFFFFF" stroke-width="1.5" stroke-miterlimit="10" d="M937.854,131.256"/>
<path fill="none" stroke="#FFFFFF" stroke-width="1.5" stroke-linecap="square" stroke-linejoin="round" stroke-miterlimit="10" d="
	M919.872,53.901c3.189-11.284,14.922-17.847,26.207-14.657c8.559,2.42,14.4,9.755,15.332,18.083"/>
<path fill="none" stroke="#FFFFFF" stroke-width="1.5" stroke-linecap="square" stroke-linejoin="round" stroke-miterlimit="10" d="
	M960.735,65.451c-3.189,11.285-14.926,17.846-26.209,14.656c-8.951-2.53-14.932-10.436-15.43-19.23"/>
<circle fill="none" stroke="#FFFFFF" stroke-width="1.5" stroke-linecap="round" stroke-linejoin="bevel" stroke-dasharray="3,12,3,12,3,12" cx="940.304" cy="59.676" r="18.123"/>
<path fill="none" stroke="#FFFFFF" stroke-width="1.5" stroke-linecap="square" stroke-linejoin="round" stroke-miterlimit="10" d="
	M949.601,58.699l-2.572,9.101l-2.045-0.579c-0.18-1.497-1.197-3.396-2.916-3.881c-0.355-0.1-0.664-0.159-1.033-0.209l-0.699,2.477
	l-2.604-0.735l0.57-2.022c-0.668-0.052-1.422-0.183-2.104-0.376c-3.186-0.901-4.623-3.819-3.668-7.205
	c0.334-1.178,0.813-2.04,1.229-2.561c0.076-0.095,0.15-0.178,0.223-0.251l2.215,1.18l0.514,0.275 M935.589,56.16
	c-0.348,1.625,0.619,2.44,1.773,2.767c0.658,0.188,1.285,0.281,1.961,0.308l0.977-3.463l2.605,0.736l-0.889,3.134
	c0.643,0.153,1.205,0.369,1.73,0.734c0.566,0.406,1.082,0.991,1.441,1.747l0.053,0.015l1.908-6.749l3.133,0.886"/>
<path fill="#FFFFFF" stroke="#FFFFFF" stroke-width="1.5" stroke-miterlimit="10" d="M935.692,55.405"/>
<path fill="none" stroke="#FFFFFF" stroke-width="1.5" stroke-linecap="square" stroke-linejoin="round" stroke-miterlimit="10" d="
	M643.216,57.118c-10.104-5.951-13.469-18.967-7.518-29.072c4.516-7.664,13.094-11.449,21.385-10.232"/>
<path fill="none" stroke="#FFFFFF" stroke-width="1.5" stroke-linecap="square" stroke-linejoin="round" stroke-miterlimit="10" d="
	M664.771,20.53c10.104,5.951,13.471,18.969,7.52,29.072c-4.723,8.014-13.889,11.787-22.521,10.037"/>
<circle fill="none" stroke="#FFFFFF" stroke-width="1.5" stroke-linecap="round" stroke-linejoin="bevel" stroke-dasharray="3,12,3,12,3,12" cx="653.993" cy="38.825" r="18.123"/>
<path fill="none" stroke="#FFFFFF" stroke-width="1.5" stroke-linecap="square" stroke-linejoin="round" stroke-miterlimit="10" d="
	M655.409,29.583l8.146,4.803l-1.08,1.832c-1.49-0.209-3.588,0.297-4.492,1.832c-0.188,0.318-0.324,0.604-0.467,0.945l2.219,1.309
	l-1.373,2.33l-1.813-1.066c-0.221,0.631-0.539,1.328-0.896,1.939c-1.682,2.85-4.867,3.502-7.898,1.717
	c-1.057-0.621-1.768-1.303-2.168-1.84c-0.07-0.098-0.133-0.191-0.184-0.277l1.701-1.842l0.396-0.428 M649.394,42.493
	c1.484,0.746,2.52,0.018,3.127-1.014c0.35-0.59,0.6-1.172,0.799-1.818l-3.104-1.826l1.375-2.332l2.805,1.654
	c0.313-0.58,0.664-1.072,1.15-1.486c0.537-0.445,1.232-0.799,2.055-0.953l0.027-0.045l-6.041-3.561l1.652-2.805"/>
<path fill="#FFFFFF" stroke="#FFFFFF" stroke-width="1.5" stroke-miterlimit="10" d="M648.69,42.2"/>
<path fill="none" stroke="#FFFFFF" stroke-width="1.5" stroke-linecap="square" stroke-linejoin="round" stroke-miterlimit="10" d="
	M832.346,59.407c9.982,6.152,13.089,19.232,6.938,29.216c-4.666,7.572-13.32,11.188-21.584,9.807"/>
<path fill="none" stroke="#FFFFFF" stroke-width="1.5" stroke-linecap="square" stroke-linejoin="round" stroke-miterlimit="10" d="
	M810.066,95.561c-9.982-6.153-13.089-19.233-6.938-29.217c4.881-7.918,14.119-11.509,22.715-9.586"/>
<circle fill="none" stroke="#FFFFFF" stroke-width="1.5" stroke-linecap="round" stroke-linejoin="bevel" stroke-dasharray="3,12,3,12,3,12" cx="821.205" cy="77.484" r="18.123"/>
<path fill="none" stroke="#FFFFFF" stroke-width="1.5" stroke-linecap="square" stroke-linejoin="round" stroke-miterlimit="10" d="
	M819.605,86.694l-8.055-4.964l1.117-1.811c1.488,0.239,3.594-0.225,4.531-1.744c0.189-0.313,0.334-0.595,0.48-0.935l-2.189-1.351
	l1.42-2.303l1.789,1.103c0.23-0.628,0.563-1.317,0.938-1.922c1.734-2.816,4.938-3.404,7.934-1.559
	c1.041,0.642,1.738,1.338,2.127,1.883c0.068,0.099,0.131,0.193,0.182,0.28l-1.74,1.808l-0.402,0.42 M825.877,73.908
	c-1.469-0.777-2.518-0.07-3.146,0.95c-0.359,0.583-0.621,1.16-0.832,1.802l3.063,1.887l-1.418,2.305l-2.771-1.709
	c-0.322,0.574-0.688,1.059-1.182,1.463c-0.547,0.435-1.248,0.771-2.072,0.91l-0.025,0.045l5.969,3.679l-1.709,2.772"/>
<path fill="#FFFFFF" stroke="#FFFFFF" stroke-width="1.5" stroke-miterlimit="10" d="M826.574,74.215"/>
<path fill="none" stroke="#FFFFFF" stroke-width="1.5" stroke-linecap="square" stroke-linejoin="round" stroke-miterlimit="10" d="
	M745.581,130.789c0.258-11.723,9.971-21.018,21.695-20.762c8.893,0.197,16.389,5.834,19.375,13.66"/>
<path fill="none" stroke="#FFFFFF" stroke-width="1.5" stroke-linecap="square" stroke-linejoin="round" stroke-miterlimit="10" d="
	M788.036,131.723c-0.258,11.727-9.971,21.021-21.695,20.762c-9.299-0.205-17.07-6.357-19.758-14.746"/>
<circle fill="none" stroke="#FFFFFF" stroke-width="1.5" stroke-linecap="round" stroke-linejoin="bevel" stroke-dasharray="3,12,3,12,3,12" cx="766.808" cy="131.257" r="18.122"/>
<path fill="none" stroke="#FFFFFF" stroke-width="1.5" stroke-linecap="square" stroke-linejoin="round" stroke-miterlimit="10" d="
	M775.563,127.979l-0.209,9.455l-2.125-0.045c-0.549-1.406-2.014-2.988-3.799-3.027c-0.365-0.01-0.684,0.016-1.053,0.057
	l-0.057,2.574l-2.703-0.061l0.047-2.102c-0.66,0.117-1.424,0.18-2.133,0.164c-3.309-0.074-5.436-2.537-5.357-6.055
	c0.027-1.225,0.275-2.182,0.549-2.789c0.051-0.109,0.102-0.209,0.15-0.297l2.439,0.588l0.564,0.135 M761.36,129.035
	c0.072,1.66,1.215,2.207,2.412,2.234c0.684,0.014,1.314-0.053,1.975-0.193l0.08-3.598l2.705,0.059l-0.07,3.256
	c0.656-0.012,1.258,0.057,1.857,0.277c0.65,0.252,1.297,0.686,1.836,1.33h0.053l0.154-7.012l3.256,0.07"/>
<path fill="#FFFFFF" stroke="#FFFFFF" stroke-width="1.5" stroke-miterlimit="10" d="M761.274,128.279"/>
<path fill="none" stroke="#FFFFFF" stroke-width="1.5" stroke-linecap="square" stroke-linejoin="round" stroke-miterlimit="10" d="
	M710.602,42.929c-7.195-9.257-5.529-22.596,3.729-29.796c7.021-5.46,16.393-5.818,23.651-1.632"/>
<path fill="none" stroke="#FFFFFF" stroke-width="1.5" stroke-linecap="square" stroke-linejoin="round" stroke-miterlimit="10" d="
	M744.125,16.858c7.199,9.257,5.529,22.598-3.729,29.796c-7.344,5.71-17.256,5.84-24.635,1.03"/>
<circle fill="none" stroke="#FFFFFF" stroke-width="1.5" stroke-linecap="round" stroke-linejoin="bevel" stroke-dasharray="3,12,3,12,3,12" cx="727.363" cy="29.894" r="18.123"/>
<path fill="none" stroke="#FFFFFF" stroke-width="1.5" stroke-linecap="square" stroke-linejoin="round" stroke-miterlimit="10" d="
	M732.086,21.827l5.805,7.466l-1.678,1.306c-1.311-0.745-3.445-1.048-4.854,0.047c-0.291,0.226-0.521,0.441-0.781,0.708l1.582,2.032
	l-2.139,1.661l-1.287-1.658c-0.438,0.506-0.99,1.037-1.553,1.472c-2.609,2.031-5.814,1.462-7.977-1.315
	c-0.752-0.968-1.162-1.863-1.334-2.51c-0.031-0.118-0.055-0.226-0.072-0.325l2.264-1.084l0.525-0.252 M721.736,31.608
	c1.104,1.241,2.334,0.945,3.277,0.21c0.541-0.419,0.988-0.87,1.41-1.398l-2.209-2.84l2.137-1.661l1.998,2.571
	c0.502-0.423,1.014-0.752,1.617-0.958c0.664-0.217,1.439-0.287,2.264-0.128l0.041-0.032l-4.307-5.535l2.572-2"/>
<path fill="#FFFFFF" stroke="#FFFFFF" stroke-width="1.5" stroke-miterlimit="10" d="M721.189,31.078"/>
<path fill="none" stroke="#FFFFFF" stroke-width="1.5" stroke-linecap="square" stroke-linejoin="round" stroke-miterlimit="10" d="
	M664.021,119.387c10.018-6.098,23.08-2.92,29.18,7.096c4.623,7.602,3.912,16.951-1.074,23.686"/>
<path fill="none" stroke="#FFFFFF" stroke-width="1.5" stroke-linecap="square" stroke-linejoin="round" stroke-miterlimit="10" d="
	M686.101,155.66c-10.018,6.098-23.08,2.918-29.178-7.1c-4.836-7.943-3.836-17.809,1.783-24.588"/>
<circle fill="none" stroke="#FFFFFF" stroke-width="1.5" stroke-linecap="round" stroke-linejoin="bevel" stroke-dasharray="3,12,3,12,3,12" cx="675.06" cy="137.523" r="18.123"/>
<path fill="none" stroke="#FFFFFF" stroke-width="1.5" stroke-linecap="square" stroke-linejoin="round" stroke-miterlimit="10" d="
	M682.538,143.135l-8.08,4.916l-1.105-1.816c0.891-1.217,1.434-3.303,0.508-4.826c-0.193-0.314-0.383-0.568-0.615-0.857l-2.199,1.342
	l-1.406-2.313l1.795-1.094c-0.451-0.492-0.918-1.104-1.283-1.709c-1.723-2.824-0.789-5.943,2.217-7.773
	c1.045-0.637,1.98-0.939,2.643-1.039c0.121-0.02,0.232-0.027,0.332-0.033l0.818,2.371l0.189,0.553 M673.999,131.736
	c-1.359,0.957-1.207,2.211-0.584,3.234c0.355,0.586,0.75,1.08,1.227,1.563l3.072-1.873l1.408,2.313l-2.783,1.693
	c0.365,0.549,0.633,1.092,0.77,1.715c0.139,0.684,0.119,1.463-0.133,2.262l0.027,0.045l5.99-3.646l1.692,2.783"/>
<path fill="#FFFFFF" stroke="#FFFFFF" stroke-width="1.5" stroke-miterlimit="10" d="M674.589,131.256"/>
<path fill="none" stroke="#FFFFFF" stroke-width="1.5" stroke-linecap="square" stroke-linejoin="round" stroke-miterlimit="10" d="
	M875.097,136.35c11.627-1.52,22.287,6.672,23.811,18.299c1.15,8.822-3.283,17.084-10.568,21.225"/>
<path fill="none" stroke="#FFFFFF" stroke-width="1.5" stroke-linecap="square" stroke-linejoin="round" stroke-miterlimit="10" d="
	M880.604,178.457c-11.631,1.52-22.287-6.674-23.811-18.303c-1.205-9.221,3.701-17.834,11.584-21.762"/>
<circle fill="none" stroke="#FFFFFF" stroke-width="1.5" stroke-linecap="round" stroke-linejoin="bevel" stroke-dasharray="3,12,3,12,3,12" cx="877.851" cy="157.403" r="18.122"/>
<path fill="none" stroke="#FFFFFF" stroke-width="1.5" stroke-linecap="square" stroke-linejoin="round" stroke-miterlimit="10" d="
	M882.417,165.561l-9.379,1.229l-0.275-2.107c1.309-0.756,2.648-2.441,2.418-4.213c-0.049-0.361-0.117-0.674-0.215-1.029
	l-2.553,0.334l-0.354-2.684l2.082-0.271c-0.215-0.633-0.393-1.377-0.482-2.082c-0.428-3.281,1.686-5.756,5.176-6.213
	c1.213-0.158,2.193-0.061,2.838,0.121c0.117,0.031,0.223,0.066,0.316,0.104l-0.211,2.5l-0.051,0.58 M879.222,151.682
	c-1.629,0.324-1.998,1.535-1.844,2.723c0.09,0.682,0.25,1.295,0.492,1.926l3.564-0.471l0.354,2.688l-3.23,0.42
	c0.113,0.648,0.141,1.256,0.012,1.883c-0.15,0.682-0.482,1.387-1.035,2.016l0.006,0.053l6.953-0.91l0.422,3.229"/>
<path fill="#FFFFFF" stroke="#FFFFFF" stroke-width="1.5" stroke-miterlimit="10" d="M879.956,151.48"/>
<path fill="none" stroke="#FFFFFF" stroke-width="1.5" stroke-linecap="square" stroke-linejoin="round" stroke-miterlimit="10" d="
	M865.855,10.024c11.627-1.52,22.287,6.672,23.807,18.3c1.154,8.82-3.281,17.082-10.566,21.222"/>
<path fill="none" stroke="#FFFFFF" stroke-width="1.5" stroke-linecap="square" stroke-linejoin="round" stroke-miterlimit="10" d="
	M871.363,52.131c-11.629,1.521-22.287-6.673-23.809-18.301c-1.207-9.223,3.699-17.836,11.584-21.763"/>
<circle fill="none" stroke="#FFFFFF" stroke-width="1.5" stroke-linecap="round" stroke-linejoin="bevel" stroke-dasharray="3,12,3,12,3,12" cx="868.609" cy="31.078" r="18.123"/>
<path fill="none" stroke="#FFFFFF" stroke-width="1.5" stroke-linecap="square" stroke-linejoin="round" stroke-miterlimit="10" d="
	M873.174,39.235l-9.377,1.226l-0.275-2.109c1.305-0.754,2.646-2.441,2.416-4.211c-0.049-0.364-0.117-0.674-0.215-1.031l-2.553,0.334
	l-0.354-2.682l2.084-0.273c-0.215-0.633-0.393-1.378-0.482-2.083c-0.43-3.281,1.684-5.756,5.174-6.212
	c1.215-0.158,2.193-0.059,2.838,0.12c0.117,0.033,0.223,0.067,0.314,0.104l-0.211,2.5l-0.049,0.58 M869.979,25.357
	c-1.629,0.324-1.996,1.534-1.842,2.722c0.09,0.679,0.25,1.293,0.49,1.924l3.566-0.468l0.354,2.684l-3.23,0.422
	c0.111,0.648,0.138,1.252,0.01,1.879c-0.148,0.682-0.48,1.386-1.035,2.016l0.008,0.052l6.953-0.91l0.422,3.23"/>
<path fill="#FFFFFF" stroke="#FFFFFF" stroke-width="1.5" stroke-miterlimit="10" d="M870.713,25.156"/>
<path fill="none" stroke="#FFFFFF" stroke-width="1.5" stroke-linecap="square" stroke-linejoin="round" stroke-miterlimit="10" d="
	M524.219,19.153c9.983,6.152,13.089,19.231,6.938,29.216c-4.666,7.572-13.32,11.187-21.583,9.806"/>
<path fill="none" stroke="#FFFFFF" stroke-width="1.5" stroke-linecap="square" stroke-linejoin="round" stroke-miterlimit="10" d="
	M501.94,55.305c-9.984-6.152-13.091-19.233-6.938-29.217c4.881-7.918,14.119-11.51,22.715-9.586"/>
<circle fill="none" stroke="#FFFFFF" stroke-width="1.5" stroke-linecap="round" stroke-linejoin="bevel" stroke-dasharray="3,12,3,12,3,12" cx="513.079" cy="37.229" r="18.123"/>
<path fill="none" stroke="#FFFFFF" stroke-width="1.5" stroke-linecap="square" stroke-linejoin="round" stroke-miterlimit="10" d="
	M511.479,46.439l-8.054-4.962l1.116-1.811c1.488,0.239,3.594-0.225,4.529-1.744c0.191-0.313,0.336-0.596,0.482-0.936l-2.189-1.351
	l1.42-2.303l1.788,1.104c0.231-0.628,0.563-1.318,0.938-1.922c1.734-2.816,4.937-3.405,7.934-1.559
	c1.041,0.642,1.738,1.338,2.128,1.883c0.068,0.099,0.13,0.193,0.179,0.28l-1.738,1.808l-0.402,0.419 M517.751,33.653
	c-1.469-0.777-2.518-0.069-3.146,0.95c-0.357,0.583-0.62,1.16-0.83,1.802l3.063,1.887l-1.42,2.304l-2.773-1.709
	c-0.318,0.574-0.683,1.059-1.178,1.464c-0.547,0.435-1.248,0.772-2.074,0.912l-0.025,0.043l5.971,3.679l-1.709,2.772"/>
<path fill="#FFFFFF" stroke="#FFFFFF" stroke-width="1.5" stroke-miterlimit="10" d="M518.447,33.96"/>
<path fill="none" stroke="#FFFFFF" stroke-width="1.5" stroke-linecap="square" stroke-linejoin="round" stroke-miterlimit="10" d="
	M522.743,131.955c0.258-11.723,9.971-21.018,21.692-20.76c8.896,0.195,16.39,5.832,19.378,13.658"/>
<path fill="none" stroke="#FFFFFF" stroke-width="1.5" stroke-linecap="square" stroke-linejoin="round" stroke-miterlimit="10" d="
	M565.198,132.889c-0.258,11.727-9.973,21.021-21.695,20.762c-9.299-0.205-17.07-6.357-19.758-14.746"/>
<circle fill="none" stroke="#FFFFFF" stroke-width="1.5" stroke-linecap="round" stroke-linejoin="bevel" stroke-dasharray="3,12,3,12,3,12" cx="543.971" cy="132.424" r="18.123"/>
<path fill="none" stroke="#FFFFFF" stroke-width="1.5" stroke-linecap="square" stroke-linejoin="round" stroke-miterlimit="10" d="
	M552.726,129.145l-0.208,9.457l-2.127-0.047c-0.548-1.406-2.011-2.988-3.796-3.027c-0.368-0.008-0.683,0.016-1.053,0.059
	l-0.056,2.572l-2.704-0.061l0.045-2.1c-0.658,0.115-1.422,0.178-2.131,0.164c-3.311-0.074-5.436-2.539-5.357-6.057
	c0.025-1.225,0.273-2.182,0.548-2.787c0.05-0.111,0.103-0.209,0.149-0.297l2.439,0.586l0.565,0.135 M538.523,130.201
	c0.071,1.66,1.214,2.207,2.409,2.234c0.686,0.016,1.316-0.053,1.978-0.193l0.078-3.598l2.706,0.061l-0.071,3.256
	c0.657-0.014,1.259,0.055,1.858,0.277c0.65,0.25,1.298,0.686,1.836,1.328h0.053l0.154-7.01l3.256,0.068"/>
<path fill="#FFFFFF" stroke="#FFFFFF" stroke-width="1.5" stroke-miterlimit="10" d="M538.436,129.445"/>
<path fill="none" stroke="#FFFFFF" stroke-width="1.5" stroke-linecap="square" stroke-linejoin="round" stroke-miterlimit="10" d="
	M606.653,136.35c11.627-1.52,22.286,6.672,23.808,18.299c1.153,8.822-3.283,17.084-10.568,21.225"/>
<path fill="none" stroke="#FFFFFF" stroke-width="1.5" stroke-linecap="square" stroke-linejoin="round" stroke-miterlimit="10" d="
	M612.161,178.457c-11.629,1.52-22.287-6.674-23.811-18.303c-1.205-9.221,3.701-17.834,11.588-21.762"/>
<circle fill="none" stroke="#FFFFFF" stroke-width="1.5" stroke-linecap="round" stroke-linejoin="bevel" stroke-dasharray="3,12,3,12,3,12" cx="609.407" cy="157.403" r="18.122"/>
<path fill="none" stroke="#FFFFFF" stroke-width="1.5" stroke-linecap="square" stroke-linejoin="round" stroke-miterlimit="10" d="
	M613.973,165.561l-9.378,1.229l-0.273-2.107c1.305-0.756,2.646-2.441,2.416-4.213c-0.047-0.361-0.115-0.674-0.214-1.029
	l-2.556,0.334l-0.351-2.684l2.083-0.271c-0.215-0.633-0.394-1.377-0.484-2.082c-0.428-3.281,1.688-5.756,5.174-6.213
	c1.217-0.158,2.195-0.061,2.842,0.121c0.115,0.031,0.223,0.066,0.313,0.104l-0.21,2.5l-0.049,0.58 M610.776,151.682
	c-1.628,0.324-1.996,1.535-1.844,2.723c0.092,0.682,0.25,1.295,0.49,1.926l3.568-0.471l0.352,2.688l-3.229,0.42
	c0.109,0.648,0.137,1.256,0.008,1.883c-0.148,0.682-0.48,1.387-1.033,2.016l0.006,0.053l6.953-0.91l0.423,3.229"/>
<path fill="#FFFFFF" stroke="#FFFFFF" stroke-width="1.5" stroke-miterlimit="10" d="M611.512,151.48"/>
<path fill="none" stroke="#FFFFFF" stroke-width="1.5" stroke-linecap="square" stroke-linejoin="round" stroke-miterlimit="10" d="
	M576.706,3.991c11.626-1.52,22.286,6.672,23.808,18.3c1.153,8.82-3.284,17.082-10.567,21.222"/>
<path fill="none" stroke="#FFFFFF" stroke-width="1.5" stroke-linecap="square" stroke-linejoin="round" stroke-miterlimit="10" d="
	M582.212,46.098c-11.627,1.521-22.286-6.673-23.807-18.301c-1.207-9.223,3.701-17.836,11.584-21.763"/>
<circle fill="none" stroke="#FFFFFF" stroke-width="1.5" stroke-linecap="round" stroke-linejoin="bevel" stroke-dasharray="3,12,3,12,3,12" cx="579.458" cy="25.045" r="18.123"/>
<path fill="none" stroke="#FFFFFF" stroke-width="1.5" stroke-linecap="square" stroke-linejoin="round" stroke-miterlimit="10" d="
	M584.024,33.202l-9.38,1.226l-0.274-2.109c1.307-0.754,2.646-2.441,2.417-4.211c-0.047-0.364-0.116-0.674-0.214-1.031l-2.554,0.334
	l-0.353-2.682l2.084-0.273c-0.216-0.633-0.393-1.378-0.486-2.083c-0.428-3.281,1.688-5.756,5.176-6.212
	c1.215-0.158,2.193-0.059,2.841,0.12c0.116,0.033,0.222,0.067,0.313,0.104l-0.211,2.5l-0.049,0.58 M580.829,19.324
	c-1.628,0.324-1.996,1.534-1.842,2.722c0.089,0.679,0.25,1.293,0.488,1.924l3.568-0.468l0.354,2.684l-3.23,0.422
	c0.111,0.648,0.137,1.252,0.008,1.879c-0.146,0.682-0.479,1.386-1.035,2.016l0.01,0.052l6.951-0.91l0.424,3.23"/>
<path fill="#FFFFFF" stroke="#FFFFFF" stroke-width="1.5" stroke-miterlimit="10" d="M581.563,19.123"/>
</svg>
