<?xml version="1.0" encoding="utf-8"?>
<!-- Generator: Adobe Illustrator 15.0.2, SVG Export Plug-In . SVG Version: 6.00 Build 0)  -->
<!DOCTYPE svg PUBLIC "-//W3C//DTD SVG 1.1//EN" "http://www.w3.org/Graphics/SVG/1.1/DTD/svg11.dtd">
<svg version="1.1" id="Layer_1" xmlns="http://www.w3.org/2000/svg" xmlns:xlink="http://www.w3.org/1999/xlink" x="0px" y="0px"
	 width="1908.67px" height="240px" viewBox="0 0 1908.67 240" enable-background="new 0 0 1908.67 240" xml:space="preserve">
<rect x="0" fill="#56DAF3" width="1908.671" height="240"/>
<path fill="none" stroke="#FFFFFF" stroke-width="2" stroke-linecap="square" stroke-linejoin="round" stroke-miterlimit="10" d="
	M702.372,189.035c-15.74-9.271-20.984-29.549-11.71-45.291c7.034-11.939,20.4-17.838,33.315-15.943"/>
<path fill="none" stroke="#FFFFFF" stroke-width="2" stroke-linecap="square" stroke-linejoin="round" stroke-miterlimit="10" d="
	M735.952,132.034c15.741,9.273,20.984,29.552,11.711,45.292c-7.355,12.486-21.635,18.365-35.083,15.637"/>
<circle fill="none" stroke="#FFFFFF" stroke-width="2" stroke-linecap="round" stroke-linejoin="bevel" stroke-dasharray="3,12,3,12,3,12" cx="719.163" cy="160.535" r="28.234"/>
<path fill="none" stroke="#FFFFFF" stroke-width="2" stroke-linecap="square" stroke-linejoin="round" stroke-miterlimit="10" d="
	M721.37,146.139l12.695,7.48l-1.682,2.855c-2.326-0.326-5.591,0.461-7.002,2.855c-0.291,0.494-0.504,0.939-0.725,1.473l3.455,2.037
	l-2.139,3.631l-2.821-1.662c-0.343,0.984-0.839,2.07-1.4,3.023c-2.616,4.439-7.583,5.455-12.307,2.674
	c-1.643-0.969-2.753-2.031-3.374-2.867c-0.112-0.152-0.209-0.297-0.289-0.432l2.654-2.869l0.616-0.666 M711.998,166.25
	c2.311,1.164,3.923,0.029,4.871-1.578c0.542-0.92,0.933-1.826,1.241-2.834l-4.83-2.844l2.14-3.633l4.372,2.576
	c0.483-0.902,1.033-1.67,1.791-2.316c0.837-0.693,1.92-1.242,3.202-1.484l0.042-0.07l-9.413-5.545l2.576-4.372"/>
<path fill="#FFFFFF" stroke="#FFFFFF" stroke-width="2" stroke-miterlimit="10" d="M710.903,165.793"/>
<path fill="none" stroke="#FFFFFF" stroke-width="2" stroke-linecap="square" stroke-linejoin="round" stroke-miterlimit="10" d="
	M853.712,29.252c15.552,9.584,20.392,29.961,10.807,45.516c-7.271,11.797-20.751,17.429-33.626,15.277"/>
<path fill="none" stroke="#FFFFFF" stroke-width="2" stroke-linecap="square" stroke-linejoin="round" stroke-miterlimit="10" d="
	M819.005,85.574c-15.554-9.585-20.392-29.963-10.808-45.517c7.603-12.336,21.997-17.931,35.387-14.935"/>
<circle fill="none" stroke="#FFFFFF" stroke-width="2" stroke-linecap="round" stroke-linejoin="bevel" stroke-dasharray="3,12,3,12,3,12" cx="836.358" cy="57.413" r="28.234"/>
<path fill="none" stroke="#FFFFFF" stroke-width="2" stroke-linecap="square" stroke-linejoin="round" stroke-miterlimit="10" d="
	M833.865,71.762l-12.544-7.731l1.739-2.821c2.319,0.372,5.599-0.35,7.058-2.717c0.301-0.488,0.522-0.928,0.754-1.458l-3.414-2.104
	l2.21-3.588l2.787,1.718c0.363-0.978,0.88-2.053,1.46-2.995c2.704-4.388,7.69-5.304,12.358-2.429c1.624,1,2.712,2.085,3.316,2.934
	c0.109,0.154,0.203,0.3,0.28,0.436l-2.71,2.816l-0.629,0.654 M843.635,51.842c-2.287-1.21-3.922-0.108-4.901,1.48
	c-0.56,0.908-0.969,1.808-1.297,2.808l4.772,2.94l-2.211,3.589l-4.32-2.663c-0.501,0.894-1.066,1.65-1.836,2.28
	c-0.851,0.677-1.944,1.204-3.231,1.42l-0.043,0.069l9.301,5.731l-2.663,4.32"/>
<path fill="#FFFFFF" stroke="#FFFFFF" stroke-width="2" stroke-miterlimit="10" d="M844.721,52.321"/>
<path fill="none" stroke="#FFFFFF" stroke-width="2" stroke-linecap="square" stroke-linejoin="round" stroke-miterlimit="10" d="
	M790.359,202.494c0.402-18.262,15.533-32.744,33.799-32.344c13.854,0.307,25.531,9.088,30.187,21.281"/>
<path fill="none" stroke="#FFFFFF" stroke-width="2" stroke-linecap="square" stroke-linejoin="round" stroke-miterlimit="10" d="
	M856.5,203.949c-0.401,18.266-15.534,32.746-33.799,32.346c-14.487-0.32-26.595-9.908-30.782-22.975"/>
<circle fill="none" stroke="#FFFFFF" stroke-width="2" stroke-linecap="round" stroke-linejoin="bevel" stroke-dasharray="3,12,3,12,3,12" cx="823.429" cy="203.223" r="28.234"/>
<path fill="none" stroke="#FFFFFF" stroke-width="2" stroke-linecap="square" stroke-linejoin="round" stroke-miterlimit="10" d="
	M837.069,198.115l-0.324,14.732l-3.313-0.072c-0.853-2.189-3.134-4.654-5.914-4.715c-0.573-0.014-1.064,0.02-1.639,0.086
	l-0.088,4.01l-4.214-0.092l0.072-3.273c-1.026,0.182-2.216,0.279-3.321,0.256c-5.153-0.115-8.466-3.953-8.346-9.434
	c0.041-1.906,0.427-3.395,0.854-4.344c0.078-0.172,0.156-0.326,0.234-0.463l3.801,0.914l0.882,0.211 M814.944,199.762
	c0.113,2.586,1.89,3.439,3.756,3.48c1.066,0.023,2.05-0.078,3.078-0.301l0.122-5.605l4.216,0.094l-0.112,5.072
	c1.024-0.02,1.962,0.086,2.896,0.432c1.016,0.391,2.021,1.068,2.859,2.07h0.083l0.239-10.922l5.073,0.111"/>
<path fill="#FFFFFF" stroke="#FFFFFF" stroke-width="2" stroke-miterlimit="10" d="M814.807,198.584"/>
<path fill="none" stroke="#FFFFFF" stroke-width="2" stroke-linecap="square" stroke-linejoin="round" stroke-miterlimit="10" d="
	M693.05,20.307c-11.214-14.422-8.616-35.203,5.806-46.42c10.94-8.506,25.54-9.064,36.847-2.543"/>
<path fill="none" stroke="#FFFFFF" stroke-width="2" stroke-linecap="square" stroke-linejoin="round" stroke-miterlimit="10" d="
	M745.275-20.307c11.215,14.422,8.615,35.205-5.807,46.42c-11.439,8.896-26.881,9.098-38.376,1.605"/>
<circle fill="none" stroke="#FFFFFF" stroke-width="2" stroke-linecap="round" stroke-linejoin="bevel" stroke-dasharray="3,12,3,12,3,12" cx="719.162" cy="0" r="28.234"/>
<path fill="none" stroke="#FFFFFF" stroke-width="2" stroke-linecap="square" stroke-linejoin="round" stroke-miterlimit="10" d="
	M726.52-12.568l9.045,11.631l-2.616,2.035c-2.042-1.16-5.368-1.633-7.563,0.074c-0.453,0.352-0.813,0.688-1.216,1.102l2.462,3.166
	l-3.326,2.588l-2.01-2.584c-0.682,0.789-1.542,1.615-2.416,2.293c-4.07,3.164-9.062,2.277-12.427-2.049
	c-1.171-1.508-1.811-2.902-2.079-3.91c-0.048-0.184-0.086-0.352-0.111-0.506l3.525-1.689l0.818-0.393 M710.396,2.672
	c1.719,1.934,3.636,1.473,5.109,0.328c0.842-0.654,1.541-1.355,2.198-2.178l-3.442-4.424l3.329-2.588l3.114,4.006
	c0.783-0.66,1.576-1.172,2.519-1.492c1.034-0.338,2.243-0.447,3.524-0.199l0.065-0.051l-6.707-8.623l4.006-3.115"/>
<path fill="#FFFFFF" stroke="#FFFFFF" stroke-width="2" stroke-miterlimit="10" d="M709.546,1.844"/>
<path fill="none" stroke="#FFFFFF" stroke-width="2" stroke-linecap="square" stroke-linejoin="round" stroke-miterlimit="10" d="
	M592.245,182.912c15.604-9.498,35.955-4.549,45.456,11.057c7.204,11.838,6.095,26.406-1.673,36.896"/>
<path fill="none" stroke="#FFFFFF" stroke-width="2" stroke-linecap="square" stroke-linejoin="round" stroke-miterlimit="10" d="
	M626.642,239.424c-15.605,9.5-35.957,4.547-45.456-11.059c-7.535-12.377-5.977-27.742,2.778-38.309"/>
<circle fill="none" stroke="#FFFFFF" stroke-width="2" stroke-linecap="round" stroke-linejoin="bevel" stroke-dasharray="3,12,3,12,3,12" cx="609.443" cy="211.168" r="28.233"/>
<path fill="none" stroke="#FFFFFF" stroke-width="2" stroke-linecap="square" stroke-linejoin="round" stroke-miterlimit="10" d="
	M621.091,219.91l-12.586,7.66l-1.722-2.83c1.384-1.896,2.233-5.146,0.788-7.521c-0.298-0.49-0.591-0.887-0.957-1.336l-3.425,2.086
	l-2.191-3.6l2.796-1.701c-0.706-0.768-1.429-1.717-2.004-2.662c-2.678-4.402-1.229-9.262,3.454-12.111
	c1.629-0.992,3.089-1.469,4.12-1.621c0.187-0.027,0.359-0.045,0.516-0.053l1.277,3.695l0.297,0.857 M607.788,202.154
	c-2.117,1.488-1.879,3.443-0.909,5.039c0.554,0.91,1.17,1.684,1.912,2.432l4.787-2.916l2.192,3.602l-4.334,2.639
	c0.567,0.852,0.984,1.699,1.195,2.672c0.217,1.064,0.188,2.277-0.204,3.523l0.043,0.07l9.332-5.682l2.639,4.336"/>
<path fill="#FFFFFF" stroke="#FFFFFF" stroke-width="2" stroke-miterlimit="10" d="M608.708,201.404"/>
<path fill="none" stroke="#FFFFFF" stroke-width="2" stroke-linecap="square" stroke-linejoin="round" stroke-miterlimit="10" d="
	M580.692,80.891c4.969-17.579,23.248-27.803,40.83-22.834c13.335,3.771,22.437,15.199,23.885,28.172"/>
<path fill="none" stroke="#FFFFFF" stroke-width="2" stroke-linecap="square" stroke-linejoin="round" stroke-miterlimit="10" d="
	M644.355,98.886c-4.97,17.581-23.25,27.803-40.831,22.834c-13.944-3.941-23.259-16.259-24.036-29.959"/>
<circle fill="none" stroke="#FFFFFF" stroke-width="2" stroke-linecap="round" stroke-linejoin="bevel" stroke-dasharray="3,12,3,12,3,12" cx="612.523" cy="89.889" r="28.234"/>
<path fill="none" stroke="#FFFFFF" stroke-width="2" stroke-linecap="square" stroke-linejoin="round" stroke-miterlimit="10" d="
	M627.007,88.366l-4.008,14.179l-3.189-0.901c-0.276-2.333-1.867-5.291-4.542-6.047c-0.552-0.156-1.036-0.248-1.608-0.327
	l-1.09,3.859l-4.056-1.146l0.891-3.15c-1.04-0.081-2.216-0.285-3.28-0.586c-4.96-1.403-7.204-5.949-5.713-11.224
	c0.519-1.836,1.265-3.179,1.917-3.991c0.119-0.147,0.233-0.277,0.342-0.39l3.45,1.838l0.8,0.427 M605.176,84.411
	c-0.539,2.531,0.967,3.802,2.763,4.31c1.026,0.291,2.004,0.438,3.056,0.48l1.523-5.395l4.058,1.147l-1.381,4.883
	c0.997,0.238,1.878,0.575,2.695,1.144c0.885,0.633,1.689,1.542,2.249,2.721l0.08,0.022l2.971-10.513l4.883,1.38"/>
<path fill="#FFFFFF" stroke="#FFFFFF" stroke-width="2" stroke-miterlimit="10" d="M605.339,83.236"/>
<path fill="none" stroke="#FFFFFF" stroke-width="2" stroke-linecap="square" stroke-linejoin="round" stroke-miterlimit="10" d="
	M950.431,225.34c18.113-2.367,34.72,10.395,37.09,28.51c1.796,13.742-5.115,26.613-16.465,33.063"/>
<path fill="none" stroke="#FFFFFF" stroke-width="2" stroke-linecap="square" stroke-linejoin="round" stroke-miterlimit="10" d="
	M959.01,290.939c-18.116,2.369-34.721-10.396-37.091-28.512c-1.879-14.367,5.766-27.787,18.048-33.904"/>
<circle fill="none" stroke="#FFFFFF" stroke-width="2" stroke-linecap="round" stroke-linejoin="bevel" stroke-dasharray="3,12,3,12,3,12" cx="954.72" cy="258.14" r="28.233"/>
<path fill="none" stroke="#FFFFFF" stroke-width="2" stroke-linecap="square" stroke-linejoin="round" stroke-miterlimit="10" d="
	M961.833,270.848l-14.61,1.912l-0.43-3.287c2.034-1.174,4.125-3.803,3.765-6.559c-0.074-0.568-0.181-1.051-0.334-1.607l-3.977,0.52
	l-0.547-4.178l3.245-0.426c-0.335-0.986-0.611-2.146-0.755-3.244c-0.667-5.111,2.625-8.967,8.061-9.678
	c1.892-0.246,3.419-0.092,4.424,0.188c0.182,0.051,0.346,0.104,0.492,0.16l-0.328,3.896l-0.076,0.902 M956.855,249.227
	c-2.537,0.504-3.111,2.391-2.87,4.24c0.139,1.059,0.389,2.016,0.765,2.998l5.558-0.729l0.547,4.182l-5.032,0.656
	c0.174,1.01,0.213,1.953,0.013,2.928c-0.232,1.063-0.75,2.16-1.612,3.141l0.011,0.082l10.832-1.418l0.658,5.031"/>
<path fill="#FFFFFF" stroke="#FFFFFF" stroke-width="2" stroke-miterlimit="10" d="M957.999,248.914"/>
<path fill="none" stroke="#FFFFFF" stroke-width="2" stroke-linecap="square" stroke-linejoin="round" stroke-miterlimit="10" d="
	M964.828-14.097c18.113-2.368,34.72,10.395,37.09,28.51c1.796,13.741-5.115,26.613-16.465,33.063"/>
<path fill="none" stroke="#FFFFFF" stroke-width="2" stroke-linecap="square" stroke-linejoin="round" stroke-miterlimit="10" d="
	M973.407,51.503c-18.116,2.368-34.721-10.396-37.091-28.512c-1.879-14.368,5.766-27.787,18.048-33.905"/>
<circle fill="none" stroke="#FFFFFF" stroke-width="2" stroke-linecap="round" stroke-linejoin="bevel" stroke-dasharray="3,12,3,12,3,12" cx="969.117" cy="18.703" r="28.234"/>
<path fill="none" stroke="#FFFFFF" stroke-width="2" stroke-linecap="square" stroke-linejoin="round" stroke-miterlimit="10" d="
	M976.231,31.411l-14.61,1.911l-0.43-3.286c2.034-1.174,4.125-3.803,3.765-6.56c-0.074-0.568-0.181-1.05-0.334-1.607l-3.977,0.521
	l-0.547-4.178l3.245-0.426c-0.335-0.986-0.611-2.147-0.755-3.244c-0.667-5.111,2.625-8.967,8.061-9.678
	c1.892-0.247,3.419-0.092,4.424,0.187c0.182,0.051,0.346,0.104,0.492,0.161l-0.328,3.896l-0.076,0.903 M971.252,9.79
	c-2.537,0.504-3.111,2.39-2.87,4.24c0.139,1.058,0.389,2.015,0.765,2.997l5.558-0.728l0.547,4.181l-5.032,0.657
	c0.174,1.01,0.213,1.952,0.013,2.928c-0.232,1.063-0.75,2.16-1.612,3.14l0.011,0.082l10.832-1.418l0.658,5.032"/>
<path fill="#FFFFFF" stroke="#FFFFFF" stroke-width="2" stroke-miterlimit="10" d="M972.397,9.477"/>
<path fill="none" stroke="#FFFFFF" stroke-width="2" stroke-linecap="square" stroke-linejoin="round" stroke-miterlimit="10" d="
	M292.224,189.035c-15.74-9.271-20.984-29.549-11.71-45.291c7.034-11.939,20.4-17.838,33.315-15.943"/>
<path fill="none" stroke="#FFFFFF" stroke-width="2" stroke-linecap="square" stroke-linejoin="round" stroke-miterlimit="10" d="
	M325.804,132.034c15.741,9.273,20.984,29.552,11.711,45.292c-7.355,12.486-21.635,18.365-35.083,15.637"/>
<circle fill="none" stroke="#FFFFFF" stroke-width="2" stroke-linecap="round" stroke-linejoin="bevel" stroke-dasharray="3,12,3,12,3,12" cx="309.015" cy="160.535" r="28.234"/>
<path fill="none" stroke="#FFFFFF" stroke-width="2" stroke-linecap="square" stroke-linejoin="round" stroke-miterlimit="10" d="
	M311.222,146.139l12.695,7.48l-1.682,2.855c-2.326-0.326-5.591,0.461-7.002,2.855c-0.291,0.494-0.504,0.939-0.725,1.473l3.455,2.037
	l-2.139,3.631l-2.821-1.662c-0.343,0.984-0.839,2.07-1.4,3.023c-2.616,4.439-7.583,5.455-12.307,2.674
	c-1.643-0.969-2.753-2.031-3.374-2.867c-0.112-0.152-0.209-0.297-0.289-0.432l2.654-2.869l0.616-0.666 M301.85,166.25
	c2.311,1.164,3.923,0.029,4.871-1.578c0.542-0.92,0.933-1.826,1.241-2.834l-4.83-2.844l2.14-3.633l4.372,2.576
	c0.483-0.902,1.033-1.67,1.791-2.316c0.837-0.693,1.92-1.242,3.202-1.484l0.042-0.07l-9.413-5.545l2.576-4.372"/>
<path fill="#FFFFFF" stroke="#FFFFFF" stroke-width="2" stroke-miterlimit="10" d="M300.755,165.793"/>
<path fill="none" stroke="#FFFFFF" stroke-width="2" stroke-linecap="square" stroke-linejoin="round" stroke-miterlimit="10" d="
	M443.564,48.981c15.552,9.584,20.392,29.961,10.807,45.516c-7.271,11.797-20.751,17.429-33.626,15.277"/>
<path fill="none" stroke="#FFFFFF" stroke-width="2" stroke-linecap="square" stroke-linejoin="round" stroke-miterlimit="10" d="
	M408.857,105.303c-15.554-9.585-20.392-29.963-10.808-45.517c7.603-12.336,21.997-17.931,35.387-14.935"/>
<circle fill="none" stroke="#FFFFFF" stroke-width="2" stroke-linecap="round" stroke-linejoin="bevel" stroke-dasharray="3,12,3,12,3,12" cx="426.21" cy="77.142" r="28.234"/>
<path fill="none" stroke="#FFFFFF" stroke-width="2" stroke-linecap="square" stroke-linejoin="round" stroke-miterlimit="10" d="
	M423.717,91.491l-12.544-7.731l1.739-2.821c2.319,0.372,5.599-0.35,7.058-2.717c0.301-0.488,0.522-0.928,0.754-1.458l-3.414-2.104
	l2.21-3.588l2.787,1.718c0.363-0.978,0.88-2.053,1.46-2.995c2.704-4.388,7.69-5.304,12.358-2.429c1.624,1,2.712,2.085,3.316,2.934
	c0.109,0.154,0.203,0.3,0.28,0.436l-2.71,2.816l-0.629,0.654 M433.487,71.571c-2.287-1.21-3.922-0.108-4.901,1.48
	c-0.56,0.908-0.969,1.808-1.297,2.808l4.772,2.94l-2.211,3.589l-4.32-2.663c-0.501,0.894-1.066,1.65-1.836,2.28
	c-0.851,0.677-1.944,1.204-3.231,1.42l-0.043,0.069l9.301,5.731l-2.663,4.32"/>
<path fill="#FFFFFF" stroke="#FFFFFF" stroke-width="2" stroke-miterlimit="10" d="M434.573,72.05"/>
<path fill="none" stroke="#FFFFFF" stroke-width="2" stroke-linecap="square" stroke-linejoin="round" stroke-miterlimit="10" d="
	M380.211,186.494c0.402-18.262,15.533-32.744,33.799-32.344c13.854,0.307,25.531,9.088,30.187,21.281"/>
<path fill="none" stroke="#FFFFFF" stroke-width="2" stroke-linecap="square" stroke-linejoin="round" stroke-miterlimit="10" d="
	M446.352,187.949c-0.401,18.266-15.534,32.746-33.799,32.346c-14.487-0.32-26.595-9.908-30.782-22.975"/>
<circle fill="none" stroke="#FFFFFF" stroke-width="2" stroke-linecap="round" stroke-linejoin="bevel" stroke-dasharray="3,12,3,12,3,12" cx="413.281" cy="187.223" r="28.234"/>
<path fill="none" stroke="#FFFFFF" stroke-width="2" stroke-linecap="square" stroke-linejoin="round" stroke-miterlimit="10" d="
	M426.921,182.115l-0.324,14.732l-3.313-0.072c-0.853-2.189-3.134-4.654-5.914-4.715c-0.573-0.014-1.064,0.02-1.639,0.086
	l-0.088,4.01l-4.214-0.092l0.072-3.273c-1.026,0.182-2.216,0.279-3.321,0.256c-5.153-0.115-8.466-3.953-8.346-9.434
	c0.041-1.906,0.427-3.395,0.854-4.344c0.078-0.172,0.156-0.326,0.234-0.463l3.801,0.914l0.882,0.211 M404.796,183.762
	c0.113,2.586,1.89,3.439,3.756,3.48c1.066,0.023,2.05-0.078,3.078-0.301l0.122-5.605l4.216,0.094l-0.112,5.072
	c1.024-0.02,1.962,0.086,2.896,0.432c1.016,0.391,2.021,1.068,2.859,2.07h0.083l0.239-10.922l5.073,0.111"/>
<path fill="#FFFFFF" stroke="#FFFFFF" stroke-width="2" stroke-miterlimit="10" d="M404.659,182.584"/>
<path fill="none" stroke="#FFFFFF" stroke-width="2" stroke-linecap="square" stroke-linejoin="round" stroke-miterlimit="10" d="
	M282.902,20.307c-11.214-14.422-8.616-35.203,5.806-46.42c10.94-8.506,25.54-9.064,36.847-2.543"/>
<path fill="none" stroke="#FFFFFF" stroke-width="2" stroke-linecap="square" stroke-linejoin="round" stroke-miterlimit="10" d="
	M335.127-20.307c11.215,14.422,8.615,35.205-5.807,46.42c-11.439,8.896-26.881,9.098-38.376,1.605"/>
<circle fill="none" stroke="#FFFFFF" stroke-width="2" stroke-linecap="round" stroke-linejoin="bevel" stroke-dasharray="3,12,3,12,3,12" cx="309.014" cy="0" r="28.234"/>
<path fill="none" stroke="#FFFFFF" stroke-width="2" stroke-linecap="square" stroke-linejoin="round" stroke-miterlimit="10" d="
	M316.372-12.568l9.045,11.631l-2.616,2.035c-2.042-1.16-5.368-1.633-7.563,0.074c-0.453,0.352-0.813,0.688-1.216,1.102l2.462,3.166
	l-3.326,2.588l-2.01-2.584c-0.682,0.789-1.542,1.615-2.416,2.293c-4.07,3.164-9.062,2.277-12.427-2.049
	c-1.171-1.508-1.811-2.902-2.079-3.91c-0.048-0.184-0.086-0.352-0.111-0.506l3.525-1.689l0.818-0.393 M300.248,2.672
	c1.719,1.934,3.636,1.473,5.109,0.328c0.842-0.654,1.541-1.355,2.198-2.178l-3.442-4.424l3.329-2.588l3.114,4.006
	c0.783-0.66,1.576-1.172,2.519-1.492c1.034-0.338,2.243-0.447,3.524-0.199l0.065-0.051l-6.707-8.623l4.006-3.115"/>
<path fill="#FFFFFF" stroke="#FFFFFF" stroke-width="2" stroke-miterlimit="10" d="M299.398,1.844"/>
<path fill="none" stroke="#FFFFFF" stroke-width="2" stroke-linecap="square" stroke-linejoin="round" stroke-miterlimit="10" d="
	M182.097,182.912c15.604-9.498,35.955-4.549,45.456,11.057c7.204,11.838,6.095,26.406-1.673,36.896"/>
<path fill="none" stroke="#FFFFFF" stroke-width="2" stroke-linecap="square" stroke-linejoin="round" stroke-miterlimit="10" d="
	M216.494,239.424c-15.605,9.5-35.957,4.547-45.456-11.059c-7.535-12.377-5.977-27.742,2.778-38.309"/>
<circle fill="none" stroke="#FFFFFF" stroke-width="2" stroke-linecap="round" stroke-linejoin="bevel" stroke-dasharray="3,12,3,12,3,12" cx="199.295" cy="211.168" r="28.233"/>
<path fill="none" stroke="#FFFFFF" stroke-width="2" stroke-linecap="square" stroke-linejoin="round" stroke-miterlimit="10" d="
	M210.943,219.91l-12.586,7.66l-1.722-2.83c1.384-1.896,2.233-5.146,0.788-7.521c-0.298-0.49-0.591-0.887-0.957-1.336l-3.425,2.086
	l-2.191-3.6l2.796-1.701c-0.706-0.768-1.429-1.717-2.004-2.662c-2.678-4.402-1.229-9.262,3.454-12.111
	c1.629-0.992,3.089-1.469,4.12-1.621c0.187-0.027,0.359-0.045,0.516-0.053l1.277,3.695l0.297,0.857 M197.64,202.154
	c-2.117,1.488-1.879,3.443-0.909,5.039c0.554,0.91,1.17,1.684,1.912,2.432l4.787-2.916l2.192,3.602l-4.334,2.639
	c0.567,0.852,0.984,1.699,1.195,2.672c0.217,1.064,0.188,2.277-0.204,3.523l0.043,0.07l9.332-5.682l2.639,4.336"/>
<path fill="#FFFFFF" stroke="#FFFFFF" stroke-width="2" stroke-miterlimit="10" d="M198.56,201.404"/>
<path fill="none" stroke="#FFFFFF" stroke-width="2" stroke-linecap="square" stroke-linejoin="round" stroke-miterlimit="10" d="
	M170.544,80.891c4.969-17.579,23.248-27.803,40.83-22.834c13.335,3.771,22.437,15.199,23.885,28.172"/>
<path fill="none" stroke="#FFFFFF" stroke-width="2" stroke-linecap="square" stroke-linejoin="round" stroke-miterlimit="10" d="
	M234.207,98.886c-4.97,17.581-23.25,27.803-40.831,22.834c-13.944-3.941-23.259-16.259-24.036-29.959"/>
<circle fill="none" stroke="#FFFFFF" stroke-width="2" stroke-linecap="round" stroke-linejoin="bevel" stroke-dasharray="3,12,3,12,3,12" cx="202.375" cy="89.889" r="28.234"/>
<path fill="none" stroke="#FFFFFF" stroke-width="2" stroke-linecap="square" stroke-linejoin="round" stroke-miterlimit="10" d="
	M216.859,88.366l-4.008,14.179l-3.189-0.901c-0.276-2.333-1.867-5.291-4.542-6.047c-0.552-0.156-1.036-0.248-1.608-0.327
	l-1.09,3.859l-4.056-1.146l0.891-3.15c-1.04-0.081-2.216-0.285-3.28-0.586c-4.96-1.403-7.204-5.949-5.713-11.224
	c0.519-1.836,1.265-3.179,1.917-3.991c0.119-0.147,0.233-0.277,0.342-0.39l3.45,1.838l0.8,0.427 M195.028,84.411
	c-0.539,2.531,0.967,3.802,2.763,4.31c1.026,0.291,2.004,0.438,3.056,0.48l1.523-5.395l4.058,1.147l-1.381,4.883
	c0.997,0.238,1.878,0.575,2.695,1.144c0.885,0.633,1.689,1.542,2.249,2.721l0.08,0.022l2.971-10.513l4.883,1.38"/>
<path fill="#FFFFFF" stroke="#FFFFFF" stroke-width="2" stroke-miterlimit="10" d="M195.191,83.236"/>
<path fill="none" stroke="#FFFFFF" stroke-width="2" stroke-linecap="square" stroke-linejoin="round" stroke-miterlimit="10" d="
	M510.937,209.34c18.113-2.367,34.72,10.395,37.09,28.51c1.796,13.742-5.115,26.613-16.465,33.063"/>
<path fill="none" stroke="#FFFFFF" stroke-width="2" stroke-linecap="square" stroke-linejoin="round" stroke-miterlimit="10" d="
	M519.516,274.939c-18.116,2.369-34.721-10.396-37.091-28.512c-1.879-14.367,5.766-27.787,18.048-33.904"/>
<circle fill="none" stroke="#FFFFFF" stroke-width="2" stroke-linecap="round" stroke-linejoin="bevel" stroke-dasharray="3,12,3,12,3,12" cx="515.226" cy="242.14" r="28.233"/>
<path fill="none" stroke="#FFFFFF" stroke-width="2" stroke-linecap="square" stroke-linejoin="round" stroke-miterlimit="10" d="
	M522.34,254.848l-14.61,1.912l-0.43-3.287c2.034-1.174,4.125-3.803,3.765-6.559c-0.074-0.568-0.181-1.051-0.334-1.607l-3.977,0.52
	l-0.547-4.178l3.245-0.426c-0.335-0.986-0.611-2.146-0.755-3.244c-0.667-5.111,2.625-8.967,8.061-9.678
	c1.892-0.246,3.419-0.092,4.424,0.188c0.182,0.051,0.346,0.104,0.492,0.16l-0.328,3.896l-0.076,0.902 M517.361,233.227
	c-2.537,0.504-3.111,2.391-2.87,4.24c0.139,1.059,0.389,2.016,0.765,2.998l5.558-0.729l0.547,4.182l-5.032,0.656
	c0.174,1.01,0.213,1.953,0.013,2.928c-0.232,1.063-0.75,2.16-1.612,3.141l0.011,0.082l10.832-1.418l0.658,5.031"/>
<path fill="#FFFFFF" stroke="#FFFFFF" stroke-width="2" stroke-miterlimit="10" d="M518.506,232.914"/>
<path fill="none" stroke="#FFFFFF" stroke-width="2" stroke-linecap="square" stroke-linejoin="round" stroke-miterlimit="10" d="
	M525.335,5.632c18.113-2.368,34.72,10.395,37.09,28.51c1.796,13.741-5.115,26.613-16.465,33.063"/>
<path fill="none" stroke="#FFFFFF" stroke-width="2" stroke-linecap="square" stroke-linejoin="round" stroke-miterlimit="10" d="
	M533.914,71.232c-18.116,2.368-34.721-10.396-37.091-28.512c-1.879-14.368,5.766-27.787,18.048-33.905"/>
<circle fill="none" stroke="#FFFFFF" stroke-width="2" stroke-linecap="round" stroke-linejoin="bevel" stroke-dasharray="3,12,3,12,3,12" cx="529.624" cy="38.432" r="28.234"/>
<path fill="none" stroke="#FFFFFF" stroke-width="2" stroke-linecap="square" stroke-linejoin="round" stroke-miterlimit="10" d="
	M536.737,51.14l-14.61,1.911l-0.43-3.286c2.034-1.174,4.125-3.803,3.765-6.56c-0.074-0.568-0.181-1.05-0.334-1.607l-3.977,0.521
	l-0.547-4.178l3.245-0.426c-0.335-0.986-0.611-2.147-0.755-3.244c-0.667-5.111,2.625-8.967,8.061-9.678
	c1.892-0.247,3.419-0.092,4.424,0.187c0.182,0.051,0.346,0.104,0.492,0.161l-0.328,3.896l-0.076,0.903 M531.759,29.519
	c-2.537,0.504-3.111,2.39-2.87,4.24c0.139,1.058,0.389,2.015,0.765,2.997l5.558-0.728l0.547,4.181l-5.032,0.657
	c0.174,1.01,0.213,1.952,0.013,2.928c-0.232,1.063-0.75,2.16-1.612,3.14l0.011,0.082l10.832-1.418l0.658,5.032"/>
<path fill="#FFFFFF" stroke="#FFFFFF" stroke-width="2" stroke-miterlimit="10" d="M532.903,29.206"/>
<path fill="none" stroke="#FFFFFF" stroke-width="2" stroke-linecap="square" stroke-linejoin="round" stroke-miterlimit="10" d="
	M25.35,48.981c15.552,9.584,20.392,29.961,10.807,45.516c-7.271,11.797-20.751,17.429-33.626,15.277"/>
<path fill="none" stroke="#FFFFFF" stroke-width="2" stroke-linecap="square" stroke-linejoin="round" stroke-miterlimit="10" d="
	M-9.358,105.303c-15.554-9.585-20.392-29.963-10.808-45.517c7.603-12.336,21.997-17.931,35.387-14.935"/>
<circle fill="none" stroke="#FFFFFF" stroke-width="2" stroke-linecap="round" stroke-linejoin="bevel" stroke-dasharray="3,12,3,12,3,12" cx="7.995" cy="77.142" r="28.234"/>
<path fill="none" stroke="#FFFFFF" stroke-width="2" stroke-linecap="square" stroke-linejoin="round" stroke-miterlimit="10" d="
	M5.502,91.491L-7.042,83.76l1.739-2.821c2.319,0.372,5.599-0.35,7.058-2.717c0.301-0.488,0.522-0.928,0.754-1.458l-3.414-2.104
	l2.21-3.588l2.787,1.718c0.363-0.978,0.88-2.053,1.46-2.995c2.704-4.388,7.69-5.304,12.358-2.429c1.624,1,2.712,2.085,3.316,2.934
	c0.109,0.154,0.203,0.3,0.28,0.436l-2.71,2.816l-0.629,0.654 M15.273,71.571c-2.287-1.21-3.922-0.108-4.901,1.48
	c-0.56,0.908-0.969,1.808-1.297,2.808l4.772,2.94l-2.211,3.589l-4.32-2.663c-0.501,0.894-1.066,1.65-1.836,2.28
	c-0.851,0.677-1.944,1.204-3.231,1.42l-0.043,0.069l9.301,5.731l-2.663,4.32"/>
<path fill="#FFFFFF" stroke="#FFFFFF" stroke-width="2" stroke-miterlimit="10" d="M16.359,72.05"/>
<path fill="none" stroke="#FFFFFF" stroke-width="2" stroke-linecap="square" stroke-linejoin="round" stroke-miterlimit="10" d="
	M-38.004,186.494c0.402-18.262,15.533-32.744,33.799-32.344c13.854,0.307,25.531,9.088,30.187,21.281"/>
<path fill="none" stroke="#FFFFFF" stroke-width="2" stroke-linecap="square" stroke-linejoin="round" stroke-miterlimit="10" d="
	M28.138,187.949c-0.401,18.266-15.534,32.746-33.799,32.346c-14.487-0.32-26.595-9.908-30.782-22.975"/>
<circle fill="none" stroke="#FFFFFF" stroke-width="2" stroke-linecap="round" stroke-linejoin="bevel" stroke-dasharray="3,12,3,12,3,12" cx="-4.933" cy="187.223" r="28.234"/>
<path fill="none" stroke="#FFFFFF" stroke-width="2" stroke-linecap="square" stroke-linejoin="round" stroke-miterlimit="10" d="
	M8.706,182.115l-0.324,14.732l-3.313-0.072c-0.853-2.189-3.134-4.654-5.914-4.715c-0.573-0.014-1.064,0.02-1.639,0.086l-0.088,4.01
	l-4.214-0.092l0.072-3.273c-1.026,0.182-2.216,0.279-3.321,0.256c-5.153-0.115-8.466-3.953-8.346-9.434
	c0.041-1.906,0.427-3.395,0.854-4.344c0.078-0.172,0.156-0.326,0.234-0.463l3.801,0.914l0.882,0.211 M-13.419,183.762
	c0.113,2.586,1.89,3.439,3.756,3.48c1.066,0.023,2.05-0.078,3.078-0.301l0.122-5.605l4.216,0.094l-0.112,5.072
	c1.024-0.02,1.962,0.086,2.896,0.432c1.016,0.391,2.021,1.068,2.859,2.07h0.083l0.239-10.922l5.073,0.111"/>
<path fill="#FFFFFF" stroke="#FFFFFF" stroke-width="2" stroke-miterlimit="10" d="M-13.555,182.584"/>
<path fill="none" stroke="#FFFFFF" stroke-width="2" stroke-linecap="square" stroke-linejoin="round" stroke-miterlimit="10" d="
	M92.723,209.34c18.113-2.367,34.72,10.395,37.09,28.51c1.796,13.742-5.115,26.613-16.465,33.063"/>
<path fill="none" stroke="#FFFFFF" stroke-width="2" stroke-linecap="square" stroke-linejoin="round" stroke-miterlimit="10" d="
	M101.302,274.939c-18.116,2.369-34.721-10.396-37.091-28.512c-1.879-14.367,5.766-27.787,18.048-33.904"/>
<circle fill="none" stroke="#FFFFFF" stroke-width="2" stroke-linecap="round" stroke-linejoin="bevel" stroke-dasharray="3,12,3,12,3,12" cx="97.012" cy="242.14" r="28.233"/>
<path fill="none" stroke="#FFFFFF" stroke-width="2" stroke-linecap="square" stroke-linejoin="round" stroke-miterlimit="10" d="
	M104.125,254.848l-14.61,1.912l-0.43-3.287c2.034-1.174,4.125-3.803,3.765-6.559c-0.074-0.568-0.181-1.051-0.334-1.607l-3.977,0.52
	l-0.547-4.178l3.245-0.426c-0.335-0.986-0.611-2.146-0.755-3.244c-0.667-5.111,2.625-8.967,8.061-9.678
	c1.892-0.246,3.419-0.092,4.424,0.188c0.182,0.051,0.346,0.104,0.492,0.16l-0.328,3.896l-0.076,0.902 M99.147,233.227
	c-2.537,0.504-3.111,2.391-2.87,4.24c0.139,1.059,0.389,2.016,0.765,2.998l5.558-0.729l0.547,4.182l-5.032,0.656
	c0.174,1.01,0.213,1.953,0.013,2.928c-0.232,1.063-0.75,2.16-1.612,3.141l0.011,0.082l10.832-1.418l0.658,5.031"/>
<path fill="#FFFFFF" stroke="#FFFFFF" stroke-width="2" stroke-miterlimit="10" d="M100.291,232.914"/>
<path fill="none" stroke="#FFFFFF" stroke-width="2" stroke-linecap="square" stroke-linejoin="round" stroke-miterlimit="10" d="
	M107.12,5.632c18.113-2.368,34.72,10.395,37.09,28.51c1.796,13.741-5.115,26.613-16.465,33.063"/>
<path fill="none" stroke="#FFFFFF" stroke-width="2" stroke-linecap="square" stroke-linejoin="round" stroke-miterlimit="10" d="
	M115.699,71.232C97.583,73.6,80.979,60.835,78.609,42.72C76.73,28.352,84.374,14.933,96.656,8.815"/>
<circle fill="none" stroke="#FFFFFF" stroke-width="2" stroke-linecap="round" stroke-linejoin="bevel" stroke-dasharray="3,12,3,12,3,12" cx="111.409" cy="38.432" r="28.234"/>
<path fill="none" stroke="#FFFFFF" stroke-width="2" stroke-linecap="square" stroke-linejoin="round" stroke-miterlimit="10" d="
	M118.523,51.14l-14.61,1.911l-0.43-3.286c2.034-1.174,4.125-3.803,3.765-6.56c-0.074-0.568-0.181-1.05-0.334-1.607l-3.977,0.521
	l-0.547-4.178l3.245-0.426c-0.335-0.986-0.611-2.147-0.755-3.244c-0.667-5.111,2.625-8.967,8.061-9.678
	c1.892-0.247,3.419-0.092,4.424,0.187c0.182,0.051,0.346,0.104,0.492,0.161l-0.328,3.896l-0.076,0.903 M113.544,29.519
	c-2.537,0.504-3.111,2.39-2.87,4.24c0.139,1.058,0.389,2.015,0.765,2.997l5.558-0.728l0.547,4.181l-5.032,0.657
	c0.174,1.01,0.213,1.952,0.013,2.928c-0.232,1.063-0.75,2.16-1.612,3.14l0.011,0.082l10.832-1.418l0.658,5.032"/>
<path fill="#FFFFFF" stroke="#FFFFFF" stroke-width="2" stroke-miterlimit="10" d="M114.689,29.206"/>
<path fill="none" stroke="#FFFFFF" stroke-width="2" stroke-linecap="square" stroke-linejoin="round" stroke-miterlimit="10" d="
	M1753.931,189.035c-15.739-9.271-20.983-29.549-11.71-45.291c7.034-11.939,20.4-17.838,33.315-15.943"/>
<path fill="none" stroke="#FFFFFF" stroke-width="2" stroke-linecap="square" stroke-linejoin="round" stroke-miterlimit="10" d="
	M1787.511,132.034c15.742,9.273,20.984,29.552,11.711,45.292c-7.355,12.486-21.635,18.365-35.082,15.637"/>
<circle fill="none" stroke="#FFFFFF" stroke-width="2" stroke-linecap="round" stroke-linejoin="bevel" stroke-dasharray="3,12,3,12,3,12" cx="1770.722" cy="160.535" r="28.234"/>
<path fill="none" stroke="#FFFFFF" stroke-width="2" stroke-linecap="square" stroke-linejoin="round" stroke-miterlimit="10" d="
	M1772.929,146.139l12.695,7.48l-1.682,2.855c-2.326-0.326-5.591,0.461-7.002,2.855c-0.291,0.494-0.504,0.939-0.725,1.473
	l3.455,2.037l-2.139,3.631l-2.821-1.662c-0.343,0.984-0.839,2.07-1.4,3.023c-2.616,4.439-7.583,5.455-12.308,2.674
	c-1.643-0.969-2.752-2.031-3.373-2.867c-0.112-0.152-0.209-0.297-0.289-0.432l2.654-2.869l0.615-0.666 M1763.558,166.25
	c2.311,1.164,3.922,0.029,4.87-1.578c0.542-0.92,0.933-1.826,1.241-2.834l-4.83-2.844l2.14-3.633l4.372,2.576
	c0.483-0.902,1.033-1.67,1.791-2.316c0.837-0.693,1.92-1.242,3.201-1.484l0.042-0.07l-9.413-5.545l2.576-4.372"/>
<path fill="#FFFFFF" stroke="#FFFFFF" stroke-width="2" stroke-miterlimit="10" d="M1762.462,165.793"/>
<path fill="none" stroke="#FFFFFF" stroke-width="2" stroke-linecap="square" stroke-linejoin="round" stroke-miterlimit="10" d="
	M1905.272,48.981c15.552,9.584,20.392,29.961,10.808,45.516c-7.271,11.797-20.752,17.429-33.627,15.277"/>
<path fill="none" stroke="#FFFFFF" stroke-width="2" stroke-linecap="square" stroke-linejoin="round" stroke-miterlimit="10" d="
	M1870.564,105.303c-15.553-9.585-20.391-29.963-10.807-45.517c7.602-12.336,21.996-17.931,35.387-14.935"/>
<circle fill="none" stroke="#FFFFFF" stroke-width="2" stroke-linecap="round" stroke-linejoin="bevel" stroke-dasharray="3,12,3,12,3,12" cx="1887.917" cy="77.142" r="28.234"/>
<path fill="none" stroke="#FFFFFF" stroke-width="2" stroke-linecap="square" stroke-linejoin="round" stroke-miterlimit="10" d="
	M1885.424,91.491l-12.544-7.731l1.738-2.821c2.319,0.372,5.6-0.35,7.059-2.717c0.301-0.488,0.521-0.928,0.754-1.458l-3.414-2.104
	l2.21-3.588l2.787,1.718c0.362-0.978,0.88-2.053,1.46-2.995c2.705-4.388,7.691-5.304,12.358-2.429c1.624,1,2.712,2.085,3.315,2.934
	c0.109,0.154,0.203,0.3,0.281,0.436l-2.711,2.816l-0.629,0.654 M1895.195,71.571c-2.287-1.21-3.922-0.108-4.901,1.48
	c-0.56,0.908-0.969,1.808-1.297,2.808l4.772,2.94l-2.212,3.589l-4.319-2.663c-0.502,0.894-1.066,1.65-1.837,2.28
	c-0.851,0.677-1.944,1.204-3.231,1.42l-0.043,0.069l9.301,5.731l-2.662,4.32"/>
<path fill="#FFFFFF" stroke="#FFFFFF" stroke-width="2" stroke-miterlimit="10" d="M1896.281,72.05"/>
<path fill="none" stroke="#FFFFFF" stroke-width="2" stroke-linecap="square" stroke-linejoin="round" stroke-miterlimit="10" d="
	M1841.918,186.494c0.402-18.262,15.533-32.744,33.799-32.344c13.854,0.307,25.531,9.088,30.187,21.281"/>
<path fill="none" stroke="#FFFFFF" stroke-width="2" stroke-linecap="square" stroke-linejoin="round" stroke-miterlimit="10" d="
	M1908.06,187.949c-0.401,18.266-15.534,32.746-33.799,32.346c-14.487-0.32-26.595-9.908-30.781-22.975"/>
<circle fill="none" stroke="#FFFFFF" stroke-width="2" stroke-linecap="round" stroke-linejoin="bevel" stroke-dasharray="3,12,3,12,3,12" cx="1874.989" cy="187.223" r="28.234"/>
<path fill="none" stroke="#FFFFFF" stroke-width="2" stroke-linecap="square" stroke-linejoin="round" stroke-miterlimit="10" d="
	M1888.628,182.115l-0.324,14.732l-3.313-0.072c-0.853-2.189-3.134-4.654-5.914-4.715c-0.573-0.014-1.064,0.02-1.639,0.086
	l-0.088,4.01l-4.214-0.092l0.072-3.273c-1.026,0.182-2.216,0.279-3.321,0.256c-5.153-0.115-8.466-3.953-8.346-9.434
	c0.041-1.906,0.427-3.395,0.854-4.344c0.078-0.172,0.156-0.326,0.234-0.463l3.801,0.914l0.882,0.211 M1866.503,183.762
	c0.113,2.586,1.89,3.439,3.756,3.48c1.066,0.023,2.05-0.078,3.078-0.301l0.122-5.605l4.216,0.094l-0.112,5.072
	c1.024-0.02,1.962,0.086,2.896,0.432c1.016,0.391,2.021,1.068,2.859,2.07h0.083l0.239-10.922l5.073,0.111"/>
<path fill="#FFFFFF" stroke="#FFFFFF" stroke-width="2" stroke-miterlimit="10" d="M1866.366,182.584"/>
<path fill="none" stroke="#FFFFFF" stroke-width="2" stroke-linecap="square" stroke-linejoin="round" stroke-miterlimit="10" d="
	M1744.609,20.307c-11.213-14.422-8.615-35.203,5.807-46.42c10.939-8.506,25.539-9.064,36.847-2.543"/>
<path fill="none" stroke="#FFFFFF" stroke-width="2" stroke-linecap="square" stroke-linejoin="round" stroke-miterlimit="10" d="
	M1796.834-20.307c11.215,14.422,8.614,35.205-5.807,46.42c-11.438,8.896-26.881,9.098-38.376,1.605"/>
<circle fill="none" stroke="#FFFFFF" stroke-width="2" stroke-linecap="round" stroke-linejoin="bevel" stroke-dasharray="3,12,3,12,3,12" cx="1770.722" cy="0" r="28.234"/>
<path fill="none" stroke="#FFFFFF" stroke-width="2" stroke-linecap="square" stroke-linejoin="round" stroke-miterlimit="10" d="
	M1778.079-12.568l9.045,11.631l-2.615,2.035c-2.043-1.16-5.368-1.633-7.563,0.074c-0.452,0.352-0.813,0.688-1.216,1.102l2.461,3.166
	l-3.326,2.588l-2.01-2.584c-0.682,0.789-1.542,1.615-2.415,2.293c-4.069,3.164-9.062,2.277-12.427-2.049
	c-1.171-1.508-1.811-2.902-2.078-3.91c-0.049-0.184-0.086-0.352-0.111-0.506l3.525-1.689l0.817-0.393 M1761.955,2.672
	c1.72,1.934,3.636,1.473,5.109,0.328c0.842-0.654,1.54-1.355,2.198-2.178l-3.442-4.424l3.329-2.588l3.113,4.006
	c0.783-0.66,1.576-1.172,2.52-1.492c1.033-0.338,2.242-0.447,3.523-0.199l0.064-0.051l-6.707-8.623l4.006-3.115"/>
<path fill="#FFFFFF" stroke="#FFFFFF" stroke-width="2" stroke-miterlimit="10" d="M1761.105,1.844"/>
<path fill="none" stroke="#FFFFFF" stroke-width="2" stroke-linecap="square" stroke-linejoin="round" stroke-miterlimit="10" d="
	M1643.804,182.912c15.605-9.498,35.955-4.549,45.456,11.057c7.204,11.838,6.095,26.406-1.673,36.896"/>
<path fill="none" stroke="#FFFFFF" stroke-width="2" stroke-linecap="square" stroke-linejoin="round" stroke-miterlimit="10" d="
	M1678.201,239.424c-15.605,9.5-35.957,4.547-45.456-11.059c-7.534-12.377-5.977-27.742,2.778-38.309"/>
<circle fill="none" stroke="#FFFFFF" stroke-width="2" stroke-linecap="round" stroke-linejoin="bevel" stroke-dasharray="3,12,3,12,3,12" cx="1661.003" cy="211.168" r="28.233"/>
<path fill="none" stroke="#FFFFFF" stroke-width="2" stroke-linecap="square" stroke-linejoin="round" stroke-miterlimit="10" d="
	M1672.651,219.91l-12.587,7.66l-1.722-2.83c1.384-1.896,2.233-5.146,0.788-7.521c-0.299-0.49-0.592-0.887-0.957-1.336l-3.426,2.086
	l-2.191-3.6l2.797-1.701c-0.707-0.768-1.43-1.717-2.005-2.662c-2.679-4.402-1.229-9.262,3.454-12.111
	c1.629-0.992,3.088-1.469,4.119-1.621c0.188-0.027,0.359-0.045,0.516-0.053l1.277,3.695l0.297,0.857 M1659.348,202.154
	c-2.117,1.488-1.879,3.443-0.909,5.039c0.555,0.91,1.17,1.684,1.912,2.432l4.787-2.916l2.192,3.602l-4.334,2.639
	c0.567,0.852,0.983,1.699,1.195,2.672c0.218,1.064,0.188,2.277-0.204,3.523l0.043,0.07l9.332-5.682l2.639,4.336"/>
<path fill="#FFFFFF" stroke="#FFFFFF" stroke-width="2" stroke-miterlimit="10" d="M1660.268,201.404"/>
<path fill="none" stroke="#FFFFFF" stroke-width="2" stroke-linecap="square" stroke-linejoin="round" stroke-miterlimit="10" d="
	M1632.251,80.891c4.969-17.579,23.248-27.803,40.83-22.834c13.334,3.771,22.436,15.199,23.885,28.172"/>
<path fill="none" stroke="#FFFFFF" stroke-width="2" stroke-linecap="square" stroke-linejoin="round" stroke-miterlimit="10" d="
	M1695.914,98.886c-4.97,17.581-23.25,27.803-40.831,22.834c-13.944-3.941-23.26-16.259-24.036-29.959"/>
<circle fill="none" stroke="#FFFFFF" stroke-width="2" stroke-linecap="round" stroke-linejoin="bevel" stroke-dasharray="3,12,3,12,3,12" cx="1664.082" cy="89.889" r="28.234"/>
<path fill="none" stroke="#FFFFFF" stroke-width="2" stroke-linecap="square" stroke-linejoin="round" stroke-miterlimit="10" d="
	M1678.567,88.366l-4.009,14.179l-3.188-0.901c-0.276-2.333-1.866-5.291-4.542-6.047c-0.553-0.156-1.036-0.248-1.609-0.327
	l-1.09,3.859l-4.056-1.146l0.891-3.15c-1.04-0.081-2.216-0.285-3.28-0.586c-4.959-1.403-7.203-5.949-5.713-11.224
	c0.519-1.836,1.265-3.179,1.916-3.991c0.119-0.147,0.233-0.277,0.343-0.39l3.45,1.838l0.801,0.427 M1656.736,84.411
	c-0.539,2.531,0.967,3.802,2.764,4.31c1.025,0.291,2.004,0.438,3.055,0.48l1.523-5.395l4.059,1.147l-1.382,4.883
	c0.997,0.238,1.878,0.575,2.695,1.144c0.885,0.633,1.688,1.542,2.249,2.721l0.08,0.022l2.971-10.513l4.883,1.38"/>
<path fill="#FFFFFF" stroke="#FFFFFF" stroke-width="2" stroke-miterlimit="10" d="M1656.899,83.236"/>
<path fill="none" stroke="#FFFFFF" stroke-width="2" stroke-linecap="square" stroke-linejoin="round" stroke-miterlimit="10" d="
	M1343.783,189.035c-15.739-9.271-20.983-29.549-11.71-45.291c7.033-11.939,20.4-17.838,33.314-15.943"/>
<path fill="none" stroke="#FFFFFF" stroke-width="2" stroke-linecap="square" stroke-linejoin="round" stroke-miterlimit="10" d="
	M1377.364,132.034c15.741,9.273,20.983,29.552,11.711,45.292c-7.355,12.486-21.636,18.365-35.083,15.637"/>
<circle fill="none" stroke="#FFFFFF" stroke-width="2" stroke-linecap="round" stroke-linejoin="bevel" stroke-dasharray="3,12,3,12,3,12" cx="1360.574" cy="160.535" r="28.234"/>
<path fill="none" stroke="#FFFFFF" stroke-width="2" stroke-linecap="square" stroke-linejoin="round" stroke-miterlimit="10" d="
	M1362.781,146.139l12.695,7.48l-1.683,2.855c-2.326-0.326-5.59,0.461-7.002,2.855c-0.291,0.494-0.504,0.939-0.725,1.473l3.455,2.037
	l-2.139,3.631l-2.82-1.662c-0.344,0.984-0.84,2.07-1.4,3.023c-2.617,4.439-7.584,5.455-12.308,2.674
	c-1.644-0.969-2.753-2.031-3.374-2.867c-0.111-0.152-0.209-0.297-0.289-0.432l2.654-2.869l0.615-0.666 M1353.409,166.25
	c2.311,1.164,3.923,0.029,4.871-1.578c0.541-0.92,0.932-1.826,1.24-2.834l-4.83-2.844l2.141-3.633l4.371,2.576
	c0.484-0.902,1.033-1.67,1.791-2.316c0.838-0.693,1.92-1.242,3.202-1.484l0.042-0.07l-9.413-5.545l2.575-4.372"/>
<path fill="#FFFFFF" stroke="#FFFFFF" stroke-width="2" stroke-miterlimit="10" d="M1352.314,165.793"/>
<path fill="none" stroke="#FFFFFF" stroke-width="2" stroke-linecap="square" stroke-linejoin="round" stroke-miterlimit="10" d="
	M1495.124,48.981c15.552,9.584,20.392,29.961,10.807,45.516c-7.271,11.797-20.752,17.429-33.626,15.277"/>
<path fill="none" stroke="#FFFFFF" stroke-width="2" stroke-linecap="square" stroke-linejoin="round" stroke-miterlimit="10" d="
	M1460.416,105.303c-15.554-9.585-20.392-29.963-10.808-45.517c7.603-12.336,21.996-17.931,35.387-14.935"/>
<circle fill="none" stroke="#FFFFFF" stroke-width="2" stroke-linecap="round" stroke-linejoin="bevel" stroke-dasharray="3,12,3,12,3,12" cx="1477.769" cy="77.142" r="28.234"/>
<path fill="none" stroke="#FFFFFF" stroke-width="2" stroke-linecap="square" stroke-linejoin="round" stroke-miterlimit="10" d="
	M1475.277,91.491l-12.545-7.731l1.739-2.821c2.319,0.372,5.599-0.35,7.058-2.717c0.301-0.488,0.522-0.928,0.754-1.458l-3.414-2.104
	l2.211-3.588l2.787,1.718c0.362-0.978,0.879-2.053,1.46-2.995c2.704-4.388,7.69-5.304,12.358-2.429c1.623,1,2.711,2.085,3.315,2.934
	c0.109,0.154,0.203,0.3,0.28,0.436l-2.711,2.816l-0.629,0.654 M1485.046,71.571c-2.287-1.21-3.922-0.108-4.9,1.48
	c-0.561,0.908-0.969,1.808-1.297,2.808l4.771,2.94l-2.211,3.589l-4.32-2.663c-0.502,0.894-1.066,1.65-1.836,2.28
	c-0.852,0.677-1.944,1.204-3.231,1.42l-0.043,0.069l9.301,5.731l-2.663,4.32"/>
<path fill="#FFFFFF" stroke="#FFFFFF" stroke-width="2" stroke-miterlimit="10" d="M1486.132,72.05"/>
<path fill="none" stroke="#FFFFFF" stroke-width="2" stroke-linecap="square" stroke-linejoin="round" stroke-miterlimit="10" d="
	M1431.771,186.494c0.402-18.262,15.533-32.744,33.799-32.344c13.854,0.307,25.531,9.088,30.186,21.281"/>
<path fill="none" stroke="#FFFFFF" stroke-width="2" stroke-linecap="square" stroke-linejoin="round" stroke-miterlimit="10" d="
	M1497.911,187.949c-0.4,18.266-15.533,32.746-33.799,32.346c-14.486-0.32-26.594-9.908-30.781-22.975"/>
<circle fill="none" stroke="#FFFFFF" stroke-width="2" stroke-linecap="round" stroke-linejoin="bevel" stroke-dasharray="3,12,3,12,3,12" cx="1464.841" cy="187.223" r="28.233"/>
<path fill="none" stroke="#FFFFFF" stroke-width="2" stroke-linecap="square" stroke-linejoin="round" stroke-miterlimit="10" d="
	M1478.48,182.115l-0.324,14.732l-3.313-0.072c-0.852-2.189-3.133-4.654-5.914-4.715c-0.572-0.014-1.064,0.02-1.639,0.086
	l-0.088,4.01l-4.213-0.092l0.072-3.273c-1.027,0.182-2.217,0.279-3.322,0.256c-5.152-0.115-8.465-3.953-8.346-9.434
	c0.041-1.906,0.428-3.395,0.854-4.344c0.078-0.172,0.156-0.326,0.234-0.463l3.801,0.914l0.883,0.211 M1456.355,183.762
	c0.113,2.586,1.891,3.439,3.756,3.48c1.066,0.023,2.051-0.078,3.078-0.301l0.123-5.605l4.215,0.094l-0.111,5.072
	c1.023-0.02,1.961,0.086,2.895,0.432c1.016,0.391,2.021,1.068,2.859,2.07h0.084l0.238-10.922l5.074,0.111"/>
<path fill="#FFFFFF" stroke="#FFFFFF" stroke-width="2" stroke-miterlimit="10" d="M1456.218,182.584"/>
<path fill="none" stroke="#FFFFFF" stroke-width="2" stroke-linecap="square" stroke-linejoin="round" stroke-miterlimit="10" d="
	M1334.461,20.307c-11.214-14.422-8.616-35.203,5.806-46.42c10.94-8.506,25.539-9.064,36.848-2.543"/>
<path fill="none" stroke="#FFFFFF" stroke-width="2" stroke-linecap="square" stroke-linejoin="round" stroke-miterlimit="10" d="
	M1386.687-20.307c11.215,14.422,8.614,35.205-5.807,46.42c-11.439,8.896-26.881,9.098-38.377,1.605"/>
<circle fill="none" stroke="#FFFFFF" stroke-width="2" stroke-linecap="round" stroke-linejoin="bevel" stroke-dasharray="3,12,3,12,3,12" cx="1360.574" cy="0" r="28.234"/>
<path fill="none" stroke="#FFFFFF" stroke-width="2" stroke-linecap="square" stroke-linejoin="round" stroke-miterlimit="10" d="
	M1367.931-12.568l9.045,11.631l-2.615,2.035c-2.043-1.16-5.367-1.633-7.563,0.074c-0.453,0.352-0.814,0.688-1.217,1.102l2.462,3.166
	l-3.326,2.588l-2.01-2.584c-0.682,0.789-1.542,1.615-2.415,2.293c-4.07,3.164-9.063,2.277-12.428-2.049
	c-1.17-1.508-1.811-2.902-2.078-3.91c-0.049-0.184-0.086-0.352-0.111-0.506l3.525-1.689l0.818-0.393 M1351.808,2.672
	c1.719,1.934,3.636,1.473,5.109,0.328c0.842-0.654,1.54-1.355,2.197-2.178l-3.441-4.424l3.328-2.588l3.114,4.006
	c0.782-0.66,1.576-1.172,2.519-1.492c1.034-0.338,2.242-0.447,3.523-0.199l0.065-0.051l-6.707-8.623l4.006-3.115"/>
<path fill="#FFFFFF" stroke="#FFFFFF" stroke-width="2" stroke-miterlimit="10" d="M1350.957,1.844"/>
<path fill="none" stroke="#FFFFFF" stroke-width="2" stroke-linecap="square" stroke-linejoin="round" stroke-miterlimit="10" d="
	M1233.656,182.912c15.604-9.498,35.955-4.549,45.456,11.057c7.203,11.838,6.094,26.406-1.674,36.896"/>
<path fill="none" stroke="#FFFFFF" stroke-width="2" stroke-linecap="square" stroke-linejoin="round" stroke-miterlimit="10" d="
	M1268.054,239.424c-15.605,9.5-35.957,4.547-45.456-11.059c-7.534-12.377-5.977-27.742,2.778-38.309"/>
<circle fill="none" stroke="#FFFFFF" stroke-width="2" stroke-linecap="round" stroke-linejoin="bevel" stroke-dasharray="3,12,3,12,3,12" cx="1250.855" cy="211.168" r="28.234"/>
<path fill="none" stroke="#FFFFFF" stroke-width="2" stroke-linecap="square" stroke-linejoin="round" stroke-miterlimit="10" d="
	M1262.503,219.91l-12.587,7.66l-1.722-2.83c1.384-1.896,2.232-5.146,0.787-7.521c-0.299-0.49-0.592-0.887-0.957-1.336l-3.426,2.086
	l-2.191-3.6l2.797-1.701c-0.706-0.768-1.43-1.717-2.004-2.662c-2.679-4.402-1.229-9.262,3.453-12.111
	c1.629-0.992,3.089-1.469,4.12-1.621c0.187-0.027,0.359-0.045,0.516-0.053l1.276,3.695l0.297,0.857 M1249.2,202.154
	c-2.117,1.488-1.879,3.443-0.909,5.039c0.554,0.91,1.17,1.684,1.911,2.432l4.787-2.916l2.193,3.602l-4.334,2.639
	c0.566,0.852,0.983,1.699,1.195,2.672c0.217,1.064,0.188,2.277-0.204,3.523l0.043,0.07l9.331-5.682l2.639,4.336"/>
<path fill="#FFFFFF" stroke="#FFFFFF" stroke-width="2" stroke-miterlimit="10" d="M1250.12,201.404"/>
<path fill="none" stroke="#FFFFFF" stroke-width="2" stroke-linecap="square" stroke-linejoin="round" stroke-miterlimit="10" d="
	M1222.103,80.891c4.97-17.579,23.248-27.803,40.83-22.834c13.335,3.771,22.437,15.199,23.885,28.172"/>
<path fill="none" stroke="#FFFFFF" stroke-width="2" stroke-linecap="square" stroke-linejoin="round" stroke-miterlimit="10" d="
	M1285.767,98.886c-4.971,17.581-23.25,27.803-40.832,22.834c-13.943-3.941-23.259-16.259-24.035-29.959"/>
<circle fill="none" stroke="#FFFFFF" stroke-width="2" stroke-linecap="round" stroke-linejoin="bevel" stroke-dasharray="3,12,3,12,3,12" cx="1253.934" cy="89.889" r="28.234"/>
<path fill="none" stroke="#FFFFFF" stroke-width="2" stroke-linecap="square" stroke-linejoin="round" stroke-miterlimit="10" d="
	M1268.419,88.366l-4.009,14.179l-3.188-0.901c-0.276-2.333-1.867-5.291-4.543-6.047c-0.552-0.156-1.035-0.248-1.608-0.327
	l-1.091,3.859l-4.055-1.146l0.891-3.15c-1.041-0.081-2.217-0.285-3.28-0.586c-4.96-1.403-7.204-5.949-5.714-11.224
	c0.52-1.836,1.266-3.179,1.917-3.991c0.118-0.147,0.233-0.277,0.343-0.39l3.449,1.838l0.801,0.427 M1246.587,84.411
	c-0.539,2.531,0.968,3.802,2.764,4.31c1.026,0.291,2.004,0.438,3.056,0.48l1.523-5.395l4.058,1.147l-1.381,4.883
	c0.996,0.238,1.877,0.575,2.695,1.144c0.885,0.633,1.688,1.542,2.248,2.721l0.08,0.022l2.971-10.513l4.883,1.38"/>
<path fill="#FFFFFF" stroke="#FFFFFF" stroke-width="2" stroke-miterlimit="10" d="M1246.751,83.236"/>
<path fill="none" stroke="#FFFFFF" stroke-width="2" stroke-linecap="square" stroke-linejoin="round" stroke-miterlimit="10" d="
	M1562.497,209.34c18.113-2.367,34.719,10.395,37.09,28.51c1.795,13.742-5.115,26.613-16.465,33.063"/>
<path fill="none" stroke="#FFFFFF" stroke-width="2" stroke-linecap="square" stroke-linejoin="round" stroke-miterlimit="10" d="
	M1571.075,274.939c-18.115,2.369-34.721-10.396-37.09-28.512c-1.879-14.367,5.766-27.787,18.047-33.904"/>
<circle fill="none" stroke="#FFFFFF" stroke-width="2" stroke-linecap="round" stroke-linejoin="bevel" stroke-dasharray="3,12,3,12,3,12" cx="1566.785" cy="242.14" r="28.233"/>
<path fill="none" stroke="#FFFFFF" stroke-width="2" stroke-linecap="square" stroke-linejoin="round" stroke-miterlimit="10" d="
	M1573.9,254.848l-14.611,1.912l-0.43-3.287c2.035-1.174,4.125-3.803,3.766-6.559c-0.074-0.568-0.182-1.051-0.334-1.607l-3.977,0.52
	l-0.547-4.178l3.244-0.426c-0.334-0.986-0.611-2.146-0.754-3.244c-0.668-5.111,2.625-8.967,8.061-9.678
	c1.891-0.246,3.418-0.092,4.424,0.188c0.182,0.051,0.346,0.104,0.492,0.16l-0.328,3.896l-0.076,0.902 M1568.921,233.227
	c-2.537,0.504-3.111,2.391-2.871,4.24c0.139,1.059,0.389,2.016,0.766,2.998l5.557-0.729l0.547,4.182l-5.031,0.656
	c0.174,1.01,0.213,1.953,0.012,2.928c-0.232,1.063-0.75,2.16-1.611,3.141l0.01,0.082l10.832-1.418l0.658,5.031"/>
<path fill="#FFFFFF" stroke="#FFFFFF" stroke-width="2" stroke-miterlimit="10" d="M1570.066,232.914"/>
<path fill="none" stroke="#FFFFFF" stroke-width="2" stroke-linecap="square" stroke-linejoin="round" stroke-miterlimit="10" d="
	M1576.894,5.632c18.113-2.368,34.721,10.395,37.09,28.51c1.797,13.741-5.115,26.613-16.465,33.063"/>
<path fill="none" stroke="#FFFFFF" stroke-width="2" stroke-linecap="square" stroke-linejoin="round" stroke-miterlimit="10" d="
	M1585.474,71.232c-18.117,2.368-34.721-10.396-37.092-28.512c-1.879-14.368,5.766-27.787,18.049-33.905"/>
<circle fill="none" stroke="#FFFFFF" stroke-width="2" stroke-linecap="round" stroke-linejoin="bevel" stroke-dasharray="3,12,3,12,3,12" cx="1581.184" cy="38.432" r="28.234"/>
<path fill="none" stroke="#FFFFFF" stroke-width="2" stroke-linecap="square" stroke-linejoin="round" stroke-miterlimit="10" d="
	M1588.296,51.14l-14.609,1.911l-0.43-3.286c2.033-1.174,4.125-3.803,3.764-6.56c-0.074-0.568-0.18-1.05-0.334-1.607l-3.977,0.521
	l-0.547-4.178l3.246-0.426c-0.336-0.986-0.611-2.147-0.756-3.244c-0.666-5.111,2.625-8.967,8.061-9.678
	c1.893-0.247,3.42-0.092,4.424,0.187c0.182,0.051,0.346,0.104,0.492,0.161l-0.328,3.896l-0.076,0.903 M1583.318,29.519
	c-2.537,0.504-3.111,2.39-2.869,4.24c0.139,1.058,0.389,2.015,0.764,2.997l5.559-0.728l0.547,4.181l-5.033,0.657
	c0.174,1.01,0.213,1.952,0.014,2.928c-0.232,1.063-0.75,2.16-1.613,3.14l0.012,0.082l10.832-1.418l0.658,5.032"/>
<path fill="#FFFFFF" stroke="#FFFFFF" stroke-width="2" stroke-miterlimit="10" d="M1584.462,29.206"/>
<path fill="none" stroke="#FFFFFF" stroke-width="2" stroke-linecap="square" stroke-linejoin="round" stroke-miterlimit="10" d="
	M1076.909,29.252c15.553,9.584,20.393,29.961,10.807,45.516c-7.27,11.797-20.751,17.429-33.625,15.277"/>
<path fill="none" stroke="#FFFFFF" stroke-width="2" stroke-linecap="square" stroke-linejoin="round" stroke-miterlimit="10" d="
	M1042.202,85.574c-15.555-9.585-20.393-29.963-10.809-45.517c7.604-12.336,21.997-17.931,35.388-14.935"/>
<circle fill="none" stroke="#FFFFFF" stroke-width="2" stroke-linecap="round" stroke-linejoin="bevel" stroke-dasharray="3,12,3,12,3,12" cx="1059.555" cy="57.413" r="28.234"/>
<path fill="none" stroke="#FFFFFF" stroke-width="2" stroke-linecap="square" stroke-linejoin="round" stroke-miterlimit="10" d="
	M1057.062,71.762l-12.544-7.731l1.739-2.821c2.318,0.372,5.598-0.35,7.057-2.717c0.301-0.488,0.523-0.928,0.754-1.458l-3.414-2.104
	l2.211-3.588l2.787,1.718c0.363-0.978,0.88-2.053,1.461-2.995c2.703-4.388,7.689-5.304,12.357-2.429
	c1.623,1,2.712,2.085,3.316,2.934c0.109,0.154,0.203,0.3,0.279,0.436l-2.71,2.816l-0.629,0.654 M1066.832,51.842
	c-2.287-1.21-3.922-0.108-4.901,1.48c-0.56,0.908-0.969,1.808-1.297,2.808l4.771,2.94l-2.211,3.589l-4.32-2.663
	c-0.501,0.894-1.065,1.65-1.836,2.28c-0.852,0.677-1.943,1.204-3.23,1.42l-0.043,0.069l9.301,5.731l-2.663,4.32"/>
<path fill="#FFFFFF" stroke="#FFFFFF" stroke-width="2" stroke-miterlimit="10" d="M1067.918,52.321"/>
<path fill="none" stroke="#FFFFFF" stroke-width="2" stroke-linecap="square" stroke-linejoin="round" stroke-miterlimit="10" d="
	M1013.556,202.494c0.402-18.262,15.533-32.744,33.799-32.344c13.854,0.307,25.531,9.088,30.187,21.281"/>
<path fill="none" stroke="#FFFFFF" stroke-width="2" stroke-linecap="square" stroke-linejoin="round" stroke-miterlimit="10" d="
	M1079.698,203.949c-0.401,18.266-15.534,32.746-33.799,32.346c-14.487-0.32-26.595-9.908-30.782-22.975"/>
<circle fill="none" stroke="#FFFFFF" stroke-width="2" stroke-linecap="round" stroke-linejoin="bevel" stroke-dasharray="3,12,3,12,3,12" cx="1046.627" cy="203.223" r="28.234"/>
<path fill="none" stroke="#FFFFFF" stroke-width="2" stroke-linecap="square" stroke-linejoin="round" stroke-miterlimit="10" d="
	M1060.266,198.115l-0.324,14.732l-3.313-0.072c-0.853-2.189-3.134-4.654-5.914-4.715c-0.573-0.014-1.064,0.02-1.639,0.086
	l-0.088,4.01l-4.214-0.092l0.072-3.273c-1.026,0.182-2.216,0.279-3.321,0.256c-5.153-0.115-8.466-3.953-8.346-9.434
	c0.041-1.906,0.427-3.395,0.854-4.344c0.078-0.172,0.156-0.326,0.234-0.463l3.801,0.914l0.882,0.211 M1038.141,199.762
	c0.113,2.586,1.89,3.439,3.756,3.48c1.066,0.023,2.05-0.078,3.078-0.301l0.122-5.605l4.216,0.094l-0.112,5.072
	c1.024-0.02,1.962,0.086,2.896,0.432c1.016,0.391,2.021,1.068,2.859,2.07h0.083l0.239-10.922l5.073,0.111"/>
<path fill="#FFFFFF" stroke="#FFFFFF" stroke-width="2" stroke-miterlimit="10" d="M1038.004,198.584"/>
<path fill="none" stroke="#FFFFFF" stroke-width="2" stroke-linecap="square" stroke-linejoin="round" stroke-miterlimit="10" d="
	M1144.282,209.34c18.113-2.367,34.72,10.395,37.09,28.51c1.796,13.742-5.115,26.613-16.465,33.063"/>
<path fill="none" stroke="#FFFFFF" stroke-width="2" stroke-linecap="square" stroke-linejoin="round" stroke-miterlimit="10" d="
	M1152.862,274.939c-18.116,2.369-34.721-10.396-37.091-28.512c-1.879-14.367,5.766-27.787,18.048-33.904"/>
<circle fill="none" stroke="#FFFFFF" stroke-width="2" stroke-linecap="round" stroke-linejoin="bevel" stroke-dasharray="3,12,3,12,3,12" cx="1148.572" cy="242.14" r="28.233"/>
<path fill="none" stroke="#FFFFFF" stroke-width="2" stroke-linecap="square" stroke-linejoin="round" stroke-miterlimit="10" d="
	M1155.685,254.848l-14.61,1.912l-0.43-3.287c2.034-1.174,4.125-3.803,3.765-6.559c-0.074-0.568-0.181-1.051-0.334-1.607l-3.977,0.52
	l-0.547-4.178l3.245-0.426c-0.335-0.986-0.611-2.146-0.755-3.244c-0.667-5.111,2.625-8.967,8.061-9.678
	c1.892-0.246,3.419-0.092,4.424,0.188c0.182,0.051,0.346,0.104,0.492,0.16l-0.328,3.896l-0.076,0.902 M1150.706,233.227
	c-2.537,0.504-3.111,2.391-2.87,4.24c0.139,1.059,0.389,2.016,0.765,2.998l5.558-0.729l0.547,4.182l-5.032,0.656
	c0.174,1.01,0.213,1.953,0.013,2.928c-0.232,1.063-0.75,2.16-1.612,3.141l0.011,0.082l10.832-1.418l0.658,5.031"/>
<path fill="#FFFFFF" stroke="#FFFFFF" stroke-width="2" stroke-miterlimit="10" d="M1151.851,232.914"/>
<path fill="none" stroke="#FFFFFF" stroke-width="2" stroke-linecap="square" stroke-linejoin="round" stroke-miterlimit="10" d="
	M1158.68,5.632c18.113-2.368,34.72,10.395,37.09,28.51c1.796,13.741-5.115,26.613-16.465,33.063"/>
<path fill="none" stroke="#FFFFFF" stroke-width="2" stroke-linecap="square" stroke-linejoin="round" stroke-miterlimit="10" d="
	M1167.259,71.232c-18.116,2.368-34.721-10.396-37.091-28.512c-1.879-14.368,5.766-27.787,18.048-33.905"/>
<circle fill="none" stroke="#FFFFFF" stroke-width="2" stroke-linecap="round" stroke-linejoin="bevel" stroke-dasharray="3,12,3,12,3,12" cx="1162.969" cy="38.432" r="28.234"/>
<path fill="none" stroke="#FFFFFF" stroke-width="2" stroke-linecap="square" stroke-linejoin="round" stroke-miterlimit="10" d="
	M1170.082,51.14l-14.61,1.911l-0.43-3.286c2.034-1.174,4.125-3.803,3.765-6.56c-0.074-0.568-0.181-1.05-0.334-1.607l-3.977,0.521
	l-0.547-4.178l3.245-0.426c-0.335-0.986-0.611-2.147-0.755-3.244c-0.667-5.111,2.625-8.967,8.061-9.678
	c1.892-0.247,3.419-0.092,4.424,0.187c0.182,0.051,0.346,0.104,0.492,0.161l-0.328,3.896l-0.076,0.903 M1165.104,29.519
	c-2.537,0.504-3.111,2.39-2.87,4.24c0.139,1.058,0.389,2.015,0.765,2.997l5.558-0.728l0.547,4.181l-5.032,0.657
	c0.174,1.01,0.213,1.952,0.013,2.928c-0.232,1.063-0.75,2.16-1.612,3.14l0.011,0.082l10.832-1.418l0.658,5.032"/>
<path fill="#FFFFFF" stroke="#FFFFFF" stroke-width="2" stroke-miterlimit="10" d="M1166.248,29.206"/>
</svg>
