<svg id="svg2" xmlns="http://www.w3.org/2000/svg" width="276.78" height="160.38" viewBox="0 0 276.78 160.38"><defs><style>.cls-1{fill:none;stroke:#003e74;stroke-miterlimit:10;stroke-width:3.99px;}</style></defs><title>foreign_office</title><g id="g3467"><g id="g126"><g id="g132"><path id="path134" d="M25.49,25.24h0"/></g><g id="g136"><path id="path138" d="M63.35,27.39a8.83,8.83,0,0,0-1.49-3.83.48.48,0,0,0,.22-.35.48.48,0,0,0-.39.11l-.16-.21A7.13,7.13,0,0,0,58,20.65a.28.28,0,0,0-.32-.26.21.21,0,0,0-.14.16l-.06,0a.6.6,0,0,0-.3-.13.54.54,0,0,0,.09.35v0a.2.2,0,0,0-.19.1.27.27,0,0,0,.19.36V24a.59.59,0,0,0-.34.16.52.52,0,0,0,.34.15v3a.26.26,0,0,0-.2.33.21.21,0,0,0,.2.12v.07a.49.49,0,0,0-.08.28.54.54,0,0,0,.27-.07h.08a.21.21,0,0,0,.13.19.27.27,0,0,0,.33-.19h2a.58.58,0,0,0,.16.35.53.53,0,0,0,.16-.35h2.31a.27.27,0,0,0,.34.22.23.23,0,0,0,.12-.22h0a.63.63,0,0,0,.31.09.66.66,0,0,0-.08-.28s0-.05,0-.07a.23.23,0,0,0,.2-.13.28.28,0,0,0-.25-.34m-2-4.17a8.74,8.74,0,0,1,1.83,4.71H57.49V20.72a6.63,6.63,0,0,1,3.89,2.5"/></g><g id="g140"><path id="path142" d="M63.08,27.71a8.76,8.76,0,0,0-1.79-4.42,7.49,7.49,0,0,0-1.65-1.54,6.1,6.1,0,0,0-1.92-.86l-.12,0v6.94h5.49Zm-2-4.4a.22.22,0,0,0,0,.19.24.24,0,0,0,.23.15.53.53,0,0,0-.18.33.55.55,0,0,0,.37-.08.24.24,0,0,0,.08.27.21.21,0,0,0,.16,0,8.4,8.4,0,0,1,1.16,3.19.5.5,0,0,0-.26-.06.51.51,0,0,0,.11.3H60.76a.21.21,0,0,0-.14-.2.22.22,0,0,0-.26.09.53.53,0,0,0-.16-.34.52.52,0,0,0-.15.34.23.23,0,0,0-.27-.09.2.2,0,0,0-.13.2H58a.59.59,0,0,0,.09-.29.51.51,0,0,0-.3.09V24.75a.25.25,0,0,0,.23-.13.24.24,0,0,0-.1-.27.52.52,0,0,0,.35-.15.48.48,0,0,0-.35-.15c.11-.1.13-.19.1-.27a.26.26,0,0,0-.23-.14V21.37a.52.52,0,0,0,.25.1.56.56,0,0,0-.06-.3,6.49,6.49,0,0,1,3.08,2.14"/></g><g id="g144"><path id="path146" d="M62,26.61h0a.44.44,0,0,0,.23-.21.27.27,0,0,1-.24,0c.09-.05.19,0,.09-.15s-.16-.16-.26-.05a.6.6,0,0,1-.76-.52h0a.52.52,0,0,0,.21.18c.32.19.63.07.66-.19s-.24-.4-.52-.63l-.29-.27c-.09-.19,0-.36-.26-.71a1.09,1.09,0,0,0-.08-.31.9.9,0,0,0,.16,1.05c.27.3.86.59.83.85a.15.15,0,0,1-.16.13.65.65,0,0,1-.39-.19l-.06,0h0a5.76,5.76,0,0,1-.61-.75,1.13,1.13,0,0,1-.11-1c.2-.27-.11-.81-.3-.94a.5.5,0,0,0,0-.28s-.12,0-.17,0-.07-.12-.13-.13a.13.13,0,0,1-.13-.13c-.07.06-.09.12-.16.12s-.14,0-.18,0a.24.24,0,0,1-.2.08c-.11,0-.11.06-.1.14a.16.16,0,0,0,.08.16h0l.08.1.07-.1h0c0-.05.19-.06.22,0s0,.09-.06.1a1,1,0,0,1-.24,0c-.06,0-.06.09-.06.14s.08.1.21.06.36,0,.36.06c0,.29-.35.27-.42.62a.59.59,0,0,1-.2-.18.83.83,0,0,0-.25-.31,1,1,0,0,0-.25-.21.22.22,0,0,1-.12-.24c0-.1.05-.2,0-.3a.51.51,0,0,0,0-.09.17.17,0,0,0-.16-.1.12.12,0,0,1,.06.1l0,.06s0,.07,0,.1,0,0,0,0,0,0,0,.05,0,0,0,0-.06-.18-.13-.18h0c0-.08-.09-.14-.18-.05s.06,0,.07,0a.28.28,0,0,0,0,.08c0,.08,0,.11.13.11h0v0s0,0,0,0-.19,0-.19.07v.05s-.06.1,0,.16,0-.07,0-.08h0a.07.07,0,0,0,0,0s0,0,.08,0h0l0,0a0,0,0,0,1,0,0c-.09.08-.08.17,0,.19-.05.1-.21,0-.21-.09-.11.18.08.32.24.26,0,.06,0,.19,0,.19s0,0,0,0,0,0,0,0a.1.1,0,0,0,.09.11s0-.06,0-.06l.08.13a1.33,1.33,0,0,0,.58.64,1.54,1.54,0,0,0-.41.39c-.1.1-.24.2-.33.15s0-.07-.11-.1-.08-.05-.11,0a.12.12,0,0,0-.06,0,.15.15,0,0,0-.18.06.13.13,0,0,1,.12,0V25s0,.08.21.07c0,0,0,0,0,0s0,0-.1,0-.12-.08-.17,0l0,0h0c-.07,0-.14.15-.06.22a.15.15,0,0,1,.06-.12s0,0,0,.05.12.12.24-.06c0,0,0,0,0,0s-.09.2,0,.22h.05v0a.16.16,0,0,0,.2.1.22.22,0,0,1-.11-.12h.05c.07-.06,0-.15,0-.19s0,0,0,0a.13.13,0,0,0,.17.06.16.16,0,0,0,.08-.12c.12,0,.23-.09.32,0s.05-.16.19-.19a.21.21,0,0,1,.23,0,.61.61,0,0,1,.13-.23c0,.52.68.51.84.81a1.31,1.31,0,0,0-.57-.1c-.17,0-.47.19-.5.39a.68.68,0,0,0,.3.55c-.21,0-.27,0-.46,0h0c-.16,0-.18-.26-.37-.19a.09.09,0,0,0-.05,0c-.07,0-.18.08-.16.16a.22.22,0,0,1,.12-.07v.05s0,.05.07.05.05,0,.07,0,0,0,0,0-.23-.05-.19.16a.14.14,0,0,0,0,0c0,.06,0,.12.14.09s-.06,0,0-.08h0s0,0,0,0a0,0,0,0,1,0,0l0,0s0,0,0,0l0,.07c0,.07.1.14.21.07s-.1,0-.11,0l0,0a.08.08,0,0,0,0-.07s0,0,0,0h.05s0,0,0,0a.14.14,0,0,0,.15.06s0,0,.06,0l.09,0c0-.07,0-.14.19,0l.12-.09s.15.07.21,0,0-.1,0-.18-.11-.14-.14-.29.3-.4.51-.36a1.2,1.2,0,0,0,.66.72c.24.08.34-.18.41-.14a.15.15,0,0,1,0,.06c0,.12,0,.23,0,.29s-.16,0-.24,0a.15.15,0,0,0-.1,0c-.07,0-.15.08-.15.16a.23.23,0,0,1,.13-.06.1.1,0,0,0,0,0,.11.11,0,0,0,.19.07s0,0,0,0-.16.14-.08.18l.06,0a.13.13,0,0,0,.09.14s0-.05,0-.12h.05c.06,0,0-.13.11-.17s0,0,0,0,0,.16,0,.18h0a.12.12,0,0,0,.18.05s-.07,0-.08-.05,0-.06,0-.07-.09-.16-.09-.22.15,0,.15-.18v0c.08,0,.15-.09.15-.15a.69.69,0,0,1-.2,0"/></g><g id="g148"><path id="path150" d="M59.32,22.85h0"/></g><g id="g152"><path id="path154" d="M55.5,30.6h-.14v-.13a.75.75,0,0,0-.79-.84,12.63,12.63,0,0,1-2.59.6,3.53,3.53,0,0,1-1.55-.48l-.16.37v0a.3.3,0,0,0-.3-.31.31.31,0,1,0,.24.49l-.16.38.16.07a5,5,0,0,0,3.63,5c.37-.1.78,0,.78.37a.31.31,0,0,1-.34.35c-.15,0-.24-.08-.24-.18s.29-.07.32-.19-.06-.21-.23-.21a.41.41,0,0,0-.43.4.53.53,0,0,0,.56.53A.71.71,0,0,0,55,36c.13,0,.28,0,.31-.14l0-.39h-.13l.1-4.32h.09c.16,0,.3-.06.31-.23a.25.25,0,0,0-.26-.27m-4.45.34,3,4.3a4.23,4.23,0,0,1-3-4.3m3.08,3.89-2.72-3.92h.24a3,3,0,0,0,.43,0L54.26,34c0,.3-.09.58-.13.81m-1.72-4a5.43,5.43,0,0,0,.61-.18l1.45,2.07c0,.29-.09.59-.14.88Zm2.38-.28h-.1c-.14,0-.3.05-.31.22s.11.27.27.28h.08l-.19,1.23-1.22-1.74a5.81,5.81,0,0,1,1.28-.48c.19,0,.24.1.19.49"/></g><g id="g156"><path id="path158" d="M54.51,21.4h0"/></g><g id="g160"><path id="path162" d="M55.15,22.63c.61,0,.91-.19.91-.39,0-.67-1.67-.25-1.67-.66a.24.24,0,0,1,.12-.18h0c.84-.06.88-.66,1.48-.78-.73-.1-.83.47-1.14.49a.38.38,0,0,0,.22-.35c-.15.2-.48.22-.66.45a.17.17,0,0,0,0,.12.29.29,0,0,0-.17.24c0,.64,1.69.2,1.69.66,0,.16-.3.27-.76.27s-.6-.25-1.25-.08c0-.11.22-.31.14-.41a.16.16,0,0,0,.1-.13.27.27,0,0,0-.12-.06s0-.06,0-.09,0-.07,0-.09a.73.73,0,0,0-.14-.1l-.16,0s-.08,0-.09,0-.08,0-.09,0a.33.33,0,0,0-.12-.05.27.27,0,0,0,0,.18c-.06,0-.13.16-.18.15s0,.06.06.06-.07.2-.13.21l0,0a1.92,1.92,0,0,0-.08.39h0a.47.47,0,0,0-.13-.11c-.09-.05-.09-.1-.08-.2A2.25,2.25,0,0,0,52.9,22a.25.25,0,0,0,0-.07.11.11,0,0,0-.12-.09.11.11,0,0,1,0,.09l0,0a.07.07,0,0,0,0,.09s0,0,0,0,0,0,0,0,0,0,0,0,0-.14-.08-.15h0c0-.06-.06-.11-.15,0s.05,0,.06,0a.33.33,0,0,0,0,.06c0,.06,0,.09.11.09h0a0,0,0,0,0,0,0s0,0,0,0-.17,0-.18.05a.2.2,0,0,0,0,.05s-.06.08,0,.13,0-.06,0-.07h0a.07.07,0,0,0,0,0s0,0,.08,0h0a.05.05,0,0,0,0,0s0,0,0,0-.1.14,0,.16,0,0,0,0-.22.11-.19,0c-.14.15,0,.27.2.19s0,0,0,0,0,0,0,0a0,0,0,0,1,0,0h0s0,.08.06.09,0-.05,0-.05.06.11.15.2a2.75,2.75,0,0,1-.37.12.77.77,0,0,0-.3,0c-.09.05-.33.14-.4,0s0-.07,0-.12,0-.06-.08-.06h-.05a.12.12,0,0,0-.16,0,.09.09,0,0,1,.09.05s0,.05,0,.05,0,.08.14.13,0,0,0,0a.11.11,0,0,1-.09,0s-.06-.11-.13-.06l-.05,0h0c-.06,0-.16.08-.11.15s0-.05.07-.06l0,0c0,.08,0,.14.2,0s0,0,0,0-.14.13-.06.18l0,0s0,0,0,0a.15.15,0,0,0,.13.15.23.23,0,0,1-.05-.14l.05,0c.07,0,0-.12.08-.16s0,0,0,0,0,.12.11.11a.12.12,0,0,0,.12-.13s0,0,0,0a.1.1,0,0,1,0,.1.19.19,0,0,0,.07-.06.13.13,0,0,1,0,.15.19.19,0,0,0,.14-.15.1.1,0,0,1,0,.05h0a.34.34,0,0,0,.18,0s0,0,0,0a.09.09,0,0,0,0,.09s0-.05,0-.05,0,.09,0,.14c0-.23.14-.14.28-.23s0,0,0,0a.13.13,0,0,1-.06.07c.06,0,.18-.05.18-.13s0-.05.09-.07a.17.17,0,0,0,.16-.07s0,.08,0,.1c.15,0,.3-.16.36-.17.32-.07-.19-.3.46-.26a.31.31,0,0,0,.18-.07c0,.1-.05.29,0,.31a.61.61,0,0,1,.17.07s0,0,0,0a.35.35,0,0,0-.13,0c-.16.1-.16-.23-.32-.16l-.05,0c-.06,0-.15.07-.13.14a.16.16,0,0,1,.1-.06v0s0,.06.06.06l.06,0a0,0,0,0,1,0,0c0,.07-.2,0-.16.13s0,0,0,.06,0,.1.13.07,0,0,0-.06h0l0,0h0s0,0,0,0a.43.43,0,0,1,0,.05.1.1,0,0,0,.17.07s-.08,0-.08-.05l0,0a.08.08,0,0,0,0-.06h.06s0,0,0,0a.11.11,0,0,0,.13.05c.1,0,0-.14.1-.15a.06.06,0,0,1,.06,0c.09,0,.21,0,.24,0a.22.22,0,0,0-.09-.24s0-.09,0-.17a.94.94,0,0,0,.32.08c.23,0,0,0,.11-.1a.37.37,0,0,1,.28,0,0,0,0,0,1,.05.06c0,.12,0,.13,0,.18s-.12,0-.19,0-.07,0-.07,0a.14.14,0,0,0-.12.13.14.14,0,0,1,.1,0s0,0,0,0a.09.09,0,0,0,.15.06s0,0,0,0-.13.11-.06.14l.05,0a.1.1,0,0,0,.07.11.11.11,0,0,1,0-.11h0s0-.1.08-.14h0c0,.06,0,.13,0,.15h0c0,.05.07.08.14.05a.15.15,0,0,1-.06-.05.33.33,0,0,0,0-.06c0-.12-.06-.12-.06-.17s.12,0,.12-.15a.11.11,0,0,0-.06-.08h0s.07,0,.09,0-.06-.07-.08-.12,0,0,0,0a.12.12,0,0,0,0-.13s-.13.09-.14,0,0-.06-.1-.05-.23-.07-.53-.09c0,0,0,0,0,0m-1.54-.85s-.08.08-.12,0,0-.05-.05-.14a.53.53,0,0,0,.17.1m.11.31s0-.05,0-.05,0,0,0,.06-.07,0-.09,0,0,0,0,.08,0,0,0,.08-.06.09-.11.06a.1.1,0,0,1,0-.13s0-.07,0-.07.06,0,.07,0,0-.06,0-.09,0,0,0,0-.06,0-.07,0,0,0,0,0,0,0,.05,0l.16.07s0,0,0,.05,0,0,0,.05M53.8,22s-.08-.07-.07-.12a1.11,1.11,0,0,0,.2.07c-.09,0-.07,0-.13,0"/></g><g id="g164"><path id="path166" d="M51.51,24.64a1.44,1.44,0,0,0-.25-.22c-.11-.06-.11-.12-.1-.23s.05-.18.05-.28a.51.51,0,0,0,0-.09.12.12,0,0,0-.14-.09.11.11,0,0,1,.05.09s0,.05-.05.05a.08.08,0,0,0,0,.1v0s0,0,0,.05,0,0,0,0,0-.17-.11-.17,0,0,0,0v0c0-.07-.07-.13-.16,0s.06,0,.07,0a.41.41,0,0,0,0,.07c0,.08,0,.1.12.1a0,0,0,0,1,0,0v0s0,0,0,0-.18,0-.19.06v.05c-.05,0-.06.1,0,.15a.08.08,0,0,1,0-.08h0l0,0a.13.13,0,0,0,.07,0h0l0,0s0,0,0,0-.08.17,0,.19a0,0,0,0,1,0,0,.11.11,0,1,1-.21,0c-.12.18.07.32.23.23h0a.05.05,0,0,0,.05.05s0,0,0,0,0,0,0,0,0,.09.07.1,0-.07,0-.07.1.13.23.2.17.16.25.09c0,.11.09.23.06.23a1.34,1.34,0,0,0-.39,0c-.11.06-.37.16-.45.05s0-.08,0-.13a.13.13,0,0,0-.08-.07h-.06a.15.15,0,0,0-.18,0,.14.14,0,0,1,.1.06.11.11,0,0,0,0,.06s0,.09.16.15a0,0,0,0,1,0,0,.08.08,0,0,1-.09,0c-.06-.05-.07-.13-.15-.08l0,0h0c-.08,0-.19.08-.14.17a.15.15,0,0,1,.09-.08s0,.05,0,.06,0,.14.22,0c0,0,0,0,0,0s-.15.14-.06.2l0,0h0a.16.16,0,0,0,.14.17.21.21,0,0,1,0-.15l0,0c.08,0,0-.14.09-.17s0,0,0,0,0,.14.13.13.14-.09.12-.14h0a.11.11,0,0,1,.05.11l.07-.07a.14.14,0,0,1,0,.17.24.24,0,0,0,.15-.17.21.21,0,0,1,0,.06h0a.31.31,0,0,0,.19,0s0,0,0,0,0,.08,0,.1,0-.06,0-.06,0,.1,0,.16c0-.25.16-.15.32-.25s0,0,0,0a.13.13,0,0,1-.07.08c.17,0,.44-.22.48-.33l.17,0c.49,0,.15-.44.95-.31a.31.31,0,0,0,.19-.08c-.06.1-.06.31,0,.34a.62.62,0,0,1,.19.07s0,0,0,0l-.15,0c-.17.11-.17-.25-.35-.18l0,0c-.07,0-.17.09-.16.16l.12-.07v0s0,.06.07.06l.07,0s0,0,0,0-.23,0-.19.14l0,.06c0,.06,0,.11.14.08s-.06,0-.05-.06h0s0,0,0,0,0,0,0,0,0,0,0,0,0,0,0,0,0,.05,0,.05.09.15.19.08-.09,0-.1-.05l0,0a.12.12,0,0,0,0-.07,0,0,0,0,1,0,0h.08a.11.11,0,0,0,.14.06c.12,0,0-.15.11-.17h.07c.1,0,.24,0,.26,0a.24.24,0,0,0-.09-.28c-.06,0,0-.1,0-.18a1,1,0,0,0,.36.08.61.61,0,0,0,.44-.11.44.44,0,0,1,.31,0s.06,0,0,.06,0,.15,0,.22-.14,0-.21,0a.12.12,0,0,0-.08,0,.18.18,0,0,0-.14.15.27.27,0,0,1,.12-.07v0a.1.1,0,0,0,.17.06s0,0,0,0-.15.13-.07.16l.05,0a.11.11,0,0,0,.08.12s0,0,0-.12h0c.05,0,0-.11.09-.15s0,0,0,0,0,.15,0,.17h0a.1.1,0,0,0,.15.05.13.13,0,0,1-.06-.05l0-.07c0-.13-.08-.13-.08-.19s.13,0,.13-.17a.09.09,0,0,0-.05-.08,0,0,0,0,1,0,0h0s.08,0,.09-.05-.07-.07-.08-.13,0,0,0,0a.14.14,0,0,0,.05-.15s-.15.11-.16,0,0-.08-.11-.06a3,3,0,0,1-.61,0c.37,0,.91-.1.91-.31s-.19-.28-.75-.28-1.84.21-1.84-.11c0-.16.25-.14.55-.12a.22.22,0,0,0,.12.06c.73.21,1.58-.17,2,0-.52-.4-.95,0-1.5-.11.32,0,.43-.09.45-.18-.25.16-.72-.08-1,.1l0,0c-.4,0-.72,0-.72.26,0,.56,1.51.23,2,.23s.58.05.58.14-.48.17-.74.17a11.92,11.92,0,0,0-2.4-.07c.07-.12.2-.28.12-.37a.17.17,0,0,0,.12-.14.28.28,0,0,0-.13-.07.11.11,0,0,0,0-.1s0-.08,0-.09a.44.44,0,0,0-.16-.11.32.32,0,0,0-.18-.05s-.09,0-.1,0-.09,0-.09,0a.21.21,0,0,0-.13-.05.26.26,0,0,0,0,.2c-.07,0-.14.17-.2.15a.14.14,0,0,0,.06.08c-.06.09-.08.21-.15.22s.07.08.09.08,0,.15,0,.22l-.12,0Zm.88-.51.22.09c-.1,0-.07.06-.14.05s-.09-.08-.08-.14m-.13-.07c0,.05-.09.09-.15,0s0-.06,0-.15a1,1,0,0,0,.2.11m-.21.45s0-.07.05-.07.06,0,.08,0,0-.06-.07-.09.07,0,0,0-.06,0-.07,0,0,0,0-.05,0,0,.06,0l.18.08a.05.05,0,0,1,0,.05s0,.05,0,.06,0,0,0-.06,0,0,0,.06-.08,0-.1,0a.07.07,0,0,0,0,.09s0,.05,0,.09a.1.1,0,0,1-.13.07.11.11,0,0,1,0-.15m.46,1h0"/></g><g id="g168"><path id="path170" d="M51.87,27.92l.09,0v0c.16,0,.14-.15.21-.14.92.12.39-.4,1.48-.29,0,0,.07,0,.12-.06s-.06.28.05.3a.46.46,0,0,1,.19.08s0,0,0,0l-.15,0c-.17.11-.18-.25-.35-.18a.09.09,0,0,0-.05,0c-.08,0-.17.09-.15.16a.15.15,0,0,1,.11-.06v0a.05.05,0,0,0,.06.06s0,0,.07,0,0,0,0,0-.22,0-.18.15l0,.06c0,.06,0,.11.14.08s-.06,0,0-.07h0s0,0,0,0h0a.2.2,0,0,0,0,.05s0,.05,0,.05.09.14.19.08-.09,0-.1-.05l0,0s0,0,0-.07,0,0,0,0h0s0,0,0,0a.11.11,0,0,0,.14.06c.12,0,0-.15.12-.17s0,0,.07,0,.24,0,.26,0a.27.27,0,0,0-.09-.27c-.06,0,0-.11-.06-.19a1,1,0,0,0,.36.08.68.68,0,0,0,.44-.1.47.47,0,0,1,.31,0s.06,0,.05.07,0,.15,0,.21-.13,0-.21,0a.11.11,0,0,0-.07,0,.17.17,0,0,0-.14.15.17.17,0,0,1,.11-.06,0,0,0,0,0,0,0,.09.09,0,0,0,.16.06s0,0,0,0-.14.13-.07.16l0,0a.14.14,0,0,0,.08.13.11.11,0,0,1,0-.11h0s0-.11.09-.15h0c0,.06,0,.14,0,.16h0a.11.11,0,0,0,.16.05s-.06,0-.06-.06l0-.06c0-.14-.08-.14-.08-.19s.14,0,.14-.17a.12.12,0,0,0-.06-.09h0s.08,0,.1-.05-.07-.08-.08-.14a0,0,0,0,1,0,0,.14.14,0,0,0,0-.14s-.15.1-.16,0,0-.07-.11-.05a4.37,4.37,0,0,1-.61-.05c.32,0,.91-.09.91-.3s-.19-.29-.75-.29-2.3.21-2.3-.1.59-.13,1-.11a.22.22,0,0,0,.13.08c.73.2,1.49-.29,2-.11-.41-.37-1,0-1.5-.07.33,0,.66-.07.68-.16-.25.16-1-.11-1.25.08a.1.1,0,0,0,0,0c-.53,0-1.19-.08-1.19.24,0,.57,2,.24,2.45.24s.58,0,.58.14-.47.16-.74.16a13.75,13.75,0,0,0-3,0c0-.12.22-.31.14-.41a.16.16,0,0,0,.12-.14.25.25,0,0,0-.14-.06s0-.08,0-.11,0-.08,0-.09a.82.82,0,0,0-.17-.11.64.64,0,0,0-.16-.05s-.1,0-.11,0-.09,0-.1,0a.26.26,0,0,0-.13-.06.34.34,0,0,0,0,.2c-.07,0-.14.18-.2.16s0,.07.06.07-.08.22-.14.23a.17.17,0,0,0,.06.06A1.11,1.11,0,0,0,51,27L51,27h-.09l-.09,0c-.09,0-.15-.15-.31-.24s-.11-.12-.11-.23,0-.18,0-.28a.69.69,0,0,1,0-.08c0-.07-.1-.12-.15-.1a.12.12,0,0,1,.06.1l-.05.05a.08.08,0,0,0,0,.1s0,0,0,0,0,0,0,0,0,0,0,0-.06-.17-.13-.17h0c0-.07-.08-.13-.17-.05s.06,0,.07,0a.2.2,0,0,0,0,.07c0,.08.05.1.13.1h0v0a0,0,0,0,1,0,0c-.13-.06-.19,0-.19.06v.05s-.06.1,0,.15,0-.07,0-.08h0l0,0a.11.11,0,0,0,.07,0h0l0,0a0,0,0,0,1,0,0c-.09.08-.07.16,0,.18s0,0,0,0-.22.12-.21,0c-.11.18.09.31.25.22h0s0,.06.06.06,0,0,0,0,0,0,0,0,0,.1.08.1,0-.06,0-.06.14.22.37.34c0,0,.11,0,.13-.07s0,0,0,.06.08.23.05.23a2,2,0,0,0-.47,0c-.1.05-.36.15-.44,0s0-.07,0-.13-.06-.06-.08-.06H50a.17.17,0,0,0-.18,0,.15.15,0,0,1,.1.07l0,.05s0,.09.16.15c0,0,0,0,0,0a.12.12,0,0,1-.1,0c-.06-.06-.07-.12-.15-.08l-.05,0h0c-.07,0-.18.08-.13.17a.12.12,0,0,1,.09-.08s0,0,0,.05,0,.15.22,0,0,0,0,0-.15.14-.06.2l0,0h0a.17.17,0,0,0,.15.17.14.14,0,0,1-.05-.15l0,0c.09,0,0-.13.09-.17s0,0,0,0a.11.11,0,0,0,.12.12.14.14,0,0,0,.13-.14s0,0,0,0a.11.11,0,0,1,.05.11l.07-.07a.14.14,0,0,1-.05.17.24.24,0,0,0,.17-.17s0,0,0,.05h0a.35.35,0,0,0,.2,0,0,0,0,0,1,0,0,.11.11,0,0,0,0,.1s0-.05,0-.05,0,.1.05.16c0-.25.32-.12.48-.23s0,0,0,0a.16.16,0,0,1-.06.08.35.35,0,0,0,.17-.06c.11,0,.29-.12.28-.18m-.31-1.5s-.09.09-.13,0,0-.06-.06-.15l.19.11m.12.34s0-.06,0-.06,0,0,0,.07-.08,0-.11,0,0,.06,0,.09,0,.05,0,.09-.07.1-.13.06a.1.1,0,0,1,0-.14s0-.07.06-.07.06,0,.07,0,0-.06-.06-.09.06,0,0-.06-.07,0-.07,0,0,0,0-.05,0,0,.06,0l.17.09s0,0,0,0,0,.06,0,.07m.1-.13c-.07,0-.09-.09-.08-.14a.68.68,0,0,0,.22.08c-.1,0-.08.06-.14.06"/></g><g id="g172"><path id="path174" d="M63.07,30.93v0s.06-.07.06-.15-.16.1-.16,0,0-.08-.1-.06a2.93,2.93,0,0,1-.66-.05s0,0,0,0c.39,0,.92-.07.92-.28s-.2-.29-.76-.29-2.3.21-2.3-.11.59-.11,1-.1a.22.22,0,0,0,.13.08c.72.2,1.55-.34,2-.21-.57-.2-.93.14-1.48,0,.32,0,.66-.07.68-.15-.26.16-1-.11-1.26.07l0,0c-.53,0-1.19-.07-1.19.24,0,.57,2,.24,2.46.24s.57.05.57.14-.47.17-.73.17a13.72,13.72,0,0,0-3,0c0-.12.22-.31.14-.41a.19.19,0,0,0,.12-.14.2.2,0,0,0-.14-.06.08.08,0,0,0,0-.1s0-.09,0-.1a.68.68,0,0,0-.16-.11.82.82,0,0,0-.17,0l-.1,0s-.09,0-.1,0a.26.26,0,0,0-.13-.06.25.25,0,0,0,0,.21c-.07,0-.14.17-.21.15s0,.07.06.07-.07.23-.13.23a.16.16,0,0,0,.09.08c0,.06,0,.11,0,.17l-.09,0h-.09l-.1,0c-.09,0-.16-.15-.3-.24s-.12-.12-.12-.24a2.51,2.51,0,0,0,0-.27l0-.09a.15.15,0,0,0-.15-.1.11.11,0,0,1,.06.1l0,.05a.08.08,0,0,0,0,.1s0,0,0,0a.11.11,0,0,1,0,0s0,0,0,0-.06-.18-.12-.18h0v0c0-.07-.08-.13-.17,0s.06,0,.07,0,0,.07,0,.08.05.1.13.1h0s0,0,0,0,0,0,0,0-.18,0-.18.05v.06s-.05.1,0,.15,0-.07,0-.08h0l0,0s0,0,.07,0h0l0,0s0,0,0,0-.07.17,0,.19,0,0,0,0c0,.16-.22.13-.21,0-.12.19.09.32.24.23s0,0,0,0,0,.05,0,.05,0,0,0,0,0,0,0,0a.09.09,0,0,0,.08.1s0-.06,0-.06.13.23.36.36c0,0,.09-.06.14-.08a.16.16,0,0,0,.08.1l0,0c0,.11.12.22.09.22a.88.88,0,0,0-.32,0c-.11.05-.37.15-.44,0s0-.07-.06-.13,0-.07-.08-.07H57.5a.17.17,0,0,0-.18,0,.15.15,0,0,1,.1.07l0,.05s0,.09.16.15c0,0,0,0,0,0a.09.09,0,0,1-.1,0c-.06-.05-.07-.12-.15-.07l0,0h0c-.07,0-.18.08-.14.17s0-.07.09-.07l0,.05c0,.08.05.15.22,0s0,0,0,0-.16.15-.07.2l0,0v0a.14.14,0,0,0,.14.16.21.21,0,0,1-.06-.15l.05,0c.08,0,0-.13.09-.17s0,0,0,0a.11.11,0,0,0,.12.12.14.14,0,0,0,.13-.14s0,0,0,0,.06.06.05.11l.07-.07a.15.15,0,0,1,0,.17.26.26,0,0,0,.16-.17.07.07,0,0,1,0,.05h0a.47.47,0,0,0,.2,0s0,0,0,0a.11.11,0,0,0,0,.1s0-.05,0-.05,0,.09.06.16c0-.25.15-.16.31-.26s0,0,0,0a.13.13,0,0,1-.07.08c.06.05.29-.1.29-.19s.09,0,.16-.05.14-.12.2-.1c.93.12.4-.4,1.48-.3.06,0,.08-.06.12-.1s0,.32.05.34a.4.4,0,0,1,.19.07s0,0,0,0a.28.28,0,0,0-.16,0c-.16.11-.17-.26-.35-.19l0,0c-.08,0-.18.08-.16.15a.22.22,0,0,1,.12-.06v0s0,0,.06,0,.05,0,.07,0a0,0,0,0,1,0,0c0,.07-.22,0-.18.15a.17.17,0,0,0,0,.06c0,.06,0,.11.14.09s-.05-.05-.05-.08h.05l0,0s0,0,0,0a0,0,0,0,1,0,0s0,0,0,0a.21.21,0,0,0,0,.06c0,.06.09.13.19.07s-.09,0-.1-.05l.05,0s0,0,0-.07,0,0,0,0h.08a.11.11,0,0,0,.14.06c.12,0,0-.14.11-.17h.07c.1,0,.24,0,.26,0a.23.23,0,0,0-.09-.27s0-.1,0-.19A.91.91,0,0,0,62,31a.78.78,0,0,0,.46-.11.47.47,0,0,1,.31,0s.06,0,0,.07,0,.15,0,.21-.14,0-.22,0a.1.1,0,0,0-.08,0,.17.17,0,0,0-.15.15.2.2,0,0,1,.12-.06v0a.09.09,0,0,0,.16.06s0,0,0,0-.16.12-.08.15,0,0,0,0a.11.11,0,0,0,.07.12s0-.05,0-.11h0c.05,0,0-.11.1-.15s0,0,0,0,0,.14,0,.16l0,0s.07.08.16,0a.18.18,0,0,1-.07-.05l0-.07c0-.13-.07-.14-.06-.19s.13,0,.15-.17A.09.09,0,0,0,63,31.1h0s.07,0,.09,0-.06-.06-.06-.12M59,29.88a.93.93,0,0,0,.22.08c-.1,0-.07.07-.14.06s-.09-.08-.08-.14m-.13-.07c0,.05-.09.09-.14,0s0-.06,0-.15a.54.54,0,0,0,.19.11m-.21.45s0-.07.05-.07.06,0,.07,0,0-.07-.06-.09.06,0,0,0-.07,0-.07,0,0,0,0-.05,0,0,.06,0l.17.08a.05.05,0,0,1,0,.05s0,.05,0,.06,0,0,0-.06,0,0,0,.06-.08,0-.11,0a.08.08,0,0,0,0,.09s0,.05,0,.09-.07.1-.13.06a.1.1,0,0,1,0-.14"/></g><g id="g176"><path id="path178" d="M60.57,32.11s0,.06.12.09c.7.19,1.49-.33,1.91-.21-.55-.19-.89.14-1.42,0,.31,0,.63-.06.65-.15-.24.16-.91-.1-1.2.08,0,0,0,0,0,0-.29,0-.69,0-.69.24,0,.54,1.44.22,1.89.22s.4.05.4.14-.52.15-.77.15a11.67,11.67,0,0,0-2.29-.06c.06-.11.19-.26.12-.35a.16.16,0,0,0,.11-.13.19.19,0,0,0-.13-.06s0-.07,0-.1,0-.08,0-.09a.47.47,0,0,0-.16-.11.27.27,0,0,0-.15,0s-.09,0-.11,0-.08,0-.08,0a.25.25,0,0,0-.13-.05.3.3,0,0,0,0,.19c-.06,0-.13.17-.19.15s0,.07.06.07-.07.21-.13.21l0,.06a1.52,1.52,0,0,0,0,.21l-.06,0h0a.45.45,0,0,1-.28-.08c-.11-.06-.11-.11-.11-.22s0-.18,0-.27,0,0,0-.08a.14.14,0,0,0-.14-.09.12.12,0,0,1,.05.1l0,0a.08.08,0,0,0,0,.1s0,0,0,0a.08.08,0,0,1,0,0s0,0,0,0,0-.16-.11-.17h0c0-.07-.08-.13-.16,0a.07.07,0,0,1,.06,0,.64.64,0,0,1,0,.07c0,.07,0,.1.13.1h0a0,0,0,0,0,0,0s0,0,0,0-.18,0-.18.06v0a.09.09,0,0,0,0,.15s0-.07,0-.08h0l0,0s0,0,.07,0h0l0,0s0,0,0,0-.07.16,0,.18,0,0,0,0-.21.12-.2,0c-.11.17.08.3.23.22h0a.06.06,0,0,0,0,.06s0,0,0,0,0,0,0,0,0,.09.07.09,0,0,0,0,0-.07.21,0c0,0,0,.06.07.08l.14,0c0,.11,0,.26,0,.26a.83.83,0,0,0-.31,0c-.1.06-.35.15-.42,0s0-.06,0-.12a.14.14,0,0,0-.08-.06h-.06a.14.14,0,0,0-.17,0,.11.11,0,0,1,.1.06l0,0s0,.08.15.14c0,0,0,0,0,0a.1.1,0,0,1-.09,0c-.06-.05-.07-.12-.14-.08l-.05,0h0c-.06,0-.17.08-.13.16s0-.06.09-.07l0,.05c0,.08.05.14.21,0s0,0,0,0-.14.14-.06.2l0,0s0,0,0,0,.08.16.14.16a.18.18,0,0,1-.06-.14h0c.08,0,0-.13.09-.16s0,0,0,0a.11.11,0,0,0,.12.12c.09,0,.13-.08.11-.13h0a.1.1,0,0,1,0,.11.29.29,0,0,0,.07-.08.17.17,0,0,1,0,.17.22.22,0,0,0,.15-.16.05.05,0,0,1,0,0h0a.32.32,0,0,0,.19,0h0a.11.11,0,0,0,0,.1s0-.05,0-.05,0,.1.06.15c0-.24.21-.17.36-.28s0,0,0,0a.16.16,0,0,1-.06.08c.16.1.33-.12.38-.24l0-.05s0,.05,0,.07c.16,0,.14-.11.2-.1.47,0,.11-.39.87-.27a.27.27,0,0,0,.18-.08c-.05.1-.06.31,0,.33a.34.34,0,0,1,.18.07s0,0,0,0l-.15,0c-.16.11-.16-.24-.33-.17l0,0c-.07,0-.16.08-.14.15a.19.19,0,0,1,.11-.06.08.08,0,0,0,0,0s0,0,.07,0h.06s0,0,0,0-.21,0-.17.14l0,.05s0,.11.13.08-.05,0,0-.07h0s0,0,0,0,0,0,0,0a0,0,0,0,1,0,0s0,0,0,0,0,0,0,0a.11.11,0,0,0,.18.07s-.08,0-.09,0l0,0s0,0,0-.06,0,0,0,0h0s0,0,0,0a.1.1,0,0,0,.13.06c.12,0,0-.14.11-.16a.11.11,0,0,1,.08,0c.08,0,.22,0,.24,0a.24.24,0,0,0-.09-.27s0-.09,0-.17a.85.85,0,0,0,.34.08.89.89,0,0,0,.49-.11.36.36,0,0,1,.3,0s.05,0,0,.05,0,.14-.06.2-.14,0-.21,0-.08,0-.08,0a.22.22,0,0,0-.17.14.81.81,0,0,1,.13-.06,0,0,0,0,0,0,0c0,.09.08.12.15.06s0,0,0,0-.17.12-.1.15l0,0a.09.09,0,0,0,0,.12s0-.05,0-.11h0c.05,0,.06-.12.13-.15h0c0,.06-.07.14,0,.15h0c0,.05.06.08.14.05s-.05,0-.06-.05.06,0,.06-.06,0-.13,0-.19.13,0,.16-.15,0-.07,0-.08h0s.07,0,.11,0-.05-.08-.05-.13,0,0,0,0a.21.21,0,0,0,.08-.14c0,.05-.17.09-.15,0s0-.07-.09,0a5.07,5.07,0,0,1-.71,0s0,0,0,0c.31,0,.94,0,.94-.3s-.07-.27-.57-.24-1.75.2-1.75-.11c0-.15.36-.13.55-.11m-1.63,0a1,1,0,0,0,.22.09c-.1,0-.08.06-.14.05s-.09-.08-.08-.14m-.13-.06a.08.08,0,0,1-.13,0s0-.06,0-.15l.18.11m-.2.43s0-.07.06-.07a.06.06,0,0,0,.07,0s0-.06-.06-.09.06,0,0,0-.07,0-.08,0l0,0h0l.17.08s0,0,0,.05,0,0,0,0,0,0,0,0,0,0,0,.06-.08,0-.1,0a.06.06,0,0,0,0,.08s0,.05,0,.09a.09.09,0,0,1-.12.06.09.09,0,0,1,0-.13"/></g><g id="g180"><path id="path182" d="M60,34.34a.23.23,0,0,0,.13.09c.69.2,1.48-.32,1.9-.2-.54-.19-.89.14-1.41,0,.3,0,.63-.06.64-.15-.23.16-.91-.1-1.19.08l-.06,0c-.21.05-.4.17-.4.32s.26.26.76.24,1-.08,1,0-.35.24-.81.24a4.9,4.9,0,0,0-1.74,0h0c.06-.13.22-.32.15-.41a.15.15,0,0,0,.11-.12.22.22,0,0,0-.13-.06s0-.06,0-.09a.47.47,0,0,0,0-.09l-.15-.1a.41.41,0,0,0-.15,0h-.1s-.07,0-.08,0a.33.33,0,0,0-.12,0,.24.24,0,0,0,0,.19c-.06,0-.12.15-.17.14s0,.06.05.06-.07.2-.13.2a.23.23,0,0,0,.06.07,1.61,1.61,0,0,0,0,.43,3.29,3.29,0,0,0-.37-.43c-.11-.06-.11-.11-.11-.21s0-.17,0-.25a.41.41,0,0,0,0-.08.14.14,0,0,0-.14-.09.16.16,0,0,1,.06.09s0,0,0,.05a.05.05,0,0,0,0,.08s0,0,0,0,0,0,0,0,0,0,0,0,0-.15-.11-.16h0c0-.07-.07-.12-.15,0l.07,0,0,.07a.1.1,0,0,0,.11.1h0v0h0c-.11,0-.16,0-.16.06s0,0,0,0,0,.09,0,.14,0-.06,0-.07h0l0,0s0,0,.07,0h0l0,0s0,0,0,0-.06.15,0,.17,0,0,0,0-.2.11-.19,0c-.1.16.08.29.22.2s0,0,0,0,0,0,0,0a0,0,0,0,1,0,0s0,0,0,0a.08.08,0,0,0,.07.09s0,0,0,0,0,.22.21.33a.22.22,0,0,0,.24.18,1.42,1.42,0,0,1,.08.17,1.36,1.36,0,0,0-.35,0,.39.39,0,0,1-.18.07s0,0,0,0a.14.14,0,0,1-.17,0s0-.06,0-.11a.1.1,0,0,0-.07-.06h-.06a.14.14,0,0,0-.16,0,.12.12,0,0,1,.09.06s0,0,0,.05,0,.08.14.13,0,0,0,0a.1.1,0,0,1-.09,0c-.06,0-.06-.11-.13-.07l0,0h0c-.06,0-.16.08-.12.16a.2.2,0,0,1,.08-.08l0,0c0,.08,0,.14.2,0s0,0,0,0-.14.13-.06.17l0,0s0,0,0,0a.14.14,0,0,0,.13.15.17.17,0,0,1-.05-.13h.05c.07,0,0-.12.08-.15s0,0,0,0,0,.12.11.11a.13.13,0,0,0,.12-.12s0,0,0,0a.09.09,0,0,1,0,.1l.06-.07a.14.14,0,0,1,0,.16.2.2,0,0,0,.15-.15l0,0h0a.26.26,0,0,0,.17,0h0a.28.28,0,0,0,0,.1s0,0,0,0,0,.09,0,.14c0-.23.14-.14.28-.23s0,0,0,0a.19.19,0,0,1-.06.07s.21-.07.21-.15a1,1,0,0,0,.13-.38h.06c.19,0,.27-.16.46-.17a.54.54,0,0,0-.06.27c0,.11.14.21.17.25a0,0,0,0,1,0,0l-.14,0c-.15.11-.15-.22-.32-.16l0,0c-.06,0-.15.08-.13.14a.16.16,0,0,1,.1-.06v0s0,.06.06.06,0,0,.06,0a0,0,0,0,1,0,0c0,.06-.2,0-.16.13a.33.33,0,0,0,0,.06c0,.05,0,.1.12.07s-.05,0,0-.06h0s0,0,0,0h0l0,0s0,0,0,0,0,0,0,0,.08.12.17.06-.08,0-.08,0l0,0s0,0,0-.06,0,0,0,0h.08a.09.09,0,0,0,.12.05c.11,0,0-.13.11-.15h.06c.08,0,.15,0,.17,0a.21.21,0,0,0-.07-.25c-.06,0,.07-.37-.19-.52.13,0,.52.08.59,0a.51.51,0,0,1,.26.13s0,.05,0,.07-.09.1-.14.12h0a.52.52,0,0,0-.11-.1.07.07,0,0,0-.08,0,.13.13,0,0,0-.16.07.23.23,0,0,1,.12,0,0,0,0,0,0,0,0s0,0,0,.05h0s0,0,0,0-.18,0-.15.06a.1.1,0,0,1,0,0,.11.11,0,0,0,0,.13s0,0,.08-.06l0,0s.09,0,.15,0,0,0,0,0S60,36,60,36.1l0,0a.1.1,0,0,0,.07.14.11.11,0,0,1,0-.08h.07c.11-.06,0-.14.08-.18s.1.08.19,0a.07.07,0,0,0,0-.09h0s0,.06.09,0,0-.09,0-.14h0a.11.11,0,0,0,.12-.06c-.05,0-.18-.07-.1-.1s.14-.11.09-.17-.29-.13-.3-.27h.18c.6,0,1-.17,1-.36s-.17-.21-.6-.18-1.21.1-1.21-.08.12-.18.26-.22m-1.42,0s-.08.08-.13,0,0,0,0-.13l.18.1m.1.3s0,0,0,0,0,0,0,.06-.08,0-.1,0a.08.08,0,0,0,0,.09s0,0,0,.08-.06.08-.12,0a.09.09,0,0,1,0-.13s0-.05,0-.05.05,0,.07,0,0,0-.06-.08.06,0,0,0-.06,0-.06,0,0,0,0,0,0,0,.05,0l.16.07s0,0,0,0,0,0,0,0m.09-.11c-.06,0-.08-.08-.07-.13a1,1,0,0,0,.2.08c-.09,0-.07.06-.13.05"/></g><g id="g184"><path id="path186" d="M47.37,27.75a2.92,2.92,0,0,0-.69-2c-.67-.77-2.88-3.21-3.58-4,.18,0,.39,0,.82.43.27.25.93.9,1.4,1.36a13.91,13.91,0,0,1,2.54-4.19l.6-.62a4.51,4.51,0,0,0-1.41.61,2.46,2.46,0,0,0-.66-1.75c.18-.94,0-2.09-2.11-3.51,1.09.26,1.74,1.25,2.57.5-.75,0-.76-1.66-3.47-3,1,0,1.84,1.64,3,.7-1.13-.14-1.5-2.14-3.53-2.76.7.08,1.43.43,2-.39-.7.17-1.12-.48-1.87-.54A2.53,2.53,0,0,0,43,6.55a2.56,2.56,0,0,0-1.46.52c-.06-.48-.56-.51-1-.48,0,.21.12.51-.11.56a17.8,17.8,0,0,0-2.5.75,12.93,12.93,0,0,0-2.3,1.24c-.19.13-.35-.18-.47-.32-.33.28-.65.64-.41,1a2.93,2.93,0,0,0-1.57.57,1.84,1.84,0,0,0,1.24,1.51c-1.25,1.24-.12,2.39-1.22,3.48,1.55.06,1.28-2.1,2.06-2.4-.08,1.52-.93,1.79-.93,3.43,0,.87.52,1.82.06,2.39,1.29-.35.95-3.22,1.76-4.08A2.37,2.37,0,0,1,36,16.18c-.45,1.34,0,3.17-.65,3.76,1.16-.11,1.42-1.75,2.2-2.69-.82,2.17-1.72,5.92-2.93,7.68C32.36,28,31,31.68,29,31.68A1.53,1.53,0,0,1,27.36,30c0-3.46,5.94-5.84,5.94-9.53a2.19,2.19,0,0,0-2.18-2.27,3.15,3.15,0,0,0-1.82.75,2.05,2.05,0,0,0-.7-.15c-2.09,0-1.53,3.77-3.36,3.74.72.4,2-.39,2.71-1.44-.31,2.44-3.83,1.79-3.56,4.72.49-2.29,6.1-2,6.1-5.44a1.35,1.35,0,0,0-.48-1A2.16,2.16,0,0,1,31.2,19a1.32,1.32,0,0,1,1.28,1.49c0,3.09-5.9,5.7-5.9,9.49a2.68,2.68,0,0,0,.49,1.59,1,1,0,0,1-1.2-.32c0,1,1.36,1.59,2.24,1.1a2.13,2.13,0,0,0,.61.12,1.67,1.67,0,0,1-1.63.92c1.44,1.14,4-.36,3.83-1.65,1.15-.93,1.87-2.51,2.7-3.55,0,.24-.09.48-.13.72a12.62,12.62,0,0,0-1.86,4.94c-.18,1.7-1,3.23-2.23,3.23-.26,0-.69-.34-.89-.18-.37.32,0,.66,0,1,0,.49-.93,1-.93,2.46,0,.67.39,1.47.24,1.91a2.66,2.66,0,0,0,1.09-1.65c.41,2-.84,1.88.07,3.63a.71.71,0,0,1,1-.58c.36.24.19.41-.07.67s-.5,1.57.69,1.49c-.22-.15-.24-.49.35-.61.82-.17,1.06.21,1.94.21.54,0,.69-.71,1.11-.71s.43.33.29.58c.68-.19.81-.56.81-.95s-.31-.64-.07-.78,1,0,.72.66a.76.76,0,0,0,.64-.87c0-.5-.58-.8-1.12-.71-.09-.31-.56-.49-1-.49-1,0-.82.77-1.49.77-1.06,0-2.09-1.38-2.09-3.71,0-1.25,1.34-1.56,2.29-2a8.15,8.15,0,0,0,3.61-3.1,7.38,7.38,0,0,0,.71-4.45,2.82,2.82,0,0,1,1.49,2.68,1.63,1.63,0,0,1-1,1.65c-.36.17-.48.1-.52.31a.45.45,0,0,0,.29.5c.48.25.38.71.51,1.21a3.94,3.94,0,0,0,1.34,1.87,6.16,6.16,0,0,0,0-1.46c1,.51.2,2.58,2.2,2.58-.37-.21-.27-.76-.06-.83s.48.13.87.67.28.5,1.22.5.52-.33,1-.33.46.58.19,1a1.08,1.08,0,0,0,.82-1.55A.8.8,0,0,1,47,39a1,1,0,0,0-.57-1.67.59.59,0,0,0-.55-.58,7.26,7.26,0,0,0-.94,0c-.35,0-.54.52-.94.52-1.25,0-3.73-2.26-3.73-3.25s2.37-1.57,2.37-3.1c0-2-2-2.67-3.6-3.94a3.3,3.3,0,0,1,3.27-.34c.11-.55.46-.42.59-1.37.35.84-.11,1.53.25,1.88.27-.4,1-.34.94-1.38.21.65-.28,1.64.21,2.08.09-.53.41-.64.61-.64s.38.15.38.46c0,.8-1,.59-1,1.48,0,.38.48.51.48.75a.52.52,0,0,1-.87.3,1,1,0,0,0,.88.66,1.26,1.26,0,0,0,1.08-.8c.23.57,0,1.2-.35,1.28.43.22,1.46,0,1.34-1.3.58.1.88.49.54,1.19.48-.12.91-.35.91-.86S48,29.73,48,29.19s-.55-.85-.64-1.44M37,11.33c-.55,0-.53-.47-1.49-.71a16.45,16.45,0,0,0,2.29-.75c.14.62-.12,1.39-.8,1.46m3.83,4.06a1.05,1.05,0,0,1-1.37-.73c-.14-.42-.25-.76-.09-.92s.4-.53.22-.9-.66-.22-1.15-.11c.22-.4.24-.69-.07-.66s-.37.64-.57.57-.1-.41-.1-.59.17-.35.43-.46l2-.76c.26-.1.44-.15.62,0s.45.3.35.5-.52-.24-.81,0,0,.39.41.52c-.43.25-.89.42-.75.88s.35.49.78.49c.23,0,.39.33.58.72a1,1,0,0,1-.49,1.43m.12-5.62c-.54.43-1.26,0-1.58-.52a14.72,14.72,0,0,0,2.18-1c-.54.83-.17,1.2-.6,1.53"/></g><g id="g188"><path id="path190" d="M34.16,6.6a.39.39,0,1,0-.77,0,.38.38,0,0,0,.38.38.39.39,0,0,0,.39-.38"/></g><g id="g192"><path id="path194" d="M34,5.57a.39.39,0,1,0-.77,0,.39.39,0,0,0,.77,0"/></g><g id="g196"><path id="path198" d="M34.24,5.11a.39.39,0,0,0,.39-.38.39.39,0,1,0-.77,0,.38.38,0,0,0,.38.38"/></g><g id="g200"><path id="path202" d="M35.27,5a.39.39,0,1,0,0-.77.39.39,0,0,0,0,.77"/></g><g id="g204"><path id="path206" d="M39.66,4.33a.39.39,0,1,0,0-.55.39.39,0,0,0,0,.55"/></g><g id="g208"><path id="path210" d="M39.57,3.5a.36.36,0,0,0,0-.54A.37.37,0,0,0,39,3a.38.38,0,1,0,.54.54"/></g><g id="g212"><path id="path214" d="M38.55,3.34a.39.39,0,1,0-.55,0,.39.39,0,0,0,.55,0"/></g><g id="g216"><path id="path218" d="M37.68,4a.39.39,0,1,0-.55,0,.39.39,0,0,0,.55,0"/></g><g id="g220"><path id="path222" d="M35.21,3.45l.31.68.39-.47H36a8.08,8.08,0,0,1,0,.85.49.49,0,1,0,1,0,.49.49,0,0,0-.26-.44,3.31,3.31,0,0,1-.54-.51.11.11,0,0,0,0-.06l.66.06-.26-.7-.49.42h0l0-.72-.68.25.45.54a.08.08,0,0,0,0,0Z"/></g><g id="g224"><path id="path226" d="M39.69,4.66a1,1,0,0,1,.21.53,1.17,1.17,0,0,1-.4-.37l.08.9a.81.81,0,0,1,.32-.32c0,.58-.26.82-.46.86A.38.38,0,0,1,39,6c0-.26.17-.42.4-.18,0-.55-.39-.54-.58-.31a.8.8,0,0,0-.33-1.15.84.84,0,0,0,.2,1.18c-.36-.18-.68.13-.36.52.07-.34.36-.27.44,0s-.17.54-.56.66c-.55.17-.73-.19-.86-.49.12-.08.4,0,.72.16l-.26-.89a.92.92,0,0,1-.54.54,3,3,0,0,1,.17-.77l-1.06.43a2.76,2.76,0,0,1,.66.44.9.9,0,0,1-.75,0l.42.82c.08-.37.27-.59.41-.62.11.32.23.7-.28,1s-.73.13-.85-.08,0-.52.3-.32c-.05-.5-.49-.5-.62-.12,0-.52-.13-.84-.68-1-.14.52,0,.83.57,1-.3,0-.62.26-.21.62,0-.33.27-.37.43-.14a.38.38,0,0,1-.13.53c-.17.11-.51.1-.94-.29a.72.72,0,0,1,.46,0l-.57-.7a1.15,1.15,0,0,1,0,.55.9.9,0,0,1-.22-.54l-.43.39a4.9,4.9,0,0,1,1.45,1.44,19.38,19.38,0,0,1,2.37-1.18,20.38,20.38,0,0,1,2.51-.81,4.84,4.84,0,0,1,0-2Z"/></g><g id="g228"><path id="path230" d="M85.8,38.66A1.67,1.67,0,1,0,87.47,37a1.68,1.68,0,0,0-1.67,1.66m.43,0a1.24,1.24,0,1,1,1.24,1.24,1.24,1.24,0,0,1-1.24-1.24"/></g><g id="g232"><path id="path234" d="M79.58,40.2a1,1,0,0,0-.41.62.94.94,0,0,0,.25.83A1.52,1.52,0,0,0,81.2,42a1,1,0,0,0,.52-.69h0A1.21,1.21,0,0,0,80.64,40a1.48,1.48,0,0,0-1.06.2m.75,1.49c-.47-.09-.81-.44-.75-.79a.58.58,0,0,1,.24-.35,1,1,0,0,1,.74-.13.85.85,0,0,1,.76.71s0,0,0,.08c-.06.35-.5.56-1,.48"/></g><g id="g236"><path id="path238" d="M70.39,16.8a1.11,1.11,0,0,0-.34,1.51,1.1,1.1,0,0,0,1.54.05,1.28,1.28,0,0,0,.51-.85.89.89,0,0,0-.16-.66.88.88,0,0,0-.6-.33,1.3,1.3,0,0,0-1,.28m-.09,1a.86.86,0,0,1,.35-.64.92.92,0,0,1,.64-.2.49.49,0,0,1,.31.17.48.48,0,0,1,.08.35.92.92,0,0,1-.35.56.68.68,0,0,1-.94,0,.44.44,0,0,1-.09-.27"/></g><g id="g240"><path id="path242" d="M77.62,37.43a1.41,1.41,0,0,0-.4,1v0a1.45,1.45,0,0,0,.36,1,1,1,0,0,0,.68.31,1,1,0,0,0,.68-.28,1.47,1.47,0,0,0,.41-1,1.43,1.43,0,0,0-.28-.91.94.94,0,0,0-1.45-.14m.65,1.9h0a.53.53,0,0,1-.38-.18,1,1,0,0,1-.25-.71,1,1,0,0,1,.28-.7.5.5,0,0,1,.38-.16c.35,0,.64.4.63.88a1.06,1.06,0,0,1-.28.71A.58.58,0,0,1,78.27,39.33Z"/></g><g id="g244"><path id="path246" d="M69.46,24a.93.93,0,0,0-.56.48A1.2,1.2,0,0,0,69.61,26a1.41,1.41,0,0,0,1.08.08,1,1,0,0,0,.56-.48,1,1,0,0,0,0-.74A1.47,1.47,0,0,0,69.46,24m.33,1.62a.78.78,0,0,1-.51-.95.49.49,0,0,1,.32-.27,1,1,0,0,1,.75.07,1,1,0,0,1,.52.54.51.51,0,0,1,0,.42.51.51,0,0,1-.31.26,1,1,0,0,1-.76-.07"/></g><g id="g248"><path id="path250" d="M87,22.24c.54,1.49,1.62,2,2.44,1.64-1.84-.21-.35-3.36-2.72-3.36a2.33,2.33,0,0,0-.38,0,1.94,1.94,0,0,0-1.54-.6,3,3,0,0,0-2.73,3c0,4.3,5,4.68,5,8.48a1.73,1.73,0,0,1-1.77,1.8c-.84,0-1.52-.94-2.23-2.42a19.24,19.24,0,0,0-1.83-2.67,1.34,1.34,0,0,0,.74.27.89.89,0,0,0,.69-.26.91.91,0,0,0,.29-.67.06.06,0,0,0,0,0A1.51,1.51,0,0,0,81.56,26a.94.94,0,0,0-.69.25,1,1,0,0,0-.29.68v0a1.09,1.09,0,0,0,.08.43c-1.08-1.4-2.08-2.78-2.08-3.54a3.42,3.42,0,0,1,1-2l.2.11.15-.16,1.48-1.6,0-.06h0L81.7,20l-.54-.43a6.92,6.92,0,0,0,.36-1.06c.17.7.52,1.14,1,1-.32-.71.33-1.67-.1-3.42.41.67,1,1,1.42.91-1.11-1,.33-2.36-1.11-4.48a.84.84,0,0,0,1-.17c-1.32-.18-.72-1.86-3-2.46.58-.1.91-.44.82-.74-.61.44-1.14-.82-3.14-.79a3,3,0,0,0-1.6-1.92,2.69,2.69,0,0,1-.14,1.54l-6.52-6.4c-.19-.18-.3-.22-.35-.16s0,.19.07.32l5.6,7c-.42.14-.83.32-1.27.48a.74.74,0,0,0-.48.72,12.08,12.08,0,0,0-2.41,1.57c-.34.31-.62.39-.31,1.1.11.27-.25.93.56.44.53-.32,1.74-1,1.92-.57.09.23-.5.51-.91.66s-.85.47-.79.64.39,0,.41.15a.37.37,0,0,0,.32.35c.16,0,.37-.34.5-.22s-.06.87-.19,1.07a1.26,1.26,0,0,0,1-1.16c0-.47.15-.58.25-.65s.21.51.08.85c.33-.07.68-.51.63-1.33a1,1,0,0,1,.48-.23c.21,0,.63.58,1.23.58a1.84,1.84,0,0,0,1.79-1.31,1.28,1.28,0,0,0-.15-.93,1.56,1.56,0,0,1,.52,1.2c0,1.57-2.77,2.3-3.91,3.39a.74.74,0,0,0-.13.12l-1.3-.51-.09.29s0,.07-.07.25c-.14.44-.42,1.37-.6,1.9l-.07.22.12.07a7.28,7.28,0,0,0-1.54,3.36,11,11,0,0,0-.94-.87,1.36,1.36,0,0,0,.06-.36,1.28,1.28,0,0,0-.29-.92.91.91,0,0,0-.6-.3.88.88,0,0,0-.63.23.68.68,0,0,0-.12.12l-.14-.1a10,10,0,0,1-1.28-1.08.68.68,0,0,0-.57-.23H66c-.19,0-.3.14-.52.34l-1,.75c.19.19.39.39.57.6l.16.18.43-.33a.74.74,0,0,1,.48-.14.76.76,0,0,1,.56.37c.12.18,1.18,1.57,2,2.53l-.28.1a4.48,4.48,0,0,1-1.59.09c-.37,0-.44-.12-.7.28-.1.15-.22.33-.35.49s-.22.32,0,.77c.38.65,1.34,2.36,1.66,3.14A1.82,1.82,0,0,0,68.86,28a9.73,9.73,0,0,1,1.77,1l0-.59a3.72,3.72,0,0,0-1-.48c-.22-.08-.28-.17,0-.17a6.84,6.84,0,0,1,1.5.46,4.38,4.38,0,0,0-1-1.57,1.45,1.45,0,0,0-1.07,0,.24.24,0,0,1-.24.27.23.23,0,0,1-.24-.3c.06-.18.32-.23.26-.56s-.46-.39-.73-.42c-.37-.54-.8-1.33-1-1.64s-.08-.5,0-.61c.32-.26,1,.14,2.31.22l1.64.09a3.64,3.64,0,0,0,2.93,3.53,3.62,3.62,0,0,1,2.5,2c-4.28-.08-4.95,1.59-4.95,3.16,0,1.79,1.51,1.68,1.51,3,0,1.17-3.6,1.65-4.69,1.81a3,3,0,0,0-1.89.79l-1.69,1.67a2.45,2.45,0,0,0,.68,0l.61-.78c.18-.26.3-.48.42-.47s0,.23-.1.51l-.5.84c2.11.15,2.25-.64,2.25-1s-.52-.54-.22-.74.56-.06.8.22.32.52.91.3c0,0,4.6-1.91,5.18-2.17s.37-.47.06-.73a1.49,1.49,0,0,1-.4-1.22c0-1.39.84-1.82,2.33-1.8,0,.24,0,.47,0,.67,0,2.18,3.29,4.3,4.17,4.3.4,0,.93-.29,1,1a12.46,12.46,0,0,1,0,2.75,2.06,2.06,0,0,1-1.16,1.75c-.67.48-1.3,1.95-1.58,2.25.29.2.61.23.86-.49a2.13,2.13,0,0,1,.7-1.16c-.26.66-.45,1.61-.57,1.9.83.15,2.2-.62,2.2-1.21S82,44,82,43.63a.47.47,0,0,1,.48-.37.68.68,0,0,1,.61.39c.37-.19.61-.56.6-1.43,0-.34,0-.69,0-1a1,1,0,0,0,.08.14,1,1,0,0,0,.76.43A1.52,1.52,0,0,0,86,40.61a.76.76,0,0,0,0-.21.94.94,0,0,0-.16-.52.9.9,0,0,0-.61-.4,1.42,1.42,0,0,0-1.06.23,1.49,1.49,0,0,0-.61.8c-.07-1.18-.15-2.3-.12-2.75.05-.66.07-1-.15-1s-.47.27-.79.27a2.16,2.16,0,0,1-1.29-1.83c0-.94,1-2.15,1-3.44,0-.4.23-.6.39-.24A6.16,6.16,0,0,0,83.54,33c-.26,1.62,1.52,3.19,3,2-.72.11-1.22-.54-1.54-1.18a2.38,2.38,0,0,0,.39,0h.22a1.57,1.57,0,0,0,2.56-1,1.68,1.68,0,0,1-1.29.53,2.63,2.63,0,0,0,.93-2.1c0-4.09-5-4.58-5-8.31a2.29,2.29,0,0,1,2.06-2.27,1.24,1.24,0,0,1,.77.25,1.84,1.84,0,0,0-.47,1.42c.13,2.95,5,2.8,5,4.22.53-2.14-3.06-1.48-3.19-4.36M74.18,10.94c.23-.45,0-1.13.81-1.13.4,0,.76.4,1.24.56a4.78,4.78,0,0,0-2,.57m-4.4,9a.92.92,0,0,1-.26.59.45.45,0,0,1-.32.12c-.28,0-.49-.34-.49-.71v-.06a.85.85,0,0,1,.25-.59.43.43,0,0,1,.63,0,.88.88,0,0,1,.19.61M84,40.67a1.08,1.08,0,0,1,.45-.62,1,1,0,0,1,.73-.16.51.51,0,0,1,.35.23h0a.5.5,0,0,1,.07.4,1,1,0,0,1-.45.61.79.79,0,0,1-1.08-.05.58.58,0,0,1-.07-.41M81,26.93a.51.51,0,0,1,.16-.38h0a.49.49,0,0,1,.39-.13,1,1,0,0,1,1,1,.52.52,0,0,1-.15.38h0A.57.57,0,0,1,82,28a1,1,0,0,1-.68-.33,1,1,0,0,1-.29-.7m-8.23-9.26v0c.23-.71.67-2.14.67-2.16l0-.05.93.36-.13.05a2.44,2.44,0,0,0-.64.45.74.74,0,0,0,.56-.07l.13-.09-.4,1L73.88,17a1,1,0,0,0-.42-.41.75.75,0,0,0,0,.2c0,.37.26.54.52.68.44.22.72.25.83.08a.5.5,0,0,0,0-.12.27.27,0,0,0-.08-.2.37.37,0,0,0-.43-.07l-.07,0v-.06a.68.68,0,0,1,.13-.52.49.49,0,0,1,.36-.15.46.46,0,0,1,.39.24A1.24,1.24,0,0,1,76,15.6h0v0a1.4,1.4,0,0,1,.1.51,1.35,1.35,0,0,1-.41.92.45.45,0,0,1,.59.54A.65.65,0,0,1,76,18l-.06,0V18a.36.36,0,0,0-.3-.31.28.28,0,0,0-.3.14q-.16.33.48.69a.72.72,0,0,0,1-.24.88.88,0,0,0-.6.15l-.16.1.66-1.24,0,.15a.88.88,0,0,0,.24.47,1.25,1.25,0,0,0,.08-.45.92.92,0,0,0-.07-.36L77,16.92l1.36.79h-.16a1.11,1.11,0,0,0-.69.41.93.93,0,0,0,.53,0l.14-.05-.74,1.19V19a.89.89,0,0,0-.17-.56,1.11,1.11,0,0,0-.09.4.72.72,0,0,0,.41.63c.42.25.7.28.83.07a.31.31,0,0,0,0-.34.36.36,0,0,0-.42-.1l-.06,0v-.07a.61.61,0,0,1,.17-.49.47.47,0,0,1,.37-.14.5.5,0,0,1,.4.37,1.28,1.28,0,0,1,1.07-1h0v.05a1.65,1.65,0,0,1,0,.3,1.27,1.27,0,0,1-.57,1,.45.45,0,0,1,.41.21.55.55,0,0,1,.07.24.32.32,0,0,1,0,.14.66.66,0,0,1-.37.38l-.07,0v-.06a.38.38,0,0,0-.29-.34.26.26,0,0,0-.29.11c-.1.18.06.4.48.67a.74.74,0,0,0,1,0,1,1,0,0,0-.56-.16h-.1l.67-.86v.2a.74.74,0,0,0,.22.49,2.92,2.92,0,0,0,.07-.61,1,1,0,0,0,0-.18l0-.13.78.63,0,0s-1,1.1-1.53,1.66l0,0Zm6.8,17a.69.69,0,1,1-1.1-.77.79.79,0,0,1,1-.31.77.77,0,0,1,.06,1.08m2-3.1a.78.78,0,0,1-1,.31.88.88,0,0,1,1-1.4.77.77,0,0,1,.05,1.09"/></g><g id="g252"><path id="path254" d="M58.31,44.73a1.16,1.16,0,0,0-.34.05v-2a14.09,14.09,0,0,1-3-.48v2.45a1,1,0,0,0-.36,0,1.15,1.15,0,0,0-1.15,1.15,2.06,2.06,0,0,0,.57,1.3c.14-.31.26-.57.43-.57.35,0,.19,1.76,1.22,1.8a.87.87,0,0,0,0,.28.81.81,0,1,0,1.62,0,.67.67,0,0,0-.06-.28c1,0,.86-1.8,1.21-1.8.18,0,.29.24.45.57a2.06,2.06,0,0,0,.57-1.3,1.16,1.16,0,0,0-1.15-1.16m-1.83,4.42a.45.45,0,1,1,.45-.45.45.45,0,0,1-.45.45m2.41-2.55a.6.6,0,0,0-.45-.36c-.7,0-.43,1.83-1.25,1.83a.5.5,0,0,1-.55-.49c0-.26.18-.33.18-.54s-.16-.28-.34-.28-.34.08-.34.28.18.28.18.54a.5.5,0,0,1-.55.49c-.82,0-.55-1.83-1.24-1.83a.58.58,0,0,0-.46.36,1.6,1.6,0,0,1-.21-.72.79.79,0,0,1,.79-.79c.92,0,.71,1.26,1.15,1.26a.31.31,0,0,0,.34-.31c0-.36-.64-.7-.64-1.21s.47-.95,1-1.36c.51.41,1,.84,1,1.36s-.65.85-.65,1.21a.31.31,0,0,0,.34.31c.44,0,.23-1.26,1.15-1.26a.79.79,0,0,1,.79.79,1.74,1.74,0,0,1-.21.72"/></g><g id="g256"><path id="path258" d="M52.49,8.86c-.31.59-.58.94-.53,1.39s.52.79.75,1.25c.2-.54.55-.94.51-1.36s-.63-1-.73-1.28"/></g><g id="g260"><path id="path262" d="M60.44,8.86c.32.59.58.94.54,1.39s-.52.79-.75,1.25c-.21-.54-.55-.94-.51-1.36s.62-1,.72-1.28"/></g><g id="g264"><path id="path266" d="M47.91,8.52A.54.54,0,1,0,47.38,8a.53.53,0,0,0,.53.54"/></g><g id="g268"><path id="path270" d="M48.27,9.28a.54.54,0,0,0-1.07,0,.54.54,0,1,0,1.07,0"/></g><g id="g272"><path id="path274" d="M48.53,10.59a.54.54,0,1,0-.53.53.54.54,0,0,0,.53-.53"/></g><g id="g276"><path id="path278" d="M50.89,6a.54.54,0,0,0,0-1.08.54.54,0,0,0-.54.54.54.54,0,0,0,.54.54"/></g><g id="g280"><path id="path282" d="M49.55,6.37a.54.54,0,0,0,.54-.54.54.54,0,1,0-1.08,0,.55.55,0,0,0,.54.54"/></g><g id="g284"><path id="path286" d="M48.51,7.29A.54.54,0,1,0,48,6.75a.54.54,0,0,0,.54.54"/></g><g id="g288"><path id="path290" d="M52.29,6.09a.54.54,0,1,0-.53-.54.54.54,0,0,0,.53.54"/></g><g id="g292"><path id="path294" d="M53.62,6.47a.54.54,0,1,0-.53-.54.54.54,0,0,0,.53.54"/></g><g id="g296"><path id="path298" d="M54.88,7.06a.54.54,0,1,0-.54-.54.54.54,0,0,0,.54.54"/></g><g id="g300"><path id="path302" d="M64.47,8A.54.54,0,1,0,65,7.44a.54.54,0,0,0-.54.54"/></g><g id="g304"><path id="path306" d="M65.18,8.75a.54.54,0,1,0,.54.53.53.53,0,0,0-.54-.53"/></g><g id="g308"><path id="path310" d="M64.92,10.05a.54.54,0,1,0,.54.54.54.54,0,0,0-.54-.54"/></g><g id="g312"><path id="path314" d="M62,6a.54.54,0,0,0,0-1.08.54.54,0,0,0-.54.54A.54.54,0,0,0,62,6"/></g><g id="g316"><path id="path318" d="M63.37,6.37a.54.54,0,0,0,.53-.54.54.54,0,1,0-1.07,0,.54.54,0,0,0,.54.54"/></g><g id="g320"><path id="path322" d="M64.42,7.29a.54.54,0,1,0-.54-.54.54.54,0,0,0,.54.54"/></g><g id="g324"><path id="path326" d="M60.63,6.09a.53.53,0,0,0,.53-.54.54.54,0,1,0-1.07,0,.54.54,0,0,0,.54.54"/></g><g id="g328"><path id="path330" d="M59.3,6.47a.54.54,0,1,0-.54-.54.54.54,0,0,0,.54.54"/></g><g id="g332"><path id="path334" d="M57.5,6.52A.54.54,0,1,0,58,6a.54.54,0,0,0-.54.54"/></g><g id="g336"><path id="path338" d="M55.54,9.43h.6V7.12a2.08,2.08,0,0,1-.6-.18Z"/></g><g id="g340"><path id="path342" d="M57.38,6.94a2.08,2.08,0,0,1-.6.18V9.43h.6Z"/></g><g id="g344"><path id="path346" d="M56.11,4.4V3A1.7,1.7,0,0,0,54.79,4.4Z"/></g><g id="g348"><path id="path350" d="M56.81,4.4h1.32A1.7,1.7,0,0,0,56.81,3Z"/></g><g id="g352"><path id="path354" d="M54.81,5.06a1.69,1.69,0,0,0,3.3,0Z"/></g><g id="g356"><path id="path358" d="M57.39,2.82a1.89,1.89,0,0,1-.74-1.19,2.2,2.2,0,0,1,1.23.77V.55a2.09,2.09,0,0,1-1.23.77A2.74,2.74,0,0,1,57.36,0H55.57a2.8,2.8,0,0,1,.7,1.32A2.06,2.06,0,0,1,55.05.55V2.4a2.14,2.14,0,0,1,1.22-.77,1.89,1.89,0,0,1-.74,1.19Z"/></g><g id="g360"><path id="path362" d="M59.36,39.74a35.81,35.81,0,0,1-5.59-2v0a1.5,1.5,0,0,0-.38-1.14A1.46,1.46,0,0,0,52.33,36a1.91,1.91,0,0,0-.52.1,8.22,8.22,0,0,1-.77-.79,9.28,9.28,0,0,1-1.66-2.89,10.5,10.5,0,0,1-.49-1.91,1.75,1.75,0,0,1-1.8,1.2c0-.12,0-.28-.11-.31-.28.31-.65.62-1.6.28A12.72,12.72,0,0,0,46,33.91,12.94,12.94,0,0,0,48.43,38a12.23,12.23,0,0,0,1.08,1.08,1.55,1.55,0,0,0,0,.22,1.7,1.7,0,0,0,.93,1.29,1.31,1.31,0,0,0,1.38-.15,16.07,16.07,0,0,0,3,1.16,13.68,13.68,0,0,0,3.45.55,6.11,6.11,0,0,0,3-1.07,7.73,7.73,0,0,0,1.13-.85l.12-.11a10,10,0,0,1-3.14-.38m-12.79-6a1.25,1.25,0,0,1,0-1,1.21,1.21,0,0,1,.69-.66,1.23,1.23,0,0,1,1,0,1.38,1.38,0,0,1,.7.76,1.54,1.54,0,0,1,.1.51,1.18,1.18,0,0,1-.11.5,1.25,1.25,0,0,1-.7.67,1.21,1.21,0,0,1-.95,0,1.36,1.36,0,0,1-.7-.75m2,3.54-.42-.6.73-.51-.41-.58-.73.51-.42-.59,2-1.42.41.59-.72.51c0,.07.36.51.4.58l.73-.51.42.6Zm4.57-.1L53,37.06a.62.62,0,0,0-.9,0,3.78,3.78,0,0,0-.39.41l-.18.21.12.1c.35.28.4.58.3.76a.27.27,0,0,1-.18.13.89.89,0,0,1-.66-.16L51,38.45l-.08.12a.33.33,0,0,1-.06.1l-.09.14a1.32,1.32,0,0,0-.22.62.5.5,0,0,0,0,.12.61.61,0,0,0,.34.36L51,40l.53.31a.92.92,0,0,1-.92,0,1.38,1.38,0,0,1-.76-1,2.83,2.83,0,0,1,.51-1.42l0-.08,0-.08a2.53,2.53,0,0,1-.23-.47,4.76,4.76,0,0,1,.52.1l.08,0,.07-.07a2.67,2.67,0,0,1,1.57-.94,1.13,1.13,0,0,1,.84.42,1.24,1.24,0,0,1,.31.64l-.3-.21m1.09,3.21a.72.72,0,1,1,.72-.72.71.71,0,0,1-.72.72m3.18,1a.66.66,0,1,1,.66-.66.67.67,0,0,1-.66.66"/></g><g id="g364"><path id="path366" d="M48.32,33.34h0a.64.64,0,0,0,0-.24.56.56,0,1,0-1.05.4.58.58,0,0,0,.31.34.61.61,0,0,0,.42,0,.54.54,0,0,0,.37-.5"/></g><g id="g368"><path id="path370" d="M48.68,22.57a.51.51,0,0,0-.72.24.52.52,0,0,0-.05.42.51.51,0,0,0,.26.3.52.52,0,0,0,.4,0,.55.55,0,0,0,.32-.28.56.56,0,0,0-.21-.73"/></g></g><g id="g372"><path id="path374" d="M63.2,21.32l.14.18.13-.25Z"/></g><g id="g378"><g id="g384"><path id="path386" d="M66.66,26.25l-.22-.46h0l-.14.19-.07.11.15,0,.29.1"/></g><g id="g388"><path id="path390" d="M66.45,29.43s.1,0,.1-.12v-.14h-.2v.12a.17.17,0,0,0,0,.12.2.2,0,0,0,.07,0"/></g><g id="g392"><path id="path394" d="M54,17.8a.56.56,0,0,0-.44,0,.58.58,0,0,0-.35.29.61.61,0,0,0,0,.44.6.6,0,0,0,1.08,0,.59.59,0,0,0,.05-.23.46.46,0,0,0,0-.19A.56.56,0,0,0,54,17.8"/></g><g id="g396"><path id="path398" d="M67.82,28a2.29,2.29,0,0,1-.71-.83L65.8,26.7a1.07,1.07,0,0,0-.17-.06l-1,.27-.19-.7,1-.27.09-.12c.15-.2.42-.56.55-.7-.26-.46-.5-.89-.66-1.16a1.4,1.4,0,0,1-.23-.72l-.93.49c0,.08.4.83.4.83l-.62.31-.73-1.48,2.22-1.09.09.19a2.2,2.2,0,0,0,.17-.25A1.71,1.71,0,0,1,66,22a12.2,12.2,0,0,0-1.5-2.06,11.94,11.94,0,0,0-2.29-2,1.67,1.67,0,0,0,.9-1.42,1.25,1.25,0,0,0-.47-1,13.16,13.16,0,0,1,2-4.15l-1.52-.65a2.4,2.4,0,0,1,.33,1.72,2,2,0,0,1-.85-1.15,7.07,7.07,0,0,1-.56,1.66,1.37,1.37,0,0,1,1.24-.12,1.82,1.82,0,0,1-1.91.64c-.54-.13-1.08-.42-1.06-.84a.51.51,0,0,1,.54-.51c.33,0,.35.53.25.76.43-.25.88-1.52.2-1.72-.53-.14-1,.59-1.2,1.16-.1-.68-.38-1.34-.92-1.3-.7,0-.48,1.34-.23,1.67,0-.45.29-.69.5-.67s.43.14.39.55-.63.67-1.31.67a1.65,1.65,0,0,1-1.87-1.43,2.27,2.27,0,0,1,1.35.81,8,8,0,0,1,0-2.07,2.16,2.16,0,0,1-1.33.81,2.47,2.47,0,0,1,1.1-1.43H55.09a2.48,2.48,0,0,1,1.1,1.43,2.14,2.14,0,0,1-1.31-.81,8,8,0,0,1,0,2.07,2.34,2.34,0,0,1,1.33-.81,1.66,1.66,0,0,1-1.88,1.44c-.67,0-1.26-.25-1.3-.67s.2-.54.39-.56.46.23.5.68c.24-.33.47-1.62-.23-1.67-.54,0-.82.61-.92,1.29-.18-.56-.67-1.3-1.21-1.15s-.22,1.47.21,1.71c-.1-.22-.09-.73.24-.76a.52.52,0,0,1,.54.52c0,.42-.52.7-1.06.83a1.78,1.78,0,0,1-1.9-.63,1.39,1.39,0,0,1,1.25.11,6.57,6.57,0,0,1-.56-1.65,2,2,0,0,1-.87,1.16,2.38,2.38,0,0,1,.33-1.73l-1.52.64a13.22,13.22,0,0,1,2.05,4.16,1.31,1.31,0,0,0-.45,1,1.68,1.68,0,0,0,.9,1.42,11.29,11.29,0,0,0-2.29,2A12.86,12.86,0,0,0,46,24l-.09.22.51.53a.14.14,0,0,1,0-.06,1.36,1.36,0,0,1,.47-.54l.76.31c-.31.22-.7.53-.62.61s.2-.11.28-.16a1,1,0,0,1,1-.28.77.77,0,0,1,.42.41.76.76,0,0,1,0,.61,1.47,1.47,0,0,1-.57.62L47.52,26a2.06,2.06,0,0,0,.6-.58c0-.06,0-.11,0-.12s-.21.08-.35.19a1.38,1.38,0,0,1-.52.28A2.55,2.55,0,0,1,47.8,27a2,2,0,0,0,.54,1.43c.55.7,0,.64.47,1.5a5.85,5.85,0,0,1,0-.73h7.57v8.26a1,1,0,0,0-.9.36c.87.35,1.75.67,2.59.93a2,2,0,0,1,.49-1.14s-1.14-.12-1.73-.15V29.17h7.39a10.1,10.1,0,0,1-.6,3.3,9.17,9.17,0,0,1-1.66,2.89,8,8,0,0,1-2.45,1.93,1.63,1.63,0,0,0-.52.77,2.57,2.57,0,0,0-.23.82c.35.1.42.17.75.25,2.59.66,3.27.53,3.42.41h0A12.33,12.33,0,0,0,64.52,38,13,13,0,0,0,67,33.93a14.22,14.22,0,0,0,.89-5c0-.33,0-.64,0-1M64.26,20.3l.3.38-1.31,2.54-.47-.66.23-.44-.47-.61-.42.13-.59-.55Zm-1.7-1.61L63,19l-1.49,2-.6-.42.76-1-.73.19-.12-.78-.7,1-.64-.34,1.44-2.07.49.26.16,1Zm-12.19-2.2c0-1.44,4.05-1.56,6.11-1.56h0c2.06,0,6.11.12,6.11,1.56,0,.4-.26.74-.84,1.08a9.47,9.47,0,0,0-5.27-1.41,9.47,9.47,0,0,0-5.27,1.41c-.59-.34-.84-.68-.84-1.08m8.65.56-.49,2.49-.71-.14.49-2.49ZM55.38,19l-.31.68a3,3,0,0,1-1.25-.05,1.27,1.27,0,0,1-1.31-1.76,1.43,1.43,0,0,1,.8-.7,1.27,1.27,0,0,1,1.65.75,1.2,1.2,0,0,1,.08.42,1.33,1.33,0,0,1-.21.69,1.84,1.84,0,0,0,.55,0m-4.77-.33.45.5-.49.45,1.15,1.24-.52.48-1.15-1.24-.49.45L49.1,20Zm-1.82,1.76,1.86,1.46-.44.55-1.86-1.46Zm0,3.87a1.22,1.22,0,0,1-1.5-.79,1.35,1.35,0,0,1,.84-1.61,1.23,1.23,0,0,1,.92.09,1.16,1.16,0,0,1,.59.71,1,1,0,0,1,.06.35,1.29,1.29,0,0,1-.17.62,1.21,1.21,0,0,1-.74.63m0,4.47a10.4,10.4,0,0,1,.61-3.34A9.4,9.4,0,0,1,51,22.49a7.82,7.82,0,0,1,2.45-1.94,6.64,6.64,0,0,1,2.85-.69v8.86Zm7.71-9.39a1,1,0,0,1-1.09-1V16.86l.73,0v1.42c0,.2,0,.23.06.26a.34.34,0,0,0,.29.1.42.42,0,0,0,.32-.1s.06-.1.06-.3v-1.4h.73v1.46a1,1,0,0,1-.27.72,1.11,1.11,0,0,1-.83.32m.31,9.39V19.86a6.67,6.67,0,0,1,2.68.7,7.54,7.54,0,0,1,2.45,1.94,9.23,9.23,0,0,1,1.66,2.88,10.17,10.17,0,0,1,.6,3.34Zm6.21,10-.49-.48.6-.62L63,37.44,62.4,38l-.5-.48.58-.6-.14-.14-.64.61-.5-.49,1.15-1.12,1.76,1.73Zm2-2.24a1.42,1.42,0,0,1-.58.42h0l-.69-.47c.72-.22.77-.43.73-.46s-.15,0-.29.1a1,1,0,0,1-1.05,0,.76.76,0,0,1-.33-.48.8.8,0,0,1,.13-.6,1.43,1.43,0,0,1,.69-.49l.69.47-.11,0a1.32,1.32,0,0,0-.67.36.23.23,0,0,0-.05.1l0,0s.24,0,.38-.11a.94.94,0,0,1,1,0,.72.72,0,0,1,.32.47.68.68,0,0,1,0,.14.94.94,0,0,1-.17.51m1.46-3L64.94,34l1.13.46-.26.66-2.29-.93.21-.52,1.51-.53-1.12-.45.26-.65,2.3.92Zm.39-1.19-.68-.12.16-.85-.18,0-.15.81L65.32,32l.15-.82-.2,0-.16.87-.68-.12.29-1.59,2.43.44Zm.39-3A.87.87,0,0,1,67,30a.82.82,0,0,1-.57.21.72.72,0,0,1-.54-.22,1,1,0,0,1-.23-.67v-.12l-.88,0v-.72l2.47.05Z"/></g><g id="g400"><path id="path402" d="M36.87,46.52l-.15.08.62,1,.16-.09c.55-.29.48-.66.34-.88-.29-.45-.64-.32-1-.15"/></g><g id="g404"><path id="path406" d="M70.63,43.31a.13.13,0,0,0,.09-.07.25.25,0,0,0,0-.07.21.21,0,0,0-.11-.16l-.21-.12-.16.28.18.11a.22.22,0,0,0,.19,0"/></g><g id="g408"><path id="path410" d="M67.38,43c.48.12.79,0,1-.43s0-.62-.53-.78h0l-.19,0c0,.12-.41,1.17-.43,1.21l.17,0"/></g><g id="g412"><path id="path414" d="M72.29,45.66a.69.69,0,0,0,.94-.22A.59.59,0,0,0,73.3,45a.66.66,0,0,0-.31-.39.76.76,0,0,0-.54-.09.68.68,0,0,0-.49.79.69.69,0,0,0,.33.39"/></g><g id="g416"><path id="path418" d="M60,51.29a.67.67,0,0,0-.5-.17.71.71,0,0,0-.53.21.66.66,0,0,0-.2.49.57.57,0,0,0,.2.46.72.72,0,0,0,.51.18.79.79,0,0,0,.52-.21.68.68,0,0,0,.2-.5.58.58,0,0,0-.2-.46"/></g><g id="g420"><path id="path422" d="M77.45,49.31c1.41,0,2.67-1.79,4.43-2.57-4.46,1.3-10.62-6.26-14.81-6.26a3.26,3.26,0,0,0-3.21,2.07c-.71,1.72-1.49,2.28-1.49,3.05S63,46.77,64,47.31c.66.35,1.34.54,1.3,1.17A22.65,22.65,0,0,1,56.48,50a22.75,22.75,0,0,1-8.82-1.48c0-.63.65-.82,1.31-1.17,1-.54,1.62-1,1.62-1.71s-.78-1.33-1.49-3.05a3.27,3.27,0,0,0-3.21-2.07c-4.19,0-10.35,7.56-14.81,6.26,1.76.79,3,2.57,4.43,2.57,3.62,0,7.8-5.43,11.73-5.43h.17c-.92,1.13-2.19,1.37-2.19,2.51,0,.81.69,1.29,1.17,2.37A12.71,12.71,0,0,1,47,50.86c.23.84.81,3,9.48,3s9.25-2.13,9.47-3a12.71,12.71,0,0,1,.61-2.09c.48-1.08,1.18-1.56,1.18-2.37,0-1.14-1.28-1.38-2.19-2.51h.17c3.92,0,8.11,5.43,11.73,5.43m.6-2.6-.36.63L76.86,47l-1,1.61-.7-.31,1-1.66-.7-.41.35-.64c.57.35,1.72.94,2.21,1.16m-2.46-1.35L74.16,47.7l-.68-.41L74.92,45Zm-3.33-1.61a1.5,1.5,0,0,1,1.09.18,1.43,1.43,0,0,1,.7.85,1.49,1.49,0,0,1,0,.36,1.36,1.36,0,0,1-.21.69,1.33,1.33,0,0,1-.89.63,1.54,1.54,0,0,1-1.1-.18,1.43,1.43,0,0,1-.68-.84,1.27,1.27,0,0,1,.16-1,1.4,1.4,0,0,1,.88-.64M71,42.42h0a1.19,1.19,0,0,1,.41.4.74.74,0,0,1,0,.77.6.6,0,0,1-.63.36,3.62,3.62,0,0,1,0,.4c0,.57.11,1.19.11,1.2L70.11,45,70,44.23c0-.29,0-.41-.12-.46l-.5.84-.68-.36,1.36-2.37c.21.12.72.41.92.54m-3.88-1.6,1,.26a1.19,1.19,0,0,1,.91,1.66,1.48,1.48,0,0,1-2,.91l-.91-.23ZM37.86,48.2l-.8.43-1.37-2.3.84-.46a1.8,1.8,0,0,1,.79-.25,1.3,1.3,0,0,1,.68.19,1.32,1.32,0,0,1,.52.5,1.29,1.29,0,0,1-.66,1.89M39.94,47,38.5,44.66l.64-.42,1.44,2.3Zm1.52-1L40,43.65l1.51-1,.39.62-.87.58.13.22.84-.57.38.62-.83.56.15.24.89-.59L43,45Zm3.1-1.75A1.07,1.07,0,0,1,43,43.62l-.65-1.45.7-.36.65,1.47c.15.31.3.4.58.26s.34-.31.22-.59l-.68-1.54.77-.26.63,1.5a1.07,1.07,0,0,1-.66,1.55m2.76,4.11c-1-.54-1.64-1.18-1.64-1.84,0-1.06,1.68-1.68,2.34-2.51,1,.17,2.31.64,2.31,1.51,0,1-3.3,1.45-3,2.84m1.72,4-.15-2.78c.43.13,1.36.37,1.84.46l0,.76-1-.23a2.27,2.27,0,0,0,0,.24l1,.24,0,.77-.95-.24s0,.22,0,.3a9.61,9.61,0,0,0,1,.26l0,.77A8.66,8.66,0,0,1,49,52.29m4.32-1.19-.81-.1v2.11L51.76,53V50.89L51,50.76V50c.69.12,1.63.25,2.39.34Zm4.4,2.19H57V51.81l-.66.78-.66-.78V53.3l-.78,0V50.46l.66,0,.79,1,.76-.95h.67v2.81Zm2.85-.5a1.68,1.68,0,0,1-1.11.44,1.54,1.54,0,0,1-1.07-.38,1.32,1.32,0,0,1-.44-1,1.44,1.44,0,0,1,.44-1.06,1.55,1.55,0,0,1,1.08-.44,1.49,1.49,0,0,1,1.1.37,1.33,1.33,0,0,1,.45,1,1.39,1.39,0,0,1-.45,1m3.27-.47-.59.21-1.16-1.18c0,.29-.09,1.51-.09,1.51l-.77.15.17-2.9L62,50l1.18,1.2c0-.29.09-1.47.09-1.47l.77-.21Zm3.4-5.85c0,.66-.6,1.3-1.64,1.84.29-1.39-3-1.82-3-2.84s1.32-1.34,2.31-1.51c.66.83,2.35,1.45,2.35,2.51"/></g></g></g><path d="M29.07,57.06H44.89v2.47h-13V69.59H43.7V72.1H31.87V83.34h-2.8Z"/><path d="M57.34,83.64a8.68,8.68,0,0,1-6.06-2.39,7.94,7.94,0,0,1-1.8-2.64,8.55,8.55,0,0,1,0-6.54,8,8,0,0,1,1.8-2.65A8.34,8.34,0,0,1,54,67.64,8.84,8.84,0,0,1,57.34,67a8.67,8.67,0,0,1,3.31.64,8.36,8.36,0,0,1,2.67,13.61,8.49,8.49,0,0,1-6,2.39Zm0-2.3a5.8,5.8,0,0,0,2.31-.45,5.23,5.23,0,0,0,1.8-1.26,5.55,5.55,0,0,0,1.16-1.9A6.89,6.89,0,0,0,63,75.34,6.8,6.8,0,0,0,62.61,73a5.51,5.51,0,0,0-1.16-1.89,5.37,5.37,0,0,0-1.8-1.26,5.8,5.8,0,0,0-2.31-.45,6,6,0,0,0-2.35.45A5.44,5.44,0,0,0,52,73a6.58,6.58,0,0,0-.42,2.38A6.67,6.67,0,0,0,52,77.73a5.42,5.42,0,0,0,1.17,1.9A5.21,5.21,0,0,0,55,80.89,6,6,0,0,0,57.34,81.34Z"/><path d="M70.49,67.34h2.7l-.08,3.13a5.44,5.44,0,0,1,2-2.63,4.89,4.89,0,0,1,2.68-.8,5.25,5.25,0,0,1,1.57.2,4.15,4.15,0,0,1,1.2.57l-1,2.36a3.57,3.57,0,0,0-.92-.44,4.46,4.46,0,0,0-2.89.13,3.49,3.49,0,0,0-1.33,1,4.81,4.81,0,0,0-.88,1.67,7.87,7.87,0,0,0-.32,2.43v8.41h-2.7v-16Z"/><path d="M86,76.23a6.33,6.33,0,0,0,.58,2.09,5.09,5.09,0,0,0,3,2.68,7,7,0,0,0,2.37.38,7.77,7.77,0,0,0,1.66-.17A7,7,0,0,0,95,80.75a6.18,6.18,0,0,0,1.12-.68,7.91,7.91,0,0,0,.9-.82l1.66,1.62a8.22,8.22,0,0,1-2.73,2,9.37,9.37,0,0,1-4,.76A9.49,9.49,0,0,1,88.35,83a8.16,8.16,0,0,1-2.73-1.75,7.72,7.72,0,0,1-1.75-2.63,8.7,8.7,0,0,1-.61-3.28,8.43,8.43,0,0,1,.63-3.27,8.13,8.13,0,0,1,1.76-2.65,8,8,0,0,1,2.63-1.78A8.35,8.35,0,0,1,91.54,67a8.07,8.07,0,0,1,3.44.7,7.38,7.38,0,0,1,2.57,1.93,8.44,8.44,0,0,1,1.58,2.93,10.92,10.92,0,0,1,.45,3.67Zm10.88-2a6.34,6.34,0,0,0-.46-1.93,4.61,4.61,0,0,0-2.64-2.6,6,6,0,0,0-2.22-.38,6.07,6.07,0,0,0-2.09.35,5.26,5.26,0,0,0-1.66,1,5.33,5.33,0,0,0-1.17,1.56,6.39,6.39,0,0,0-.6,2Z"/><path d="M105.64,62.7a2,2,0,0,1-.73-.14,2.12,2.12,0,0,1-.61-.39,1.83,1.83,0,0,1-.43-.59,2,2,0,0,1-.16-.77,2,2,0,0,1,.16-.77,1.92,1.92,0,0,1,.43-.61,1.8,1.8,0,0,1,.61-.4,1.95,1.95,0,0,1,1.45,0,2.1,2.1,0,0,1,.63.4,1.92,1.92,0,0,1,.43.61,1.83,1.83,0,0,1,.16.77,1.8,1.8,0,0,1-.16.77,1.83,1.83,0,0,1-.43.59,2.38,2.38,0,0,1-.63.39A2,2,0,0,1,105.64,62.7Zm-1.34,4.64H107v16H104.3Z"/><path d="M120.3,92a10.56,10.56,0,0,1-2.72-.33,9.31,9.31,0,0,1-2.26-.92,8.3,8.3,0,0,1-1.79-1.42,9.71,9.71,0,0,1-1.35-1.78l2-1.4a7.62,7.62,0,0,0,2.47,2.62,6.53,6.53,0,0,0,3.57.91,7.13,7.13,0,0,0,2.3-.34,4.18,4.18,0,0,0,1.72-1.07,4.89,4.89,0,0,0,1.07-1.87,9,9,0,0,0,.37-2.72V80a6.75,6.75,0,0,1-1,1.44,6.59,6.59,0,0,1-1.38,1.15,6.86,6.86,0,0,1-1.72.76,7.31,7.31,0,0,1-2,.27A7.49,7.49,0,0,1,114,81.26a8.44,8.44,0,0,1-1.65-2.64,9.43,9.43,0,0,1,0-6.62A8.28,8.28,0,0,1,114,69.37a7.64,7.64,0,0,1,2.46-1.74,7.26,7.26,0,0,1,3-.63,7.38,7.38,0,0,1,2.11.28,7,7,0,0,1,1.73.78,6.51,6.51,0,0,1,1.36,1.2,8.57,8.57,0,0,1,1,1.51l-.07-3.43h2.69V83.85a10.05,10.05,0,0,1-.59,3.65A6.76,6.76,0,0,1,126.12,90a6.67,6.67,0,0,1-2.56,1.46A10.88,10.88,0,0,1,120.3,92Zm-.19-10.67a5.8,5.8,0,0,0,2.31-.45,5.31,5.31,0,0,0,1.8-1.24,5.65,5.65,0,0,0,1.16-1.9,6.87,6.87,0,0,0,.41-2.4,6.68,6.68,0,0,0-.41-2.36,5.33,5.33,0,0,0-1.16-1.87,5.43,5.43,0,0,0-1.8-1.23,6,6,0,0,0-2.31-.44,5.77,5.77,0,0,0-2.29.44,5.28,5.28,0,0,0-1.74,1.23A5.22,5.22,0,0,0,115,72.94a6.91,6.91,0,0,0-.39,2.36,7.11,7.11,0,0,0,.39,2.4,5.38,5.38,0,0,0,1.11,1.9,5.17,5.17,0,0,0,1.74,1.24A5.77,5.77,0,0,0,120.11,81.29Z"/><path d="M134.13,67.34h2.69l-.07,3.28a6.13,6.13,0,0,1,2.3-2.67,6.76,6.76,0,0,1,5.88-.5,5.14,5.14,0,0,1,1.89,1.29,5.76,5.76,0,0,1,1.23,2.07,8.34,8.34,0,0,1,.43,2.79v9.74h-2.69V73.91a4.92,4.92,0,0,0-1-3.28,3.73,3.73,0,0,0-3-1.16,5.74,5.74,0,0,0-2,.35,4.44,4.44,0,0,0-1.58,1,4.56,4.56,0,0,0-1,1.59,5.85,5.85,0,0,0-.36,2.12v8.81h-2.69v-16Z"/><path d="M178.35,75.49a15.57,15.57,0,0,0,.84-2.92,19.56,19.56,0,0,0,.29-3.45h2.66a19.55,19.55,0,0,1-.52,4.7,16.39,16.39,0,0,1-1.44,3.88l4.62,5.64h-3.35L178.63,80a10.89,10.89,0,0,1-3.71,2.75,11.72,11.72,0,0,1-8,.43,7.66,7.66,0,0,1-2.63-1.44,6.25,6.25,0,0,1-1.67-2.24,7.18,7.18,0,0,1-.59-2.94,7.55,7.55,0,0,1,.52-2.88A7.85,7.85,0,0,1,164,71.41a11.31,11.31,0,0,1,2.15-1.81c.82-.54,1.71-1.07,2.67-1.6l-.46-.59a8.36,8.36,0,0,1-2.13-5.24,5.58,5.58,0,0,1,.4-2.14,5,5,0,0,1,1.13-1.72,5.34,5.34,0,0,1,1.78-1.14,6.23,6.23,0,0,1,2.33-.42,6,6,0,0,1,2.29.42,5.23,5.23,0,0,1,1.76,1.13A5,5,0,0,1,177,60a5.5,5.5,0,0,1,.4,2.13,5.1,5.1,0,0,1-.34,1.88,6.32,6.32,0,0,1-1,1.65,9.35,9.35,0,0,1-1.53,1.47,18.14,18.14,0,0,1-2,1.34Zm-8.19-5.79c-.78.43-1.49.86-2.14,1.3a8.43,8.43,0,0,0-1.66,1.45,5.53,5.53,0,0,0-1.44,3.89,4.53,4.53,0,0,0,1.42,3.56,5.81,5.81,0,0,0,4,1.27,8.34,8.34,0,0,0,3.71-.82A8.09,8.09,0,0,0,177,77.93Zm1-3a15,15,0,0,0,1.53-1,8.14,8.14,0,0,0,1.17-1.07,4.31,4.31,0,0,0,.76-1.18,3.48,3.48,0,0,0,.26-1.34,3.21,3.21,0,0,0-.23-1.26,2.65,2.65,0,0,0-.62-1,2.75,2.75,0,0,0-.94-.62,3.35,3.35,0,0,0-1.19-.21,3,3,0,0,0-2.18.81,3,3,0,0,0-.82,2.24,4.68,4.68,0,0,0,.4,1.94,7.8,7.8,0,0,0,1.13,1.76Z"/><path d="M41.05,122a14,14,0,0,1-5.24-1,13.1,13.1,0,0,1-4.28-2.77A12.87,12.87,0,0,1,28.64,114a14.51,14.51,0,0,1,0-10.89,12.81,12.81,0,0,1,2.89-4.25,13.24,13.24,0,0,1,4.28-2.76,14.77,14.77,0,0,1,11.38.29,10.77,10.77,0,0,1,4.3,3.81l-2.12,1.55a9.21,9.21,0,0,0-3.36-3,10.29,10.29,0,0,0-5-1.13,10.73,10.73,0,0,0-4.24.83,10.11,10.11,0,0,0-3.35,2.3,10.44,10.44,0,0,0-2.2,3.47,12.34,12.34,0,0,0,0,8.69,10.6,10.6,0,0,0,2.2,3.46,10.08,10.08,0,0,0,3.35,2.29,10.73,10.73,0,0,0,4.24.83,10.54,10.54,0,0,0,5.07-1.17,10.09,10.09,0,0,0,3.59-3.22l2.17,1.51a12.09,12.09,0,0,1-4.51,4A13.65,13.65,0,0,1,41.05,122Z"/><path d="M63.9,122a8.88,8.88,0,0,1-3.35-.64,8.58,8.58,0,0,1-2.7-1.76A8.08,8.08,0,0,1,56,117a8.26,8.26,0,0,1-.65-3.27,8.35,8.35,0,0,1,.65-3.28A8.37,8.37,0,0,1,60.55,106a8.69,8.69,0,0,1,3.35-.64,8.45,8.45,0,0,1,3.31.64,8.06,8.06,0,0,1,2.67,1.78A8.45,8.45,0,0,1,71.67,117a8.18,8.18,0,0,1-1.79,2.63,8.33,8.33,0,0,1-2.67,1.76A8.64,8.64,0,0,1,63.9,122Zm0-2.3a5.61,5.61,0,0,0,2.31-.46A5.34,5.34,0,0,0,68,118a5.6,5.6,0,0,0,1.16-1.91,7.28,7.28,0,0,0,0-4.76,5.81,5.81,0,0,0-1.16-1.9,5.48,5.48,0,0,0-1.81-1.25,5.77,5.77,0,0,0-2.31-.45,6,6,0,0,0-2.35.45,5.42,5.42,0,0,0-1.82,1.25,5.84,5.84,0,0,0-1.17,1.9,7.11,7.11,0,0,0,0,4.76A5.78,5.78,0,0,0,59.73,118a5.28,5.28,0,0,0,1.82,1.25A5.83,5.83,0,0,0,63.9,119.71Z"/><path d="M77.05,105.71h2.7l-.07,3a6.07,6.07,0,0,1,2-2.5,5.15,5.15,0,0,1,3-.86,4.94,4.94,0,0,1,3.1.92,5,5,0,0,1,1.73,2.44,6.51,6.51,0,0,1,2.34-2.5,6.13,6.13,0,0,1,3.19-.86,6.34,6.34,0,0,1,2.37.42A5.07,5.07,0,0,1,99.2,107a5.23,5.23,0,0,1,1.13,1.92,7.48,7.48,0,0,1,.4,2.54v10.25H98.07v-9.89a4.61,4.61,0,0,0-.82-2.95,3.26,3.26,0,0,0-2.71-1,4.61,4.61,0,0,0-1.74.32,3.74,3.74,0,0,0-1.35.94,4.38,4.38,0,0,0-.88,1.54,6.51,6.51,0,0,0-.31,2.11v9h-2.7v-9.89a4.61,4.61,0,0,0-.82-2.94,3.22,3.22,0,0,0-2.67-1,4.66,4.66,0,0,0-1.75.32,3.69,3.69,0,0,0-1.36.94,4.55,4.55,0,0,0-.89,1.54,6.5,6.5,0,0,0-.32,2.11v9h-2.7Z"/><path d="M106.3,105.71H109l-.07,3a6.09,6.09,0,0,1,2.06-2.5,5.15,5.15,0,0,1,3-.86,4.89,4.89,0,0,1,3.09.92,5,5,0,0,1,1.74,2.44,6.37,6.37,0,0,1,2.34-2.5,6.1,6.1,0,0,1,3.19-.86,6.25,6.25,0,0,1,2.36.42,5.11,5.11,0,0,1,1.79,1.21,5.37,5.37,0,0,1,1.13,1.92,7.74,7.74,0,0,1,.39,2.54v10.25h-2.66v-9.89a4.61,4.61,0,0,0-.82-2.95,3.24,3.24,0,0,0-2.7-1,4.62,4.62,0,0,0-1.75.32,3.74,3.74,0,0,0-1.35.94,4.38,4.38,0,0,0-.88,1.54,6.79,6.79,0,0,0-.31,2.11v9h-2.69v-9.89a4.61,4.61,0,0,0-.83-2.94,3.18,3.18,0,0,0-2.66-1,4.71,4.71,0,0,0-1.76.32,3.69,3.69,0,0,0-1.36.94,4.54,4.54,0,0,0-.88,1.54,6.24,6.24,0,0,0-.32,2.11v9h-2.7v-16Z"/><path d="M143,122a8.88,8.88,0,0,1-3.35-.64,8.63,8.63,0,0,1-2.71-1.76,8.13,8.13,0,0,1-2.45-5.9,8.24,8.24,0,0,1,5.16-7.7,8.69,8.69,0,0,1,3.35-.64,8.45,8.45,0,0,1,3.31.64,8.26,8.26,0,0,1,4.45,4.42,8.18,8.18,0,0,1,.66,3.28,8.1,8.1,0,0,1-.66,3.27,8,8,0,0,1-1.78,2.63,8.33,8.33,0,0,1-2.67,1.76A8.64,8.64,0,0,1,143,122Zm0-2.3a5.64,5.64,0,0,0,2.31-.46,5.2,5.2,0,0,0,1.8-1.25,5.44,5.44,0,0,0,1.16-1.91,7.11,7.11,0,0,0,0-4.76,5.49,5.49,0,0,0-1.16-1.9,5.34,5.34,0,0,0-1.8-1.25,5.8,5.8,0,0,0-2.31-.45,6,6,0,0,0-2.35.45,5.32,5.32,0,0,0-1.82,1.25,5.84,5.84,0,0,0-1.17,1.9,7.11,7.11,0,0,0,0,4.76,5.78,5.78,0,0,0,1.17,1.91,5.19,5.19,0,0,0,1.82,1.25A5.83,5.83,0,0,0,143,119.71Z"/><path d="M156.18,105.71h2.7L158.8,109a6.15,6.15,0,0,1,2.31-2.67,6.34,6.34,0,0,1,3.45-.95,6.51,6.51,0,0,1,2.42.44,5.34,5.34,0,0,1,1.9,1.29,5.89,5.89,0,0,1,1.23,2.08,8.6,8.6,0,0,1,.43,2.79v9.74h-2.7v-9.44a4.89,4.89,0,0,0-1-3.27,3.73,3.73,0,0,0-3-1.16,5.82,5.82,0,0,0-2,.35,4.19,4.19,0,0,0-1.57,1,4.38,4.38,0,0,0-1,1.58,5.89,5.89,0,0,0-.36,2.12v8.82h-2.7v-16Z"/><path d="M174.22,105.71h2.94l3.44,8.81q.15.36.27.75c.08.27.15.51.21.74s.12.43.16.6a1.16,1.16,0,0,0,.09.34l.08-.33a5.51,5.51,0,0,1,.16-.6c.06-.23.15-.48.25-.75s.21-.51.32-.75l4.17-9h.36l4.24,9c.12.27.22.54.32.81l.27.78.18.61c0,.17.07.27.08.31a2.82,2.82,0,0,1,.06-.29l.15-.62c.06-.25.14-.51.23-.8a5.08,5.08,0,0,1,.3-.8l3.43-8.77h2.76L192,122.05h-.38l-4.42-9.62c-.11-.23-.21-.47-.31-.72s-.17-.49-.23-.72-.12-.42-.16-.58a1.94,1.94,0,0,0-.07-.29l-.09.29c0,.16-.1.35-.17.58s-.14.47-.23.72-.18.49-.28.72l-4.51,9.62h-.4Z"/><path d="M204.22,114.59a6.39,6.39,0,0,0,.58,2.1,5.11,5.11,0,0,0,1.2,1.62,5.31,5.31,0,0,0,1.79,1.06,7,7,0,0,0,2.37.38,7.77,7.77,0,0,0,1.66-.17,7,7,0,0,0,1.38-.47,6,6,0,0,0,1.12-.68,7.07,7.07,0,0,0,.9-.82l1.66,1.63a8.22,8.22,0,0,1-2.73,2,9.37,9.37,0,0,1-4,.76,9.49,9.49,0,0,1-3.57-.64,8,8,0,0,1-2.73-1.76,7.63,7.63,0,0,1-1.75-2.63,8.61,8.61,0,0,1-.61-3.27,8.43,8.43,0,0,1,.63-3.27,8.21,8.21,0,0,1,4.39-4.43,8.17,8.17,0,0,1,3.26-.64,8.07,8.07,0,0,1,3.44.7,7.26,7.26,0,0,1,2.57,1.93,8.44,8.44,0,0,1,1.58,2.93,10.88,10.88,0,0,1,.45,3.67h-13.6Zm10.88-2a6.48,6.48,0,0,0-.46-1.94A4.55,4.55,0,0,0,212,108a6,6,0,0,0-2.22-.38,6.07,6.07,0,0,0-2.09.35,4.91,4.91,0,0,0-1.66,1,5.08,5.08,0,0,0-1.17,1.56,6.67,6.67,0,0,0-.61,2Z"/><path d="M232.38,111.93a6.74,6.74,0,0,0-.25-2,3.29,3.29,0,0,0-.74-1.33,2.76,2.76,0,0,0-1.17-.74,4.92,4.92,0,0,0-1.59-.24,5.55,5.55,0,0,0-2.8.65A6.38,6.38,0,0,0,224,110l-1.66-1.49a7.71,7.71,0,0,1,2.65-2.26,8.27,8.27,0,0,1,3.88-.83,7.63,7.63,0,0,1,2.48.39,5.54,5.54,0,0,1,2,1.2,5.63,5.63,0,0,1,1.32,2,8,8,0,0,1,.48,2.9v9.81h-2.7l.12-2.4a6,6,0,0,1-2.1,2,6.34,6.34,0,0,1-3.2.74,9.13,9.13,0,0,1-2.36-.29,5.32,5.32,0,0,1-1.85-.9,4.24,4.24,0,0,1-1.22-1.52,5,5,0,0,1-.44-2.16,4.56,4.56,0,0,1,.48-2.14,4.31,4.31,0,0,1,1.3-1.51,6,6,0,0,1,1.93-.89,9.36,9.36,0,0,1,2.36-.29h5v-.38Zm-4.79,2.44a7.15,7.15,0,0,0-1.43.14A3.3,3.3,0,0,0,225,115a2.38,2.38,0,0,0-.78.83A2.6,2.6,0,0,0,224,117a2.41,2.41,0,0,0,1,2.08,4.94,4.94,0,0,0,2.88.71,6.22,6.22,0,0,0,1.75-.24,4.94,4.94,0,0,0,1.46-.7,3.55,3.55,0,0,0,1-1.09,2.81,2.81,0,0,0,.37-1.42v-2Z"/><path d="M240.86,93.8h2.69v27.91h-2.69Z"/><path d="M254.69,122.05a4.87,4.87,0,0,1-1.69-.28,3.34,3.34,0,0,1-1.36-.88,4.38,4.38,0,0,1-.91-1.61,7.64,7.64,0,0,1-.33-2.4V108h-2.47v-2.28h2.47v-5.49h2.66v5.49h4.49V108h-4.49v8.93a5.44,5.44,0,0,0,.14,1.32,2.33,2.33,0,0,0,.37.87,1.22,1.22,0,0,0,.6.46,2.13,2.13,0,0,0,.78.14,3.23,3.23,0,0,0,.81-.09,2.58,2.58,0,0,0,.61-.23,1.7,1.7,0,0,0,.48-.33l.38-.37,1.32,1.83a5.42,5.42,0,0,1-.67.57,4,4,0,0,1-.83.49,4.38,4.38,0,0,1-1,.34A5.9,5.9,0,0,1,254.69,122.05Z"/><path d="M262.42,93.8h2.7v15a5.87,5.87,0,0,1,2.24-2.54,6.38,6.38,0,0,1,3.44-.93,6.51,6.51,0,0,1,2.42.44,5.34,5.34,0,0,1,1.9,1.29,5.89,5.89,0,0,1,1.23,2.08,8.6,8.6,0,0,1,.43,2.79v9.74h-2.7v-9.44a4.89,4.89,0,0,0-1-3.27,3.73,3.73,0,0,0-3-1.16,5.82,5.82,0,0,0-2,.35,4.27,4.27,0,0,0-1.57,1,4.38,4.38,0,0,0-1,1.58,5.89,5.89,0,0,0-.36,2.12v8.82h-2.7Z"/><path d="M41.05,160.38a13.84,13.84,0,0,1-5.24-1,12.87,12.87,0,0,1-7.17-7,14.51,14.51,0,0,1,0-10.89,12.81,12.81,0,0,1,2.89-4.25,13.1,13.1,0,0,1,4.28-2.77,13.84,13.84,0,0,1,5.24-1,14.81,14.81,0,0,1,3.61.44,13.46,13.46,0,0,1,3.23,1.29,13,13,0,0,1,2.74,2,12.24,12.24,0,0,1,2.11,2.68,13.19,13.19,0,0,1,1.36,3.27,14.14,14.14,0,0,1,.48,3.74,13.54,13.54,0,0,1-1.06,5.44,12.75,12.75,0,0,1-7.18,7A14.1,14.1,0,0,1,41.05,160.38Zm0-2.51a10.82,10.82,0,0,0,4.26-.83,10.43,10.43,0,0,0,3.37-2.29,10.56,10.56,0,0,0,2.21-3.47,12.06,12.06,0,0,0,0-8.69,10.56,10.56,0,0,0-2.21-3.47,10.27,10.27,0,0,0-3.37-2.29,10.82,10.82,0,0,0-4.26-.83,10.66,10.66,0,0,0-4.22.83,10.13,10.13,0,0,0-3.36,2.29,10.56,10.56,0,0,0-2.21,3.47,12.34,12.34,0,0,0,0,8.69,10.56,10.56,0,0,0,2.21,3.47A10.28,10.28,0,0,0,36.83,157,10.66,10.66,0,0,0,41.05,157.87Z"/><path d="M60.58,146.36H58v-2.28h2.58v-7.27a7.54,7.54,0,0,1,.32-2.31,4.23,4.23,0,0,1,.91-1.59,3.55,3.55,0,0,1,1.41-.93,5.15,5.15,0,0,1,1.8-.3,5.22,5.22,0,0,1,2.47.53,4.35,4.35,0,0,1,1.58,1.43l-1.77,1.59a4.43,4.43,0,0,0-.38-.46,1.78,1.78,0,0,0-.42-.35,2.18,2.18,0,0,0-.54-.22,2.43,2.43,0,0,0-.7-.09,2.58,2.58,0,0,0-.8.13,1.47,1.47,0,0,0-.63.46,2.2,2.2,0,0,0-.41.84,5.07,5.07,0,0,0-.14,1.27v7.26h4.3v2.29h-4.3v13.71h-2.7V146.36Z"/><path d="M72.86,146.36H70.28v-2.28h2.58v-7.27a7.54,7.54,0,0,1,.32-2.31,4.23,4.23,0,0,1,.91-1.59A3.55,3.55,0,0,1,75.5,132a5.82,5.82,0,0,1,4.27.23,4.27,4.27,0,0,1,1.58,1.43l-1.77,1.59a4.43,4.43,0,0,0-.38-.46,1.78,1.78,0,0,0-.42-.35,2.18,2.18,0,0,0-.54-.22,2.43,2.43,0,0,0-.7-.09,2.63,2.63,0,0,0-.8.13,1.47,1.47,0,0,0-.63.46,2.2,2.2,0,0,0-.41.84,5.07,5.07,0,0,0-.14,1.27v7.26h4.3v2.29h-4.3v13.71h-2.7V146.36Z"/><path d="M85.52,139.43a1.78,1.78,0,0,1-.72-.14,2,2,0,0,1-.62-.38,2.15,2.15,0,0,1-.42-.6,1.76,1.76,0,0,1-.16-.76,1.85,1.85,0,0,1,.16-.78,2.21,2.21,0,0,1,.42-.61,2,2,0,0,1,.62-.4,1.95,1.95,0,0,1,1.45,0,2.13,2.13,0,0,1,.62.4,1.9,1.9,0,0,1,.44.61,2,2,0,0,1,.16.78,1.91,1.91,0,0,1-.16.76,1.86,1.86,0,0,1-.44.6,2.07,2.07,0,0,1-.62.38A1.79,1.79,0,0,1,85.52,139.43Zm-1.34,4.65h2.7v16h-2.7Z"/><path d="M100,160.38a8.36,8.36,0,0,1-3.29-.65A8.22,8.22,0,0,1,94.06,158a7.92,7.92,0,0,1-1.75-2.63,8.83,8.83,0,0,1,0-6.55,8.21,8.21,0,0,1,1.75-2.65,8.12,8.12,0,0,1,2.64-1.77,8.36,8.36,0,0,1,3.29-.64,8.2,8.2,0,0,1,3.67.75,7.71,7.71,0,0,1,2.62,2.1l-1.93,1.58a5,5,0,0,0-1.78-1.5,5.64,5.64,0,0,0-2.57-.54,5.51,5.51,0,0,0-2.31.46A5,5,0,0,0,96,147.83a5.56,5.56,0,0,0-1.11,1.89,7.21,7.21,0,0,0-.38,2.36,6.91,6.91,0,0,0,.38,2.36A5.51,5.51,0,0,0,96,156.32a5,5,0,0,0,1.73,1.24A5.51,5.51,0,0,0,100,158a7,7,0,0,0,1.49-.16,5.86,5.86,0,0,0,1.24-.44,4.43,4.43,0,0,0,1-.65,5.92,5.92,0,0,0,.83-.83l1.87,1.59a8.12,8.12,0,0,1-2.68,2.1A8.6,8.6,0,0,1,100,160.38Z"/><path d="M112.43,153a6.64,6.64,0,0,0,.58,2.1,5.26,5.26,0,0,0,1.2,1.62,5.39,5.39,0,0,0,1.79,1,6.77,6.77,0,0,0,2.37.38,7.12,7.12,0,0,0,1.66-.17,6.39,6.39,0,0,0,1.38-.46,5.66,5.66,0,0,0,1.12-.68,7.91,7.91,0,0,0,.9-.82l1.66,1.62a8.22,8.22,0,0,1-2.73,2,10.41,10.41,0,0,1-7.55.12,8.05,8.05,0,0,1-2.74-1.75,7.77,7.77,0,0,1-1.75-2.63,8.84,8.84,0,0,1-.61-3.27,8.48,8.48,0,0,1,.63-3.28,8.18,8.18,0,0,1,7.65-5.06,8.09,8.09,0,0,1,3.45.7,7.11,7.11,0,0,1,2.56,1.93,8.23,8.23,0,0,1,1.58,2.92A10.92,10.92,0,0,1,126,153Zm10.88-2a6.42,6.42,0,0,0-.46-1.93,4.61,4.61,0,0,0-1-1.56,4.76,4.76,0,0,0-1.61-1A6,6,0,0,0,118,146a5.84,5.84,0,0,0-2.09.35,4.91,4.91,0,0,0-1.66,1,5.15,5.15,0,0,0-1.17,1.55,6.55,6.55,0,0,0-.6,2Z"/><line class="cls-1" x1="1.99" x2="1.99" y2="160.38"/></svg>