<svg id="Layer_1" data-name="Layer 1" xmlns="http://www.w3.org/2000/svg" width="110.86mm" height="44.87mm" viewBox="0 0 314.25 127.2"><defs><style>.cls-1{fill:#007ac2;}.cls-1,.cls-2{fill-rule:evenodd;}.cls-2{fill:#fff;}</style></defs><title>NHS</title><polygon class="cls-1" points="314.25 127.2 314.25 0 0 0 0 127.2 314.25 127.2 314.25 127.2 314.25 127.2"/><polygon class="cls-2" points="30.73 12.27 64.89 12.27 85.87 83.27 86.16 83.27 100.53 12.27 126.35 12.27 104.66 114.65 70.61 114.65 49.21 43.81 48.92 43.81 34.68 114.65 8.86 114.65 30.73 12.27 30.73 12.27 30.73 12.27"/><polygon class="cls-2" points="136.46 12.27 163.88 12.27 155.83 51.44 188.23 51.44 196.3 12.27 223.72 12.27 202.45 114.65 175.03 114.65 184.13 70.8 151.7 70.8 142.61 114.65 115.19 114.65 136.46 12.27 136.46 12.27 136.46 12.27"/><path class="cls-2" d="M295.87,35.45c-5.28-2.49-12.46-4.68-22.58-4.68-10.84,0-19.65,1.6-19.65,9.82,0,14.51,39.75,9.1,39.75,40.19,0,28.31-26.26,35.65-50,35.65-10.56,0-22.73-2.51-31.67-5.3h0l6.45-20.83h0c5.42,3.53,16.28,5.88,25.22,5.88,8.52,0,21.85-1.62,21.85-12.18,0-16.43-39.75-10.27-39.75-39.15,0-26.41,23.18-34.33,45.63-34.33,12.62,0,24.48,1.33,31.38,4.55h0l-6.61,20.38Z"/></svg>