<svg id="Calque_1" data-name="Calque 1" xmlns="http://www.w3.org/2000/svg" width="160.25mm" height="49.65mm" viewBox="0 0 454.26 140.75"><defs><style>.cls-1{fill:#231f20;}</style></defs><title>WHO</title><path class="cls-1" d="M191.25,34.32h-.11l-6,32.6H177l-7.65-39.78h6.51l5.32,30.66h.11L187,27.14h8.46l5.65,30.66h.11l5.53-30.66H213l-7.82,39.78h-8.3Z" transform="translate(0 -1.56)"/><path class="cls-1" d="M224.57,37.12c5.7,0,12.27,3.13,12.27,15.09,0,12.31-6.57,15.16-12.27,15.16s-12.32-2.85-12.32-15.16C212.25,40.25,218.87,37.12,224.57,37.12Zm0,25.24c4.34,0,5.32-5.24,5.32-10.15s-1-10.08-5.32-10.08-5.37,5.18-5.37,10.08S220.23,62.36,224.57,62.36Z" transform="translate(0 -1.56)"/><path class="cls-1" d="M241,42.42a40.41,40.41,0,0,0-.22-4.85h6.08c.06,1.77.22,3.59.22,5.36h.11c.81-2.28,2.93-5.81,7.11-5.81a6.65,6.65,0,0,1,1.14.17V43.9a6.75,6.75,0,0,0-1.9-.29c-2.77,0-5.81,1.77-5.81,7.24V66.92H241Z" transform="translate(0 -1.56)"/><path class="cls-1" d="M259.69,24.18h6.73V66.92h-6.73Z" transform="translate(0 -1.56)"/><path class="cls-1" d="M294.5,24.18V61.9a40.65,40.65,0,0,0,.21,5h-6.29a40.87,40.87,0,0,1-.22-4.56H288a7.55,7.55,0,0,1-7.44,5c-6.94,0-9.82-7-9.82-15.1,0-9.57,3.64-15.15,9.66-15.15a7.51,7.51,0,0,1,7.22,4.67h.11V24.18Zm-12.05,38c4,0,5.32-4.5,5.32-10,0-5.7-1.52-9.86-5.21-9.86s-5.05,3.82-5.05,9.69C277.51,58.77,278.54,62.19,282.45,62.19Z" transform="translate(0 -1.56)"/><path class="cls-1" d="M316.67,27.14h6.94V43.33h11.24V27.14h6.94V66.92h-6.94V49.37H323.61V66.92h-6.94Z" transform="translate(0 -1.56)"/><path class="cls-1" d="M367.57,65.49a19.94,19.94,0,0,1-8.36,1.88c-9,0-12.91-6.78-12.91-14.7,0-8.77,4.39-15.55,11.5-15.55,6,0,11.18,3.7,11.18,15.67v1.36H352.81c0,5,1.9,8,7.11,8,4.12,0,6.07-1.31,7.32-2.28Zm-5.1-15.78c0-5.19-1.63-7.81-4.67-7.81-3.53,0-5,3.93-5,7.81Z" transform="translate(0 -1.56)"/><path class="cls-1" d="M375,39.28a18.7,18.7,0,0,1,8.84-2.16c8.68,0,10.69,4.44,10.69,11.79V61.73a38.48,38.48,0,0,0,.38,5.19h-6.08a15.55,15.55,0,0,1-.38-4h-.11c-1.68,2.39-3.8,4.44-7.81,4.44a8.21,8.21,0,0,1-8.36-8.6c0-8,6.19-10,14.71-10h1.35V47.71c0-2.9-1.35-5.58-5.2-5.58A12.56,12.56,0,0,0,375.38,45Zm13.23,13.28h-.59c-5.76,0-9.17,1.25-9.17,5.52,0,2.68,1.68,4.51,4.28,4.51,4,0,5.48-3.14,5.48-8.38Z" transform="translate(0 -1.56)"/><path class="cls-1" d="M401.16,24.18h6.73V66.92h-6.73Z" transform="translate(0 -1.56)"/><path class="cls-1" d="M416.3,31.53,423,29.37v8.2h5.59v5.19H423V58c0,3.13,1.08,4.05,3,4.05a5.16,5.16,0,0,0,2.55-.63v5a9.88,9.88,0,0,1-4.51,1c-5,0-7.81-2.39-7.81-8.54V42.76h-4.45V37.57h4.45Z" transform="translate(0 -1.56)"/><path class="cls-1" d="M432.09,24.18h6.73V41.33H439c1.2-1.82,2.77-4.21,6.95-4.21,6.35,0,8.25,5,8.25,10.88V66.92h-6.73V49.31c0-4.5-1.09-6.38-3.85-6.38-3.53,0-4.78,3.13-4.78,6.89v17.1h-6.73Z" transform="translate(0 -1.56)"/><path class="cls-1" d="M184.14,77.38c7.87,0,15.08,6.15,15.08,20.45s-7.21,20.46-15.08,20.46-15.09-6.16-15.09-20.46S176.27,77.38,184.14,77.38Zm0,35.32c4.39,0,7.92-3.93,7.92-14.87S188.53,83,184.14,83s-7.93,3.93-7.93,14.87S179.74,112.7,184.14,112.7Z" transform="translate(0 -1.56)"/><path class="cls-1" d="M203.76,93.22a42.72,42.72,0,0,0-.22-4.85h6.08c0,1.77.22,3.59.22,5.36h.1c.82-2.28,2.93-5.81,7.11-5.81a6.5,6.5,0,0,1,1.14.17V94.7a6.64,6.64,0,0,0-1.9-.29c-2.76,0-5.8,1.77-5.8,7.24v16.07h-6.73Z" transform="translate(0 -1.56)"/><path class="cls-1" d="M222.37,122.28a17.15,17.15,0,0,0,8.25,2.5c6.35,0,7.38-4.61,7.38-9.23v-2.79h-.11c-1.09,2.28-3,5-7.38,5-3.91,0-9.77-2.74-9.77-14.59,0-8.09,2.77-15.21,10.09-15.21,4.07,0,6,2.45,7.39,5h.21c0-1.54.16-3,.22-4.56h6.08c-.11,1.54-.22,3.08-.22,4.62v21.65c0,9.17-2.66,15.73-12.92,15.73a26.84,26.84,0,0,1-9.6-1.83Zm10.46-9.75c4.23,0,5.92-3.19,5.92-9.85,0-6.16-2.23-9.46-5.43-9.41-3.53.06-4.88,3.48-4.88,9.46C228.44,109.63,230.55,112.53,232.83,112.53Z" transform="translate(0 -1.56)"/><path class="cls-1" d="M251.79,90.08a18.77,18.77,0,0,1,8.84-2.16c8.68,0,10.69,4.44,10.69,11.79v12.82a38.48,38.48,0,0,0,.38,5.19h-6.07a15.1,15.1,0,0,1-.39-4h-.1c-1.68,2.39-3.8,4.44-7.82,4.44a8.2,8.2,0,0,1-8.35-8.6c0-8,6.18-10,14.7-10H265V98.52c0-2.91-1.36-5.59-5.21-5.59a12.5,12.5,0,0,0-7.65,2.85ZM265,103.36h-.6c-5.75,0-9.17,1.25-9.17,5.53a4.15,4.15,0,0,0,4.29,4.5c4,0,5.48-3.14,5.48-8.38Z" transform="translate(0 -1.56)"/><path class="cls-1" d="M278.11,93.22a42.72,42.72,0,0,0-.22-4.85h6.29c.06,1.49.22,3,.22,4.51h.11c1-1.77,2.88-5,7.44-5,6.34,0,8.24,5,8.24,10.88v18.92h-6.72V100.11c0-4.5-1.09-6.38-3.86-6.38-3.53,0-4.77,3.13-4.77,6.89v17.1h-6.73Z" transform="translate(0 -1.56)"/><path class="cls-1" d="M306.26,75.89h6.95v7h-6.95Zm.11,12.48h6.73v29.35h-6.73Z" transform="translate(0 -1.56)"/><path class="cls-1" d="M319.36,111.62,331.3,93.73H319.74V88.37H338v6l-11.72,18h12.1v5.36H319.36Z" transform="translate(0 -1.56)"/><path class="cls-1" d="M344.78,90.08a18.74,18.74,0,0,1,8.84-2.16c8.69,0,10.69,4.44,10.69,11.79v12.82a38.48,38.48,0,0,0,.38,5.19h-6.07a15.12,15.12,0,0,1-.38-4h-.11c-1.69,2.39-3.8,4.44-7.82,4.44a8.2,8.2,0,0,1-8.35-8.6c0-8,6.18-10,14.7-10H358V98.52c0-2.91-1.36-5.59-5.21-5.59a12.5,12.5,0,0,0-7.65,2.85ZM358,103.36h-.6c-5.75,0-9.17,1.25-9.17,5.53a4.15,4.15,0,0,0,4.29,4.5c4,0,5.48-3.14,5.48-8.38Z" transform="translate(0 -1.56)"/><path class="cls-1" d="M372.05,82.33l6.73-2.16v8.2h5.59v5.19h-5.59v15.21c0,3.14,1.09,4,3,4a5.05,5.05,0,0,0,2.55-.63v5a10,10,0,0,1-4.5,1c-5,0-7.82-2.39-7.82-8.54V93.56H367.6V88.37h4.45Z" transform="translate(0 -1.56)"/><path class="cls-1" d="M389,75.89h6.95v7H389Zm.86,12.48h6.73v29.35h-6.73Z" transform="translate(0 -1.56)"/><path class="cls-1" d="M414.05,87.92c5.7,0,12.27,3.13,12.27,15.1,0,12.3-6.57,15.15-12.27,15.15s-12.32-2.85-12.32-15.15C401.73,91.05,408.35,87.92,414.05,87.92Zm0,25.24c4.34,0,5.32-5.24,5.32-10.14s-1-10.09-5.32-10.09-5.37,5.19-5.37,10.09S409.71,113.16,414.05,113.16Z" transform="translate(0 -1.56)"/><path class="cls-1" d="M432.18,93.22a42.72,42.72,0,0,0-.22-4.85h6.29c.06,1.49.22,3,.22,4.51h.11c1-1.77,2.88-5,7.43-5,6.35,0,8.25,5,8.25,10.88v18.92h-6.72V100.11c0-4.5-1.09-6.38-3.86-6.38-3.52,0-4.77,3.13-4.77,6.89v17.1h-6.73Z" transform="translate(0 -1.56)"/><path class="cls-1" d="M88.7,37.45a32.13,32.13,0,0,0-8.16-2.23c0,.25,0,.51,0,.75a31,31,0,0,1,7.77,2.12C88.44,37.88,88.58,37.66,88.7,37.45Zm-7,17.07-1,0-.29.49h-.21l0,1.6,1-.46Zm3.47.64-.35.25-.15-.2-.94,1.58.84-.15,0-.59.65-.64.49-.45-.3-.39Zm1.14-.89H87l.14-.3-.64-.15-.24-.39-.8,0,.4.54v.64Zm-5.94,23.5.1.39,0,.18c1.61-.79,1.84-1.25,1.82-1.46,0-.63-1-1.29-2.34-1.93,0,.49,0,.92,0,1.3l.27.29-.27.1c0,.3,0,.57,0,.8a3.75,3.75,0,0,0,.47-.17Zm.59-1.64h0l-.06,0ZM52.06,69.24l.43,1.12-.27.37.11.58-.16.86-.32.21.53,1.38.16-.05-.16-1.23.43-2.07-.32-1.06ZM52.49,74l-.21.16-.16.22-.37-.8-.16.16.16.69.21.43-.16.26.42.53.27.59.21-.06.06-.9-.22-.48Zm27,25v0h0ZM71.25,56.91l.06.33a11.75,11.75,0,0,0-1.84,1.18,3.87,3.87,0,0,0,.88,2.36,4.22,4.22,0,0,0,.92.86l1-.46-.08-4.52-.35,0,.1-.53.24-.37v-.45l-.23.18-.47.74Zm0,1.33,0-.14.06,0ZM50.9,42.67a7.33,7.33,0,0,1,.18-.87l-.43-.43a3.89,3.89,0,0,1-1,.08ZM68.08,70.86l-.65-.25,0,.6Zm-.67-.26L67,70.42l-.08,1Zm37.86.83-1.39.5.35.54,1,.1Zm20.08-25.11A53.56,53.56,0,0,0,96.94,17.91,52.57,52.57,0,0,0,81.22,14c0,.26-.08.51-.11.73a52.33,52.33,0,0,1,32.14,15.06l-6.14,6.14,0-.43-.5,0L106,35.2l-.91-.25,1.26-.2-.25-.35h-.7l.2-.56L105,32.33l-1.61-2-1.57-1-.86-.51-.65.16v-.41l-1.52-.65-.59.55A12.61,12.61,0,0,1,100,34.06a17.62,17.62,0,0,1-.18,3.81l.51-.29,1.61,2.92-1.11.1.79.82L99.7,43.3l-1-1.2.09-.89a14.84,14.84,0,0,1-.9,1.78l.12.25,1.18.15.12.25-.57.57c-.33-.32-.67-.64-1-1-.13.21-.27.42-.41.63.3.28.61.56.9.85l-6.93,6.94a20.76,20.76,0,0,0-1.8-1.58l-.77.34a21.47,21.47,0,0,1,2,1.76l-.89.9v0l.14-.49-.69.19-.74-.09v-.6l-.79.5-.84.79.39.25.84-.55.85.3v.15l.56-.15-1.94,1.95-2.29.47-.64.84-.44.3,0,.44.34-.05.35.3-.07.5-.17.16-.55-.11-1.31.2c-.26-.19-.52-.38-.78-.55l-.09-.1-.37-.17a10.53,10.53,0,0,0-1.44-.68l0,2.81c0,.9,0,1.73,0,2.55l.31-.16.26.26-.58.58c0,.37,0,.72,0,1.07l1.11-1.1-.23.78.33.11L81.49,65l.63.63-1.48-.8-.12.57a30.86,30.86,0,0,1,6.73,3.56c3.25,2.44,4.92,5.82,4.47,9a8.28,8.28,0,0,1-3.88,5.77l.07.25-.45.54-.79.1-.3.5-1.53.64-1.39,0-.39.59.25.4h0l-.56.2-1,.09-.24-.39-1.09.15h0l-.6.21v.77c0,.23,0,2-.12,4.48,3.52,1.76,7.88,4.65,7.69,12.31a9.27,9.27,0,0,1-.48,2.41h0l1.52.44a42.18,42.18,0,0,1-9.25,1.71l0,.74A43,43,0,0,0,88.93,108l.66.22.69.59.85-.33,1.33-.31.54-.5,1.49-.64L96,106l1.68-1.68.08-.21A42.62,42.62,0,0,0,106,97.8l6.92,6.92a52.54,52.54,0,0,1-73.62,0l6.92-6.92a42.57,42.57,0,0,0,27.09,12.07l0-.75A41.78,41.78,0,0,1,46.79,97.26l1.47-1.48,1.25,1.1,2.61-.21,1.06-1.07,1.44.05,1.32.16.7-.53-.06-.64-.74-.85L54.94,92,54,91.67l-.56-1.09.34-.35a32,32,0,0,0,19.24,8.9c0-.26,0-.51,0-.75a31.21,31.21,0,0,1-18.69-8.67l6.93-6.94A21.77,21.77,0,0,0,67.57,87c.06-.25.12-.5.2-.74a21.13,21.13,0,0,1-6-4l7-7a11.11,11.11,0,0,0,3.81,2.25V76.7a10.38,10.38,0,0,1-3.27-2l.46-.46.24,0,.43-.42.93.12.55-.3.6-.06,0-1.25-2.14-.69-.07.07-.88.15-.63.87-.28,1.12,0,.07a10.18,10.18,0,0,1-2-3.35l.07-.32a17.44,17.44,0,0,1-1.78-.93l-.48.24-.53-.32-.8.32-.42-.37.48-.48.63-.13a10.9,10.9,0,0,1-4.2-6.48,14.53,14.53,0,0,1-.39-4.81l-1,.36-.62.07a21.25,21.25,0,0,1,2.32-3.6,12.53,12.53,0,0,1,1.23-2.49L61,51.7l-6.93-6.94A31.18,31.18,0,0,1,71.65,36c0-.24,0-.49,0-.74a31.91,31.91,0,0,0-18.12,9l-1.68-1.68a0,0,0,0,1,0,0c-.13.27-.23.51-.32.71L53,44.77A31.94,31.94,0,0,0,44,67H34.05A41.84,41.84,0,0,1,46,37.75l2.73,2.73a3.17,3.17,0,0,0,.62,0l.39-.05L46.5,37.21a42.74,42.74,0,0,1,7-5.62,6,6,0,0,1,.57-1.23A42.57,42.57,0,0,0,46,36.69l-6.92-6.92A52.32,52.32,0,0,1,71.11,14.7L71,14A53.4,53.4,0,0,0,55.38,116.28a53.42,53.42,0,0,0,70-70ZM46.26,96.74c-.75-.75-1.45-1.53-2.12-2.32l.64.28.64-.37,1.76,1.11.29.09Zm1.13-23.51-1.12.26L45.79,73l-.32-.22-.28-.39a32.55,32.55,0,0,1-.45-4.66h4.19l0,.22-.59,1-.37,0-.69,2.23.64,1Zm3.13,14-.1-.27.53.09.31.39Zm2.59,2.63-.4-.78c.19.2.37.41.57.61Zm.7-.7c-.62-.62-1.2-1.27-1.76-1.93h0l.32-1.12-.05-1.28-1-1.75v-1.8L51,80.14l.26-.48-1.06-1.92.11-.69-.59-1.11-.58-.16,1-.16-.27-.37-.64-1.39L48,73.54l.26-.9-.42-1.43L48.4,70l1.33-.1.37-.64L50,67.75h.84l.52.16.64.32,0-.48h2.6c0,.67.08,1.33.16,2l0,0-.59,0-.85,1,.75.16.8-.49a21.58,21.58,0,0,0,6,11.9Zm-2.91-23,.26-1.75,1.44-.75,1.7.43.35.65A20.36,20.36,0,0,0,54.53,67H51.91V66.8Zm7.44,5.37,1,.42.69.85.32-.21,1.17.75.42.53-.8-.32-.16.32.69.37.75.59V74.5l-.16-.58.32-.53.37-.22-.74-.9.85.43.53.69.37,1,.74.16-1.59.27L63.7,76l.54.06.1-.54-.16-.63.69-.05.54-.91.21-1.33.37-.16.33-.52a11.22,11.22,0,0,0,1.94,2.77l-7,7a20.84,20.84,0,0,1-5.78-11.68l.4,0,1.33,1.33ZM57,58.78c.06-.14.11-.27.18-.41l.19,0-.21.42ZM53.53,45.29l6.93,6.94A22.14,22.14,0,0,0,56.54,58l-.38-.07.32-.42-.8.69-.64.42-.16-.26-1.11.42,0,.43.58-.38,1,0,.9-.24-.15.33L55,59.67l-.27-.26-1.38,1-1.22-.21-.8.95L50.1,63.87l.21.75L49.3,66l-.16,1V67h-4.4A31.2,31.2,0,0,1,53.53,45.29ZM44,67.75a33.15,33.15,0,0,0,.4,4.48L43.88,72v.69l-.37-.16L43.19,72l-.74.32-.11.64-1.7,2.6-.48.11L40,80l-1.23.58-.37-.16-.58.27-1.38-.11-.15-.06a41.9,41.9,0,0,1-2.17-12.75ZM27.66,46.61A52.46,52.46,0,0,1,38.53,30.3l6.92,6.92A42.6,42.6,0,0,0,33.31,67H23.52A52.49,52.49,0,0,1,27.66,46.61Zm0,41a52.22,52.22,0,0,1-4.12-19.84h9.78a42.76,42.76,0,0,0,2.1,12.64l-.73.49-1.92-1.06-.42.42L31.82,80l-.32.26.21.69-1.12-.05L30,80.51l.05-.59-.16-.48h-.32l0,.54,0,.32-.26-.11-.8.37L29,81l-.69-.16L28,81.2l.37.16h-.48v.79l.22.43.26.21h-.42l.21.69.42.16.16.27.27.48.16.42-1-.58.37,1-.63-1.38v.9l.58,1.38L29,87.31l1.49,2.92-.16-.58-1.17-2.82V85.77l.58-1,1.92,2.29.26-.21-.32-1.44.38.27.58,1,1,.26.42.64.37.05L34,86.89l.31-.43.32,1.12.69,1.11.64-.1,1.7,2.87,1,.26.27-1.17.37.48,1.43,2.07,1.79.48a45.14,45.14,0,0,0,3.25,3.69l-6.92,6.91A52.45,52.45,0,0,1,27.66,87.59Zm86.11-57.31A52.46,52.46,0,0,1,128.8,67H119a42.55,42.55,0,0,0-3.36-16.59c-.22-.51-.45-1-.68-1.51l.25-.53.55.35.2-.61-3.28-5.35-.7-.2L107.14,37v-.11ZM99.32,44.72l.85.94.45-1.38-.69-.1v-.06L102.09,42l1.42,1.47,1.36-.1.45.76.16,1.16,2.72,1.61.76-.1,1.82,2.07.4,1.06,1.26,1.31,1.47-.05.64-1.37A41.87,41.87,0,0,1,118.27,67h-9.93a33.15,33.15,0,0,0-.5-5.57l.45-.69h.24l.55-2.33-.4-.1.1-.39-1,0-.2-.25-.19.45.59.49-.44.15-.17.44c-.24-.95-.52-1.89-.84-2.81l.56-.85-.15-1-.49-.09-.2-1.09.3-.25-.55-.74-.94.1-.31-.21c-.21-.4-.43-.79-.65-1.18h1l-.2-.49.65-.2V50l-.45,0-.64.49-.2-.2.54-.84-.44-.3-.54.8-.66-.33c-.53-.8-1.09-1.58-1.69-2.34l0-.2-.09.11c-.65-.81-1.34-1.6-2.07-2.36ZM101.76,64l1.38-.89,1.68-.15.45-.94.54-.29.74-1.29.19-.66c.05.24.11.49.16.73l-.3.77.1.2-.39.79,0,.4-.79,1.09.14.69.3.05.79-1.24v-.74l.4-.1,0-.06a31,31,0,0,1,.35,4.64h-7.47l-.19-.13,0-.59.64-.25.49-.69,1.19-.15v-.49Zm2-13.65,0,.12-.12-.2Zm-5-5.09a31.63,31.63,0,0,1,2.1,2.4l-.4.22L100,48l.69.19.32-.27c.31.4.61.8.9,1.21h-.33v.2l.35.1,1,1.63.29.15c.13.21.24.42.36.63v.66l-.7.74-.19-.54-.6-.1.25.64-.44.44,1.08.4.45.64.89.25.05.4.79.2.15,1.23.48-.07c.27.8.52,1.61.73,2.44h0l-.5.84-.69.34-.5,1.44-1.28.74-.45-.79.4-1.88.59-.45-2-1.53-1,.54-.94,1.93-1-.54L98.89,59l.54-.25.25.35.44-.15-.14-.6-.65-.19,0,.39h-.44l-.5-.74-1.13-1.14L96,55.75l-1.24-.1-.12.17a22.17,22.17,0,0,0-2.77-3.61Zm-8,8,.55-.56.59.66-.63.53-.54-.05-.2-.2.44-.29Zm0,4.69.84-.3L90.68,57l.54-.64-.1-.35.89-.4-.84-1-1,.9L90,56.2l-.64-.3-.69.1-.2-.44h0L90.1,54l.13.17,1.39.05.47-.57a22.49,22.49,0,0,1,1.82,2.5h0l-.69,1.48L92.11,57l-.3,0,.3.59.35.25-.35.84-.15-.4Zm6.28,27.9-1.65,1.29-.23.19L95,87.11h-.79l-1.14.25L92,86.92h-.54l-.84-.65-.55,0-.49-.44-.79,0-.4-.55-.35-.13.08-.05.47.08v-.24l1.14.2.39.24,1.24.2.1.3h1l1.33.39.39.63.8,0,.59-.65.5-1,.74-1.93L96.66,83l.35-.35.3-1.19-.2-.49.24-.4L97,80.09l-.1-1.19-.84.2-.5.69-.74-.05.1.89-.59.75-.5-.25-.44.39-1.14.1-.05,0c.25-.27.49-.56.73-.85h.51l.55-.1.54-.59.1-.47.54,0,1-1.53.84-1.78,2.22-1,0-.59-.29-.3.15-.2.69.35,1.48.3,1.19-.5,1.93-.39-.5-1.39-.84-.84-1,0-1.33-3.21-.2.14-.49-.39.39-.25,0-.12h7.23A31.24,31.24,0,0,1,98.5,89.21L98.28,89l.06-.25.25-1.23-.25-1.93-.44-1.14-.3.3-.54.79ZM98.18,103l0,0,.34-.59-.34-.89,1.28-1.09-.1-.74-.94-.5.94-1.83,1.09-1.78-1.29-1.58-.44.15-.59-.15-.55-1.19-.25.1.3-1.14.19-.86.65-.59,4.28,4.28,0,0h0l2.69,2.69A43,43,0,0,1,98.18,103Zm7-7.12.06-.35.49-.44-.44-2.23.1-.59-.5-.94-.29-.3.29,0-.39-.54-.94-.05v.74l-.35.3.25.59-.4,1.14-.29.2.11.22L99,89.74a32,32,0,0,0,9.3-22h9.93a41.83,41.83,0,0,1-12.2,29Zm19.5-8.28a52.54,52.54,0,0,1-11.17,16.61l-6.92-6.92A42.54,42.54,0,0,0,119,67.75h9.78A52.22,52.22,0,0,1,124.66,87.59ZM84.25,104.77l0,0a.64.64,0,0,0,0-.07Zm16.13-77.34.55.4,1.32.46.45.81h.35l-.1-.86-.4-.3.1-.46-.81-.35-.3.3-.4-.2.2-.46Zm-67.24,65,0-.48-.53-.64-.32.11.59.74-.06.21.48.53.32.7.27-.11-.27-.59ZM99,40.82c0,.1-.07.21-.12.31l.37.28.4-.15Zm8.57,10.83.29.14-.74-1.48-.4-.1.4.65Zm-2.23-3.47.79,1.24.49.25-.84-1.44Zm2.87,7.08.44.79-.15.3.4,1.33.35.1V56.35l-.4-.5-.15-1.48-.69-1.8-.14.32.19,1Zm-11.53-.1.25-.5-1.09.05-.49.35.54.2Zm8.11-8.36.5.49.25,0,.39.25-.1-.3-1-.69-.64-.59.3.89Zm-4.84,4.4.59.45.69-.15-.54-.15-.15-.59v-.45l-.3-.54-.39.15-.2-.15-.59.54.94.5Zm-1.34,2.72.25.15.3-.44.44-.8-.25.05-.39.2-.2-1.14-.25.2.2.69-.25.55-.34-.1-.45.3,0,.74Zm.25-2.87v-.59l-.35.45.1.54Z" transform="translate(0 -1.56)"/><path class="cls-1" d="M58.9,141.91l3.91.39s5-11,17.56-11.5c8.06-.34,15.12,3.7,23.71,4.32,10.32.75,17.37-1.43,23.27-7.05-6.24,3.44-13.61,2-22.13,0a69.58,69.58,0,0,0-15.42-1.76C70.26,126.5,58.9,141.91,58.9,141.91Z" transform="translate(0 -1.56)"/><path class="cls-1" d="M117.88,105.68a29.14,29.14,0,0,0-6.66,9.34c-2.31,5-2.34,7-4.58,10.58,5.1-1.91,8.88,1.77,21.77-3,6-2.2,10.2-7.81,12.16-12.69-4.58,4.15-8.29,6.25-13.75,7s-8.81,1.15-13.31,3.79a21.38,21.38,0,0,0,5.38-8.64c1.6-4.25,1.34-7.91,3.17-11.19A47.92,47.92,0,0,1,117.88,105.68Z" transform="translate(0 -1.56)"/><path class="cls-1" d="M124.37,99.32c-1.34,7-.94,12.82-4.51,17.29,4.75-4,9.39-3.93,15.77-6.79,7.62-3.74,11.65-10.3,13.76-19.83-1.69,4.21-6,8.19-10.85,11.2-4.11,2.57-8.5,3.83-11.54,7.58a9.55,9.55,0,0,0,2.62-5.51c1.23-6.46-.82-10.13.15-16.88C128.78,89.17,125.24,94.82,124.37,99.32Z" transform="translate(0 -1.56)"/><path class="cls-1" d="M131.61,78.81c-.49,11,4,13.19.76,23.26,2.82-4.06,6.16-5.27,10.49-9.08a26.79,26.79,0,0,0,9.43-21.68,42,42,0,0,1-7.75,11.63,50.15,50.15,0,0,0-8,11.19C140,82,133.74,77.44,133,70.18,132.78,72.92,131.78,77,131.61,78.81Z" transform="translate(0 -1.56)"/><path class="cls-1" d="M133.71,66.38c-1-3.55-.55-5.67-1.38-9.65,1.45,3.56,9.92,9.86,9,22A63.08,63.08,0,0,1,146,65.05c1.94-3.7,3.9-7.4,3.43-12.87,2.23,7.21,2.12,11.37,1.15,15s-3.39,6.39-5.47,9.26c-1.36,1.88-4.26,5.56-5.64,9C139.62,78,135,71,133.71,66.38Z" transform="translate(0 -1.56)"/><path class="cls-1" d="M131,50.19c-1.59-3-2.2-5.55-4.26-9.4,1.27,1.65,2.37,2.53,5.54,5.22a26.53,26.53,0,0,1,9.39,14.75,67,67,0,0,1,1.54-11.67,27.69,27.69,0,0,0-1.42-14.72c3.86,4.66,7.17,13.84,5.29,20-1.48,5.86-4,8.82-4.76,13C139.75,59.07,133.19,54.35,131,50.19Z" transform="translate(0 -1.56)"/><path class="cls-1" d="M133.1,42.53C131.17,41,126.34,38,124,35.19s-3.56-5.42-5.22-7.86c3.48,3.2,5.39,4.15,8.94,6.34,3.22,1.84,7.58,4.31,9.34,8.21a46.65,46.65,0,0,1-1.93-10.07,17.65,17.65,0,0,0-4-9.6c4.75,3.82,7.63,7.05,8.9,13.92s-.17,12.08.31,15.79A27.71,27.71,0,0,0,133.1,42.53Z" transform="translate(0 -1.56)"/><path class="cls-1" d="M134,35.34c-2.11-6.34-4.33-10.13-8.64-13.75-5.65-4.74-11.64-7-14-8.11,4.62,3.3,4.38,6.15,10.53,12C126.65,30,130,30.32,134,35.34Z" transform="translate(0 -1.56)"/><path class="cls-1" d="M93.42,141.91l-3.91.39s-5-11-17.56-11.5c-8.07-.34-15.12,3.7-23.71,4.32-10.32.75-17.37-1.43-23.27-7.05,6.25,3.44,13.61,2,22.13,0a69.58,69.58,0,0,1,15.42-1.76C82.07,126.5,93.42,141.91,93.42,141.91Z" transform="translate(0 -1.56)"/><path class="cls-1" d="M34.44,105.68A29.14,29.14,0,0,1,41.1,115c2.31,5,2.34,7,4.58,10.58-5.1-1.91-8.88,1.77-21.77-3-6-2.2-10.2-7.81-12.16-12.69,4.58,4.15,8.29,6.25,13.75,7s8.81,1.15,13.31,3.79a21.38,21.38,0,0,1-5.38-8.64c-1.6-4.25-1.35-7.91-3.17-11.19A47.92,47.92,0,0,0,34.44,105.68Z" transform="translate(0 -1.56)"/><path class="cls-1" d="M28,99.32c1.34,7,.94,12.82,4.51,17.29-4.75-4-9.39-3.93-15.78-6.79C9.07,106.08,5,99.52,2.94,90c1.68,4.21,6,8.19,10.84,11.2,4.11,2.57,8.5,3.83,11.54,7.58a9.55,9.55,0,0,1-2.62-5.51c-1.23-6.46.82-10.13-.15-16.88C23.54,89.17,27.09,94.82,28,99.32Z" transform="translate(0 -1.56)"/><path class="cls-1" d="M20.71,78.81c.49,11-4,13.19-.76,23.26C17.13,98,13.79,96.8,9.46,93A26.79,26.79,0,0,1,0,71.31,42,42,0,0,0,7.78,82.94a50.15,50.15,0,0,1,8,11.19C12.28,82,18.58,77.44,19.34,70.18,19.54,72.92,20.54,77,20.71,78.81Z" transform="translate(0 -1.56)"/><path class="cls-1" d="M18.61,66.38c1-3.55.55-5.67,1.38-9.65-1.45,3.56-9.92,9.86-9,22A63.08,63.08,0,0,0,6.28,65.05c-1.94-3.7-3.9-7.4-3.43-12.87C.62,59.39.73,63.55,1.7,67.16s3.39,6.39,5.47,9.26c1.36,1.88,4.26,5.56,5.64,9C12.7,78,17.36,71,18.61,66.38Z" transform="translate(0 -1.56)"/><path class="cls-1" d="M20.57,51.32c2-3,2.94-6.68,5-10.53C24.3,42.44,23.2,43.32,20,46a26.53,26.53,0,0,0-9.39,14.75A68,68,0,0,0,9.1,49.09a27.69,27.69,0,0,1,1.42-14.72C6.66,39,3.35,48.21,5.23,54.38c1.48,5.86,4,8.82,4.76,13C12.57,59.07,17.91,55.24,20.57,51.32Z" transform="translate(0 -1.56)"/><path class="cls-1" d="M19.22,42.53C21.15,41,26,38,28.34,35.19s3.56-5.42,5.22-7.86c-3.49,3.2-5.39,4.15-8.94,6.34C21.4,35.51,17,38,15.28,41.88a47.26,47.26,0,0,0,1.94-10.07,17.58,17.58,0,0,1,4-9.6c-4.75,3.82-7.63,7.05-8.9,13.92s.17,12.08-.31,15.79A27.71,27.71,0,0,1,19.22,42.53Z" transform="translate(0 -1.56)"/><path class="cls-1" d="M18.36,35.34C20.47,29,22.69,25.21,27,21.59c5.65-4.74,11.64-7,14-8.11-4.62,3.3-4.38,6.15-10.53,12C25.67,30,22.29,30.32,18.36,35.34Z" transform="translate(0 -1.56)"/><path class="cls-1" d="M79.65,93.94c0,1.07-.06,2.21-.1,3.41a10.74,10.74,0,0,1,6.28,7.15C86,98.18,82.8,95.61,79.65,93.94ZM66.47,31.54a11,11,0,0,1,5-3.82c0-2.12-.08-4.17-.12-6A26.11,26.11,0,0,0,65.55,24c-1.95.65-4.57.48-7.41,3.57A40.34,40.34,0,0,0,55.54,31c-.86,1.23-.9,3.21-1.53,4.28a3.57,3.57,0,0,0-.69,2.42l.11.18a4.43,4.43,0,0,1-.94,1.55,4,4,0,0,1-3.69,1.4,4,4,0,0,0,3.08-.25,21.57,21.57,0,0,0-.75,2.67,14.28,14.28,0,0,1,3-4.7c.59.17,1.88.16,4.38-1.27C61.24,35.69,65.31,33.14,66.47,31.54Zm-5-1.31-2.16,2.33-1.15-.18.23-1,2-1.89L62,29.34Zm24.84,40A29.08,29.08,0,0,0,80,66.84c0,2.65-.08,4.75-.1,6.41,2.24,1,3.75,2.07,3.87,3.51s-1.49,2.53-4,3.58h0l-.41.16c-.61.24-1.27.48-2,.72l-2.05.71a20.66,20.66,0,0,0-2,.81C69,84.83,68.75,87.54,69,90.07c.23,2.09,1.86,3.47,3.9,4.53,0-2.38-.07-4.08,0-4.34a3.55,3.55,0,0,1,1.57-2.58A13,13,0,0,1,77.87,86c2-.78,3.8-1.26,6.84-2.43C91.78,80.89,91.77,74.28,86.31,70.18Zm12.08-36c-.3-5.16-5.43-12.24-17.5-13,0,1.71-.1,3.66-.15,5.68.79.1,1.44.22,1.88.32,5.78,1.37,8.27,4.6,8.3,7.87s-2.63,7-8.59,8.75c-.58.17-1.24.34-2,.52v0l-1.13.32c-1,.2-2.29.52-3.1.69s-1.87.38-2.54.58l-1.8.44v0a23.49,23.49,0,0,0-3.42,1.2c-6.38,3-8.83,8.34-7.37,14.24.87,3.52,2.87,6,8.15,7.87,1.11.38,2.23.75,3.32,1.09L72.37,64a7.58,7.58,0,0,1-3.25-2.22c-2.08-2.68-1.73-6.45,3.07-8.24v0l.24-.07.2-.07c2.3-.76,4.72-1.31,7.12-1.87l.48-.13h0a41.12,41.12,0,0,0,9.42-3C94.64,45.73,98.83,41.6,98.39,34.15ZM73.33,44.29c1.65-.5,3.93-.71,5.49-1.27,0-2.1.6-26.71.69-28,.25-3.63,3.74-13.46-3.41-13.46-7,0-3.88,10.36-3.33,13.73C73,16.58,73.33,42.15,73.33,44.29Zm5,35c0-.21.35-25.07.37-25.93a41.53,41.53,0,0,0-4.88,1.29c0,.56.39,26.09.39,26.09L76,80.05C77.06,79.75,77.82,79.43,78.29,79.25ZM74.45,90.39c-.07.78.45,21.57.63,23.72.43,5.22,2,5.29,2.36.27.1-1.49.82-25.95.82-26.82C76.06,88.25,74.56,89.11,74.45,90.39Z" transform="translate(0 -1.56)"/></svg>