<?xml version="1.0" encoding="utf-8"?>
<!-- Generator: Adobe Illustrator 15.0.2, SVG Export Plug-In . SVG Version: 6.00 Build 0)  -->
<!DOCTYPE svg PUBLIC "-//W3C//DTD SVG 1.1//EN" "http://www.w3.org/Graphics/SVG/1.1/DTD/svg11.dtd">
<svg version="1.1" id="Layer_1" xmlns="http://www.w3.org/2000/svg" xmlns:xlink="http://www.w3.org/1999/xlink" x="0px" y="0px"
	 width="200px" height="200px" viewBox="0 0 200 200" enable-background="new 0 0 200 200" xml:space="preserve">
<path fill="none" stroke="#4AD1ED" stroke-width="7" stroke-miterlimit="10" d="M129.555,137.044
	c14.773,0,36.942,7.286,39.407,19.599l2.461,14.777"/>
<path fill="none" stroke="#4AD1ED" stroke-width="7" stroke-miterlimit="10" d="M28.577,171.425l2.461-14.777
	c2.46-12.313,27.092-19.702,39.407-19.702"/>
<path fill="none" stroke="#4AD1ED" stroke-width="7" stroke-miterlimit="10" d="M63.058,67.98c-2.465,0-4.928,2.207-4.928,4.926
	v9.854c0,2.717,2.207,4.928,4.928,4.928c0,0,7.386,19.699,12.313,27.093c3.048,4.577,7.386,12.31,24.629,12.31
	c17.238,0,21.576-7.734,24.629-12.31c4.926-7.394,12.313-27.093,12.313-27.093c2.72,0,4.926-2.211,4.926-4.928v-9.854
	c0-2.719-2.206-4.926-4.926-4.926v-7.387c0-17.24-9.753-32.018-36.941-32.018c-27.095,0-36.942,14.775-36.942,32.018V67.98z"/>
</svg>
