<?xml version="1.0" encoding="utf-8"?>
<!-- Generator: Adobe Illustrator 15.0.2, SVG Export Plug-In . SVG Version: 6.00 Build 0)  -->
<!DOCTYPE svg PUBLIC "-//W3C//DTD SVG 1.1//EN" "http://www.w3.org/Graphics/SVG/1.1/DTD/svg11.dtd">
<svg version="1.1" id="Layer_1" xmlns="http://www.w3.org/2000/svg" xmlns:xlink="http://www.w3.org/1999/xlink" x="0px" y="0px"
	 width="200px" height="200px" viewBox="0 0 200 200" enable-background="new 0 0 200 200" xml:space="preserve">
<path fill="none" stroke="#4AD1ED" stroke-width="7" stroke-miterlimit="10" d="M115,138.002c12.645,0,31.619,6.235,33.728,16.773
	l2.106,12.648"/>
<path fill="none" stroke="#4AD1ED" stroke-width="7" stroke-miterlimit="10" d="M28.577,167.428l2.106-12.648
	c2.105-10.538,23.188-16.861,33.727-16.861"/>
<path fill="none" stroke="#4AD1ED" stroke-width="7" stroke-miterlimit="10" d="M58.088,78.893c-2.11,0-4.217,1.889-4.217,4.215
	v8.434c0,2.326,1.889,4.219,4.217,4.219c0,0,6.322,16.858,10.539,23.188c2.608,3.915,6.321,10.533,21.079,10.533
	c14.754,0,18.466-6.618,21.079-10.533c4.216-6.33,10.537-23.188,10.537-23.188c2.33,0,4.218-1.893,4.218-4.219v-8.434
	c0-2.327-1.888-4.215-4.218-4.215V72.57c0-14.756-8.345-27.403-31.615-27.403c-23.19,0-31.618,12.646-31.618,27.403L58.088,78.893
	L58.088,78.893z"/>
<line fill="none" stroke="#4AD1ED" stroke-width="7" stroke-miterlimit="10" x1="156.5" y1="15.167" x2="156.5" y2="62.167"/>
<line fill="none" stroke="#4AD1ED" stroke-width="7" stroke-miterlimit="10" x1="133" y1="38.667" x2="180.001" y2="38.667"/>
</svg>
