<?xml version="1.0" encoding="utf-8"?>
<!-- Generator: Adobe Illustrator 15.0.2, SVG Export Plug-In . SVG Version: 6.00 Build 0)  -->
<!DOCTYPE svg PUBLIC "-//W3C//DTD SVG 1.1//EN" "http://www.w3.org/Graphics/SVG/1.1/DTD/svg11.dtd">
<svg version="1.1" id="Layer_1" xmlns="http://www.w3.org/2000/svg" xmlns:xlink="http://www.w3.org/1999/xlink" x="0px" y="0px"
	 width="16px" height="16px" viewBox="0 0 16 16" enable-background="new 0 0 16 16" xml:space="preserve">
<rect fill="#4AD1ED" width="16" height="16"/>
<g id="XMLID_1_">
	<g>
		<path fill="#FFFFFF" stroke="#FFFFFF" stroke-width="0.3" stroke-miterlimit="10" d="M13.109,3.36
			c0.197,0.217,0.352,0.48,0.516,0.728c-1.361,1.015-2.48,2.307-3.508,3.656c-1.029,1.351-1.996,2.799-2.75,4.414
			c-0.3,0.208-0.598,0.41-0.889,0.626c-0.287,0.216-0.551,0.452-0.831,0.672c-0.179-0.721-0.463-1.429-0.773-2.128
			C4.529,10.545,4.124,9.684,3.2,9.491c0.163-0.229,0.403-0.498,0.674-0.713C4.178,8.537,4.813,8.144,5.319,8.4
			c0.559,0.279,0.812,1.05,1.104,1.617C8.198,7.336,10.318,5.006,13.109,3.36z"/>
	</g>
</g>
</svg>
