<?xml version="1.0" encoding="utf-8"?>
<!-- Generator: Adobe Illustrator 19.2.1, SVG Export Plug-In . SVG Version: 6.00 Build 0)  -->
<svg version="1.1" id="Layer_1" xmlns="http://www.w3.org/2000/svg" xmlns:xlink="http://www.w3.org/1999/xlink" x="0px" y="0px"
	 viewBox="0 0 199.8 200" style="enable-background:new 0 0 199.8 200;" xml:space="preserve">
<style type="text/css">
	.st0{fill:#231B97;}
	.st1{fill:#00D1EE;}
</style>
<g>
	<path class="st0" d="M100.4,25.6c-41.3,0-75,33.6-75,75s33.6,75,75,75c41.3,0,75-33.6,75-75S141.7,25.6,100.4,25.6z M100.4,168.4
		c-37.4,0-67.8-30.4-67.8-67.8S63,32.7,100.4,32.7c37.4,0,67.8,30.4,67.8,67.8S137.8,168.4,100.4,168.4z"/>
	<path class="st1" d="M127.5,73.5c-1.4-1.4-3.7-1.4-5,0l-22,22l-22-22c-1.4-1.4-3.7-1.4-5,0c-1.4,1.4-1.4,3.7,0,5l22,22l-22,22
		c-1.4,1.4-1.4,3.7,0,5c0.7,0.7,1.6,1,2.5,1c0.9,0,1.8-0.3,2.5-1l22-22l22,22c0.7,0.7,1.6,1,2.5,1s1.8-0.3,2.5-1
		c1.4-1.4,1.4-3.7,0-5l-22-22l22-22C128.9,77.1,128.9,74.9,127.5,73.5z"/>
</g>
</svg>
