<?xml version="1.0" encoding="UTF-8"?>
<svg enable-background="new 0 0 199.8 200" version="1.1" viewBox="0 0 199.8 200" xml:space="preserve" xmlns="http://www.w3.org/2000/svg">
<style type="text/css">
	.st0{fill:#00D1EE;}
	.st1{fill:#231B97;}
</style>
	<path class="st0" d="m100.4 25.6c-41.3 0-75 33.6-75 75s33.6 75 75 75c41.3 0 75-33.6 75-75s-33.7-75-75-75zm0 142.8c-37.4 0-67.8-30.4-67.8-67.8s30.4-67.9 67.8-67.9 67.8 30.4 67.8 67.8-30.4 67.9-67.8 67.9z"/>
	<path class="st1" d="m127.5 73.5c-1.4-1.4-3.7-1.4-5 0l-22 22-22-22c-1.4-1.4-3.7-1.4-5 0-1.4 1.4-1.4 3.7 0 5l22 22-22 22c-1.4 1.4-1.4 3.7 0 5 0.7 0.7 1.6 1 2.5 1s1.8-0.3 2.5-1l22-22 22 22c0.7 0.7 1.6 1 2.5 1s1.8-0.3 2.5-1c1.4-1.4 1.4-3.7 0-5l-22-22 22-22c1.4-1.4 1.4-3.6 0-5z"/>
</svg>
