<?xml version="1.0" encoding="utf-8"?>
<!-- Generator: Adobe Illustrator 23.0.1, SVG Export Plug-In . SVG Version: 6.00 Build 0)  -->
<svg version="1.1" id="Layer_1" xmlns="http://www.w3.org/2000/svg" xmlns:xlink="http://www.w3.org/1999/xlink" x="0px" y="0px"
	 viewBox="0 0 64 64" style="enable-background:new 0 0 64 64;" xml:space="preserve">
<style type="text/css">
	.st0{fill:#0098DA;}
	.st1{fill:#EFF2FA;}
	.st2{fill:#E4EAF6;}
</style>
<g>
	<path class="st0" d="M35.6,63.8c0.2,0,0.4,0,0.6-0.1c0.4-0.1,0.8-0.1,1.2-0.2c0.2,0,0.4-0.1,0.5-0.1c0.4-0.1,0.9-0.2,1.3-0.3
		c0.1,0,0.3-0.1,0.4-0.1c0.5-0.1,1.1-0.3,1.6-0.4c0,0,0,0,0,0C54.4,58.7,64,46.4,64,32C64,14.4,49.6,0,32,0C19.6,0,8.9,7.1,3.6,17.4
		c0,0,0,0.1,0,0.1c-0.7,1.4-1.3,2.9-1.8,4.4c0,0.1-0.1,0.2-0.1,0.3c-0.2,0.7-0.4,1.5-0.6,2.2c0,0.1,0,0.2-0.1,0.3
		c-0.2,0.7-0.3,1.4-0.4,2.1c0,0.1,0,0.2-0.1,0.3c-0.1,0.7-0.2,1.5-0.3,2.2c0,0.2,0,0.3,0,0.5C0,30.4,0,31.2,0,32
		c0,17.6,14.4,32,32,32c0.6,0,1.2,0,1.8-0.1c0.2,0,0.4,0,0.5,0C34.8,63.9,35.2,63.8,35.6,63.8z"/>
	<path class="st1" d="M49.2,14.2h9.4c-0.5-0.8-1.1-1.6-1.8-2.4h-8.5c-1.9-4.4-4.4-8.1-7.3-10.5C38.2,0.5,35.1,0,32,0
		s-6.2,0.5-9.1,1.3c-2.9,2.5-5.4,6.1-7.3,10.5H7.2c-0.6,0.8-1.2,1.6-1.8,2.4h9.4C13,19.1,12,24.8,11.9,30.8H0c0,0.4,0,0.8,0,1.2
		s0,0.8,0,1.2h11.8c0.1,6.1,1.2,11.7,2.9,16.6H5.4c0.5,0.8,1.1,1.6,1.8,2.4h8.5c1.9,4.4,4.4,8.1,7.3,10.5c2.9,0.8,5.9,1.3,9.1,1.3
		s6.2-0.5,9.1-1.3c2.9-2.5,5.4-6.1,7.3-10.5h8.5c0.6-0.8,1.2-1.6,1.8-2.4h-9.4c1.7-4.9,2.8-10.5,2.9-16.6H64c0-0.4,0-0.8,0-1.2
		c0-0.4,0-0.8,0-1.2H52.1C52,24.8,51,19.1,49.2,14.2z M30.8,63.9c-5.1-0.6-9.6-5.1-12.6-11.8h12.6V63.9L30.8,63.9z M30.8,49.8H17.2
		c-1.8-4.8-2.9-10.5-3-16.6h16.6L30.8,49.8L30.8,49.8z M30.8,30.8H14.2c0.1-6.1,1.2-11.8,3-16.6h13.6L30.8,30.8L30.8,30.8z
		 M30.8,11.9H18.2c3-6.7,7.5-11.2,12.6-11.8V11.9L30.8,11.9z M33.2,0.1c5.1,0.6,9.6,5.1,12.6,11.8H33.2V0.1L33.2,0.1z M33.2,63.9
		V52.1h12.6C42.8,58.9,38.3,63.3,33.2,63.9z M46.8,49.8H33.2V33.2h16.6C49.6,39.3,48.6,45,46.8,49.8z M33.2,30.8V14.2h13.6
		c1.8,4.8,2.9,10.5,3,16.6H33.2L33.2,30.8z"/>
	<g>
		<path class="st2" d="M34.8,63.9c0.5,0,1.1-0.1,1.6-0.2c0.2,0,0.4-0.1,0.6-0.1c0.5-0.1,1.1-0.2,1.6-0.3c0.2,0,0.3-0.1,0.5-0.1
			c0.6-0.1,1.2-0.3,1.9-0.5c0.1,0,0.1,0,0.2,0c2.6-2.3,4.9-5.5,6.7-9.4c-0.3,0-0.6,0-0.9,0c-0.6,0-1.1,0-1.7,0
			c-3,6.1-7.3,10.1-12.1,10.6V52.1h5.1c-2.7-0.7-5.2-1.8-7.5-3.2v0.8H17.2c-1.8-4.8-2.9-10.5-3-16.6h3c-0.3-0.8-0.6-1.6-0.9-2.4
			h-2.1c0.1-2.8,0.3-5.4,0.7-7.9c0-0.5,0-1,0-1.5c0-5.7,1.5-11,4.2-15.7c-1.3,1.8-2.4,3.9-3.4,6.2H7.2c-0.2,0.3-0.4,0.5-0.6,0.8
			c-0.3,0.3-0.5,0.7-0.7,1c-0.1,0.2-0.3,0.4-0.4,0.6h9.3C13,19.1,12,24.8,11.9,30.8H0c0,0.4,0,0.8,0,1.2c0,0.4,0,0.8,0,1.2h11.8
			c0.1,6.1,1.2,11.7,2.9,16.6H5.4l0,0c0.5,0.8,1.1,1.6,1.8,2.4l0,0h8.5c1.9,4.4,4.4,8.1,7.3,10.5c0.7,0.2,1.4,0.4,2.1,0.6
			c0,0,0,0,0.1,0c0.7,0.2,1.5,0.3,2.2,0.4c0,0,0.1,0,0.1,0c0.6,0.1,1.3,0.2,2,0.2c0.2,0,0.3,0,0.5,0c0.7,0,1.4,0.1,2.1,0.1
			c0.7,0,1.4,0,2.2-0.1C34.4,63.9,34.6,63.9,34.8,63.9z M30.8,63.9c-5.1-0.6-9.6-5.1-12.6-11.8h12.6V63.9L30.8,63.9z"/>
		<path class="st2" d="M57.2,51.6c-0.6,0.2-1.2,0.4-1.8,0.6h1.4C56.9,52,57.1,51.8,57.2,51.6z"/>
	</g>
</g>
</svg>
