<?xml version="1.0" encoding="utf-8"?>
<!-- Generator: Adobe Illustrator 15.0.2, SVG Export Plug-In . SVG Version: 6.00 Build 0)  -->
<!DOCTYPE svg PUBLIC "-//W3C//DTD SVG 1.1//EN" "http://www.w3.org/Graphics/SVG/1.1/DTD/svg11.dtd">
<svg version="1.1" id="Layer_1" xmlns="http://www.w3.org/2000/svg" xmlns:xlink="http://www.w3.org/1999/xlink" x="0px" y="0px"
	 width="200px" height="200px" viewBox="0 0 200 200" enable-background="new 0 0 200 200" xml:space="preserve">
<circle fill="#FFFFFF" stroke="#ED1C24" stroke-width="6" stroke-miterlimit="10" cx="99.942" cy="77.269" r="53.5"/>
<g id="XMLID_2_">
	<g>
		<path fill="#ED1C24" d="M121.301,67.753c-3.963-0.126-7.067,2.681-9.353,4.676c-2.331,2.034-4.175,4.293-5.786,6.579
			c4.2,4.068,8.487,8.058,16.486,8.321c-0.912,1.942-2.009,3.713-3.408,5.391c-1.275,1.525-2.986,3.249-5.469,3.249
			c-3.059,0-6.004-2.391-7.847-3.805c-2.299-1.77-4.313-3.679-6.182-5.39c-1.685,2.214-3.138,4.545-5.073,6.738
			c-1.645,1.861-3.891,4.655-6.975,4.834c-2.794,0.158-4.888-1.592-6.42-3.091c-1.671-1.638-3.005-3.534-3.963-5.391
			c4.472,0.251,7.252-2.112,9.59-4.2c2.199-1.955,4.049-4.121,5.707-6.262c-1.506-1.677-3.25-3.606-4.834-5.706
			c-1.506-2.001-3.084-4.333-3.329-7.133c-0.258-2.999,1.38-5,2.853-6.579c1.321-1.414,2.768-2.523,4.201-3.646
			c0.02-0.086,0.158-0.053,0.158-0.159c0.793,5.238,3.475,10.02,6.341,13.712c0.35,0.45,1.077,1.579,1.189,1.585
			c0.211,0,1.057-1.268,1.427-1.744c1.38-1.757,2.919-3.474,4.438-4.835c2.166-1.929,5.43-4.795,9.67-4.359
			C118.625,60.936,119.888,64.51,121.301,67.753z"/>
	</g>
</g>
<g>
	<path fill="#ED1C24" d="M40.781,185.205h-7.65v-32.782h7.65V185.205z"/>
	<path fill="#ED1C24" d="M46.856,185.205v-23.332h4.32c0.435,0,0.799,0.098,1.091,0.292c0.292,0.195,0.499,0.487,0.619,0.878
		l0.405,1.35c0.45-0.42,0.915-0.81,1.395-1.17s0.994-0.664,1.542-0.911c0.547-0.248,1.14-0.442,1.777-0.585s1.331-0.214,2.082-0.214
		c1.274,0,2.403,0.222,3.386,0.664c0.982,0.442,1.811,1.057,2.486,1.845c0.675,0.787,1.185,1.725,1.53,2.813
		c0.345,1.088,0.518,2.269,0.518,3.544v14.827h-6.975v-14.827c0-1.14-0.263-2.029-0.788-2.667c-0.525-0.637-1.297-0.956-2.317-0.956
		c-0.765,0-1.485,0.165-2.16,0.495c-0.675,0.33-1.32,0.772-1.935,1.327v16.628H46.856z"/>
	<path fill="#ED1C24" d="M84.971,185.205h-6.345l-9.045-23.332h5.805c0.495,0,0.912,0.116,1.249,0.349s0.566,0.521,0.686,0.866
		l3.24,10.462c0.255,0.855,0.499,1.688,0.731,2.498c0.232,0.81,0.431,1.62,0.597,2.43c0.165-0.81,0.367-1.62,0.607-2.43
		c0.24-0.811,0.495-1.643,0.765-2.498l3.375-10.462c0.12-0.345,0.345-0.634,0.675-0.866c0.33-0.232,0.72-0.349,1.17-0.349h5.535
		L84.971,185.205z"/>
	<path fill="#ED1C24" d="M113.051,185.205c-0.66,0-1.158-0.09-1.496-0.27c-0.338-0.181-0.619-0.556-0.844-1.125l-0.496-1.283
		c-0.584,0.495-1.146,0.931-1.688,1.306c-0.539,0.375-1.098,0.693-1.676,0.956s-1.191,0.457-1.844,0.585
		c-0.654,0.127-1.377,0.191-2.172,0.191c-1.066,0-2.033-0.14-2.903-0.418c-0.87-0.278-1.608-0.688-2.216-1.23
		c-0.608-0.541-1.077-1.215-1.407-2.021c-0.33-0.805-0.495-1.733-0.495-2.787c0-0.827,0.209-1.678,0.63-2.551
		c0.42-0.873,1.147-1.667,2.183-2.382s2.43-1.313,4.184-1.794c1.756-0.481,3.969-0.723,6.639-0.723v-0.999
		c0-1.378-0.281-2.373-0.844-2.986s-1.361-0.92-2.396-0.92c-0.826,0-1.5,0.09-2.025,0.271c-0.525,0.18-0.994,0.382-1.406,0.607
		c-0.412,0.225-0.814,0.428-1.203,0.607c-0.391,0.18-0.855,0.27-1.395,0.27c-0.48,0-0.89-0.115-1.227-0.349
		c-0.338-0.232-0.604-0.521-0.799-0.866l-1.26-2.183c1.41-1.244,2.974-2.171,4.692-2.778c1.717-0.607,3.557-0.911,5.523-0.911
		c1.408,0,2.68,0.229,3.813,0.686c1.133,0.458,2.094,1.096,2.881,1.913s1.391,1.789,1.811,2.914s0.631,2.354,0.631,3.689v14.58
		H113.051z M105.041,180.952c0.9,0,1.688-0.157,2.361-0.472c0.676-0.315,1.357-0.825,2.049-1.53v-3.195
		c-1.395,0-2.543,0.091-3.443,0.272s-1.611,0.409-2.137,0.682s-0.889,0.582-1.092,0.93c-0.203,0.349-0.303,0.727-0.303,1.135
		c0,0.803,0.217,1.366,0.652,1.691C103.563,180.79,104.201,180.952,105.041,180.952z"/>
	<path fill="#ED1C24" d="M128.395,151.522v33.683h-6.975v-33.683H128.395z"/>
	<path fill="#ED1C24" d="M142.029,155.482c0,0.556-0.113,1.076-0.338,1.563c-0.225,0.488-0.533,0.916-0.922,1.283
		c-0.391,0.367-0.844,0.66-1.361,0.877c-0.518,0.218-1.07,0.326-1.654,0.326c-0.57,0-1.104-0.108-1.598-0.326
		c-0.494-0.217-0.934-0.51-1.316-0.877s-0.682-0.795-0.9-1.283c-0.217-0.487-0.326-1.008-0.326-1.563
		c0-0.569,0.109-1.103,0.326-1.598c0.219-0.495,0.518-0.93,0.9-1.305s0.822-0.667,1.316-0.878c0.494-0.209,1.027-0.314,1.598-0.314
		c0.584,0,1.137,0.105,1.654,0.314c0.518,0.211,0.971,0.503,1.361,0.878c0.389,0.375,0.697,0.81,0.922,1.305
		S142.029,154.913,142.029,155.482z M141.219,161.873v23.332h-6.975v-23.332H141.219z"/>
	<path fill="#ED1C24" d="M163.223,185.205c-0.436,0-0.799-0.098-1.092-0.293c-0.291-0.194-0.498-0.486-0.617-0.877l-0.541-1.777
		c-0.465,0.495-0.953,0.944-1.463,1.35s-1.061,0.754-1.652,1.047c-0.594,0.292-1.23,0.517-1.914,0.675
		c-0.682,0.157-1.42,0.236-2.215,0.236c-1.215,0-2.34-0.271-3.375-0.811s-1.928-1.319-2.678-2.34c-0.75-1.02-1.34-2.269-1.766-3.746
		c-0.428-1.478-0.643-3.161-0.643-5.052c0-1.739,0.24-3.355,0.721-4.849c0.48-1.492,1.158-2.782,2.035-3.87
		c0.879-1.087,1.932-1.938,3.162-2.554c1.23-0.614,2.588-0.922,4.072-0.922c1.199,0,2.217,0.176,3.049,0.528
		s1.586,0.814,2.262,1.384v-11.813h6.975v33.683H163.223z M156.158,180.21c0.51,0,0.971-0.049,1.383-0.146
		c0.414-0.097,0.791-0.236,1.137-0.416s0.672-0.405,0.979-0.675c0.309-0.271,0.611-0.585,0.912-0.945v-9.899
		c-0.541-0.585-1.113-0.994-1.721-1.227s-1.25-0.349-1.924-0.349c-0.646,0-1.238,0.128-1.777,0.383
		c-0.541,0.255-1.01,0.663-1.406,1.226c-0.398,0.563-0.709,1.294-0.936,2.194c-0.225,0.899-0.336,1.987-0.336,3.262
		c0,1.23,0.09,2.266,0.27,3.105s0.432,1.519,0.754,2.036s0.709,0.889,1.158,1.114C155.1,180.098,155.604,180.21,156.158,180.21z"/>
</g>
</svg>
