<?xml version="1.0" encoding="utf-8"?>
<!-- Generator: Adobe Illustrator 16.0.0, SVG Export Plug-In . SVG Version: 6.00 Build 0)  -->
<!DOCTYPE svg PUBLIC "-//W3C//DTD SVG 1.1//EN" "http://www.w3.org/Graphics/SVG/1.1/DTD/svg11.dtd">
<svg version="1.1" id="Layer_1" xmlns="http://www.w3.org/2000/svg" xmlns:xlink="http://www.w3.org/1999/xlink" x="0px" y="0px"
	 width="350px" height="350px" viewBox="0 0 350 350" enable-background="new 0 0 350 350" xml:space="preserve">
<g>
	<path fill="#252192" stroke="#FFFFFF" stroke-width="4" stroke-miterlimit="10" d="M31.531,100.141
		c-8.25,5.485-3.634,16.554,7.271,16.554c1.017,0,4.481,0,4.481,0v142.583c0,17.213,14.965,31.217,33.322,31.217h18.448
		l10.462-8.243l-25.171,46.745c-6.078,12.043,4.384,16.801,13.023,10.586c16.539-11.93,61.411-46.893,61.411-46.893l2.856-2.195
		h116.026c18.371,0,33.309-14.004,33.309-31.217V116.695c0,0,3.216,0,4.216,0c10.926,0,15.535-11.069,7.274-16.552l-35.376-23.496
		V39.674c0-4.319-4.299-7.843-9.594-7.843h-25.774c-5.284,0-9.583,3.523-9.583,7.843v7.115l-54.712-36.333
		c0,0-3.839-2.769-8.496-2.769c-4.653,0-8.343,2.769-8.343,2.769L31.531,100.141z"/>
</g>
</svg>
