<?xml version="1.0" encoding="utf-8"?>
<!-- Generator: Adobe Illustrator 23.0.1, SVG Export Plug-In . SVG Version: 6.00 Build 0)  -->
<svg version="1.1" id="Layer_1" xmlns="http://www.w3.org/2000/svg" xmlns:xlink="http://www.w3.org/1999/xlink" x="0px" y="0px"
	 viewBox="0 0 50.2 74.6" style="enable-background:new 0 0 50.2 74.6;" xml:space="preserve">
<style type="text/css">
	.st0{fill:#e4ff1a;stroke:#000000;}
</style>
<g>
	<g>
		<path class="st0" d="M41.3,0.5H9C4.3,0.5,0.5,4.3,0.5,9v56.6c0,4.7,3.8,8.5,8.5,8.5h32.3c4.6,0,8.5-3.8,8.5-8.5V9
			C49.7,4.3,45.9,0.5,41.3,0.5z M29.2,69.1H21c-1.2,0-2.3-1-2.3-2.3c0-1.2,1-2.3,2.3-2.3h8.3c1.2,0,2.2,1,2.3,2.3
			C31.5,68.1,30.5,69.1,29.2,69.1z M43.9,60.4l-37.6,0L6.3,9.5l37.6,0V60.4z"/>
	</g>
	<g>
		<path d="M29.1,36.2v-4.4l-0.7-0.3c-1.3-0.5-3.4-0.7-5.7-0.7c-4.2,0-8.8,0.9-11,3.1c1.4-4.2,5.4-11.5,16.3-11.6l1.1,0v-4.7l8.8,8
			c0.4,0.3,0.6,0.8,0.6,1.3c0,0.5-0.2,0.9-0.6,1.3L29.1,36.2z"/>
		<path d="M21.1,33.6v4.4l0.7,0.3c1.3,0.5,3.4,0.7,5.7,0.7c4.2,0,8.8-0.9,11-3.1c-1.4,4.2-5.4,11.5-16.3,11.6l-1.1,0v4.7l-8.8-8
			c-0.4-0.3-0.6-0.8-0.6-1.3c0-0.5,0.2-0.9,0.6-1.3L21.1,33.6z"/>
	</g>
</g>
</svg>
