<?xml version="1.0" encoding="utf-8"?>
<!-- Generator: Adobe Illustrator 19.2.1, SVG Export Plug-In . SVG Version: 6.00 Build 0)  -->
<svg version="1.1" id="Layer_1" xmlns="http://www.w3.org/2000/svg" xmlns:xlink="http://www.w3.org/1999/xlink" x="0px" y="0px"
	 viewBox="0 0 2799.8 200" style="enable-background:new 0 0 2799.8 200;" xml:space="preserve">
<style type="text/css">
	.st0{fill:none;stroke:#4AD1ED;stroke-width:6;stroke-linecap:round;stroke-linejoin:bevel;stroke-miterlimit:10;}
	.st1{fill:none;stroke:#262194;stroke-width:6;stroke-linecap:round;stroke-linejoin:bevel;stroke-miterlimit:10;}
	.st2{fill:none;stroke:#4AD1ED;stroke-width:7;stroke-miterlimit:10;}
	.st3{fill:none;stroke:#262194;stroke-width:7;stroke-miterlimit:10;}
	.st4{fill:#4AD1ED;}
	.st5{fill:#262194;}
	.st6{fill:#E4FF1A;}
	.st7{fill:#FFFFFF;}
	.st8{fill:none;stroke:#000000;stroke-width:7;stroke-linecap:square;stroke-miterlimit:10;}
	.st9{fill:none;stroke:#000000;stroke-width:6;stroke-linecap:square;stroke-miterlimit:10;}
	.st10{fill:none;stroke:#000000;stroke-width:7;stroke-linecap:square;stroke-linejoin:round;stroke-miterlimit:10;}
	.st11{fill:none;stroke:#FFFFFF;stroke-width:7;stroke-linecap:square;stroke-linejoin:round;stroke-miterlimit:10;}
</style>
<line class="st0" x1="152.2" y1="163.8" x2="108.7" y2="120.4"/>
<path class="st0" d="M41.2,43.3C52.8,31.2,70.2,25,88,28.5c27.7,5.5,45.8,32.4,40.4,60.1c-0.8,4.1-2.1,7.9-3.7,11.5"/>
<path class="st0" d="M124.6,100.2c-9.6,21-32.7,33.5-56.4,28.8c-9.8-1.9-18.3-6.5-25.1-12.8"/>
<path class="st0" d="M121.3,110.4l48,48c4.4,4.4,5.5,10.6,2.4,13.7c-3.1,3.1-9.3,2-13.7-2.4l-5.7-5.7"/>
<path class="st0" d="M30.3,96.7c-3.2-8.6-4.1-18.1-2.2-27.8c5.5-27.7,32.4-45.8,60.1-40.4c4.1,0.8,7.9,2.1,11.5,3.7"/>
<path class="st0" d="M40.2,70c1.4-7.7,5.3-15.1,11.5-20.8c15.3-14,39-13,53,2.3c2.1,2.2,3.8,4.7,5.2,7.2"/>
<line class="st1" x1="352.2" y1="163.8" x2="308.7" y2="120.4"/>
<path class="st1" d="M241.2,43.3C252.8,31.2,270.2,25,288,28.5c27.7,5.5,45.8,32.4,40.4,60.1c-0.8,4.1-2.1,7.9-3.7,11.5"/>
<path class="st1" d="M324.6,100.2c-9.6,21-32.7,33.5-56.4,28.8c-9.8-1.9-18.3-6.5-25.1-12.8"/>
<path class="st1" d="M321.3,110.4l48,48c4.4,4.4,5.5,10.6,2.4,13.7c-3.1,3.1-9.3,2-13.7-2.4l-5.7-5.7"/>
<path class="st1" d="M230.3,96.7c-3.2-8.6-4.1-18.1-2.2-27.8c5.5-27.7,32.4-45.8,60.1-40.4c4.1,0.8,7.9,2.1,11.5,3.7"/>
<path class="st1" d="M240.2,70c1.4-7.7,5.3-15.1,11.5-20.8c15.3-14,39-13,53,2.3c2.1,2.2,3.8,4.7,5.2,7.2"/>
<path class="st2" d="M511.9,147.6c12.6,0,31.6,6.2,33.7,16.8l2.1,12.6"/>
<path class="st2" d="M425.6,177l2.1-12.6c2.1-10.5,23.2-16.8,33.7-16.8"/>
<path class="st2" d="M455.1,88.5c-2.1,0-4.2,1.9-4.2,4.2v8.4c0,2.3,1.9,4.2,4.2,4.2c0,0,6.3,16.8,10.5,23.2
	c2.6,3.9,6.3,10.5,21.1,10.5c14.7,0,18.5-6.6,21.1-10.5c4.2-6.3,10.5-23.2,10.5-23.2c2.3,0,4.2-1.9,4.2-4.2v-8.4
	c0-2.3-1.9-4.2-4.2-4.2v-6.3c0-14.7-8.3-27.4-31.6-27.4c-23.2,0-31.6,12.6-31.6,27.4L455.1,88.5L455.1,88.5z"/>
<line class="st2" x1="553.4" y1="24.8" x2="553.4" y2="71.8"/>
<line class="st2" x1="529.9" y1="48.3" x2="576.9" y2="48.3"/>
<path class="st3" d="M713.2,147.5c12.7,0,31.7,6.3,33.8,16.8l2.1,12.7"/>
<path class="st3" d="M626.6,177l2.1-12.7c2.1-10.6,23.2-16.9,33.8-16.9"/>
<path class="st3" d="M656.2,88.3c-2.1,0-4.2,1.9-4.2,4.2v8.5c0,2.3,1.9,4.2,4.2,4.2c0,0,6.3,16.9,10.6,23.2
	c2.6,3.9,6.3,10.6,21.1,10.6c14.8,0,18.5-6.6,21.1-10.6c4.2-6.3,10.6-23.2,10.6-23.2c2.3,0,4.2-1.9,4.2-4.2v-8.5
	c0-2.3-1.9-4.2-4.2-4.2v-6.3c0-14.8-8.4-27.5-31.7-27.5c-23.3,0-31.7,12.7-31.7,27.5L656.2,88.3L656.2,88.3z"/>
<line class="st3" x1="754.8" y1="24.4" x2="754.8" y2="71.5"/>
<line class="st3" x1="731.3" y1="47.9" x2="778.4" y2="47.9"/>
<path class="st2" d="M929.8,141.2c15.4,0,38.5,7.6,41.1,20.4l2.6,15.4"/>
<path class="st2" d="M824.6,177l2.6-15.4c2.6-12.8,28.2-20.5,41.1-20.5"/>
<path class="st2" d="M860.5,69.2c-2.6,0-5.1,2.3-5.1,5.1v10.3c0,2.8,2.3,5.1,5.1,5.1c0,0,7.7,20.5,12.8,28.2
	c3.2,4.8,7.7,12.8,25.7,12.8c18,0,22.5-8.1,25.7-12.8c5.1-7.7,12.8-28.2,12.8-28.2c2.8,0,5.1-2.3,5.1-5.1V74.3
	c0-2.8-2.3-5.1-5.1-5.1v-7.7c0-18-10.2-33.4-38.5-33.4c-28.2,0-38.5,15.4-38.5,33.4L860.5,69.2L860.5,69.2z"/>
<path class="st3" d="M1130.1,141c15.4,0,38.5,7.6,41,20.4l2.6,15.4"/>
<path class="st3" d="M1025,176.8l2.6-15.4c2.6-12.8,28.2-20.5,41-20.5"/>
<path class="st3" d="M1060.9,69.1c-2.6,0-5.1,2.3-5.1,5.1v10.3c0,2.8,2.3,5.1,5.1,5.1c0,0,7.7,20.5,12.8,28.2
	c3.2,4.8,7.7,12.8,25.6,12.8c17.9,0,22.5-8.1,25.6-12.8c5.1-7.7,12.8-28.2,12.8-28.2c2.8,0,5.1-2.3,5.1-5.1V74.2
	c0-2.8-2.3-5.1-5.1-5.1v-7.7c0-18-10.2-33.3-38.5-33.3c-28.2,0-38.5,15.4-38.5,33.3L1060.9,69.1L1060.9,69.1z"/>
<path class="st4" d="M1314.2,24.8c-2,0.2-3.3,2.2-2.5,4.1l19.3,49.5h-62.8l19.3-49.5c0.8-2-0.7-4.2-2.9-4.1
	c-1.2,0.1-2.2,0.8-2.7,1.9l-20.1,51.7h-39.7c-4.9,0-8.9,4-8.9,8.9v3c0,4.9,4,8.9,8.9,8.9h89.4c4,0.1,4-6,0-6h-89.4c-1.7,0-3-1.3-3-3
	v-3c0-1.7,1.3-3,3-3h155c1.7,0,3,1.3,3,3v3c0,1.7-1.3,3-3,3h-41.7c-4-0.1-4,6,0,6h41.7c4.9,0,8.9-4,8.9-8.9v-3c0-4.9-4-8.9-8.9-8.9
	h-39.7l-20.1-51.7c-0.4-1.2-1.5-1.9-2.7-1.9C1314.4,24.8,1314.3,24.8,1314.2,24.8"/>
<path class="st4" d="M1368.1,94.1c-1.4,0-2.6,1-2.9,2.3l-5,21.7c-0.4,1.6,0.6,3.2,2.2,3.5c1.6,0.4,3.2-0.6,3.6-2.2l5-21.6
	c0.4-1.6-0.6-3.2-2.2-3.6C1368.6,94.1,1368.3,94.1,1368.1,94.1 M1230.9,94.1c-1.6,0.1-2.9,1.4-2.9,3.1c0,0.2,0,0.4,0.1,0.6l14.7,63
	c2.2,9.4,10.6,16,20.3,16h72.9c9.7,0,18.1-6.7,20.3-16l3.2-13.8c0.5-1.6-0.4-3.2-2-3.7c-1.6-0.5-3.2,0.4-3.7,2
	c0,0.1-0.1,0.2-0.1,0.3l-3.2,13.8c-1.6,6.7-7.6,11.4-14.5,11.4h-72.9c-7,0-13-4.7-14.5-11.4l-14.7-63
	C1233.6,95,1232.3,94,1230.9,94.1z M1363.6,129.3c0.4-1.6-0.6-3.2-2.2-3.6c-0.2-0.1-0.4-0.1-0.7-0.1v0c-1.4,0-2.7,1-3,2.3l-1.8,7.9
	c-0.5,1.6,0.5,3.2,2,3.7c1.6,0.5,3.2-0.4,3.7-2c0-0.1,0.1-0.2,0.1-0.3"/>
<path class="st4" d="M1259.3,112.7c-1.6,0-3,1.4-2.9,3c0,0.2,0,0.4,0.1,0.6l7.4,37.2c0.3,1.6,1.8,2.7,3.4,2.4
	c1.6-0.3,2.7-1.8,2.4-3.4c0-0.1,0-0.1,0-0.2l-7.4-37.2C1262,113.7,1260.7,112.7,1259.3,112.7"/>
<path class="st4" d="M1339.7,112.7c-1.4,0-2.6,1-2.9,2.4l-7.4,37.2c-0.4,1.6,0.6,3.2,2.2,3.6c1.6,0.4,3.2-0.6,3.6-2.2
	c0-0.1,0-0.1,0-0.2l7.4-37.2c0.3-1.6-0.7-3.2-2.3-3.5C1340.2,112.7,1339.9,112.7,1339.7,112.7"/>
<path class="st4" d="M1284.5,112.7c-1.6,0.1-2.9,1.4-2.9,3.1c0,0.1,0,0.2,0,0.3l4.5,37.2c0.2,1.6,1.7,2.8,3.3,2.6
	c1.6-0.2,2.8-1.7,2.6-3.3l-4.5-37.2C1287.4,113.8,1286.1,112.7,1284.5,112.7z"/>
<path class="st4" d="M1314.4,112.7c-1.5,0-2.8,1.1-3,2.7l-4.5,37.2c-0.2,1.6,1,3.1,2.6,3.3c1.6,0.2,3.1-1,3.3-2.6l4.5-37.2
	c0.2-1.6-0.9-3.1-2.5-3.4C1314.7,112.7,1314.6,112.7,1314.4,112.7"/>
<path class="st5" d="M1514.8,24.9c-2,0.2-3.3,2.2-2.5,4.1l19.3,49.6h-62.8L1488,29c0.8-2-0.7-4.2-2.9-4.1c-1.2,0.1-2.2,0.8-2.7,1.9
	l-20.1,51.7h-39.7c-4.9,0-8.9,4-8.9,8.9v3c0,4.9,4,8.9,8.9,8.9h89.5c4,0.1,4-6,0-6h-89.5c-1.7,0-3-1.3-3-3v-3c0-1.7,1.3-3,3-3h155.1
	c1.7,0,3,1.3,3,3v3c0,1.7-1.3,3-3,3H1536c-4-0.1-4,6,0,6h41.7c4.9,0,8.9-4,8.9-8.9v-3c0-4.9-4-8.9-8.9-8.9H1538l-20.1-51.7
	c-0.4-1.2-1.5-1.9-2.7-1.9C1515,24.9,1514.9,24.9,1514.8,24.9"/>
<path class="st5" d="M1568.8,94.3c-1.4,0-2.6,1-2.9,2.3l-5.1,21.7c-0.4,1.6,0.6,3.2,2.2,3.5c1.6,0.4,3.2-0.6,3.6-2.2l5.1-21.7
	c0.4-1.6-0.6-3.2-2.2-3.6C1569.3,94.3,1569,94.3,1568.8,94.3 M1431.5,94.3c-1.6,0.1-2.9,1.4-2.9,3.1c0,0.2,0,0.4,0.1,0.6l14.7,63
	c2.2,9.4,10.6,16,20.3,16h72.9c9.7,0,18.2-6.7,20.3-16l3.2-13.8c0.5-1.6-0.4-3.2-2-3.7c-1.6-0.5-3.2,0.4-3.7,2
	c0,0.1-0.1,0.2-0.1,0.3l-3.2,13.8c-1.6,6.7-7.6,11.4-14.5,11.4h-72.9c-7,0-13-4.7-14.5-11.4l-14.7-63.1
	C1434.2,95.2,1432.9,94.2,1431.5,94.3z M1564.3,129.4c0.4-1.6-0.6-3.2-2.2-3.6c-0.2-0.1-0.4-0.1-0.7-0.1v0c-1.4,0-2.7,1-3,2.3
	l-1.8,7.9c-0.5,1.6,0.5,3.2,2,3.7c1.6,0.5,3.2-0.4,3.7-2c0-0.1,0.1-0.2,0.1-0.3"/>
<path class="st5" d="M1459.9,112.9c-1.6,0-3,1.4-2.9,3c0,0.2,0,0.4,0.1,0.6l7.4,37.2c0.3,1.6,1.8,2.7,3.4,2.4
	c1.6-0.3,2.7-1.8,2.4-3.4c0-0.1,0-0.1,0-0.2l-7.4-37.2C1462.6,113.9,1461.4,112.9,1459.9,112.9"/>
<path class="st5" d="M1540.4,112.9c-1.4,0-2.6,1-2.9,2.4l-7.4,37.2c-0.4,1.6,0.6,3.2,2.2,3.6c1.6,0.4,3.2-0.6,3.6-2.2
	c0-0.1,0-0.1,0-0.2l7.4-37.2c0.3-1.6-0.7-3.2-2.3-3.5C1540.9,112.9,1540.6,112.9,1540.4,112.9"/>
<path class="st5" d="M1485.2,112.9c-1.6,0.1-2.9,1.4-2.9,3.1c0,0.1,0,0.2,0,0.3l4.5,37.2c0.2,1.6,1.7,2.8,3.3,2.6
	c1.6-0.2,2.8-1.7,2.6-3.3l-4.5-37.2C1488.1,114,1486.7,112.8,1485.2,112.9z"/>
<path class="st5" d="M1515.1,112.9c-1.5,0-2.8,1.1-3,2.7l-4.5,37.2c-0.2,1.6,1,3.1,2.6,3.3c1.6,0.2,3.1-1,3.3-2.6l4.5-37.2
	c0.2-1.6-0.9-3.1-2.5-3.4C1515.4,112.9,1515.2,112.9,1515.1,112.9"/>
<polyline class="st6" points="1617.5,48.5 1617.5,157.8 1788.8,157.8 1788.8,81.3 1755.8,48.3 "/>
<rect x="1628.9" y="64.3" class="st7" width="105.5" height="74.7"/>
<path class="st8" d="M1768.1,154.4h-149.3c-2.6,0-4.7-2.1-4.7-4.7V53c0-2.6,2.1-4.7,4.7-4.7h136.9l29.9,32.6v73.5"/>
<polyline class="st8" points="1632.4,64.3 1734.4,64.3 1734.4,139 1632.4,139 1632.4,78.9 "/>
<line class="st8" x1="1667.2" y1="74.7" x2="1667.2" y2="128.3"/>
<line class="st8" x1="1698.4" y1="74.7" x2="1698.4" y2="128.3"/>
<line class="st8" x1="1655.3" y1="89.1" x2="1644.5" y2="89.1"/>
<line class="st8" x1="1655.3" y1="115.4" x2="1644.5" y2="115.4"/>
<line class="st8" x1="1720.7" y1="89.4" x2="1710.2" y2="89.4"/>
<line class="st8" x1="1720.7" y1="115.7" x2="1710.2" y2="115.7"/>
<rect x="1852.5" y="17.7" class="st6" width="96.4" height="167.4"/>
<rect x="1861.1" y="30.7" class="st7" width="73.3" height="122"/>
<path class="st9" d="M1864.1,30.7h67.7c1.5,0,2.7,1.2,2.7,2.7v118.1c0,1.5-1.2,2.7-2.7,2.7h-65c-1.5,0-2.7-1.2-2.7-2.7V48"/>
<path class="st9" d="M1946,183.9h-89.9c-2,0-3.6-1.6-3.6-3.6V21.3c0-2,1.6-3.6,3.6-3.6h86.3c2,0,3.6,1.6,3.6,3.6v145.6"/>
<path d="M1904.9,169.2c0,3.1-2.5,5.7-5.7,5.7s-5.7-2.5-5.7-5.7c0-3.1,2.5-5.7,5.7-5.7S1904.9,166.1,1904.9,169.2"/>
<rect x="2021" y="45.7" class="st6" width="158.9" height="115.3"/>
<path class="st10" d="M2157.2,157.5h-133.6c-2.4,0-4.4-2-4.4-4.4V49.3c0-2.4,2-4.4,4.4-4.4h152c2.4,0,4.4,2,4.4,4.4v108.3"/>
<line class="st10" x1="2031.9" y1="76.8" x2="2166.9" y2="76.8"/>
<line class="st10" x1="2042.7" y1="130.7" x2="2087.4" y2="130.7"/>
<line class="st10" x1="2042.7" y1="117.9" x2="2076.4" y2="117.9"/>
<line class="st10" x1="2032.3" y1="89.6" x2="2167.3" y2="89.6"/>
<line class="st11" x1="2031.9" y1="83.2" x2="2166.9" y2="83.2"/>
<line class="st11" x1="2042.7" y1="124.2" x2="2087.4" y2="124.2"/>
<g>
	<g id="facebook">
		<g>
			<path class="st7" d="M2339.3,24.8l-23.1,0c0,0-0.5,0-1.3,0c-4.7,0-28.7,1.3-35.2,27c-0.1,0.3-2.3,6.7-2.3,21.7h-21.9
				c-1.9,0-3.5,1.6-3.5,3.5v20.2c0,1.9,1.6,3.5,3.5,3.5h24v72.5c0,1.9,1.6,3.5,3.5,3.5h27.4c1.9,0,3.5-1.6,3.5-3.5v-72.4h24
				c1.9,0,3.5-1.6,3.5-3.5V77c0-1.9-1.6-3.5-3.5-3.5h-24v-8.7c0-5.8,3.7-11.9,13.9-11.9h11.4c1.9,0,3.5-1.6,3.5-3.5v-21
				C2342.9,26.4,2341.3,24.8,2339.3,24.8z M2335.8,45.8h-7.9c-14.5,0-21,9.5-21,19V77c0,1.9,1.6,3.5,3.5,3.5h24v13.2h-24
				c-1.9,0-3.5,1.6-3.5,3.5v72.4h-20.4V97.2c0-1.9-1.6-3.5-3.5-3.5h-24V80.5h21.9c0.9,0,1.9-0.4,2.5-1.1c0.7-0.7,1-1.6,1-2.5
				c-0.3-16,1.9-22.8,2-23.1c5.2-20.4,23.1-22,28.5-22c0.5,0,0.8,0,1.1,0h19.8V45.8L2335.8,45.8z"/>
		</g>
	</g>
</g>
<g>
	<g id="twitter">
		<g>
			<path class="st7" d="M2591.5,42.5c-1.5-1-3.5-1-4.9,0.1c-1,0.7-2.5,1.4-4.2,2c5.7-7.1,5.8-11.8,5.7-13c-0.1-1.5-1-2.9-2.4-3.5
				c-1.4-0.7-3-0.5-4.2,0.4c-7.8,5.6-15.6,6.8-20.2,7c-7.4-6.9-17-10.7-27.2-10.7c-22,0-40,17.9-40,40c0,1.6,0.1,3.2,0.3,4.8
				c-36.8-0.9-66.6-35.6-66.9-35.9c-0.9-1-2.2-1.6-3.6-1.5c-1.4,0.1-2.6,0.9-3.3,2.1c-9.4,16-5.5,31.2,0.9,41.8
				c-1.2-0.6-2.6-0.7-3.9-0.1c-1.4,0.7-2.3,2.1-2.3,3.7c-0.3,16.8,7.4,26.9,15.1,32.7c-0.6,0.2-1.1,0.6-1.5,1.1
				c-1,1.1-1.4,2.7-0.9,4.1c5.4,17.4,18,23.9,26.9,26.3c-10.2,7.2-22.8,8.9-32.3,8.9c-6.1,0-10.3-0.7-10.4-0.7
				c-1.9-0.3-3.8,0.7-4.6,2.5c-0.8,1.8-0.2,3.9,1.3,5c19.2,14.4,42.4,17.5,58.4,17.5c12.7,0,21.5-1.9,22-2
				c82.5-19.3,85.6-93.2,85.5-106.7c15.5-14.2,17.9-19.7,18.3-21.1C2593.6,45.4,2593,43.5,2591.5,42.5z M2567.7,63.3
				c-1,0.9-1.5,2.1-1.4,3.4c0.1,0.8,4.6,80.5-78.8,100c-0.1,0-8.4,1.8-20.1,1.8c-10.9,0-25.4-1.5-39.2-7.6
				c12.7-0.8,28.2-4.7,39.3-17c1.1-1.2,1.4-3,0.7-4.5c-0.7-1.5-2.2-2.5-3.9-2.5c-0.8,0-17.4-0.2-25.7-15.6c3.8,0.1,7.3-0.4,9.9-1.6
				c1.7-0.8,2.6-2.5,2.4-4.3c-0.2-1.8-1.5-3.3-3.3-3.7c-0.9-0.2-20-4.5-23.4-24.7c3,1.1,6.6,1.9,10.2,1.4c1.6-0.2,3-1.4,3.4-3
				c0.5-1.6-0.1-3.3-1.3-4.4c-0.8-0.7-19.1-16.5-11.1-37.3c10.6,10.8,39.5,36.1,74.3,34.2c1.3-0.1,2.4-0.7,3.2-1.7
				c0.7-1,1-2.3,0.7-3.5c-0.7-2.6-1-5.2-1-7.8c0-17.4,14.1-31.5,31.5-31.5c8.5,0,16.5,3.3,22.5,9.4c0.8,0.8,1.8,1.2,2.9,1.3l0.6,0
				c3.1,0,8-0.4,13.5-2.2c-1.8,1.9-4.1,4-7.1,6.3c-1.5,1.1-2,3.1-1.4,4.9c0.7,1.7,2.4,2.8,4.3,2.7c0.7-0.1,3.7-0.3,7.4-1
				C2574.5,57,2571.5,59.9,2567.7,63.3z"/>
		</g>
	</g>
</g>
<g>
	<path class="st7" d="M2699.2,38.4c20.3,0,22.7,0.1,30.8,0.4c7.4,0.3,11.5,1.6,14.1,2.6c3.6,1.4,6.1,3,8.8,5.7
		c2.7,2.7,4.3,5.2,5.7,8.8c1,2.7,2.3,6.7,2.6,14.1c0.4,8,0.4,10.4,0.4,30.8s-0.1,22.7-0.4,30.8c-0.3,7.4-1.6,11.5-2.6,14.1
		c-1.4,3.6-3,6.1-5.7,8.8c-2.7,2.7-5.2,4.3-8.8,5.7c-2.7,1-6.7,2.3-14.1,2.6c-8,0.4-10.4,0.4-30.8,0.4s-22.7-0.1-30.8-0.4
		c-7.4-0.3-11.5-1.6-14.1-2.6c-3.6-1.4-6.1-3-8.8-5.7c-2.7-2.7-4.3-5.2-5.7-8.8c-1-2.7-2.3-6.7-2.6-14.1c-0.4-8-0.4-10.4-0.4-30.8
		s0.1-22.7,0.4-30.8c0.3-7.4,1.6-11.5,2.6-14.1c1.4-3.6,3-6.1,5.7-8.8c2.7-2.7,5.2-4.3,8.8-5.7c2.7-1,6.7-2.3,14.1-2.6
		C2676.5,38.5,2678.9,38.4,2699.2,38.4 M2699.2,24.7c-20.7,0-23.3,0.1-31.4,0.5c-8.1,0.4-13.6,1.7-18.5,3.5c-5,1.9-9.3,4.5-13.5,8.8
		c-4.2,4.2-6.8,8.5-8.8,13.5c-1.9,4.8-3.2,10.4-3.5,18.5c-0.4,8.1-0.5,10.7-0.5,31.4c0,20.7,0.1,23.3,0.5,31.4
		c0.4,8.1,1.7,13.6,3.5,18.5c1.9,5,4.5,9.3,8.8,13.5c4.2,4.2,8.5,6.8,13.5,8.8c4.8,1.9,10.4,3.2,18.5,3.5c8.1,0.4,10.7,0.5,31.4,0.5
		s23.3-0.1,31.4-0.5c8.1-0.4,13.6-1.7,18.5-3.5c5-1.9,9.3-4.5,13.5-8.8c4.2-4.2,6.8-8.5,8.8-13.5c1.9-4.8,3.2-10.4,3.5-18.5
		c0.4-8.1,0.5-10.7,0.5-31.4s-0.1-23.3-0.5-31.4c-0.4-8.1-1.7-13.6-3.5-18.5c-1.9-5-4.5-9.3-8.8-13.5c-4.2-4.2-8.5-6.8-13.5-8.8
		c-4.8-1.9-10.4-3.2-18.5-3.5C2722.5,24.8,2719.9,24.7,2699.2,24.7L2699.2,24.7z"/>
	<path class="st7" d="M2699.2,61.7c-21.6,0-39.1,17.5-39.1,39.1c0,21.6,17.5,39.1,39.1,39.1s39.1-17.5,39.1-39.1
		C2738.3,79.2,2720.8,61.7,2699.2,61.7z M2699.2,126.2c-14,0-25.4-11.4-25.4-25.4c0-14,11.4-25.4,25.4-25.4s25.4,11.4,25.4,25.4
		C2724.6,114.8,2713.2,126.2,2699.2,126.2z"/>
	<circle class="st7" cx="2739.8" cy="60.2" r="9.1"/>
</g>
</svg>
