<?xml version="1.0" encoding="utf-8"?>
<!-- Generator: Adobe Illustrator 23.0.1, SVG Export Plug-In . SVG Version: 6.00 Build 0)  -->
<svg version="1.1" id="Layer_1" xmlns="http://www.w3.org/2000/svg" xmlns:xlink="http://www.w3.org/1999/xlink" x="0px" y="0px"
	 viewBox="0 0 111 134" style="enable-background:new 0 0 111 134;" xml:space="preserve">
<style type="text/css">
	.st0{fill:#00AEEF;}
	.st1{fill:url(#SVGID_1_);}
	.st2{fill:url(#SVGID_2_);}
	.st3{fill:url(#SVGID_3_);}
	.st4{fill:#6A719E;}
	.st5{fill:#FFFFFF;}
</style>
<g>
	<path class="st0" d="M2.1,38.4c-3.1,2.1-1.4,6.3,2.7,6.3h1.7v54.6c0,6.6,5.6,11.9,12.4,11.9h6.9l7.7-8.3l-13.2,23
		c-2.3,4.6,1.6,6.4,4.8,4c6.1-4.6,22.9-17.9,22.9-17.9l1.1-0.8h43.2c6.8,0,12.4-5.4,12.4-11.9V44.7h1.6c4.1,0,5.8-4.2,2.7-6.3
		l-13.2-9V15.2c0-1.7-1.6-3-3.6-3h-9.6c-2,0-3.6,1.3-3.6,3v2.7L58.6,4c0,0-1.4-1.1-3.2-1.1S52.4,4,52.4,4S2.1,38.4,2.1,38.4z"/>
	
		<linearGradient id="SVGID_1_" gradientUnits="userSpaceOnUse" x1="1931.4235" y1="3274.0593" x2="1931.4235" y2="2993.4194" gradientTransform="matrix(0.2851 0 0 0.2851 -495.1496 -821.9908)">
		<stop  offset="9.200000e-02" style="stop-color:#02205F"/>
		<stop  offset="0.9264" style="stop-color:#303D75"/>
	</linearGradient>
	<path class="st1" d="M2.1,38.4c-3.1,2.1-1.4,6.3,2.7,6.3h1.7v54.6c0,6.6,5.6,11.9,12.4,11.9h6.9l7.7-8.3l-13.2,23
		c-2.3,4.6,1.6,6.4,4.8,4c6.1-4.6,22.9-17.9,22.9-17.9l1.1-0.8h43.2c6.8,0,12.4-5.4,12.4-11.9V44.7h1.6c4.1,0,5.8-4.2,2.7-6.3
		l-13.2-9V15.2c0-1.7-1.6-3-3.6-3h-9.6c-2,0-3.6,1.3-3.6,3v2.7L58.6,4c0,0-1.4-1.1-3.2-1.1S52.4,4,52.4,4S2.1,38.4,2.1,38.4z"/>
	
		<radialGradient id="SVGID_2_" cx="2356.9858" cy="5058.1948" r="350.7" gradientTransform="matrix(0.2891 0 0 0.1623 -649.7662 -686.0284)" gradientUnits="userSpaceOnUse">
		<stop  offset="0" style="stop-color:#00AEEF"/>
		<stop  offset="0.1436" style="stop-color:#00AEEF"/>
		<stop  offset="0.9149" style="stop-color:#00AEEF;stop-opacity:0"/>
	</radialGradient>
	<path class="st2" d="M22.2,128.9c-0.2,0-0.3,0-0.3-0.1c-0.1-0.1-0.2-0.7,0.4-1.9c0,0,12.9-22.6,13.1-23c1.9-3.3-1.6-4.7-3.6-2.5
		c-0.3,0.4-7,7.6-7,7.6h-5.9c-5.6,0-10.2-4.4-10.2-9.8V42.5H4.8c-1.2,0-1.8-0.6-2-1.1c-0.2-0.5,0-1,0.6-1.3L53.7,5.7l0,0
		c0.2-0.2,1-0.6,1.7-0.6c0.8,0,1.6,0.4,1.8,0.6l0,0h0l23.9,16.3v-6.9c0-0.4,0.6-0.9,1.3-0.9h9.6c0.8,0,1.3,0.5,1.3,0.9v15.3
		l14.1,9.6c0.5,0.4,0.7,0.8,0.6,1.3c-0.2,0.5-0.8,1.1-2,1.1h-3.8v56.7c0,5.4-4.6,9.8-10.2,9.8h-44l-1.7,1.3
		c-0.2,0.2-16.7,13.4-22.8,17.9C23,128.8,22.4,128.9,22.2,128.9z"/>
	
		<radialGradient id="SVGID_3_" cx="2440.7559" cy="2905.4622" r="351.65" gradientTransform="matrix(0.2891 0 0 0.2784 -649.7662 -818.7972)" gradientUnits="userSpaceOnUse">
		<stop  offset="0" style="stop-color:#00AEEF"/>
		<stop  offset="0.7234" style="stop-color:#00AEEF;stop-opacity:0"/>
	</radialGradient>
	<path class="st3" d="M22.2,128.9c-0.2,0-0.3,0-0.3-0.1c-0.1-0.1-0.2-0.7,0.4-1.9c0,0,12.9-22.6,13.1-23c1.9-3.3-1.6-4.7-3.6-2.5
		c-0.3,0.4-7,7.6-7,7.6h-5.9c-5.6,0-10.2-4.4-10.2-9.8V42.5H4.8c-1.2,0-1.8-0.6-2-1.1c-0.2-0.5,0-1,0.6-1.3L53.7,5.7l0,0
		c0.2-0.2,1-0.6,1.7-0.6c0.8,0,1.6,0.4,1.8,0.6l0,0h0l23.9,16.3v-6.9c0-0.4,0.6-0.9,1.3-0.9h9.6c0.8,0,1.3,0.5,1.3,0.9v15.3
		l14.1,9.6c0.5,0.4,0.7,0.8,0.6,1.3c-0.2,0.5-0.8,1.1-2,1.1h-3.8v56.7c0,5.4-4.6,9.8-10.2,9.8h-44l-1.7,1.3
		c-0.2,0.2-16.7,13.4-22.8,17.9C23,128.8,22.4,128.9,22.2,128.9z"/>
	<path class="st0" d="M49.8,84.7c-0.5,0-0.9-0.4-0.9-0.9s0.4-0.9,0.9-0.9c0.5,0,0.9,0.4,0.9,0.9S50.3,84.7,49.8,84.7"/>
	<rect x="41.3" y="74.6" class="st0" width="3.4" height="3.3"/>
	<rect x="45.3" y="74.6" class="st0" width="3.4" height="3.3"/>
	<rect x="41.3" y="78.5" class="st0" width="3.4" height="3.2"/>
	<rect x="45.3" y="78.5" class="st0" width="3.4" height="3.2"/>
	<g>
		<path class="st4" d="M49.8,84.7c-0.5,0-0.9-0.4-0.9-0.9s0.4-0.9,0.9-0.9c0.5,0,0.9,0.4,0.9,0.9S50.3,84.7,49.8,84.7"/>
		<rect x="41.3" y="74.6" class="st4" width="3.4" height="3.3"/>
		<rect x="45.3" y="74.6" class="st4" width="3.4" height="3.3"/>
		<rect x="41.3" y="78.5" class="st4" width="3.4" height="3.2"/>
		<rect x="45.3" y="78.5" class="st4" width="3.4" height="3.2"/>
	</g>
	<g>
		<path class="st5" d="M33.8,42.9v-0.6c0-0.4-0.3-0.7-0.7-0.7H14.5c-0.4,0-0.7,0.3-0.7,0.7v0.6c0,0.4,0.3,0.7,0.7,0.7h8.1v24.2
			c0,0.4,0.3,0.7,0.7,0.7h0.9c0.4,0,0.7-0.3,0.7-0.7V43.6h8.1C33.5,43.6,33.8,43.3,33.8,42.9z"/>
		<path class="st5" d="M73.9,66.6H62.2c-1,0-1-0.3-1-0.8l0-23.5c0-0.4-0.3-0.7-0.8-0.7h-0.8c-0.4,0-0.8,0.3-0.8,0.7v23.5
			c0,1.6,1.2,2.7,3,2.7h12c0.4,0,0.8-0.3,0.8-0.7v-0.6C74.7,66.9,74.3,66.6,73.9,66.6z"/>
	</g>
	<path class="st5" d="M54.6,46.3c0-2.4-2-4.8-5.4-4.8h-8.6c-3.5,0-5.4,2.5-5.4,4.8c0,0,0,0.8,0,0.8v20.7c0,0.5,0.3,0.8,0.8,0.8h0.7
		c0.5,0,0.8-0.3,0.8-0.8V56h14.8v11.9c0,0.5,0.3,0.8,0.8,0.8h0.7c0.5,0,0.8-0.3,0.8-0.8V47.2C54.6,47.1,54.6,46.3,54.6,46.3z
		 M37.5,53.9v-6.8v0v-0.8c0-1.4,1.3-2.8,3.4-2.8h8c2.1,0,3.4,1.5,3.4,2.8V54L37.5,53.9L37.5,53.9z"/>
	<path class="st5" d="M97.5,67.3l-9.6-15.2l7.9-9.3c0.6-0.8,0.3-1.1-0.2-1.1h-1.3c-0.5,0-0.7,0.2-1,0.5l-13,15.2V42.3
		c0-0.4-0.3-0.7-0.8-0.7h-0.8c-0.5,0-0.8,0.3-0.8,0.7v25.5c0,0.4,0.3,0.7,0.8,0.7h0.8c0.4,0,0.8-0.3,0.8-0.7v-6.2
		c0-0.8,0-0.8,0.7-1.6c0.2-0.2,5.3-6.1,5.3-6.1l9,14.2c0.2,0.2,0.4,0.5,0.8,0.5h0.9C97.6,68.6,98,68,97.5,67.3z"/>
	<path class="st5" d="M84.2,72.6h13.2c0.4,0,0.8-0.3,0.8-0.7v-0.6c0-0.4-0.3-0.7-0.8-0.7H83.8c-1.9,0-3.1,1.5-3.1,2.9v21.2
		c0,1.6,1.4,2.9,3.1,2.9h13.7c0.4,0,0.8-0.3,0.8-0.7v-0.6c0-0.4-0.3-0.7-0.8-0.7H84.2c-0.5,0-1.3-0.2-1.3-0.9v-10h11.5
		c0.4,0,0.8-0.3,0.8-0.7v-0.6c0-0.4-0.3-0.7-0.8-0.7H83v-9.1C83,73.2,83.4,72.6,84.2,72.6L84.2,72.6z M32.4,70.6h-0.9
		c-0.4,0-0.7,0.3-0.7,0.7v11.3H16.3V71.3c0-0.4-0.3-0.7-0.7-0.7h-0.9c-0.4,0-0.7,0.3-0.7,0.7v25.5c0,0.4,0.3,0.7,0.7,0.7h0.9
		c0.4,0,0.7-0.3,0.7-0.7V84.6h14.5v12.2c0,0.4,0.3,0.7,0.7,0.7h0.9c0.4,0,0.7-0.3,0.7-0.7V71.3C33,70.9,32.7,70.6,32.4,70.6z
		 M76.3,70.4c-1.6,0-2.1,1.3-2.3,2.1l-6.3,22.1l-6.3-22.1c-0.2-0.8-0.6-2.1-2.3-2.1c-1.5,0-2.2,1.3-2.2,2.5v23.6c0,0.6,0.3,1,0.8,1
		h0.6c0.5,0,0.8-0.4,0.8-1V73.4v-0.1c0,0.1,0.1,0.2,0.1,0.4L65.6,96c0.3,1.1,1.1,1.8,2.1,1.8c0.9,0,1.8-0.7,2.1-1.8l6.3-22.3
		c0-0.2,0.1-0.3,0.1-0.4v0.1v23.2c0,0.6,0.3,1,0.8,1h0.6c0.5,0,0.8-0.4,0.8-1V72.9C78.5,71.7,77.8,70.4,76.3,70.4L76.3,70.4z
		 M49.3,70.6h-8.6c-3.5,0-5.4,2.5-5.4,4.9v17.1c0,2.4,1.9,4.9,5.4,4.9h8.6c3.4,0,5.4-2.5,5.4-4.9V75.5
		C54.7,73.1,52.6,70.6,49.3,70.6z M52.4,92.7c0,1.4-1.3,2.9-3.4,2.9l-8.2,0c-1.3-0.1-3.3-1.1-3.3-2.9c0-3.2,0-15.9,0-17.2
		c0-1.4,1.3-2.9,3.4-2.9h8c2.1,0,3.4,1.5,3.4,2.9L52.4,92.7L52.4,92.7z"/>
</g>
</svg>
