<?xml version="1.0" encoding="utf-8"?>
<svg version="1.1" id="Layer_1" xmlns="http://www.w3.org/2000/svg" xmlns:xlink="http://www.w3.org/1999/xlink" width="100px" height="100px" x="0px" y="0px"
	 viewBox="0 0 200 200" style="enable-background:new 0 0 200 200;" xml:space="preserve">
<style type="text/css">
	.st0{fill:#0098DA;}
	.st1{fill:#FFFFFF;}
</style>
<path class="st0" d="M26.2,60.4c-4.2,2.9-1.9,8.8,3.7,8.8h2.3v75.4c0,9.1,7.7,16.5,17.1,16.5h9.5l10.6-11.4l-18.2,31.8
	c-3.1,6.4,2.2,8.9,6.7,5.6c8.5-6.3,31.6-24.8,31.6-24.8l1.5-1.2h59.7c9.4,0,17.1-7.4,17.1-16.5V69.2h2.2c5.6,0,8-5.9,3.7-8.8
	L155.6,48V28.4c0-2.3-2.2-4.2-4.9-4.2h-13.2c-2.7,0-4.9,1.9-4.9,4.2v3.8L104.3,13c0,0-2-1.5-4.4-1.5S95.7,13,95.7,13
	S26.2,60.4,26.2,60.4z"/>
<circle class="st1" cx="60" cy="103" r="10">
<animate  accumulate="none" additive="replace" attributeName="opacity" calcMode="linear" dur="1.3333333333333333s" fill="remove" keyTimes="0;0.2;1" repeatCount="indefinite" restart="always" values="0;1;1">
	</animate>
</circle>
<circle class="st1" cx="100" cy="103" r="10">
<animate  accumulate="none" additive="replace" attributeName="opacity" calcMode="linear" dur="1.3333333333333333s" fill="remove" keyTimes="0;0.2;0.4;1" repeatCount="indefinite" restart="always" values="0;0;1;1">
	</animate>
</circle>
<circle class="st1" cx="140" cy="103" r="10">
<animate  accumulate="none" additive="replace" attributeName="opacity" calcMode="linear" dur="1.3333333333333333s" fill="remove" keyTimes="0;0.4;0.6;1" repeatCount="indefinite" restart="always" values="0;0;1;1">
	</animate>
</circle>
</svg>
