<?xml version="1.0" encoding="UTF-8"?>
<svg width="200mm" height="60mm" version="1.1" viewBox="0 0 200 60" xmlns="http://www.w3.org/2000/svg" xmlns:cc="http://creativecommons.org/ns#" xmlns:dc="http://purl.org/dc/elements/1.1/" xmlns:rdf="http://www.w3.org/1999/02/22-rdf-syntax-ns#">
<defs>
<linearGradient id="a" x1="17.3" x2="27.46" y1="191.82" y2="181.66" gradientTransform="matrix(1.3625 0 0 -1.3625 -4.5233 500.84)" gradientUnits="userSpaceOnUse">
<stop stop-color="#32a071" offset="0"/>
<stop stop-color="#2da771" offset=".07"/>
<stop stop-color="#15cf74" offset=".48"/>
<stop stop-color="#06e775" offset=".8"/>
<stop stop-color="#00f076" offset="1"/>
</linearGradient>
<linearGradient id="b" x1="34.83" x2="12.07" y1="169.7" y2="146.95" gradientTransform="matrix(1.3625 0 0 -1.3625 -4.5233 500.84)" gradientUnits="userSpaceOnUse">
<stop stop-color="#ff3a44" offset="0"/>
<stop stop-color="#c31162" offset="1"/>
</linearGradient>
<linearGradient id="c" x1="43.83" x2="19.64" y1="172" y2="172" gradientTransform="matrix(1.3625 0 0 -1.3625 -4.5233 500.84)" gradientUnits="userSpaceOnUse">
<stop stop-color="#ffe000" offset="0"/>
<stop stop-color="#ffbd00" offset=".41"/>
<stop stop-color="orange" offset=".78"/>
<stop stop-color="#ff9c00" offset="1"/>
</linearGradient>
<linearGradient id="d" x1="31.8" x2="15.02" y1="183.29" y2="166.51" gradientTransform="matrix(1.3625 0 0 -1.3625 -4.5233 500.84)" gradientUnits="userSpaceOnUse">
<stop stop-color="#00a0ff" offset="0"/>
<stop stop-color="#00a1ff" offset=".01"/>
<stop stop-color="#00beff" offset=".26"/>
<stop stop-color="#00d2ff" offset=".51"/>
<stop stop-color="#00dfff" offset=".76"/>
<stop stop-color="#00e3ff" offset="1"/>
</linearGradient>
</defs>
<metadata>
<rdf:RDF>
<cc:Work rdf:about="">
<dc:format>image/svg+xml</dc:format>
<dc:type rdf:resource="http://purl.org/dc/dcmitype/StillImage"/>
<dc:title/>
</cc:Work>
</rdf:RDF>
</metadata>
<g transform="translate(0,-237)">
<rect class="cls-1" x=".43866" y="237.81" width="152.03" height="58.851" fill-opacity="0" stroke-width=".98085"/>
<rect x=".43866" y="237.74" width="198.87" height="58.925" rx="7.3657" ry="7.3657" stroke-width="1.4731"/>
<path class="cls-2" d="m191.95 238.92a6.1872 6.1872 0 0 1 6.1871 6.1872v44.194a6.1872 6.1872 0 0 1 -6.1871 6.1872h-184.14a6.1872 6.1872 0 0 1 -6.1872 -6.1872v-44.194a6.1872 6.1872 0 0 1 6.1872 -6.1872h184.14m0-1.1785h-184.14a7.3657 7.3657 0 0 0 -7.3657 7.3657v44.194a7.3657 7.3657 0 0 0 7.3657 7.3657h184.14a7.3657 7.3657 0 0 0 7.3656 -7.3657v-44.194a7.3657 7.3657 0 0 0 -7.3656 -7.3657z" fill="#a6a6a6" stroke-width="1.4731"/>
<path class="cls-3" d="m73.71 253.19a3.6923 3.6923 0 0 1 -1.0219 2.725 3.9648 3.9648 0 0 1 -2.9975 1.2126 4.2918 4.2918 0 0 1 -3.0111 -7.3165 4.0874 4.0874 0 0 1 3.0111 -1.2262 4.2237 4.2237 0 0 1 1.6758 0.34047 3.3653 3.3653 0 0 1 1.2808 0.91285l-0.72212 0.72212a2.725 2.725 0 0 0 -2.2345 -0.96737 3.1609 3.1609 0 0 0 -3.1746 3.2699 3.2154 3.2154 0 0 0 5.4499 2.3571 2.5751 2.5751 0 0 0 0.68124 -1.6622h-2.9566v-0.98101h3.9648a3.4607 3.4607 0 0 1 0.05451 0.61311z" fill="#fff" stroke="#fff" stroke-miterlimit="10" stroke-width=".2725px"/>
<path class="cls-3" d="m79.95 249.79h-3.6787v2.5887h3.3517v0.98098h-3.3517v2.5887h3.6787v1.0082h-4.7687v-8.1749h4.7687z" fill="#fff" stroke="#fff" stroke-miterlimit="10" stroke-width=".2725px"/>
<path class="cls-3" d="m84.419 256.95h-1.0491v-7.1666h-2.289v-1.0082h5.6815v1.0082h-2.3435z" fill="#fff" stroke="#fff" stroke-miterlimit="10" stroke-width=".2725px"/>
<path class="cls-3" d="m90.768 256.95v-8.1749h1.0491v8.1749z" fill="#fff" stroke="#fff" stroke-miterlimit="10" stroke-width=".2725px"/>
<path class="cls-3" d="m96.477 256.95h-1.0491v-7.1666h-2.289v-1.0082h5.6134v1.0082h-2.2753z" fill="#fff" stroke="#fff" stroke-miterlimit="10" stroke-width=".2725px"/>
<path class="cls-3" d="m109.39 255.89a4.2509 4.2509 0 0 1 -5.9949 0 4.4144 4.4144 0 0 1 0 -6.063 4.2237 4.2237 0 0 1 5.9949 0 4.4008 4.4008 0 0 1 0 6.063zm-5.2183-0.68125a3.1473 3.1473 0 0 0 4.4417 0 3.4879 3.4879 0 0 0 0 -4.6869 3.1473 3.1473 0 0 0 -4.4417 0 3.4879 3.4879 0 0 0 0 4.6869z" fill="#fff" stroke="#fff" stroke-miterlimit="10" stroke-width=".2725px"/>
<path class="cls-3" d="m112.08 256.95v-8.1749h1.2807l3.9784 6.3628v-6.3628h1.0355v8.1749h-1.09l-4.1555-6.6625v6.6625z" fill="#fff" stroke="#fff" stroke-miterlimit="10" stroke-width=".2725px"/>
<path class="cls-4" d="m101.94 268.87a5.7905 5.7905 0 1 0 5.8178 5.7905 5.7088 5.7088 0 0 0 -5.8178 -5.7905zm0 9.3057a3.5152 3.5152 0 1 1 3.2699 -3.5152 3.3517 3.3517 0 0 1 -3.2699 3.5152zm-12.685-9.3057a5.7905 5.7905 0 1 0 5.8041 5.7905 5.7088 5.7088 0 0 0 -5.8178 -5.7905zm0 9.3057a3.5152 3.5152 0 1 1 3.2563 -3.5152 3.3517 3.3517 0 0 1 -3.2699 3.5152zm-15.11-7.5208v2.4524h5.8859a5.1365 5.1365 0 0 1 -1.3625 3.0928 6.0221 6.0221 0 0 1 -4.537 1.7985 6.5399 6.5399 0 0 1 0 -13.08 6.2674 6.2674 0 0 1 4.4553 1.7576l1.7304-1.7304a8.57 8.57 0 0 0 -6.172 -2.5478 9.006 9.006 0 1 0 0 17.998 8.1749 8.1749 0 0 0 6.281 -2.5206 8.1749 8.1749 0 0 0 2.1255 -5.7496 7.9977 7.9977 0 0 0 -0.13612 -1.5396h-8.2702zm61.734 1.9074a5.4499 5.4499 0 0 0 -4.9594 -3.6923 5.4499 5.4499 0 0 0 -5.4499 5.7905 5.6679 5.6679 0 0 0 5.7496 5.7905 5.7633 5.7633 0 0 0 4.8232 -2.5614l-1.9756-1.3625a3.3108 3.3108 0 0 1 -2.8476 1.6077 2.9429 2.9429 0 0 1 -2.8067 -1.7576l7.7525-3.2018zm-7.9024 1.9347a3.1746 3.1746 0 0 1 3.0247 -3.3789 2.2481 2.2481 0 0 1 2.1527 1.2262zm-6.2947 5.6134h2.5479v-17.031h-2.5479zm-4.1691-9.9461h-0.0953a4.0874 4.0874 0 0 0 -3.0519 -1.3625 5.8041 5.8041 0 0 0 0 11.595 3.9512 3.9512 0 0 0 3.0519 -1.3625h0.0816v0.94012c0 2.2208-1.1854 3.4062-3.0928 3.4062a3.2018 3.2018 0 0 1 -2.9157 -2.0573l-2.2208 0.92646a5.518 5.518 0 0 0 5.1365 3.4198c2.9838 0 5.4499-1.7576 5.4499-6.0358v-10.423h-2.3434zm-2.9157 8.0114a3.5288 3.5288 0 0 1 0 -7.0304 3.2699 3.2699 0 0 1 3.0928 3.5152 3.2427 3.2427 0 0 1 -3.1064 3.5152zm33.217-15.096h-6.0902v17.031h2.5478v-6.4581h3.5561a5.3 5.3 0 1 0 -0.0137 -10.573zm0 8.1748h-3.556v-5.8042h3.6106a2.9157 2.9157 0 1 1 0 5.8314zm15.709-2.4524a4.7687 4.7687 0 0 0 -4.537 2.6023l2.2617 0.94011a2.4116 2.4116 0 0 1 2.3162 -1.2535 2.4525 2.4525 0 0 1 2.7249 2.1936v0.17726a5.627 5.627 0 0 0 -2.6568 -0.65398c-2.4388 0-4.9049 1.3624-4.9049 3.8285a3.9376 3.9376 0 0 0 4.2237 3.7468 3.5833 3.5833 0 0 0 3.2699 -1.6349h0.0816v1.3625h2.4524v-6.5535c0-2.9838-2.2617-4.7141-5.1638-4.7141zm-0.31338 9.333a1.7712 1.7712 0 0 1 -1.9892 -1.4442c0-1.3625 1.4442-1.8121 2.7249-1.8121a4.5234 4.5234 0 0 1 2.3162 0.57225 3.0792 3.0792 0 0 1 -2.9838 2.7249zm14.483-8.9242-2.9157 7.3846h-0.0816l-3.0247-7.3846h-2.725l4.537 10.328-2.5887 5.736h2.6569l6.9759-16.064h-2.8204zm-22.903 10.9h2.5478v-17.031h-2.5478z" fill="#fff" stroke-width="1.3625"/>
<path class="cls-5" d="m23.326 249.51a2.725 2.725 0 0 0 -0.62674 1.9074v30.138a2.725 2.725 0 0 0 0.62674 1.9074l0.09539 0.0953 16.881-16.867v-0.40873l-16.881-16.867z" fill="url(#d)" stroke-width="1.3625"/>
<path class="cls-6" d="m45.888 272.32-5.5862-5.627v-0.40874l5.5862-5.627 0.12275 0.0683 6.6897 3.8013c1.9075 1.0764 1.9075 2.8476 0 3.9376l-6.6625 3.7877z" fill="url(#c)" stroke-width="1.3625"/>
<path class="cls-7" d="m46.052 272.24-5.7496-5.7496-16.976 16.976a2.2208 2.2208 0 0 0 2.834 0.0819l19.906-11.309" fill="url(#b)" stroke-width="1.3625"/>
<path class="cls-8" d="m46.052 260.74-19.906-11.309a2.2208 2.2208 0 0 0 -2.8339 0.0816l16.99 16.976z" fill="url(#a)" stroke-width="1.3625"/>
<path class="cls-9" d="m45.888 272.12-19.742 11.24a2.2753 2.2753 0 0 1 -2.7249 0l-0.09539 0.0953 0.09539 0.0953a2.2617 2.2617 0 0 0 2.7249 0l19.906-11.309z" opacity=".2" stroke-width="1.3625" style="isolation:isolate"/>
<path class="cls-10" d="m23.326 283.28a2.725 2.725 0 0 1 -0.62674 -1.9075v0.20435a2.725 2.725 0 0 0 0.62674 1.9075l0.09539-0.0953z" opacity=".12" stroke-width="1.3625" style="isolation:isolate"/>
<path class="cls-10" d="m52.701 268.26-6.8124 3.8558 0.12275 0.12275 6.6897-3.7877a2.3843 2.3843 0 0 0 1.3625 -1.962 2.5342 2.5342 0 0 1 -1.3625 1.7712z" opacity=".12" stroke-width="1.3625" style="isolation:isolate"/>
<path class="cls-11" d="m26.146 249.62 26.555 15.096a2.5342 2.5342 0 0 1 1.3625 1.7712 2.3843 2.3843 0 0 0 -1.3625 -1.962l-26.555-15.096c-1.9075-1.0764-3.4607-0.17727-3.4607 2.0028v0.20435c0.04087-2.1936 1.5668-3.0928 3.4607-2.0165z" fill="#fff" opacity=".25" stroke-width="1.3625" style="isolation:isolate"/>
</g>
</svg>
