<?xml version="1.0" encoding="UTF-8"?>
<svg width="200mm" height="60mm" version="1.1" viewBox="0 0 200 60" xmlns="http://www.w3.org/2000/svg" xmlns:cc="http://creativecommons.org/ns#" xmlns:dc="http://purl.org/dc/elements/1.1/" xmlns:rdf="http://www.w3.org/1999/02/22-rdf-syntax-ns#">
<defs>
<linearGradient id="a" x1="17.3" x2="27.46" y1="191.82" y2="181.66" gradientTransform="matrix(1.3625 0 0 -1.3625 263.82 396.07)" gradientUnits="userSpaceOnUse">
<stop stop-color="#32a071" offset="0"/>
<stop stop-color="#2da771" offset=".07"/>
<stop stop-color="#15cf74" offset=".48"/>
<stop stop-color="#06e775" offset=".8"/>
<stop stop-color="#00f076" offset="1"/>
</linearGradient>
<linearGradient id="b" x1="34.83" x2="12.07" y1="169.7" y2="146.95" gradientTransform="matrix(1.3625 0 0 -1.3625 263.82 396.07)" gradientUnits="userSpaceOnUse">
<stop stop-color="#ff3a44" offset="0"/>
<stop stop-color="#c31162" offset="1"/>
</linearGradient>
<linearGradient id="c" x1="43.83" x2="19.64" y1="172" y2="172" gradientTransform="matrix(1.3625 0 0 -1.3625 263.82 396.07)" gradientUnits="userSpaceOnUse">
<stop stop-color="#ffe000" offset="0"/>
<stop stop-color="#ffbd00" offset=".41"/>
<stop stop-color="orange" offset=".78"/>
<stop stop-color="#ff9c00" offset="1"/>
</linearGradient>
<linearGradient id="d" x1="31.8" x2="15.02" y1="183.29" y2="166.51" gradientTransform="matrix(1.3625 0 0 -1.3625 263.82 396.07)" gradientUnits="userSpaceOnUse">
<stop stop-color="#00a0ff" offset="0"/>
<stop stop-color="#00a1ff" offset=".01"/>
<stop stop-color="#00beff" offset=".26"/>
<stop stop-color="#00d2ff" offset=".51"/>
<stop stop-color="#00dfff" offset=".76"/>
<stop stop-color="#00e3ff" offset="1"/>
</linearGradient>
</defs>
<metadata>
<rdf:RDF>
<cc:Work rdf:about="">
<dc:format>image/svg+xml</dc:format>
<dc:type rdf:resource="http://purl.org/dc/dcmitype/StillImage"/>
<dc:title/>
</cc:Work>
</rdf:RDF>
</metadata>
<g transform="translate(0,-237)">
<rect class="cls-1" x="268.78" y="133.04" width="152.03" height="58.851" fill-opacity="0" stroke-width=".98085"/>
<rect x="268.78" y="132.97" width="198.87" height="58.925" rx="7.3657" ry="7.3657" stroke-width="1.4731"/>
<path class="cls-2" d="m460.28 134.15a6.1872 6.1872 0 0 1 6.1871 6.1872v44.194a6.1872 6.1872 0 0 1 -6.1871 6.1872h-184.14a6.1872 6.1872 0 0 1 -6.1872 -6.1872v-44.194a6.1872 6.1872 0 0 1 6.1872 -6.1872h184.14m0-1.1785h-184.14a7.3657 7.3657 0 0 0 -7.3657 7.3657v44.194a7.3657 7.3657 0 0 0 7.3657 7.3657h184.14a7.3657 7.3657 0 0 0 7.3656 -7.3657v-44.194a7.3657 7.3657 0 0 0 -7.3656 -7.3657z" fill="#a6a6a6" stroke-width="1.4731"/>
<path class="cls-3" d="m342.05 148.42a3.6923 3.6923 0 0 1 -1.0218 2.725 3.9648 3.9648 0 0 1 -2.9975 1.2126 4.2918 4.2918 0 0 1 -3.0111 -7.3165 4.0874 4.0874 0 0 1 3.0111 -1.2262 4.2237 4.2237 0 0 1 1.6758 0.34047 3.3653 3.3653 0 0 1 1.2808 0.91285l-0.72212 0.72212a2.725 2.725 0 0 0 -2.2345 -0.96737 3.1609 3.1609 0 0 0 -3.1746 3.2699 3.2154 3.2154 0 0 0 5.4499 2.3571 2.5751 2.5751 0 0 0 0.68124 -1.6622h-2.9566v-0.98101h3.9648a3.4607 3.4607 0 0 1 0.0545 0.61311z" fill="#fff" stroke="#fff" stroke-miterlimit="10" stroke-width=".2725px"/>
<path class="cls-3" d="m348.29 145.02h-3.6787v2.5887h3.3517v0.98098h-3.3517v2.5887h3.6787v1.0082h-4.7686v-8.1749h4.7686z" fill="#fff" stroke="#fff" stroke-miterlimit="10" stroke-width=".2725px"/>
<path class="cls-3" d="m352.76 152.18h-1.0491v-7.1666h-2.289v-1.0082h5.6815v1.0082h-2.3435z" fill="#fff" stroke="#fff" stroke-miterlimit="10" stroke-width=".2725px"/>
<path class="cls-3" d="m359.11 152.18v-8.1749h1.0491v8.1749z" fill="#fff" stroke="#fff" stroke-miterlimit="10" stroke-width=".2725px"/>
<path class="cls-3" d="m364.82 152.18h-1.0491v-7.1666h-2.289v-1.0082h5.6134v1.0082h-2.2753z" fill="#fff" stroke="#fff" stroke-miterlimit="10" stroke-width=".2725px"/>
<path class="cls-3" d="m377.73 151.12a4.2509 4.2509 0 0 1 -5.9949 0 4.4144 4.4144 0 0 1 0 -6.063 4.2237 4.2237 0 0 1 5.9949 0 4.4008 4.4008 0 0 1 0 6.063zm-5.2183-0.68125a3.1473 3.1473 0 0 0 4.4417 0 3.4879 3.4879 0 0 0 0 -4.6869 3.1473 3.1473 0 0 0 -4.4417 0 3.4879 3.4879 0 0 0 0 4.6869z" fill="#fff" stroke="#fff" stroke-miterlimit="10" stroke-width=".2725px"/>
<path class="cls-3" d="m380.42 152.18v-8.1749h1.2807l3.9784 6.3628v-6.3628h1.0355v8.1749h-1.09l-4.1555-6.6625v6.6625z" fill="#fff" stroke="#fff" stroke-miterlimit="10" stroke-width=".2725px"/>
<path class="cls-4" d="m370.28 164.1a5.7905 5.7905 0 1 0 5.8178 5.7905 5.7088 5.7088 0 0 0 -5.8178 -5.7905zm0 9.3057a3.5152 3.5152 0 1 1 3.2699 -3.5152 3.3517 3.3517 0 0 1 -3.2699 3.5152zm-12.685-9.3057a5.7905 5.7905 0 1 0 5.8042 5.7905 5.7088 5.7088 0 0 0 -5.8178 -5.7905zm0 9.3057a3.5152 3.5152 0 1 1 3.2563 -3.5152 3.3517 3.3517 0 0 1 -3.2699 3.5152zm-15.11-7.5208v2.4524h5.8859a5.1365 5.1365 0 0 1 -1.3624 3.0928 6.0221 6.0221 0 0 1 -4.537 1.7985 6.5399 6.5399 0 0 1 0 -13.08 6.2674 6.2674 0 0 1 4.4553 1.7576l1.7304-1.7304a8.57 8.57 0 0 0 -6.172 -2.5478 9.006 9.006 0 1 0 0 17.998 8.1749 8.1749 0 0 0 6.281 -2.5206 8.1749 8.1749 0 0 0 2.1255 -5.7496 7.9977 7.9977 0 0 0 -0.13612 -1.5396h-8.2702zm61.734 1.9074a5.4499 5.4499 0 0 0 -4.9594 -3.6923 5.4499 5.4499 0 0 0 -5.4499 5.7905 5.6679 5.6679 0 0 0 5.7496 5.7905 5.7633 5.7633 0 0 0 4.8232 -2.5614l-1.9756-1.3625a3.3108 3.3108 0 0 1 -2.8476 1.6077 2.9429 2.9429 0 0 1 -2.8067 -1.7576l7.7525-3.2018zm-7.9024 1.9347a3.1746 3.1746 0 0 1 3.0247 -3.3789 2.2481 2.2481 0 0 1 2.1527 1.2262zm-6.2947 5.6134h2.5479v-17.031h-2.5479zm-4.1691-9.9461h-0.0953a4.0874 4.0874 0 0 0 -3.0519 -1.3625 5.8041 5.8041 0 0 0 0 11.595 3.9512 3.9512 0 0 0 3.0519 -1.3625h0.0816v0.94012c0 2.2208-1.1854 3.4062-3.0928 3.4062a3.2018 3.2018 0 0 1 -2.9157 -2.0573l-2.2208 0.92646a5.518 5.518 0 0 0 5.1365 3.4198c2.9838 0 5.4499-1.7576 5.4499-6.0358v-10.423h-2.3434zm-2.9157 8.0114a3.5288 3.5288 0 0 1 0 -7.0304 3.2699 3.2699 0 0 1 3.0928 3.5152 3.2427 3.2427 0 0 1 -3.1064 3.5152zm33.217-15.096h-6.0902v17.031h2.5478v-6.4581h3.5561a5.3 5.3 0 1 0 -0.0137 -10.573zm0 8.1748h-3.556v-5.8042h3.6106a2.9157 2.9157 0 1 1 0 5.8314zm15.709-2.4524a4.7687 4.7687 0 0 0 -4.537 2.6023l2.2617 0.94011a2.4116 2.4116 0 0 1 2.3162 -1.2535 2.4525 2.4525 0 0 1 2.7249 2.1936v0.17726a5.627 5.627 0 0 0 -2.6568 -0.65398c-2.4388 0-4.9049 1.3624-4.9049 3.8285a3.9376 3.9376 0 0 0 4.2237 3.7468 3.5833 3.5833 0 0 0 3.2699 -1.6349h0.0816v1.3625h2.4524v-6.5535c0-2.9838-2.2617-4.7141-5.1638-4.7141zm-0.31338 9.333a1.7712 1.7712 0 0 1 -1.9892 -1.4442c0-1.3625 1.4442-1.8121 2.7249-1.8121a4.5234 4.5234 0 0 1 2.3162 0.57225 3.0792 3.0792 0 0 1 -2.9838 2.7249zm14.483-8.9242-2.9157 7.3846h-0.0816l-3.0247-7.3846h-2.725l4.537 10.328-2.5887 5.736h2.6569l6.9759-16.064h-2.8204zm-22.903 10.9h2.5478v-17.031h-2.5478z" fill="#fff" stroke-width="1.3625"/>
<path class="cls-5" d="m291.66 144.74a2.725 2.725 0 0 0 -0.62673 1.9074v30.138a2.725 2.725 0 0 0 0.62673 1.9074l0.0954 0.0953 16.881-16.867v-0.40873l-16.881-16.867z" fill="url(#d)" stroke-width="1.3625"/>
<path class="cls-6" d="m314.23 167.55-5.5862-5.627v-0.40874l5.5862-5.627 0.12275 0.0683 6.6897 3.8013c1.9075 1.0764 1.9075 2.8476 0 3.9376l-6.6625 3.7877z" fill="url(#c)" stroke-width="1.3625"/>
<path class="cls-7" d="m314.39 167.47-5.7496-5.7496-16.976 16.976a2.2208 2.2208 0 0 0 2.834 0.0819l19.906-11.309" fill="url(#b)" stroke-width="1.3625"/>
<path class="cls-8" d="m314.39 155.97-19.906-11.309a2.2208 2.2208 0 0 0 -2.834 0.0816l16.99 16.976z" fill="url(#a)" stroke-width="1.3625"/>
<path class="cls-9" d="m314.23 167.35-19.742 11.24a2.2753 2.2753 0 0 1 -2.725 0l-0.0954 0.0953 0.0954 0.0953a2.2617 2.2617 0 0 0 2.725 0l19.906-11.309z" opacity=".2" stroke-width="1.3625" style="isolation:isolate"/>
<path class="cls-10" d="m291.66 178.51a2.725 2.725 0 0 1 -0.62673 -1.9075v0.20435a2.725 2.725 0 0 0 0.62673 1.9075l0.0954-0.0953z" opacity=".12" stroke-width="1.3625" style="isolation:isolate"/>
<path class="cls-10" d="m321.04 163.49-6.8124 3.8558 0.12275 0.12275 6.6897-3.7877a2.3843 2.3843 0 0 0 1.3625 -1.962 2.5342 2.5342 0 0 1 -1.3625 1.7712z" opacity=".12" stroke-width="1.3625" style="isolation:isolate"/>
<path class="cls-11" d="m294.48 144.85 26.555 15.096a2.5342 2.5342 0 0 1 1.3625 1.7712 2.3843 2.3843 0 0 0 -1.3625 -1.962l-26.555-15.096c-1.9075-1.0764-3.4607-0.17727-3.4607 2.0028v0.20435c0.0409-2.1936 1.5668-3.0928 3.4607-2.0165z" fill="#fff" opacity=".25" stroke-width="1.3625" style="isolation:isolate"/>
<g transform="matrix(1.4647 0 0 1.4647 1.2432 237.77)">
<path d="m130.2 40h-125.47c-2.607 0-4.729-2.128-4.729-4.733v-30.541c0-2.606 2.122-4.726 4.729-4.726h125.47c2.606 0 4.803 2.12 4.803 4.726v30.541c0 2.605-2.197 4.733-4.803 4.733z" fill="#a6a6a6"/>
<path d="m134.03 35.268c0 2.116-1.714 3.83-3.834 3.83h-125.47c-2.119 0-3.839-1.714-3.839-3.83v-30.543c0-2.115 1.72-3.835 3.839-3.835h125.47c2.121 0 3.834 1.72 3.834 3.835z"/>
<g fill="#fff">
<path d="m30.128 19.784c-0.029-3.223 2.639-4.791 2.761-4.864-1.511-2.203-3.853-2.504-4.676-2.528-1.967-0.207-3.875 1.177-4.877 1.177-1.022 0-2.565-1.157-4.228-1.123-2.14 0.033-4.142 1.272-5.24 3.196-2.266 3.923-0.576 9.688 1.595 12.859 1.086 1.553 2.355 3.287 4.016 3.226 1.625-0.067 2.232-1.036 4.193-1.036 1.943 0 2.513 1.036 4.207 0.997 1.744-0.028 2.842-1.56 3.89-3.127 1.255-1.78 1.759-3.533 1.779-3.623-0.041-0.014-3.387-1.291-3.42-5.154z"/>
<path d="m26.928 10.306c0.874-1.093 1.472-2.58 1.306-4.089-1.265 0.056-2.847 0.875-3.758 1.944-0.806 0.942-1.526 2.486-1.34 3.938 1.421 0.106 2.88-0.717 3.792-1.793z"/>
</g>
<g fill="#fff">
<path d="m53.645 31.504h-2.271l-1.244-3.909h-4.324l-1.185 3.909h-2.211l4.284-13.308h2.646zm-3.89-5.549-1.125-3.475c-0.119-0.355-0.342-1.191-0.671-2.507h-0.04c-0.131 0.566-0.342 1.402-0.632 2.507l-1.105 3.475z"/>
<path d="m64.662 26.588c0 1.632-0.441 2.922-1.323 3.869-0.79 0.843-1.771 1.264-2.942 1.264-1.264 0-2.172-0.454-2.725-1.362h-0.04v5.055h-2.132v-10.347c0-1.026-0.027-2.079-0.079-3.159h1.875l0.119 1.521h0.04c0.711-1.146 1.79-1.718 3.238-1.718 1.132 0 2.077 0.447 2.833 1.342 0.758 0.896 1.136 2.074 1.136 3.535zm-2.172 0.078c0-0.934-0.21-1.704-0.632-2.31-0.461-0.632-1.08-0.948-1.856-0.948-0.526 0-1.004 0.176-1.431 0.523-0.428 0.35-0.708 0.807-0.839 1.373-0.066 0.264-0.099 0.48-0.099 0.65v1.6c0 0.698 0.214 1.287 0.642 1.768s0.984 0.721 1.668 0.721c0.803 0 1.428-0.31 1.875-0.928 0.448-0.619 0.672-1.435 0.672-2.449z"/>
<path d="m75.699 26.588c0 1.632-0.441 2.922-1.324 3.869-0.789 0.843-1.77 1.264-2.941 1.264-1.264 0-2.172-0.454-2.724-1.362h-0.04v5.055h-2.132v-10.347c0-1.026-0.027-2.079-0.079-3.159h1.875l0.119 1.521h0.04c0.71-1.146 1.789-1.718 3.238-1.718 1.131 0 2.076 0.447 2.834 1.342 0.755 0.896 1.134 2.074 1.134 3.535zm-2.172 0.078c0-0.934-0.211-1.704-0.633-2.31-0.461-0.632-1.078-0.948-1.855-0.948-0.527 0-1.004 0.176-1.432 0.523-0.428 0.35-0.707 0.807-0.838 1.373-0.065 0.264-0.099 0.48-0.099 0.65v1.6c0 0.698 0.214 1.287 0.64 1.768 0.428 0.48 0.984 0.721 1.67 0.721 0.803 0 1.428-0.31 1.875-0.928 0.448-0.619 0.672-1.435 0.672-2.449z"/>
<path d="m88.039 27.772c0 1.132-0.393 2.053-1.182 2.764-0.867 0.777-2.074 1.165-3.625 1.165-1.432 0-2.58-0.276-3.449-0.829l0.494-1.777c0.936 0.566 1.963 0.85 3.082 0.85 0.803 0 1.428-0.182 1.877-0.544 0.447-0.362 0.67-0.848 0.67-1.454 0-0.54-0.184-0.995-0.553-1.364-0.367-0.369-0.98-0.712-1.836-1.029-2.33-0.869-3.494-2.142-3.494-3.816 0-1.094 0.408-1.991 1.225-2.689 0.814-0.699 1.9-1.048 3.258-1.048 1.211 0 2.217 0.211 3.02 0.632l-0.533 1.738c-0.75-0.408-1.598-0.612-2.547-0.612-0.75 0-1.336 0.185-1.756 0.553-0.355 0.329-0.533 0.73-0.533 1.205 0 0.526 0.203 0.961 0.611 1.303 0.355 0.316 1 0.658 1.936 1.027 1.145 0.461 1.986 1 2.527 1.618 0.539 0.616 0.808 1.387 0.808 2.307z"/>
<path d="m95.088 23.508h-2.35v4.659c0 1.185 0.414 1.777 1.244 1.777 0.381 0 0.697-0.033 0.947-0.099l0.059 1.619c-0.42 0.157-0.973 0.236-1.658 0.236-0.842 0-1.5-0.257-1.975-0.77-0.473-0.514-0.711-1.376-0.711-2.587v-4.837h-1.4v-1.6h1.4v-1.757l2.094-0.632v2.389h2.35z"/>
<path d="m105.69 26.627c0 1.475-0.422 2.686-1.264 3.633-0.883 0.975-2.055 1.461-3.516 1.461-1.408 0-2.529-0.467-3.365-1.401s-1.254-2.113-1.254-3.534c0-1.487 0.43-2.705 1.293-3.652 0.861-0.948 2.023-1.422 3.484-1.422 1.408 0 2.541 0.467 3.396 1.402 0.818 0.907 1.226 2.078 1.226 3.513zm-2.212 0.069c0-0.885-0.189-1.644-0.572-2.277-0.447-0.766-1.086-1.148-1.914-1.148-0.857 0-1.508 0.383-1.955 1.148-0.383 0.634-0.572 1.405-0.572 2.317 0 0.885 0.189 1.644 0.572 2.276 0.461 0.766 1.105 1.148 1.936 1.148 0.814 0 1.453-0.39 1.914-1.168 0.393-0.645 0.591-1.412 0.591-2.296z"/>
<path d="m112.62 23.783c-0.211-0.039-0.436-0.059-0.672-0.059-0.75 0-1.33 0.283-1.738 0.85-0.355 0.5-0.533 1.132-0.533 1.895v5.035h-2.131l0.02-6.574c0-1.106-0.027-2.113-0.08-3.021h1.857l0.078 1.836h0.059c0.225-0.631 0.58-1.139 1.066-1.52 0.475-0.343 0.988-0.514 1.541-0.514 0.197 0 0.375 0.014 0.533 0.039z"/>
<path d="m122.16 26.252c0 0.382-0.025 0.704-0.078 0.967h-6.396c0.025 0.948 0.334 1.673 0.928 2.173 0.539 0.447 1.236 0.671 2.092 0.671 0.947 0 1.811-0.151 2.588-0.454l0.334 1.48c-0.908 0.396-1.98 0.593-3.217 0.593-1.488 0-2.656-0.438-3.506-1.313-0.848-0.875-1.273-2.05-1.273-3.524 0-1.447 0.395-2.652 1.186-3.613 0.828-1.026 1.947-1.539 3.355-1.539 1.383 0 2.43 0.513 3.141 1.539 0.563 0.815 0.846 1.823 0.846 3.02zm-2.033-0.553c0.014-0.632-0.125-1.178-0.414-1.639-0.369-0.593-0.936-0.889-1.699-0.889-0.697 0-1.264 0.289-1.697 0.869-0.355 0.461-0.566 1.014-0.631 1.658h4.441z"/>
</g>
<g fill="#fff">
<path d="m49.05 10.009c0 1.177-0.353 2.063-1.058 2.658-0.653 0.549-1.581 0.824-2.783 0.824-0.596 0-1.106-0.026-1.533-0.078v-6.431c0.557-0.09 1.157-0.136 1.805-0.136 1.145 0 2.008 0.249 2.59 0.747 0.652 0.563 0.979 1.368 0.979 2.416zm-1.105 0.029c0-0.763-0.202-1.348-0.606-1.756-0.404-0.407-0.994-0.611-1.771-0.611-0.33 0-0.611 0.022-0.844 0.068v4.889c0.129 0.02 0.365 0.029 0.708 0.029 0.802 0 1.421-0.223 1.857-0.669s0.656-1.096 0.656-1.95z"/>
<path d="m54.909 11.037c0 0.725-0.207 1.319-0.621 1.785-0.434 0.479-1.009 0.718-1.727 0.718-0.692 0-1.243-0.229-1.654-0.689-0.41-0.459-0.615-1.038-0.615-1.736 0-0.73 0.211-1.329 0.635-1.794s0.994-0.698 1.712-0.698c0.692 0 1.248 0.229 1.669 0.688 0.4 0.446 0.601 1.022 0.601 1.726zm-1.087 0.034c0-0.435-0.094-0.808-0.281-1.119-0.22-0.376-0.533-0.564-0.94-0.564-0.421 0-0.741 0.188-0.961 0.564-0.188 0.311-0.281 0.69-0.281 1.138 0 0.435 0.094 0.808 0.281 1.119 0.227 0.376 0.543 0.564 0.951 0.564 0.4 0 0.714-0.191 0.94-0.574 0.194-0.317 0.291-0.693 0.291-1.128z"/>
<path d="m62.765 8.719-1.475 4.714h-0.96l-0.611-2.047c-0.155-0.511-0.281-1.019-0.379-1.523h-0.019c-0.091 0.518-0.217 1.025-0.379 1.523l-0.649 2.047h-0.971l-1.387-4.714h1.077l0.533 2.241c0.129 0.53 0.235 1.035 0.32 1.513h0.019c0.078-0.394 0.207-0.896 0.389-1.503l0.669-2.25h0.854l0.641 2.202c0.155 0.537 0.281 1.054 0.378 1.552h0.029c0.071-0.485 0.178-1.002 0.32-1.552l0.572-2.202h1.029z"/>
<path d="m68.198 13.433h-1.048v-2.7c0-0.832-0.316-1.248-0.95-1.248-0.311 0-0.562 0.114-0.757 0.343-0.193 0.229-0.291 0.499-0.291 0.808v2.796h-1.048v-3.366c0-0.414-0.013-0.863-0.038-1.349h0.921l0.049 0.737h0.029c0.122-0.229 0.304-0.418 0.543-0.569 0.284-0.176 0.602-0.265 0.95-0.265 0.44 0 0.806 0.142 1.097 0.427 0.362 0.349 0.543 0.87 0.543 1.562z"/>
<path d="m71.088 13.433h-1.047v-6.877h1.047z"/>
<path d="m77.258 11.037c0 0.725-0.207 1.319-0.621 1.785-0.434 0.479-1.01 0.718-1.727 0.718-0.693 0-1.244-0.229-1.654-0.689-0.41-0.459-0.615-1.038-0.615-1.736 0-0.73 0.211-1.329 0.635-1.794s0.994-0.698 1.711-0.698c0.693 0 1.248 0.229 1.67 0.688 0.4 0.446 0.601 1.022 0.601 1.726zm-1.088 0.034c0-0.435-0.094-0.808-0.281-1.119-0.219-0.376-0.533-0.564-0.939-0.564-0.422 0-0.742 0.188-0.961 0.564-0.188 0.311-0.281 0.69-0.281 1.138 0 0.435 0.094 0.808 0.281 1.119 0.227 0.376 0.543 0.564 0.951 0.564 0.4 0 0.713-0.191 0.939-0.574 0.195-0.317 0.291-0.693 0.291-1.128z"/>
<path d="m82.33 13.433h-0.941l-0.078-0.543h-0.029c-0.322 0.433-0.781 0.65-1.377 0.65-0.445 0-0.805-0.143-1.076-0.427-0.246-0.258-0.369-0.579-0.369-0.96 0-0.576 0.24-1.015 0.723-1.319 0.482-0.304 1.16-0.453 2.033-0.446v-0.088c0-0.621-0.326-0.931-0.979-0.931-0.465 0-0.875 0.117-1.229 0.349l-0.213-0.688c0.438-0.271 0.979-0.407 1.617-0.407 1.232 0 1.85 0.65 1.85 1.95v1.736c0 0.471 0.023 0.846 0.068 1.124zm-1.088-1.62v-0.727c-1.156-0.02-1.734 0.297-1.734 0.95 0 0.246 0.066 0.43 0.201 0.553s0.307 0.184 0.512 0.184c0.23 0 0.445-0.073 0.641-0.218 0.197-0.146 0.318-0.331 0.363-0.558 0.011-0.051 0.017-0.113 0.017-0.184z"/>
<path d="m88.285 13.433h-0.93l-0.049-0.757h-0.029c-0.297 0.576-0.803 0.864-1.514 0.864-0.568 0-1.041-0.223-1.416-0.669s-0.562-1.025-0.562-1.736c0-0.763 0.203-1.381 0.611-1.853 0.395-0.44 0.879-0.66 1.455-0.66 0.633 0 1.076 0.213 1.328 0.64h0.02v-2.706h1.049v5.607c0 0.459 0.012 0.882 0.037 1.27zm-1.086-1.988v-0.786c0-0.136-0.01-0.246-0.029-0.33-0.059-0.252-0.186-0.464-0.379-0.635-0.195-0.171-0.43-0.257-0.701-0.257-0.391 0-0.697 0.155-0.922 0.466-0.223 0.311-0.336 0.708-0.336 1.193 0 0.466 0.107 0.844 0.322 1.135 0.227 0.31 0.533 0.465 0.916 0.465 0.344 0 0.619-0.129 0.828-0.388 0.202-0.239 0.301-0.527 0.301-0.863z"/>
<path d="m97.248 11.037c0 0.725-0.207 1.319-0.621 1.785-0.434 0.479-1.008 0.718-1.727 0.718-0.691 0-1.242-0.229-1.654-0.689-0.41-0.459-0.615-1.038-0.615-1.736 0-0.73 0.211-1.329 0.635-1.794s0.994-0.698 1.713-0.698c0.691 0 1.248 0.229 1.668 0.688 0.4 0.446 0.601 1.022 0.601 1.726zm-1.086 0.034c0-0.435-0.094-0.808-0.281-1.119-0.221-0.376-0.533-0.564-0.941-0.564-0.42 0-0.74 0.188-0.961 0.564-0.188 0.311-0.281 0.69-0.281 1.138 0 0.435 0.094 0.808 0.281 1.119 0.227 0.376 0.543 0.564 0.951 0.564 0.4 0 0.715-0.191 0.941-0.574 0.193-0.317 0.291-0.693 0.291-1.128z"/>
<path d="m102.88 13.433h-1.047v-2.7c0-0.832-0.316-1.248-0.951-1.248-0.311 0-0.562 0.114-0.756 0.343s-0.291 0.499-0.291 0.808v2.796h-1.049v-3.366c0-0.414-0.012-0.863-0.037-1.349h0.92l0.049 0.737h0.029c0.123-0.229 0.305-0.418 0.543-0.569 0.285-0.176 0.602-0.265 0.951-0.265 0.439 0 0.805 0.142 1.096 0.427 0.363 0.349 0.543 0.87 0.543 1.562z"/>
<path d="m109.94 9.504h-1.154v2.29c0 0.582 0.205 0.873 0.611 0.873 0.188 0 0.344-0.016 0.467-0.049l0.027 0.795c-0.207 0.078-0.479 0.117-0.814 0.117-0.414 0-0.736-0.126-0.969-0.378-0.234-0.252-0.35-0.676-0.35-1.271v-2.377h-0.689v-0.785h0.689v-0.864l1.027-0.31v1.173h1.154v0.786z"/>
<path d="m115.48 13.433h-1.049v-2.68c0-0.845-0.316-1.268-0.949-1.268-0.486 0-0.818 0.245-1 0.735-0.031 0.103-0.049 0.229-0.049 0.377v2.835h-1.047v-6.876h1.047v2.841h0.02c0.33-0.517 0.803-0.775 1.416-0.775 0.434 0 0.793 0.142 1.078 0.427 0.355 0.355 0.533 0.883 0.533 1.581z"/>
<path d="m121.21 10.853c0 0.188-0.014 0.346-0.039 0.475h-3.143c0.014 0.466 0.164 0.821 0.455 1.067 0.266 0.22 0.609 0.33 1.029 0.33 0.465 0 0.889-0.074 1.271-0.223l0.164 0.728c-0.447 0.194-0.973 0.291-1.582 0.291-0.73 0-1.305-0.215-1.721-0.645-0.418-0.43-0.625-1.007-0.625-1.731 0-0.711 0.193-1.303 0.582-1.775 0.406-0.504 0.955-0.756 1.648-0.756 0.678 0 1.193 0.252 1.541 0.756 0.281 0.4 0.42 0.895 0.42 1.483zm-1-0.271c8e-3 -0.311-0.061-0.579-0.203-0.805-0.182-0.291-0.459-0.437-0.834-0.437-0.342 0-0.621 0.142-0.834 0.427-0.174 0.227-0.277 0.498-0.311 0.815z"/>
</g>
</g>
</g>
</svg>
