<?xml version="1.0" encoding="utf-8"?>
<!-- Generator: Adobe Illustrator 23.0.1, SVG Export Plug-In . SVG Version: 6.00 Build 0)  -->
<svg version="1.1" id="Capa_1" xmlns="http://www.w3.org/2000/svg" xmlns:xlink="http://www.w3.org/1999/xlink" x="0px" y="0px"
	 viewBox="0 0 463 463" style="enable-background:new 0 0 463 463; fill: #2f3387;" xml:space="preserve">
<g>
	<path d="M423.5,60H158.1c-3.4-13.8-15.8-24-30.6-24h-64c-15,0-27.6,10.5-30.7,24.6C14.2,63.8,0,80,0,99.5v288
		C0,409.3,17.7,427,39.5,427h384c21.8,0,39.5-17.7,39.5-39.5v-288C463,77.7,445.3,60,423.5,60z M63.5,51h64
		c9.1,0,16.5,7.4,16.5,16.5l0,0v0.1v287.9c0,9.1-7.4,16.5-16.5,16.5h-64c-9.1,0-16.5-7.4-16.5-16.5v-288C47,58.4,54.4,51,63.5,51z
		 M448,387.5c0,13.5-11,24.5-24.5,24.5h-384C26,412,15,401,15,387.5v-288c0-10.9,7.1-20.1,17-23.3v279.3c0,17.4,14.1,31.5,31.5,31.5
		h64c17.4,0,31.5-14.1,31.5-31.5V75h264.5C437,75,448,86,448,99.5V387.5z"/>
	<path d="M391.5,100h-176c-8.5,0-15.5,7-15.5,15.5v24c0,8.5,7,15.5,15.5,15.5h176c8.5,0,15.5-7,15.5-15.5v-24
		C407,107,400,100,391.5,100z M392,139.5c0,0.3-0.2,0.5-0.5,0.5h-176c-0.3,0-0.5-0.2-0.5-0.5v-24c0-0.3,0.2-0.5,0.5-0.5h176
		c0.3,0,0.5,0.2,0.5,0.5V139.5z"/>
	<g>
		<path d="M247.4,219.5h-35.9c-4.6,0-8.4-7.7-8.4-12.4v-3.3c0-4.6,3.7-8.4,8.4-8.4h35.9c4.6,0,8.4,3.7,8.4,8.4v3.3
			C255.9,211.8,252.2,219.5,247.4,219.5z"/>
		<path d="M321.5,219.5h-35.9c-4.6,0-8.4-7.7-8.4-12.4v-3.3c0-4.6,3.7-8.4,8.4-8.4h35.9c4.6,0,8.4,3.7,8.4,8.4v3.3
			C329.8,211.8,326.2,219.5,321.5,219.5z"/>
		<path d="M395.5,219.5h-35.9c-4.6,0-8.4-7.7-8.4-12.4v-3.3c0-4.6,3.7-8.4,8.4-8.4h35.9c4.6,0,8.4,3.7,8.4,8.4v3.3
			C403.8,211.8,400.2,219.5,395.5,219.5z"/>
	</g>
	<g>
		<path d="M247.4,265.5h-35.9c-4.6,0-8.4-7.7-8.4-12.4v-3.3c0-4.6,3.7-8.4,8.4-8.4h35.9c4.6,0,8.4,3.7,8.4,8.4v3.3
			C255.9,257.9,252.2,265.5,247.4,265.5z"/>
		<path d="M321.5,265.5h-35.9c-4.6,0-8.4-7.7-8.4-12.4v-3.3c0-4.6,3.7-8.4,8.4-8.4h35.9c4.6,0,8.4,3.7,8.4,8.4v3.3
			C329.8,257.9,326.2,265.5,321.5,265.5z"/>
		<path d="M395.5,265.5h-35.9c-4.6,0-8.4-7.7-8.4-12.4v-3.3c0-4.6,3.7-8.4,8.4-8.4h35.9c4.6,0,8.4,3.7,8.4,8.4v3.3
			C403.8,257.9,400.2,265.5,395.5,265.5z"/>
	</g>
	<g>
		<path d="M247.4,311.6h-35.9c-4.6,0-8.4-7.7-8.4-12.4v-3.3c0-4.6,3.7-8.4,8.4-8.4h35.9c4.6,0,8.4,3.7,8.4,8.4v3.3
			C255.9,303.9,252.2,311.6,247.4,311.6z"/>
		<path d="M321.5,311.6h-35.9c-4.6,0-8.4-7.7-8.4-12.4v-3.3c0-4.6,3.7-8.4,8.4-8.4h35.9c4.6,0,8.4,3.7,8.4,8.4v3.3
			C329.8,303.9,326.2,311.6,321.5,311.6z"/>
		<path d="M395.5,311.6h-35.9c-4.6,0-8.4-7.7-8.4-12.4v-3.3c0-4.6,3.7-8.4,8.4-8.4h35.9c4.6,0,8.4,3.7,8.4,8.4v3.3
			C403.8,303.9,400.2,311.6,395.5,311.6z"/>
	</g>
	<g>
		<path d="M247.4,357.6h-35.9c-4.6,0-8.4-7.7-8.4-12.4v-3.3c0-4.6,3.7-8.4,8.4-8.4h35.9c4.6,0,8.4,3.7,8.4,8.4v3.3
			C255.9,349.9,252.2,357.6,247.4,357.6z"/>
		<path d="M321.5,357.6h-35.9c-4.6,0-8.4-7.7-8.4-12.4v-3.3c0-4.6,3.7-8.4,8.4-8.4h35.9c4.6,0,8.4,3.7,8.4,8.4v3.3
			C329.8,349.9,326.2,357.6,321.5,357.6z"/>
		<path d="M395.5,357.6h-35.9c-4.6,0-8.4-7.7-8.4-12.4v-3.3c0-4.6,3.7-8.4,8.4-8.4h35.9c4.6,0,8.4,3.7,8.4,8.4v3.3
			C403.8,349.9,400.2,357.6,395.5,357.6z"/>
	</g>
</g>
</svg>
