<?xml version="1.0" encoding="utf-8"?>
<!-- Generator: Adobe Illustrator 23.0.1, SVG Export Plug-In . SVG Version: 6.00 Build 0)  -->
<svg version="1.1" id="Layer_1" xmlns="http://www.w3.org/2000/svg" xmlns:xlink="http://www.w3.org/1999/xlink" x="0px" y="0px"
	 viewBox="0 0 490.3 490.3" style="enable-background:new 0 0 490.3 490.3; fill: #2f3387;" xml:space="preserve">
<g>
	<g>
		<path d="M337.7,453.9V351.5c0-5.5-4.4-9.9-9.9-9.9s-9.9,4.4-9.9,9.9V454c0,9.1-7.4,16.5-16.5,16.5h-232c-9.1,0-16.5-7.4-16.5-16.5
			V36.3c0-9.1,7.4-16.4,16.5-16.4h232c9.1,0,16.5,7.4,16.5,16.4V57c0,5.5,4.4,9.9,9.9,9.9s9.9-4.4,9.9-9.9V36.3
			c0-20-16.3-36.3-36.3-36.3h-232c-20,0-36.3,16.3-36.3,36.3V454c0,20,16.3,36.3,36.3,36.3h232C321.5,490.2,337.7,473.9,337.7,453.9
			z"/>
		<path d="M215.2,411h-59.5c-5.5,0-9.9,4.4-9.9,9.9s4.4,9.9,9.9,9.9h59.5c5.5,0,9.9-4.4,9.9-9.9S220.7,411,215.2,411z"/>
		<path d="M392.8,193.1c-4.6,0-8.5-3.3-9.3-7.8c-2-11.8-7.6-22.6-16.2-31.2c-8.6-8.6-19.4-14.2-31.2-16.2c-2.4-0.4-4.6-1.7-6-3.8
			c-1.5-2.1-2-4.6-1.6-7.1c0.8-4.5,4.7-7.8,9.3-7.8c0.5,0,1,0,1.5,0.1c15.7,2.7,30,10.1,41.4,21.4c11.3,11.3,18.8,25.6,21.4,41.3
			c0.8,5.2-2.6,10.1-7.8,10.9h-0.2C393.8,193,393.3,193.1,392.8,193.1z"/>
		<g>
			<path d="M383.1,338c-1.1,0-2.5-0.1-3.5-0.1c-18.8-1.2-35.7-8.2-48.3-14.3c-32.6-15.7-61.1-38.1-84.8-66.4
				c-19.4-23.4-32.6-45.4-41.4-69.2c-3.7-9.9-8.4-24.8-7.1-41.1c0.9-10.4,5.2-19.5,12.6-26.9l18.3-18.4c6.1-5.8,13.1-8.9,20.5-8.9
				c7.4,0,14.4,3,20.2,8.8c3.6,3.3,7,6.7,10.1,10c1.6,1.7,3.3,3.4,4.9,5.1l14.6,14.6c12.5,12.5,12.5,29.2,0,41.8
				c-0.8,0.8-1.5,1.5-2.2,2.2c-0.8,0.8-1.5,1.6-2.2,2.2l-1.1,1.1c-3,3.1-6.2,6.3-9.5,9.4c3,6.3,7.2,12.5,12.9,19.9
				c13.5,16.6,27.6,29.4,43.1,39.3c1.3,0.9,3.1,1.7,4.9,2.7c0,0,1.8,0.9,2,1l15.2-15c6.1-6.1,13.1-9.2,20.7-9.2
				c7.5,0,14.6,3.3,20.4,9.3l29.3,29.4c6.1,6,9.2,13.1,9.2,20.7s-3.1,14.7-9,20.8c-2,2.1-4.3,4.3-7.1,7l-0.8,0.7
				c-3,2.9-5.8,5.6-8.2,8.5c0,0,0,0.1-0.1,0.1v0.1l-0.3,0.3C407.7,333.2,396.5,338,383.1,338z M249.6,114.1c-1.8,0-3.8,1-5.8,2.9
				l-18.2,18.2c-3.9,3.9-6,8.3-6.4,13.8c-0.8,9.3,1,19.2,5.7,32c8,21.4,20,41.4,37.8,63.1c21.8,25.9,47.8,46.4,77.7,60.9
				c10.8,5.2,25.2,11.2,40.4,12.1c0.7,0,1.5,0,2.2,0c7.4,0,12.8-2.2,17.5-7.4c3.4-4,7.1-7.6,10.4-10.9l1.2-1.1
				c1.5-1.5,2.9-2.8,4.3-4.3l1.9-2c3.3-3.9,2.9-7.2-0.9-11L388,250.8c-0.8-0.9-2.8-2.8-5.2-2.8s-4.6,1.9-5.7,3l-18.3,18.3
				c-3.1,3.1-6.6,4.7-10.6,4.7c-2.2,0-4.5-0.6-6.7-1.7c-0.2-0.1-0.4-0.2-0.6-0.3l-0.1-0.1l-0.2-0.1c-1.5-0.9-3.1-1.8-5.1-2.7
				c-2.2-1.1-4.5-2.2-6.8-3.7c-17.4-11-33.1-25.4-48.2-43.8l-0.2-0.2c-8.4-10.7-13.8-19.5-17.7-29l-0.1-0.2l-0.1-0.4
				c-0.7-2.2-2.8-9,3.4-15.4c0.2-0.2,0.4-0.4,0.6-0.6l0,0c4.5-4,8.5-8.1,13.2-12.9c1.1-1,2.1-2,3-3c0.6-0.6,1-1,1.6-1.6
				c2.1-2.1,3.3-4.2,3.3-6c0-1.8-1.1-3.7-3.3-6l-14.6-14.6c-0.9-0.9-1.7-1.8-2.6-2.6c-0.9-0.9-1.7-1.8-2.6-2.6
				c-3.5-3.6-6.4-6.6-9.5-9.4l-0.2-0.2C253.8,115.6,251.8,114.1,249.6,114.1z"/>
			<path d="M446.7,205c-5.2,0-9.5-3.7-10.4-8.8c-4.2-24.3-15.5-46.3-33.1-63.8c-17.6-17.5-39.6-29-63.8-33.1
				c-5.8-1-9.7-6.4-8.6-12.2c0.9-5.2,5.3-8.8,10.3-8.8c0.6,0,1.2,0,1.8,0.1c28.5,4.8,54.6,18.4,75.2,39c20.7,20.7,34.1,46.7,39,75.2
				c0.4,2.8-0.1,5.6-1.8,7.9c-1.7,2.4-4.2,3.8-6.8,4.3h-0.2C447.8,204.8,447.2,205,446.7,205z"/>
		</g>
	</g>
</g>
</svg>
