<?xml version="1.0" encoding="utf-8"?>
<!-- Generator: Adobe Illustrator 15.0.2, SVG Export Plug-In . SVG Version: 6.00 Build 0)  -->
<!DOCTYPE svg PUBLIC "-//W3C//DTD SVG 1.1//EN" "http://www.w3.org/Graphics/SVG/1.1/DTD/svg11.dtd">
<svg version="1.1" id="Layer_1" xmlns="http://www.w3.org/2000/svg" xmlns:xlink="http://www.w3.org/1999/xlink" x="0px" y="0px"
	 width="200px" height="200px" viewBox="0 0 200 200" enable-background="new 0 0 200 200" xml:space="preserve">
<path fill="#262194" d="M114.45,25.025c-1.983,0.168-3.231,2.215-2.469,4.057l18.998,48.875H69.02l18.998-48.875
	c0.808-1.983-0.708-4.136-2.847-4.046c-1.179,0.052-2.218,0.803-2.631,1.907L62.704,77.957H23.543c-4.835,0-8.821,3.985-8.821,8.821
	v2.939c0,4.837,3.985,8.823,8.821,8.823h88.22c3.977,0.056,3.977-5.936,0-5.882h-88.22c-1.68,0-2.939-1.259-2.939-2.941v-2.939
	c0-1.68,1.26-2.94,2.939-2.94h152.912c1.683,0,2.942,1.26,2.942,2.94v2.939c0,1.682-1.26,2.941-2.942,2.941h-41.167
	c-3.977-0.054-3.977,5.938,0,5.882h41.167c4.836,0,8.823-3.986,8.823-8.823v-2.939c0-4.836-3.987-8.821-8.823-8.821h-39.158
	L117.46,26.943c-0.421-1.138-1.5-1.898-2.71-1.918C114.648,25.021,114.55,25.021,114.45,25.025"/>
<path fill="#262194" d="M167.668,93.396c-1.396-0.013-2.611,0.947-2.908,2.301l-4.983,21.377c-0.364,1.568,0.623,3.131,2.204,3.494
	c1.585,0.361,3.162-0.617,3.531-2.188l4.981-21.363c0.394-1.563-0.564-3.145-2.142-3.534
	C168.129,93.428,167.897,93.399,167.668,93.396 M32.238,93.396c-1.62,0.067-2.883,1.426-2.816,3.034
	c0.009,0.193,0.036,0.387,0.083,0.576l14.484,62.173c2.152,9.236,10.492,15.799,20.058,15.799h71.907
	c9.567,0,17.904-6.563,20.057-15.799l3.156-13.602c0.461-1.543-0.428-3.166-1.986-3.621c-1.557-0.459-3.193,0.422-3.652,1.965
	c-0.034,0.115-0.061,0.23-0.081,0.344l-3.171,13.605c-1.543,6.621-7.461,11.279-14.322,11.279H64.047
	c-6.862,0-12.782-4.658-14.325-11.279L35.238,95.684C34.933,94.301,33.668,93.336,32.238,93.396z M163.244,128.09
	c0.389-1.563-0.576-3.139-2.154-3.523c-0.216-0.051-0.437-0.078-0.657-0.084v0.004c-1.401-0.021-2.622,0.941-2.919,2.297
	l-1.804,7.762c-0.45,1.549,0.447,3.166,2.006,3.611c1.561,0.449,3.193-0.441,3.644-1.986c0.031-0.1,0.054-0.201,0.072-0.305"/>
<path fill="#262194" d="M60.266,111.77c-1.624,0.02-2.924,1.354-2.901,2.977c0.004,0.197,0.022,0.393,0.065,0.584l7.33,36.678
	c0.272,1.602,1.792,2.676,3.394,2.402c1.599-0.275,2.674-1.795,2.402-3.395c-0.007-0.055-0.021-0.105-0.029-0.158l-7.33-36.678
	C62.938,112.77,61.701,111.75,60.266,111.77"/>
<path fill="#262194" d="M139.641,111.77c-1.401,0.027-2.587,1.035-2.837,2.41l-7.329,36.678c-0.362,1.586,0.632,3.16,2.215,3.52
	c1.584,0.361,3.16-0.631,3.521-2.213c0.011-0.053,0.022-0.105,0.033-0.156l7.327-36.678c0.342-1.588-0.67-3.154-2.256-3.496
	C140.095,111.787,139.867,111.766,139.641,111.77"/>
<path fill="#262194" d="M85.192,111.781c-1.624,0.053-2.892,1.414-2.838,3.037c0.004,0.098,0.011,0.193,0.025,0.291l4.399,36.666
	c0.2,1.615,1.671,2.762,3.284,2.563c1.606-0.201,2.751-1.656,2.564-3.262l-4.399-36.666
	C88.063,112.873,86.74,111.725,85.192,111.781z"/>
<path fill="#262194" d="M114.714,111.77c-1.512-0.008-2.787,1.133-2.942,2.641l-4.396,36.666c-0.187,1.615,0.97,3.074,2.584,3.264
	c1.606,0.186,3.063-0.959,3.262-2.563l4.398-36.668c0.223-1.605-0.901-3.092-2.51-3.313
	C114.979,111.777,114.844,111.77,114.714,111.77"/>
</svg>
