<?xml version="1.0" encoding="utf-8"?>
<!-- Generator: Adobe Illustrator 15.0.2, SVG Export Plug-In . SVG Version: 6.00 Build 0)  -->
<!DOCTYPE svg PUBLIC "-//W3C//DTD SVG 1.1//EN" "http://www.w3.org/Graphics/SVG/1.1/DTD/svg11.dtd">
<svg version="1.1" id="Layer_1" xmlns="http://www.w3.org/2000/svg" xmlns:xlink="http://www.w3.org/1999/xlink" x="0px" y="0px"
	 width="200px" height="200px" viewBox="0 0 200 200" enable-background="new 0 0 200 200" xml:space="preserve">
<line fill="none" stroke="#262194" stroke-width="6" stroke-linecap="round" stroke-linejoin="bevel" stroke-miterlimit="10" x1="151.659" y1="162.852" x2="108.395" y2="119.584"/>
<path fill="none" stroke="#262194" stroke-width="6" stroke-linecap="round" stroke-linejoin="bevel" stroke-miterlimit="10" d="
	M41.107,42.851C52.73,30.76,70.072,24.644,87.752,28.122c27.633,5.434,45.632,32.24,40.198,59.874
	c-0.798,4.051-2.054,7.894-3.704,11.487"/>
<path fill="none" stroke="#262194" stroke-width="6" stroke-linecap="round" stroke-linejoin="bevel" stroke-miterlimit="10" d="
	M124.246,99.483c-9.608,20.917-32.59,33.346-56.175,28.708c-9.722-1.913-18.253-6.469-24.99-12.777"/>
<path fill="none" stroke="#262194" stroke-width="6" stroke-linecap="round" stroke-linejoin="bevel" stroke-miterlimit="10" d="
	M120.889,109.614l47.839,47.841c4.406,4.403,5.484,10.537,2.397,13.626c-3.089,3.092-9.222,2.012-13.632-2.395l-5.707-5.708"/>
<path fill="none" stroke="#262194" stroke-width="6" stroke-linecap="round" stroke-linejoin="bevel" stroke-miterlimit="10" d="
	M30.324,95.999c-3.188-8.54-4.13-18.042-2.24-27.639c5.434-27.636,32.24-45.632,59.876-40.199c4.048,0.795,7.891,2.054,11.485,3.701
	"/>
<path fill="none" stroke="#262194" stroke-width="6" stroke-linecap="round" stroke-linejoin="bevel" stroke-miterlimit="10" d="
	M40.193,69.432c1.411-7.713,5.253-15.048,11.471-20.758c15.189-13.945,38.802-12.938,52.748,2.251
	c2.042,2.226,3.766,4.632,5.168,7.163"/>
</svg>
